<svg viewBox="0 0 76 77" fill="none" xmlns="http://www.w3.org/2000/svg">
<path fill-rule="evenodd" clip-rule="evenodd" d="M5.06543 16.363C5.06543 11.5788 8.8934 7.70047 13.6154 7.70047C18.3375 7.70047 22.1654 11.5788 22.1654 16.363C22.1654 17.9977 21.7185 19.5267 20.9417 20.8313L33.3122 31.5741C34.658 30.6788 36.2683 30.158 37.9986 30.158C39.729 30.158 41.3394 30.6789 42.6853 31.5742L55.056 20.8313C54.2792 19.5267 53.8322 17.9977 53.8322 16.363C53.8322 11.5788 57.6602 7.70047 62.3823 7.70047C67.1043 7.70047 70.9323 11.5788 70.9323 16.363C70.9323 20.4854 68.0901 23.9352 64.2827 24.8107V58.879L69.9059 53.1819L72.5929 55.9042L62.3827 66.2488L52.1726 55.9042L54.8596 53.1819L60.4827 58.879V24.8109C59.4745 24.5792 58.5339 24.1669 57.6959 23.6095L45.3251 34.3526C46.1018 35.6571 46.5486 37.1859 46.5486 38.8205C46.5486 43.6047 42.7206 47.483 37.9986 47.483C33.2766 47.483 29.4486 43.6047 29.4486 38.8205C29.4486 37.1858 29.8955 35.6569 30.6723 34.3523L18.3018 23.6095C17.4638 24.1669 16.5232 24.5792 15.515 24.8109V58.879L21.1381 53.1819L23.8251 55.9042L13.615 66.2488L3.40479 55.9042L6.09179 53.1819L11.715 58.879V24.8107C7.90762 23.9352 5.06543 20.4854 5.06543 16.363ZM13.6154 11.5505C10.9921 11.5505 8.86543 13.7051 8.86543 16.363C8.86543 19.0208 10.9921 21.1755 13.6154 21.1755C16.2388 21.1755 18.3654 19.0208 18.3654 16.363C18.3654 13.7051 16.2388 11.5505 13.6154 11.5505ZM37.9986 34.008C35.3753 34.008 33.2486 36.1626 33.2486 38.8205C33.2486 41.4784 35.3753 43.633 37.9986 43.633C40.622 43.633 42.7486 41.4784 42.7486 38.8205C42.7486 36.1626 40.622 34.008 37.9986 34.008ZM62.3823 11.5505C65.0056 11.5505 67.1323 13.7051 67.1323 16.363C67.1323 19.0208 65.0056 21.1755 62.3823 21.1755C59.7589 21.1755 57.6323 19.0208 57.6323 16.363C57.6323 13.7051 59.7589 11.5505 62.3823 11.5505Z" fill="#3B82F6"/>
</svg>
