<svg width="980" height="748" viewBox="0 0 980 748" fill="none" xmlns="http://www.w3.org/2000/svg">
<rect x="701" y="241" width="163" height="268" rx="5" fill="#9CA3AF"/>
<path d="M727.6 267.12C727.072 267.12 726.616 267.02 726.232 266.82C725.856 266.62 725.564 266.332 725.356 265.956C725.156 265.572 725.056 265.12 725.056 264.6V260.64C725.056 260.112 725.156 259.66 725.356 259.284C725.564 258.908 725.856 258.62 726.232 258.42C726.616 258.22 727.072 258.12 727.6 258.12C728.128 258.12 728.58 258.22 728.956 258.42C729.34 258.62 729.632 258.908 729.832 259.284C730.04 259.66 730.144 260.108 730.144 260.628V264.6C730.144 265.12 730.04 265.572 729.832 265.956C729.632 266.332 729.34 266.62 728.956 266.82C728.58 267.02 728.128 267.12 727.6 267.12ZM727.6 266.148C728.072 266.148 728.432 266.016 728.68 265.752C728.936 265.48 729.064 265.096 729.064 264.6V260.64C729.064 260.144 728.936 259.764 728.68 259.5C728.432 259.228 728.072 259.092 727.6 259.092C727.136 259.092 726.776 259.228 726.52 259.5C726.264 259.764 726.136 260.144 726.136 260.64V264.6C726.136 265.096 726.264 265.48 726.52 265.752C726.776 266.016 727.136 266.148 727.6 266.148ZM732.527 267V260.4H733.583V261.66H733.835L733.487 262.44C733.487 261.728 733.639 261.192 733.943 260.832C734.255 260.464 734.715 260.28 735.323 260.28C736.019 260.28 736.571 260.5 736.979 260.94C737.395 261.372 737.603 261.96 737.603 262.704V263.1H736.523V262.8C736.523 262.28 736.395 261.884 736.139 261.612C735.891 261.332 735.535 261.192 735.071 261.192C734.615 261.192 734.255 261.332 733.991 261.612C733.735 261.892 733.607 262.288 733.607 262.8V267H732.527ZM740.323 269.16V268.176H742.423C742.759 268.176 743.003 268.1 743.155 267.948C743.315 267.796 743.395 267.56 743.395 267.24V266.4L743.419 265.2H743.203L743.407 265.02C743.407 265.5 743.247 265.88 742.927 266.16C742.607 266.44 742.179 266.58 741.643 266.58C740.963 266.58 740.427 266.36 740.035 265.92C739.643 265.472 739.447 264.872 739.447 264.12V262.728C739.447 261.976 739.643 261.38 740.035 260.94C740.427 260.5 740.963 260.28 741.643 260.28C742.179 260.28 742.607 260.42 742.927 260.7C743.247 260.98 743.407 261.36 743.407 261.84L743.203 261.66H743.407V260.4H744.475V267.24C744.475 267.832 744.291 268.3 743.923 268.644C743.563 268.988 743.059 269.16 742.411 269.16H740.323ZM741.967 265.644C742.415 265.644 742.767 265.504 743.023 265.224C743.279 264.944 743.407 264.556 743.407 264.06V262.8C743.407 262.304 743.279 261.916 743.023 261.636C742.767 261.356 742.415 261.216 741.967 261.216C741.511 261.216 741.155 261.352 740.899 261.624C740.651 261.896 740.527 262.288 740.527 262.8V264.06C740.527 264.572 740.651 264.964 740.899 265.236C741.155 265.508 741.511 265.644 741.967 265.644ZM746.666 267V266.016H749.042V259.14L746.666 260.916V259.716L748.646 258.24H750.122V266.016H752.066V267H746.666ZM753.681 268.32L757.941 257.04H759.081L754.821 268.32H753.681ZM727 286.6V270.76H728.2V277.96H731.44V279.16H728.2V286.6H727ZM730.955 279.16V277.96H738.635V279.16H730.955ZM738.151 279.16V277.96H745.831V279.16H738.151ZM755.805 283.12C755.109 283.12 754.561 282.944 754.161 282.592C753.761 282.232 753.561 281.748 753.561 281.14C753.561 280.524 753.761 280.04 754.161 279.688C754.561 279.336 755.101 279.16 755.781 279.16H757.821V278.5C757.821 278.092 757.697 277.78 757.449 277.564C757.209 277.34 756.865 277.228 756.417 277.228C756.025 277.228 755.697 277.312 755.433 277.48C755.169 277.64 755.017 277.86 754.977 278.14H753.897C753.969 277.572 754.237 277.12 754.701 276.784C755.165 276.448 755.745 276.28 756.441 276.28C757.201 276.28 757.801 276.476 758.241 276.868C758.681 277.26 758.901 277.792 758.901 278.464V283H757.845V281.74H757.665L757.845 281.56C757.845 282.04 757.657 282.42 757.281 282.7C756.913 282.98 756.421 283.12 755.805 283.12ZM756.069 282.268C756.581 282.268 757.001 282.14 757.329 281.884C757.657 281.628 757.821 281.3 757.821 280.9V279.964H755.805C755.445 279.964 755.161 280.064 754.953 280.264C754.745 280.464 754.641 280.736 754.641 281.08C754.641 281.448 754.765 281.74 755.013 281.956C755.269 282.164 755.621 282.268 756.069 282.268ZM761.081 285.16V276.4H762.161V277.66H762.377L762.161 277.912C762.161 277.408 762.325 277.012 762.653 276.724C762.989 276.428 763.429 276.28 763.973 276.28C764.637 276.28 765.165 276.5 765.557 276.94C765.957 277.372 766.157 277.968 766.157 278.728V280.66C766.157 281.164 766.065 281.6 765.881 281.968C765.705 282.336 765.453 282.62 765.125 282.82C764.805 283.02 764.421 283.12 763.973 283.12C763.437 283.12 763.001 282.972 762.665 282.676C762.329 282.38 762.161 281.984 762.161 281.488L762.377 281.74H762.137L762.161 283.24V285.16H761.081ZM763.613 282.184C764.069 282.184 764.425 282.048 764.681 281.776C764.945 281.504 765.077 281.112 765.077 280.6V278.8C765.077 278.288 764.945 277.896 764.681 277.624C764.425 277.352 764.069 277.216 763.613 277.216C763.173 277.216 762.821 277.356 762.557 277.636C762.293 277.916 762.161 278.304 762.161 278.8V280.6C762.161 281.096 762.293 281.484 762.557 281.764C762.821 282.044 763.173 282.184 763.613 282.184ZM768.276 285.16V276.4H769.356V277.66H769.572L769.356 277.912C769.356 277.408 769.52 277.012 769.848 276.724C770.184 276.428 770.624 276.28 771.168 276.28C771.832 276.28 772.36 276.5 772.752 276.94C773.152 277.372 773.352 277.968 773.352 278.728V280.66C773.352 281.164 773.26 281.6 773.076 281.968C772.9 282.336 772.648 282.62 772.32 282.82C772 283.02 771.616 283.12 771.168 283.12C770.632 283.12 770.196 282.972 769.86 282.676C769.524 282.38 769.356 281.984 769.356 281.488L769.572 281.74H769.332L769.356 283.24V285.16H768.276ZM770.808 282.184C771.264 282.184 771.62 282.048 771.876 281.776C772.14 281.504 772.272 281.112 772.272 280.6V278.8C772.272 278.288 772.14 277.896 771.876 277.624C771.62 277.352 771.264 277.216 770.808 277.216C770.368 277.216 770.016 277.356 769.752 277.636C769.488 277.916 769.356 278.304 769.356 278.8V280.6C769.356 281.096 769.488 281.484 769.752 281.764C770.016 282.044 770.368 282.184 770.808 282.184ZM777.763 283.096C777.315 283.096 776.923 283.028 776.587 282.892C776.259 282.748 775.995 282.548 775.795 282.292C775.603 282.036 775.487 281.732 775.447 281.38H776.527C776.575 281.612 776.703 281.796 776.911 281.932C777.127 282.068 777.411 282.136 777.763 282.136H778.267C778.691 282.136 779.007 282.052 779.215 281.884C779.423 281.708 779.527 281.476 779.527 281.188C779.527 280.908 779.431 280.688 779.239 280.528C779.055 280.36 778.779 280.248 778.411 280.192L777.523 280.048C776.875 279.936 776.391 279.736 776.071 279.448C775.759 279.152 775.603 278.724 775.603 278.164C775.603 277.572 775.791 277.116 776.167 276.796C776.543 276.468 777.107 276.304 777.859 276.304H778.315C778.947 276.304 779.455 276.452 779.839 276.748C780.223 277.044 780.455 277.444 780.535 277.948H779.455C779.407 277.74 779.287 277.576 779.095 277.456C778.903 277.328 778.643 277.264 778.315 277.264H777.859C777.451 277.264 777.151 277.34 776.959 277.492C776.775 277.644 776.683 277.872 776.683 278.176C776.683 278.448 776.763 278.648 776.923 278.776C777.083 278.904 777.335 278.996 777.679 279.052L778.567 279.196C779.279 279.308 779.795 279.516 780.115 279.82C780.443 280.124 780.607 280.564 780.607 281.14C780.607 281.748 780.411 282.228 780.019 282.58C779.635 282.924 779.051 283.096 778.267 283.096H777.763ZM782.463 284.32L786.723 273.04H787.863L783.603 284.32H782.463ZM727 302.6V286.76H728.2V302.6H727ZM755.781 302.6V286.76H756.981V293.96H760.221V295.16H756.981V302.6H755.781ZM759.737 295.16V293.96H767.417V295.16H759.737ZM766.932 295.16V293.96H774.612V295.16H766.932ZM784.587 299.12C783.891 299.12 783.343 298.944 782.943 298.592C782.543 298.232 782.343 297.748 782.343 297.14C782.343 296.524 782.543 296.04 782.943 295.688C783.343 295.336 783.883 295.16 784.562 295.16H786.603V294.5C786.603 294.092 786.479 293.78 786.231 293.564C785.991 293.34 785.647 293.228 785.199 293.228C784.807 293.228 784.479 293.312 784.215 293.48C783.951 293.64 783.799 293.86 783.759 294.14H782.679C782.751 293.572 783.019 293.12 783.483 292.784C783.947 292.448 784.527 292.28 785.223 292.28C785.983 292.28 786.583 292.476 787.023 292.868C787.463 293.26 787.683 293.792 787.683 294.464V299H786.627V297.74H786.447L786.627 297.56C786.627 298.04 786.439 298.42 786.063 298.7C785.695 298.98 785.203 299.12 784.587 299.12ZM784.851 298.268C785.363 298.268 785.783 298.14 786.111 297.884C786.439 297.628 786.603 297.3 786.603 296.9V295.964H784.587C784.227 295.964 783.943 296.064 783.735 296.264C783.527 296.464 783.423 296.736 783.423 297.08C783.423 297.448 783.547 297.74 783.795 297.956C784.051 298.164 784.403 298.268 784.851 298.268ZM789.862 301.16V292.4H790.942V293.66H791.158L790.942 293.912C790.942 293.408 791.106 293.012 791.434 292.724C791.77 292.428 792.21 292.28 792.754 292.28C793.418 292.28 793.946 292.5 794.338 292.94C794.738 293.372 794.938 293.968 794.938 294.728V296.66C794.938 297.164 794.846 297.6 794.662 297.968C794.486 298.336 794.234 298.62 793.906 298.82C793.586 299.02 793.202 299.12 792.754 299.12C792.218 299.12 791.782 298.972 791.446 298.676C791.11 298.38 790.942 297.984 790.942 297.488L791.158 297.74H790.918L790.942 299.24V301.16H789.862ZM792.394 298.184C792.85 298.184 793.206 298.048 793.462 297.776C793.726 297.504 793.858 297.112 793.858 296.6V294.8C793.858 294.288 793.726 293.896 793.462 293.624C793.206 293.352 792.85 293.216 792.394 293.216C791.954 293.216 791.602 293.356 791.338 293.636C791.074 293.916 790.942 294.304 790.942 294.8V296.6C790.942 297.096 791.074 297.484 791.338 297.764C791.602 298.044 791.954 298.184 792.394 298.184ZM797.057 301.16V292.4H798.137V293.66H798.353L798.137 293.912C798.137 293.408 798.301 293.012 798.629 292.724C798.965 292.428 799.405 292.28 799.949 292.28C800.613 292.28 801.141 292.5 801.533 292.94C801.933 293.372 802.133 293.968 802.133 294.728V296.66C802.133 297.164 802.041 297.6 801.857 297.968C801.681 298.336 801.429 298.62 801.101 298.82C800.781 299.02 800.397 299.12 799.949 299.12C799.413 299.12 798.977 298.972 798.641 298.676C798.305 298.38 798.137 297.984 798.137 297.488L798.353 297.74H798.113L798.137 299.24V301.16H797.057ZM799.589 298.184C800.045 298.184 800.401 298.048 800.657 297.776C800.921 297.504 801.053 297.112 801.053 296.6V294.8C801.053 294.288 800.921 293.896 800.657 293.624C800.401 293.352 800.045 293.216 799.589 293.216C799.149 293.216 798.797 293.356 798.533 293.636C798.269 293.916 798.137 294.304 798.137 294.8V296.6C798.137 297.096 798.269 297.484 798.533 297.764C798.797 298.044 799.149 298.184 799.589 298.184ZM804.228 299V298.016H806.604V291.14L804.228 292.916V291.716L806.208 290.24H807.684V298.016H809.628V299H804.228ZM811.244 300.32L815.504 289.04H816.644L812.384 300.32H811.244ZM727 318.6V302.76H728.2V318.6H727ZM755.781 318.6V302.76H756.981V318.6H755.781ZM727 334.6V318.76H728.2V334.6H727ZM755.781 327.16V318.76H756.981V325.96H760.221V327.16H755.781ZM759.737 327.16V325.96H767.417V327.16H759.737ZM766.932 327.16V325.96H774.612V327.16H766.932ZM784.587 331.12C783.891 331.12 783.343 330.944 782.943 330.592C782.543 330.232 782.343 329.748 782.343 329.14C782.343 328.524 782.543 328.04 782.943 327.688C783.343 327.336 783.883 327.16 784.562 327.16H786.603V326.5C786.603 326.092 786.479 325.78 786.231 325.564C785.991 325.34 785.647 325.228 785.199 325.228C784.807 325.228 784.479 325.312 784.215 325.48C783.951 325.64 783.799 325.86 783.759 326.14H782.679C782.751 325.572 783.019 325.12 783.483 324.784C783.947 324.448 784.527 324.28 785.223 324.28C785.983 324.28 786.583 324.476 787.023 324.868C787.463 325.26 787.683 325.792 787.683 326.464V331H786.627V329.74H786.447L786.627 329.56C786.627 330.04 786.439 330.42 786.063 330.7C785.695 330.98 785.203 331.12 784.587 331.12ZM784.851 330.268C785.363 330.268 785.783 330.14 786.111 329.884C786.439 329.628 786.603 329.3 786.603 328.9V327.964H784.587C784.227 327.964 783.943 328.064 783.735 328.264C783.527 328.464 783.423 328.736 783.423 329.08C783.423 329.448 783.547 329.74 783.795 329.956C784.051 330.164 784.403 330.268 784.851 330.268ZM789.862 333.16V324.4H790.942V325.66H791.158L790.942 325.912C790.942 325.408 791.106 325.012 791.434 324.724C791.77 324.428 792.21 324.28 792.754 324.28C793.418 324.28 793.946 324.5 794.338 324.94C794.738 325.372 794.938 325.968 794.938 326.728V328.66C794.938 329.164 794.846 329.6 794.662 329.968C794.486 330.336 794.234 330.62 793.906 330.82C793.586 331.02 793.202 331.12 792.754 331.12C792.218 331.12 791.782 330.972 791.446 330.676C791.11 330.38 790.942 329.984 790.942 329.488L791.158 329.74H790.918L790.942 331.24V333.16H789.862ZM792.394 330.184C792.85 330.184 793.206 330.048 793.462 329.776C793.726 329.504 793.858 329.112 793.858 328.6V326.8C793.858 326.288 793.726 325.896 793.462 325.624C793.206 325.352 792.85 325.216 792.394 325.216C791.954 325.216 791.602 325.356 791.338 325.636C791.074 325.916 790.942 326.304 790.942 326.8V328.6C790.942 329.096 791.074 329.484 791.338 329.764C791.602 330.044 791.954 330.184 792.394 330.184ZM797.057 333.16V324.4H798.137V325.66H798.353L798.137 325.912C798.137 325.408 798.301 325.012 798.629 324.724C798.965 324.428 799.405 324.28 799.949 324.28C800.613 324.28 801.141 324.5 801.533 324.94C801.933 325.372 802.133 325.968 802.133 326.728V328.66C802.133 329.164 802.041 329.6 801.857 329.968C801.681 330.336 801.429 330.62 801.101 330.82C800.781 331.02 800.397 331.12 799.949 331.12C799.413 331.12 798.977 330.972 798.641 330.676C798.305 330.38 798.137 329.984 798.137 329.488L798.353 329.74H798.113L798.137 331.24V333.16H797.057ZM799.589 330.184C800.045 330.184 800.401 330.048 800.657 329.776C800.921 329.504 801.053 329.112 801.053 328.6V326.8C801.053 326.288 800.921 325.896 800.657 325.624C800.401 325.352 800.045 325.216 799.589 325.216C799.149 325.216 798.797 325.356 798.533 325.636C798.269 325.916 798.137 326.304 798.137 326.8V328.6C798.137 329.096 798.269 329.484 798.533 329.764C798.797 330.044 799.149 330.184 799.589 330.184ZM804.252 331V329.896L806.928 327.052C807.384 326.564 807.716 326.132 807.924 325.756C808.132 325.372 808.236 325.004 808.236 324.652C808.236 324.164 808.1 323.78 807.828 323.5C807.564 323.22 807.2 323.08 806.736 323.08C806.224 323.08 805.82 323.224 805.524 323.512C805.236 323.8 805.092 324.196 805.092 324.7H804.012C804.028 324.172 804.148 323.716 804.372 323.332C804.604 322.94 804.92 322.64 805.32 322.432C805.728 322.224 806.2 322.12 806.736 322.12C807.264 322.12 807.72 322.224 808.104 322.432C808.496 322.632 808.796 322.92 809.004 323.296C809.212 323.672 809.316 324.12 809.316 324.64C809.316 325.136 809.184 325.628 808.92 326.116C808.656 326.604 808.224 327.16 807.624 327.784L805.464 330.016H809.46V331H804.252ZM811.244 332.32L815.504 321.04H816.644L812.384 332.32H811.244ZM727 350.6V334.76H728.2V341.96H731.44V343.16H728.2V350.6H727ZM730.955 343.16V341.96H738.635V343.16H730.955ZM738.151 343.16V341.96H745.831V343.16H738.151ZM757.281 347C756.897 347 756.561 346.924 756.273 346.772C755.985 346.62 755.761 346.404 755.601 346.124C755.441 345.844 755.361 345.516 755.361 345.14V339.224H753.141V338.24H756.441V345.14C756.441 345.412 756.517 345.628 756.669 345.788C756.821 345.94 757.025 346.016 757.281 346.016H759.381V347H757.281ZM760.997 347V346.016H763.337V341.384H761.297V340.4H764.417V346.016H766.637V347H760.997ZM763.757 339.212C763.493 339.212 763.285 339.144 763.133 339.008C762.981 338.872 762.905 338.688 762.905 338.456C762.905 338.216 762.981 338.028 763.133 337.892C763.285 337.748 763.493 337.676 763.757 337.676C764.021 337.676 764.229 337.748 764.381 337.892C764.533 338.028 764.609 338.216 764.609 338.456C764.609 338.688 764.533 338.872 764.381 339.008C764.229 339.144 764.021 339.212 763.757 339.212ZM771.156 347.12C770.612 347.12 770.176 346.976 769.848 346.688C769.52 346.392 769.356 345.992 769.356 345.488L769.572 345.74H769.356V347H768.276V338.24H769.356V340.16L769.332 341.66H769.572L769.356 341.912C769.356 341.416 769.52 341.02 769.848 340.724C770.184 340.428 770.62 340.28 771.156 340.28C771.82 340.28 772.352 340.5 772.752 340.94C773.152 341.38 773.352 341.98 773.352 342.74V344.672C773.352 345.424 773.152 346.02 772.752 346.46C772.352 346.9 771.82 347.12 771.156 347.12ZM770.796 346.184C771.252 346.184 771.612 346.048 771.876 345.776C772.14 345.504 772.272 345.112 772.272 344.6V342.8C772.272 342.288 772.14 341.896 771.876 341.624C771.612 341.352 771.252 341.216 770.796 341.216C770.356 341.216 770.004 341.356 769.74 341.636C769.484 341.916 769.356 342.304 769.356 342.8V344.6C769.356 345.096 769.484 345.484 769.74 345.764C770.004 346.044 770.356 346.184 770.796 346.184ZM777.763 347.096C777.315 347.096 776.923 347.028 776.587 346.892C776.259 346.748 775.995 346.548 775.795 346.292C775.603 346.036 775.487 345.732 775.447 345.38H776.527C776.575 345.612 776.703 345.796 776.911 345.932C777.127 346.068 777.411 346.136 777.763 346.136H778.267C778.691 346.136 779.007 346.052 779.215 345.884C779.423 345.708 779.527 345.476 779.527 345.188C779.527 344.908 779.431 344.688 779.239 344.528C779.055 344.36 778.779 344.248 778.411 344.192L777.523 344.048C776.875 343.936 776.391 343.736 776.071 343.448C775.759 343.152 775.603 342.724 775.603 342.164C775.603 341.572 775.791 341.116 776.167 340.796C776.543 340.468 777.107 340.304 777.859 340.304H778.315C778.947 340.304 779.455 340.452 779.839 340.748C780.223 341.044 780.455 341.444 780.535 341.948H779.455C779.407 341.74 779.287 341.576 779.095 341.456C778.903 341.328 778.643 341.264 778.315 341.264H777.859C777.451 341.264 777.151 341.34 776.959 341.492C776.775 341.644 776.683 341.872 776.683 342.176C776.683 342.448 776.763 342.648 776.923 342.776C777.083 342.904 777.335 342.996 777.679 343.052L778.567 343.196C779.279 343.308 779.795 343.516 780.115 343.82C780.443 344.124 780.607 344.564 780.607 345.14C780.607 345.748 780.411 346.228 780.019 346.58C779.635 346.924 779.051 347.096 778.267 347.096H777.763ZM782.463 348.32L786.723 337.04H787.863L783.603 348.32H782.463ZM727 366.6V350.76H728.2V366.6H727ZM755.781 366.6V350.76H756.981V357.96H760.221V359.16H756.981V366.6H755.781ZM759.737 359.16V357.96H767.417V359.16H759.737ZM766.932 359.16V357.96H774.612V359.16H766.932ZM786.063 363C785.679 363 785.343 362.924 785.055 362.772C784.767 362.62 784.543 362.404 784.383 362.124C784.223 361.844 784.143 361.516 784.143 361.14V355.224H781.923V354.24H785.223V361.14C785.223 361.412 785.299 361.628 785.451 361.788C785.603 361.94 785.807 362.016 786.063 362.016H788.163V363H786.063ZM789.778 363V362.016H792.118V357.384H790.078V356.4H793.198V362.016H795.418V363H789.778ZM792.538 355.212C792.274 355.212 792.066 355.144 791.914 355.008C791.762 354.872 791.686 354.688 791.686 354.456C791.686 354.216 791.762 354.028 791.914 353.892C792.066 353.748 792.274 353.676 792.538 353.676C792.802 353.676 793.01 353.748 793.162 353.892C793.314 354.028 793.39 354.216 793.39 354.456C793.39 354.688 793.314 354.872 793.162 355.008C793.01 355.144 792.802 355.212 792.538 355.212ZM799.937 363.12C799.393 363.12 798.957 362.976 798.629 362.688C798.301 362.392 798.137 361.992 798.137 361.488L798.353 361.74H798.137V363H797.057V354.24H798.137V356.16L798.113 357.66H798.353L798.137 357.912C798.137 357.416 798.301 357.02 798.629 356.724C798.965 356.428 799.401 356.28 799.937 356.28C800.601 356.28 801.133 356.5 801.533 356.94C801.933 357.38 802.133 357.98 802.133 358.74V360.672C802.133 361.424 801.933 362.02 801.533 362.46C801.133 362.9 800.601 363.12 799.937 363.12ZM799.577 362.184C800.033 362.184 800.393 362.048 800.657 361.776C800.921 361.504 801.053 361.112 801.053 360.6V358.8C801.053 358.288 800.921 357.896 800.657 357.624C800.393 357.352 800.033 357.216 799.577 357.216C799.137 357.216 798.785 357.356 798.521 357.636C798.265 357.916 798.137 358.304 798.137 358.8V360.6C798.137 361.096 798.265 361.484 798.521 361.764C798.785 362.044 799.137 362.184 799.577 362.184ZM804.228 363V362.016H806.604V355.14L804.228 356.916V355.716L806.208 354.24H807.684V362.016H809.628V363H804.228ZM811.244 364.32L815.504 353.04H816.644L812.384 364.32H811.244ZM727 382.6V366.76H728.2V382.6H727ZM755.781 382.6V366.76H756.981V373.96H760.221V375.16H756.981V382.6H755.781ZM759.737 375.16V373.96H767.417V375.16H759.737ZM766.932 375.16V373.96H774.612V375.16H766.932ZM786.063 379C785.679 379 785.343 378.924 785.055 378.772C784.767 378.62 784.543 378.404 784.383 378.124C784.223 377.844 784.143 377.516 784.143 377.14V371.224H781.923V370.24H785.223V377.14C785.223 377.412 785.299 377.628 785.451 377.788C785.603 377.94 785.807 378.016 786.063 378.016H788.163V379H786.063ZM789.778 379V378.016H792.118V373.384H790.078V372.4H793.198V378.016H795.418V379H789.778ZM792.538 371.212C792.274 371.212 792.066 371.144 791.914 371.008C791.762 370.872 791.686 370.688 791.686 370.456C791.686 370.216 791.762 370.028 791.914 369.892C792.066 369.748 792.274 369.676 792.538 369.676C792.802 369.676 793.01 369.748 793.162 369.892C793.314 370.028 793.39 370.216 793.39 370.456C793.39 370.688 793.314 370.872 793.162 371.008C793.01 371.144 792.802 371.212 792.538 371.212ZM799.937 379.12C799.393 379.12 798.957 378.976 798.629 378.688C798.301 378.392 798.137 377.992 798.137 377.488L798.353 377.74H798.137V379H797.057V370.24H798.137V372.16L798.113 373.66H798.353L798.137 373.912C798.137 373.416 798.301 373.02 798.629 372.724C798.965 372.428 799.401 372.28 799.937 372.28C800.601 372.28 801.133 372.5 801.533 372.94C801.933 373.38 802.133 373.98 802.133 374.74V376.672C802.133 377.424 801.933 378.02 801.533 378.46C801.133 378.9 800.601 379.12 799.937 379.12ZM799.577 378.184C800.033 378.184 800.393 378.048 800.657 377.776C800.921 377.504 801.053 377.112 801.053 376.6V374.8C801.053 374.288 800.921 373.896 800.657 373.624C800.393 373.352 800.033 373.216 799.577 373.216C799.137 373.216 798.785 373.356 798.521 373.636C798.265 373.916 798.137 374.304 798.137 374.8V376.6C798.137 377.096 798.265 377.484 798.521 377.764C798.785 378.044 799.137 378.184 799.577 378.184ZM804.252 379V377.896L806.928 375.052C807.384 374.564 807.716 374.132 807.924 373.756C808.132 373.372 808.236 373.004 808.236 372.652C808.236 372.164 808.1 371.78 807.828 371.5C807.564 371.22 807.2 371.08 806.736 371.08C806.224 371.08 805.82 371.224 805.524 371.512C805.236 371.8 805.092 372.196 805.092 372.7H804.012C804.028 372.172 804.148 371.716 804.372 371.332C804.604 370.94 804.92 370.64 805.32 370.432C805.728 370.224 806.2 370.12 806.736 370.12C807.264 370.12 807.72 370.224 808.104 370.432C808.496 370.632 808.796 370.92 809.004 371.296C809.212 371.672 809.316 372.12 809.316 372.64C809.316 373.136 809.184 373.628 808.92 374.116C808.656 374.604 808.224 375.16 807.624 375.784L805.464 378.016H809.46V379H804.252ZM811.244 380.32L815.504 369.04H816.644L812.384 380.32H811.244ZM727 398.6V382.76H728.2V398.6H727ZM755.781 398.6V382.76H756.981V389.96H760.221V391.16H756.981V398.6H755.781ZM759.737 391.16V389.96H767.417V391.16H759.737ZM766.932 391.16V389.96H774.612V391.16H766.932ZM786.063 395C785.679 395 785.343 394.924 785.055 394.772C784.767 394.62 784.543 394.404 784.383 394.124C784.223 393.844 784.143 393.516 784.143 393.14V387.224H781.923V386.24H785.223V393.14C785.223 393.412 785.299 393.628 785.451 393.788C785.603 393.94 785.807 394.016 786.063 394.016H788.163V395H786.063ZM789.778 395V394.016H792.118V389.384H790.078V388.4H793.198V394.016H795.418V395H789.778ZM792.538 387.212C792.274 387.212 792.066 387.144 791.914 387.008C791.762 386.872 791.686 386.688 791.686 386.456C791.686 386.216 791.762 386.028 791.914 385.892C792.066 385.748 792.274 385.676 792.538 385.676C792.802 385.676 793.01 385.748 793.162 385.892C793.314 386.028 793.39 386.216 793.39 386.456C793.39 386.688 793.314 386.872 793.162 387.008C793.01 387.144 792.802 387.212 792.538 387.212ZM799.937 395.12C799.393 395.12 798.957 394.976 798.629 394.688C798.301 394.392 798.137 393.992 798.137 393.488L798.353 393.74H798.137V395H797.057V386.24H798.137V388.16L798.113 389.66H798.353L798.137 389.912C798.137 389.416 798.301 389.02 798.629 388.724C798.965 388.428 799.401 388.28 799.937 388.28C800.601 388.28 801.133 388.5 801.533 388.94C801.933 389.38 802.133 389.98 802.133 390.74V392.672C802.133 393.424 801.933 394.02 801.533 394.46C801.133 394.9 800.601 395.12 799.937 395.12ZM799.577 394.184C800.033 394.184 800.393 394.048 800.657 393.776C800.921 393.504 801.053 393.112 801.053 392.6V390.8C801.053 390.288 800.921 389.896 800.657 389.624C800.393 389.352 800.033 389.216 799.577 389.216C799.137 389.216 798.785 389.356 798.521 389.636C798.265 389.916 798.137 390.304 798.137 390.8V392.6C798.137 393.096 798.265 393.484 798.521 393.764C798.785 394.044 799.137 394.184 799.577 394.184ZM806.616 395.12C806.088 395.12 805.624 395.016 805.224 394.808C804.832 394.592 804.528 394.296 804.312 393.92C804.096 393.544 803.988 393.104 803.988 392.6H805.068C805.068 393.088 805.204 393.472 805.476 393.752C805.756 394.024 806.14 394.16 806.628 394.16C807.124 394.16 807.508 394.016 807.78 393.728C808.052 393.44 808.188 393.064 808.188 392.6V391.976C808.188 391.48 808.052 391.096 807.78 390.824C807.508 390.552 807.124 390.416 806.628 390.416H805.728V389.336L807.9 387.224H804.348V386.24H808.992V387.32L806.652 389.588V389.456C807.452 389.456 808.088 389.684 808.56 390.14C809.032 390.596 809.268 391.208 809.268 391.976V392.6C809.268 393.104 809.156 393.544 808.932 393.92C808.716 394.296 808.408 394.592 808.008 394.808C807.608 395.016 807.144 395.12 806.616 395.12ZM811.244 396.32L815.504 385.04H816.644L812.384 396.32H811.244ZM727 414.6V398.76H728.2V414.6H727ZM755.781 414.6V398.76H756.981V405.96H760.221V407.16H756.981V414.6H755.781ZM759.737 407.16V405.96H767.417V407.16H759.737ZM766.932 407.16V405.96H774.612V407.16H766.932ZM786.063 411C785.679 411 785.343 410.924 785.055 410.772C784.767 410.62 784.543 410.404 784.383 410.124C784.223 409.844 784.143 409.516 784.143 409.14V403.224H781.923V402.24H785.223V409.14C785.223 409.412 785.299 409.628 785.451 409.788C785.603 409.94 785.807 410.016 786.063 410.016H788.163V411H786.063ZM789.778 411V410.016H792.118V405.384H790.078V404.4H793.198V410.016H795.418V411H789.778ZM792.538 403.212C792.274 403.212 792.066 403.144 791.914 403.008C791.762 402.872 791.686 402.688 791.686 402.456C791.686 402.216 791.762 402.028 791.914 401.892C792.066 401.748 792.274 401.676 792.538 401.676C792.802 401.676 793.01 401.748 793.162 401.892C793.314 402.028 793.39 402.216 793.39 402.456C793.39 402.688 793.314 402.872 793.162 403.008C793.01 403.144 792.802 403.212 792.538 403.212ZM799.937 411.12C799.393 411.12 798.957 410.976 798.629 410.688C798.301 410.392 798.137 409.992 798.137 409.488L798.353 409.74H798.137V411H797.057V402.24H798.137V404.16L798.113 405.66H798.353L798.137 405.912C798.137 405.416 798.301 405.02 798.629 404.724C798.965 404.428 799.401 404.28 799.937 404.28C800.601 404.28 801.133 404.5 801.533 404.94C801.933 405.38 802.133 405.98 802.133 406.74V408.672C802.133 409.424 801.933 410.02 801.533 410.46C801.133 410.9 800.601 411.12 799.937 411.12ZM799.577 410.184C800.033 410.184 800.393 410.048 800.657 409.776C800.921 409.504 801.053 409.112 801.053 408.6V406.8C801.053 406.288 800.921 405.896 800.657 405.624C800.393 405.352 800.033 405.216 799.577 405.216C799.137 405.216 798.785 405.356 798.521 405.636C798.265 405.916 798.137 406.304 798.137 406.8V408.6C798.137 409.096 798.265 409.484 798.521 409.764C798.785 410.044 799.137 410.184 799.577 410.184ZM808.068 411V409.08H804.108V407.388L807.576 402.24H808.752L805.188 407.616V408.096H808.068V405.96H809.148V411H808.068ZM811.244 412.32L815.504 401.04H816.644L812.384 412.32H811.244ZM727 430.6V414.76H728.2V430.6H727ZM755.781 430.6V414.76H756.981V421.96H760.221V423.16H756.981V430.6H755.781ZM759.737 423.16V421.96H767.417V423.16H759.737ZM766.932 423.16V421.96H774.612V423.16H766.932ZM786.063 427C785.679 427 785.343 426.924 785.055 426.772C784.767 426.62 784.543 426.404 784.383 426.124C784.223 425.844 784.143 425.516 784.143 425.14V419.224H781.923V418.24H785.223V425.14C785.223 425.412 785.299 425.628 785.451 425.788C785.603 425.94 785.807 426.016 786.063 426.016H788.163V427H786.063ZM789.778 427V426.016H792.118V421.384H790.078V420.4H793.198V426.016H795.418V427H789.778ZM792.538 419.212C792.274 419.212 792.066 419.144 791.914 419.008C791.762 418.872 791.686 418.688 791.686 418.456C791.686 418.216 791.762 418.028 791.914 417.892C792.066 417.748 792.274 417.676 792.538 417.676C792.802 417.676 793.01 417.748 793.162 417.892C793.314 418.028 793.39 418.216 793.39 418.456C793.39 418.688 793.314 418.872 793.162 419.008C793.01 419.144 792.802 419.212 792.538 419.212ZM799.937 427.12C799.393 427.12 798.957 426.976 798.629 426.688C798.301 426.392 798.137 425.992 798.137 425.488L798.353 425.74H798.137V427H797.057V418.24H798.137V420.16L798.113 421.66H798.353L798.137 421.912C798.137 421.416 798.301 421.02 798.629 420.724C798.965 420.428 799.401 420.28 799.937 420.28C800.601 420.28 801.133 420.5 801.533 420.94C801.933 421.38 802.133 421.98 802.133 422.74V424.672C802.133 425.424 801.933 426.02 801.533 426.46C801.133 426.9 800.601 427.12 799.937 427.12ZM799.577 426.184C800.033 426.184 800.393 426.048 800.657 425.776C800.921 425.504 801.053 425.112 801.053 424.6V422.8C801.053 422.288 800.921 421.896 800.657 421.624C800.393 421.352 800.033 421.216 799.577 421.216C799.137 421.216 798.785 421.356 798.521 421.636C798.265 421.916 798.137 422.304 798.137 422.8V424.6C798.137 425.096 798.265 425.484 798.521 425.764C798.785 426.044 799.137 426.184 799.577 426.184ZM806.724 427.12C806.012 427.12 805.428 426.936 804.972 426.568C804.516 426.2 804.248 425.704 804.168 425.08H805.248C805.288 425.424 805.436 425.692 805.692 425.884C805.948 426.068 806.296 426.16 806.736 426.16C807.24 426.16 807.616 426.024 807.864 425.752C808.12 425.48 808.248 425.096 808.248 424.6V423.748C808.248 423.252 808.12 422.868 807.864 422.596C807.616 422.324 807.244 422.188 806.748 422.188C806.436 422.188 806.164 422.272 805.932 422.44C805.7 422.6 805.532 422.816 805.428 423.088H804.348L804.408 418.24H809.016V419.224H805.452L805.416 422.14H805.752L805.416 422.452C805.416 422.076 805.564 421.78 805.86 421.564C806.164 421.348 806.568 421.24 807.072 421.24C807.784 421.232 808.336 421.452 808.728 421.9C809.128 422.34 809.328 422.956 809.328 423.748V424.6C809.328 425.376 809.1 425.992 808.644 426.448C808.188 426.896 807.548 427.12 806.724 427.12ZM811.244 428.32L815.504 417.04H816.644L812.384 428.32H811.244ZM727 446.6V430.76H728.2V446.6H727ZM755.781 439.16V430.76H756.981V437.96H760.221V439.16H755.781ZM759.737 439.16V437.96H767.417V439.16H759.737ZM766.932 439.16V437.96H774.612V439.16H766.932ZM786.377 443.12C786.073 443.12 785.833 443.032 785.657 442.856C785.473 442.68 785.381 442.444 785.381 442.148C785.381 441.836 785.473 441.588 785.657 441.404C785.833 441.22 786.073 441.128 786.377 441.128C786.681 441.128 786.925 441.22 787.109 441.404C787.285 441.588 787.373 441.836 787.373 442.148C787.373 442.444 787.285 442.68 787.109 442.856C786.925 443.032 786.681 443.12 786.377 443.12ZM792.365 443.12C792.061 443.12 791.821 443.032 791.645 442.856C791.461 442.68 791.369 442.444 791.369 442.148C791.369 441.836 791.461 441.588 791.645 441.404C791.821 441.22 792.061 441.128 792.365 441.128C792.669 441.128 792.913 441.22 793.097 441.404C793.273 441.588 793.361 441.836 793.361 442.148C793.361 442.444 793.273 442.68 793.097 442.856C792.913 443.032 792.669 443.12 792.365 443.12ZM798.353 443.12C798.049 443.12 797.805 443.032 797.621 442.856C797.445 442.68 797.357 442.444 797.357 442.148C797.357 441.836 797.445 441.588 797.621 441.404C797.805 441.22 798.049 441.128 798.353 441.128C798.657 441.128 798.897 441.22 799.073 441.404C799.257 441.588 799.349 441.836 799.349 442.148C799.349 442.444 799.257 442.68 799.073 442.856C798.897 443.032 798.657 443.12 798.353 443.12ZM727 462.6V446.76H728.2V453.96H731.44V455.16H728.2V462.6H727ZM730.955 455.16V453.96H738.635V455.16H730.955ZM738.151 455.16V453.96H745.831V455.16H738.151ZM757.101 459C756.533 459 756.089 458.848 755.769 458.544C755.457 458.24 755.301 457.812 755.301 457.26V453.384H753.441V452.4H755.301V450.54H756.381V452.4H759.021V453.384H756.381V457.26C756.381 457.764 756.621 458.016 757.101 458.016H758.901V459H757.101ZM763.577 459.096C763.049 459.096 762.593 458.996 762.209 458.796C761.825 458.596 761.525 458.308 761.309 457.932C761.101 457.548 760.997 457.096 760.997 456.576V454.824C760.997 454.296 761.101 453.844 761.309 453.468C761.525 453.092 761.825 452.804 762.209 452.604C762.593 452.404 763.049 452.304 763.577 452.304C764.105 452.304 764.561 452.404 764.945 452.604C765.329 452.804 765.625 453.092 765.833 453.468C766.049 453.844 766.157 454.292 766.157 454.812V456.576C766.157 457.096 766.049 457.548 765.833 457.932C765.625 458.308 765.329 458.596 764.945 458.796C764.561 458.996 764.105 459.096 763.577 459.096ZM763.577 458.136C764.049 458.136 764.417 458.004 764.681 457.74C764.945 457.476 765.077 457.088 765.077 456.576V454.824C765.077 454.312 764.945 453.924 764.681 453.66C764.417 453.396 764.049 453.264 763.577 453.264C763.113 453.264 762.745 453.396 762.473 453.66C762.209 453.924 762.077 454.312 762.077 454.824V456.576C762.077 457.088 762.209 457.476 762.473 457.74C762.745 458.004 763.113 458.136 763.577 458.136ZM770.772 459.096C770.244 459.096 769.788 458.996 769.404 458.796C769.02 458.596 768.72 458.308 768.504 457.932C768.296 457.548 768.192 457.096 768.192 456.576V454.824C768.192 454.296 768.296 453.844 768.504 453.468C768.72 453.092 769.02 452.804 769.404 452.604C769.788 452.404 770.244 452.304 770.772 452.304C771.3 452.304 771.756 452.404 772.14 452.604C772.524 452.804 772.82 453.092 773.028 453.468C773.244 453.844 773.352 454.292 773.352 454.812V456.576C773.352 457.096 773.244 457.548 773.028 457.932C772.82 458.308 772.524 458.596 772.14 458.796C771.756 458.996 771.3 459.096 770.772 459.096ZM770.772 458.136C771.244 458.136 771.612 458.004 771.876 457.74C772.14 457.476 772.272 457.088 772.272 456.576V454.824C772.272 454.312 772.14 453.924 771.876 453.66C771.612 453.396 771.244 453.264 770.772 453.264C770.308 453.264 769.94 453.396 769.668 453.66C769.404 453.924 769.272 454.312 769.272 454.824V456.576C769.272 457.088 769.404 457.476 769.668 457.74C769.94 458.004 770.308 458.136 770.772 458.136ZM778.867 459C778.483 459 778.147 458.924 777.859 458.772C777.571 458.62 777.347 458.404 777.187 458.124C777.027 457.844 776.947 457.516 776.947 457.14V451.224H774.727V450.24H778.027V457.14C778.027 457.412 778.103 457.628 778.255 457.788C778.407 457.94 778.611 458.016 778.867 458.016H780.967V459H778.867ZM784.959 459.096C784.511 459.096 784.119 459.028 783.783 458.892C783.455 458.748 783.191 458.548 782.991 458.292C782.799 458.036 782.683 457.732 782.643 457.38H783.723C783.771 457.612 783.899 457.796 784.107 457.932C784.323 458.068 784.607 458.136 784.959 458.136H785.463C785.887 458.136 786.203 458.052 786.411 457.884C786.619 457.708 786.723 457.476 786.723 457.188C786.723 456.908 786.627 456.688 786.435 456.528C786.251 456.36 785.975 456.248 785.607 456.192L784.719 456.048C784.071 455.936 783.587 455.736 783.267 455.448C782.955 455.152 782.799 454.724 782.799 454.164C782.799 453.572 782.987 453.116 783.363 452.796C783.739 452.468 784.303 452.304 785.055 452.304H785.511C786.143 452.304 786.651 452.452 787.035 452.748C787.419 453.044 787.651 453.444 787.73 453.948H786.651C786.603 453.74 786.483 453.576 786.291 453.456C786.099 453.328 785.839 453.264 785.511 453.264H785.055C784.647 453.264 784.347 453.34 784.155 453.492C783.971 453.644 783.879 453.872 783.879 454.176C783.879 454.448 783.959 454.648 784.119 454.776C784.279 454.904 784.531 454.996 784.875 455.052L785.763 455.196C786.475 455.308 786.991 455.516 787.311 455.82C787.639 456.124 787.803 456.564 787.803 457.14C787.803 457.748 787.607 458.228 787.215 458.58C786.831 458.924 786.247 459.096 785.463 459.096H784.959ZM789.658 460.32L793.918 449.04H795.058L790.798 460.32H789.658ZM727 478.6V462.76H728.2V469.96H731.44V471.16H728.2V478.6H727ZM730.955 471.16V469.96H738.635V471.16H730.955ZM738.151 471.16V469.96H745.831V471.16H738.151ZM753.885 475V466.24H756.597C757.117 466.24 757.573 466.348 757.965 466.564C758.357 466.772 758.661 467.064 758.877 467.44C759.093 467.816 759.201 468.256 759.201 468.76C759.201 469.352 759.045 469.86 758.733 470.284C758.429 470.708 758.013 471 757.485 471.16L759.321 475H758.049L756.369 471.28H754.965V475H753.885ZM754.965 470.308H756.597C757.045 470.308 757.405 470.168 757.677 469.888C757.949 469.6 758.085 469.224 758.085 468.76C758.085 468.288 757.949 467.912 757.677 467.632C757.405 467.352 757.045 467.212 756.597 467.212H754.965V470.308ZM761.177 475V466.24H766.217V467.224H762.245V469.936H765.797V470.908H762.245V474.016H766.217V475H761.177ZM767.772 475L770.052 466.24H771.504L773.772 475H772.68L772.104 472.672H769.452L768.876 475H767.772ZM769.668 471.76H771.876L771.204 469.06C771.076 468.548 770.976 468.12 770.904 467.776C770.832 467.432 770.788 467.208 770.772 467.104C770.756 467.208 770.712 467.432 770.64 467.776C770.568 468.12 770.468 468.544 770.34 469.048L769.668 471.76ZM775.471 475V466.24H777.739C778.307 466.24 778.795 466.348 779.203 466.564C779.619 466.78 779.939 467.084 780.163 467.476C780.395 467.868 780.511 468.332 780.511 468.868V472.36C780.511 472.896 780.395 473.364 780.163 473.764C779.939 474.156 779.619 474.46 779.203 474.676C778.795 474.892 778.307 475 777.739 475H775.471ZM776.551 474.04H777.739C778.267 474.04 778.679 473.892 778.975 473.596C779.279 473.3 779.431 472.888 779.431 472.36V468.868C779.431 468.348 779.279 467.94 778.975 467.644C778.679 467.348 778.267 467.2 777.739 467.2H776.551V474.04ZM782.475 475V466.24H783.891L784.803 469.072C784.891 469.328 784.971 469.584 785.043 469.84C785.115 470.088 785.167 470.28 785.199 470.416C785.239 470.28 785.291 470.088 785.355 469.84C785.419 469.584 785.491 469.324 785.571 469.06L786.435 466.24H787.851V475H786.795V471.82C786.795 471.468 786.807 471.068 786.831 470.62C786.855 470.172 786.887 469.716 786.927 469.252C786.967 468.78 787.007 468.332 787.047 467.908C787.095 467.476 787.135 467.1 787.167 466.78L785.751 471.16H784.611L783.183 466.78C783.223 467.092 783.263 467.456 783.303 467.872C783.343 468.28 783.379 468.716 783.411 469.18C783.443 469.636 783.471 470.092 783.495 470.548C783.519 471.004 783.531 471.428 783.531 471.82V475H782.475ZM789.958 475V466.24H794.998V467.224H791.026V469.936H794.578V470.908H791.026V474.016H794.998V475H789.958ZM799.553 475.12C799.249 475.12 799.005 475.032 798.821 474.856C798.645 474.68 798.557 474.444 798.557 474.148C798.557 473.836 798.645 473.588 798.821 473.404C799.005 473.22 799.249 473.128 799.553 473.128C799.857 473.128 800.097 473.22 800.273 473.404C800.457 473.588 800.549 473.836 800.549 474.148C800.549 474.444 800.457 474.68 800.273 474.856C800.097 475.032 799.857 475.12 799.553 475.12ZM803.94 475V468.4H804.888V469.192H805.104L804.936 469.48C804.936 469.112 805.032 468.82 805.224 468.604C805.424 468.388 805.692 468.28 806.028 468.28C806.396 468.28 806.68 468.416 806.88 468.688C807.08 468.96 807.18 469.344 807.18 469.84L806.856 469.192H807.36L807.132 469.48C807.132 469.112 807.232 468.82 807.432 468.604C807.64 468.388 807.912 468.28 808.248 468.28C808.664 468.28 808.984 468.436 809.208 468.748C809.44 469.06 809.556 469.472 809.556 469.984V475H808.56V469.972C808.56 469.7 808.5 469.488 808.38 469.336C808.268 469.184 808.1 469.108 807.876 469.108C807.66 469.108 807.488 469.184 807.36 469.336C807.24 469.48 807.18 469.688 807.18 469.96V475H806.316V469.972C806.316 469.692 806.252 469.48 806.124 469.336C806.004 469.184 805.832 469.108 805.608 469.108C805.384 469.108 805.216 469.184 805.104 469.336C804.992 469.48 804.936 469.688 804.936 469.96V475H803.94ZM813.56 475.12C812.904 475.12 812.372 474.9 811.964 474.46C811.564 474.02 811.364 473.424 811.364 472.672V470.74C811.364 469.98 811.564 469.38 811.964 468.94C812.364 468.5 812.896 468.28 813.56 468.28C814.104 468.28 814.54 468.428 814.868 468.724C815.196 469.02 815.36 469.416 815.36 469.912L815.144 469.66H815.384L815.36 468.16V466.24H816.44V475H815.36V473.74H815.144L815.36 473.488C815.36 473.992 815.196 474.392 814.868 474.688C814.54 474.976 814.104 475.12 813.56 475.12ZM813.92 474.184C814.368 474.184 814.72 474.044 814.976 473.764C815.232 473.484 815.36 473.096 815.36 472.6V470.8C815.36 470.304 815.232 469.916 814.976 469.636C814.72 469.356 814.368 469.216 813.92 469.216C813.464 469.216 813.104 469.352 812.84 469.624C812.576 469.896 812.444 470.288 812.444 470.8V472.6C812.444 473.112 812.576 473.504 812.84 473.776C813.104 474.048 813.464 474.184 813.92 474.184ZM727 487.16V478.76H728.2V485.96H731.44V487.16H727ZM730.955 487.16V485.96H738.635V487.16H730.955ZM738.151 487.16V485.96H745.831V487.16H738.151ZM753.885 493.16V484.4H754.965V485.66H755.181L754.965 485.912C754.965 485.408 755.129 485.012 755.457 484.724C755.793 484.428 756.233 484.28 756.777 484.28C757.441 484.28 757.969 484.5 758.361 484.94C758.761 485.372 758.961 485.968 758.961 486.728V488.66C758.961 489.164 758.869 489.6 758.685 489.968C758.509 490.336 758.257 490.62 757.929 490.82C757.609 491.02 757.225 491.12 756.777 491.12C756.241 491.12 755.805 490.972 755.469 490.676C755.133 490.38 754.965 489.984 754.965 489.488L755.181 489.74H754.941L754.965 491.24V493.16H753.885ZM756.417 490.184C756.873 490.184 757.229 490.048 757.485 489.776C757.749 489.504 757.881 489.112 757.881 488.6V486.8C757.881 486.288 757.749 485.896 757.485 485.624C757.229 485.352 756.873 485.216 756.417 485.216C755.977 485.216 755.625 485.356 755.361 485.636C755.097 485.916 754.965 486.304 754.965 486.8V488.6C754.965 489.096 755.097 489.484 755.361 489.764C755.625 490.044 755.977 490.184 756.417 490.184ZM763.001 491.12C762.305 491.12 761.757 490.944 761.357 490.592C760.957 490.232 760.757 489.748 760.757 489.14C760.757 488.524 760.957 488.04 761.357 487.688C761.757 487.336 762.297 487.16 762.977 487.16H765.017V486.5C765.017 486.092 764.893 485.78 764.645 485.564C764.405 485.34 764.061 485.228 763.613 485.228C763.221 485.228 762.893 485.312 762.629 485.48C762.365 485.64 762.213 485.86 762.173 486.14H761.093C761.165 485.572 761.433 485.12 761.897 484.784C762.361 484.448 762.941 484.28 763.637 484.28C764.397 484.28 764.997 484.476 765.437 484.868C765.877 485.26 766.097 485.792 766.097 486.464V491H765.041V489.74H764.861L765.041 489.56C765.041 490.04 764.853 490.42 764.477 490.7C764.109 490.98 763.617 491.12 763.001 491.12ZM763.265 490.268C763.777 490.268 764.197 490.14 764.525 489.884C764.853 489.628 765.017 489.3 765.017 488.9V487.964H763.001C762.641 487.964 762.357 488.064 762.149 488.264C761.941 488.464 761.837 488.736 761.837 489.08C761.837 489.448 761.961 489.74 762.209 489.956C762.465 490.164 762.817 490.268 763.265 490.268ZM770.82 491.12C770.292 491.12 769.828 491.02 769.428 490.82C769.036 490.62 768.732 490.332 768.516 489.956C768.3 489.572 768.192 489.12 768.192 488.6V486.8C768.192 486.272 768.3 485.82 768.516 485.444C768.732 485.068 769.036 484.78 769.428 484.58C769.828 484.38 770.292 484.28 770.82 484.28C771.58 484.28 772.192 484.484 772.656 484.892C773.12 485.3 773.364 485.856 773.388 486.56H772.308C772.284 486.136 772.14 485.812 771.876 485.588C771.62 485.356 771.268 485.24 770.82 485.24C770.348 485.24 769.972 485.376 769.692 485.648C769.412 485.912 769.272 486.292 769.272 486.788V488.6C769.272 489.096 769.412 489.48 769.692 489.752C769.972 490.024 770.348 490.16 770.82 490.16C771.268 490.16 771.62 490.044 771.876 489.812C772.14 489.58 772.284 489.256 772.308 488.84H773.388C773.364 489.544 773.12 490.1 772.656 490.508C772.192 490.916 771.58 491.12 770.82 491.12ZM775.507 491V482.24H776.587V487.124H777.859L779.779 484.4H781.015L778.795 487.544L781.051 491H779.791L777.871 488.06H776.587V491H775.507ZM784.587 491.12C783.891 491.12 783.343 490.944 782.943 490.592C782.543 490.232 782.343 489.748 782.343 489.14C782.343 488.524 782.543 488.04 782.943 487.688C783.343 487.336 783.883 487.16 784.562 487.16H786.603V486.5C786.603 486.092 786.479 485.78 786.231 485.564C785.991 485.34 785.647 485.228 785.199 485.228C784.807 485.228 784.479 485.312 784.215 485.48C783.951 485.64 783.799 485.86 783.759 486.14H782.679C782.751 485.572 783.019 485.12 783.483 484.784C783.947 484.448 784.527 484.28 785.223 484.28C785.983 484.28 786.583 484.476 787.023 484.868C787.463 485.26 787.683 485.792 787.683 486.464V491H786.627V489.74H786.447L786.627 489.56C786.627 490.04 786.439 490.42 786.063 490.7C785.695 490.98 785.203 491.12 784.587 491.12ZM784.851 490.268C785.363 490.268 785.783 490.14 786.111 489.884C786.439 489.628 786.603 489.3 786.603 488.9V487.964H784.587C784.227 487.964 783.943 488.064 783.735 488.264C783.527 488.464 783.423 488.736 783.423 489.08C783.423 489.448 783.547 489.74 783.795 489.956C784.051 490.164 784.403 490.268 784.851 490.268ZM790.69 493.16V492.176H792.79C793.126 492.176 793.37 492.1 793.522 491.948C793.682 491.796 793.762 491.56 793.762 491.24V490.4L793.786 489.2H793.57L793.774 489.02C793.774 489.5 793.614 489.88 793.294 490.16C792.974 490.44 792.546 490.58 792.01 490.58C791.33 490.58 790.794 490.36 790.402 489.92C790.01 489.472 789.814 488.872 789.814 488.12V486.728C789.814 485.976 790.01 485.38 790.402 484.94C790.794 484.5 791.33 484.28 792.01 484.28C792.546 484.28 792.974 484.42 793.294 484.7C793.614 484.98 793.774 485.36 793.774 485.84L793.57 485.66H793.774V484.4H794.842V491.24C794.842 491.832 794.658 492.3 794.29 492.644C793.93 492.988 793.426 493.16 792.778 493.16H790.69ZM792.334 489.644C792.782 489.644 793.134 489.504 793.39 489.224C793.646 488.944 793.774 488.556 793.774 488.06V486.8C793.774 486.304 793.646 485.916 793.39 485.636C793.134 485.356 792.782 485.216 792.334 485.216C791.878 485.216 791.522 485.352 791.266 485.624C791.018 485.896 790.894 486.288 790.894 486.8V488.06C790.894 488.572 791.018 488.964 791.266 489.236C791.522 489.508 791.878 489.644 792.334 489.644ZM799.553 491.12C799.033 491.12 798.577 491.016 798.185 490.808C797.801 490.6 797.501 490.308 797.285 489.932C797.077 489.548 796.973 489.104 796.973 488.6V486.8C796.973 486.288 797.077 485.844 797.285 485.468C797.501 485.092 797.801 484.8 798.185 484.592C798.577 484.384 799.033 484.28 799.553 484.28C800.073 484.28 800.525 484.384 800.909 484.592C801.301 484.8 801.601 485.092 801.809 485.468C802.025 485.844 802.133 486.288 802.133 486.8V487.964H798.029V488.6C798.029 489.12 798.161 489.52 798.425 489.8C798.689 490.072 799.065 490.208 799.553 490.208C799.969 490.208 800.305 490.136 800.561 489.992C800.817 489.84 800.973 489.616 801.029 489.32H802.109C802.037 489.872 801.765 490.312 801.293 490.64C800.829 490.96 800.249 491.12 799.553 491.12ZM801.077 487.244V486.8C801.077 486.28 800.945 485.88 800.681 485.6C800.425 485.32 800.049 485.18 799.553 485.18C799.065 485.18 798.689 485.32 798.425 485.6C798.161 485.88 798.029 486.28 798.029 486.8V487.148H801.161L801.077 487.244ZM806.748 491.12C806.444 491.12 806.2 491.032 806.016 490.856C805.84 490.68 805.752 490.444 805.752 490.148C805.752 489.836 805.84 489.588 806.016 489.404C806.2 489.22 806.444 489.128 806.748 489.128C807.052 489.128 807.292 489.22 807.468 489.404C807.652 489.588 807.744 489.836 807.744 490.148C807.744 490.444 807.652 490.68 807.468 490.856C807.292 491.032 807.052 491.12 806.748 491.12ZM811.364 493.16V492.164H812.912C813.408 492.164 813.792 492.028 814.064 491.756C814.344 491.492 814.484 491.116 814.484 490.628V485.384H811.724V484.4H815.564V490.628C815.564 491.404 815.324 492.02 814.844 492.476C814.364 492.932 813.72 493.16 812.912 493.16H811.364ZM814.964 483.212C814.7 483.212 814.492 483.144 814.34 483.008C814.188 482.872 814.112 482.688 814.112 482.456C814.112 482.216 814.188 482.028 814.34 481.892C814.492 481.748 814.7 481.676 814.964 481.676C815.228 481.676 815.436 481.748 815.588 481.892C815.74 482.028 815.816 482.216 815.816 482.456C815.816 482.688 815.74 482.872 815.588 483.008C815.436 483.144 815.228 483.212 814.964 483.212ZM820.935 491.096C820.487 491.096 820.095 491.028 819.759 490.892C819.431 490.748 819.167 490.548 818.967 490.292C818.775 490.036 818.659 489.732 818.619 489.38H819.699C819.747 489.612 819.875 489.796 820.083 489.932C820.299 490.068 820.583 490.136 820.935 490.136H821.439C821.863 490.136 822.179 490.052 822.387 489.884C822.595 489.708 822.699 489.476 822.699 489.188C822.699 488.908 822.603 488.688 822.411 488.528C822.227 488.36 821.951 488.248 821.583 488.192L820.695 488.048C820.047 487.936 819.563 487.736 819.243 487.448C818.931 487.152 818.775 486.724 818.775 486.164C818.775 485.572 818.963 485.116 819.339 484.796C819.715 484.468 820.279 484.304 821.031 484.304H821.487C822.119 484.304 822.627 484.452 823.011 484.748C823.395 485.044 823.627 485.444 823.707 485.948H822.627C822.579 485.74 822.459 485.576 822.267 485.456C822.075 485.328 821.815 485.264 821.487 485.264H821.031C820.623 485.264 820.323 485.34 820.131 485.492C819.947 485.644 819.855 485.872 819.855 486.176C819.855 486.448 819.935 486.648 820.095 486.776C820.255 486.904 820.507 486.996 820.851 487.052L821.739 487.196C822.451 487.308 822.967 487.516 823.287 487.82C823.615 488.124 823.779 488.564 823.779 489.14C823.779 489.748 823.583 490.228 823.191 490.58C822.807 490.924 822.223 491.096 821.439 491.096H820.935ZM828.334 491.096C827.806 491.096 827.35 490.996 826.966 490.796C826.582 490.596 826.282 490.308 826.066 489.932C825.858 489.548 825.754 489.096 825.754 488.576V486.824C825.754 486.296 825.858 485.844 826.066 485.468C826.282 485.092 826.582 484.804 826.966 484.604C827.35 484.404 827.806 484.304 828.334 484.304C828.862 484.304 829.318 484.404 829.702 484.604C830.086 484.804 830.382 485.092 830.59 485.468C830.806 485.844 830.914 486.292 830.914 486.812V488.576C830.914 489.096 830.806 489.548 830.59 489.932C830.382 490.308 830.086 490.596 829.702 490.796C829.318 490.996 828.862 491.096 828.334 491.096ZM828.334 490.136C828.806 490.136 829.174 490.004 829.438 489.74C829.702 489.476 829.834 489.088 829.834 488.576V486.824C829.834 486.312 829.702 485.924 829.438 485.66C829.174 485.396 828.806 485.264 828.334 485.264C827.87 485.264 827.502 485.396 827.23 485.66C826.966 485.924 826.834 486.312 826.834 486.824V488.576C826.834 489.088 826.966 489.476 827.23 489.74C827.502 490.004 827.87 490.136 828.334 490.136ZM833.034 491V484.4H834.114V485.66H834.342L834.114 485.912C834.114 485.392 834.27 484.992 834.582 484.712C834.894 484.424 835.326 484.28 835.878 484.28C836.542 484.28 837.07 484.484 837.462 484.892C837.854 485.3 838.05 485.856 838.05 486.56V491H836.97V486.68C836.97 486.208 836.842 485.848 836.586 485.6C836.338 485.344 835.998 485.216 835.566 485.216C835.118 485.216 834.762 485.352 834.498 485.624C834.242 485.896 834.114 486.288 834.114 486.8V491H833.034Z" fill="white" fill-opacity="0.93"/>
<path d="M471.184 316.832C472.409 311.783 479.591 311.783 480.816 316.832C480.999 317.59 481.36 318.295 481.867 318.887C482.374 319.48 483.015 319.945 483.736 320.244C484.457 320.542 485.238 320.667 486.016 320.606C486.794 320.546 487.547 320.303 488.213 319.897C492.649 317.194 497.729 322.271 495.027 326.71C494.621 327.376 494.378 328.129 494.318 328.906C494.258 329.684 494.382 330.464 494.68 331.185C494.979 331.905 495.443 332.545 496.035 333.053C496.627 333.56 497.331 333.921 498.089 334.105C503.137 335.33 503.137 342.511 498.089 343.736C497.33 343.92 496.626 344.28 496.033 344.787C495.44 345.295 494.975 345.935 494.677 346.656C494.378 347.377 494.254 348.158 494.314 348.936C494.374 349.714 494.618 350.467 495.024 351.133C497.726 355.57 492.649 360.65 488.21 357.947C487.544 357.541 486.792 357.299 486.014 357.239C485.237 357.178 484.456 357.302 483.736 357.601C483.015 357.899 482.375 358.363 481.868 358.956C481.36 359.548 481 360.251 480.816 361.009C479.591 366.058 472.409 366.058 471.184 361.009C471.001 360.251 470.64 359.546 470.133 358.953C469.626 358.361 468.985 357.896 468.264 357.597C467.543 357.298 466.762 357.174 465.984 357.235C465.206 357.295 464.453 357.538 463.787 357.944C459.351 360.647 454.271 355.57 456.973 351.131C457.379 350.465 457.622 349.712 457.682 348.935C457.742 348.157 457.618 347.376 457.32 346.656C457.021 345.935 456.557 345.295 455.965 344.788C455.373 344.281 454.669 343.92 453.911 343.736C448.863 342.511 448.863 335.33 453.911 334.105C454.67 333.921 455.374 333.561 455.967 333.053C456.56 332.546 457.025 331.906 457.323 331.185C457.622 330.464 457.746 329.683 457.686 328.905C457.626 328.126 457.382 327.374 456.976 326.707C454.274 322.271 459.351 317.191 463.79 319.894C466.665 321.642 470.391 320.095 471.184 316.832Z" stroke="#61A8E8" stroke-width="2.75" stroke-linecap="round" stroke-linejoin="round"/>
<path d="M476 347.545C480.763 347.545 484.625 343.684 484.625 338.92C484.625 334.157 480.763 330.295 476 330.295C471.237 330.295 467.375 334.157 467.375 338.92C467.375 343.684 471.237 347.545 476 347.545Z" stroke="#61A8E8" stroke-width="2.75" stroke-linecap="round" stroke-linejoin="round"/>
<path d="M455.063 374.61C456.322 369.57 463.503 369.618 464.694 374.675C464.873 375.434 465.228 376.141 465.732 376.737C466.235 377.334 466.872 377.803 467.591 378.106C468.31 378.41 469.091 378.539 469.869 378.484C470.647 378.429 471.402 378.191 472.071 377.789C476.525 375.116 481.571 380.227 478.839 384.648C478.429 385.312 478.181 386.062 478.115 386.839C478.05 387.616 478.169 388.398 478.462 389.12C478.756 389.843 479.216 390.486 479.805 390.997C480.393 391.509 481.095 391.874 481.851 392.063C486.891 393.322 486.843 400.503 481.786 401.694C481.027 401.873 480.32 402.228 479.724 402.732C479.128 403.235 478.659 403.872 478.355 404.591C478.051 405.31 477.922 406.091 477.977 406.869C478.032 407.647 478.27 408.402 478.672 409.071C481.345 413.525 476.234 418.571 471.813 415.839C471.15 415.429 470.399 415.181 469.622 415.115C468.845 415.05 468.063 415.169 467.341 415.462C466.618 415.756 465.975 416.216 465.464 416.805C464.952 417.393 464.587 418.094 464.398 418.851C463.139 423.891 455.958 423.843 454.767 418.786C454.588 418.027 454.233 417.32 453.729 416.724C453.226 416.127 452.589 415.658 451.87 415.355C451.151 415.051 450.371 414.922 449.592 414.977C448.814 415.032 448.059 415.27 447.39 415.672C442.936 418.345 437.89 413.234 440.622 408.813C441.033 408.15 441.28 407.399 441.346 406.622C441.411 405.845 441.292 405.063 440.999 404.341C440.705 403.618 440.245 402.975 439.657 402.464C439.068 401.952 438.367 401.587 437.61 401.398C432.57 400.139 432.618 392.958 437.675 391.767C438.434 391.588 439.141 391.233 439.737 390.729C440.334 390.226 440.803 389.589 441.106 388.87C441.41 388.151 441.539 387.37 441.484 386.592C441.429 385.814 441.191 385.059 440.789 384.39C438.116 379.936 443.228 374.89 447.648 377.622C450.512 379.39 454.248 377.868 455.063 374.61Z" stroke="#61A8E8" stroke-width="2.75" stroke-linecap="round" stroke-linejoin="round"/>
<path d="M459.673 405.355C464.436 405.387 468.323 401.552 468.355 396.788C468.387 392.025 464.552 388.138 459.788 388.106C455.025 388.074 451.138 391.909 451.106 396.673C451.074 401.436 454.909 405.323 459.673 405.355Z" stroke="#61A8E8" stroke-width="2.75" stroke-linecap="round" stroke-linejoin="round"/>
<path d="M518.06 358.823C521.864 355.284 527.857 359.241 526.098 364.129C525.834 364.863 525.746 365.649 525.843 366.424C525.94 367.198 526.218 367.939 526.655 368.585C527.092 369.232 527.676 369.766 528.358 370.144C529.041 370.522 529.803 370.734 530.583 370.762C535.774 370.951 537.216 377.987 532.515 380.202C531.81 380.535 531.193 381.029 530.714 381.645C530.236 382.26 529.909 382.98 529.761 383.746C529.613 384.512 529.648 385.301 529.863 386.051C530.077 386.801 530.466 387.489 530.997 388.06C534.535 391.864 530.578 397.857 525.691 396.098C524.956 395.834 524.17 395.746 523.396 395.843C522.621 395.94 521.881 396.218 521.234 396.655C520.588 397.092 520.054 397.676 519.675 398.358C519.297 399.041 519.085 399.803 519.057 400.583C518.869 405.774 511.833 407.216 509.617 402.515C509.285 401.81 508.791 401.193 508.175 400.714C507.559 400.236 506.839 399.909 506.074 399.761C505.308 399.613 504.518 399.648 503.768 399.863C503.019 400.077 502.33 400.466 501.759 400.997C497.955 404.535 491.962 400.578 493.721 395.691C493.986 394.956 494.073 394.17 493.976 393.396C493.88 392.621 493.601 391.881 493.164 391.234C492.727 390.588 492.144 390.054 491.461 389.676C490.778 389.297 490.016 389.085 489.236 389.057C484.045 388.869 482.603 381.833 487.304 379.617C488.009 379.285 488.627 378.791 489.105 378.175C489.584 377.559 489.91 376.839 490.058 376.074C490.206 375.308 490.171 374.518 489.957 373.768C489.742 373.019 489.354 372.33 488.823 371.759C485.284 367.956 489.241 361.962 494.129 363.721C494.863 363.986 495.649 364.073 496.424 363.976C497.198 363.88 497.939 363.601 498.585 363.164C499.232 362.727 499.766 362.144 500.144 361.461C500.522 360.778 500.734 360.016 500.762 359.236C500.951 354.045 507.987 352.603 510.202 357.304C511.639 360.347 515.6 361.109 518.06 358.823Z" stroke="#61A8E8" stroke-width="2.75" stroke-linecap="round" stroke-linejoin="round"/>
<path d="M505.158 387.108C509.133 389.732 514.483 388.637 517.108 384.662C519.732 380.686 518.637 375.336 514.662 372.712C510.686 370.087 505.336 371.183 502.712 375.158C500.087 379.133 501.183 384.483 505.158 387.108Z" stroke="#61A8E8" stroke-width="2.75" stroke-linecap="round" stroke-linejoin="round"/>
<path d="M389.5 370C389.5 360.887 382.113 353.5 373 353.5C363.887 353.5 356.5 360.887 356.5 370C356.5 379.113 363.887 386.5 373 386.5C382.113 386.5 389.5 379.113 389.5 370Z" stroke="#9CA3AF" stroke-width="2.75" stroke-linecap="round" stroke-linejoin="round"/>
<path d="M373 377.333L380.333 370" stroke="#9CA3AF" stroke-width="2.75" stroke-linecap="round" stroke-linejoin="round"/>
<path d="M365.667 370L380.333 370" stroke="#9CA3AF" stroke-width="2.75" stroke-linecap="round" stroke-linejoin="round"/>
<path d="M373 362.667L380.333 370" stroke="#9CA3AF" stroke-width="2.75" stroke-linecap="round" stroke-linejoin="round"/>
<path d="M623.5 370C623.5 360.887 616.113 353.5 607 353.5C597.887 353.5 590.5 360.887 590.5 370C590.5 379.113 597.887 386.5 607 386.5C616.113 386.5 623.5 379.113 623.5 370Z" stroke="#9CA3AF" stroke-width="2.75" stroke-linecap="round" stroke-linejoin="round"/>
<path d="M607 377.333L614.333 370" stroke="#9CA3AF" stroke-width="2.75" stroke-linecap="round" stroke-linejoin="round"/>
<path d="M599.667 370L614.333 370" stroke="#9CA3AF" stroke-width="2.75" stroke-linecap="round" stroke-linejoin="round"/>
<path d="M607 362.667L614.333 370" stroke="#9CA3AF" stroke-width="2.75" stroke-linecap="round" stroke-linejoin="round"/>
<path d="M400.365 251.435H397.178C397.087 250.912 396.919 250.449 396.675 250.045C396.43 249.636 396.126 249.29 395.763 249.006C395.399 248.722 394.984 248.509 394.518 248.366C394.058 248.219 393.561 248.145 393.027 248.145C392.078 248.145 391.237 248.384 390.504 248.861C389.771 249.332 389.197 250.026 388.783 250.94C388.368 251.849 388.161 252.96 388.161 254.273C388.161 255.608 388.368 256.733 388.783 257.648C389.203 258.557 389.777 259.244 390.504 259.71C391.237 260.17 392.075 260.401 393.018 260.401C393.541 260.401 394.03 260.332 394.484 260.196C394.945 260.054 395.357 259.847 395.72 259.574C396.089 259.301 396.399 258.966 396.649 258.568C396.905 258.17 397.081 257.716 397.178 257.205L400.365 257.222C400.246 258.051 399.987 258.83 399.589 259.557C399.197 260.284 398.683 260.926 398.047 261.483C397.411 262.034 396.666 262.466 395.814 262.778C394.962 263.085 394.016 263.239 392.976 263.239C391.442 263.239 390.072 262.884 388.868 262.173C387.663 261.463 386.714 260.438 386.021 259.097C385.328 257.756 384.982 256.148 384.982 254.273C384.982 252.392 385.331 250.784 386.03 249.449C386.729 248.108 387.68 247.082 388.885 246.372C390.089 245.662 391.453 245.307 392.976 245.307C393.947 245.307 394.851 245.443 395.686 245.716C396.521 245.989 397.266 246.389 397.919 246.918C398.572 247.44 399.109 248.082 399.53 248.844C399.956 249.599 400.234 250.463 400.365 251.435ZM408.835 263.256C407.556 263.256 406.448 262.974 405.511 262.412C404.573 261.849 403.846 261.062 403.329 260.051C402.817 259.04 402.562 257.858 402.562 256.506C402.562 255.153 402.817 253.969 403.329 252.952C403.846 251.935 404.573 251.145 405.511 250.582C406.448 250.02 407.556 249.739 408.835 249.739C410.113 249.739 411.221 250.02 412.158 250.582C413.096 251.145 413.82 251.935 414.332 252.952C414.849 253.969 415.107 255.153 415.107 256.506C415.107 257.858 414.849 259.04 414.332 260.051C413.82 261.062 413.096 261.849 412.158 262.412C411.221 262.974 410.113 263.256 408.835 263.256ZM408.852 260.784C409.545 260.784 410.124 260.594 410.59 260.213C411.056 259.827 411.403 259.31 411.63 258.662C411.863 258.014 411.979 257.293 411.979 256.497C411.979 255.696 411.863 254.972 411.63 254.324C411.403 253.67 411.056 253.151 410.59 252.764C410.124 252.378 409.545 252.185 408.852 252.185C408.141 252.185 407.55 252.378 407.079 252.764C406.613 253.151 406.263 253.67 406.031 254.324C405.803 254.972 405.69 255.696 405.69 256.497C405.69 257.293 405.803 258.014 406.031 258.662C406.263 259.31 406.613 259.827 407.079 260.213C407.55 260.594 408.141 260.784 408.852 260.784ZM422.584 263.23C421.555 263.23 420.635 262.966 419.822 262.438C419.01 261.909 418.368 261.142 417.896 260.136C417.425 259.131 417.189 257.909 417.189 256.472C417.189 255.017 417.428 253.79 417.905 252.79C418.388 251.784 419.038 251.026 419.857 250.514C420.675 249.997 421.587 249.739 422.592 249.739C423.359 249.739 423.99 249.869 424.484 250.131C424.979 250.386 425.371 250.696 425.661 251.06C425.95 251.418 426.175 251.756 426.334 252.074H426.462V245.545H429.555V263H426.521V260.938H426.334C426.175 261.256 425.945 261.594 425.643 261.952C425.342 262.304 424.945 262.605 424.45 262.855C423.956 263.105 423.334 263.23 422.584 263.23ZM423.445 260.699C424.098 260.699 424.655 260.523 425.115 260.17C425.575 259.812 425.925 259.315 426.163 258.679C426.402 258.043 426.521 257.301 426.521 256.455C426.521 255.608 426.402 254.872 426.163 254.247C425.93 253.622 425.584 253.136 425.124 252.79C424.669 252.443 424.109 252.27 423.445 252.27C422.757 252.27 422.183 252.449 421.723 252.807C421.263 253.165 420.916 253.659 420.683 254.29C420.45 254.92 420.334 255.642 420.334 256.455C420.334 257.273 420.45 258.003 420.683 258.645C420.922 259.281 421.271 259.784 421.732 260.153C422.197 260.517 422.768 260.699 423.445 260.699ZM438.638 263.256C437.326 263.256 436.192 262.983 435.238 262.438C434.289 261.886 433.559 261.108 433.048 260.102C432.536 259.091 432.281 257.901 432.281 256.531C432.281 255.185 432.536 254.003 433.048 252.986C433.565 251.963 434.286 251.168 435.212 250.599C436.138 250.026 437.227 249.739 438.477 249.739C439.283 249.739 440.045 249.869 440.761 250.131C441.482 250.386 442.119 250.784 442.67 251.324C443.227 251.864 443.664 252.551 443.982 253.386C444.3 254.216 444.46 255.205 444.46 256.352V257.298H433.729V255.219H441.502C441.496 254.628 441.369 254.102 441.119 253.642C440.869 253.176 440.519 252.81 440.07 252.543C439.627 252.276 439.11 252.142 438.519 252.142C437.888 252.142 437.335 252.295 436.857 252.602C436.38 252.903 436.008 253.301 435.741 253.795C435.479 254.284 435.346 254.821 435.34 255.406V257.222C435.34 257.983 435.479 258.636 435.758 259.182C436.036 259.722 436.425 260.136 436.925 260.426C437.425 260.71 438.011 260.852 438.681 260.852C439.13 260.852 439.536 260.79 439.9 260.665C440.263 260.534 440.579 260.344 440.846 260.094C441.113 259.844 441.315 259.534 441.451 259.165L444.332 259.489C444.15 260.25 443.803 260.915 443.292 261.483C442.786 262.045 442.138 262.483 441.349 262.795C440.559 263.102 439.656 263.256 438.638 263.256ZM464.852 251.119C464.71 250.659 464.514 250.247 464.264 249.884C464.02 249.514 463.724 249.199 463.378 248.938C463.037 248.676 462.645 248.48 462.202 248.349C461.759 248.213 461.276 248.145 460.753 248.145C459.815 248.145 458.98 248.381 458.247 248.852C457.514 249.324 456.938 250.017 456.517 250.932C456.102 251.841 455.895 252.949 455.895 254.256C455.895 255.574 456.102 256.69 456.517 257.605C456.932 258.52 457.509 259.216 458.247 259.693C458.986 260.165 459.844 260.401 460.821 260.401C461.707 260.401 462.474 260.23 463.122 259.889C463.776 259.548 464.278 259.065 464.631 258.44C464.983 257.81 465.159 257.071 465.159 256.224L465.875 256.335H461.136V253.864H468.219V255.96C468.219 257.455 467.901 258.747 467.264 259.838C466.628 260.929 465.753 261.77 464.639 262.361C463.526 262.946 462.247 263.239 460.804 263.239C459.196 263.239 457.784 262.878 456.568 262.156C455.358 261.429 454.412 260.398 453.73 259.062C453.054 257.722 452.716 256.131 452.716 254.29C452.716 252.881 452.915 251.622 453.312 250.514C453.716 249.406 454.278 248.466 455 247.693C455.722 246.915 456.568 246.324 457.54 245.92C458.511 245.511 459.568 245.307 460.71 245.307C461.676 245.307 462.577 245.449 463.412 245.733C464.247 246.011 464.989 246.409 465.636 246.926C466.29 247.443 466.827 248.057 467.247 248.767C467.668 249.477 467.943 250.261 468.074 251.119H464.852ZM476.935 263.256C475.623 263.256 474.489 262.983 473.535 262.438C472.586 261.886 471.856 261.108 471.344 260.102C470.833 259.091 470.577 257.901 470.577 256.531C470.577 255.185 470.833 254.003 471.344 252.986C471.862 251.963 472.583 251.168 473.509 250.599C474.435 250.026 475.523 249.739 476.773 249.739C477.58 249.739 478.342 249.869 479.058 250.131C479.779 250.386 480.415 250.784 480.967 251.324C481.523 251.864 481.961 252.551 482.279 253.386C482.597 254.216 482.756 255.205 482.756 256.352V257.298H472.026V255.219H479.799C479.793 254.628 479.665 254.102 479.415 253.642C479.165 253.176 478.816 252.81 478.367 252.543C477.924 252.276 477.407 252.142 476.816 252.142C476.185 252.142 475.631 252.295 475.154 252.602C474.677 252.903 474.305 253.301 474.038 253.795C473.776 254.284 473.643 254.821 473.637 255.406V257.222C473.637 257.983 473.776 258.636 474.055 259.182C474.333 259.722 474.722 260.136 475.222 260.426C475.722 260.71 476.308 260.852 476.978 260.852C477.427 260.852 477.833 260.79 478.197 260.665C478.56 260.534 478.876 260.344 479.143 260.094C479.41 259.844 479.612 259.534 479.748 259.165L482.629 259.489C482.447 260.25 482.1 260.915 481.589 261.483C481.083 262.045 480.435 262.483 479.646 262.795C478.856 263.102 477.952 263.256 476.935 263.256ZM488.452 255.33V263H485.366V249.909H488.315V252.134H488.469C488.77 251.401 489.25 250.818 489.909 250.386C490.574 249.955 491.395 249.739 492.372 249.739C493.276 249.739 494.063 249.932 494.733 250.318C495.409 250.705 495.932 251.264 496.301 251.997C496.676 252.73 496.861 253.619 496.855 254.665V263H493.77V255.142C493.77 254.267 493.543 253.582 493.088 253.088C492.639 252.594 492.017 252.347 491.222 252.347C490.682 252.347 490.202 252.466 489.781 252.705C489.366 252.937 489.04 253.276 488.801 253.719C488.568 254.162 488.452 254.699 488.452 255.33ZM505.787 263.256C504.474 263.256 503.341 262.983 502.386 262.438C501.438 261.886 500.707 261.108 500.196 260.102C499.685 259.091 499.429 257.901 499.429 256.531C499.429 255.185 499.685 254.003 500.196 252.986C500.713 251.963 501.435 251.168 502.361 250.599C503.287 250.026 504.375 249.739 505.625 249.739C506.432 249.739 507.193 249.869 507.909 250.131C508.631 250.386 509.267 250.784 509.818 251.324C510.375 251.864 510.813 252.551 511.131 253.386C511.449 254.216 511.608 255.205 511.608 256.352V257.298H500.878V255.219H508.651C508.645 254.628 508.517 254.102 508.267 253.642C508.017 253.176 507.668 252.81 507.219 252.543C506.776 252.276 506.259 252.142 505.668 252.142C505.037 252.142 504.483 252.295 504.006 252.602C503.528 252.903 503.156 253.301 502.889 253.795C502.628 254.284 502.494 254.821 502.489 255.406V257.222C502.489 257.983 502.628 258.636 502.906 259.182C503.185 259.722 503.574 260.136 504.074 260.426C504.574 260.71 505.159 260.852 505.83 260.852C506.278 260.852 506.685 260.79 507.048 260.665C507.412 260.534 507.727 260.344 507.994 260.094C508.261 259.844 508.463 259.534 508.599 259.165L511.48 259.489C511.298 260.25 510.952 260.915 510.44 261.483C509.935 262.045 509.287 262.483 508.497 262.795C507.707 263.102 506.804 263.256 505.787 263.256ZM514.218 263V249.909H517.21V252.091H517.346C517.585 251.335 517.994 250.753 518.573 250.344C519.158 249.929 519.826 249.722 520.576 249.722C520.746 249.722 520.937 249.73 521.147 249.747C521.363 249.759 521.542 249.778 521.684 249.807V252.645C521.553 252.599 521.346 252.56 521.062 252.526C520.783 252.486 520.513 252.466 520.252 252.466C519.69 252.466 519.184 252.588 518.735 252.832C518.292 253.071 517.942 253.403 517.687 253.83C517.431 254.256 517.303 254.747 517.303 255.304V263H514.218ZM527.266 263.264C526.437 263.264 525.69 263.116 525.025 262.821C524.366 262.52 523.843 262.077 523.457 261.491C523.076 260.906 522.886 260.185 522.886 259.327C522.886 258.588 523.022 257.977 523.295 257.494C523.567 257.011 523.94 256.625 524.411 256.335C524.883 256.045 525.414 255.827 526.005 255.679C526.602 255.526 527.218 255.415 527.854 255.347C528.621 255.267 529.244 255.196 529.721 255.134C530.198 255.065 530.545 254.963 530.761 254.827C530.982 254.685 531.093 254.466 531.093 254.17V254.119C531.093 253.477 530.903 252.98 530.522 252.628C530.141 252.276 529.593 252.099 528.877 252.099C528.121 252.099 527.522 252.264 527.079 252.594C526.641 252.923 526.346 253.312 526.192 253.761L523.312 253.352C523.539 252.557 523.914 251.892 524.437 251.358C524.96 250.818 525.599 250.415 526.354 250.148C527.11 249.875 527.945 249.739 528.86 249.739C529.491 249.739 530.119 249.812 530.744 249.96C531.369 250.108 531.94 250.352 532.457 250.693C532.974 251.028 533.388 251.486 533.701 252.065C534.019 252.645 534.178 253.369 534.178 254.239V263H531.212V261.202H531.11C530.923 261.565 530.658 261.906 530.317 262.224C529.982 262.537 529.559 262.79 529.048 262.983C528.542 263.17 527.948 263.264 527.266 263.264ZM528.067 260.997C528.687 260.997 529.224 260.875 529.678 260.631C530.133 260.381 530.482 260.051 530.727 259.642C530.977 259.233 531.102 258.787 531.102 258.304V256.761C531.005 256.841 530.84 256.915 530.607 256.983C530.38 257.051 530.124 257.111 529.84 257.162C529.556 257.213 529.275 257.259 528.996 257.298C528.718 257.338 528.477 257.372 528.272 257.401C527.812 257.463 527.4 257.565 527.036 257.707C526.673 257.849 526.386 258.048 526.175 258.304C525.965 258.554 525.86 258.878 525.86 259.276C525.86 259.844 526.067 260.273 526.482 260.562C526.897 260.852 527.425 260.997 528.067 260.997ZM543.817 249.909V252.295H536.292V249.909H543.817ZM538.15 246.773H541.235V259.062C541.235 259.477 541.298 259.795 541.423 260.017C541.553 260.233 541.724 260.381 541.934 260.46C542.144 260.54 542.377 260.58 542.633 260.58C542.826 260.58 543.002 260.565 543.161 260.537C543.326 260.509 543.451 260.483 543.536 260.46L544.056 262.872C543.891 262.929 543.656 262.991 543.349 263.06C543.048 263.128 542.678 263.168 542.241 263.179C541.468 263.202 540.772 263.085 540.153 262.83C539.533 262.568 539.042 262.165 538.678 261.619C538.32 261.074 538.144 260.392 538.15 259.574V246.773ZM546.398 263V249.909H549.483V263H546.398ZM547.949 248.051C547.46 248.051 547.04 247.889 546.688 247.565C546.335 247.236 546.159 246.841 546.159 246.381C546.159 245.915 546.335 245.52 546.688 245.196C547.04 244.866 547.46 244.702 547.949 244.702C548.443 244.702 548.864 244.866 549.21 245.196C549.563 245.52 549.739 245.915 549.739 246.381C549.739 246.841 549.563 247.236 549.21 247.565C548.864 247.889 548.443 248.051 547.949 248.051ZM558.366 263.256C557.087 263.256 555.979 262.974 555.042 262.412C554.104 261.849 553.377 261.062 552.86 260.051C552.349 259.04 552.093 257.858 552.093 256.506C552.093 255.153 552.349 253.969 552.86 252.952C553.377 251.935 554.104 251.145 555.042 250.582C555.979 250.02 557.087 249.739 558.366 249.739C559.644 249.739 560.752 250.02 561.69 250.582C562.627 251.145 563.352 251.935 563.863 252.952C564.38 253.969 564.638 255.153 564.638 256.506C564.638 257.858 564.38 259.04 563.863 260.051C563.352 261.062 562.627 261.849 561.69 262.412C560.752 262.974 559.644 263.256 558.366 263.256ZM558.383 260.784C559.076 260.784 559.656 260.594 560.121 260.213C560.587 259.827 560.934 259.31 561.161 258.662C561.394 258.014 561.511 257.293 561.511 256.497C561.511 255.696 561.394 254.972 561.161 254.324C560.934 253.67 560.587 253.151 560.121 252.764C559.656 252.378 559.076 252.185 558.383 252.185C557.673 252.185 557.082 252.378 556.61 252.764C556.144 253.151 555.795 253.67 555.562 254.324C555.335 254.972 555.221 255.696 555.221 256.497C555.221 257.293 555.335 258.014 555.562 258.662C555.795 259.31 556.144 259.827 556.61 260.213C557.082 260.594 557.673 260.784 558.383 260.784ZM570.342 255.33V263H567.257V249.909H570.206V252.134H570.359C570.661 251.401 571.141 250.818 571.8 250.386C572.464 249.955 573.286 249.739 574.263 249.739C575.166 249.739 575.953 249.932 576.624 250.318C577.3 250.705 577.822 251.264 578.192 251.997C578.567 252.73 578.751 253.619 578.746 254.665V263H575.661V255.142C575.661 254.267 575.433 253.582 574.979 253.088C574.53 252.594 573.908 252.347 573.112 252.347C572.572 252.347 572.092 252.466 571.672 252.705C571.257 252.937 570.93 253.276 570.692 253.719C570.459 254.162 570.342 254.699 570.342 255.33Z" fill="#61A8E8"/>
<rect x="116" y="333" width="163" height="79" rx="5" fill="#9CA3AF"/>
<path d="M142.6 359.12C142.072 359.12 141.616 359.02 141.232 358.82C140.856 358.62 140.564 358.332 140.356 357.956C140.156 357.572 140.056 357.12 140.056 356.6V352.64C140.056 352.112 140.156 351.66 140.356 351.284C140.564 350.908 140.856 350.62 141.232 350.42C141.616 350.22 142.072 350.12 142.6 350.12C143.128 350.12 143.58 350.22 143.956 350.42C144.34 350.62 144.632 350.908 144.832 351.284C145.04 351.66 145.144 352.108 145.144 352.628V356.6C145.144 357.12 145.04 357.572 144.832 357.956C144.632 358.332 144.34 358.62 143.956 358.82C143.58 359.02 143.128 359.12 142.6 359.12ZM142.6 358.148C143.072 358.148 143.432 358.016 143.68 357.752C143.936 357.48 144.064 357.096 144.064 356.6V352.64C144.064 352.144 143.936 351.764 143.68 351.5C143.432 351.228 143.072 351.092 142.6 351.092C142.136 351.092 141.776 351.228 141.52 351.5C141.264 351.764 141.136 352.144 141.136 352.64V356.6C141.136 357.096 141.264 357.48 141.52 357.752C141.776 358.016 142.136 358.148 142.6 358.148ZM147.527 359V352.4H148.583V353.66H148.835L148.487 354.44C148.487 353.728 148.639 353.192 148.943 352.832C149.255 352.464 149.715 352.28 150.323 352.28C151.019 352.28 151.571 352.5 151.979 352.94C152.395 353.372 152.603 353.96 152.603 354.704V355.1H151.523V354.8C151.523 354.28 151.395 353.884 151.139 353.612C150.891 353.332 150.535 353.192 150.071 353.192C149.615 353.192 149.255 353.332 148.991 353.612C148.735 353.892 148.607 354.288 148.607 354.8V359H147.527ZM155.323 361.16V360.176H157.423C157.759 360.176 158.003 360.1 158.155 359.948C158.315 359.796 158.395 359.56 158.395 359.24V358.4L158.419 357.2H158.203L158.407 357.02C158.407 357.5 158.247 357.88 157.927 358.16C157.607 358.44 157.179 358.58 156.643 358.58C155.963 358.58 155.427 358.36 155.035 357.92C154.643 357.472 154.447 356.872 154.447 356.12V354.728C154.447 353.976 154.643 353.38 155.035 352.94C155.427 352.5 155.963 352.28 156.643 352.28C157.179 352.28 157.607 352.42 157.927 352.7C158.247 352.98 158.407 353.36 158.407 353.84L158.203 353.66H158.407V352.4H159.475V359.24C159.475 359.832 159.291 360.3 158.923 360.644C158.563 360.988 158.059 361.16 157.411 361.16H155.323ZM156.967 357.644C157.415 357.644 157.767 357.504 158.023 357.224C158.279 356.944 158.407 356.556 158.407 356.06V354.8C158.407 354.304 158.279 353.916 158.023 353.636C157.767 353.356 157.415 353.216 156.967 353.216C156.511 353.216 156.155 353.352 155.899 353.624C155.651 353.896 155.527 354.288 155.527 354.8V356.06C155.527 356.572 155.651 356.964 155.899 357.236C156.155 357.508 156.511 357.644 156.967 357.644ZM161.666 359V358.016H164.042V351.14L161.666 352.916V351.716L163.646 350.24H165.122V358.016H167.066V359H161.666ZM168.681 360.32L172.941 349.04H174.081L169.821 360.32H168.681ZM142 378.6V362.76H143.2V369.96H146.44V371.16H143.2V378.6H142ZM145.955 371.16V369.96H153.635V371.16H145.955ZM153.151 371.16V369.96H160.831V371.16H153.151ZM168.885 375V366.24H171.597C172.117 366.24 172.573 366.348 172.965 366.564C173.357 366.772 173.661 367.064 173.877 367.44C174.093 367.816 174.201 368.256 174.201 368.76C174.201 369.352 174.045 369.86 173.733 370.284C173.429 370.708 173.013 371 172.485 371.16L174.321 375H173.049L171.369 371.28H169.965V375H168.885ZM169.965 370.308H171.597C172.045 370.308 172.405 370.168 172.677 369.888C172.949 369.6 173.085 369.224 173.085 368.76C173.085 368.288 172.949 367.912 172.677 367.632C172.405 367.352 172.045 367.212 171.597 367.212H169.965V370.308ZM176.177 375V366.24H181.217V367.224H177.245V369.936H180.797V370.908H177.245V374.016H181.217V375H176.177ZM182.772 375L185.052 366.24H186.504L188.772 375H187.68L187.104 372.672H184.452L183.876 375H182.772ZM184.668 371.76H186.876L186.204 369.06C186.076 368.548 185.976 368.12 185.904 367.776C185.832 367.432 185.788 367.208 185.772 367.104C185.756 367.208 185.712 367.432 185.64 367.776C185.568 368.12 185.468 368.544 185.34 369.048L184.668 371.76ZM190.471 375V366.24H192.739C193.307 366.24 193.795 366.348 194.203 366.564C194.619 366.78 194.939 367.084 195.163 367.476C195.395 367.868 195.511 368.332 195.511 368.868V372.36C195.511 372.896 195.395 373.364 195.163 373.764C194.939 374.156 194.619 374.46 194.203 374.676C193.795 374.892 193.307 375 192.739 375H190.471ZM191.551 374.04H192.739C193.267 374.04 193.679 373.892 193.975 373.596C194.279 373.3 194.431 372.888 194.431 372.36V368.868C194.431 368.348 194.279 367.94 193.975 367.644C193.679 367.348 193.267 367.2 192.739 367.2H191.551V374.04ZM197.475 375V366.24H198.891L199.803 369.072C199.891 369.328 199.971 369.584 200.043 369.84C200.115 370.088 200.167 370.28 200.199 370.416C200.239 370.28 200.291 370.088 200.355 369.84C200.419 369.584 200.491 369.324 200.571 369.06L201.435 366.24H202.851V375H201.795V371.82C201.795 371.468 201.807 371.068 201.831 370.62C201.855 370.172 201.887 369.716 201.927 369.252C201.967 368.78 202.007 368.332 202.047 367.908C202.095 367.476 202.135 367.1 202.167 366.78L200.751 371.16H199.611L198.183 366.78C198.223 367.092 198.263 367.456 198.303 367.872C198.343 368.28 198.379 368.716 198.411 369.18C198.443 369.636 198.471 370.092 198.495 370.548C198.519 371.004 198.531 371.428 198.531 371.82V375H197.475ZM204.958 375V366.24H209.998V367.224H206.026V369.936H209.578V370.908H206.026V374.016H209.998V375H204.958ZM214.553 375.12C214.249 375.12 214.005 375.032 213.821 374.856C213.645 374.68 213.557 374.444 213.557 374.148C213.557 373.836 213.645 373.588 213.821 373.404C214.005 373.22 214.249 373.128 214.553 373.128C214.857 373.128 215.097 373.22 215.273 373.404C215.457 373.588 215.549 373.836 215.549 374.148C215.549 374.444 215.457 374.68 215.273 374.856C215.097 375.032 214.857 375.12 214.553 375.12ZM218.94 375V368.4H219.888V369.192H220.104L219.936 369.48C219.936 369.112 220.032 368.82 220.224 368.604C220.424 368.388 220.692 368.28 221.028 368.28C221.396 368.28 221.68 368.416 221.88 368.688C222.08 368.96 222.18 369.344 222.18 369.84L221.856 369.192H222.36L222.132 369.48C222.132 369.112 222.232 368.82 222.432 368.604C222.64 368.388 222.912 368.28 223.248 368.28C223.664 368.28 223.984 368.436 224.208 368.748C224.44 369.06 224.556 369.472 224.556 369.984V375H223.56V369.972C223.56 369.7 223.5 369.488 223.38 369.336C223.268 369.184 223.1 369.108 222.876 369.108C222.66 369.108 222.488 369.184 222.36 369.336C222.24 369.48 222.18 369.688 222.18 369.96V375H221.316V369.972C221.316 369.692 221.252 369.48 221.124 369.336C221.004 369.184 220.832 369.108 220.608 369.108C220.384 369.108 220.216 369.184 220.104 369.336C219.992 369.48 219.936 369.688 219.936 369.96V375H218.94ZM228.56 375.12C227.904 375.12 227.372 374.9 226.964 374.46C226.564 374.02 226.364 373.424 226.364 372.672V370.74C226.364 369.98 226.564 369.38 226.964 368.94C227.364 368.5 227.896 368.28 228.56 368.28C229.104 368.28 229.54 368.428 229.868 368.724C230.196 369.02 230.36 369.416 230.36 369.912L230.144 369.66H230.384L230.36 368.16V366.24H231.44V375H230.36V373.74H230.144L230.36 373.488C230.36 373.992 230.196 374.392 229.868 374.688C229.54 374.976 229.104 375.12 228.56 375.12ZM228.92 374.184C229.368 374.184 229.72 374.044 229.976 373.764C230.232 373.484 230.36 373.096 230.36 372.6V370.8C230.36 370.304 230.232 369.916 229.976 369.636C229.72 369.356 229.368 369.216 228.92 369.216C228.464 369.216 228.104 369.352 227.84 369.624C227.576 369.896 227.444 370.288 227.444 370.8V372.6C227.444 373.112 227.576 373.504 227.84 373.776C228.104 374.048 228.464 374.184 228.92 374.184ZM142 387.16V378.76H143.2V385.96H146.44V387.16H142ZM145.955 387.16V385.96H153.635V387.16H145.955ZM153.151 387.16V385.96H160.831V387.16H153.151ZM168.885 393.16V384.4H169.965V385.66H170.181L169.965 385.912C169.965 385.408 170.129 385.012 170.457 384.724C170.793 384.428 171.233 384.28 171.777 384.28C172.441 384.28 172.969 384.5 173.361 384.94C173.761 385.372 173.961 385.968 173.961 386.728V388.66C173.961 389.164 173.869 389.6 173.685 389.968C173.509 390.336 173.257 390.62 172.929 390.82C172.609 391.02 172.225 391.12 171.777 391.12C171.241 391.12 170.805 390.972 170.469 390.676C170.133 390.38 169.965 389.984 169.965 389.488L170.181 389.74H169.941L169.965 391.24V393.16H168.885ZM171.417 390.184C171.873 390.184 172.229 390.048 172.485 389.776C172.749 389.504 172.881 389.112 172.881 388.6V386.8C172.881 386.288 172.749 385.896 172.485 385.624C172.229 385.352 171.873 385.216 171.417 385.216C170.977 385.216 170.625 385.356 170.361 385.636C170.097 385.916 169.965 386.304 169.965 386.8V388.6C169.965 389.096 170.097 389.484 170.361 389.764C170.625 390.044 170.977 390.184 171.417 390.184ZM178.001 391.12C177.305 391.12 176.757 390.944 176.357 390.592C175.957 390.232 175.757 389.748 175.757 389.14C175.757 388.524 175.957 388.04 176.357 387.688C176.757 387.336 177.297 387.16 177.977 387.16H180.017V386.5C180.017 386.092 179.893 385.78 179.645 385.564C179.405 385.34 179.061 385.228 178.613 385.228C178.221 385.228 177.893 385.312 177.629 385.48C177.365 385.64 177.213 385.86 177.173 386.14H176.093C176.165 385.572 176.433 385.12 176.897 384.784C177.361 384.448 177.941 384.28 178.637 384.28C179.397 384.28 179.997 384.476 180.437 384.868C180.877 385.26 181.097 385.792 181.097 386.464V391H180.041V389.74H179.861L180.041 389.56C180.041 390.04 179.853 390.42 179.477 390.7C179.109 390.98 178.617 391.12 178.001 391.12ZM178.265 390.268C178.777 390.268 179.197 390.14 179.525 389.884C179.853 389.628 180.017 389.3 180.017 388.9V387.964H178.001C177.641 387.964 177.357 388.064 177.149 388.264C176.941 388.464 176.837 388.736 176.837 389.08C176.837 389.448 176.961 389.74 177.209 389.956C177.465 390.164 177.817 390.268 178.265 390.268ZM185.82 391.12C185.292 391.12 184.828 391.02 184.428 390.82C184.036 390.62 183.732 390.332 183.516 389.956C183.3 389.572 183.192 389.12 183.192 388.6V386.8C183.192 386.272 183.3 385.82 183.516 385.444C183.732 385.068 184.036 384.78 184.428 384.58C184.828 384.38 185.292 384.28 185.82 384.28C186.58 384.28 187.192 384.484 187.656 384.892C188.12 385.3 188.364 385.856 188.388 386.56H187.308C187.284 386.136 187.14 385.812 186.876 385.588C186.62 385.356 186.268 385.24 185.82 385.24C185.348 385.24 184.972 385.376 184.692 385.648C184.412 385.912 184.272 386.292 184.272 386.788V388.6C184.272 389.096 184.412 389.48 184.692 389.752C184.972 390.024 185.348 390.16 185.82 390.16C186.268 390.16 186.62 390.044 186.876 389.812C187.14 389.58 187.284 389.256 187.308 388.84H188.388C188.364 389.544 188.12 390.1 187.656 390.508C187.192 390.916 186.58 391.12 185.82 391.12ZM190.507 391V382.24H191.587V387.124H192.859L194.779 384.4H196.015L193.795 387.544L196.051 391H194.791L192.871 388.06H191.587V391H190.507ZM199.587 391.12C198.891 391.12 198.343 390.944 197.943 390.592C197.543 390.232 197.343 389.748 197.343 389.14C197.343 388.524 197.543 388.04 197.943 387.688C198.343 387.336 198.883 387.16 199.562 387.16H201.603V386.5C201.603 386.092 201.479 385.78 201.231 385.564C200.991 385.34 200.647 385.228 200.199 385.228C199.807 385.228 199.479 385.312 199.215 385.48C198.951 385.64 198.799 385.86 198.759 386.14H197.679C197.751 385.572 198.019 385.12 198.483 384.784C198.947 384.448 199.527 384.28 200.223 384.28C200.983 384.28 201.583 384.476 202.023 384.868C202.463 385.26 202.683 385.792 202.683 386.464V391H201.627V389.74H201.447L201.627 389.56C201.627 390.04 201.439 390.42 201.063 390.7C200.695 390.98 200.203 391.12 199.587 391.12ZM199.851 390.268C200.363 390.268 200.783 390.14 201.111 389.884C201.439 389.628 201.603 389.3 201.603 388.9V387.964H199.587C199.227 387.964 198.943 388.064 198.735 388.264C198.527 388.464 198.423 388.736 198.423 389.08C198.423 389.448 198.547 389.74 198.795 389.956C199.051 390.164 199.403 390.268 199.851 390.268ZM205.69 393.16V392.176H207.79C208.126 392.176 208.37 392.1 208.522 391.948C208.682 391.796 208.762 391.56 208.762 391.24V390.4L208.786 389.2H208.57L208.774 389.02C208.774 389.5 208.614 389.88 208.294 390.16C207.974 390.44 207.546 390.58 207.01 390.58C206.33 390.58 205.794 390.36 205.402 389.92C205.01 389.472 204.814 388.872 204.814 388.12V386.728C204.814 385.976 205.01 385.38 205.402 384.94C205.794 384.5 206.33 384.28 207.01 384.28C207.546 384.28 207.974 384.42 208.294 384.7C208.614 384.98 208.774 385.36 208.774 385.84L208.57 385.66H208.774V384.4H209.842V391.24C209.842 391.832 209.658 392.3 209.29 392.644C208.93 392.988 208.426 393.16 207.778 393.16H205.69ZM207.334 389.644C207.782 389.644 208.134 389.504 208.39 389.224C208.646 388.944 208.774 388.556 208.774 388.06V386.8C208.774 386.304 208.646 385.916 208.39 385.636C208.134 385.356 207.782 385.216 207.334 385.216C206.878 385.216 206.522 385.352 206.266 385.624C206.018 385.896 205.894 386.288 205.894 386.8V388.06C205.894 388.572 206.018 388.964 206.266 389.236C206.522 389.508 206.878 389.644 207.334 389.644ZM214.553 391.12C214.033 391.12 213.577 391.016 213.185 390.808C212.801 390.6 212.501 390.308 212.285 389.932C212.077 389.548 211.973 389.104 211.973 388.6V386.8C211.973 386.288 212.077 385.844 212.285 385.468C212.501 385.092 212.801 384.8 213.185 384.592C213.577 384.384 214.033 384.28 214.553 384.28C215.073 384.28 215.525 384.384 215.909 384.592C216.301 384.8 216.601 385.092 216.809 385.468C217.025 385.844 217.133 386.288 217.133 386.8V387.964H213.029V388.6C213.029 389.12 213.161 389.52 213.425 389.8C213.689 390.072 214.065 390.208 214.553 390.208C214.969 390.208 215.305 390.136 215.561 389.992C215.817 389.84 215.973 389.616 216.029 389.32H217.109C217.037 389.872 216.765 390.312 216.293 390.64C215.829 390.96 215.249 391.12 214.553 391.12ZM216.077 387.244V386.8C216.077 386.28 215.945 385.88 215.681 385.6C215.425 385.32 215.049 385.18 214.553 385.18C214.065 385.18 213.689 385.32 213.425 385.6C213.161 385.88 213.029 386.28 213.029 386.8V387.148H216.161L216.077 387.244ZM221.748 391.12C221.444 391.12 221.2 391.032 221.016 390.856C220.84 390.68 220.752 390.444 220.752 390.148C220.752 389.836 220.84 389.588 221.016 389.404C221.2 389.22 221.444 389.128 221.748 389.128C222.052 389.128 222.292 389.22 222.468 389.404C222.652 389.588 222.744 389.836 222.744 390.148C222.744 390.444 222.652 390.68 222.468 390.856C222.292 391.032 222.052 391.12 221.748 391.12ZM226.364 393.16V392.164H227.912C228.408 392.164 228.792 392.028 229.064 391.756C229.344 391.492 229.484 391.116 229.484 390.628V385.384H226.724V384.4H230.564V390.628C230.564 391.404 230.324 392.02 229.844 392.476C229.364 392.932 228.72 393.16 227.912 393.16H226.364ZM229.964 383.212C229.7 383.212 229.492 383.144 229.34 383.008C229.188 382.872 229.112 382.688 229.112 382.456C229.112 382.216 229.188 382.028 229.34 381.892C229.492 381.748 229.7 381.676 229.964 381.676C230.228 381.676 230.436 381.748 230.588 381.892C230.74 382.028 230.816 382.216 230.816 382.456C230.816 382.688 230.74 382.872 230.588 383.008C230.436 383.144 230.228 383.212 229.964 383.212ZM235.935 391.096C235.487 391.096 235.095 391.028 234.759 390.892C234.431 390.748 234.167 390.548 233.967 390.292C233.775 390.036 233.659 389.732 233.619 389.38H234.699C234.747 389.612 234.875 389.796 235.083 389.932C235.299 390.068 235.583 390.136 235.935 390.136H236.439C236.863 390.136 237.179 390.052 237.387 389.884C237.595 389.708 237.699 389.476 237.699 389.188C237.699 388.908 237.603 388.688 237.411 388.528C237.227 388.36 236.951 388.248 236.583 388.192L235.695 388.048C235.047 387.936 234.563 387.736 234.243 387.448C233.931 387.152 233.775 386.724 233.775 386.164C233.775 385.572 233.963 385.116 234.339 384.796C234.715 384.468 235.279 384.304 236.031 384.304H236.487C237.119 384.304 237.627 384.452 238.011 384.748C238.395 385.044 238.627 385.444 238.707 385.948H237.627C237.579 385.74 237.459 385.576 237.267 385.456C237.075 385.328 236.815 385.264 236.487 385.264H236.031C235.623 385.264 235.323 385.34 235.131 385.492C234.947 385.644 234.855 385.872 234.855 386.176C234.855 386.448 234.935 386.648 235.095 386.776C235.255 386.904 235.507 386.996 235.851 387.052L236.739 387.196C237.451 387.308 237.967 387.516 238.287 387.82C238.615 388.124 238.779 388.564 238.779 389.14C238.779 389.748 238.583 390.228 238.191 390.58C237.807 390.924 237.223 391.096 236.439 391.096H235.935ZM243.334 391.096C242.806 391.096 242.35 390.996 241.966 390.796C241.582 390.596 241.282 390.308 241.066 389.932C240.858 389.548 240.754 389.096 240.754 388.576V386.824C240.754 386.296 240.858 385.844 241.066 385.468C241.282 385.092 241.582 384.804 241.966 384.604C242.35 384.404 242.806 384.304 243.334 384.304C243.862 384.304 244.318 384.404 244.702 384.604C245.086 384.804 245.382 385.092 245.59 385.468C245.806 385.844 245.914 386.292 245.914 386.812V388.576C245.914 389.096 245.806 389.548 245.59 389.932C245.382 390.308 245.086 390.596 244.702 390.796C244.318 390.996 243.862 391.096 243.334 391.096ZM243.334 390.136C243.806 390.136 244.174 390.004 244.438 389.74C244.702 389.476 244.834 389.088 244.834 388.576V386.824C244.834 386.312 244.702 385.924 244.438 385.66C244.174 385.396 243.806 385.264 243.334 385.264C242.87 385.264 242.502 385.396 242.23 385.66C241.966 385.924 241.834 386.312 241.834 386.824V388.576C241.834 389.088 241.966 389.476 242.23 389.74C242.502 390.004 242.87 390.136 243.334 390.136ZM248.034 391V384.4H249.114V385.66H249.342L249.114 385.912C249.114 385.392 249.27 384.992 249.582 384.712C249.894 384.424 250.326 384.28 250.878 384.28C251.542 384.28 252.07 384.484 252.462 384.892C252.854 385.3 253.05 385.856 253.05 386.56V391H251.97V386.68C251.97 386.208 251.842 385.848 251.586 385.6C251.338 385.344 250.998 385.216 250.566 385.216C250.118 385.216 249.762 385.352 249.498 385.624C249.242 385.896 249.114 386.288 249.114 386.8V391H248.034Z" fill="white" fill-opacity="0.93"/>
</svg>
