<svg width="180" height="180" viewBox="0 0 180 180" fill="none" xmlns="http://www.w3.org/2000/svg">
<path fill-rule="evenodd" clip-rule="evenodd" d="M88.2291 153.387C88.2291 160.659 82.5852 166.013 75.4942 166.013C68.4032 166.013 62.7593 160.659 62.7593 153.387C62.7593 146.115 68.4032 140.76 75.4942 140.76C82.5852 140.76 88.2291 146.115 88.2291 153.387ZM67.969 153.387C67.969 157.981 71.008 161.491 75.4942 161.491C79.9804 161.491 83.0194 157.981 83.0194 153.387C83.0194 148.792 79.9804 145.283 75.4942 145.283C71.008 145.283 67.969 148.792 67.969 153.387Z" fill="#3B82F6"/>
<path d="M32.9021 165.687H28.0542V140.833H28.4522L40.572 154.146L52.511 140.833H52.9452V165.687H48.061V156.462C48.061 154.798 48.2419 152.156 48.2419 152.156C48.2419 152.156 46.7586 154.327 45.6009 155.63L40.7168 161.093H40.2464L35.3623 155.63C34.2046 154.327 32.7213 152.156 32.7213 152.156C32.7213 152.156 32.9021 154.798 32.9021 156.462V165.687Z" fill="#3B82F6"/>
<path d="M117.76 165.904H118.266V141.086H113.527V151.397C113.527 153.097 113.853 155.883 113.853 155.883C113.853 155.883 112.152 153.64 110.958 152.518L98.549 140.869H98.0425V165.687H102.782V155.376C102.782 153.604 102.42 150.89 102.42 150.89C102.42 150.89 104.12 153.097 105.351 154.255L117.76 165.904Z" fill="#3B82F6"/>
<path fill-rule="evenodd" clip-rule="evenodd" d="M152.546 153.387C152.546 160.659 146.902 166.013 139.811 166.013C132.72 166.013 127.076 160.659 127.076 153.387C127.076 146.115 132.72 140.76 139.811 140.76C146.902 140.76 152.546 146.115 152.546 153.387ZM132.285 153.387C132.285 157.981 135.324 161.491 139.811 161.491C144.297 161.491 147.336 157.981 147.336 153.387C147.336 148.792 144.297 145.283 139.811 145.283C135.324 145.283 132.285 148.792 132.285 153.387Z" fill="#3B82F6"/>
<path fill-rule="evenodd" clip-rule="evenodd" d="M24.2998 27C24.2998 18.053 31.5528 10.8 40.4998 10.8C49.4468 10.8 56.6998 18.053 56.6998 27C56.6998 30.406 55.6487 33.5665 53.8532 36.1749L80.4126 58.9401C83.0971 56.9662 86.4122 55.8 89.9998 55.8C93.5874 55.8 96.9027 56.9663 99.5872 58.9403L126.147 36.1748C124.351 33.5665 123.3 30.406 123.3 27C123.3 18.053 130.553 10.8 139.5 10.8C148.447 10.8 155.7 18.053 155.7 27C155.7 35.0271 149.862 41.6907 142.2 42.9761V114.981L155.591 101.591L159.409 105.409L139.5 125.318L119.591 105.409L123.409 101.591L136.8 114.982V42.9761C134.254 42.5488 131.909 41.5275 129.912 40.0595L103.353 62.8248C105.149 65.4332 106.2 68.5939 106.2 72.0001C106.2 80.9471 98.9468 88.2001 89.9998 88.2001C81.0528 88.2001 73.7998 80.9471 73.7998 72.0001C73.7998 68.5938 74.8511 65.433 76.6469 62.8246L50.0876 40.0595C48.0914 41.5275 45.7463 42.5488 43.1998 42.9761V114.982L56.5908 101.591L60.4092 105.409L40.5 125.318L20.5908 105.409L24.4092 101.591L37.7998 114.981V42.9761C30.138 41.6907 24.2998 35.0271 24.2998 27ZM40.4998 16.2C34.5351 16.2 29.6998 21.0354 29.6998 27C29.6998 32.9647 34.5351 37.8001 40.4998 37.8001C46.4645 37.8001 51.2998 32.9647 51.2998 27C51.2998 21.0354 46.4645 16.2 40.4998 16.2ZM89.9998 61.2001C84.0351 61.2001 79.1998 66.0354 79.1998 72.0001C79.1998 77.9647 84.0351 82.8001 89.9998 82.8001C95.9645 82.8001 100.8 77.9647 100.8 72.0001C100.8 66.0354 95.9645 61.2001 89.9998 61.2001ZM139.5 16.2C145.465 16.2 150.3 21.0354 150.3 27C150.3 32.9647 145.465 37.8001 139.5 37.8001C133.536 37.8001 128.7 32.9647 128.7 27C128.7 21.0354 133.536 16.2 139.5 16.2Z" fill="#1E293B"/>
</svg>
