<svg width="980" height="748" viewBox="0 0 980 748" fill="none" xmlns="http://www.w3.org/2000/svg">
<path d="M238.104 270.393L232.648 267.015C232.602 266.484 232.551 265.954 232.494 265.425L237.183 261.054C237.414 260.835 237.586 260.56 237.683 260.256C237.779 259.952 237.797 259.629 237.735 259.316C237.672 259.003 237.532 258.712 237.326 258.468C237.12 258.224 236.856 258.037 236.558 257.923L230.564 255.681C230.416 255.162 230.259 254.647 230.093 254.134L233.832 248.941C234.02 248.681 234.138 248.378 234.175 248.06C234.212 247.742 234.167 247.42 234.045 247.124C233.922 246.829 233.726 246.569 233.475 246.371C233.224 246.172 232.926 246.042 232.61 245.991L226.292 244.965C226.046 244.487 225.792 244.014 225.53 243.545L228.184 237.716C228.318 237.425 228.375 237.105 228.349 236.786C228.323 236.467 228.215 236.16 228.036 235.895C227.858 235.63 227.614 235.414 227.33 235.268C227.045 235.122 226.728 235.051 226.408 235.061L219.992 235.286C219.663 234.87 219.324 234.46 218.977 234.058L220.452 227.812C220.525 227.501 220.517 227.176 220.43 226.869C220.342 226.561 220.177 226.281 219.951 226.055C219.725 225.828 219.445 225.664 219.137 225.576C218.83 225.488 218.505 225.48 218.193 225.553L211.947 227.028C211.539 226.686 211.128 226.347 210.713 226.014L210.938 219.598C210.953 219.277 210.885 218.957 210.741 218.67C210.596 218.383 210.38 218.138 210.113 217.959C209.845 217.781 209.537 217.674 209.216 217.65C208.896 217.625 208.575 217.684 208.284 217.821L202.455 220.48C201.983 220.223 201.512 219.965 201.034 219.718L200.004 213.395C199.95 213.081 199.818 212.785 199.619 212.536C199.42 212.286 199.161 212.092 198.866 211.969C198.571 211.847 198.25 211.802 197.933 211.838C197.616 211.873 197.314 211.989 197.053 212.173L191.855 215.913C191.342 215.749 190.827 215.594 190.308 215.447L188.066 209.453C187.952 209.155 187.765 208.891 187.521 208.685C187.277 208.479 186.986 208.339 186.673 208.276C186.36 208.214 186.036 208.232 185.733 208.328C185.429 208.425 185.154 208.597 184.935 208.828L180.564 213.522C180.035 213.463 179.504 213.411 178.973 213.368L175.596 207.912C175.428 207.639 175.193 207.415 174.914 207.259C174.634 207.103 174.32 207.021 174 207.021C173.68 207.021 173.366 207.103 173.086 207.259C172.807 207.415 172.572 207.639 172.404 207.912L169.026 213.368C168.496 213.413 167.966 213.465 167.436 213.522L163.06 208.828C162.842 208.593 162.567 208.419 162.263 208.321C161.958 208.222 161.634 208.204 161.32 208.266C161.006 208.329 160.714 208.471 160.47 208.678C160.227 208.886 160.04 209.153 159.929 209.453L157.686 215.446C157.165 215.595 156.655 215.753 156.14 215.912L150.947 212.173C150.686 211.989 150.383 211.873 150.066 211.838C149.749 211.802 149.428 211.847 149.134 211.97C148.839 212.092 148.58 212.287 148.381 212.536C148.182 212.786 148.05 213.081 147.996 213.396L146.965 219.718C146.488 219.965 146.014 220.219 145.545 220.48L139.716 217.821C139.424 217.688 139.104 217.631 138.785 217.657C138.466 217.683 138.158 217.79 137.892 217.968C137.626 218.146 137.41 218.389 137.265 218.674C137.119 218.96 137.049 219.278 137.061 219.598L137.287 226.014C136.869 226.344 136.458 226.682 136.053 227.028L129.807 225.552C129.495 225.479 129.171 225.487 128.863 225.575C128.555 225.663 128.275 225.827 128.049 226.054C127.823 226.28 127.658 226.56 127.57 226.867C127.483 227.175 127.475 227.5 127.548 227.811L129.017 234.057C128.677 234.464 128.337 234.875 128.008 235.286L121.592 235.061C121.272 235.049 120.954 235.119 120.669 235.264C120.384 235.41 120.14 235.626 119.962 235.892C119.784 236.158 119.677 236.465 119.651 236.784C119.626 237.104 119.682 237.424 119.815 237.715L122.475 243.544C122.213 244.013 121.959 244.487 121.713 244.964L115.396 245.99C115.081 246.044 114.786 246.176 114.536 246.375C114.287 246.574 114.092 246.833 113.97 247.128C113.848 247.422 113.802 247.743 113.838 248.06C113.873 248.377 113.988 248.68 114.173 248.94L117.912 254.133C117.75 254.647 117.593 255.162 117.441 255.68L111.448 257.922C111.15 258.036 110.885 258.223 110.68 258.467C110.474 258.71 110.333 259.002 110.27 259.315C110.208 259.628 110.226 259.951 110.322 260.255C110.419 260.559 110.591 260.834 110.822 261.053L115.511 265.425C115.451 265.954 115.4 266.484 115.357 267.015L109.901 270.392C109.626 270.558 109.399 270.792 109.242 271.072C109.084 271.352 109.001 271.667 109.001 271.988C109.001 272.309 109.084 272.625 109.242 272.904C109.399 273.184 109.626 273.418 109.901 273.584L115.357 276.962C115.401 277.494 115.456 278.026 115.511 278.552L110.822 282.928C110.588 283.146 110.413 283.421 110.315 283.725C110.217 284.03 110.198 284.354 110.261 284.668C110.324 284.982 110.466 285.275 110.673 285.518C110.881 285.761 111.148 285.948 111.448 286.059L117.441 288.302C117.589 288.823 117.748 289.339 117.912 289.848L114.173 295.041C113.984 295.301 113.864 295.605 113.827 295.924C113.789 296.242 113.834 296.566 113.957 296.862C114.081 297.159 114.278 297.418 114.531 297.616C114.784 297.814 115.084 297.943 115.401 297.992L121.718 299.017C121.965 299.494 122.218 299.966 122.481 300.438L119.821 306.267C119.688 306.558 119.632 306.879 119.657 307.198C119.683 307.517 119.79 307.824 119.968 308.09C120.146 308.356 120.39 308.573 120.675 308.718C120.96 308.863 121.278 308.933 121.598 308.921L128.008 308.696C128.343 309.113 128.677 309.524 129.023 309.93L127.553 316.181C127.48 316.492 127.487 316.817 127.575 317.125C127.663 317.432 127.828 317.712 128.054 317.938C128.28 318.164 128.561 318.328 128.869 318.415C129.176 318.502 129.501 318.509 129.812 318.435L136.058 316.965C136.464 317.311 136.876 317.645 137.292 317.975L137.067 324.391C137.053 324.711 137.122 325.03 137.267 325.316C137.412 325.602 137.628 325.846 137.895 326.025C138.162 326.203 138.47 326.309 138.79 326.333C139.11 326.357 139.431 326.298 139.722 326.162L145.55 323.508C146.022 323.771 146.494 324.023 146.971 324.27L148.002 330.587C148.054 330.902 148.186 331.198 148.385 331.448C148.583 331.698 148.842 331.894 149.137 332.017C149.432 332.14 149.753 332.185 150.071 332.15C150.388 332.115 150.691 332 150.952 331.815L156.145 328.076C156.658 328.241 157.173 328.398 157.691 328.547L159.934 334.541C160.044 334.842 160.23 335.11 160.473 335.319C160.717 335.527 161.01 335.67 161.324 335.733C161.639 335.795 161.964 335.776 162.269 335.677C162.574 335.578 162.848 335.402 163.065 335.166L167.441 330.477C167.968 330.537 168.5 330.587 169.032 330.637L172.41 336.093C172.579 336.364 172.814 336.587 173.093 336.742C173.372 336.897 173.686 336.978 174.005 336.978C174.325 336.978 174.639 336.897 174.918 336.742C175.197 336.587 175.432 336.364 175.601 336.093L178.979 330.637C179.511 330.587 180.043 330.537 180.569 330.477L184.94 335.166C185.159 335.397 185.434 335.569 185.738 335.666C186.042 335.762 186.365 335.78 186.678 335.717C186.991 335.655 187.282 335.514 187.526 335.309C187.769 335.103 187.957 334.839 188.071 334.541L190.314 328.547C190.832 328.399 191.348 328.242 191.86 328.076L197.053 331.815C197.313 332.004 197.616 332.124 197.935 332.161C198.254 332.199 198.578 332.154 198.874 332.031C199.17 331.907 199.43 331.71 199.628 331.457C199.826 331.204 199.955 330.904 200.004 330.587L201.034 324.27C201.511 324.023 201.983 323.765 202.455 323.508L208.284 326.162C208.575 326.293 208.895 326.348 209.213 326.322C209.531 326.296 209.837 326.189 210.102 326.012C210.368 325.835 210.584 325.593 210.73 325.31C210.876 325.026 210.948 324.71 210.938 324.391L210.714 317.975C211.13 317.647 211.54 317.311 211.941 316.965L218.187 318.435C218.498 318.507 218.822 318.499 219.129 318.412C219.436 318.324 219.716 318.16 219.942 317.935C220.168 317.709 220.333 317.43 220.421 317.124C220.509 316.817 220.518 316.493 220.447 316.182L218.977 309.93C219.317 309.524 219.657 309.113 219.986 308.696L226.402 308.921C226.723 308.936 227.043 308.868 227.33 308.723C227.617 308.579 227.862 308.362 228.04 308.095C228.219 307.828 228.326 307.52 228.35 307.199C228.374 306.879 228.316 306.557 228.179 306.266L225.525 300.438C225.782 299.966 226.04 299.494 226.287 299.017L232.604 297.992C232.918 297.938 233.214 297.806 233.464 297.607C233.713 297.408 233.908 297.149 234.03 296.854C234.152 296.56 234.198 296.239 234.162 295.922C234.127 295.605 234.011 295.302 233.827 295.041L230.087 289.848L230.559 288.302L236.553 286.06C236.853 285.948 237.119 285.762 237.327 285.518C237.535 285.275 237.677 284.982 237.74 284.668C237.802 284.354 237.783 284.03 237.685 283.725C237.587 283.421 237.412 283.146 237.178 282.928L232.489 278.552C232.544 278.026 232.598 277.494 232.642 276.962L238.099 273.584C238.373 273.418 238.6 273.184 238.758 272.904C238.916 272.625 238.999 272.309 238.999 271.988C238.999 271.667 238.916 271.352 238.758 271.072C238.6 270.792 238.373 270.558 238.099 270.392L238.104 270.393ZM201.589 315.65C200.591 315.43 199.72 314.825 199.167 313.966C198.614 313.107 198.424 312.064 198.638 311.065C198.851 310.066 199.452 309.192 200.308 308.634C201.164 308.076 202.206 307.88 203.206 308.088C203.709 308.188 204.188 308.386 204.614 308.673C205.04 308.959 205.405 309.327 205.687 309.756C205.969 310.185 206.163 310.665 206.258 311.17C206.352 311.674 206.345 312.192 206.238 312.694C206.13 313.196 205.923 313.671 205.63 314.092C205.337 314.513 204.963 314.872 204.529 315.147C204.096 315.422 203.612 315.608 203.107 315.695C202.601 315.781 202.083 315.766 201.583 315.65H201.589ZM199.735 303.114C199.283 303.017 198.816 303.01 198.361 303.093C197.906 303.177 197.472 303.349 197.083 303.601C196.695 303.853 196.36 304.178 196.098 304.56C195.836 304.941 195.652 305.37 195.556 305.823L193.621 314.86C187.643 317.574 181.008 319.083 174.016 319.083C167.102 319.093 160.271 317.588 154.001 314.674L152.065 305.636C151.969 305.184 151.785 304.755 151.523 304.374C151.261 303.993 150.926 303.668 150.538 303.417C150.149 303.165 149.715 302.993 149.26 302.91C148.805 302.828 148.339 302.835 147.887 302.934L139.908 304.644C138.425 303.117 137.048 301.492 135.784 299.78H174.609C175.047 299.78 175.343 299.704 175.343 299.303V285.567C175.343 285.166 175.053 285.089 174.609 285.089H163.252V276.381H175.536C176.654 276.381 181.529 276.699 183.086 282.929C183.574 284.842 184.644 291.078 185.379 293.074C186.108 295.311 189.08 299.78 192.25 299.78H211.596C211.831 299.777 212.066 299.753 212.298 299.709C210.956 301.531 209.487 303.256 207.9 304.869L199.735 303.114ZM146.033 315.463C145.533 315.579 145.015 315.595 144.509 315.508C144.003 315.422 143.52 315.236 143.086 314.961C142.653 314.686 142.279 314.327 141.986 313.906C141.692 313.485 141.486 313.009 141.378 312.508C141.27 312.006 141.264 311.488 141.358 310.983C141.453 310.479 141.647 309.998 141.929 309.569C142.211 309.141 142.576 308.773 143.002 308.486C143.428 308.2 143.906 308.001 144.41 307.902C145.405 307.705 146.438 307.907 147.286 308.465C148.133 309.023 148.728 309.892 148.941 310.884C149.154 311.876 148.968 312.912 148.424 313.769C147.88 314.626 147.022 315.234 146.033 315.463ZM131.304 255.735C131.528 256.201 131.655 256.708 131.679 257.224C131.704 257.741 131.624 258.257 131.445 258.742C131.266 259.227 130.992 259.671 130.639 260.049C130.285 260.426 129.859 260.729 129.387 260.938C128.914 261.148 128.404 261.261 127.887 261.27C127.37 261.28 126.857 261.185 126.377 260.993C125.897 260.8 125.461 260.513 125.094 260.149C124.727 259.784 124.437 259.35 124.241 258.872C123.86 257.941 123.857 256.899 124.233 255.966C124.608 255.034 125.332 254.284 126.25 253.876C127.169 253.468 128.211 253.434 129.154 253.781C130.098 254.128 130.869 254.829 131.304 255.735V255.735ZM126.78 266.467L135.093 262.771C135.516 262.583 135.898 262.314 136.216 261.978C136.535 261.643 136.785 261.248 136.951 260.816C137.117 260.384 137.196 259.924 137.184 259.461C137.172 258.999 137.069 258.543 136.881 258.12L135.17 254.249H141.904V284.596H128.321C126.646 278.706 126.124 272.548 126.786 266.461L126.78 266.467ZM163.258 263.522V254.578H179.291C180.12 254.578 185.137 255.538 185.137 259.289C185.137 262.403 181.287 263.522 178.124 263.522H163.258ZM221.527 271.572C221.527 272.757 221.483 273.935 221.395 275.098H216.52C216.033 275.098 215.835 275.416 215.835 275.898V278.135C215.835 283.406 212.863 284.552 210.258 284.842C207.779 285.122 205.032 283.806 204.692 282.287C203.228 274.062 200.793 272.301 196.944 269.269C201.72 266.236 206.688 261.761 206.688 255.773C206.688 249.308 202.252 245.234 199.23 243.232C194.992 240.435 190.298 239.876 189.031 239.876H138.619C145.586 232.086 154.929 226.812 165.199 224.873L171.143 231.107C171.462 231.443 171.843 231.711 172.266 231.899C172.688 232.086 173.144 232.188 173.606 232.198C174.068 232.209 174.528 232.128 174.959 231.961C175.39 231.794 175.783 231.543 176.117 231.223L182.763 224.862C189.54 226.133 195.959 228.863 201.575 232.863C207.191 236.862 211.87 242.036 215.287 248.025L210.735 258.307C210.358 259.161 210.334 260.129 210.669 261.001C211.004 261.872 211.671 262.575 212.523 262.957L221.286 266.85C221.439 268.408 221.516 269.976 221.516 271.572H221.527ZM171.149 219.576C171.89 218.869 172.881 218.486 173.905 218.51C174.412 218.522 174.911 218.633 175.375 218.838C175.839 219.044 176.257 219.338 176.607 219.705C176.957 220.072 177.232 220.504 177.415 220.977C177.598 221.45 177.686 221.954 177.674 222.461C177.662 222.968 177.55 223.467 177.345 223.931C177.14 224.395 176.845 224.814 176.479 225.164C175.728 225.812 174.756 226.147 173.765 226.099C172.774 226.051 171.84 225.624 171.155 224.906C170.47 224.188 170.088 223.234 170.086 222.242C170.085 221.25 170.466 220.295 171.149 219.576V219.576ZM216.318 255.922C216.522 255.458 216.816 255.039 217.183 254.689C217.549 254.34 217.981 254.066 218.454 253.883C218.927 253.701 219.431 253.613 219.938 253.626C220.445 253.639 220.944 253.752 221.407 253.958C222.106 254.267 222.699 254.776 223.109 255.422C223.519 256.068 223.729 256.821 223.711 257.585C223.693 258.35 223.448 259.092 223.009 259.718C222.569 260.344 221.953 260.825 221.24 261.101C220.526 261.377 219.747 261.435 219 261.267C218.254 261.1 217.574 260.715 217.046 260.161C216.519 259.607 216.168 258.909 216.037 258.156C215.906 257.402 216.002 256.626 216.312 255.927L216.318 255.922Z" fill="#9CA3AF"/>
<path d="M326.094 207C322.719 207 320 209.719 320 213.094V330.906C320 334.281 322.719 337 326.094 337H443.906C447.281 337 450 334.281 450 330.906V213.094C450 209.719 447.281 207 443.906 207H326.094ZM420.143 259.812C423.458 259.812 426.394 260.013 428.956 260.414C431.373 260.776 433.744 261.393 436.03 262.255V275.57C434.933 274.811 433.767 274.156 432.547 273.614C431.29 273.048 429.992 272.578 428.664 272.206C426.148 271.505 423.551 271.141 420.94 271.122C419.315 271.122 417.836 271.274 416.503 271.588C415.316 271.842 414.176 272.285 413.129 272.899C412.208 273.463 411.504 274.14 411 274.925C410.493 275.717 410.23 276.639 410.242 277.579C410.242 278.641 410.529 279.6 411.087 280.445C411.65 281.29 412.452 282.091 413.486 282.85C414.521 283.608 415.777 284.345 417.256 285.07C418.735 285.802 420.409 286.555 422.272 287.324C424.818 288.391 427.104 289.528 429.13 290.725C431.155 291.928 432.894 293.287 434.346 294.804C435.797 296.315 436.903 298.043 437.672 299.988C438.441 301.932 438.831 304.191 438.831 306.775C438.831 310.334 438.154 313.329 436.81 315.745C435.498 318.128 433.614 320.147 431.329 321.622C428.865 323.184 426.135 324.279 423.274 324.85C420.208 325.5 416.975 325.825 413.578 325.825C410.236 325.84 406.899 325.543 403.612 324.937C400.768 324.445 398.009 323.546 395.422 322.267V308.021C400.317 312.187 406.527 314.489 412.955 314.521C414.759 314.521 416.335 314.358 417.679 314.033C419.028 313.708 420.149 313.253 421.053 312.679C421.952 312.094 422.624 311.412 423.074 310.621C423.571 309.7 423.797 308.657 423.726 307.614C423.655 306.57 423.29 305.567 422.673 304.722C421.868 303.657 420.884 302.741 419.764 302.014C418.376 301.093 416.914 300.289 415.393 299.609C413.59 298.786 411.772 297.998 409.938 297.247C404.966 295.172 401.261 292.632 398.818 289.637C396.38 286.641 395.156 283.017 395.156 278.776C395.156 275.45 395.823 272.596 397.155 270.207C398.488 267.818 400.297 265.852 402.593 264.308C405.023 262.706 407.719 261.552 410.556 260.901C413.697 260.161 416.916 259.795 420.143 259.812V259.812ZM338.281 260.831H390.081V272.563H371.491V324.812H356.774V272.563H338.281V260.831Z" fill="#9CA3AF"/>
<g clip-path="url(#clip0_611_647)">
<path d="M540.81 262.418C540.555 262.418 540.495 262.293 540.62 262.098L541.952 260.392C542.077 260.202 542.391 260.078 542.646 260.078H565.244C565.493 260.078 565.558 260.267 565.434 260.457L564.356 262.098C564.231 262.293 563.912 262.477 563.722 262.477L540.81 262.418ZM531.255 268.241C531 268.241 530.935 268.116 531.065 267.927L532.392 266.215C532.517 266.025 532.836 265.901 533.091 265.901H561.951C562.205 265.901 562.33 266.09 562.265 266.28L561.761 267.797C561.696 268.051 561.447 268.176 561.192 268.176L531.255 268.241ZM546.573 274.064C546.318 274.064 546.253 273.874 546.383 273.685L547.266 272.103C547.391 271.913 547.645 271.724 547.9 271.724H560.559C560.813 271.724 560.938 271.913 560.938 272.168L560.813 273.685C560.813 273.939 560.559 274.129 560.369 274.129L546.573 274.064ZM612.272 261.28C608.285 262.293 605.56 263.052 601.639 264.065C600.685 264.314 600.626 264.379 599.797 263.431C598.855 262.353 598.156 261.66 596.829 261.026C592.837 259.065 588.975 259.634 585.372 261.974C581.066 264.758 578.851 268.875 578.916 273.999C578.975 279.063 582.458 283.24 587.458 283.938C591.764 284.507 595.366 282.99 598.221 279.767C598.79 279.063 599.293 278.305 599.927 277.417H587.712C586.385 277.417 586.066 276.593 586.51 275.521C587.333 273.56 588.85 270.267 589.738 268.62C589.874 268.315 590.096 268.056 590.377 267.876C590.658 267.696 590.986 267.603 591.32 267.607H614.357C614.232 269.319 614.232 271.025 613.978 272.737C613.322 277.243 611.537 281.51 608.789 285.141C604.233 291.153 598.28 294.891 590.751 295.898C584.549 296.722 578.786 295.519 573.727 291.727C569.041 288.18 566.382 283.494 565.688 277.671C564.865 270.77 566.891 264.568 571.067 259.125C575.563 253.242 581.51 249.505 588.79 248.183C594.738 247.1 600.436 247.804 605.56 251.276C608.919 253.497 611.318 256.53 612.905 260.202C613.285 260.771 613.03 261.091 612.272 261.286V261.28ZM633.223 296.283C627.46 296.153 622.206 294.506 617.775 290.709C614.089 287.603 611.659 283.261 610.939 278.495C609.802 271.345 611.762 265.012 616.069 259.379C620.689 253.302 626.257 250.138 633.792 248.817C640.249 247.679 646.326 248.302 651.83 252.04C656.829 255.452 659.933 260.078 660.756 266.15C661.829 274.697 659.364 281.658 653.476 287.611C649.3 291.852 644.17 294.506 638.282 295.709C636.576 296.034 634.87 296.088 633.223 296.283V296.283ZM648.282 270.716C648.222 269.887 648.222 269.254 648.097 268.62C646.96 262.353 641.197 258.816 635.184 260.202C629.296 261.53 625.499 265.267 624.107 271.215C622.97 276.155 625.375 281.154 629.93 283.185C633.413 284.702 636.89 284.507 640.249 282.806C645.248 280.206 647.967 276.155 648.287 270.711L648.282 270.716Z" fill="#9CA3AF"/>
</g>
<path d="M872 337H742V207H872L807 272L872 337Z" fill="#9CA3AF"/>
<g clip-path="url(#clip1_611_647)">
<path d="M596 411C578.761 411 562.228 417.848 550.038 430.038C537.848 442.228 531 458.761 531 476C531 493.239 537.848 509.772 550.038 521.962C562.228 534.152 578.761 541 596 541C613.239 541 629.772 534.152 641.962 521.962C654.152 509.772 661 493.239 661 476C661 458.761 654.152 442.228 641.962 430.038C629.772 417.848 613.239 411 596 411V411ZM582.057 449.567C585.737 449.589 589.382 450.287 592.81 451.625V458.022C589.085 455.952 584.883 454.895 580.622 454.956C577.969 454.868 575.328 455.348 572.876 456.363C570.424 457.379 568.217 458.906 566.403 460.844C562.601 465.18 560.635 470.825 560.922 476.585C560.638 482.032 562.472 487.377 566.04 491.503C567.75 493.34 569.837 494.786 572.157 495.743C574.477 496.699 576.977 497.143 579.485 497.044C584.166 497.16 588.787 495.971 592.831 493.61L592.81 499.46C588.388 501.611 583.505 502.643 578.591 502.466C575.344 502.608 572.104 502.055 569.089 500.843C566.073 499.631 563.352 497.789 561.106 495.44C556.589 490.379 554.233 483.751 554.541 476.975C554.384 473.341 554.958 469.713 556.228 466.305C557.498 462.897 559.438 459.779 561.935 457.134C564.373 454.638 567.306 452.678 570.545 451.379C573.784 450.081 577.259 449.473 580.747 449.594C580.963 449.584 581.18 449.577 581.397 449.572C581.617 449.57 581.837 449.57 582.057 449.572V449.567ZM613.815 450.406H618.344L615.337 464.771H624.335L627.406 450.406H631.793L628.787 464.771L638.169 464.75L637.356 468.525H628.012L625.781 479.25H635.812L634.859 483.031H625.022L621.881 497.25H617.385L620.456 483.031H611.519L608.512 497.25H604.125L607.131 483.031H597.706L598.416 479.25H607.884L610.056 468.547H600.165L600.913 464.771H610.804L613.815 450.406ZM614.585 468.525L612.25 479.25H621.312L623.603 468.525H614.585Z" fill="#9CA3AF"/>
</g>
<g clip-path="url(#clip2_611_647)">
<path d="M450 458.504H436.632V499.481H428.913V458.504H415.577V451.787H450V458.504ZM412.885 499.481H386.771V451.787H411.85V458.504H394.49V472.013H410.485V478.697H394.49V492.802H412.885V499.481ZM376.55 499.481H368.111L345.892 464.424C345.336 463.552 344.868 462.627 344.494 461.662H344.299C344.473 462.686 344.559 464.869 344.559 468.216V499.481H337.1V451.787H346.087L367.564 486.021C368.468 487.434 369.053 488.415 369.313 488.946H369.443C369.227 487.684 369.118 485.539 369.118 482.527V451.782H376.55V499.481ZM329.409 495.727C329.409 496.318 329.287 496.902 329.05 497.447C328.814 497.992 328.467 498.487 328.03 498.904C327.593 499.321 327.074 499.652 326.503 499.877C325.932 500.103 325.32 500.218 324.702 500.218C324.084 500.218 323.472 500.101 322.901 499.875C322.33 499.649 321.812 499.318 321.375 498.901C320.938 498.483 320.592 497.987 320.356 497.442C320.12 496.897 319.999 496.312 320 495.722C320.002 494.532 320.498 493.391 321.379 492.55C322.261 491.709 323.456 491.237 324.702 491.237C325.32 491.236 325.932 491.352 326.503 491.577C327.074 491.803 327.593 492.133 328.03 492.55C328.467 492.967 328.814 493.463 329.05 494.008C329.287 494.553 329.409 495.137 329.409 495.727V495.727Z" fill="#9CA3AF"/>
</g>
<g clip-path="url(#clip3_611_647)">
<path d="M819.188 411.975L824.063 413.058L828.017 414.467L831.213 416.092L833.65 417.825L835.492 419.667L836.846 421.508L837.713 423.296L838.254 424.921L838.471 426.329L838.579 427.412L838.525 428.117V457.042L838.254 460.454L837.55 463.433L836.413 465.925L835.004 467.983L833.379 469.662L831.592 471.017L829.696 472.046L827.8 472.804L826.013 473.346L824.388 473.725L822.979 473.942L821.842 474.05H789.504L785.767 474.321L782.571 475.079L779.863 476.271L777.642 477.733L775.854 479.467L774.392 481.362L773.308 483.312L772.496 485.317L771.954 487.212L771.575 488.946L771.358 490.408L771.25 491.546V508.121H759.171L758.033 507.958L756.517 507.579L754.783 506.929L752.888 505.954L750.938 504.546L748.988 502.596L747.092 500.104L745.358 496.908L743.842 492.954L742.704 488.187L741.946 482.5L741.675 475.837L742 469.229L742.867 463.596L744.167 458.883L745.9 455.037L747.85 451.95L750.017 449.567L752.292 447.779L754.567 446.479L756.733 445.612L758.683 445.071L760.417 444.8L761.717 444.746H762.583L762.908 444.8H807.108V440.304H775.475L775.421 425.408L775.313 423.404L775.583 421.562L776.179 419.883L777.1 418.367L778.454 416.958L780.133 415.712L782.192 414.629L784.575 413.654L787.338 412.842L790.479 412.192L793.946 411.65L797.792 411.325L801.963 411.108L806.513 411L813.392 411.271L819.188 411.975ZM785.063 422.7L783.817 424.487L783.383 426.708L783.817 428.929L785.063 430.771L786.85 431.962L789.071 432.45L791.292 431.962L793.079 430.771L794.325 428.929L794.758 426.708L794.325 424.487L793.079 422.7L791.292 421.508L789.071 421.021L786.85 421.508L785.063 422.7ZM855.967 444.096L857.483 444.421L859.217 445.071L861.113 446.046L863.063 447.508L865.013 449.404L866.908 451.95L868.642 455.146L870.158 459.1L871.296 463.867L872.054 469.5L872.325 476.162L872 482.825L871.133 488.458L869.833 493.117L868.1 496.962L866.15 500.05L863.983 502.487L861.708 504.275L859.433 505.575L857.267 506.442L855.317 506.929L853.583 507.2L852.283 507.308L851.417 507.254H806.892V511.696H838.525L838.579 526.646L838.688 528.596L838.417 530.437L837.821 532.117L836.9 533.687L835.546 535.042L833.867 536.342L831.808 537.425L829.425 538.346L826.663 539.158L823.521 539.863L820.054 540.35L816.208 540.729L812.038 540.946L807.488 541L800.608 540.783L794.813 540.025L789.938 538.942L785.983 537.588L782.788 535.962L780.35 534.175L778.508 532.333L777.154 530.492L776.288 528.704L775.746 527.079L775.529 525.725L775.421 524.642L775.475 523.937V495.012L775.746 491.546L776.45 488.621L777.588 486.129L778.996 484.071L780.621 482.337L782.408 481.037L784.304 479.954L786.2 479.196L787.988 478.654L789.613 478.329L791.021 478.112L792.158 478.004L792.863 477.95H824.496L828.233 477.679L831.429 476.921L834.138 475.783L836.358 474.267L838.146 472.533L839.608 470.637L840.692 468.687L841.504 466.737L842.046 464.842L842.425 463.108L842.642 461.592L842.75 460.454V443.879H854.071L854.829 443.933L855.967 444.096ZM820.921 521.283L819.675 523.071L819.242 525.292L819.675 527.512L820.921 529.3L822.708 530.546L824.929 530.979L827.15 530.546L828.938 529.3L830.183 527.512L830.617 525.292L830.183 523.071L828.938 521.283L827.15 520.037L824.929 519.604L822.708 520.037L820.921 521.283Z" fill="#9CA3AF"/>
</g>
<g clip-path="url(#clip4_611_647)">
<path d="M173.989 541C172.25 541 170.517 540.545 168.995 539.662L153.092 530.253C150.719 528.926 151.878 528.455 152.658 528.179C155.827 527.079 156.466 526.824 159.852 524.907C160.204 524.707 160.669 524.782 161.032 524.999L173.252 532.252C173.697 532.496 174.319 532.496 174.726 532.252L222.365 504.757C222.809 504.502 223.091 503.993 223.091 503.468V448.489C223.091 447.952 222.804 447.449 222.349 447.178L174.731 419.704C174.292 419.45 173.707 419.45 173.263 419.704L125.656 447.183C125.196 447.449 124.903 447.969 124.903 448.489V503.468C124.903 503.993 125.196 504.492 125.656 504.741L138.705 512.281C145.784 515.823 150.123 511.652 150.123 507.46V453.179C150.123 452.41 150.741 451.809 151.51 451.809H157.549C158.302 451.809 158.931 452.416 158.931 453.179V507.46C158.931 516.912 153.785 522.329 144.826 522.329C142.074 522.329 139.902 522.329 133.852 519.344L121.35 512.156C118.262 510.374 116.356 507.037 116.356 503.468V448.489C116.356 444.919 118.268 441.582 121.35 439.806L168.989 412.278C172.007 410.572 176.009 410.572 178.999 412.278L226.634 439.806C229.721 441.588 231.639 444.919 231.639 448.489V503.468C231.639 507.037 229.721 510.363 226.634 512.156L178.999 539.662C177.483 540.545 175.755 541 173.989 541ZM212.453 486.795C212.453 476.504 205.498 473.763 190.857 471.829C176.064 469.874 174.558 468.861 174.558 465.399C174.558 462.539 175.831 458.721 186.789 458.721C196.577 458.721 200.184 460.828 201.668 467.425C201.798 468.048 202.367 468.503 203.006 468.503H209.187C209.571 468.503 209.934 468.335 210.194 468.064C210.454 467.772 210.595 467.398 210.557 467.003C209.598 455.639 202.047 450.341 186.789 450.341C173.204 450.341 165.1 456.072 165.1 465.687C165.1 476.114 173.16 478.995 186.198 480.284C201.798 481.812 203.006 484.092 203.006 487.158C203.006 492.483 198.732 494.752 188.695 494.752C176.091 494.752 173.317 491.589 172.386 485.317C172.277 484.645 171.703 484.152 171.015 484.152H164.857C164.093 484.152 163.481 484.759 163.481 485.522C163.481 493.55 167.847 503.116 188.695 503.116C203.797 503.121 212.453 497.179 212.453 486.795Z" fill="#9CA3AF"/>
</g>
<defs>
<clipPath id="clip0_611_647">
<rect width="130" height="130" fill="white" transform="translate(531 207)"/>
</clipPath>
<clipPath id="clip1_611_647">
<rect width="130" height="130" fill="white" transform="translate(531 411)"/>
</clipPath>
<clipPath id="clip2_611_647">
<rect width="130" height="130" fill="white" transform="translate(320 411)"/>
</clipPath>
<clipPath id="clip3_611_647">
<rect width="130" height="130" fill="white" transform="translate(742 411)"/>
</clipPath>
<clipPath id="clip4_611_647">
<rect width="130" height="130" fill="white" transform="translate(109 411)"/>
</clipPath>
</defs>
</svg>
