<svg width="980" height="748" viewBox="0 0 980 748" fill="none" xmlns="http://www.w3.org/2000/svg">
<line x1="463.115" y1="150.79" x2="309.376" y2="261.481" stroke="#9CA3AF" stroke-width="3"/>
<line x1="310.63" y1="261.07" x2="183.027" y2="354.85" stroke="#9CA3AF" stroke-width="2"/>
<line x1="310.988" y1="260.576" x2="280.24" y2="354.356" stroke="#9CA3AF" stroke-width="2"/>
<line x1="310.855" y1="259.688" x2="376.962" y2="353.468" stroke="#9CA3AF" stroke-width="2"/>
<line x1="376.682" y1="414.002" x2="376.682" y2="354.044" stroke="#9CA3AF" stroke-width="2"/>
<line x1="375.607" y1="414.002" x2="375.607" y2="473.96" stroke="#9CA3AF" stroke-width="2"/>
<line x1="375.145" y1="535.456" x2="375.145" y2="472.423" stroke="#9CA3AF" stroke-width="2"/>
<line x1="375.145" y1="598.488" x2="375.145" y2="535.456" stroke="#9CA3AF" stroke-width="2"/>
<line x1="376.659" y1="414.86" x2="276.729" y2="474.818" stroke="#9CA3AF" stroke-width="2"/>
<line x1="278.29" y1="535.456" x2="278.29" y2="473.96" stroke="#9CA3AF" stroke-width="2"/>
<line x1="310.536" y1="259.397" x2="473.499" y2="353.178" stroke="#9CA3AF" stroke-width="2"/>
<line x1="463.115" y1="148.355" x2="616.853" y2="259.047" stroke="#FF6D74" stroke-width="3"/>
<line x1="568.509" y1="353.382" x2="614.631" y2="259.602" stroke="#9CA3AF" stroke-width="3"/>
<line x1="665.391" y1="354.758" x2="614.657" y2="260.978" stroke="#FF6D74" stroke-width="3"/>
<line x1="666.673" y1="354.044" x2="666.673" y2="414.002" stroke="#FF6D74" stroke-width="3"/>
<line x1="762.761" y1="355.31" x2="615.172" y2="261.53" stroke="#9CA3AF" stroke-width="3"/>
<rect x="385" y="111" width="153.738" height="76.8692" rx="5" fill="#FF6D74"/>
<rect x="539" y="222" width="153.738" height="76.8692" rx="5" fill="#FF6D74"/>
<rect x="232" y="222" width="153.738" height="76.8692" rx="5" fill="#9CA3AF"/>
<rect x="144" y="335.596" width="76.8692" height="38.4346" rx="5" fill="#9CA3AF"/>
<rect x="240.855" y="335.596" width="76.8692" height="38.4346" rx="5" fill="#9CA3AF"/>
<rect x="434.565" y="335.596" width="76.8692" height="38.4346" rx="5" fill="#9CA3AF"/>
<rect x="531.421" y="335.596" width="76.8692" height="38.4346" rx="5" fill="#9CA3AF"/>
<rect x="628.276" y="335.596" width="76.8692" height="38.4346" rx="5" fill="#FF6D74"/>
<rect x="628.276" y="395.554" width="76.8692" height="38.4346" rx="5" fill="#FF6D74"/>
<rect x="725.131" y="335.596" width="76.8692" height="38.4346" rx="5" fill="#9CA3AF"/>
<rect x="337.71" y="335.596" width="76.8692" height="38.4346" rx="5" fill="#9CA3AF"/>
<rect x="337.71" y="395.554" width="76.8692" height="38.4346" rx="5" fill="#9CA3AF"/>
<rect x="240.855" y="455.512" width="76.8692" height="38.4346" rx="5" fill="#9CA3AF"/>
<rect x="240.855" y="515.47" width="76.8692" height="38.4346" rx="5" fill="#9CA3AF"/>
<rect x="337.71" y="515.47" width="76.8692" height="38.4346" rx="5" fill="#9CA3AF"/>
<rect x="337.71" y="575.427" width="76.8692" height="38.4346" rx="5" fill="#9CA3AF"/>
<rect x="337.71" y="455.512" width="76.8692" height="38.4346" rx="5" fill="#9CA3AF"/>
<path d="M452.971 147.455C452.971 143.223 450.389 140.73 446.956 140.73C443.517 140.73 440.941 143.223 440.941 147.455C440.941 151.68 443.517 154.179 446.956 154.179C450.389 154.179 452.971 151.686 452.971 147.455ZM450.587 147.455C450.587 150.433 449.091 152.05 446.956 152.05C444.828 152.05 443.325 150.433 443.325 147.455C443.325 144.476 444.828 142.859 446.956 142.859C449.091 142.859 450.587 144.476 450.587 147.455ZM455.111 154H457.425V148.228C457.425 146.982 458.364 146.099 459.636 146.099C460.026 146.099 460.512 146.17 460.71 146.234V144.105C460.499 144.067 460.135 144.041 459.879 144.041C458.754 144.041 457.815 144.68 457.457 145.818H457.354V144.182H455.111V154ZM466.113 157.886C468.766 157.886 470.722 156.672 470.722 154.16V144.182H468.44V145.805H468.312C467.96 145.096 467.225 144.054 465.493 144.054C463.224 144.054 461.441 145.831 461.441 149.059C461.441 152.261 463.224 153.859 465.487 153.859C467.168 153.859 467.954 152.958 468.312 152.236H468.427V154.096C468.427 155.54 467.468 156.135 466.151 156.135C464.758 156.135 464.144 155.477 463.863 154.901L461.779 155.406C462.201 156.781 463.614 157.886 466.113 157.886ZM466.132 152.044C464.605 152.044 463.799 150.855 463.799 149.046C463.799 147.263 464.592 145.952 466.132 145.952C467.622 145.952 468.44 147.186 468.44 149.046C468.44 150.919 467.609 152.044 466.132 152.044ZM482.857 140.909H480.601L477.347 142.999V145.173L480.409 143.217H480.486V154H482.857V140.909Z" fill="white"/>
<path d="M286.653 269L287.733 265.772H292.655L293.742 269H296.273L291.658 255.909H288.73L284.122 269H286.653ZM288.372 263.867L290.143 258.594H290.245L292.016 263.867H288.372ZM297.895 272.682H300.209V267.453H300.305C300.669 268.169 301.43 269.173 303.117 269.173C305.431 269.173 307.163 267.338 307.163 264.104C307.163 260.831 305.38 259.054 303.111 259.054C301.379 259.054 300.656 260.096 300.305 260.805H300.171V259.182H297.895V272.682ZM300.164 264.091C300.164 262.186 300.982 260.952 302.472 260.952C304.012 260.952 304.805 262.263 304.805 264.091C304.805 265.932 303.999 267.274 302.472 267.274C300.995 267.274 300.164 265.996 300.164 264.091ZM309.145 272.682H311.459V267.453H311.555C311.919 268.169 312.68 269.173 314.367 269.173C316.681 269.173 318.413 267.338 318.413 264.104C318.413 260.831 316.63 259.054 314.361 259.054C312.629 259.054 311.906 260.096 311.555 260.805H311.421V259.182H309.145V272.682ZM311.414 264.091C311.414 262.186 312.232 260.952 313.722 260.952C315.262 260.952 316.055 262.263 316.055 264.091C316.055 265.932 315.249 267.274 313.722 267.274C312.245 267.274 311.414 265.996 311.414 264.091ZM330.159 255.909H327.902L324.649 257.999V260.173L327.711 258.217H327.787V269H330.159V255.909Z" fill="white"/>
<path d="M597.621 265H605.758V263.012H599.993V251.909H597.621V265ZM607.714 265H610.028V255.182H607.714V265ZM608.878 253.788C609.613 253.788 610.214 253.226 610.214 252.536C610.214 251.839 609.613 251.276 608.878 251.276C608.136 251.276 607.535 251.839 607.535 252.536C607.535 253.226 608.136 253.788 608.878 253.788ZM612.51 265H614.786V263.453H614.92C615.284 264.169 616.045 265.173 617.732 265.173C620.046 265.173 621.778 263.338 621.778 260.104C621.778 256.831 619.995 255.054 617.726 255.054C615.994 255.054 615.271 256.096 614.92 256.805H614.824V251.909H612.51V265ZM614.779 260.091C614.779 258.186 615.597 256.952 617.087 256.952C618.627 256.952 619.42 258.263 619.42 260.091C619.42 261.932 618.614 263.274 617.087 263.274C615.61 263.274 614.779 261.996 614.779 260.091ZM633.509 251.909H631.253L627.999 253.999V256.173L631.061 254.217H631.138V265H633.509V251.909Z" fill="white"/>
<path d="M746.972 672L748.053 668.772H752.974L754.061 672H756.592L751.977 658.909H749.05L744.441 672H746.972ZM748.692 666.867L750.462 661.594H750.565L752.335 666.867H748.692ZM763.064 662.182H761.025V661.408C761.025 660.641 761.345 660.213 762.208 660.213C762.572 660.213 762.879 660.296 763.071 660.354L763.537 658.564C763.237 658.462 762.578 658.295 761.779 658.295C760.073 658.295 758.711 659.273 758.711 661.255V662.182H757.26V663.972H758.711V672H761.025V663.972H763.064V662.182ZM769.849 662.182H767.81V661.408C767.81 660.641 768.13 660.213 768.993 660.213C769.357 660.213 769.664 660.296 769.856 660.354L770.322 658.564C770.022 658.462 769.364 658.295 768.565 658.295C766.858 658.295 765.496 659.273 765.496 661.255V662.182H764.045V663.972H765.496V672H767.81V663.972H769.849V662.182ZM775.639 672.192C777.927 672.192 779.5 671.073 779.909 669.366L777.748 669.124C777.435 669.955 776.668 670.389 775.671 670.389C774.175 670.389 773.184 669.405 773.165 667.724H780.005V667.014C780.005 663.569 777.934 662.054 775.518 662.054C772.705 662.054 770.871 664.119 770.871 667.148C770.871 670.229 772.68 672.192 775.639 672.192ZM773.172 666.164C773.242 664.911 774.169 663.857 775.55 663.857C776.879 663.857 777.774 664.828 777.787 666.164H773.172ZM786.245 672.192C788.712 672.192 790.285 670.728 790.451 668.644H788.239C788.041 669.699 787.281 670.306 786.264 670.306C784.82 670.306 783.886 669.098 783.886 667.091C783.886 665.109 784.839 663.92 786.264 663.92C787.376 663.92 788.06 664.636 788.239 665.582H790.451C790.291 663.454 788.629 662.054 786.232 662.054C783.356 662.054 781.54 664.131 781.54 667.129C781.54 670.102 783.311 672.192 786.245 672.192ZM797.254 662.182H795.317V659.83H793.003V662.182H791.61V663.972H793.003V669.43C792.99 671.278 794.333 672.185 796.071 672.134C796.73 672.115 797.183 671.987 797.433 671.904L797.043 670.095C796.915 670.127 796.653 670.185 796.365 670.185C795.784 670.185 795.317 669.98 795.317 669.047V663.972H797.254V662.182ZM803.43 672.192C805.718 672.192 807.291 671.073 807.7 669.366L805.539 669.124C805.226 669.955 804.459 670.389 803.462 670.389C801.966 670.389 800.975 669.405 800.956 667.724H807.796V667.014C807.796 663.569 805.725 662.054 803.309 662.054C800.496 662.054 798.662 664.119 798.662 667.148C798.662 670.229 800.471 672.192 803.43 672.192ZM800.963 666.164C801.033 664.911 801.96 663.857 803.341 663.857C804.67 663.857 805.565 664.828 805.578 666.164H800.963ZM813.397 672.173C815.084 672.173 815.845 671.169 816.209 670.453H816.35V672H818.626V658.909H816.305V663.805H816.209C815.858 663.096 815.135 662.054 813.403 662.054C811.134 662.054 809.351 663.831 809.351 667.104C809.351 670.338 811.083 672.173 813.397 672.173ZM814.042 670.274C812.515 670.274 811.709 668.932 811.709 667.091C811.709 665.263 812.502 663.952 814.042 663.952C815.532 663.952 816.35 665.186 816.35 667.091C816.35 668.996 815.519 670.274 814.042 670.274ZM829.839 672.192C832.306 672.192 833.879 670.728 834.045 668.644H831.833C831.635 669.699 830.874 670.306 829.858 670.306C828.413 670.306 827.48 669.098 827.48 667.091C827.48 665.109 828.433 663.92 829.858 663.92C830.97 663.92 831.654 664.636 831.833 665.582H834.045C833.885 663.454 832.223 662.054 829.826 662.054C826.95 662.054 825.134 664.131 825.134 667.129C825.134 670.102 826.905 672.192 829.839 672.192ZM838.259 666.247C838.259 664.828 839.141 664.01 840.381 664.01C841.595 664.01 842.311 664.783 842.311 666.107V672H844.625V665.749C844.625 663.377 843.283 662.054 841.244 662.054C839.735 662.054 838.776 662.738 838.323 663.85H838.208V658.909H835.945V672H838.259V666.247ZM849.809 672.198C851.35 672.198 852.27 671.476 852.692 670.651H852.769V672H854.993V665.429C854.993 662.834 852.877 662.054 851.004 662.054C848.94 662.054 847.355 662.974 846.843 664.764L849.004 665.071C849.234 664.4 849.886 663.825 851.017 663.825C852.091 663.825 852.679 664.374 852.679 665.339V665.378C852.679 666.043 851.982 666.075 850.25 666.26C848.345 666.464 846.524 667.033 846.524 669.245C846.524 671.175 847.936 672.198 849.809 672.198ZM850.41 670.498C849.445 670.498 848.754 670.057 848.754 669.207C848.754 668.318 849.528 667.947 850.563 667.8C851.171 667.717 852.385 667.564 852.686 667.321V668.478C852.686 669.571 851.803 670.498 850.41 670.498ZM859.634 666.247C859.634 664.828 860.49 664.01 861.711 664.01C862.906 664.01 863.622 664.796 863.622 666.107V672H865.936V665.749C865.943 663.396 864.6 662.054 862.574 662.054C861.104 662.054 860.094 662.757 859.646 663.85H859.531V662.182H857.32V672H859.634V666.247ZM872.558 675.886C875.211 675.886 877.167 674.672 877.167 672.16V662.182H874.885V663.805H874.757C874.406 663.096 873.671 662.054 871.938 662.054C869.669 662.054 867.886 663.831 867.886 667.059C867.886 670.261 869.669 671.859 871.932 671.859C873.613 671.859 874.399 670.958 874.757 670.236H874.872V672.096C874.872 673.54 873.914 674.135 872.597 674.135C871.203 674.135 870.59 673.477 870.308 672.901L868.225 673.406C868.646 674.781 870.059 675.886 872.558 675.886ZM872.578 670.044C871.05 670.044 870.244 668.855 870.244 667.046C870.244 665.263 871.037 663.952 872.578 663.952C874.067 663.952 874.885 665.186 874.885 667.046C874.885 668.919 874.054 670.044 872.578 670.044ZM883.885 672.192C886.173 672.192 887.746 671.073 888.155 669.366L885.994 669.124C885.681 669.955 884.914 670.389 883.917 670.389C882.421 670.389 881.431 669.405 881.411 667.724H888.251V667.014C888.251 663.569 886.18 662.054 883.764 662.054C880.951 662.054 879.117 664.119 879.117 667.148C879.117 670.229 880.926 672.192 883.885 672.192ZM881.418 666.164C881.488 664.911 882.415 663.857 883.796 663.857C885.125 663.857 886.02 664.828 886.033 666.164H881.418ZM897.968 664.777C897.649 663.115 896.319 662.054 894.018 662.054C891.653 662.054 890.042 663.217 890.049 665.033C890.042 666.464 890.924 667.411 892.81 667.8L894.485 668.152C895.386 668.35 895.808 668.714 895.808 669.271C895.808 669.942 895.079 670.447 893.98 670.447C892.919 670.447 892.228 669.987 892.03 669.104L889.774 669.322C890.061 671.124 891.576 672.192 893.986 672.192C896.441 672.192 898.173 670.92 898.179 669.06C898.173 667.66 897.272 666.803 895.418 666.401L893.743 666.043C892.746 665.819 892.35 665.474 892.356 664.905C892.35 664.24 893.085 663.78 894.05 663.78C895.118 663.78 895.68 664.362 895.859 665.007L897.968 664.777ZM751.447 689.871C751.447 691.366 750.379 692.108 749.357 692.108C748.244 692.108 747.503 691.322 747.503 690.075V684.182H745.189V690.433C745.189 692.792 746.531 694.128 748.462 694.128C749.932 694.128 750.967 693.354 751.415 692.255H751.517V694H753.761V684.182H751.447V689.871ZM756.14 697.682H758.454V692.453H758.55C758.914 693.169 759.675 694.173 761.362 694.173C763.676 694.173 765.409 692.338 765.409 689.104C765.409 685.831 763.625 684.054 761.356 684.054C759.624 684.054 758.901 685.096 758.55 685.805H758.416V684.182H756.14V697.682ZM758.409 689.091C758.409 687.186 759.227 685.952 760.717 685.952C762.257 685.952 763.05 687.263 763.05 689.091C763.05 690.932 762.244 692.274 760.717 692.274C759.24 692.274 758.409 690.996 758.409 689.091ZM771.673 694.192C774.549 694.192 776.377 692.165 776.377 689.129C776.377 686.087 774.549 684.054 771.673 684.054C768.796 684.054 766.968 686.087 766.968 689.129C766.968 692.165 768.796 694.192 771.673 694.192ZM771.686 692.338C770.094 692.338 769.314 690.919 769.314 689.123C769.314 687.327 770.094 685.888 771.686 685.888C773.252 685.888 774.031 687.327 774.031 689.123C774.031 690.919 773.252 692.338 771.686 692.338ZM780.655 688.247C780.655 686.828 781.512 686.01 782.733 686.01C783.928 686.01 784.644 686.796 784.644 688.107V694H786.958V687.749C786.964 685.396 785.622 684.054 783.596 684.054C782.125 684.054 781.115 684.757 780.668 685.85H780.553V684.182H778.341V694H780.655V688.247ZM798.058 694.192C800.525 694.192 802.097 692.728 802.263 690.644H800.052C799.854 691.699 799.093 692.306 798.077 692.306C796.632 692.306 795.699 691.098 795.699 689.091C795.699 687.109 796.651 685.92 798.077 685.92C799.189 685.92 799.873 686.636 800.052 687.582H802.263C802.104 685.454 800.442 684.054 798.045 684.054C795.168 684.054 793.353 686.131 793.353 689.129C793.353 692.102 795.124 694.192 798.058 694.192ZM808.446 694.192C811.323 694.192 813.151 692.165 813.151 689.129C813.151 686.087 811.323 684.054 808.446 684.054C805.57 684.054 803.742 686.087 803.742 689.129C803.742 692.165 805.57 694.192 808.446 694.192ZM808.459 692.338C806.867 692.338 806.088 690.919 806.088 689.123C806.088 687.327 806.867 685.888 808.459 685.888C810.025 685.888 810.805 687.327 810.805 689.123C810.805 690.919 810.025 692.338 808.459 692.338ZM818.758 694.173C820.446 694.173 821.206 693.169 821.571 692.453H821.711V694H823.987V680.909H821.667V685.805H821.571C821.219 685.096 820.497 684.054 818.765 684.054C816.495 684.054 814.712 685.831 814.712 689.104C814.712 692.338 816.444 694.173 818.758 694.173ZM819.404 692.274C817.876 692.274 817.071 690.932 817.071 689.091C817.071 687.263 817.863 685.952 819.404 685.952C820.893 685.952 821.711 687.186 821.711 689.091C821.711 690.996 820.88 692.274 819.404 692.274ZM830.799 694.192C833.088 694.192 834.66 693.073 835.069 691.366L832.909 691.124C832.595 691.955 831.828 692.389 830.831 692.389C829.335 692.389 828.345 691.405 828.325 689.724H835.165V689.014C835.165 685.569 833.094 684.054 830.678 684.054C827.865 684.054 826.031 686.119 826.031 689.148C826.031 692.229 827.84 694.192 830.799 694.192ZM828.332 688.164C828.402 686.911 829.329 685.857 830.71 685.857C832.039 685.857 832.934 686.828 832.947 688.164H828.332ZM847.845 689.871C847.845 691.366 846.778 692.108 845.755 692.108C844.643 692.108 843.901 691.322 843.901 690.075V684.182H841.587V690.433C841.587 692.792 842.93 694.128 844.86 694.128C846.33 694.128 847.366 693.354 847.813 692.255H847.915V694H850.159V684.182H847.845V689.871ZM852.539 697.682H854.852V692.453H854.948C855.313 693.169 856.073 694.173 857.761 694.173C860.075 694.173 861.807 692.338 861.807 689.104C861.807 685.831 860.024 684.054 857.754 684.054C856.022 684.054 855.3 685.096 854.948 685.805H854.814V684.182H852.539V697.682ZM854.808 689.091C854.808 687.186 855.626 685.952 857.115 685.952C858.656 685.952 859.448 687.263 859.448 689.091C859.448 690.932 858.643 692.274 857.115 692.274C855.639 692.274 854.808 690.996 854.808 689.091ZM867.432 694.173C869.119 694.173 869.88 693.169 870.244 692.453H870.385V694H872.661V680.909H870.34V685.805H870.244C869.893 685.096 869.171 684.054 867.438 684.054C865.169 684.054 863.386 685.831 863.386 689.104C863.386 692.338 865.118 694.173 867.432 694.173ZM868.078 692.274C866.55 692.274 865.744 690.932 865.744 689.091C865.744 687.263 866.537 685.952 868.078 685.952C869.567 685.952 870.385 687.186 870.385 689.091C870.385 690.996 869.554 692.274 868.078 692.274ZM877.952 694.198C879.492 694.198 880.413 693.476 880.835 692.651H880.911V694H883.136V687.429C883.136 684.834 881.02 684.054 879.147 684.054C877.082 684.054 875.497 684.974 874.986 686.764L877.146 687.071C877.376 686.4 878.028 685.825 879.16 685.825C880.234 685.825 880.822 686.374 880.822 687.339V687.378C880.822 688.043 880.125 688.075 878.393 688.26C876.488 688.464 874.666 689.033 874.666 691.245C874.666 693.175 876.079 694.198 877.952 694.198ZM878.553 692.498C877.587 692.498 876.897 692.057 876.897 691.207C876.897 690.318 877.67 689.947 878.706 689.8C879.313 689.717 880.528 689.564 880.828 689.321V690.478C880.828 691.571 879.946 692.498 878.553 692.498ZM890.365 684.182H888.428V681.83H886.114V684.182H884.721V685.972H886.114V691.43C886.102 693.278 887.444 694.185 889.183 694.134C889.841 694.115 890.295 693.987 890.544 693.904L890.154 692.095C890.026 692.127 889.764 692.185 889.477 692.185C888.895 692.185 888.428 691.98 888.428 691.047V685.972H890.365V684.182ZM896.541 694.192C898.83 694.192 900.402 693.073 900.811 691.366L898.651 691.124C898.338 691.955 897.57 692.389 896.573 692.389C895.078 692.389 894.087 691.405 894.068 689.724H900.907V689.014C900.907 685.569 898.836 684.054 896.42 684.054C893.607 684.054 891.773 686.119 891.773 689.148C891.773 692.229 893.582 694.192 896.541 694.192ZM894.074 688.164C894.144 686.911 895.071 685.857 896.452 685.857C897.781 685.857 898.676 686.828 898.689 688.164H894.074Z" fill="#FF6D74"/>
<rect x="705" y="654" width="22" height="22" rx="5" fill="#FF6D74"/>
</svg>
