<svg width="980" height="748" viewBox="0 0 980 748" fill="none" xmlns="http://www.w3.org/2000/svg">
<rect x="321" y="297" width="339" height="153" rx="5" fill="#9CA3AF"/>
<path d="M339.509 328V314.909H344.418C345.424 314.909 346.267 315.084 346.949 315.433C347.635 315.783 348.153 316.273 348.503 316.903C348.856 317.53 349.033 318.261 349.033 319.096C349.033 319.935 348.854 320.664 348.496 321.282C348.142 321.896 347.62 322.371 346.93 322.707C346.24 323.04 345.392 323.206 344.386 323.206H340.89V321.237H344.066C344.655 321.237 345.136 321.156 345.511 320.994C345.886 320.828 346.163 320.587 346.342 320.272C346.525 319.952 346.617 319.56 346.617 319.096C346.617 318.631 346.525 318.235 346.342 317.907C346.159 317.575 345.88 317.323 345.505 317.153C345.13 316.978 344.646 316.891 344.054 316.891H341.88V328H339.509ZM346.272 322.068L349.513 328H346.866L343.683 322.068H346.272ZM357.372 323.871V318.182H359.685V328H357.442V326.255H357.34C357.118 326.805 356.754 327.254 356.247 327.604C355.744 327.953 355.124 328.128 354.386 328.128C353.743 328.128 353.174 327.985 352.68 327.7C352.19 327.41 351.806 326.99 351.529 326.44C351.252 325.886 351.114 325.217 351.114 324.433V318.182H353.428V324.075C353.428 324.697 353.598 325.192 353.939 325.558C354.28 325.925 354.727 326.108 355.281 326.108C355.622 326.108 355.953 326.025 356.272 325.859C356.592 325.692 356.854 325.445 357.058 325.117C357.267 324.785 357.372 324.369 357.372 323.871ZM364.379 322.247V328H362.065V318.182H364.277V319.85H364.392C364.617 319.3 364.978 318.864 365.472 318.54C365.97 318.216 366.586 318.054 367.319 318.054C367.997 318.054 368.587 318.199 369.09 318.489C369.597 318.778 369.989 319.198 370.266 319.748C370.547 320.298 370.686 320.964 370.681 321.749V328H368.367V322.107C368.367 321.45 368.197 320.937 367.856 320.566C367.519 320.195 367.053 320.01 366.456 320.01C366.051 320.01 365.691 320.099 365.376 320.278C365.065 320.453 364.82 320.707 364.641 321.039C364.466 321.371 364.379 321.774 364.379 322.247ZM386.371 319.089C386.264 318.744 386.117 318.435 385.93 318.163C385.746 317.886 385.525 317.649 385.265 317.453C385.009 317.257 384.715 317.11 384.383 317.012C384.05 316.91 383.688 316.859 383.296 316.859C382.593 316.859 381.967 317.036 381.417 317.389C380.867 317.743 380.435 318.263 380.119 318.949C379.808 319.631 379.653 320.462 379.653 321.442C379.653 322.43 379.808 323.268 380.119 323.954C380.43 324.64 380.863 325.162 381.417 325.52C381.971 325.874 382.614 326.05 383.347 326.05C384.012 326.05 384.587 325.923 385.073 325.667C385.563 325.411 385.94 325.049 386.204 324.58C386.469 324.107 386.601 323.553 386.601 322.918L387.138 323.001H383.584V321.148H388.896V322.72C388.896 323.841 388.657 324.81 388.18 325.629C387.702 326.447 387.046 327.077 386.211 327.521C385.376 327.96 384.417 328.179 383.334 328.179C382.128 328.179 381.07 327.908 380.158 327.367C379.25 326.822 378.54 326.048 378.029 325.047C377.522 324.041 377.268 322.848 377.268 321.467C377.268 320.411 377.418 319.467 377.716 318.636C378.018 317.805 378.44 317.099 378.981 316.52C379.523 315.936 380.158 315.493 380.886 315.19C381.615 314.884 382.408 314.73 383.264 314.73C383.989 314.73 384.664 314.837 385.29 315.05C385.917 315.259 386.473 315.557 386.959 315.945C387.449 316.332 387.851 316.793 388.167 317.325C388.482 317.858 388.689 318.446 388.787 319.089H386.371ZM391.086 328V318.182H393.33V319.818H393.432C393.611 319.251 393.918 318.815 394.353 318.508C394.792 318.197 395.292 318.041 395.855 318.041C395.983 318.041 396.125 318.048 396.283 318.06C396.445 318.069 396.579 318.084 396.686 318.105V320.234C396.588 320.2 396.432 320.17 396.219 320.144C396.01 320.114 395.808 320.099 395.612 320.099C395.19 320.099 394.811 320.191 394.474 320.374C394.142 320.553 393.88 320.803 393.688 321.122C393.496 321.442 393.4 321.81 393.4 322.228V328H391.086ZM402.101 328.192C401.143 328.192 400.312 327.981 399.609 327.559C398.905 327.137 398.36 326.547 397.972 325.788C397.589 325.03 397.397 324.143 397.397 323.129C397.397 322.115 397.589 321.227 397.972 320.464C398.36 319.701 398.905 319.109 399.609 318.687C400.312 318.265 401.143 318.054 402.101 318.054C403.06 318.054 403.891 318.265 404.594 318.687C405.297 319.109 405.841 319.701 406.224 320.464C406.612 321.227 406.806 322.115 406.806 323.129C406.806 324.143 406.612 325.03 406.224 325.788C405.841 326.547 405.297 327.137 404.594 327.559C403.891 327.981 403.06 328.192 402.101 328.192ZM402.114 326.338C402.634 326.338 403.069 326.195 403.418 325.91C403.768 325.62 404.028 325.232 404.198 324.746C404.373 324.261 404.46 323.719 404.46 323.123C404.46 322.522 404.373 321.979 404.198 321.493C404.028 321.003 403.768 320.613 403.418 320.323C403.069 320.033 402.634 319.888 402.114 319.888C401.582 319.888 401.138 320.033 400.785 320.323C400.435 320.613 400.173 321.003 399.998 321.493C399.828 321.979 399.743 322.522 399.743 323.123C399.743 323.719 399.828 324.261 399.998 324.746C400.173 325.232 400.435 325.62 400.785 325.91C401.138 326.195 401.582 326.338 402.114 326.338ZM415.028 323.871V318.182H417.342V328H415.098V326.255H414.996C414.774 326.805 414.41 327.254 413.903 327.604C413.4 327.953 412.78 328.128 412.043 328.128C411.399 328.128 410.83 327.985 410.336 327.7C409.846 327.41 409.462 326.99 409.185 326.44C408.908 325.886 408.77 325.217 408.77 324.433V318.182H411.084V324.075C411.084 324.697 411.254 325.192 411.595 325.558C411.936 325.925 412.384 326.108 412.938 326.108C413.278 326.108 413.609 326.025 413.928 325.859C414.248 325.692 414.51 325.445 414.715 325.117C414.923 324.785 415.028 324.369 415.028 323.871ZM419.721 331.682V318.182H421.997V319.805H422.131C422.25 319.567 422.419 319.313 422.636 319.045C422.853 318.772 423.147 318.54 423.518 318.348C423.889 318.152 424.362 318.054 424.937 318.054C425.696 318.054 426.38 318.248 426.989 318.636C427.603 319.019 428.088 319.588 428.446 320.342C428.809 321.092 428.99 322.013 428.99 323.104C428.99 324.182 428.813 325.098 428.459 325.852C428.105 326.607 427.624 327.182 427.014 327.578C426.405 327.974 425.715 328.173 424.943 328.173C424.381 328.173 423.914 328.079 423.544 327.891C423.173 327.704 422.875 327.478 422.649 327.214C422.427 326.945 422.255 326.692 422.131 326.453H422.035V331.682H419.721ZM421.99 323.091C421.99 323.726 422.08 324.282 422.259 324.759C422.442 325.237 422.704 325.609 423.045 325.878C423.39 326.142 423.808 326.274 424.298 326.274C424.809 326.274 425.237 326.138 425.583 325.865C425.928 325.588 426.188 325.211 426.362 324.734C426.541 324.252 426.631 323.705 426.631 323.091C426.631 322.482 426.544 321.94 426.369 321.467C426.194 320.994 425.934 320.624 425.589 320.355C425.244 320.087 424.813 319.952 424.298 319.952C423.804 319.952 423.384 320.082 423.039 320.342C422.693 320.602 422.431 320.967 422.252 321.435C422.078 321.904 421.99 322.456 421.99 323.091Z" fill="white"/>
<path d="M418.395 407.92L410.511 404.086V402.052L418.395 398.218V400.036L413.013 402.61C412.773 402.718 412.545 402.814 412.329 402.898C412.113 402.97 411.951 403.018 411.843 403.042C411.963 403.066 412.131 403.114 412.347 403.186C412.575 403.258 412.797 403.348 413.013 403.456L418.395 406.048V407.92ZM425.948 409.18C425.132 409.18 424.484 408.958 424.004 408.514C423.524 408.058 423.284 407.44 423.284 406.66L423.698 407.11H423.284V409H421.358V395.86H423.302V398.686L423.248 400.99H423.698L423.284 401.44C423.284 400.66 423.524 400.048 424.004 399.604C424.496 399.148 425.144 398.92 425.948 398.92C426.944 398.92 427.742 399.256 428.342 399.928C428.942 400.6 429.242 401.512 429.242 402.664V405.454C429.242 406.594 428.942 407.5 428.342 408.172C427.742 408.844 426.944 409.18 425.948 409.18ZM425.282 407.488C425.918 407.488 426.416 407.308 426.776 406.948C427.136 406.576 427.316 406.042 427.316 405.346V402.754C427.316 402.058 427.136 401.53 426.776 401.17C426.416 400.798 425.918 400.612 425.282 400.612C424.67 400.612 424.184 400.804 423.824 401.188C423.476 401.56 423.302 402.082 423.302 402.754V405.346C423.302 406.018 423.476 406.546 423.824 406.93C424.184 407.302 424.67 407.488 425.282 407.488ZM436.021 409.18C434.833 409.18 433.885 408.838 433.177 408.154C432.469 407.458 432.115 406.516 432.115 405.328V399.1H434.059V405.328C434.059 406.012 434.233 406.546 434.581 406.93C434.929 407.302 435.409 407.488 436.021 407.488C436.645 407.488 437.131 407.302 437.479 406.93C437.839 406.546 438.019 406.012 438.019 405.328V399.1H439.963V405.328C439.963 406.516 439.603 407.458 438.883 408.154C438.175 408.838 437.221 409.18 436.021 409.18ZM442.89 409V407.236H446.364V400.864H443.34V399.1H448.254V407.236H451.44V409H442.89ZM447.12 397.39C446.7 397.39 446.364 397.282 446.112 397.066C445.86 396.838 445.734 396.538 445.734 396.166C445.734 395.782 445.86 395.482 446.112 395.266C446.364 395.038 446.7 394.924 447.12 394.924C447.54 394.924 447.876 395.038 448.128 395.266C448.38 395.482 448.506 395.782 448.506 396.166C448.506 396.538 448.38 396.838 448.128 397.066C447.876 397.282 447.54 397.39 447.12 397.39ZM459.047 409C458.435 409 457.901 408.88 457.445 408.64C456.989 408.388 456.629 408.034 456.365 407.578C456.113 407.122 455.987 406.594 455.987 405.994V397.624H452.747V395.86H457.931V405.994C457.931 406.378 458.039 406.684 458.255 406.912C458.471 407.128 458.765 407.236 459.137 407.236H462.197V409H459.047ZM467.716 409.18C466.72 409.18 465.922 408.844 465.322 408.172C464.722 407.5 464.422 406.594 464.422 405.454V402.664C464.422 401.512 464.722 400.6 465.322 399.928C465.922 399.256 466.72 398.92 467.716 398.92C468.532 398.92 469.18 399.148 469.66 399.604C470.14 400.048 470.38 400.66 470.38 401.44L469.966 400.99H470.416L470.362 398.686V395.86H472.306V409H470.38V407.11H469.966L470.38 406.66C470.38 407.44 470.14 408.058 469.66 408.514C469.18 408.958 468.532 409.18 467.716 409.18ZM468.382 407.488C468.994 407.488 469.474 407.302 469.822 406.93C470.182 406.546 470.362 406.018 470.362 405.346V402.754C470.362 402.082 470.182 401.56 469.822 401.188C469.474 400.804 468.994 400.612 468.382 400.612C467.746 400.612 467.248 400.798 466.888 401.17C466.528 401.53 466.348 402.058 466.348 402.754V405.346C466.348 406.042 466.528 406.576 466.888 406.948C467.248 407.308 467.746 407.488 468.382 407.488ZM490.076 409.18C489.26 409.18 488.54 409.03 487.916 408.73C487.304 408.418 486.83 407.974 486.494 407.398C486.17 406.81 486.008 406.126 486.008 405.346V402.754C486.008 401.962 486.17 401.278 486.494 400.702C486.83 400.126 487.304 399.688 487.916 399.388C488.54 399.076 489.26 398.92 490.076 398.92C491.264 398.92 492.218 399.232 492.938 399.856C493.658 400.48 494.036 401.332 494.072 402.412H492.128C492.092 401.848 491.894 401.41 491.534 401.098C491.174 400.786 490.688 400.63 490.076 400.63C489.416 400.63 488.894 400.816 488.51 401.188C488.126 401.548 487.934 402.064 487.934 402.736V405.346C487.934 406.018 488.126 406.54 488.51 406.912C488.894 407.284 489.416 407.47 490.076 407.47C490.688 407.47 491.174 407.314 491.534 407.002C491.894 406.69 492.092 406.252 492.128 405.688H494.072C494.036 406.768 493.658 407.62 492.938 408.244C492.218 408.868 491.264 409.18 490.076 409.18ZM500.796 409.162C499.98 409.162 499.272 409.006 498.672 408.694C498.072 408.382 497.61 407.938 497.286 407.362C496.962 406.786 496.8 406.108 496.8 405.328V402.772C496.8 401.98 496.962 401.302 497.286 400.738C497.61 400.162 498.072 399.718 498.672 399.406C499.272 399.094 499.98 398.938 500.796 398.938C501.612 398.938 502.32 399.094 502.92 399.406C503.52 399.718 503.982 400.162 504.306 400.738C504.63 401.302 504.792 401.98 504.792 402.772V405.328C504.792 406.108 504.63 406.786 504.306 407.362C503.982 407.938 503.52 408.382 502.92 408.694C502.32 409.006 501.612 409.162 500.796 409.162ZM500.796 407.452C501.456 407.452 501.966 407.272 502.326 406.912C502.686 406.54 502.866 406.012 502.866 405.328V402.772C502.866 402.076 502.686 401.548 502.326 401.188C501.966 400.828 501.456 400.648 500.796 400.648C500.148 400.648 499.638 400.828 499.266 401.188C498.906 401.548 498.726 402.076 498.726 402.772V405.328C498.726 406.012 498.906 406.54 499.266 406.912C499.638 407.272 500.148 407.452 500.796 407.452ZM507.251 409V399.1H508.871V400.36H509.231L508.961 400.738C508.961 400.186 509.111 399.748 509.411 399.424C509.711 399.088 510.113 398.92 510.617 398.92C511.157 398.92 511.571 399.13 511.859 399.55C512.159 399.97 512.309 400.546 512.309 401.278L511.877 400.36H512.561L512.273 400.738C512.273 400.186 512.423 399.748 512.723 399.424C513.035 399.088 513.449 398.92 513.965 398.92C514.577 398.92 515.057 399.154 515.405 399.622C515.753 400.078 515.927 400.69 515.927 401.458V409H514.199V401.512C514.199 401.14 514.115 400.852 513.947 400.648C513.791 400.444 513.563 400.342 513.263 400.342C512.963 400.342 512.729 400.444 512.561 400.648C512.405 400.84 512.327 401.122 512.327 401.494V409H510.869V401.512C510.869 401.128 510.785 400.84 510.617 400.648C510.449 400.444 510.209 400.342 509.897 400.342C509.597 400.342 509.369 400.444 509.213 400.648C509.069 400.84 508.997 401.122 508.997 401.494V409H507.251ZM518.044 409V399.1H519.664V400.36H520.024L519.754 400.738C519.754 400.186 519.904 399.748 520.204 399.424C520.504 399.088 520.906 398.92 521.41 398.92C521.95 398.92 522.364 399.13 522.652 399.55C522.952 399.97 523.102 400.546 523.102 401.278L522.67 400.36H523.354L523.066 400.738C523.066 400.186 523.216 399.748 523.516 399.424C523.828 399.088 524.242 398.92 524.758 398.92C525.37 398.92 525.85 399.154 526.198 399.622C526.546 400.078 526.72 400.69 526.72 401.458V409H524.992V401.512C524.992 401.14 524.908 400.852 524.74 400.648C524.584 400.444 524.356 400.342 524.056 400.342C523.756 400.342 523.522 400.444 523.354 400.648C523.198 400.84 523.12 401.122 523.12 401.494V409H521.662V401.512C521.662 401.128 521.578 400.84 521.41 400.648C521.242 400.444 521.002 400.342 520.69 400.342C520.39 400.342 520.162 400.444 520.006 400.648C519.862 400.84 519.79 401.122 519.79 401.494V409H518.044ZM532.185 409.18C531.153 409.18 530.337 408.916 529.737 408.388C529.149 407.848 528.855 407.116 528.855 406.192C528.855 405.256 529.167 404.524 529.791 403.996C530.427 403.456 531.297 403.186 532.401 403.186H535.155V402.268C535.155 401.728 534.987 401.308 534.651 401.008C534.315 400.708 533.841 400.558 533.229 400.558C532.689 400.558 532.239 400.678 531.879 400.918C531.519 401.146 531.309 401.452 531.249 401.836H529.341C529.449 400.948 529.857 400.24 530.565 399.712C531.285 399.184 532.191 398.92 533.283 398.92C534.459 398.92 535.389 399.22 536.073 399.82C536.757 400.408 537.099 401.212 537.099 402.232V409H535.209V407.182H534.885L535.209 406.822C535.209 407.542 534.933 408.118 534.381 408.55C533.829 408.97 533.097 409.18 532.185 409.18ZM532.761 407.686C533.457 407.686 534.027 407.512 534.471 407.164C534.927 406.804 535.155 406.348 535.155 405.796V404.5H532.437C531.933 404.5 531.531 404.638 531.231 404.914C530.943 405.19 530.799 405.568 530.799 406.048C530.799 406.552 530.973 406.954 531.321 407.254C531.669 407.542 532.149 407.686 532.761 407.686ZM540.08 409V399.1H542.006V400.99H542.474L542.006 401.44C542.006 400.648 542.24 400.03 542.708 399.586C543.176 399.142 543.824 398.92 544.652 398.92C545.636 398.92 546.422 399.238 547.01 399.874C547.598 400.498 547.892 401.344 547.892 402.412V409H545.948V402.628C545.948 401.98 545.774 401.482 545.426 401.134C545.078 400.786 544.604 400.612 544.004 400.612C543.392 400.612 542.906 400.798 542.546 401.17C542.198 401.53 542.024 402.058 542.024 402.754V409H540.08ZM554.059 409.18C553.063 409.18 552.265 408.844 551.665 408.172C551.065 407.5 550.765 406.594 550.765 405.454V402.664C550.765 401.512 551.065 400.6 551.665 399.928C552.265 399.256 553.063 398.92 554.059 398.92C554.875 398.92 555.523 399.148 556.003 399.604C556.483 400.048 556.723 400.66 556.723 401.44L556.309 400.99H556.759L556.705 398.686V395.86H558.649V409H556.723V407.11H556.309L556.723 406.66C556.723 407.44 556.483 408.058 556.003 408.514C555.523 408.958 554.875 409.18 554.059 409.18ZM554.725 407.488C555.337 407.488 555.817 407.302 556.165 406.93C556.525 406.546 556.705 406.018 556.705 405.346V402.754C556.705 402.082 556.525 401.56 556.165 401.188C555.817 400.804 555.337 400.612 554.725 400.612C554.089 400.612 553.591 400.798 553.231 401.17C552.871 401.53 552.691 402.058 552.691 402.754V405.346C552.691 406.042 552.871 406.576 553.231 406.948C553.591 407.308 554.089 407.488 554.725 407.488ZM561.612 407.92V406.084L566.994 403.51C567.234 403.402 567.462 403.312 567.678 403.24C567.894 403.168 568.056 403.12 568.164 403.096C568.044 403.072 567.87 403.024 567.642 402.952C567.426 402.868 567.21 402.772 566.994 402.664L561.612 400.09V398.218L569.496 402.052V404.086L561.612 407.92Z" fill="white"/>
<rect x="745" y="204" width="212" height="61" rx="5" fill="#727C8D"/>
<path d="M784.946 240L787.55 229.78H789.538L792.142 240H790.616L790 237.41H787.102L786.486 240H784.946ZM787.382 236.164H789.706L789.006 233.21C788.884 232.687 788.782 232.235 788.698 231.852C788.623 231.46 788.572 231.194 788.544 231.054C788.516 231.194 788.464 231.46 788.39 231.852C788.315 232.235 788.212 232.683 788.082 233.196L787.382 236.164ZM794.922 242.52V241.218H797.288C797.68 241.218 797.97 241.125 798.156 240.938C798.352 240.751 798.45 240.476 798.45 240.112V239.342L798.478 237.914H798.156L798.464 237.634C798.464 238.222 798.278 238.684 797.904 239.02C797.54 239.356 797.046 239.524 796.42 239.524C795.627 239.524 795.002 239.263 794.544 238.74C794.087 238.217 793.858 237.513 793.858 236.626V235.058C793.858 234.171 794.087 233.467 794.544 232.944C795.002 232.421 795.627 232.16 796.42 232.16C797.046 232.16 797.54 232.333 797.904 232.678C798.278 233.014 798.464 233.476 798.464 234.064L798.156 233.77H798.464L798.45 232.3H799.948V240.14C799.948 240.877 799.715 241.456 799.248 241.876C798.782 242.305 798.133 242.52 797.302 242.52H794.922ZM796.91 238.222C797.386 238.222 797.76 238.077 798.03 237.788C798.31 237.489 798.45 237.079 798.45 236.556V235.142C798.45 234.619 798.31 234.213 798.03 233.924C797.76 233.625 797.386 233.476 796.91 233.476C796.416 233.476 796.033 233.621 795.762 233.91C795.501 234.19 795.37 234.601 795.37 235.142V236.556C795.37 237.088 795.501 237.499 795.762 237.788C796.033 238.077 796.416 238.222 796.91 238.222ZM805.333 240.14C804.707 240.14 804.157 240.019 803.681 239.776C803.214 239.524 802.855 239.174 802.603 238.726C802.351 238.278 802.225 237.755 802.225 237.158V235.142C802.225 234.535 802.351 234.013 802.603 233.574C802.855 233.126 803.214 232.781 803.681 232.538C804.157 232.286 804.707 232.16 805.333 232.16C805.967 232.16 806.518 232.286 806.985 232.538C807.451 232.781 807.811 233.126 808.063 233.574C808.315 234.013 808.441 234.535 808.441 235.142V236.514H803.681V237.158C803.681 237.727 803.821 238.161 804.101 238.46C804.39 238.759 804.805 238.908 805.347 238.908C805.785 238.908 806.14 238.833 806.411 238.684C806.681 238.525 806.849 238.297 806.915 237.998H808.413C808.301 238.651 807.965 239.174 807.405 239.566C806.845 239.949 806.154 240.14 805.333 240.14ZM806.985 235.604V235.128C806.985 234.568 806.845 234.134 806.565 233.826C806.285 233.518 805.874 233.364 805.333 233.364C804.801 233.364 804.39 233.518 804.101 233.826C803.821 234.134 803.681 234.573 803.681 235.142V235.492L807.097 235.478L806.985 235.604ZM810.703 240V232.3H812.201V233.77H812.565L812.201 234.12C812.201 233.504 812.383 233.023 812.747 232.678C813.111 232.333 813.615 232.16 814.259 232.16C815.025 232.16 815.636 232.407 816.093 232.902C816.551 233.387 816.779 234.045 816.779 234.876V240H815.267V235.044C815.267 234.54 815.132 234.153 814.861 233.882C814.591 233.611 814.222 233.476 813.755 233.476C813.279 233.476 812.901 233.621 812.621 233.91C812.351 234.19 812.215 234.601 812.215 235.142V240H810.703ZM822.962 240C822.262 240 821.716 239.809 821.324 239.426C820.932 239.043 820.736 238.511 820.736 237.83V233.672H818.608V232.3H820.736V230.13H822.248V232.3H825.258V233.672H822.248V237.83C822.248 238.362 822.505 238.628 823.018 238.628H825.118V240H822.962ZM840.311 240V237.872H835.733V235.604L839.709 229.78H841.389L837.189 235.968V236.514H840.311V234.12H841.809V240H840.311ZM854.944 241.54V228.38H856.456V241.54H854.944ZM873.329 240C872.629 240 872.083 239.809 871.691 239.426C871.299 239.043 871.103 238.511 871.103 237.83V233.672H868.975V232.3H871.103V230.13H872.615V232.3H875.625V233.672H872.615V237.83C872.615 238.362 872.872 238.628 873.385 238.628H875.485V240H873.329ZM880.114 240.14C879.311 240.14 878.676 239.935 878.21 239.524C877.752 239.104 877.524 238.535 877.524 237.816C877.524 237.088 877.766 236.519 878.252 236.108C878.746 235.688 879.423 235.478 880.282 235.478H882.424V234.764C882.424 234.344 882.293 234.017 882.032 233.784C881.77 233.551 881.402 233.434 880.926 233.434C880.506 233.434 880.156 233.527 879.876 233.714C879.596 233.891 879.432 234.129 879.386 234.428H877.902C877.986 233.737 878.303 233.187 878.854 232.776C879.414 232.365 880.118 232.16 880.968 232.16C881.882 232.16 882.606 232.393 883.138 232.86C883.67 233.317 883.936 233.943 883.936 234.736V240H882.466V238.586H882.214L882.466 238.306C882.466 238.866 882.251 239.314 881.822 239.65C881.392 239.977 880.823 240.14 880.114 240.14ZM880.562 238.978C881.103 238.978 881.546 238.843 881.892 238.572C882.246 238.292 882.424 237.937 882.424 237.508V236.5H880.31C879.918 236.5 879.605 236.607 879.372 236.822C879.148 237.037 879.036 237.331 879.036 237.704C879.036 238.096 879.171 238.409 879.442 238.642C879.712 238.866 880.086 238.978 880.562 238.978ZM889.012 240.126C888.461 240.126 887.976 240.037 887.556 239.86C887.145 239.683 886.819 239.44 886.576 239.132C886.343 238.815 886.207 238.441 886.17 238.012H887.682C887.719 238.264 887.855 238.469 888.088 238.628C888.321 238.777 888.629 238.852 889.012 238.852H889.614C890.071 238.852 890.417 238.759 890.65 238.572C890.883 238.385 891 238.138 891 237.83C891 237.531 890.893 237.298 890.678 237.13C890.473 236.953 890.165 236.836 889.754 236.78L888.76 236.626C887.939 236.495 887.332 236.262 886.94 235.926C886.557 235.581 886.366 235.072 886.366 234.4C886.366 233.691 886.595 233.145 887.052 232.762C887.519 232.37 888.205 232.174 889.11 232.174H889.642C890.445 232.174 891.084 232.361 891.56 232.734C892.045 233.098 892.321 233.588 892.386 234.204H890.874C890.837 233.98 890.711 233.798 890.496 233.658C890.291 233.518 890.006 233.448 889.642 233.448H889.11C888.671 233.448 888.349 233.532 888.144 233.7C887.948 233.859 887.85 234.097 887.85 234.414C887.85 234.694 887.939 234.904 888.116 235.044C888.293 235.184 888.569 235.282 888.942 235.338L889.964 235.506C890.832 235.627 891.467 235.87 891.868 236.234C892.279 236.589 892.484 237.107 892.484 237.788C892.484 238.525 892.241 239.099 891.756 239.51C891.28 239.921 890.566 240.126 889.614 240.126H889.012ZM894.691 240V229.78H896.203V235.394H897.561L899.605 232.3H901.313L898.863 235.996L901.355 240H899.619L897.561 236.696H896.203V240H894.691ZM911.368 240L911.858 237.326H910.696V236.276H912.04L912.53 233.504H911.158V232.454H912.726L913.202 229.78H914.336L913.846 232.454H915.946L916.422 229.78H917.556L917.066 232.454H918.228V233.504H916.884L916.394 236.276H917.766V237.326H916.198L915.722 240H914.588L915.078 237.326H912.978L912.502 240H911.368ZM913.174 236.276H915.26L915.75 233.504H913.664L913.174 236.276Z" fill="white"/>
<rect x="745" y="343" width="212" height="61" rx="5" fill="#727C8D"/>
<path d="M784.946 379L787.55 368.78H789.538L792.142 379H790.616L790 376.41H787.102L786.486 379H784.946ZM787.382 375.164H789.706L789.006 372.21C788.884 371.687 788.782 371.235 788.698 370.852C788.623 370.46 788.572 370.194 788.544 370.054C788.516 370.194 788.464 370.46 788.39 370.852C788.315 371.235 788.212 371.683 788.082 372.196L787.382 375.164ZM794.922 381.52V380.218H797.288C797.68 380.218 797.97 380.125 798.156 379.938C798.352 379.751 798.45 379.476 798.45 379.112V378.342L798.478 376.914H798.156L798.464 376.634C798.464 377.222 798.278 377.684 797.904 378.02C797.54 378.356 797.046 378.524 796.42 378.524C795.627 378.524 795.002 378.263 794.544 377.74C794.087 377.217 793.858 376.513 793.858 375.626V374.058C793.858 373.171 794.087 372.467 794.544 371.944C795.002 371.421 795.627 371.16 796.42 371.16C797.046 371.16 797.54 371.333 797.904 371.678C798.278 372.014 798.464 372.476 798.464 373.064L798.156 372.77H798.464L798.45 371.3H799.948V379.14C799.948 379.877 799.715 380.456 799.248 380.876C798.782 381.305 798.133 381.52 797.302 381.52H794.922ZM796.91 377.222C797.386 377.222 797.76 377.077 798.03 376.788C798.31 376.489 798.45 376.079 798.45 375.556V374.142C798.45 373.619 798.31 373.213 798.03 372.924C797.76 372.625 797.386 372.476 796.91 372.476C796.416 372.476 796.033 372.621 795.762 372.91C795.501 373.19 795.37 373.601 795.37 374.142V375.556C795.37 376.088 795.501 376.499 795.762 376.788C796.033 377.077 796.416 377.222 796.91 377.222ZM805.333 379.14C804.707 379.14 804.157 379.019 803.681 378.776C803.214 378.524 802.855 378.174 802.603 377.726C802.351 377.278 802.225 376.755 802.225 376.158V374.142C802.225 373.535 802.351 373.013 802.603 372.574C802.855 372.126 803.214 371.781 803.681 371.538C804.157 371.286 804.707 371.16 805.333 371.16C805.967 371.16 806.518 371.286 806.985 371.538C807.451 371.781 807.811 372.126 808.063 372.574C808.315 373.013 808.441 373.535 808.441 374.142V375.514H803.681V376.158C803.681 376.727 803.821 377.161 804.101 377.46C804.39 377.759 804.805 377.908 805.347 377.908C805.785 377.908 806.14 377.833 806.411 377.684C806.681 377.525 806.849 377.297 806.915 376.998H808.413C808.301 377.651 807.965 378.174 807.405 378.566C806.845 378.949 806.154 379.14 805.333 379.14ZM806.985 374.604V374.128C806.985 373.568 806.845 373.134 806.565 372.826C806.285 372.518 805.874 372.364 805.333 372.364C804.801 372.364 804.39 372.518 804.101 372.826C803.821 373.134 803.681 373.573 803.681 374.142V374.492L807.097 374.478L806.985 374.604ZM810.703 379V371.3H812.201V372.77H812.565L812.201 373.12C812.201 372.504 812.383 372.023 812.747 371.678C813.111 371.333 813.615 371.16 814.259 371.16C815.025 371.16 815.636 371.407 816.093 371.902C816.551 372.387 816.779 373.045 816.779 373.876V379H815.267V374.044C815.267 373.54 815.132 373.153 814.861 372.882C814.591 372.611 814.222 372.476 813.755 372.476C813.279 372.476 812.901 372.621 812.621 372.91C812.351 373.19 812.215 373.601 812.215 374.142V379H810.703ZM822.962 379C822.262 379 821.716 378.809 821.324 378.426C820.932 378.043 820.736 377.511 820.736 376.83V372.672H818.608V371.3H820.736V369.13H822.248V371.3H825.258V372.672H822.248V376.83C822.248 377.362 822.505 377.628 823.018 377.628H825.118V379H822.962ZM838.883 379.14C837.996 379.14 837.278 378.916 836.727 378.468C836.176 378.011 835.868 377.399 835.803 376.634H837.301C837.348 377.007 837.506 377.297 837.777 377.502C838.048 377.707 838.421 377.81 838.897 377.81C839.429 377.81 839.83 377.67 840.101 377.39C840.381 377.101 840.521 376.699 840.521 376.186V375.192C840.521 374.669 840.386 374.268 840.115 373.988C839.844 373.699 839.443 373.554 838.911 373.554C838.575 373.554 838.286 373.633 838.043 373.792C837.8 373.941 837.623 374.151 837.511 374.422H836.013L836.083 368.78H841.655V370.152H837.525L837.497 373.33H837.889L837.483 373.694C837.483 373.255 837.656 372.91 838.001 372.658C838.346 372.406 838.808 372.28 839.387 372.28C840.218 372.28 840.862 372.537 841.319 373.05C841.786 373.554 842.019 374.268 842.019 375.192V376.186C842.019 377.091 841.744 377.81 841.193 378.342C840.642 378.874 839.872 379.14 838.883 379.14ZM854.944 380.54V367.38H856.456V380.54H854.944ZM873.329 379C872.629 379 872.083 378.809 871.691 378.426C871.299 378.043 871.103 377.511 871.103 376.83V372.672H868.975V371.3H871.103V369.13H872.615V371.3H875.625V372.672H872.615V376.83C872.615 377.362 872.872 377.628 873.385 377.628H875.485V379H873.329ZM880.114 379.14C879.311 379.14 878.676 378.935 878.21 378.524C877.752 378.104 877.524 377.535 877.524 376.816C877.524 376.088 877.766 375.519 878.252 375.108C878.746 374.688 879.423 374.478 880.282 374.478H882.424V373.764C882.424 373.344 882.293 373.017 882.032 372.784C881.77 372.551 881.402 372.434 880.926 372.434C880.506 372.434 880.156 372.527 879.876 372.714C879.596 372.891 879.432 373.129 879.386 373.428H877.902C877.986 372.737 878.303 372.187 878.854 371.776C879.414 371.365 880.118 371.16 880.968 371.16C881.882 371.16 882.606 371.393 883.138 371.86C883.67 372.317 883.936 372.943 883.936 373.736V379H882.466V377.586H882.214L882.466 377.306C882.466 377.866 882.251 378.314 881.822 378.65C881.392 378.977 880.823 379.14 880.114 379.14ZM880.562 377.978C881.103 377.978 881.546 377.843 881.892 377.572C882.246 377.292 882.424 376.937 882.424 376.508V375.5H880.31C879.918 375.5 879.605 375.607 879.372 375.822C879.148 376.037 879.036 376.331 879.036 376.704C879.036 377.096 879.171 377.409 879.442 377.642C879.712 377.866 880.086 377.978 880.562 377.978ZM889.012 379.126C888.461 379.126 887.976 379.037 887.556 378.86C887.145 378.683 886.819 378.44 886.576 378.132C886.343 377.815 886.207 377.441 886.17 377.012H887.682C887.719 377.264 887.855 377.469 888.088 377.628C888.321 377.777 888.629 377.852 889.012 377.852H889.614C890.071 377.852 890.417 377.759 890.65 377.572C890.883 377.385 891 377.138 891 376.83C891 376.531 890.893 376.298 890.678 376.13C890.473 375.953 890.165 375.836 889.754 375.78L888.76 375.626C887.939 375.495 887.332 375.262 886.94 374.926C886.557 374.581 886.366 374.072 886.366 373.4C886.366 372.691 886.595 372.145 887.052 371.762C887.519 371.37 888.205 371.174 889.11 371.174H889.642C890.445 371.174 891.084 371.361 891.56 371.734C892.045 372.098 892.321 372.588 892.386 373.204H890.874C890.837 372.98 890.711 372.798 890.496 372.658C890.291 372.518 890.006 372.448 889.642 372.448H889.11C888.671 372.448 888.349 372.532 888.144 372.7C887.948 372.859 887.85 373.097 887.85 373.414C887.85 373.694 887.939 373.904 888.116 374.044C888.293 374.184 888.569 374.282 888.942 374.338L889.964 374.506C890.832 374.627 891.467 374.87 891.868 375.234C892.279 375.589 892.484 376.107 892.484 376.788C892.484 377.525 892.241 378.099 891.756 378.51C891.28 378.921 890.566 379.126 889.614 379.126H889.012ZM894.691 379V368.78H896.203V374.394H897.561L899.605 371.3H901.313L898.863 374.996L901.355 379H899.619L897.561 375.696H896.203V379H894.691ZM911.368 379L911.858 376.326H910.696V375.276H912.04L912.53 372.504H911.158V371.454H912.726L913.202 368.78H914.336L913.846 371.454H915.946L916.422 368.78H917.556L917.066 371.454H918.228V372.504H916.884L916.394 375.276H917.766V376.326H916.198L915.722 379H914.588L915.078 376.326H912.978L912.502 379H911.368ZM913.174 375.276H915.26L915.75 372.504H913.664L913.174 375.276Z" fill="white"/>
<circle cx="938.5" cy="373.5" r="6.5" fill="#FCCC6B"/>
<rect x="745" y="482" width="212" height="61" rx="5" fill="#727C8D"/>
<path d="M784.946 518L787.55 507.78H789.538L792.142 518H790.616L790 515.41H787.102L786.486 518H784.946ZM787.382 514.164H789.706L789.006 511.21C788.884 510.687 788.782 510.235 788.698 509.852C788.623 509.46 788.572 509.194 788.544 509.054C788.516 509.194 788.464 509.46 788.39 509.852C788.315 510.235 788.212 510.683 788.082 511.196L787.382 514.164ZM794.922 520.52V519.218H797.288C797.68 519.218 797.97 519.125 798.156 518.938C798.352 518.751 798.45 518.476 798.45 518.112V517.342L798.478 515.914H798.156L798.464 515.634C798.464 516.222 798.278 516.684 797.904 517.02C797.54 517.356 797.046 517.524 796.42 517.524C795.627 517.524 795.002 517.263 794.544 516.74C794.087 516.217 793.858 515.513 793.858 514.626V513.058C793.858 512.171 794.087 511.467 794.544 510.944C795.002 510.421 795.627 510.16 796.42 510.16C797.046 510.16 797.54 510.333 797.904 510.678C798.278 511.014 798.464 511.476 798.464 512.064L798.156 511.77H798.464L798.45 510.3H799.948V518.14C799.948 518.877 799.715 519.456 799.248 519.876C798.782 520.305 798.133 520.52 797.302 520.52H794.922ZM796.91 516.222C797.386 516.222 797.76 516.077 798.03 515.788C798.31 515.489 798.45 515.079 798.45 514.556V513.142C798.45 512.619 798.31 512.213 798.03 511.924C797.76 511.625 797.386 511.476 796.91 511.476C796.416 511.476 796.033 511.621 795.762 511.91C795.501 512.19 795.37 512.601 795.37 513.142V514.556C795.37 515.088 795.501 515.499 795.762 515.788C796.033 516.077 796.416 516.222 796.91 516.222ZM805.333 518.14C804.707 518.14 804.157 518.019 803.681 517.776C803.214 517.524 802.855 517.174 802.603 516.726C802.351 516.278 802.225 515.755 802.225 515.158V513.142C802.225 512.535 802.351 512.013 802.603 511.574C802.855 511.126 803.214 510.781 803.681 510.538C804.157 510.286 804.707 510.16 805.333 510.16C805.967 510.16 806.518 510.286 806.985 510.538C807.451 510.781 807.811 511.126 808.063 511.574C808.315 512.013 808.441 512.535 808.441 513.142V514.514H803.681V515.158C803.681 515.727 803.821 516.161 804.101 516.46C804.39 516.759 804.805 516.908 805.347 516.908C805.785 516.908 806.14 516.833 806.411 516.684C806.681 516.525 806.849 516.297 806.915 515.998H808.413C808.301 516.651 807.965 517.174 807.405 517.566C806.845 517.949 806.154 518.14 805.333 518.14ZM806.985 513.604V513.128C806.985 512.568 806.845 512.134 806.565 511.826C806.285 511.518 805.874 511.364 805.333 511.364C804.801 511.364 804.39 511.518 804.101 511.826C803.821 512.134 803.681 512.573 803.681 513.142V513.492L807.097 513.478L806.985 513.604ZM810.703 518V510.3H812.201V511.77H812.565L812.201 512.12C812.201 511.504 812.383 511.023 812.747 510.678C813.111 510.333 813.615 510.16 814.259 510.16C815.025 510.16 815.636 510.407 816.093 510.902C816.551 511.387 816.779 512.045 816.779 512.876V518H815.267V513.044C815.267 512.54 815.132 512.153 814.861 511.882C814.591 511.611 814.222 511.476 813.755 511.476C813.279 511.476 812.901 511.621 812.621 511.91C812.351 512.19 812.215 512.601 812.215 513.142V518H810.703ZM822.962 518C822.262 518 821.716 517.809 821.324 517.426C820.932 517.043 820.736 516.511 820.736 515.83V511.672H818.608V510.3H820.736V508.13H822.248V510.3H825.258V511.672H822.248V515.83C822.248 516.362 822.505 516.628 823.018 516.628H825.118V518H822.962ZM838.925 518.14C838.253 518.14 837.665 518 837.161 517.72C836.657 517.44 836.265 517.048 835.985 516.544C835.705 516.031 835.565 515.443 835.565 514.78C835.565 514.276 835.64 513.772 835.789 513.268C835.948 512.755 836.172 512.265 836.461 511.798L838.953 507.78H840.633L837.665 512.484L837.735 512.526C837.922 512.255 838.169 512.05 838.477 511.91C838.794 511.761 839.144 511.686 839.527 511.686C840.078 511.686 840.558 511.817 840.969 512.078C841.38 512.339 841.697 512.708 841.921 513.184C842.145 513.651 842.257 514.206 842.257 514.85C842.257 515.503 842.117 516.077 841.837 516.572C841.557 517.067 841.17 517.454 840.675 517.734C840.18 518.005 839.597 518.14 838.925 518.14ZM838.911 516.838C839.471 516.838 839.919 516.656 840.255 516.292C840.591 515.928 840.759 515.447 840.759 514.85C840.759 514.253 840.591 513.772 840.255 513.408C839.919 513.044 839.471 512.862 838.911 512.862C838.351 512.862 837.903 513.044 837.567 513.408C837.231 513.772 837.063 514.253 837.063 514.85C837.063 515.447 837.231 515.928 837.567 516.292C837.903 516.656 838.351 516.838 838.911 516.838ZM854.944 519.54V506.38H856.456V519.54H854.944ZM873.329 518C872.629 518 872.083 517.809 871.691 517.426C871.299 517.043 871.103 516.511 871.103 515.83V511.672H868.975V510.3H871.103V508.13H872.615V510.3H875.625V511.672H872.615V515.83C872.615 516.362 872.872 516.628 873.385 516.628H875.485V518H873.329ZM880.114 518.14C879.311 518.14 878.676 517.935 878.21 517.524C877.752 517.104 877.524 516.535 877.524 515.816C877.524 515.088 877.766 514.519 878.252 514.108C878.746 513.688 879.423 513.478 880.282 513.478H882.424V512.764C882.424 512.344 882.293 512.017 882.032 511.784C881.77 511.551 881.402 511.434 880.926 511.434C880.506 511.434 880.156 511.527 879.876 511.714C879.596 511.891 879.432 512.129 879.386 512.428H877.902C877.986 511.737 878.303 511.187 878.854 510.776C879.414 510.365 880.118 510.16 880.968 510.16C881.882 510.16 882.606 510.393 883.138 510.86C883.67 511.317 883.936 511.943 883.936 512.736V518H882.466V516.586H882.214L882.466 516.306C882.466 516.866 882.251 517.314 881.822 517.65C881.392 517.977 880.823 518.14 880.114 518.14ZM880.562 516.978C881.103 516.978 881.546 516.843 881.892 516.572C882.246 516.292 882.424 515.937 882.424 515.508V514.5H880.31C879.918 514.5 879.605 514.607 879.372 514.822C879.148 515.037 879.036 515.331 879.036 515.704C879.036 516.096 879.171 516.409 879.442 516.642C879.712 516.866 880.086 516.978 880.562 516.978ZM889.012 518.126C888.461 518.126 887.976 518.037 887.556 517.86C887.145 517.683 886.819 517.44 886.576 517.132C886.343 516.815 886.207 516.441 886.17 516.012H887.682C887.719 516.264 887.855 516.469 888.088 516.628C888.321 516.777 888.629 516.852 889.012 516.852H889.614C890.071 516.852 890.417 516.759 890.65 516.572C890.883 516.385 891 516.138 891 515.83C891 515.531 890.893 515.298 890.678 515.13C890.473 514.953 890.165 514.836 889.754 514.78L888.76 514.626C887.939 514.495 887.332 514.262 886.94 513.926C886.557 513.581 886.366 513.072 886.366 512.4C886.366 511.691 886.595 511.145 887.052 510.762C887.519 510.37 888.205 510.174 889.11 510.174H889.642C890.445 510.174 891.084 510.361 891.56 510.734C892.045 511.098 892.321 511.588 892.386 512.204H890.874C890.837 511.98 890.711 511.798 890.496 511.658C890.291 511.518 890.006 511.448 889.642 511.448H889.11C888.671 511.448 888.349 511.532 888.144 511.7C887.948 511.859 887.85 512.097 887.85 512.414C887.85 512.694 887.939 512.904 888.116 513.044C888.293 513.184 888.569 513.282 888.942 513.338L889.964 513.506C890.832 513.627 891.467 513.87 891.868 514.234C892.279 514.589 892.484 515.107 892.484 515.788C892.484 516.525 892.241 517.099 891.756 517.51C891.28 517.921 890.566 518.126 889.614 518.126H889.012ZM894.691 518V507.78H896.203V513.394H897.561L899.605 510.3H901.313L898.863 513.996L901.355 518H899.619L897.561 514.696H896.203V518H894.691ZM911.368 518L911.858 515.326H910.696V514.276H912.04L912.53 511.504H911.158V510.454H912.726L913.202 507.78H914.336L913.846 510.454H915.946L916.422 507.78H917.556L917.066 510.454H918.228V511.504H916.884L916.394 514.276H917.766V515.326H916.198L915.722 518H914.588L915.078 515.326H912.978L912.502 518H911.368ZM913.174 514.276H915.26L915.75 511.504H913.664L913.174 514.276Z" fill="white"/>
<circle cx="938.5" cy="512.5" r="6.5" fill="#FCCC6B"/>
<circle cx="938.5" cy="234.5" r="6.5" fill="#FCCC6B"/>
<rect x="24" y="204" width="212" height="61" rx="5" fill="#727C8D"/>
<path d="M63.9458 240L66.5498 229.78H68.5378L71.1418 240H69.6158L68.9998 237.41H66.1018L65.4858 240H63.9458ZM66.3818 236.164H68.7058L68.0058 233.21C67.8844 232.687 67.7818 232.235 67.6978 231.852C67.6231 231.46 67.5718 231.194 67.5438 231.054C67.5158 231.194 67.4644 231.46 67.3898 231.852C67.3151 232.235 67.2124 232.683 67.0818 233.196L66.3818 236.164ZM73.9223 242.52V241.218H76.2883C76.6803 241.218 76.9696 241.125 77.1563 240.938C77.3523 240.751 77.4503 240.476 77.4503 240.112V239.342L77.4783 237.914H77.1563L77.4643 237.634C77.4643 238.222 77.2776 238.684 76.9043 239.02C76.5403 239.356 76.0456 239.524 75.4203 239.524C74.6269 239.524 74.0016 239.263 73.5443 238.74C73.0869 238.217 72.8583 237.513 72.8583 236.626V235.058C72.8583 234.171 73.0869 233.467 73.5443 232.944C74.0016 232.421 74.6269 232.16 75.4203 232.16C76.0456 232.16 76.5403 232.333 76.9043 232.678C77.2776 233.014 77.4643 233.476 77.4643 234.064L77.1563 233.77H77.4643L77.4503 232.3H78.9483V240.14C78.9483 240.877 78.7149 241.456 78.2483 241.876C77.7816 242.305 77.1329 242.52 76.3023 242.52H73.9223ZM75.9103 238.222C76.3863 238.222 76.7596 238.077 77.0303 237.788C77.3103 237.489 77.4503 237.079 77.4503 236.556V235.142C77.4503 234.619 77.3103 234.213 77.0303 233.924C76.7596 233.625 76.3863 233.476 75.9103 233.476C75.4156 233.476 75.0329 233.621 74.7623 233.91C74.5009 234.19 74.3703 234.601 74.3703 235.142V236.556C74.3703 237.088 74.5009 237.499 74.7623 237.788C75.0329 238.077 75.4156 238.222 75.9103 238.222ZM84.3328 240.14C83.7075 240.14 83.1568 240.019 82.6808 239.776C82.2141 239.524 81.8548 239.174 81.6028 238.726C81.3508 238.278 81.2248 237.755 81.2248 237.158V235.142C81.2248 234.535 81.3508 234.013 81.6028 233.574C81.8548 233.126 82.2141 232.781 82.6808 232.538C83.1568 232.286 83.7075 232.16 84.3328 232.16C84.9675 232.16 85.5181 232.286 85.9848 232.538C86.4515 232.781 86.8108 233.126 87.0628 233.574C87.3148 234.013 87.4408 234.535 87.4408 235.142V236.514H82.6808V237.158C82.6808 237.727 82.8208 238.161 83.1008 238.46C83.3901 238.759 83.8055 238.908 84.3468 238.908C84.7855 238.908 85.1401 238.833 85.4108 238.684C85.6815 238.525 85.8495 238.297 85.9148 237.998H87.4128C87.3008 238.651 86.9648 239.174 86.4048 239.566C85.8448 239.949 85.1541 240.14 84.3328 240.14ZM85.9848 235.604V235.128C85.9848 234.568 85.8448 234.134 85.5648 233.826C85.2848 233.518 84.8741 233.364 84.3328 233.364C83.8008 233.364 83.3901 233.518 83.1008 233.826C82.8208 234.134 82.6808 234.573 82.6808 235.142V235.492L86.0968 235.478L85.9848 235.604ZM89.7033 240V232.3H91.2013V233.77H91.5653L91.2013 234.12C91.2013 233.504 91.3833 233.023 91.7473 232.678C92.1113 232.333 92.6153 232.16 93.2593 232.16C94.0247 232.16 94.636 232.407 95.0933 232.902C95.5507 233.387 95.7793 234.045 95.7793 234.876V240H94.2673V235.044C94.2673 234.54 94.132 234.153 93.8613 233.882C93.5907 233.611 93.222 233.476 92.7553 233.476C92.2793 233.476 91.9013 233.621 91.6213 233.91C91.3507 234.19 91.2153 234.601 91.2153 235.142V240H89.7033ZM101.962 240C101.262 240 100.716 239.809 100.324 239.426C99.9319 239.043 99.7359 238.511 99.7359 237.83V233.672H97.6079V232.3H99.7359V230.13H101.248V232.3H104.258V233.672H101.248V237.83C101.248 238.362 101.505 238.628 102.018 238.628H104.118V240H101.962ZM114.929 240V238.656H117.645V231.096L114.915 233.126V231.488L117.253 229.78H119.157V238.656H121.355V240H114.929ZM133.944 241.54V228.38H135.456V241.54H133.944ZM152.329 240C151.629 240 151.083 239.809 150.691 239.426C150.299 239.043 150.103 238.511 150.103 237.83V233.672H147.975V232.3H150.103V230.13H151.615V232.3H154.625V233.672H151.615V237.83C151.615 238.362 151.872 238.628 152.385 238.628H154.485V240H152.329ZM159.114 240.14C158.311 240.14 157.676 239.935 157.21 239.524C156.752 239.104 156.524 238.535 156.524 237.816C156.524 237.088 156.766 236.519 157.252 236.108C157.746 235.688 158.423 235.478 159.282 235.478H161.424V234.764C161.424 234.344 161.293 234.017 161.032 233.784C160.77 233.551 160.402 233.434 159.926 233.434C159.506 233.434 159.156 233.527 158.876 233.714C158.596 233.891 158.432 234.129 158.386 234.428H156.902C156.986 233.737 157.303 233.187 157.854 232.776C158.414 232.365 159.118 232.16 159.968 232.16C160.882 232.16 161.606 232.393 162.138 232.86C162.67 233.317 162.936 233.943 162.936 234.736V240H161.466V238.586H161.214L161.466 238.306C161.466 238.866 161.251 239.314 160.822 239.65C160.392 239.977 159.823 240.14 159.114 240.14ZM159.562 238.978C160.103 238.978 160.546 238.843 160.892 238.572C161.246 238.292 161.424 237.937 161.424 237.508V236.5H159.31C158.918 236.5 158.605 236.607 158.372 236.822C158.148 237.037 158.036 237.331 158.036 237.704C158.036 238.096 158.171 238.409 158.442 238.642C158.712 238.866 159.086 238.978 159.562 238.978ZM168.012 240.126C167.461 240.126 166.976 240.037 166.556 239.86C166.145 239.683 165.819 239.44 165.576 239.132C165.343 238.815 165.207 238.441 165.17 238.012H166.682C166.719 238.264 166.855 238.469 167.088 238.628C167.321 238.777 167.629 238.852 168.012 238.852H168.614C169.071 238.852 169.417 238.759 169.65 238.572C169.883 238.385 170 238.138 170 237.83C170 237.531 169.893 237.298 169.678 237.13C169.473 236.953 169.165 236.836 168.754 236.78L167.76 236.626C166.939 236.495 166.332 236.262 165.94 235.926C165.557 235.581 165.366 235.072 165.366 234.4C165.366 233.691 165.595 233.145 166.052 232.762C166.519 232.37 167.205 232.174 168.11 232.174H168.642C169.445 232.174 170.084 232.361 170.56 232.734C171.045 233.098 171.321 233.588 171.386 234.204H169.874C169.837 233.98 169.711 233.798 169.496 233.658C169.291 233.518 169.006 233.448 168.642 233.448H168.11C167.671 233.448 167.349 233.532 167.144 233.7C166.948 233.859 166.85 234.097 166.85 234.414C166.85 234.694 166.939 234.904 167.116 235.044C167.293 235.184 167.569 235.282 167.942 235.338L168.964 235.506C169.832 235.627 170.467 235.87 170.868 236.234C171.279 236.589 171.484 237.107 171.484 237.788C171.484 238.525 171.241 239.099 170.756 239.51C170.28 239.921 169.566 240.126 168.614 240.126H168.012ZM173.691 240V229.78H175.203V235.394H176.561L178.605 232.3H180.313L177.863 235.996L180.355 240H178.619L176.561 236.696H175.203V240H173.691ZM190.368 240L190.858 237.326H189.696V236.276H191.04L191.53 233.504H190.158V232.454H191.726L192.202 229.78H193.336L192.846 232.454H194.946L195.422 229.78H196.556L196.066 232.454H197.228V233.504H195.884L195.394 236.276H196.766V237.326H195.198L194.722 240H193.588L194.078 237.326H191.978L191.502 240H190.368ZM192.174 236.276H194.26L194.75 233.504H192.664L192.174 236.276Z" fill="white"/>
<circle cx="42.5" cy="234.5" r="6.5" fill="#FCCC6B"/>
<rect x="24" y="343" width="212" height="61" rx="5" fill="#727C8D"/>
<path d="M63.9458 379L66.5498 368.78H68.5378L71.1418 379H69.6158L68.9998 376.41H66.1018L65.4858 379H63.9458ZM66.3818 375.164H68.7058L68.0058 372.21C67.8844 371.687 67.7818 371.235 67.6978 370.852C67.6231 370.46 67.5718 370.194 67.5438 370.054C67.5158 370.194 67.4644 370.46 67.3898 370.852C67.3151 371.235 67.2124 371.683 67.0818 372.196L66.3818 375.164ZM73.9223 381.52V380.218H76.2883C76.6803 380.218 76.9696 380.125 77.1563 379.938C77.3523 379.751 77.4503 379.476 77.4503 379.112V378.342L77.4783 376.914H77.1563L77.4643 376.634C77.4643 377.222 77.2776 377.684 76.9043 378.02C76.5403 378.356 76.0456 378.524 75.4203 378.524C74.6269 378.524 74.0016 378.263 73.5443 377.74C73.0869 377.217 72.8583 376.513 72.8583 375.626V374.058C72.8583 373.171 73.0869 372.467 73.5443 371.944C74.0016 371.421 74.6269 371.16 75.4203 371.16C76.0456 371.16 76.5403 371.333 76.9043 371.678C77.2776 372.014 77.4643 372.476 77.4643 373.064L77.1563 372.77H77.4643L77.4503 371.3H78.9483V379.14C78.9483 379.877 78.7149 380.456 78.2483 380.876C77.7816 381.305 77.1329 381.52 76.3023 381.52H73.9223ZM75.9103 377.222C76.3863 377.222 76.7596 377.077 77.0303 376.788C77.3103 376.489 77.4503 376.079 77.4503 375.556V374.142C77.4503 373.619 77.3103 373.213 77.0303 372.924C76.7596 372.625 76.3863 372.476 75.9103 372.476C75.4156 372.476 75.0329 372.621 74.7623 372.91C74.5009 373.19 74.3703 373.601 74.3703 374.142V375.556C74.3703 376.088 74.5009 376.499 74.7623 376.788C75.0329 377.077 75.4156 377.222 75.9103 377.222ZM84.3328 379.14C83.7075 379.14 83.1568 379.019 82.6808 378.776C82.2141 378.524 81.8548 378.174 81.6028 377.726C81.3508 377.278 81.2248 376.755 81.2248 376.158V374.142C81.2248 373.535 81.3508 373.013 81.6028 372.574C81.8548 372.126 82.2141 371.781 82.6808 371.538C83.1568 371.286 83.7075 371.16 84.3328 371.16C84.9675 371.16 85.5181 371.286 85.9848 371.538C86.4515 371.781 86.8108 372.126 87.0628 372.574C87.3148 373.013 87.4408 373.535 87.4408 374.142V375.514H82.6808V376.158C82.6808 376.727 82.8208 377.161 83.1008 377.46C83.3901 377.759 83.8055 377.908 84.3468 377.908C84.7855 377.908 85.1401 377.833 85.4108 377.684C85.6815 377.525 85.8495 377.297 85.9148 376.998H87.4128C87.3008 377.651 86.9648 378.174 86.4048 378.566C85.8448 378.949 85.1541 379.14 84.3328 379.14ZM85.9848 374.604V374.128C85.9848 373.568 85.8448 373.134 85.5648 372.826C85.2848 372.518 84.8741 372.364 84.3328 372.364C83.8008 372.364 83.3901 372.518 83.1008 372.826C82.8208 373.134 82.6808 373.573 82.6808 374.142V374.492L86.0968 374.478L85.9848 374.604ZM89.7033 379V371.3H91.2013V372.77H91.5653L91.2013 373.12C91.2013 372.504 91.3833 372.023 91.7473 371.678C92.1113 371.333 92.6153 371.16 93.2593 371.16C94.0247 371.16 94.636 371.407 95.0933 371.902C95.5507 372.387 95.7793 373.045 95.7793 373.876V379H94.2673V374.044C94.2673 373.54 94.132 373.153 93.8613 372.882C93.5907 372.611 93.222 372.476 92.7553 372.476C92.2793 372.476 91.9013 372.621 91.6213 372.91C91.3507 373.19 91.2153 373.601 91.2153 374.142V379H89.7033ZM101.962 379C101.262 379 100.716 378.809 100.324 378.426C99.9319 378.043 99.7359 377.511 99.7359 376.83V372.672H97.6079V371.3H99.7359V369.13H101.248V371.3H104.258V372.672H101.248V376.83C101.248 377.362 101.505 377.628 102.018 377.628H104.118V379H101.962ZM114.901 379V377.502L118.065 374.24C118.55 373.736 118.905 373.283 119.129 372.882C119.362 372.471 119.479 372.065 119.479 371.664C119.479 371.141 119.334 370.731 119.045 370.432C118.765 370.133 118.378 369.984 117.883 369.984C117.342 369.984 116.912 370.143 116.595 370.46C116.287 370.768 116.133 371.193 116.133 371.734H114.621C114.64 371.099 114.784 370.553 115.055 370.096C115.326 369.629 115.704 369.27 116.189 369.018C116.674 368.766 117.244 368.64 117.897 368.64C118.522 368.64 119.068 368.761 119.535 369.004C120.002 369.247 120.361 369.587 120.613 370.026C120.865 370.465 120.991 370.983 120.991 371.58C120.991 372.187 120.832 372.779 120.515 373.358C120.207 373.937 119.698 374.581 118.989 375.29L116.679 377.628H121.145V379H114.901ZM133.944 380.54V367.38H135.456V380.54H133.944ZM152.329 379C151.629 379 151.083 378.809 150.691 378.426C150.299 378.043 150.103 377.511 150.103 376.83V372.672H147.975V371.3H150.103V369.13H151.615V371.3H154.625V372.672H151.615V376.83C151.615 377.362 151.872 377.628 152.385 377.628H154.485V379H152.329ZM159.114 379.14C158.311 379.14 157.676 378.935 157.21 378.524C156.752 378.104 156.524 377.535 156.524 376.816C156.524 376.088 156.766 375.519 157.252 375.108C157.746 374.688 158.423 374.478 159.282 374.478H161.424V373.764C161.424 373.344 161.293 373.017 161.032 372.784C160.77 372.551 160.402 372.434 159.926 372.434C159.506 372.434 159.156 372.527 158.876 372.714C158.596 372.891 158.432 373.129 158.386 373.428H156.902C156.986 372.737 157.303 372.187 157.854 371.776C158.414 371.365 159.118 371.16 159.968 371.16C160.882 371.16 161.606 371.393 162.138 371.86C162.67 372.317 162.936 372.943 162.936 373.736V379H161.466V377.586H161.214L161.466 377.306C161.466 377.866 161.251 378.314 160.822 378.65C160.392 378.977 159.823 379.14 159.114 379.14ZM159.562 377.978C160.103 377.978 160.546 377.843 160.892 377.572C161.246 377.292 161.424 376.937 161.424 376.508V375.5H159.31C158.918 375.5 158.605 375.607 158.372 375.822C158.148 376.037 158.036 376.331 158.036 376.704C158.036 377.096 158.171 377.409 158.442 377.642C158.712 377.866 159.086 377.978 159.562 377.978ZM168.012 379.126C167.461 379.126 166.976 379.037 166.556 378.86C166.145 378.683 165.819 378.44 165.576 378.132C165.343 377.815 165.207 377.441 165.17 377.012H166.682C166.719 377.264 166.855 377.469 167.088 377.628C167.321 377.777 167.629 377.852 168.012 377.852H168.614C169.071 377.852 169.417 377.759 169.65 377.572C169.883 377.385 170 377.138 170 376.83C170 376.531 169.893 376.298 169.678 376.13C169.473 375.953 169.165 375.836 168.754 375.78L167.76 375.626C166.939 375.495 166.332 375.262 165.94 374.926C165.557 374.581 165.366 374.072 165.366 373.4C165.366 372.691 165.595 372.145 166.052 371.762C166.519 371.37 167.205 371.174 168.11 371.174H168.642C169.445 371.174 170.084 371.361 170.56 371.734C171.045 372.098 171.321 372.588 171.386 373.204H169.874C169.837 372.98 169.711 372.798 169.496 372.658C169.291 372.518 169.006 372.448 168.642 372.448H168.11C167.671 372.448 167.349 372.532 167.144 372.7C166.948 372.859 166.85 373.097 166.85 373.414C166.85 373.694 166.939 373.904 167.116 374.044C167.293 374.184 167.569 374.282 167.942 374.338L168.964 374.506C169.832 374.627 170.467 374.87 170.868 375.234C171.279 375.589 171.484 376.107 171.484 376.788C171.484 377.525 171.241 378.099 170.756 378.51C170.28 378.921 169.566 379.126 168.614 379.126H168.012ZM173.691 379V368.78H175.203V374.394H176.561L178.605 371.3H180.313L177.863 374.996L180.355 379H178.619L176.561 375.696H175.203V379H173.691ZM190.368 379L190.858 376.326H189.696V375.276H191.04L191.53 372.504H190.158V371.454H191.726L192.202 368.78H193.336L192.846 371.454H194.946L195.422 368.78H196.556L196.066 371.454H197.228V372.504H195.884L195.394 375.276H196.766V376.326H195.198L194.722 379H193.588L194.078 376.326H191.978L191.502 379H190.368ZM192.174 375.276H194.26L194.75 372.504H192.664L192.174 375.276Z" fill="white"/>
<circle cx="42.5" cy="373.5" r="6.5" fill="#FCCC6B"/>
<rect x="24" y="482" width="212" height="61" rx="5" fill="#727C8D"/>
<path d="M63.9458 518L66.5498 507.78H68.5378L71.1418 518H69.6158L68.9998 515.41H66.1018L65.4858 518H63.9458ZM66.3818 514.164H68.7058L68.0058 511.21C67.8844 510.687 67.7818 510.235 67.6978 509.852C67.6231 509.46 67.5718 509.194 67.5438 509.054C67.5158 509.194 67.4644 509.46 67.3898 509.852C67.3151 510.235 67.2124 510.683 67.0818 511.196L66.3818 514.164ZM73.9223 520.52V519.218H76.2883C76.6803 519.218 76.9696 519.125 77.1563 518.938C77.3523 518.751 77.4503 518.476 77.4503 518.112V517.342L77.4783 515.914H77.1563L77.4643 515.634C77.4643 516.222 77.2776 516.684 76.9043 517.02C76.5403 517.356 76.0456 517.524 75.4203 517.524C74.6269 517.524 74.0016 517.263 73.5443 516.74C73.0869 516.217 72.8583 515.513 72.8583 514.626V513.058C72.8583 512.171 73.0869 511.467 73.5443 510.944C74.0016 510.421 74.6269 510.16 75.4203 510.16C76.0456 510.16 76.5403 510.333 76.9043 510.678C77.2776 511.014 77.4643 511.476 77.4643 512.064L77.1563 511.77H77.4643L77.4503 510.3H78.9483V518.14C78.9483 518.877 78.7149 519.456 78.2483 519.876C77.7816 520.305 77.1329 520.52 76.3023 520.52H73.9223ZM75.9103 516.222C76.3863 516.222 76.7596 516.077 77.0303 515.788C77.3103 515.489 77.4503 515.079 77.4503 514.556V513.142C77.4503 512.619 77.3103 512.213 77.0303 511.924C76.7596 511.625 76.3863 511.476 75.9103 511.476C75.4156 511.476 75.0329 511.621 74.7623 511.91C74.5009 512.19 74.3703 512.601 74.3703 513.142V514.556C74.3703 515.088 74.5009 515.499 74.7623 515.788C75.0329 516.077 75.4156 516.222 75.9103 516.222ZM84.3328 518.14C83.7075 518.14 83.1568 518.019 82.6808 517.776C82.2141 517.524 81.8548 517.174 81.6028 516.726C81.3508 516.278 81.2248 515.755 81.2248 515.158V513.142C81.2248 512.535 81.3508 512.013 81.6028 511.574C81.8548 511.126 82.2141 510.781 82.6808 510.538C83.1568 510.286 83.7075 510.16 84.3328 510.16C84.9675 510.16 85.5181 510.286 85.9848 510.538C86.4515 510.781 86.8108 511.126 87.0628 511.574C87.3148 512.013 87.4408 512.535 87.4408 513.142V514.514H82.6808V515.158C82.6808 515.727 82.8208 516.161 83.1008 516.46C83.3901 516.759 83.8055 516.908 84.3468 516.908C84.7855 516.908 85.1401 516.833 85.4108 516.684C85.6815 516.525 85.8495 516.297 85.9148 515.998H87.4128C87.3008 516.651 86.9648 517.174 86.4048 517.566C85.8448 517.949 85.1541 518.14 84.3328 518.14ZM85.9848 513.604V513.128C85.9848 512.568 85.8448 512.134 85.5648 511.826C85.2848 511.518 84.8741 511.364 84.3328 511.364C83.8008 511.364 83.3901 511.518 83.1008 511.826C82.8208 512.134 82.6808 512.573 82.6808 513.142V513.492L86.0968 513.478L85.9848 513.604ZM89.7033 518V510.3H91.2013V511.77H91.5653L91.2013 512.12C91.2013 511.504 91.3833 511.023 91.7473 510.678C92.1113 510.333 92.6153 510.16 93.2593 510.16C94.0247 510.16 94.636 510.407 95.0933 510.902C95.5507 511.387 95.7793 512.045 95.7793 512.876V518H94.2673V513.044C94.2673 512.54 94.132 512.153 93.8613 511.882C93.5907 511.611 93.222 511.476 92.7553 511.476C92.2793 511.476 91.9013 511.621 91.6213 511.91C91.3507 512.19 91.2153 512.601 91.2153 513.142V518H89.7033ZM101.962 518C101.262 518 100.716 517.809 100.324 517.426C99.9319 517.043 99.7359 516.511 99.7359 515.83V511.672H97.6079V510.3H99.7359V508.13H101.248V510.3H104.258V511.672H101.248V515.83C101.248 516.362 101.505 516.628 102.018 516.628H104.118V518H101.962ZM117.785 518.14C117.141 518.14 116.581 518.019 116.105 517.776C115.629 517.533 115.26 517.193 114.999 516.754C114.747 516.306 114.621 515.788 114.621 515.2H116.133C116.133 515.713 116.278 516.115 116.567 516.404C116.866 516.693 117.276 516.838 117.799 516.838C118.331 516.838 118.742 516.689 119.031 516.39C119.32 516.091 119.465 515.695 119.465 515.2V514.444C119.465 513.921 119.32 513.52 119.031 513.24C118.742 512.951 118.331 512.806 117.799 512.806H116.707V511.378L119.087 509.11H115.055V507.78H120.627V509.208L117.813 511.854V511.49C118.784 511.49 119.554 511.756 120.123 512.288C120.692 512.82 120.977 513.534 120.977 514.43V515.2C120.977 515.788 120.846 516.306 120.585 516.754C120.324 517.193 119.95 517.533 119.465 517.776C118.989 518.019 118.429 518.14 117.785 518.14ZM133.944 519.54V506.38H135.456V519.54H133.944ZM152.329 518C151.629 518 151.083 517.809 150.691 517.426C150.299 517.043 150.103 516.511 150.103 515.83V511.672H147.975V510.3H150.103V508.13H151.615V510.3H154.625V511.672H151.615V515.83C151.615 516.362 151.872 516.628 152.385 516.628H154.485V518H152.329ZM159.114 518.14C158.311 518.14 157.676 517.935 157.21 517.524C156.752 517.104 156.524 516.535 156.524 515.816C156.524 515.088 156.766 514.519 157.252 514.108C157.746 513.688 158.423 513.478 159.282 513.478H161.424V512.764C161.424 512.344 161.293 512.017 161.032 511.784C160.77 511.551 160.402 511.434 159.926 511.434C159.506 511.434 159.156 511.527 158.876 511.714C158.596 511.891 158.432 512.129 158.386 512.428H156.902C156.986 511.737 157.303 511.187 157.854 510.776C158.414 510.365 159.118 510.16 159.968 510.16C160.882 510.16 161.606 510.393 162.138 510.86C162.67 511.317 162.936 511.943 162.936 512.736V518H161.466V516.586H161.214L161.466 516.306C161.466 516.866 161.251 517.314 160.822 517.65C160.392 517.977 159.823 518.14 159.114 518.14ZM159.562 516.978C160.103 516.978 160.546 516.843 160.892 516.572C161.246 516.292 161.424 515.937 161.424 515.508V514.5H159.31C158.918 514.5 158.605 514.607 158.372 514.822C158.148 515.037 158.036 515.331 158.036 515.704C158.036 516.096 158.171 516.409 158.442 516.642C158.712 516.866 159.086 516.978 159.562 516.978ZM168.012 518.126C167.461 518.126 166.976 518.037 166.556 517.86C166.145 517.683 165.819 517.44 165.576 517.132C165.343 516.815 165.207 516.441 165.17 516.012H166.682C166.719 516.264 166.855 516.469 167.088 516.628C167.321 516.777 167.629 516.852 168.012 516.852H168.614C169.071 516.852 169.417 516.759 169.65 516.572C169.883 516.385 170 516.138 170 515.83C170 515.531 169.893 515.298 169.678 515.13C169.473 514.953 169.165 514.836 168.754 514.78L167.76 514.626C166.939 514.495 166.332 514.262 165.94 513.926C165.557 513.581 165.366 513.072 165.366 512.4C165.366 511.691 165.595 511.145 166.052 510.762C166.519 510.37 167.205 510.174 168.11 510.174H168.642C169.445 510.174 170.084 510.361 170.56 510.734C171.045 511.098 171.321 511.588 171.386 512.204H169.874C169.837 511.98 169.711 511.798 169.496 511.658C169.291 511.518 169.006 511.448 168.642 511.448H168.11C167.671 511.448 167.349 511.532 167.144 511.7C166.948 511.859 166.85 512.097 166.85 512.414C166.85 512.694 166.939 512.904 167.116 513.044C167.293 513.184 167.569 513.282 167.942 513.338L168.964 513.506C169.832 513.627 170.467 513.87 170.868 514.234C171.279 514.589 171.484 515.107 171.484 515.788C171.484 516.525 171.241 517.099 170.756 517.51C170.28 517.921 169.566 518.126 168.614 518.126H168.012ZM173.691 518V507.78H175.203V513.394H176.561L178.605 510.3H180.313L177.863 513.996L180.355 518H178.619L176.561 514.696H175.203V518H173.691ZM190.368 518L190.858 515.326H189.696V514.276H191.04L191.53 511.504H190.158V510.454H191.726L192.202 507.78H193.336L192.846 510.454H194.946L195.422 507.78H196.556L196.066 510.454H197.228V511.504H195.884L195.394 514.276H196.766V515.326H195.198L194.722 518H193.588L194.078 515.326H191.978L191.502 518H190.368ZM192.174 514.276H194.26L194.75 511.504H192.664L192.174 514.276Z" fill="white"/>
<circle cx="42.5" cy="512.5" r="6.5" fill="#FCCC6B"/>
<path d="M651.34 374L660 382.66L668.66 374L660 365.34L651.34 374ZM753.66 374L745 365.34L736.34 374L745 382.66L753.66 374ZM660 375.5H745V372.5H660V375.5Z" fill="#9CA3AF"/>
<path d="M651.34 332L660 340.66L668.66 332L660 323.34L651.34 332ZM753.66 235L745 226.34L736.34 235L745 243.66L753.66 235ZM703 332L703 333.5L704.5 333.5L704.5 332L703 332ZM703 235L703 233.5L701.5 233.5L701.5 235L703 235ZM660 333.5L703 333.5L703 330.5L660 330.5L660 333.5ZM704.5 332L704.5 235L701.5 235L701.5 332L704.5 332ZM703 236.5L745 236.5L745 233.5L703 233.5L703 236.5Z" fill="#9CA3AF"/>
<path d="M651.543 416.175L660.239 407.551L668.863 416.248L660.166 424.872L651.543 416.175ZM753.455 513.604L744.758 522.228L736.134 513.532L744.831 504.908L753.455 513.604ZM703.203 416.392L703.209 414.892L704.709 414.899L704.703 416.399L703.203 416.392ZM702.795 513.391L702.789 514.891L701.289 514.885L701.295 513.385L702.795 513.391ZM660.209 414.712L703.209 414.892L703.196 417.892L660.197 417.712L660.209 414.712ZM704.703 416.399L704.295 513.398L701.295 513.385L701.703 416.386L704.703 416.399ZM702.801 511.891L744.801 512.068L744.788 515.068L702.789 514.891L702.801 511.891Z" fill="#9CA3AF"/>
<path d="M329.983 374.286L321.323 365.626L312.662 374.286L321.323 382.946L329.983 374.286ZM227.662 374.286L236.323 382.946L244.983 374.286L236.323 365.626L227.662 374.286ZM321.323 372.786H236.323V375.786H321.323V372.786Z" fill="#9CA3AF"/>
<path d="M329.983 416.286L321.323 407.626L312.663 416.286L321.323 424.946L329.983 416.286ZM227.663 513.286L236.323 521.946L244.983 513.286L236.323 504.626L227.663 513.286ZM278.323 416.286L278.323 414.786L276.823 414.786L276.823 416.286L278.323 416.286ZM278.323 513.286L278.323 514.786L279.823 514.786L279.823 513.286L278.323 513.286ZM321.323 414.786L278.323 414.786L278.323 417.786L321.323 417.786L321.323 414.786ZM276.823 416.286L276.823 513.286L279.823 513.286L279.823 416.286L276.823 416.286ZM278.323 511.786L236.323 511.786L236.323 514.786L278.323 514.786L278.323 511.786Z" fill="#9CA3AF"/>
<path d="M329.78 332.111L321.083 340.734L312.46 332.038L321.156 323.414L329.78 332.111ZM227.868 234.682L236.565 226.058L245.188 234.754L236.492 243.378L227.868 234.682ZM278.12 331.894L278.114 333.393L276.614 333.387L276.62 331.887L278.12 331.894ZM278.528 234.894L278.534 233.394L280.034 233.401L280.028 234.901L278.528 234.894ZM321.114 333.574L278.114 333.393L278.126 330.394L321.126 330.574L321.114 333.574ZM276.62 331.887L277.028 234.888L280.028 234.901L279.62 331.9L276.62 331.887ZM278.521 236.394L236.522 236.218L236.534 233.218L278.534 233.394L278.521 236.394Z" fill="#9CA3AF"/>
</svg>
