<svg width="980" height="748" viewBox="0 0 980 748" fill="none" xmlns="http://www.w3.org/2000/svg">
<rect x="49" y="352" width="163" height="79" rx="5" fill="#9CA3AF"/>
<path d="M76.9243 394.724V392.883L85.6686 388.843V391.112L79.4555 393.778L79.5258 393.656V393.95L79.4555 393.829L85.6686 396.494V398.763L76.9243 394.724ZM92.8261 399.192C91.846 399.192 91.0044 398.977 90.3012 398.546C89.6024 398.116 89.0633 397.521 88.684 396.763C88.309 396 88.1215 395.122 88.1215 394.129C88.1215 393.132 88.3133 392.252 88.6968 391.489C89.0803 390.722 89.6215 390.126 90.3204 389.7C91.0235 389.269 91.8545 389.054 92.8133 389.054C93.6102 389.054 94.3154 389.201 94.9291 389.495C95.547 389.785 96.0392 390.196 96.4056 390.729C96.7721 391.257 96.9809 391.875 97.032 392.582H94.8204C94.7309 392.109 94.5178 391.715 94.1812 391.4C93.8488 391.08 93.4035 390.92 92.8453 390.92C92.3722 390.92 91.9568 391.048 91.5988 391.304C91.2409 391.555 90.9617 391.918 90.7615 392.391C90.5654 392.864 90.4674 393.43 90.4674 394.091C90.4674 394.76 90.5654 395.335 90.7615 395.817C90.9575 396.294 91.2323 396.663 91.586 396.923C91.944 397.178 92.3637 397.306 92.8453 397.306C93.1862 397.306 93.4909 397.242 93.7593 397.114C94.032 396.982 94.26 396.793 94.4433 396.545C94.6265 396.298 94.7522 395.998 94.8204 395.644H97.032C96.9767 396.339 96.7721 396.955 96.4184 397.491C96.0647 398.024 95.5832 398.442 94.9738 398.744C94.3644 399.043 93.6485 399.192 92.8261 399.192ZM103.215 399.192C102.256 399.192 101.425 398.981 100.722 398.559C100.019 398.137 99.4733 397.547 99.0855 396.788C98.702 396.03 98.5102 395.143 98.5102 394.129C98.5102 393.115 98.702 392.227 99.0855 391.464C99.4733 390.701 100.019 390.109 100.722 389.687C101.425 389.265 102.256 389.054 103.215 389.054C104.174 389.054 105.005 389.265 105.708 389.687C106.411 390.109 106.954 390.701 107.338 391.464C107.725 392.227 107.919 393.115 107.919 394.129C107.919 395.143 107.725 396.03 107.338 396.788C106.954 397.547 106.411 398.137 105.708 398.559C105.005 398.981 104.174 399.192 103.215 399.192ZM103.228 397.338C103.747 397.338 104.182 397.195 104.532 396.91C104.881 396.62 105.141 396.232 105.311 395.746C105.486 395.261 105.573 394.719 105.573 394.123C105.573 393.522 105.486 392.979 105.311 392.493C105.141 392.003 104.881 391.613 104.532 391.323C104.182 391.033 103.747 390.888 103.228 390.888C102.695 390.888 102.252 391.033 101.898 391.323C101.549 391.613 101.286 392.003 101.112 392.493C100.941 392.979 100.856 393.522 100.856 394.123C100.856 394.719 100.941 395.261 101.112 395.746C101.286 396.232 101.549 396.62 101.898 396.91C102.252 397.195 102.695 397.338 103.228 397.338ZM109.883 399V389.182H112.095V390.85H112.21C112.415 390.288 112.753 389.849 113.226 389.533C113.699 389.214 114.264 389.054 114.92 389.054C115.585 389.054 116.145 389.216 116.601 389.54C117.062 389.859 117.385 390.296 117.573 390.85H117.675C117.892 390.305 118.259 389.87 118.775 389.546C119.294 389.218 119.91 389.054 120.622 389.054C121.525 389.054 122.263 389.339 122.834 389.911C123.405 390.482 123.69 391.315 123.69 392.41V399H121.37V392.768C121.37 392.158 121.208 391.713 120.884 391.432C120.56 391.146 120.164 391.004 119.695 391.004C119.137 391.004 118.7 391.178 118.385 391.528C118.074 391.873 117.918 392.322 117.918 392.876V399H115.649V392.672C115.649 392.165 115.495 391.76 115.189 391.457C114.886 391.155 114.49 391.004 114 391.004C113.667 391.004 113.365 391.089 113.092 391.259C112.819 391.425 112.602 391.662 112.44 391.969C112.278 392.271 112.197 392.625 112.197 393.03V399H109.883ZM126.038 399V389.182H128.249V390.85H128.364C128.569 390.288 128.908 389.849 129.381 389.533C129.854 389.214 130.418 389.054 131.074 389.054C131.739 389.054 132.3 389.216 132.756 389.54C133.216 389.859 133.54 390.296 133.727 390.85H133.829C134.047 390.305 134.413 389.87 134.929 389.546C135.449 389.218 136.065 389.054 136.776 389.054C137.68 389.054 138.417 389.339 138.988 389.911C139.559 390.482 139.844 391.315 139.844 392.41V399H137.524V392.768C137.524 392.158 137.362 391.713 137.038 391.432C136.714 391.146 136.318 391.004 135.849 391.004C135.291 391.004 134.854 391.178 134.539 391.528C134.228 391.873 134.072 392.322 134.072 392.876V399H131.803V392.672C131.803 392.165 131.65 391.76 131.343 391.457C131.04 391.155 130.644 391.004 130.154 391.004C129.822 391.004 129.519 391.089 129.246 391.259C128.974 391.425 128.756 391.662 128.594 391.969C128.432 392.271 128.351 392.625 128.351 393.03V399H126.038ZM145.017 399.198C144.395 399.198 143.835 399.087 143.336 398.866C142.842 398.64 142.45 398.308 142.16 397.869C141.874 397.43 141.732 396.888 141.732 396.245C141.732 395.691 141.834 395.233 142.038 394.871C142.243 394.509 142.522 394.219 142.876 394.001C143.229 393.784 143.628 393.62 144.071 393.509C144.519 393.394 144.981 393.311 145.458 393.26C146.033 393.2 146.5 393.147 146.858 393.1C147.216 393.049 147.476 392.972 147.638 392.87C147.804 392.763 147.887 392.599 147.887 392.378V392.339C147.887 391.858 147.744 391.485 147.459 391.221C147.173 390.957 146.762 390.825 146.225 390.825C145.658 390.825 145.209 390.948 144.877 391.195C144.548 391.442 144.327 391.734 144.212 392.071L142.051 391.764C142.222 391.168 142.503 390.669 142.895 390.268C143.287 389.864 143.766 389.561 144.333 389.361C144.9 389.156 145.526 389.054 146.212 389.054C146.685 389.054 147.156 389.109 147.625 389.22C148.094 389.331 148.522 389.514 148.91 389.77C149.298 390.021 149.609 390.364 149.843 390.799C150.082 391.234 150.201 391.777 150.201 392.429V399H147.977V397.651H147.9C147.759 397.924 147.561 398.18 147.305 398.418C147.054 398.653 146.737 398.842 146.353 398.987C145.974 399.128 145.528 399.198 145.017 399.198ZM145.618 397.498C146.082 397.498 146.485 397.406 146.826 397.223C147.167 397.036 147.429 396.788 147.612 396.482C147.8 396.175 147.894 395.84 147.894 395.478V394.321C147.821 394.381 147.698 394.436 147.523 394.487C147.352 394.538 147.161 394.583 146.948 394.621C146.734 394.66 146.524 394.694 146.315 394.724C146.106 394.754 145.925 394.779 145.771 394.8C145.426 394.847 145.117 394.924 144.845 395.031C144.572 395.137 144.357 395.286 144.199 395.478C144.041 395.665 143.962 395.908 143.962 396.207C143.962 396.633 144.118 396.955 144.429 397.172C144.74 397.389 145.136 397.498 145.618 397.498ZM154.842 393.247V399H152.528V389.182H154.739V390.85H154.854C155.08 390.3 155.44 389.864 155.935 389.54C156.433 389.216 157.049 389.054 157.782 389.054C158.46 389.054 159.05 389.199 159.553 389.489C160.06 389.778 160.452 390.198 160.729 390.748C161.01 391.298 161.149 391.964 161.144 392.749V399H158.83V393.107C158.83 392.45 158.66 391.937 158.319 391.566C157.982 391.195 157.516 391.01 156.919 391.01C156.514 391.01 156.154 391.099 155.839 391.278C155.528 391.453 155.283 391.707 155.104 392.039C154.929 392.371 154.842 392.774 154.842 393.247ZM167.14 399.173C166.369 399.173 165.678 398.974 165.069 398.578C164.46 398.182 163.978 397.607 163.624 396.852C163.271 396.098 163.094 395.182 163.094 394.104C163.094 393.013 163.273 392.092 163.631 391.342C163.993 390.588 164.481 390.019 165.095 389.636C165.708 389.248 166.392 389.054 167.146 389.054C167.722 389.054 168.195 389.152 168.565 389.348C168.936 389.54 169.23 389.772 169.448 390.045C169.665 390.313 169.833 390.567 169.953 390.805H170.048V385.909H172.369V399H170.093V397.453H169.953C169.833 397.692 169.661 397.945 169.435 398.214C169.209 398.478 168.911 398.704 168.54 398.891C168.169 399.079 167.703 399.173 167.14 399.173ZM167.786 397.274C168.276 397.274 168.693 397.142 169.038 396.878C169.384 396.609 169.646 396.237 169.825 395.759C170.004 395.282 170.093 394.726 170.093 394.091C170.093 393.456 170.004 392.904 169.825 392.435C169.65 391.967 169.39 391.602 169.045 391.342C168.704 391.082 168.284 390.952 167.786 390.952C167.27 390.952 166.84 391.087 166.494 391.355C166.149 391.624 165.889 391.994 165.715 392.467C165.54 392.94 165.453 393.482 165.453 394.091C165.453 394.705 165.54 395.252 165.715 395.734C165.894 396.211 166.156 396.588 166.501 396.865C166.85 397.138 167.278 397.274 167.786 397.274ZM184.071 394.724L175.327 398.763V396.494L181.54 393.829L181.469 393.95V393.656L181.54 393.778L175.327 391.112V388.843L184.071 392.883V394.724Z" fill="white"/>
<path d="M203.34 392L212 400.66L220.66 392L212 383.34L203.34 392ZM402 392L387 383.34V400.66L402 392ZM212 393.5L388.5 393.5V390.5L212 390.5V393.5Z" fill="#9CA3AF"/>
<path d="M809.184 193.832C810.409 188.783 817.591 188.783 818.816 193.832C818.999 194.59 819.36 195.295 819.867 195.887C820.374 196.48 821.015 196.945 821.736 197.244C822.457 197.542 823.238 197.667 824.016 197.606C824.794 197.546 825.547 197.303 826.213 196.897C830.649 194.194 835.729 199.271 833.027 203.71C832.621 204.376 832.378 205.129 832.318 205.906C832.258 206.684 832.382 207.464 832.68 208.185C832.979 208.905 833.443 209.545 834.035 210.053C834.627 210.56 835.331 210.921 836.089 211.105C841.137 212.33 841.137 219.511 836.089 220.736C835.33 220.92 834.626 221.28 834.033 221.787C833.44 222.295 832.975 222.935 832.677 223.656C832.378 224.377 832.254 225.158 832.314 225.936C832.374 226.714 832.618 227.467 833.024 228.133C835.726 232.57 830.649 237.65 826.21 234.947C825.544 234.541 824.792 234.299 824.014 234.239C823.237 234.178 822.456 234.302 821.736 234.601C821.015 234.899 820.375 235.363 819.868 235.956C819.36 236.548 819 237.251 818.816 238.009C817.591 243.058 810.409 243.058 809.184 238.009C809.001 237.251 808.64 236.546 808.133 235.953C807.626 235.361 806.985 234.896 806.264 234.597C805.543 234.298 804.762 234.174 803.984 234.235C803.206 234.295 802.453 234.538 801.787 234.944C797.351 237.647 792.271 232.57 794.973 228.131C795.379 227.465 795.622 226.712 795.682 225.935C795.742 225.157 795.618 224.376 795.32 223.656C795.021 222.935 794.557 222.295 793.965 221.788C793.373 221.281 792.669 220.92 791.911 220.736C786.863 219.511 786.863 212.33 791.911 211.105C792.67 210.921 793.374 210.561 793.967 210.053C794.56 209.546 795.025 208.906 795.323 208.185C795.622 207.464 795.746 206.683 795.686 205.905C795.626 205.126 795.382 204.374 794.976 203.707C792.274 199.271 797.351 194.191 801.79 196.894C804.665 198.642 808.391 197.095 809.184 193.832Z" stroke="#61A8E8" stroke-width="2.75" stroke-linecap="round" stroke-linejoin="round"/>
<path d="M814 224.545C818.763 224.545 822.625 220.684 822.625 215.92C822.625 211.157 818.763 207.295 814 207.295C809.237 207.295 805.375 211.157 805.375 215.92C805.375 220.684 809.237 224.545 814 224.545Z" stroke="#61A8E8" stroke-width="2.75" stroke-linecap="round" stroke-linejoin="round"/>
<path d="M793.063 251.61C794.322 246.57 801.503 246.618 802.694 251.675C802.873 252.434 803.228 253.141 803.732 253.737C804.235 254.334 804.872 254.803 805.591 255.106C806.31 255.41 807.091 255.539 807.869 255.484C808.647 255.429 809.402 255.191 810.071 254.789C814.525 252.116 819.571 257.227 816.839 261.648C816.429 262.312 816.181 263.062 816.115 263.839C816.05 264.616 816.169 265.398 816.462 266.12C816.756 266.843 817.216 267.486 817.805 267.997C818.393 268.509 819.095 268.874 819.851 269.063C824.891 270.322 824.843 277.503 819.786 278.694C819.027 278.873 818.32 279.228 817.724 279.732C817.128 280.235 816.659 280.872 816.355 281.591C816.051 282.31 815.922 283.091 815.977 283.869C816.032 284.647 816.27 285.402 816.672 286.071C819.345 290.525 814.234 295.571 809.813 292.839C809.15 292.429 808.399 292.181 807.622 292.115C806.845 292.05 806.063 292.169 805.341 292.462C804.618 292.756 803.975 293.216 803.464 293.805C802.952 294.393 802.587 295.094 802.398 295.851C801.139 300.891 793.958 300.843 792.767 295.786C792.588 295.027 792.233 294.32 791.729 293.724C791.226 293.127 790.589 292.658 789.87 292.355C789.151 292.051 788.371 291.922 787.592 291.977C786.814 292.032 786.059 292.27 785.39 292.672C780.936 295.345 775.89 290.234 778.622 285.813C779.033 285.15 779.28 284.399 779.346 283.622C779.411 282.845 779.292 282.063 778.999 281.341C778.705 280.618 778.245 279.975 777.657 279.464C777.068 278.952 776.367 278.587 775.61 278.398C770.57 277.139 770.618 269.958 775.675 268.767C776.434 268.588 777.141 268.233 777.737 267.729C778.334 267.226 778.803 266.589 779.106 265.87C779.41 265.151 779.539 264.37 779.484 263.592C779.429 262.814 779.191 262.059 778.789 261.39C776.116 256.936 781.228 251.89 785.648 254.622C788.512 256.39 792.248 254.868 793.063 251.61Z" stroke="#61A8E8" stroke-width="2.75" stroke-linecap="round" stroke-linejoin="round"/>
<path d="M797.673 282.355C802.436 282.387 806.323 278.552 806.355 273.788C806.387 269.025 802.552 265.138 797.788 265.106C793.025 265.074 789.138 268.909 789.106 273.673C789.074 278.436 792.909 282.323 797.673 282.355Z" stroke="#61A8E8" stroke-width="2.75" stroke-linecap="round" stroke-linejoin="round"/>
<path d="M856.06 235.822C859.864 232.284 865.857 236.241 864.098 241.129C863.834 241.863 863.746 242.649 863.843 243.423C863.94 244.198 864.218 244.938 864.655 245.585C865.092 246.231 865.676 246.765 866.358 247.144C867.041 247.522 867.803 247.734 868.583 247.762C873.774 247.951 875.216 254.987 870.515 257.202C869.81 257.535 869.193 258.029 868.714 258.644C868.236 259.26 867.909 259.98 867.761 260.746C867.613 261.511 867.648 262.301 867.863 263.051C868.077 263.8 868.466 264.489 868.997 265.06C872.535 268.864 868.578 274.857 863.691 273.098C862.956 272.833 862.17 272.746 861.396 272.843C860.621 272.94 859.881 273.218 859.234 273.655C858.588 274.092 858.054 274.676 857.675 275.358C857.297 276.041 857.085 276.803 857.057 277.583C856.869 282.774 849.833 284.216 847.617 279.515C847.285 278.81 846.791 278.193 846.175 277.714C845.559 277.235 844.839 276.909 844.074 276.761C843.308 276.613 842.518 276.648 841.768 276.862C841.019 277.077 840.33 277.466 839.759 277.997C835.955 281.535 829.962 277.578 831.721 272.69C831.986 271.956 832.073 271.17 831.976 270.396C831.88 269.621 831.601 268.881 831.164 268.234C830.727 267.588 830.144 267.054 829.461 266.675C828.778 266.297 828.016 266.085 827.236 266.057C822.045 265.868 820.603 258.832 825.304 256.617C826.009 256.284 826.627 255.79 827.105 255.175C827.584 254.559 827.91 253.839 828.058 253.073C828.206 252.308 828.171 251.518 827.957 250.768C827.742 250.019 827.354 249.33 826.823 248.759C823.284 244.955 827.241 238.962 832.129 240.721C832.863 240.986 833.649 241.073 834.424 240.976C835.198 240.879 835.939 240.601 836.585 240.164C837.232 239.727 837.766 239.143 838.144 238.461C838.522 237.778 838.734 237.016 838.762 236.236C838.951 231.045 845.987 229.603 848.202 234.304C849.639 237.347 853.6 238.108 856.06 235.822Z" stroke="#61A8E8" stroke-width="2.75" stroke-linecap="round" stroke-linejoin="round"/>
<path d="M843.158 264.107C847.133 266.732 852.483 265.637 855.108 261.661C857.732 257.686 856.637 252.336 852.662 249.712C848.686 247.087 843.336 248.182 840.712 252.158C838.087 256.133 839.183 261.483 843.158 264.107Z" stroke="#61A8E8" stroke-width="2.75" stroke-linecap="round" stroke-linejoin="round"/>
<path d="M758.058 132V114.545H764.603C765.944 114.545 767.069 114.795 767.978 115.295C768.893 115.795 769.583 116.483 770.049 117.358C770.521 118.227 770.756 119.216 770.756 120.324C770.756 121.443 770.521 122.437 770.049 123.307C769.577 124.176 768.881 124.861 767.961 125.361C767.04 125.855 765.907 126.102 764.56 126.102H760.222V123.503H764.134C764.918 123.503 765.56 123.366 766.06 123.094C766.56 122.821 766.93 122.446 767.168 121.969C767.413 121.491 767.535 120.943 767.535 120.324C767.535 119.705 767.413 119.159 767.168 118.688C766.93 118.216 766.558 117.849 766.052 117.588C765.552 117.321 764.907 117.188 764.117 117.188H761.219V132H758.058ZM773.366 132V118.909H776.358V121.091H776.494C776.733 120.335 777.142 119.753 777.722 119.344C778.307 118.929 778.974 118.722 779.724 118.722C779.895 118.722 780.085 118.73 780.295 118.747C780.511 118.759 780.69 118.778 780.832 118.807V121.645C780.702 121.599 780.494 121.56 780.21 121.526C779.932 121.486 779.662 121.466 779.401 121.466C778.838 121.466 778.332 121.588 777.884 121.832C777.44 122.071 777.091 122.403 776.835 122.83C776.58 123.256 776.452 123.747 776.452 124.304V132H773.366ZM788.053 132.256C786.775 132.256 785.667 131.974 784.729 131.412C783.792 130.849 783.065 130.062 782.548 129.051C782.036 128.04 781.781 126.858 781.781 125.506C781.781 124.153 782.036 122.969 782.548 121.952C783.065 120.935 783.792 120.145 784.729 119.582C785.667 119.02 786.775 118.739 788.053 118.739C789.332 118.739 790.44 119.02 791.377 119.582C792.315 120.145 793.039 120.935 793.55 121.952C794.067 122.969 794.326 124.153 794.326 125.506C794.326 126.858 794.067 128.04 793.55 129.051C793.039 130.062 792.315 130.849 791.377 131.412C790.44 131.974 789.332 132.256 788.053 132.256ZM788.07 129.784C788.763 129.784 789.343 129.594 789.809 129.213C790.275 128.827 790.621 128.31 790.849 127.662C791.082 127.014 791.198 126.293 791.198 125.497C791.198 124.696 791.082 123.972 790.849 123.324C790.621 122.67 790.275 122.151 789.809 121.764C789.343 121.378 788.763 121.185 788.07 121.185C787.36 121.185 786.769 121.378 786.298 121.764C785.832 122.151 785.482 122.67 785.249 123.324C785.022 123.972 784.908 124.696 784.908 125.497C784.908 126.293 785.022 127.014 785.249 127.662C785.482 128.31 785.832 128.827 786.298 129.213C786.769 129.594 787.36 129.784 788.07 129.784ZM802.655 132.256C801.348 132.256 800.226 131.969 799.288 131.395C798.357 130.821 797.638 130.028 797.132 129.017C796.632 128 796.382 126.83 796.382 125.506C796.382 124.176 796.638 123.003 797.149 121.986C797.661 120.963 798.382 120.168 799.314 119.599C800.251 119.026 801.359 118.739 802.638 118.739C803.7 118.739 804.641 118.935 805.459 119.327C806.283 119.713 806.939 120.261 807.428 120.972C807.916 121.676 808.195 122.5 808.263 123.443H805.314C805.195 122.812 804.911 122.287 804.462 121.866C804.018 121.44 803.425 121.227 802.68 121.227C802.05 121.227 801.496 121.398 801.018 121.739C800.541 122.074 800.169 122.557 799.902 123.188C799.641 123.818 799.51 124.574 799.51 125.455C799.51 126.347 799.641 127.114 799.902 127.756C800.163 128.392 800.53 128.884 801.001 129.23C801.479 129.571 802.038 129.741 802.68 129.741C803.135 129.741 803.541 129.656 803.899 129.486C804.263 129.31 804.567 129.057 804.811 128.727C805.055 128.398 805.223 127.997 805.314 127.526H808.263C808.189 128.452 807.916 129.273 807.445 129.989C806.973 130.699 806.331 131.256 805.518 131.659C804.706 132.057 803.751 132.256 802.655 132.256ZM816.592 132.256C815.279 132.256 814.146 131.983 813.191 131.438C812.242 130.886 811.512 130.108 811.001 129.102C810.489 128.091 810.234 126.901 810.234 125.531C810.234 124.185 810.489 123.003 811.001 121.986C811.518 120.963 812.239 120.168 813.165 119.599C814.092 119.026 815.18 118.739 816.43 118.739C817.237 118.739 817.998 118.869 818.714 119.131C819.435 119.386 820.072 119.784 820.623 120.324C821.18 120.864 821.617 121.551 821.935 122.386C822.254 123.216 822.413 124.205 822.413 125.352V126.298H811.683V124.219H819.455C819.45 123.628 819.322 123.102 819.072 122.642C818.822 122.176 818.472 121.81 818.023 121.543C817.58 121.276 817.063 121.142 816.472 121.142C815.842 121.142 815.288 121.295 814.81 121.602C814.333 121.903 813.961 122.301 813.694 122.795C813.433 123.284 813.299 123.821 813.293 124.406V126.222C813.293 126.983 813.433 127.636 813.711 128.182C813.989 128.722 814.379 129.136 814.879 129.426C815.379 129.71 815.964 129.852 816.634 129.852C817.083 129.852 817.489 129.79 817.853 129.665C818.217 129.534 818.532 129.344 818.799 129.094C819.066 128.844 819.268 128.534 819.404 128.165L822.285 128.489C822.103 129.25 821.756 129.915 821.245 130.483C820.739 131.045 820.092 131.483 819.302 131.795C818.512 132.102 817.609 132.256 816.592 132.256ZM835.369 122.369L832.557 122.676C832.477 122.392 832.338 122.125 832.139 121.875C831.946 121.625 831.685 121.423 831.355 121.27C831.026 121.116 830.622 121.04 830.145 121.04C829.503 121.04 828.963 121.179 828.526 121.457C828.094 121.736 827.881 122.097 827.886 122.54C827.881 122.92 828.02 123.23 828.304 123.469C828.594 123.707 829.071 123.903 829.736 124.057L831.969 124.534C833.207 124.801 834.128 125.224 834.73 125.804C835.338 126.384 835.645 127.142 835.651 128.08C835.645 128.903 835.403 129.631 834.926 130.261C834.455 130.886 833.798 131.375 832.957 131.727C832.116 132.08 831.151 132.256 830.06 132.256C828.457 132.256 827.168 131.92 826.19 131.25C825.213 130.574 824.631 129.634 824.443 128.429L827.452 128.139C827.588 128.73 827.878 129.176 828.321 129.477C828.764 129.778 829.341 129.929 830.051 129.929C830.784 129.929 831.372 129.778 831.815 129.477C832.264 129.176 832.489 128.804 832.489 128.361C832.489 127.986 832.344 127.676 832.054 127.432C831.77 127.187 831.327 127 830.724 126.869L828.491 126.401C827.236 126.139 826.307 125.699 825.705 125.08C825.102 124.455 824.804 123.665 824.81 122.71C824.804 121.903 825.023 121.205 825.466 120.614C825.915 120.017 826.537 119.557 827.332 119.233C828.134 118.903 829.057 118.739 830.102 118.739C831.636 118.739 832.844 119.065 833.724 119.719C834.611 120.372 835.159 121.256 835.369 122.369ZM848.541 122.369L845.729 122.676C845.649 122.392 845.51 122.125 845.311 121.875C845.118 121.625 844.857 121.423 844.527 121.27C844.197 121.116 843.794 121.04 843.317 121.04C842.675 121.04 842.135 121.179 841.697 121.457C841.266 121.736 841.053 122.097 841.058 122.54C841.053 122.92 841.192 123.23 841.476 123.469C841.766 123.707 842.243 123.903 842.908 124.057L845.141 124.534C846.379 124.801 847.3 125.224 847.902 125.804C848.51 126.384 848.817 127.142 848.822 128.08C848.817 128.903 848.575 129.631 848.098 130.261C847.626 130.886 846.97 131.375 846.129 131.727C845.288 132.08 844.322 132.256 843.232 132.256C841.629 132.256 840.339 131.92 839.362 131.25C838.385 130.574 837.803 129.634 837.615 128.429L840.624 128.139C840.76 128.73 841.05 129.176 841.493 129.477C841.936 129.778 842.513 129.929 843.223 129.929C843.956 129.929 844.544 129.778 844.987 129.477C845.436 129.176 845.661 128.804 845.661 128.361C845.661 127.986 845.516 127.676 845.226 127.432C844.942 127.187 844.499 127 843.896 126.869L841.663 126.401C840.408 126.139 839.479 125.699 838.876 125.08C838.274 124.455 837.976 123.665 837.982 122.71C837.976 121.903 838.195 121.205 838.638 120.614C839.087 120.017 839.709 119.557 840.504 119.233C841.305 118.903 842.229 118.739 843.274 118.739C844.808 118.739 846.016 119.065 846.896 119.719C847.783 120.372 848.331 121.256 848.541 122.369ZM851.366 132V118.909H854.452V132H851.366ZM852.918 117.051C852.429 117.051 852.009 116.889 851.656 116.565C851.304 116.236 851.128 115.841 851.128 115.381C851.128 114.915 851.304 114.52 851.656 114.196C852.009 113.866 852.429 113.702 852.918 113.702C853.412 113.702 853.832 113.866 854.179 114.196C854.531 114.52 854.707 114.915 854.707 115.381C854.707 115.841 854.531 116.236 854.179 116.565C853.832 116.889 853.412 117.051 852.918 117.051ZM860.71 124.33V132H857.624V118.909H860.573V121.134H860.727C861.028 120.401 861.508 119.818 862.167 119.386C862.832 118.955 863.653 118.739 864.63 118.739C865.533 118.739 866.32 118.932 866.991 119.318C867.667 119.705 868.19 120.264 868.559 120.997C868.934 121.73 869.119 122.619 869.113 123.665V132H866.028V124.142C866.028 123.267 865.8 122.582 865.346 122.088C864.897 121.594 864.275 121.347 863.479 121.347C862.94 121.347 862.46 121.466 862.039 121.705C861.624 121.937 861.298 122.276 861.059 122.719C860.826 123.162 860.71 123.699 860.71 124.33ZM877.942 137.182C876.835 137.182 875.883 137.031 875.087 136.73C874.292 136.435 873.653 136.037 873.17 135.537C872.687 135.037 872.352 134.483 872.164 133.875L874.942 133.202C875.067 133.457 875.249 133.71 875.488 133.96C875.727 134.216 876.048 134.426 876.451 134.591C876.86 134.761 877.374 134.847 877.994 134.847C878.869 134.847 879.593 134.634 880.167 134.207C880.741 133.787 881.028 133.094 881.028 132.128V129.648H880.874C880.715 129.966 880.482 130.293 880.175 130.628C879.874 130.963 879.474 131.244 878.974 131.472C878.479 131.699 877.857 131.812 877.107 131.812C876.102 131.812 875.19 131.577 874.371 131.105C873.559 130.628 872.911 129.918 872.428 128.974C871.951 128.026 871.712 126.838 871.712 125.412C871.712 123.974 871.951 122.761 872.428 121.773C872.911 120.778 873.562 120.026 874.38 119.514C875.198 118.997 876.11 118.739 877.116 118.739C877.883 118.739 878.513 118.869 879.008 119.131C879.508 119.386 879.906 119.696 880.201 120.06C880.496 120.418 880.721 120.756 880.874 121.074H881.045V118.909H884.087V132.213C884.087 133.332 883.82 134.259 883.286 134.991C882.752 135.724 882.022 136.273 881.096 136.636C880.17 137 879.119 137.182 877.942 137.182ZM877.968 129.392C878.621 129.392 879.178 129.233 879.638 128.915C880.099 128.597 880.448 128.139 880.687 127.543C880.925 126.946 881.045 126.23 881.045 125.395C881.045 124.571 880.925 123.849 880.687 123.23C880.454 122.611 880.107 122.131 879.647 121.79C879.192 121.443 878.633 121.27 877.968 121.27C877.281 121.27 876.707 121.449 876.246 121.807C875.786 122.165 875.44 122.656 875.207 123.281C874.974 123.901 874.857 124.605 874.857 125.395C874.857 126.196 874.974 126.898 875.207 127.5C875.445 128.097 875.795 128.562 876.255 128.898C876.721 129.227 877.292 129.392 877.968 129.392ZM770.768 161.256C769.461 161.256 768.339 160.969 767.402 160.395C766.47 159.821 765.751 159.028 765.245 158.017C764.745 157 764.495 155.83 764.495 154.506C764.495 153.176 764.751 152.003 765.262 150.986C765.774 149.963 766.495 149.168 767.427 148.599C768.365 148.026 769.473 147.739 770.751 147.739C771.814 147.739 772.754 147.935 773.572 148.327C774.396 148.713 775.052 149.261 775.541 149.972C776.029 150.676 776.308 151.5 776.376 152.443H773.427C773.308 151.812 773.024 151.287 772.575 150.866C772.132 150.44 771.538 150.227 770.794 150.227C770.163 150.227 769.609 150.398 769.132 150.739C768.654 151.074 768.282 151.557 768.015 152.188C767.754 152.818 767.623 153.574 767.623 154.455C767.623 155.347 767.754 156.114 768.015 156.756C768.277 157.392 768.643 157.884 769.115 158.23C769.592 158.571 770.152 158.741 770.794 158.741C771.248 158.741 771.654 158.656 772.012 158.486C772.376 158.31 772.68 158.057 772.924 157.727C773.169 157.398 773.336 156.997 773.427 156.526H776.376C776.302 157.452 776.029 158.273 775.558 158.989C775.086 159.699 774.444 160.256 773.632 160.659C772.819 161.057 771.865 161.256 770.768 161.256ZM784.62 161.256C783.341 161.256 782.233 160.974 781.296 160.412C780.358 159.849 779.631 159.062 779.114 158.051C778.603 157.04 778.347 155.858 778.347 154.506C778.347 153.153 778.603 151.969 779.114 150.952C779.631 149.935 780.358 149.145 781.296 148.582C782.233 148.02 783.341 147.739 784.62 147.739C785.898 147.739 787.006 148.02 787.944 148.582C788.881 149.145 789.605 149.935 790.117 150.952C790.634 151.969 790.892 153.153 790.892 154.506C790.892 155.858 790.634 157.04 790.117 158.051C789.605 159.062 788.881 159.849 787.944 160.412C787.006 160.974 785.898 161.256 784.62 161.256ZM784.637 158.784C785.33 158.784 785.909 158.594 786.375 158.213C786.841 157.827 787.188 157.31 787.415 156.662C787.648 156.014 787.765 155.293 787.765 154.497C787.765 153.696 787.648 152.972 787.415 152.324C787.188 151.67 786.841 151.151 786.375 150.764C785.909 150.378 785.33 150.185 784.637 150.185C783.926 150.185 783.336 150.378 782.864 150.764C782.398 151.151 782.049 151.67 781.816 152.324C781.588 152.972 781.475 153.696 781.475 154.497C781.475 155.293 781.588 156.014 781.816 156.662C782.049 157.31 782.398 157.827 782.864 158.213C783.336 158.594 783.926 158.784 784.637 158.784ZM793.511 161V147.909H796.46V150.134H796.613C796.886 149.384 797.338 148.798 797.968 148.378C798.599 147.952 799.352 147.739 800.227 147.739C801.113 147.739 801.86 147.955 802.468 148.386C803.082 148.812 803.514 149.395 803.764 150.134H803.9C804.19 149.406 804.679 148.827 805.366 148.395C806.059 147.957 806.88 147.739 807.829 147.739C809.034 147.739 810.017 148.119 810.778 148.881C811.539 149.642 811.92 150.753 811.92 152.213V161H808.826V152.69C808.826 151.878 808.61 151.284 808.179 150.909C807.747 150.528 807.218 150.338 806.593 150.338C805.849 150.338 805.267 150.571 804.846 151.037C804.431 151.497 804.224 152.097 804.224 152.835V161H801.199V152.562C801.199 151.886 800.994 151.347 800.585 150.943C800.181 150.54 799.653 150.338 799 150.338C798.556 150.338 798.153 150.452 797.789 150.679C797.426 150.901 797.136 151.216 796.92 151.625C796.704 152.028 796.596 152.5 796.596 153.04V161H793.511ZM815.05 161V147.909H817.999V150.134H818.152C818.425 149.384 818.877 148.798 819.507 148.378C820.138 147.952 820.891 147.739 821.766 147.739C822.652 147.739 823.4 147.955 824.007 148.386C824.621 148.812 825.053 149.395 825.303 150.134H825.439C825.729 149.406 826.218 148.827 826.905 148.395C827.598 147.957 828.419 147.739 829.368 147.739C830.573 147.739 831.556 148.119 832.317 148.881C833.078 149.642 833.459 150.753 833.459 152.213V161H830.365V152.69C830.365 151.878 830.15 151.284 829.718 150.909C829.286 150.528 828.757 150.338 828.132 150.338C827.388 150.338 826.806 150.571 826.385 151.037C825.971 151.497 825.763 152.097 825.763 152.835V161H822.738V152.562C822.738 151.886 822.533 151.347 822.124 150.943C821.721 150.54 821.192 150.338 820.539 150.338C820.096 150.338 819.692 150.452 819.328 150.679C818.965 150.901 818.675 151.216 818.459 151.625C818.243 152.028 818.135 152.5 818.135 153.04V161H815.05ZM840.356 161.264C839.527 161.264 838.779 161.116 838.115 160.821C837.456 160.52 836.933 160.077 836.547 159.491C836.166 158.906 835.975 158.185 835.975 157.327C835.975 156.588 836.112 155.977 836.385 155.494C836.657 155.011 837.029 154.625 837.501 154.335C837.973 154.045 838.504 153.827 839.095 153.679C839.691 153.526 840.308 153.415 840.944 153.347C841.711 153.267 842.333 153.196 842.811 153.134C843.288 153.065 843.635 152.963 843.85 152.827C844.072 152.685 844.183 152.466 844.183 152.17V152.119C844.183 151.477 843.993 150.98 843.612 150.628C843.231 150.276 842.683 150.099 841.967 150.099C841.211 150.099 840.612 150.264 840.169 150.594C839.731 150.923 839.436 151.312 839.282 151.761L836.402 151.352C836.629 150.557 837.004 149.892 837.527 149.358C838.049 148.818 838.689 148.415 839.444 148.148C840.2 147.875 841.035 147.739 841.95 147.739C842.581 147.739 843.208 147.812 843.833 147.96C844.458 148.108 845.029 148.352 845.547 148.693C846.064 149.028 846.478 149.486 846.791 150.065C847.109 150.645 847.268 151.369 847.268 152.239V161H844.302V159.202H844.2C844.012 159.565 843.748 159.906 843.407 160.224C843.072 160.537 842.649 160.79 842.137 160.983C841.632 161.17 841.038 161.264 840.356 161.264ZM841.157 158.997C841.777 158.997 842.314 158.875 842.768 158.631C843.223 158.381 843.572 158.051 843.816 157.642C844.066 157.233 844.191 156.787 844.191 156.304V154.761C844.095 154.841 843.93 154.915 843.697 154.983C843.47 155.051 843.214 155.111 842.93 155.162C842.646 155.213 842.365 155.259 842.086 155.298C841.808 155.338 841.566 155.372 841.362 155.401C840.902 155.463 840.49 155.565 840.126 155.707C839.762 155.849 839.475 156.048 839.265 156.304C839.055 156.554 838.95 156.878 838.95 157.276C838.95 157.844 839.157 158.273 839.572 158.562C839.987 158.852 840.515 158.997 841.157 158.997ZM853.456 153.33V161H850.37V147.909H853.319V150.134H853.473C853.774 149.401 854.254 148.818 854.913 148.386C855.578 147.955 856.399 147.739 857.376 147.739C858.279 147.739 859.066 147.932 859.737 148.318C860.413 148.705 860.936 149.264 861.305 149.997C861.68 150.73 861.865 151.619 861.859 152.665V161H858.774V153.142C858.774 152.267 858.547 151.582 858.092 151.088C857.643 150.594 857.021 150.347 856.225 150.347C855.686 150.347 855.206 150.466 854.785 150.705C854.37 150.937 854.044 151.276 853.805 151.719C853.572 152.162 853.456 152.699 853.456 153.33ZM869.853 161.23C868.825 161.23 867.904 160.966 867.092 160.438C866.279 159.909 865.637 159.142 865.166 158.136C864.694 157.131 864.458 155.909 864.458 154.472C864.458 153.017 864.697 151.79 865.174 150.79C865.657 149.784 866.308 149.026 867.126 148.514C867.944 147.997 868.856 147.739 869.862 147.739C870.629 147.739 871.26 147.869 871.754 148.131C872.248 148.386 872.64 148.696 872.93 149.06C873.22 149.418 873.444 149.756 873.603 150.074H873.731V143.545H876.825V161H873.791V158.938H873.603C873.444 159.256 873.214 159.594 872.913 159.952C872.612 160.304 872.214 160.605 871.72 160.855C871.225 161.105 870.603 161.23 869.853 161.23ZM870.714 158.699C871.368 158.699 871.924 158.523 872.385 158.17C872.845 157.812 873.194 157.315 873.433 156.679C873.672 156.043 873.791 155.301 873.791 154.455C873.791 153.608 873.672 152.872 873.433 152.247C873.2 151.622 872.853 151.136 872.393 150.79C871.939 150.443 871.379 150.27 870.714 150.27C870.027 150.27 869.453 150.449 868.993 150.807C868.532 151.165 868.186 151.659 867.953 152.29C867.72 152.92 867.603 153.642 867.603 154.455C867.603 155.273 867.72 156.003 867.953 156.645C868.191 157.281 868.541 157.784 869.001 158.153C869.467 158.517 870.038 158.699 870.714 158.699Z" fill="#61A8E8"/>
<path d="M821 589C835.728 589 847.667 584.523 847.667 579C847.667 573.477 835.728 569 821 569C806.272 569 794.333 573.477 794.333 579C794.333 584.523 806.272 589 821 589Z" stroke="#FF6D74" stroke-width="2.75" stroke-linecap="round" stroke-linejoin="round"/>
<path d="M794.333 579V599C794.333 601.652 797.143 604.196 802.144 606.071C807.145 607.946 813.928 609 821 609C828.072 609 834.855 607.946 839.856 606.071C844.857 604.196 847.667 601.652 847.667 599V579" stroke="#FF6D74" stroke-width="2.75" stroke-linecap="round" stroke-linejoin="round"/>
<path d="M794.333 599V619C794.333 621.652 797.143 624.196 802.144 626.071C807.145 627.946 813.928 629 821 629C828.072 629 834.855 627.946 839.856 626.071C844.857 624.196 847.667 621.652 847.667 619V599" stroke="#FF6D74" stroke-width="2.75" stroke-linecap="round" stroke-linejoin="round"/>
<path d="M775.166 500.435H771.978C771.887 499.912 771.72 499.449 771.475 499.045C771.231 498.636 770.927 498.29 770.564 498.006C770.2 497.722 769.785 497.509 769.319 497.366C768.859 497.219 768.362 497.145 767.828 497.145C766.879 497.145 766.038 497.384 765.305 497.861C764.572 498.332 763.998 499.026 763.583 499.94C763.169 500.849 762.961 501.96 762.961 503.273C762.961 504.608 763.169 505.733 763.583 506.648C764.004 507.557 764.578 508.244 765.305 508.71C766.038 509.17 766.876 509.401 767.819 509.401C768.342 509.401 768.831 509.332 769.285 509.196C769.745 509.054 770.157 508.847 770.521 508.574C770.89 508.301 771.2 507.966 771.45 507.568C771.706 507.17 771.882 506.716 771.978 506.205L775.166 506.222C775.047 507.051 774.788 507.83 774.39 508.557C773.998 509.284 773.484 509.926 772.848 510.483C772.211 511.034 771.467 511.466 770.615 511.778C769.762 512.085 768.816 512.239 767.777 512.239C766.243 512.239 764.873 511.884 763.669 511.173C762.464 510.463 761.515 509.438 760.822 508.097C760.129 506.756 759.782 505.148 759.782 503.273C759.782 501.392 760.132 499.784 760.831 498.449C761.529 497.108 762.481 496.082 763.686 495.372C764.89 494.662 766.254 494.307 767.777 494.307C768.748 494.307 769.652 494.443 770.487 494.716C771.322 494.989 772.066 495.389 772.72 495.918C773.373 496.44 773.91 497.082 774.331 497.844C774.757 498.599 775.035 499.463 775.166 500.435ZM783.635 512.256C782.357 512.256 781.249 511.974 780.311 511.412C779.374 510.849 778.647 510.062 778.13 509.051C777.618 508.04 777.363 506.858 777.363 505.506C777.363 504.153 777.618 502.969 778.13 501.952C778.647 500.935 779.374 500.145 780.311 499.582C781.249 499.02 782.357 498.739 783.635 498.739C784.914 498.739 786.022 499.02 786.959 499.582C787.897 500.145 788.621 500.935 789.132 501.952C789.65 502.969 789.908 504.153 789.908 505.506C789.908 506.858 789.65 508.04 789.132 509.051C788.621 510.062 787.897 510.849 786.959 511.412C786.022 511.974 784.914 512.256 783.635 512.256ZM783.652 509.784C784.346 509.784 784.925 509.594 785.391 509.213C785.857 508.827 786.203 508.31 786.431 507.662C786.664 507.014 786.78 506.293 786.78 505.497C786.78 504.696 786.664 503.972 786.431 503.324C786.203 502.67 785.857 502.151 785.391 501.764C784.925 501.378 784.346 501.185 783.652 501.185C782.942 501.185 782.351 501.378 781.88 501.764C781.414 502.151 781.064 502.67 780.831 503.324C780.604 503.972 780.49 504.696 780.49 505.497C780.49 506.293 780.604 507.014 780.831 507.662C781.064 508.31 781.414 508.827 781.88 509.213C782.351 509.594 782.942 509.784 783.652 509.784ZM792.527 512V498.909H795.475V501.134H795.629C795.902 500.384 796.353 499.798 796.984 499.378C797.615 498.952 798.368 498.739 799.243 498.739C800.129 498.739 800.876 498.955 801.484 499.386C802.098 499.812 802.529 500.395 802.779 501.134H802.916C803.206 500.406 803.694 499.827 804.382 499.395C805.075 498.957 805.896 498.739 806.845 498.739C808.049 498.739 809.032 499.119 809.794 499.881C810.555 500.642 810.936 501.753 810.936 503.213V512H807.842V503.69C807.842 502.878 807.626 502.284 807.194 501.909C806.762 501.528 806.234 501.338 805.609 501.338C804.865 501.338 804.282 501.571 803.862 502.037C803.447 502.497 803.24 503.097 803.24 503.835V512H800.214V503.562C800.214 502.886 800.01 502.347 799.6 501.943C799.197 501.54 798.669 501.338 798.015 501.338C797.572 501.338 797.169 501.452 796.805 501.679C796.441 501.901 796.152 502.216 795.936 502.625C795.72 503.028 795.612 503.5 795.612 504.04V512H792.527ZM814.066 512V498.909H817.015V501.134H817.168C817.441 500.384 817.892 499.798 818.523 499.378C819.154 498.952 819.907 498.739 820.782 498.739C821.668 498.739 822.415 498.955 823.023 499.386C823.637 499.812 824.069 500.395 824.319 501.134H824.455C824.745 500.406 825.233 499.827 825.921 499.395C826.614 498.957 827.435 498.739 828.384 498.739C829.588 498.739 830.571 499.119 831.333 499.881C832.094 500.642 832.475 501.753 832.475 503.213V512H829.381V503.69C829.381 502.878 829.165 502.284 828.733 501.909C828.301 501.528 827.773 501.338 827.148 501.338C826.404 501.338 825.821 501.571 825.401 502.037C824.986 502.497 824.779 503.097 824.779 503.835V512H821.753V503.562C821.753 502.886 821.549 502.347 821.14 501.943C820.736 501.54 820.208 501.338 819.554 501.338C819.111 501.338 818.708 501.452 818.344 501.679C817.98 501.901 817.691 502.216 817.475 502.625C817.259 503.028 817.151 503.5 817.151 504.04V512H814.066ZM839.372 512.264C838.542 512.264 837.795 512.116 837.13 511.821C836.471 511.52 835.949 511.077 835.562 510.491C835.181 509.906 834.991 509.185 834.991 508.327C834.991 507.588 835.127 506.977 835.4 506.494C835.673 506.011 836.045 505.625 836.517 505.335C836.988 505.045 837.52 504.827 838.11 504.679C838.707 504.526 839.324 504.415 839.96 504.347C840.727 504.267 841.349 504.196 841.826 504.134C842.304 504.065 842.65 503.963 842.866 503.827C843.088 503.685 843.199 503.466 843.199 503.17V503.119C843.199 502.477 843.008 501.98 842.627 501.628C842.247 501.276 841.699 501.099 840.983 501.099C840.227 501.099 839.627 501.264 839.184 501.594C838.747 501.923 838.451 502.312 838.298 502.761L835.417 502.352C835.645 501.557 836.02 500.892 836.542 500.358C837.065 499.818 837.704 499.415 838.46 499.148C839.216 498.875 840.051 498.739 840.966 498.739C841.596 498.739 842.224 498.812 842.849 498.96C843.474 499.108 844.045 499.352 844.562 499.693C845.079 500.028 845.494 500.486 845.806 501.065C846.125 501.645 846.284 502.369 846.284 503.239V512H843.318V510.202H843.216C843.028 510.565 842.764 510.906 842.423 511.224C842.088 511.537 841.664 511.79 841.153 511.983C840.647 512.17 840.054 512.264 839.372 512.264ZM840.173 509.997C840.792 509.997 841.329 509.875 841.784 509.631C842.238 509.381 842.588 509.051 842.832 508.642C843.082 508.233 843.207 507.787 843.207 507.304V505.761C843.11 505.841 842.946 505.915 842.713 505.983C842.485 506.051 842.23 506.111 841.946 506.162C841.662 506.213 841.38 506.259 841.102 506.298C840.824 506.338 840.582 506.372 840.377 506.401C839.917 506.463 839.505 506.565 839.142 506.707C838.778 506.849 838.491 507.048 838.281 507.304C838.071 507.554 837.966 507.878 837.966 508.276C837.966 508.844 838.173 509.273 838.588 509.562C839.002 509.852 839.531 509.997 840.173 509.997ZM852.471 504.33V512H849.386V498.909H852.335V501.134H852.488C852.789 500.401 853.27 499.818 853.929 499.386C854.593 498.955 855.414 498.739 856.392 498.739C857.295 498.739 858.082 498.932 858.752 499.318C859.429 499.705 859.951 500.264 860.321 500.997C860.696 501.73 860.88 502.619 860.875 503.665V512H857.789V504.142C857.789 503.267 857.562 502.582 857.108 502.088C856.659 501.594 856.037 501.347 855.241 501.347C854.701 501.347 854.221 501.466 853.801 501.705C853.386 501.937 853.059 502.276 852.821 502.719C852.588 503.162 852.471 503.699 852.471 504.33ZM868.869 512.23C867.841 512.23 866.92 511.966 866.108 511.438C865.295 510.909 864.653 510.142 864.181 509.136C863.71 508.131 863.474 506.909 863.474 505.472C863.474 504.017 863.713 502.79 864.19 501.79C864.673 500.784 865.324 500.026 866.142 499.514C866.96 498.997 867.872 498.739 868.877 498.739C869.645 498.739 870.275 498.869 870.77 499.131C871.264 499.386 871.656 499.696 871.946 500.06C872.235 500.418 872.46 500.756 872.619 501.074H872.747V494.545H875.841V512H872.806V509.938H872.619C872.46 510.256 872.23 510.594 871.929 510.952C871.627 511.304 871.23 511.605 870.735 511.855C870.241 512.105 869.619 512.23 868.869 512.23ZM869.73 509.699C870.383 509.699 870.94 509.523 871.4 509.17C871.86 508.812 872.21 508.315 872.449 507.679C872.687 507.043 872.806 506.301 872.806 505.455C872.806 504.608 872.687 503.872 872.449 503.247C872.216 502.622 871.869 502.136 871.409 501.79C870.954 501.443 870.395 501.27 869.73 501.27C869.042 501.27 868.468 501.449 868.008 501.807C867.548 502.165 867.201 502.659 866.968 503.29C866.735 503.92 866.619 504.642 866.619 505.455C866.619 506.273 866.735 507.003 866.968 507.645C867.207 508.281 867.556 508.784 868.017 509.153C868.483 509.517 869.054 509.699 869.73 509.699ZM743.659 541V527.909H746.651V530.091H746.787C747.026 529.335 747.435 528.753 748.015 528.344C748.6 527.929 749.267 527.722 750.017 527.722C750.188 527.722 750.378 527.73 750.588 527.747C750.804 527.759 750.983 527.778 751.125 527.807V530.645C750.995 530.599 750.787 530.56 750.503 530.526C750.225 530.486 749.955 530.466 749.694 530.466C749.131 530.466 748.625 530.588 748.176 530.832C747.733 531.071 747.384 531.403 747.128 531.83C746.873 532.256 746.745 532.747 746.745 533.304V541H743.659ZM758.431 541.256C757.119 541.256 755.985 540.983 755.031 540.438C754.082 539.886 753.352 539.108 752.841 538.102C752.329 537.091 752.074 535.901 752.074 534.531C752.074 533.185 752.329 532.003 752.841 530.986C753.358 529.963 754.079 529.168 755.005 528.599C755.931 528.026 757.02 527.739 758.27 527.739C759.076 527.739 759.838 527.869 760.554 528.131C761.275 528.386 761.912 528.784 762.463 529.324C763.02 529.864 763.457 530.551 763.775 531.386C764.093 532.216 764.252 533.205 764.252 534.352V535.298H753.522V533.219H761.295C761.289 532.628 761.162 532.102 760.912 531.642C760.662 531.176 760.312 530.81 759.863 530.543C759.42 530.276 758.903 530.142 758.312 530.142C757.681 530.142 757.127 530.295 756.65 530.602C756.173 530.903 755.801 531.301 755.534 531.795C755.272 532.284 755.139 532.821 755.133 533.406V535.222C755.133 535.983 755.272 536.636 755.551 537.182C755.829 537.722 756.218 538.136 756.718 538.426C757.218 538.71 757.804 538.852 758.474 538.852C758.923 538.852 759.329 538.79 759.693 538.665C760.056 538.534 760.372 538.344 760.639 538.094C760.906 537.844 761.108 537.534 761.244 537.165L764.125 537.489C763.943 538.25 763.596 538.915 763.085 539.483C762.579 540.045 761.931 540.483 761.142 540.795C760.352 541.102 759.449 541.256 758.431 541.256ZM777.209 531.369L774.397 531.676C774.317 531.392 774.178 531.125 773.979 530.875C773.786 530.625 773.525 530.423 773.195 530.27C772.865 530.116 772.462 530.04 771.985 530.04C771.343 530.04 770.803 530.179 770.365 530.457C769.934 530.736 769.721 531.097 769.726 531.54C769.721 531.92 769.86 532.23 770.144 532.469C770.434 532.707 770.911 532.903 771.576 533.057L773.809 533.534C775.047 533.801 775.968 534.224 776.57 534.804C777.178 535.384 777.485 536.142 777.49 537.08C777.485 537.903 777.243 538.631 776.766 539.261C776.294 539.886 775.638 540.375 774.797 540.727C773.956 541.08 772.99 541.256 771.9 541.256C770.297 541.256 769.007 540.92 768.03 540.25C767.053 539.574 766.471 538.634 766.283 537.429L769.292 537.139C769.428 537.73 769.718 538.176 770.161 538.477C770.604 538.778 771.181 538.929 771.891 538.929C772.624 538.929 773.212 538.778 773.655 538.477C774.104 538.176 774.328 537.804 774.328 537.361C774.328 536.986 774.184 536.676 773.894 536.432C773.61 536.187 773.167 536 772.564 535.869L770.331 535.401C769.076 535.139 768.147 534.699 767.544 534.08C766.942 533.455 766.644 532.665 766.65 531.71C766.644 530.903 766.863 530.205 767.306 529.614C767.755 529.017 768.377 528.557 769.172 528.233C769.973 527.903 770.897 527.739 771.942 527.739C773.476 527.739 774.684 528.065 775.564 528.719C776.451 529.372 776.999 530.256 777.209 531.369ZM788.378 535.494V527.909H791.463V541H788.472V538.673H788.336C788.04 539.406 787.554 540.006 786.878 540.472C786.208 540.937 785.381 541.17 784.398 541.17C783.54 541.17 782.782 540.98 782.123 540.599C781.469 540.213 780.958 539.653 780.588 538.92C780.219 538.182 780.034 537.29 780.034 536.244V527.909H783.12V535.767C783.12 536.597 783.347 537.256 783.801 537.744C784.256 538.233 784.853 538.477 785.591 538.477C786.046 538.477 786.486 538.366 786.912 538.145C787.338 537.923 787.688 537.594 787.961 537.156C788.239 536.713 788.378 536.159 788.378 535.494ZM797.721 523.545V541H794.636V523.545H797.721ZM807.431 527.909V530.295H799.905V527.909H807.431ZM801.763 524.773H804.848V537.062C804.848 537.477 804.911 537.795 805.036 538.017C805.167 538.233 805.337 538.381 805.547 538.46C805.757 538.54 805.99 538.58 806.246 538.58C806.439 538.58 806.615 538.565 806.775 538.537C806.939 538.509 807.064 538.483 807.15 538.46L807.669 540.872C807.505 540.929 807.269 540.991 806.962 541.06C806.661 541.128 806.292 541.168 805.854 541.179C805.081 541.202 804.385 541.085 803.766 540.83C803.147 540.568 802.655 540.165 802.292 539.619C801.934 539.074 801.757 538.392 801.763 537.574V524.773ZM821.674 541.256C820.368 541.256 819.245 540.969 818.308 540.395C817.376 539.821 816.657 539.028 816.152 538.017C815.652 537 815.402 535.83 815.402 534.506C815.402 533.176 815.657 532.003 816.169 530.986C816.68 529.963 817.402 529.168 818.333 528.599C819.271 528.026 820.379 527.739 821.657 527.739C822.72 527.739 823.66 527.935 824.478 528.327C825.302 528.713 825.958 529.261 826.447 529.972C826.936 530.676 827.214 531.5 827.282 532.443H824.333C824.214 531.812 823.93 531.287 823.481 530.866C823.038 530.44 822.444 530.227 821.7 530.227C821.069 530.227 820.515 530.398 820.038 530.739C819.561 531.074 819.189 531.557 818.922 532.188C818.66 532.818 818.529 533.574 818.529 534.455C818.529 535.347 818.66 536.114 818.922 536.756C819.183 537.392 819.549 537.884 820.021 538.23C820.498 538.571 821.058 538.741 821.7 538.741C822.154 538.741 822.561 538.656 822.919 538.486C823.282 538.31 823.586 538.057 823.831 537.727C824.075 537.398 824.243 536.997 824.333 536.526H827.282C827.208 537.452 826.936 538.273 826.464 538.989C825.993 539.699 825.35 540.256 824.538 540.659C823.725 541.057 822.771 541.256 821.674 541.256ZM833.583 541.264C832.753 541.264 832.006 541.116 831.341 540.821C830.682 540.52 830.159 540.077 829.773 539.491C829.392 538.906 829.202 538.185 829.202 537.327C829.202 536.588 829.338 535.977 829.611 535.494C829.884 535.011 830.256 534.625 830.728 534.335C831.199 534.045 831.73 533.827 832.321 533.679C832.918 533.526 833.534 533.415 834.171 533.347C834.938 533.267 835.56 533.196 836.037 533.134C836.515 533.065 836.861 532.963 837.077 532.827C837.299 532.685 837.409 532.466 837.409 532.17V532.119C837.409 531.477 837.219 530.98 836.838 530.628C836.458 530.276 835.909 530.099 835.194 530.099C834.438 530.099 833.838 530.264 833.395 530.594C832.958 530.923 832.662 531.312 832.509 531.761L829.628 531.352C829.855 530.557 830.23 529.892 830.753 529.358C831.276 528.818 831.915 528.415 832.671 528.148C833.426 527.875 834.262 527.739 835.176 527.739C835.807 527.739 836.435 527.812 837.06 527.96C837.685 528.108 838.256 528.352 838.773 528.693C839.29 529.028 839.705 529.486 840.017 530.065C840.336 530.645 840.495 531.369 840.495 532.239V541H837.529V539.202H837.426C837.239 539.565 836.975 539.906 836.634 540.224C836.299 540.537 835.875 540.79 835.364 540.983C834.858 541.17 834.265 541.264 833.583 541.264ZM834.384 538.997C835.003 538.997 835.54 538.875 835.995 538.631C836.449 538.381 836.799 538.051 837.043 537.642C837.293 537.233 837.418 536.787 837.418 536.304V534.761C837.321 534.841 837.157 534.915 836.924 534.983C836.696 535.051 836.441 535.111 836.157 535.162C835.873 535.213 835.591 535.259 835.313 535.298C835.034 535.338 834.793 535.372 834.588 535.401C834.128 535.463 833.716 535.565 833.353 535.707C832.989 535.849 832.702 536.048 832.492 536.304C832.282 536.554 832.176 536.878 832.176 537.276C832.176 537.844 832.384 538.273 832.799 538.562C833.213 538.852 833.742 538.997 834.384 538.997ZM849.307 541.256C848 541.256 846.878 540.969 845.941 540.395C845.009 539.821 844.29 539.028 843.784 538.017C843.284 537 843.034 535.83 843.034 534.506C843.034 533.176 843.29 532.003 843.801 530.986C844.313 529.963 845.034 529.168 845.966 528.599C846.904 528.026 848.012 527.739 849.29 527.739C850.353 527.739 851.293 527.935 852.111 528.327C852.935 528.713 853.591 529.261 854.08 529.972C854.569 530.676 854.847 531.5 854.915 532.443H851.966C851.847 531.812 851.563 531.287 851.114 530.866C850.671 530.44 850.077 530.227 849.333 530.227C848.702 530.227 848.148 530.398 847.671 530.739C847.194 531.074 846.821 531.557 846.554 532.188C846.293 532.818 846.162 533.574 846.162 534.455C846.162 535.347 846.293 536.114 846.554 536.756C846.816 537.392 847.182 537.884 847.654 538.23C848.131 538.571 848.691 538.741 849.333 538.741C849.787 538.741 850.194 538.656 850.551 538.486C850.915 538.31 851.219 538.057 851.463 537.727C851.708 537.398 851.875 536.997 851.966 536.526H854.915C854.841 537.452 854.569 538.273 854.097 538.989C853.625 539.699 852.983 540.256 852.171 540.659C851.358 541.057 850.404 541.256 849.307 541.256ZM860.534 533.33V541H857.449V523.545H860.466V530.134H860.619C860.926 529.395 861.4 528.812 862.042 528.386C862.69 527.955 863.514 527.739 864.514 527.739C865.423 527.739 866.216 527.929 866.892 528.31C867.568 528.69 868.091 529.247 868.46 529.98C868.835 530.713 869.022 531.608 869.022 532.665V541H865.937V533.142C865.937 532.261 865.71 531.577 865.255 531.088C864.806 530.594 864.176 530.347 863.363 530.347C862.818 530.347 862.329 530.466 861.897 530.705C861.471 530.937 861.136 531.276 860.892 531.719C860.653 532.162 860.534 532.699 860.534 533.33ZM877.963 541.256C876.65 541.256 875.517 540.983 874.562 540.438C873.613 539.886 872.883 539.108 872.372 538.102C871.86 537.091 871.605 535.901 871.605 534.531C871.605 533.185 871.86 532.003 872.372 530.986C872.889 529.963 873.61 529.168 874.537 528.599C875.463 528.026 876.551 527.739 877.801 527.739C878.608 527.739 879.369 527.869 880.085 528.131C880.806 528.386 881.443 528.784 881.994 529.324C882.551 529.864 882.988 530.551 883.306 531.386C883.625 532.216 883.784 533.205 883.784 534.352V535.298H873.054V533.219H880.826C880.821 532.628 880.693 532.102 880.443 531.642C880.193 531.176 879.843 530.81 879.395 530.543C878.951 530.276 878.434 530.142 877.843 530.142C877.213 530.142 876.659 530.295 876.181 530.602C875.704 530.903 875.332 531.301 875.065 531.795C874.804 532.284 874.67 532.821 874.664 533.406V535.222C874.664 535.983 874.804 536.636 875.082 537.182C875.36 537.722 875.75 538.136 876.25 538.426C876.75 538.71 877.335 538.852 878.005 538.852C878.454 538.852 878.86 538.79 879.224 538.665C879.588 538.534 879.903 538.344 880.17 538.094C880.437 537.844 880.639 537.534 880.775 537.165L883.656 537.489C883.474 538.25 883.127 538.915 882.616 539.483C882.11 540.045 881.463 540.483 880.673 540.795C879.883 541.102 878.98 541.256 877.963 541.256ZM891.252 541.23C890.223 541.23 889.303 540.966 888.49 540.438C887.678 539.909 887.036 539.142 886.564 538.136C886.093 537.131 885.857 535.909 885.857 534.472C885.857 533.017 886.096 531.79 886.573 530.79C887.056 529.784 887.706 529.026 888.525 528.514C889.343 527.997 890.255 527.739 891.26 527.739C892.027 527.739 892.658 527.869 893.152 528.131C893.647 528.386 894.039 528.696 894.328 529.06C894.618 529.418 894.843 529.756 895.002 530.074H895.13V523.545H898.223V541H895.189V538.938H895.002C894.843 539.256 894.613 539.594 894.311 539.952C894.01 540.304 893.613 540.605 893.118 540.855C892.624 541.105 892.002 541.23 891.252 541.23ZM892.113 538.699C892.766 538.699 893.323 538.523 893.783 538.17C894.243 537.812 894.593 537.315 894.831 536.679C895.07 536.043 895.189 535.301 895.189 534.455C895.189 533.608 895.07 532.872 894.831 532.247C894.598 531.622 894.252 531.136 893.792 530.79C893.337 530.443 892.777 530.27 892.113 530.27C891.425 530.27 890.851 530.449 890.391 530.807C889.931 531.165 889.584 531.659 889.351 532.29C889.118 532.92 889.002 533.642 889.002 534.455C889.002 535.273 889.118 536.003 889.351 536.645C889.59 537.281 889.939 537.784 890.4 538.153C890.865 538.517 891.436 538.699 892.113 538.699Z" fill="#FF6D74"/>
<path d="M516.612 175V157.545H527.794V160.196H519.774V164.935H527.027V167.585H519.774V175H516.612ZM530.538 175V161.909H533.624V175H530.538ZM532.089 160.051C531.601 160.051 531.18 159.889 530.828 159.565C530.476 159.236 530.3 158.841 530.3 158.381C530.3 157.915 530.476 157.52 530.828 157.196C531.18 156.866 531.601 156.702 532.089 156.702C532.584 156.702 533.004 156.866 533.351 157.196C533.703 157.52 533.879 157.915 533.879 158.381C533.879 158.841 533.703 159.236 533.351 159.565C533.004 159.889 532.584 160.051 532.089 160.051ZM536.796 175V161.909H539.788V164.091H539.924C540.163 163.335 540.572 162.753 541.151 162.344C541.737 161.929 542.404 161.722 543.154 161.722C543.325 161.722 543.515 161.73 543.725 161.747C543.941 161.759 544.12 161.778 544.262 161.807V164.645C544.131 164.599 543.924 164.56 543.64 164.526C543.362 164.486 543.092 164.466 542.83 164.466C542.268 164.466 541.762 164.588 541.313 164.832C540.87 165.071 540.521 165.403 540.265 165.83C540.009 166.256 539.881 166.747 539.881 167.304V175H536.796ZM556.658 165.369L553.846 165.676C553.766 165.392 553.627 165.125 553.428 164.875C553.235 164.625 552.974 164.423 552.644 164.27C552.315 164.116 551.911 164.04 551.434 164.04C550.792 164.04 550.252 164.179 549.815 164.457C549.383 164.736 549.17 165.097 549.175 165.54C549.17 165.92 549.309 166.23 549.593 166.469C549.883 166.707 550.36 166.903 551.025 167.057L553.258 167.534C554.496 167.801 555.417 168.224 556.019 168.804C556.627 169.384 556.934 170.142 556.94 171.08C556.934 171.903 556.692 172.631 556.215 173.261C555.744 173.886 555.087 174.375 554.246 174.727C553.406 175.08 552.44 175.256 551.349 175.256C549.746 175.256 548.457 174.92 547.479 174.25C546.502 173.574 545.92 172.634 545.732 171.429L548.741 171.139C548.877 171.73 549.167 172.176 549.61 172.477C550.053 172.778 550.63 172.929 551.34 172.929C552.073 172.929 552.661 172.778 553.104 172.477C553.553 172.176 553.778 171.804 553.778 171.361C553.778 170.986 553.633 170.676 553.343 170.432C553.059 170.187 552.616 170 552.013 169.869L549.781 169.401C548.525 169.139 547.596 168.699 546.994 168.08C546.391 167.455 546.093 166.665 546.099 165.71C546.093 164.903 546.312 164.205 546.755 163.614C547.204 163.017 547.826 162.557 548.621 162.233C549.423 161.903 550.346 161.739 551.391 161.739C552.925 161.739 554.133 162.065 555.013 162.719C555.9 163.372 556.448 164.256 556.658 165.369ZM566.021 161.909V164.295H558.495V161.909H566.021ZM560.353 158.773H563.438V171.062C563.438 171.477 563.501 171.795 563.626 172.017C563.756 172.233 563.927 172.381 564.137 172.46C564.347 172.54 564.58 172.58 564.836 172.58C565.029 172.58 565.205 172.565 565.364 172.537C565.529 172.509 565.654 172.483 565.739 172.46L566.259 174.872C566.094 174.929 565.859 174.991 565.552 175.06C565.251 175.128 564.881 175.168 564.444 175.179C563.671 175.202 562.975 175.085 562.356 174.83C561.737 174.568 561.245 174.165 560.881 173.619C560.523 173.074 560.347 172.392 560.353 171.574V158.773ZM581.091 161.909V164.295H573.565V161.909H581.091ZM575.423 158.773H578.509V171.062C578.509 171.477 578.571 171.795 578.696 172.017C578.827 172.233 578.997 172.381 579.207 172.46C579.418 172.54 579.651 172.58 579.906 172.58C580.099 172.58 580.276 172.565 580.435 172.537C580.599 172.509 580.724 172.483 580.81 172.46L581.33 174.872C581.165 174.929 580.929 174.991 580.622 175.06C580.321 175.128 579.952 175.168 579.514 175.179C578.741 175.202 578.045 175.085 577.426 174.83C576.807 174.568 576.315 174.165 575.952 173.619C575.594 173.074 575.418 172.392 575.423 171.574V158.773ZM583.671 175V161.909H586.756V175H583.671ZM585.222 160.051C584.734 160.051 584.313 159.889 583.961 159.565C583.609 159.236 583.433 158.841 583.433 158.381C583.433 157.915 583.609 157.52 583.961 157.196C584.313 156.866 584.734 156.702 585.222 156.702C585.717 156.702 586.137 156.866 586.484 157.196C586.836 157.52 587.012 157.915 587.012 158.381C587.012 158.841 586.836 159.236 586.484 159.565C586.137 159.889 585.717 160.051 585.222 160.051ZM589.929 175V161.909H592.878V164.134H593.031C593.304 163.384 593.756 162.798 594.386 162.378C595.017 161.952 595.77 161.739 596.645 161.739C597.531 161.739 598.278 161.955 598.886 162.386C599.5 162.812 599.932 163.395 600.182 164.134H600.318C600.608 163.406 601.097 162.827 601.784 162.395C602.477 161.957 603.298 161.739 604.247 161.739C605.452 161.739 606.435 162.119 607.196 162.881C607.957 163.642 608.338 164.753 608.338 166.213V175H605.244V166.69C605.244 165.878 605.028 165.284 604.597 164.909C604.165 164.528 603.636 164.338 603.011 164.338C602.267 164.338 601.685 164.571 601.264 165.037C600.849 165.497 600.642 166.097 600.642 166.835V175H597.616V166.562C597.616 165.886 597.412 165.347 597.003 164.943C596.599 164.54 596.071 164.338 595.418 164.338C594.974 164.338 594.571 164.452 594.207 164.679C593.844 164.901 593.554 165.216 593.338 165.625C593.122 166.028 593.014 166.5 593.014 167.04V175H589.929ZM617.263 175.256C615.951 175.256 614.817 174.983 613.863 174.438C612.914 173.886 612.184 173.108 611.673 172.102C611.161 171.091 610.906 169.901 610.906 168.531C610.906 167.185 611.161 166.003 611.673 164.986C612.19 163.963 612.911 163.168 613.837 162.599C614.763 162.026 615.852 161.739 617.102 161.739C617.908 161.739 618.67 161.869 619.386 162.131C620.107 162.386 620.744 162.784 621.295 163.324C621.852 163.864 622.289 164.551 622.607 165.386C622.925 166.216 623.085 167.205 623.085 168.352V169.298H612.354V167.219H620.127C620.121 166.628 619.994 166.102 619.744 165.642C619.494 165.176 619.144 164.81 618.695 164.543C618.252 164.276 617.735 164.142 617.144 164.142C616.513 164.142 615.96 164.295 615.482 164.602C615.005 164.903 614.633 165.301 614.366 165.795C614.104 166.284 613.971 166.821 613.965 167.406V169.222C613.965 169.983 614.104 170.636 614.383 171.182C614.661 171.722 615.05 172.136 615.55 172.426C616.05 172.71 616.636 172.852 617.306 172.852C617.755 172.852 618.161 172.79 618.525 172.665C618.888 172.534 619.204 172.344 619.471 172.094C619.738 171.844 619.94 171.534 620.076 171.165L622.957 171.489C622.775 172.25 622.428 172.915 621.917 173.483C621.411 174.045 620.763 174.483 619.974 174.795C619.184 175.102 618.281 175.256 617.263 175.256ZM509.602 196.884C509.602 194.753 509.884 192.795 510.446 191.011C511.014 189.222 511.858 187.568 512.977 186.051H515.884C515.452 186.614 515.048 187.304 514.673 188.122C514.298 188.935 513.972 189.827 513.693 190.798C513.42 191.764 513.205 192.767 513.045 193.807C512.892 194.847 512.815 195.872 512.815 196.884C512.815 198.23 512.949 199.594 513.216 200.974C513.489 202.355 513.855 203.634 514.315 204.81C514.781 205.991 515.304 206.957 515.884 207.707H512.977C511.858 206.19 511.014 204.54 510.446 202.756C509.884 200.966 509.602 199.009 509.602 196.884ZM521.366 196.33V204H518.281V190.909H521.229V193.134H521.383C521.684 192.401 522.164 191.818 522.823 191.386C523.488 190.955 524.309 190.739 525.286 190.739C526.19 190.739 526.977 190.932 527.647 191.318C528.323 191.705 528.846 192.264 529.215 192.997C529.59 193.73 529.775 194.619 529.769 195.665V204H526.684V196.142C526.684 195.267 526.457 194.582 526.002 194.088C525.553 193.594 524.931 193.347 524.136 193.347C523.596 193.347 523.116 193.466 522.695 193.705C522.281 193.937 521.954 194.276 521.715 194.719C521.482 195.162 521.366 195.699 521.366 196.33ZM538.616 204.256C537.337 204.256 536.229 203.974 535.292 203.412C534.354 202.849 533.627 202.062 533.11 201.051C532.599 200.04 532.343 198.858 532.343 197.506C532.343 196.153 532.599 194.969 533.11 193.952C533.627 192.935 534.354 192.145 535.292 191.582C536.229 191.02 537.337 190.739 538.616 190.739C539.894 190.739 541.002 191.02 541.94 191.582C542.877 192.145 543.602 192.935 544.113 193.952C544.63 194.969 544.888 196.153 544.888 197.506C544.888 198.858 544.63 200.04 544.113 201.051C543.602 202.062 542.877 202.849 541.94 203.412C541.002 203.974 539.894 204.256 538.616 204.256ZM538.633 201.784C539.326 201.784 539.906 201.594 540.371 201.213C540.837 200.827 541.184 200.31 541.411 199.662C541.644 199.014 541.761 198.293 541.761 197.497C541.761 196.696 541.644 195.972 541.411 195.324C541.184 194.67 540.837 194.151 540.371 193.764C539.906 193.378 539.326 193.185 538.633 193.185C537.923 193.185 537.332 193.378 536.86 193.764C536.394 194.151 536.045 194.67 535.812 195.324C535.585 195.972 535.471 196.696 535.471 197.497C535.471 198.293 535.585 199.014 535.812 199.662C536.045 200.31 536.394 200.827 536.86 201.213C537.332 201.594 537.923 201.784 538.633 201.784ZM559.17 204.256C557.864 204.256 556.741 203.969 555.804 203.395C554.872 202.821 554.153 202.028 553.648 201.017C553.148 200 552.898 198.83 552.898 197.506C552.898 196.176 553.153 195.003 553.665 193.986C554.176 192.963 554.898 192.168 555.83 191.599C556.767 191.026 557.875 190.739 559.153 190.739C560.216 190.739 561.156 190.935 561.974 191.327C562.798 191.713 563.455 192.261 563.943 192.972C564.432 193.676 564.71 194.5 564.778 195.443H561.83C561.71 194.812 561.426 194.287 560.977 193.866C560.534 193.44 559.94 193.227 559.196 193.227C558.565 193.227 558.011 193.398 557.534 193.739C557.057 194.074 556.685 194.557 556.418 195.188C556.156 195.818 556.026 196.574 556.026 197.455C556.026 198.347 556.156 199.114 556.418 199.756C556.679 200.392 557.045 200.884 557.517 201.23C557.994 201.571 558.554 201.741 559.196 201.741C559.651 201.741 560.057 201.656 560.415 201.486C560.778 201.31 561.082 201.057 561.327 200.727C561.571 200.398 561.739 199.997 561.83 199.526H564.778C564.705 200.452 564.432 201.273 563.96 201.989C563.489 202.699 562.847 203.256 562.034 203.659C561.222 204.057 560.267 204.256 559.17 204.256ZM571.079 204.264C570.249 204.264 569.502 204.116 568.837 203.821C568.178 203.52 567.656 203.077 567.269 202.491C566.888 201.906 566.698 201.185 566.698 200.327C566.698 199.588 566.835 198.977 567.107 198.494C567.38 198.011 567.752 197.625 568.224 197.335C568.695 197.045 569.227 196.827 569.817 196.679C570.414 196.526 571.031 196.415 571.667 196.347C572.434 196.267 573.056 196.196 573.533 196.134C574.011 196.065 574.357 195.963 574.573 195.827C574.795 195.685 574.906 195.466 574.906 195.17V195.119C574.906 194.477 574.715 193.98 574.335 193.628C573.954 193.276 573.406 193.099 572.69 193.099C571.934 193.099 571.335 193.264 570.891 193.594C570.454 193.923 570.158 194.312 570.005 194.761L567.124 194.352C567.352 193.557 567.727 192.892 568.249 192.358C568.772 191.818 569.411 191.415 570.167 191.148C570.923 190.875 571.758 190.739 572.673 190.739C573.303 190.739 573.931 190.812 574.556 190.96C575.181 191.108 575.752 191.352 576.269 191.693C576.786 192.028 577.201 192.486 577.513 193.065C577.832 193.645 577.991 194.369 577.991 195.239V204H575.025V202.202H574.923C574.735 202.565 574.471 202.906 574.13 203.224C573.795 203.537 573.371 203.79 572.86 203.983C572.354 204.17 571.761 204.264 571.079 204.264ZM571.88 201.997C572.499 201.997 573.036 201.875 573.491 201.631C573.945 201.381 574.295 201.051 574.539 200.642C574.789 200.233 574.914 199.787 574.914 199.304V197.761C574.817 197.841 574.653 197.915 574.42 197.983C574.192 198.051 573.937 198.111 573.653 198.162C573.369 198.213 573.087 198.259 572.809 198.298C572.531 198.338 572.289 198.372 572.085 198.401C571.624 198.463 571.212 198.565 570.849 198.707C570.485 198.849 570.198 199.048 569.988 199.304C569.778 199.554 569.673 199.878 569.673 200.276C569.673 200.844 569.88 201.273 570.295 201.562C570.71 201.852 571.238 201.997 571.88 201.997ZM586.803 204.256C585.496 204.256 584.374 203.969 583.437 203.395C582.505 202.821 581.786 202.028 581.281 201.017C580.781 200 580.531 198.83 580.531 197.506C580.531 196.176 580.786 195.003 581.298 193.986C581.809 192.963 582.531 192.168 583.462 191.599C584.4 191.026 585.508 190.739 586.786 190.739C587.849 190.739 588.789 190.935 589.607 191.327C590.431 191.713 591.087 192.261 591.576 192.972C592.065 193.676 592.343 194.5 592.411 195.443H589.462C589.343 194.812 589.059 194.287 588.61 193.866C588.167 193.44 587.573 193.227 586.829 193.227C586.198 193.227 585.644 193.398 585.167 193.739C584.69 194.074 584.317 194.557 584.05 195.188C583.789 195.818 583.658 196.574 583.658 197.455C583.658 198.347 583.789 199.114 584.05 199.756C584.312 200.392 584.678 200.884 585.15 201.23C585.627 201.571 586.187 201.741 586.829 201.741C587.283 201.741 587.69 201.656 588.048 201.486C588.411 201.31 588.715 201.057 588.96 200.727C589.204 200.398 589.371 199.997 589.462 199.526H592.411C592.337 200.452 592.065 201.273 591.593 201.989C591.121 202.699 590.479 203.256 589.667 203.659C588.854 204.057 587.9 204.256 586.803 204.256ZM598.03 196.33V204H594.945V186.545H597.962V193.134H598.115C598.422 192.395 598.896 191.812 599.538 191.386C600.186 190.955 601.01 190.739 602.01 190.739C602.919 190.739 603.712 190.929 604.388 191.31C605.064 191.69 605.587 192.247 605.956 192.98C606.331 193.713 606.518 194.608 606.518 195.665V204H603.433V196.142C603.433 195.261 603.206 194.577 602.751 194.088C602.303 193.594 601.672 193.347 600.859 193.347C600.314 193.347 599.825 193.466 599.393 193.705C598.967 193.937 598.632 194.276 598.388 194.719C598.149 195.162 598.03 195.699 598.03 196.33ZM615.459 204.256C614.146 204.256 613.013 203.983 612.058 203.438C611.109 202.886 610.379 202.108 609.868 201.102C609.357 200.091 609.101 198.901 609.101 197.531C609.101 196.185 609.357 195.003 609.868 193.986C610.385 192.963 611.107 192.168 612.033 191.599C612.959 191.026 614.047 190.739 615.297 190.739C616.104 190.739 616.865 190.869 617.581 191.131C618.303 191.386 618.939 191.784 619.49 192.324C620.047 192.864 620.484 193.551 620.803 194.386C621.121 195.216 621.28 196.205 621.28 197.352V198.298H610.55V196.219H618.322C618.317 195.628 618.189 195.102 617.939 194.642C617.689 194.176 617.339 193.81 616.891 193.543C616.447 193.276 615.93 193.142 615.339 193.142C614.709 193.142 614.155 193.295 613.678 193.602C613.2 193.903 612.828 194.301 612.561 194.795C612.3 195.284 612.166 195.821 612.161 196.406V198.222C612.161 198.983 612.3 199.636 612.578 200.182C612.857 200.722 613.246 201.136 613.746 201.426C614.246 201.71 614.831 201.852 615.501 201.852C615.95 201.852 616.357 201.79 616.72 201.665C617.084 201.534 617.399 201.344 617.666 201.094C617.933 200.844 618.135 200.534 618.271 200.165L621.152 200.489C620.97 201.25 620.624 201.915 620.112 202.483C619.607 203.045 618.959 203.483 618.169 203.795C617.379 204.102 616.476 204.256 615.459 204.256ZM629.396 196.884C629.396 199.009 629.112 200.966 628.543 202.756C627.981 204.54 627.14 206.19 626.021 207.707H623.114C623.552 207.145 623.955 206.457 624.325 205.645C624.7 204.832 625.023 203.94 625.296 202.969C625.575 201.997 625.79 200.991 625.944 199.952C626.103 198.912 626.183 197.889 626.183 196.884C626.183 195.537 626.046 194.173 625.773 192.793C625.506 191.412 625.14 190.131 624.674 188.949C624.214 187.767 623.694 186.801 623.114 186.051H626.021C627.14 187.568 627.981 189.222 628.543 191.011C629.112 192.795 629.396 194.753 629.396 196.884Z" fill="#61A8E8"/>
<g clip-path="url(#clip0_609_185)">
<path d="M624.044 261.319L544.356 282.672" stroke="#61A8E8" stroke-width="2.75" stroke-linecap="round" stroke-linejoin="round"/>
<path d="M614.322 278.159L624.044 261.319L607.204 251.596" stroke="#61A8E8" stroke-width="2.75" stroke-linecap="round" stroke-linejoin="round"/>
<path d="M573.058 336.666L556.218 326.943L565.941 310.103" stroke="#61A8E8" stroke-width="2.75" stroke-linecap="round" stroke-linejoin="round"/>
<path d="M556.218 326.943L635.907 305.591" stroke="#61A8E8" stroke-width="2.75" stroke-linecap="round" stroke-linejoin="round"/>
</g>
<path d="M518.657 550.344C518.577 549.599 518.242 549.02 517.651 548.605C517.066 548.19 516.304 547.983 515.367 547.983C514.708 547.983 514.142 548.082 513.671 548.281C513.199 548.48 512.838 548.75 512.588 549.091C512.338 549.432 512.211 549.821 512.205 550.259C512.205 550.622 512.287 550.937 512.452 551.205C512.623 551.472 512.853 551.699 513.142 551.886C513.432 552.068 513.753 552.222 514.105 552.347C514.458 552.472 514.813 552.577 515.171 552.662L516.807 553.071C517.466 553.224 518.1 553.432 518.708 553.693C519.321 553.955 519.87 554.284 520.353 554.682C520.841 555.08 521.228 555.56 521.512 556.122C521.796 556.685 521.938 557.344 521.938 558.099C521.938 559.122 521.676 560.023 521.154 560.801C520.631 561.574 519.875 562.179 518.887 562.616C517.904 563.048 516.713 563.264 515.316 563.264C513.958 563.264 512.779 563.054 511.779 562.634C510.784 562.213 510.006 561.599 509.444 560.793C508.887 559.986 508.586 559.003 508.54 557.844H511.651C511.696 558.452 511.884 558.957 512.213 559.361C512.543 559.764 512.972 560.065 513.5 560.264C514.034 560.463 514.631 560.562 515.29 560.562C515.978 560.562 516.58 560.46 517.097 560.256C517.62 560.045 518.029 559.756 518.324 559.386C518.62 559.011 518.77 558.574 518.776 558.074C518.77 557.619 518.637 557.244 518.375 556.949C518.114 556.648 517.748 556.398 517.276 556.199C516.81 555.994 516.265 555.812 515.64 555.653L513.654 555.142C512.216 554.773 511.08 554.213 510.245 553.463C509.415 552.707 509 551.705 509 550.455C509 549.426 509.279 548.526 509.836 547.753C510.398 546.98 511.162 546.381 512.128 545.955C513.094 545.523 514.188 545.307 515.409 545.307C516.648 545.307 517.733 545.523 518.665 545.955C519.603 546.381 520.338 546.974 520.873 547.736C521.407 548.491 521.682 549.361 521.699 550.344H518.657ZM530.416 563.256C529.103 563.256 527.97 562.983 527.015 562.438C526.066 561.886 525.336 561.108 524.825 560.102C524.314 559.091 524.058 557.901 524.058 556.531C524.058 555.185 524.314 554.003 524.825 552.986C525.342 551.963 526.064 551.168 526.99 550.599C527.916 550.026 529.004 549.739 530.254 549.739C531.061 549.739 531.822 549.869 532.538 550.131C533.26 550.386 533.896 550.784 534.447 551.324C535.004 551.864 535.441 552.551 535.76 553.386C536.078 554.216 536.237 555.205 536.237 556.352V557.298H525.507V555.219H533.279C533.274 554.628 533.146 554.102 532.896 553.642C532.646 553.176 532.297 552.81 531.848 552.543C531.404 552.276 530.887 552.142 530.297 552.142C529.666 552.142 529.112 552.295 528.635 552.602C528.157 552.903 527.785 553.301 527.518 553.795C527.257 554.284 527.123 554.821 527.118 555.406V557.222C527.118 557.983 527.257 558.636 527.535 559.182C527.814 559.722 528.203 560.136 528.703 560.426C529.203 560.71 529.788 560.852 530.458 560.852C530.907 560.852 531.314 560.79 531.677 560.665C532.041 560.534 532.356 560.344 532.623 560.094C532.89 559.844 533.092 559.534 533.228 559.165L536.109 559.489C535.927 560.25 535.581 560.915 535.069 561.483C534.564 562.045 533.916 562.483 533.126 562.795C532.336 563.102 531.433 563.256 530.416 563.256ZM544.557 563.256C543.25 563.256 542.128 562.969 541.191 562.395C540.259 561.821 539.54 561.028 539.034 560.017C538.534 559 538.284 557.83 538.284 556.506C538.284 555.176 538.54 554.003 539.051 552.986C539.563 551.963 540.284 551.168 541.216 550.599C542.154 550.026 543.262 549.739 544.54 549.739C545.603 549.739 546.543 549.935 547.361 550.327C548.185 550.713 548.841 551.261 549.33 551.972C549.819 552.676 550.097 553.5 550.165 554.443H547.216C547.097 553.812 546.813 553.287 546.364 552.866C545.921 552.44 545.327 552.227 544.583 552.227C543.952 552.227 543.398 552.398 542.921 552.739C542.444 553.074 542.071 553.557 541.804 554.188C541.543 554.818 541.412 555.574 541.412 556.455C541.412 557.347 541.543 558.114 541.804 558.756C542.066 559.392 542.432 559.884 542.904 560.23C543.381 560.571 543.941 560.741 544.583 560.741C545.037 560.741 545.444 560.656 545.801 560.486C546.165 560.31 546.469 560.057 546.713 559.727C546.958 559.398 547.125 558.997 547.216 558.526H550.165C550.091 559.452 549.819 560.273 549.347 560.989C548.875 561.699 548.233 562.256 547.421 562.659C546.608 563.057 545.654 563.256 544.557 563.256ZM558.409 563.256C557.13 563.256 556.022 562.974 555.085 562.412C554.147 561.849 553.42 561.062 552.903 560.051C552.392 559.04 552.136 557.858 552.136 556.506C552.136 555.153 552.392 553.969 552.903 552.952C553.42 551.935 554.147 551.145 555.085 550.582C556.022 550.02 557.13 549.739 558.409 549.739C559.687 549.739 560.795 550.02 561.733 550.582C562.67 551.145 563.395 551.935 563.906 552.952C564.423 553.969 564.681 555.153 564.681 556.506C564.681 557.858 564.423 559.04 563.906 560.051C563.395 561.062 562.67 561.849 561.733 562.412C560.795 562.974 559.687 563.256 558.409 563.256ZM558.426 560.784C559.119 560.784 559.699 560.594 560.164 560.213C560.63 559.827 560.977 559.31 561.204 558.662C561.437 558.014 561.554 557.293 561.554 556.497C561.554 555.696 561.437 554.972 561.204 554.324C560.977 553.67 560.63 553.151 560.164 552.764C559.699 552.378 559.119 552.185 558.426 552.185C557.716 552.185 557.125 552.378 556.653 552.764C556.187 553.151 555.838 553.67 555.605 554.324C555.377 554.972 555.264 555.696 555.264 556.497C555.264 557.293 555.377 558.014 555.605 558.662C555.838 559.31 556.187 559.827 556.653 560.213C557.125 560.594 557.716 560.784 558.426 560.784ZM570.385 555.33V563H567.3V549.909H570.249V552.134H570.402C570.703 551.401 571.184 550.818 571.843 550.386C572.507 549.955 573.328 549.739 574.306 549.739C575.209 549.739 575.996 549.932 576.667 550.318C577.343 550.705 577.865 551.264 578.235 551.997C578.61 552.73 578.794 553.619 578.789 554.665V563H575.703V555.142C575.703 554.267 575.476 553.582 575.022 553.088C574.573 552.594 573.951 552.347 573.155 552.347C572.615 552.347 572.135 552.466 571.715 552.705C571.3 552.937 570.973 553.276 570.735 553.719C570.502 554.162 570.385 554.699 570.385 555.33ZM586.783 563.23C585.755 563.23 584.834 562.966 584.022 562.438C583.209 561.909 582.567 561.142 582.096 560.136C581.624 559.131 581.388 557.909 581.388 556.472C581.388 555.017 581.627 553.79 582.104 552.79C582.587 551.784 583.238 551.026 584.056 550.514C584.874 549.997 585.786 549.739 586.792 549.739C587.559 549.739 588.189 549.869 588.684 550.131C589.178 550.386 589.57 550.696 589.86 551.06C590.15 551.418 590.374 551.756 590.533 552.074H590.661V545.545H593.755V563H590.721V560.938H590.533C590.374 561.256 590.144 561.594 589.843 561.952C589.542 562.304 589.144 562.605 588.65 562.855C588.155 563.105 587.533 563.23 586.783 563.23ZM587.644 560.699C588.297 560.699 588.854 560.523 589.314 560.17C589.775 559.812 590.124 559.315 590.363 558.679C590.601 558.043 590.721 557.301 590.721 556.455C590.721 555.608 590.601 554.872 590.363 554.247C590.13 553.622 589.783 553.136 589.323 552.79C588.868 552.443 588.309 552.27 587.644 552.27C586.956 552.27 586.382 552.449 585.922 552.807C585.462 553.165 585.115 553.659 584.882 554.29C584.65 554.92 584.533 555.642 584.533 556.455C584.533 557.273 584.65 558.003 584.882 558.645C585.121 559.281 585.471 559.784 585.931 560.153C586.397 560.517 586.968 560.699 587.644 560.699ZM609.532 549.909V552.295H602.007V549.909H609.532ZM603.865 546.773H606.95V559.062C606.95 559.477 607.012 559.795 607.137 560.017C607.268 560.233 607.439 560.381 607.649 560.46C607.859 560.54 608.092 560.58 608.348 560.58C608.541 560.58 608.717 560.565 608.876 560.537C609.041 560.509 609.166 560.483 609.251 560.46L609.771 562.872C609.606 562.929 609.37 562.991 609.064 563.06C608.762 563.128 608.393 563.168 607.956 563.179C607.183 563.202 606.487 563.085 605.868 562.83C605.248 562.568 604.757 562.165 604.393 561.619C604.035 561.074 603.859 560.392 603.865 559.574V546.773ZM612.113 563V549.909H615.198V563H612.113ZM613.664 548.051C613.175 548.051 612.755 547.889 612.402 547.565C612.05 547.236 611.874 546.841 611.874 546.381C611.874 545.915 612.05 545.52 612.402 545.196C612.755 544.866 613.175 544.702 613.664 544.702C614.158 544.702 614.578 544.866 614.925 545.196C615.277 545.52 615.453 545.915 615.453 546.381C615.453 546.841 615.277 547.236 614.925 547.565C614.578 547.889 614.158 548.051 613.664 548.051ZM618.37 563V549.909H621.319V552.134H621.473C621.745 551.384 622.197 550.798 622.828 550.378C623.458 549.952 624.211 549.739 625.086 549.739C625.973 549.739 626.72 549.955 627.328 550.386C627.941 550.812 628.373 551.395 628.623 552.134H628.76C629.049 551.406 629.538 550.827 630.225 550.395C630.919 549.957 631.74 549.739 632.689 549.739C633.893 549.739 634.876 550.119 635.637 550.881C636.399 551.642 636.779 552.753 636.779 554.213V563H633.686V554.69C633.686 553.878 633.47 553.284 633.038 552.909C632.606 552.528 632.078 552.338 631.453 552.338C630.708 552.338 630.126 552.571 629.706 553.037C629.291 553.497 629.083 554.097 629.083 554.835V563H626.058V554.562C626.058 553.886 625.853 553.347 625.444 552.943C625.041 552.54 624.512 552.338 623.859 552.338C623.416 552.338 623.012 552.452 622.649 552.679C622.285 552.901 621.995 553.216 621.779 553.625C621.564 554.028 621.456 554.5 621.456 555.04V563H618.37ZM645.705 563.256C644.392 563.256 643.259 562.983 642.304 562.438C641.355 561.886 640.625 561.108 640.114 560.102C639.603 559.091 639.347 557.901 639.347 556.531C639.347 555.185 639.603 554.003 640.114 552.986C640.631 551.963 641.353 551.168 642.279 550.599C643.205 550.026 644.293 549.739 645.543 549.739C646.35 549.739 647.111 549.869 647.827 550.131C648.549 550.386 649.185 550.784 649.736 551.324C650.293 551.864 650.73 552.551 651.049 553.386C651.367 554.216 651.526 555.205 651.526 556.352V557.298H640.796V555.219H648.569C648.563 554.628 648.435 554.102 648.185 553.642C647.935 553.176 647.586 552.81 647.137 552.543C646.694 552.276 646.176 552.142 645.586 552.142C644.955 552.142 644.401 552.295 643.924 552.602C643.446 552.903 643.074 553.301 642.807 553.795C642.546 554.284 642.412 554.821 642.407 555.406V557.222C642.407 557.983 642.546 558.636 642.824 559.182C643.103 559.722 643.492 560.136 643.992 560.426C644.492 560.71 645.077 560.852 645.748 560.852C646.196 560.852 646.603 560.79 646.966 560.665C647.33 560.534 647.645 560.344 647.912 560.094C648.179 559.844 648.381 559.534 648.517 559.165L651.398 559.489C651.216 560.25 650.87 560.915 650.358 561.483C649.853 562.045 649.205 562.483 648.415 562.795C647.625 563.102 646.722 563.256 645.705 563.256ZM530.216 584.884C530.216 582.753 530.497 580.795 531.059 579.011C531.627 577.222 532.471 575.568 533.591 574.051H536.497C536.065 574.614 535.662 575.304 535.287 576.122C534.912 576.935 534.585 577.827 534.306 578.798C534.034 579.764 533.818 580.767 533.659 581.807C533.505 582.847 533.429 583.872 533.429 584.884C533.429 586.23 533.562 587.594 533.829 588.974C534.102 590.355 534.468 591.634 534.929 592.81C535.395 593.991 535.917 594.957 536.497 595.707H533.591C532.471 594.19 531.627 592.54 531.059 590.756C530.497 588.966 530.216 587.009 530.216 584.884ZM544.44 592.256C543.133 592.256 542.011 591.969 541.074 591.395C540.142 590.821 539.423 590.028 538.917 589.017C538.417 588 538.167 586.83 538.167 585.506C538.167 584.176 538.423 583.003 538.934 581.986C539.446 580.963 540.167 580.168 541.099 579.599C542.037 579.026 543.145 578.739 544.423 578.739C545.485 578.739 546.426 578.935 547.244 579.327C548.068 579.713 548.724 580.261 549.213 580.972C549.701 581.676 549.98 582.5 550.048 583.443H547.099C546.98 582.812 546.696 582.287 546.247 581.866C545.804 581.44 545.21 581.227 544.466 581.227C543.835 581.227 543.281 581.398 542.804 581.739C542.326 582.074 541.954 582.557 541.687 583.188C541.426 583.818 541.295 584.574 541.295 585.455C541.295 586.347 541.426 587.114 541.687 587.756C541.949 588.392 542.315 588.884 542.787 589.23C543.264 589.571 543.824 589.741 544.466 589.741C544.92 589.741 545.326 589.656 545.684 589.486C546.048 589.31 546.352 589.057 546.596 588.727C546.841 588.398 547.008 587.997 547.099 587.526H550.048C549.974 588.452 549.701 589.273 549.23 589.989C548.758 590.699 548.116 591.256 547.304 591.659C546.491 592.057 545.537 592.256 544.44 592.256ZM556.348 592.264C555.519 592.264 554.772 592.116 554.107 591.821C553.448 591.52 552.925 591.077 552.539 590.491C552.158 589.906 551.968 589.185 551.968 588.327C551.968 587.588 552.104 586.977 552.377 586.494C552.65 586.011 553.022 585.625 553.493 585.335C553.965 585.045 554.496 584.827 555.087 584.679C555.684 584.526 556.3 584.415 556.936 584.347C557.703 584.267 558.326 584.196 558.803 584.134C559.28 584.065 559.627 583.963 559.843 583.827C560.064 583.685 560.175 583.466 560.175 583.17V583.119C560.175 582.477 559.985 581.98 559.604 581.628C559.223 581.276 558.675 581.099 557.959 581.099C557.203 581.099 556.604 581.264 556.161 581.594C555.723 581.923 555.428 582.312 555.275 582.761L552.394 582.352C552.621 581.557 552.996 580.892 553.519 580.358C554.042 579.818 554.681 579.415 555.436 579.148C556.192 578.875 557.027 578.739 557.942 578.739C558.573 578.739 559.201 578.812 559.826 578.96C560.451 579.108 561.022 579.352 561.539 579.693C562.056 580.028 562.471 580.486 562.783 581.065C563.101 581.645 563.26 582.369 563.26 583.239V592H560.294V590.202H560.192C560.005 590.565 559.74 590.906 559.4 591.224C559.064 591.537 558.641 591.79 558.13 591.983C557.624 592.17 557.03 592.264 556.348 592.264ZM557.15 589.997C557.769 589.997 558.306 589.875 558.76 589.631C559.215 589.381 559.564 589.051 559.809 588.642C560.059 588.233 560.184 587.787 560.184 587.304V585.761C560.087 585.841 559.922 585.915 559.689 585.983C559.462 586.051 559.206 586.111 558.922 586.162C558.638 586.213 558.357 586.259 558.078 586.298C557.8 586.338 557.559 586.372 557.354 586.401C556.894 586.463 556.482 586.565 556.118 586.707C555.755 586.849 555.468 587.048 555.257 587.304C555.047 587.554 554.942 587.878 554.942 588.276C554.942 588.844 555.15 589.273 555.564 589.562C555.979 589.852 556.507 589.997 557.15 589.997ZM572.073 592.256C570.766 592.256 569.644 591.969 568.706 591.395C567.775 590.821 567.056 590.028 566.55 589.017C566.05 588 565.8 586.83 565.8 585.506C565.8 584.176 566.056 583.003 566.567 581.986C567.078 580.963 567.8 580.168 568.732 579.599C569.669 579.026 570.777 578.739 572.056 578.739C573.118 578.739 574.059 578.935 574.877 579.327C575.701 579.713 576.357 580.261 576.846 580.972C577.334 581.676 577.613 582.5 577.681 583.443H574.732C574.613 582.812 574.328 582.287 573.88 581.866C573.436 581.44 572.843 581.227 572.098 581.227C571.468 581.227 570.914 581.398 570.436 581.739C569.959 582.074 569.587 582.557 569.32 583.188C569.059 583.818 568.928 584.574 568.928 585.455C568.928 586.347 569.059 587.114 569.32 587.756C569.581 588.392 569.948 588.884 570.419 589.23C570.897 589.571 571.456 589.741 572.098 589.741C572.553 589.741 572.959 589.656 573.317 589.486C573.681 589.31 573.985 589.057 574.229 588.727C574.473 588.398 574.641 587.997 574.732 587.526H577.681C577.607 588.452 577.334 589.273 576.863 589.989C576.391 590.699 575.749 591.256 574.936 591.659C574.124 592.057 573.169 592.256 572.073 592.256ZM583.299 584.33V592H580.214V574.545H583.231V581.134H583.385C583.691 580.395 584.166 579.812 584.808 579.386C585.456 578.955 586.279 578.739 587.279 578.739C588.189 578.739 588.981 578.929 589.657 579.31C590.333 579.69 590.856 580.247 591.225 580.98C591.6 581.713 591.788 582.608 591.788 583.665V592H588.703V584.142C588.703 583.261 588.475 582.577 588.021 582.088C587.572 581.594 586.941 581.347 586.129 581.347C585.583 581.347 585.095 581.466 584.663 581.705C584.237 581.937 583.902 582.276 583.657 582.719C583.419 583.162 583.299 583.699 583.299 584.33ZM600.728 592.256C599.416 592.256 598.282 591.983 597.328 591.438C596.379 590.886 595.649 590.108 595.137 589.102C594.626 588.091 594.37 586.901 594.37 585.531C594.37 584.185 594.626 583.003 595.137 581.986C595.654 580.963 596.376 580.168 597.302 579.599C598.228 579.026 599.316 578.739 600.566 578.739C601.373 578.739 602.135 578.869 602.85 579.131C603.572 579.386 604.208 579.784 604.76 580.324C605.316 580.864 605.754 581.551 606.072 582.386C606.39 583.216 606.549 584.205 606.549 585.352V586.298H595.819V584.219H603.592C603.586 583.628 603.458 583.102 603.208 582.642C602.958 582.176 602.609 581.81 602.16 581.543C601.717 581.276 601.2 581.142 600.609 581.142C599.978 581.142 599.424 581.295 598.947 581.602C598.47 581.903 598.098 582.301 597.831 582.795C597.569 583.284 597.436 583.821 597.43 584.406V586.222C597.43 586.983 597.569 587.636 597.848 588.182C598.126 588.722 598.515 589.136 599.015 589.426C599.515 589.71 600.1 589.852 600.771 589.852C601.22 589.852 601.626 589.79 601.99 589.665C602.353 589.534 602.669 589.344 602.936 589.094C603.203 588.844 603.404 588.534 603.541 588.165L606.422 588.489C606.24 589.25 605.893 589.915 605.382 590.483C604.876 591.045 604.228 591.483 603.439 591.795C602.649 592.102 601.745 592.256 600.728 592.256ZM614.017 592.23C612.989 592.23 612.069 591.966 611.256 591.438C610.444 590.909 609.801 590.142 609.33 589.136C608.858 588.131 608.623 586.909 608.623 585.472C608.623 584.017 608.861 582.79 609.338 581.79C609.821 580.784 610.472 580.026 611.29 579.514C612.108 578.997 613.02 578.739 614.026 578.739C614.793 578.739 615.424 578.869 615.918 579.131C616.412 579.386 616.804 579.696 617.094 580.06C617.384 580.418 617.608 580.756 617.767 581.074H617.895V574.545H620.989V592H617.955V589.938H617.767C617.608 590.256 617.378 590.594 617.077 590.952C616.776 591.304 616.378 591.605 615.884 591.855C615.39 592.105 614.767 592.23 614.017 592.23ZM614.878 589.699C615.532 589.699 616.088 589.523 616.549 589.17C617.009 588.812 617.358 588.315 617.597 587.679C617.836 587.043 617.955 586.301 617.955 585.455C617.955 584.608 617.836 583.872 617.597 583.247C617.364 582.622 617.017 582.136 616.557 581.79C616.103 581.443 615.543 581.27 614.878 581.27C614.191 581.27 613.617 581.449 613.157 581.807C612.696 582.165 612.35 582.659 612.117 583.29C611.884 583.92 611.767 584.642 611.767 585.455C611.767 586.273 611.884 587.003 612.117 587.645C612.355 588.281 612.705 588.784 613.165 589.153C613.631 589.517 614.202 589.699 614.878 589.699ZM629.782 584.884C629.782 587.009 629.498 588.966 628.93 590.756C628.368 592.54 627.527 594.19 626.407 595.707H623.501C623.939 595.145 624.342 594.457 624.711 593.645C625.086 592.832 625.41 591.94 625.683 590.969C625.961 589.997 626.177 588.991 626.331 587.952C626.49 586.912 626.569 585.889 626.569 584.884C626.569 583.537 626.433 582.173 626.16 580.793C625.893 579.412 625.527 578.131 625.061 576.949C624.6 575.767 624.081 574.801 623.501 574.051H626.407C627.527 575.568 628.368 577.222 628.93 579.011C629.498 580.795 629.782 582.753 629.782 584.884Z" fill="#FF6D74"/>
<g clip-path="url(#clip1_609_185)">
<path d="M637.543 474.14L566.096 432.89" stroke="#FF6D74" stroke-width="2.75" stroke-linecap="round" stroke-linejoin="round"/>
<path d="M618.76 479.173L637.543 474.14L632.51 455.357" stroke="#FF6D74" stroke-width="2.75" stroke-linecap="round" stroke-linejoin="round"/>
<path d="M548.212 491.366L543.179 472.583L561.962 467.55" stroke="#FF6D74" stroke-width="2.75" stroke-linecap="round" stroke-linejoin="round"/>
<path d="M543.179 472.583L614.626 513.833" stroke="#FF6D74" stroke-width="2.75" stroke-linecap="round" stroke-linejoin="round"/>
</g>
<line x1="434.5" y1="241.5" x2="434.5" y2="535.5" stroke="#9CA3AF" stroke-width="5" stroke-linecap="round"/>
<path d="M829.5 369.333V392H839.66C840.221 392 840.768 392.166 841.234 392.478C841.7 392.789 842.063 393.231 842.277 393.749C842.492 394.267 842.548 394.836 842.439 395.386C842.329 395.935 842.06 396.44 841.664 396.836L823.003 415.497C822.472 416.028 821.751 416.326 821 416.326C820.249 416.326 819.528 416.028 818.997 415.497L800.337 396.836C799.94 396.44 799.671 395.935 799.561 395.386C799.452 394.836 799.508 394.267 799.723 393.749C799.937 393.231 800.3 392.789 800.766 392.478C801.232 392.166 801.779 392 802.34 392H812.5V369.333C812.5 368.582 812.799 367.861 813.33 367.33C813.861 366.799 814.582 366.5 815.333 366.5H826.667C827.418 366.5 828.139 366.799 828.67 367.33C829.202 367.861 829.5 368.582 829.5 369.333V369.333Z" stroke="#61A8E8" stroke-width="2.75" stroke-linecap="round" stroke-linejoin="round"/>
<defs>
<clipPath id="clip0_609_185">
<rect width="110" height="110" fill="white" transform="translate(522.77 255.24) rotate(-15)"/>
</clipPath>
<clipPath id="clip1_609_185">
<rect width="110" height="110" fill="white" transform="translate(570.229 398.23) rotate(30)"/>
</clipPath>
</defs>
</svg>
