<svg width="980" height="748" viewBox="0 0 980 748" fill="none" xmlns="http://www.w3.org/2000/svg">
<rect x="75" y="37" width="270" height="35" fill="#C4C4C4"/>
<rect x="75.5" y="149.5" width="23" height="34" fill="#C4C4C4" stroke="#9CA3AF"/>
<rect x="99.5" y="149.5" width="23" height="34" fill="#C4C4C4" stroke="#9CA3AF"/>
<rect x="123.5" y="149.5" width="64" height="34" fill="#C4C4C4" stroke="#9CA3AF"/>
<rect x="188.5" y="149.5" width="156" height="34" fill="#C4C4C4" stroke="#9CA3AF"/>
<path d="M210 128L218.66 113L201.34 113L210 128ZM208.5 86L208.5 114.5L211.5 114.5L211.5 86L208.5 86Z" fill="#C4C4C4"/>
<rect x="345" y="37" width="213" height="35" fill="#FFC562"/>
<rect x="359.5" y="214.5" width="14" height="34" fill="#FFC562" stroke="#E08E00"/>
<rect x="374.5" y="214.5" width="37" height="34" fill="#FFC562" stroke="#E08E00"/>
<rect x="-0.5" y="0.5" width="145" height="34" transform="matrix(-1 0 0 1 557 214)" fill="#FFC562" stroke="#E08E00"/>
<rect x="345.5" y="214.5" width="13" height="34" fill="#FFC562" stroke="#E08E00"/>
<path d="M451 198L459.66 183L442.34 183L451 198ZM449.5 86L449.5 184.5L452.5 184.5L452.5 86L449.5 86Z" fill="#FFC562"/>
<rect x="345" y="37" width="213" height="35" fill="#FFC562"/>
<rect x="359.5" y="214.5" width="14" height="34" fill="#FFC562" stroke="#E08E00"/>
<rect x="374.5" y="214.5" width="37" height="34" fill="#FFC562" stroke="#E08E00"/>
<rect x="-0.5" y="0.5" width="145" height="34" transform="matrix(-1 0 0 1 557 214)" fill="#FFC562" stroke="#E08E00"/>
<rect x="345.5" y="214.5" width="13" height="34" fill="#FFC562" stroke="#E08E00"/>
<path d="M451 198L459.66 183L442.34 183L451 198ZM449.5 86L449.5 184.5L452.5 184.5L452.5 86L449.5 86Z" fill="#FFC562"/>
<rect x="558" y="37" width="286" height="35" fill="#FF6D74"/>
<rect x="558.5" y="276.5" width="79" height="34" fill="#FF6D74" stroke="#D1000A"/>
<rect x="638.5" y="276.5" width="79" height="34" fill="#FF6D74" stroke="#D1000A"/>
<rect x="718.5" y="276.5" width="79" height="34" fill="#FF6D74" stroke="#D1000A"/>
<rect x="798.5" y="276.5" width="45" height="34" fill="#FF6D74" stroke="#D1000A"/>
<path d="M701 258L709.66 243L692.34 243L701 258ZM699.5 86L699.5 244.5L702.5 244.5L702.5 86L699.5 86Z" fill="#FF6D74"/>
<rect x="75.5" y="559.5" width="23" height="34" fill="#C4C4C4" stroke="#9CA3AF"/>
<rect x="99.5" y="559.5" width="23" height="34" fill="#C4C4C4" stroke="#9CA3AF"/>
<rect x="123.5" y="559.5" width="64" height="34" fill="#C4C4C4" stroke="#9CA3AF"/>
<rect x="188.5" y="559.5" width="156" height="34" fill="#C4C4C4" stroke="#9CA3AF"/>
<rect x="89.5" y="619.5" width="14" height="34" fill="#FFC562" stroke="#E08E00"/>
<rect x="104.5" y="619.5" width="37" height="34" fill="#FFC562" stroke="#E08E00"/>
<rect x="-0.5" y="0.5" width="145" height="34" transform="matrix(-1 0 0 1 287 619)" fill="#FFC562" stroke="#E08E00"/>
<rect x="75.5" y="619.5" width="13" height="34" fill="#FFC562" stroke="#E08E00"/>
<rect x="345.5" y="679.5" width="79" height="34" fill="#FF6D74" stroke="#D1000A"/>
<rect x="425.5" y="679.5" width="79" height="34" fill="#FF6D74" stroke="#D1000A"/>
<rect x="505.5" y="679.5" width="79" height="34" fill="#FF6D74" stroke="#D1000A"/>
<rect x="585.5" y="679.5" width="45" height="34" fill="#FF6D74" stroke="#D1000A"/>
<line x1="72.5" y1="532.5" x2="72.5" y2="734.5" stroke="#9CA3AF" stroke-width="5" stroke-linecap="round"/>
<line x1="72.5" y1="14.5" x2="72.5" y2="319.5" stroke="#9CA3AF" stroke-width="5" stroke-linecap="round"/>
<line x1="345" y1="598" x2="345" y2="677" stroke="#9CA3AF" stroke-width="2" stroke-linecap="round" stroke-dasharray="10 10"/>
<rect x="230" y="366" width="520" height="118" rx="5" fill="#70AF40"/>
<path d="M366.237 418V397.636H373.496C375.08 397.636 376.393 397.925 377.433 398.501C378.474 399.078 379.253 399.867 379.77 400.868C380.287 401.862 380.545 402.982 380.545 404.229C380.545 405.482 380.284 406.608 379.76 407.609C379.243 408.604 378.461 409.393 377.413 409.976C376.373 410.553 375.063 410.841 373.486 410.841H368.494V408.236H373.207C374.208 408.236 375.02 408.063 375.643 407.719C376.267 407.367 376.724 406.89 377.016 406.287C377.307 405.684 377.453 404.998 377.453 404.229C377.453 403.46 377.307 402.777 377.016 402.18C376.724 401.584 376.263 401.116 375.634 400.778C375.01 400.44 374.188 400.271 373.168 400.271H369.31V418H366.237ZM388.217 418.338C387.249 418.338 386.374 418.159 385.592 417.801C384.809 417.437 384.19 416.91 383.732 416.22C383.281 415.531 383.056 414.686 383.056 413.685C383.056 412.823 383.222 412.114 383.553 411.557C383.885 411 384.332 410.559 384.896 410.234C385.459 409.91 386.089 409.664 386.785 409.499C387.481 409.333 388.19 409.207 388.913 409.121C389.827 409.015 390.57 408.929 391.14 408.862C391.71 408.789 392.124 408.673 392.383 408.514C392.641 408.355 392.771 408.097 392.771 407.739V407.669C392.771 406.801 392.525 406.128 392.035 405.651C391.551 405.173 390.828 404.935 389.867 404.935C388.866 404.935 388.077 405.157 387.501 405.601C386.931 406.038 386.536 406.526 386.317 407.062L383.523 406.426C383.855 405.498 384.339 404.749 384.975 404.179C385.618 403.602 386.357 403.185 387.192 402.926C388.028 402.661 388.906 402.528 389.827 402.528C390.437 402.528 391.084 402.601 391.766 402.747C392.456 402.886 393.099 403.145 393.695 403.523C394.299 403.901 394.792 404.441 395.177 405.143C395.561 405.839 395.754 406.744 395.754 407.858V418H392.85V415.912H392.731C392.539 416.296 392.25 416.674 391.866 417.045C391.481 417.417 390.987 417.725 390.384 417.97C389.781 418.215 389.058 418.338 388.217 418.338ZM388.863 415.952C389.685 415.952 390.388 415.789 390.971 415.464C391.561 415.14 392.008 414.715 392.313 414.192C392.625 413.661 392.781 413.095 392.781 412.491V410.523C392.674 410.629 392.469 410.728 392.164 410.821C391.866 410.907 391.524 410.983 391.14 411.05C390.755 411.109 390.381 411.166 390.016 411.219C389.652 411.265 389.347 411.305 389.102 411.338C388.525 411.411 387.998 411.534 387.521 411.706C387.05 411.878 386.672 412.127 386.387 412.452C386.109 412.77 385.969 413.194 385.969 413.724C385.969 414.46 386.241 415.017 386.785 415.395C387.328 415.766 388.021 415.952 388.863 415.952ZM399.713 418V402.727H402.587V405.153H402.746C403.025 404.331 403.515 403.685 404.218 403.214C404.927 402.737 405.729 402.499 406.624 402.499C406.81 402.499 407.028 402.505 407.28 402.518C407.539 402.532 407.741 402.548 407.887 402.568V405.412C407.767 405.379 407.555 405.342 407.25 405.303C406.945 405.256 406.641 405.233 406.336 405.233C405.633 405.233 405.007 405.382 404.456 405.68C403.913 405.972 403.482 406.38 403.164 406.903C402.846 407.42 402.686 408.01 402.686 408.673V418H399.713ZM414.767 418.338C413.8 418.338 412.925 418.159 412.142 417.801C411.36 417.437 410.74 416.91 410.283 416.22C409.832 415.531 409.607 414.686 409.607 413.685C409.607 412.823 409.773 412.114 410.104 411.557C410.435 411 410.883 410.559 411.446 410.234C412.01 409.91 412.64 409.664 413.336 409.499C414.032 409.333 414.741 409.207 415.463 409.121C416.378 409.015 417.121 408.929 417.691 408.862C418.261 408.789 418.675 408.673 418.934 408.514C419.192 408.355 419.321 408.097 419.321 407.739V407.669C419.321 406.801 419.076 406.128 418.586 405.651C418.102 405.173 417.379 404.935 416.418 404.935C415.417 404.935 414.628 405.157 414.051 405.601C413.481 406.038 413.087 406.526 412.868 407.062L410.074 406.426C410.406 405.498 410.89 404.749 411.526 404.179C412.169 403.602 412.908 403.185 413.743 402.926C414.578 402.661 415.457 402.528 416.378 402.528C416.988 402.528 417.634 402.601 418.317 402.747C419.007 402.886 419.65 403.145 420.246 403.523C420.849 403.901 421.343 404.441 421.728 405.143C422.112 405.839 422.304 406.744 422.304 407.858V418H419.401V415.912H419.282C419.089 416.296 418.801 416.674 418.417 417.045C418.032 417.417 417.538 417.725 416.935 417.97C416.332 418.215 415.609 418.338 414.767 418.338ZM415.414 415.952C416.236 415.952 416.938 415.789 417.522 415.464C418.112 415.14 418.559 414.715 418.864 414.192C419.176 413.661 419.331 413.095 419.331 412.491V410.523C419.225 410.629 419.02 410.728 418.715 410.821C418.417 410.907 418.075 410.983 417.691 411.05C417.306 411.109 416.932 411.166 416.567 411.219C416.203 411.265 415.898 411.305 415.652 411.338C415.076 411.411 414.549 411.534 414.071 411.706C413.601 411.878 413.223 412.127 412.938 412.452C412.659 412.77 412.52 413.194 412.52 413.724C412.52 414.46 412.792 415.017 413.336 415.395C413.879 415.766 414.572 415.952 415.414 415.952ZM429.237 397.636V418H426.264V397.636H429.237ZM436.21 397.636V418H433.237V397.636H436.21ZM446.792 418.308C445.287 418.308 443.991 417.987 442.904 417.344C441.824 416.694 440.988 415.783 440.398 414.609C439.815 413.429 439.523 412.047 439.523 410.463C439.523 408.899 439.815 407.52 440.398 406.327C440.988 405.134 441.81 404.202 442.864 403.533C443.925 402.863 445.165 402.528 446.583 402.528C447.445 402.528 448.28 402.671 449.089 402.956C449.897 403.241 450.623 403.688 451.266 404.298C451.909 404.908 452.416 405.7 452.788 406.675C453.159 407.643 453.344 408.819 453.344 410.205V411.259H441.204V409.031H450.431C450.431 408.249 450.272 407.556 449.954 406.953C449.636 406.343 449.188 405.863 448.612 405.511C448.041 405.16 447.372 404.984 446.603 404.984C445.768 404.984 445.039 405.19 444.415 405.601C443.799 406.005 443.322 406.536 442.984 407.192C442.652 407.841 442.487 408.547 442.487 409.31V411.05C442.487 412.071 442.665 412.939 443.023 413.655C443.388 414.371 443.895 414.918 444.545 415.295C445.194 415.667 445.953 415.852 446.822 415.852C447.385 415.852 447.899 415.773 448.363 415.614C448.827 415.448 449.228 415.203 449.566 414.878C449.904 414.553 450.163 414.152 450.342 413.675L453.156 414.182C452.93 415.01 452.526 415.736 451.942 416.359C451.366 416.976 450.64 417.456 449.765 417.801C448.897 418.139 447.906 418.308 446.792 418.308ZM459.616 397.636V418H456.643V397.636H459.616ZM463.616 418V402.727H466.589V418H463.616ZM465.117 400.371C464.6 400.371 464.156 400.198 463.785 399.854C463.42 399.502 463.238 399.085 463.238 398.601C463.238 398.11 463.42 397.693 463.785 397.348C464.156 396.997 464.6 396.821 465.117 396.821C465.634 396.821 466.075 396.997 466.44 397.348C466.811 397.693 466.996 398.11 466.996 398.601C466.996 399.085 466.811 399.502 466.44 399.854C466.075 400.198 465.634 400.371 465.117 400.371ZM470.27 418V415.962L478.543 405.452V405.312H470.539V402.727H482.252V404.895L474.297 415.276V415.415H482.53V418H470.27ZM492.183 418.308C490.678 418.308 489.382 417.987 488.295 417.344C487.214 416.694 486.379 415.783 485.789 414.609C485.206 413.429 484.914 412.047 484.914 410.463C484.914 408.899 485.206 407.52 485.789 406.327C486.379 405.134 487.201 404.202 488.255 403.533C489.316 402.863 490.555 402.528 491.974 402.528C492.835 402.528 493.671 402.671 494.479 402.956C495.288 403.241 496.014 403.688 496.657 404.298C497.3 404.908 497.807 405.7 498.178 406.675C498.549 407.643 498.735 408.819 498.735 410.205V411.259H486.594V409.031H495.822C495.822 408.249 495.663 407.556 495.344 406.953C495.026 406.343 494.579 405.863 494.002 405.511C493.432 405.16 492.763 404.984 491.994 404.984C491.158 404.984 490.429 405.19 489.806 405.601C489.19 406.005 488.712 406.536 488.374 407.192C488.043 407.841 487.877 408.547 487.877 409.31V411.05C487.877 412.071 488.056 412.939 488.414 413.655C488.779 414.371 489.286 414.918 489.935 415.295C490.585 415.667 491.344 415.852 492.212 415.852C492.776 415.852 493.29 415.773 493.754 415.614C494.218 415.448 494.619 415.203 494.957 414.878C495.295 414.553 495.553 414.152 495.732 413.675L498.546 414.182C498.321 415.01 497.916 415.736 497.333 416.359C496.756 416.976 496.031 417.456 495.156 417.801C494.287 418.139 493.296 418.308 492.183 418.308ZM515.37 418.288C514.004 418.288 512.828 418.04 511.84 417.543C510.859 417.045 510.103 416.369 509.573 415.514C509.043 414.652 508.778 413.678 508.778 412.591C508.778 411.762 508.95 411.027 509.295 410.384C509.639 409.734 510.12 409.134 510.737 408.584C511.353 408.034 512.066 407.48 512.874 406.923L516.156 404.607C516.712 404.242 517.147 403.857 517.458 403.453C517.77 403.042 517.925 402.535 517.925 401.932C517.925 401.455 517.72 400.997 517.309 400.56C516.898 400.122 516.348 399.903 515.658 399.903C515.181 399.903 514.76 400.019 514.396 400.251C514.038 400.483 513.756 400.782 513.55 401.146C513.352 401.504 513.252 401.882 513.252 402.28C513.252 402.744 513.378 403.211 513.63 403.682C513.888 404.152 514.22 404.64 514.624 405.143C515.029 405.641 515.453 406.158 515.897 406.695L525.353 418H521.992L514.167 408.803C513.511 408.027 512.901 407.298 512.337 406.615C511.774 405.926 511.317 405.23 510.965 404.527C510.621 403.818 510.448 403.052 510.448 402.23C510.448 401.295 510.66 400.467 511.085 399.744C511.515 399.015 512.115 398.445 512.884 398.034C513.653 397.623 514.555 397.418 515.589 397.418C516.636 397.418 517.534 397.623 518.283 398.034C519.039 398.438 519.619 398.979 520.023 399.655C520.434 400.324 520.64 401.057 520.64 401.852C520.64 402.82 520.398 403.675 519.914 404.418C519.437 405.153 518.777 405.83 517.935 406.446L513.849 409.459C513.053 410.042 512.5 410.619 512.188 411.189C511.883 411.752 511.731 412.193 511.731 412.511C511.731 413.095 511.88 413.635 512.178 414.132C512.483 414.629 512.907 415.027 513.451 415.325C514.001 415.624 514.644 415.773 515.38 415.773C516.136 415.773 516.871 415.61 517.587 415.286C518.31 414.954 518.963 414.48 519.546 413.864C520.136 413.247 520.603 412.508 520.948 411.646C521.293 410.785 521.465 409.82 521.465 408.753H524.15C524.15 410.065 524.001 411.176 523.702 412.084C523.404 412.985 523.043 413.721 522.619 414.291C522.201 414.855 521.807 415.295 521.435 415.614C521.316 415.72 521.203 415.826 521.097 415.932C520.991 416.038 520.879 416.144 520.759 416.25C520.07 416.946 519.235 417.46 518.254 417.791C517.279 418.123 516.318 418.288 515.37 418.288ZM541.923 418H535.331V397.636H542.132C544.127 397.636 545.841 398.044 547.273 398.859C548.705 399.668 549.802 400.831 550.564 402.349C551.333 403.861 551.717 405.674 551.717 407.788C551.717 409.91 551.33 411.732 550.554 413.257C549.785 414.782 548.671 415.955 547.213 416.777C545.755 417.592 543.991 418 541.923 418ZM538.403 415.315H541.754C543.305 415.315 544.595 415.024 545.622 414.44C546.65 413.85 547.419 412.999 547.929 411.885C548.439 410.765 548.695 409.399 548.695 407.788C548.695 406.191 548.439 404.835 547.929 403.722C547.425 402.608 546.673 401.763 545.672 401.186C544.671 400.609 543.428 400.321 541.943 400.321H538.403V415.315ZM555.299 418V402.727H558.272V418H555.299ZM556.801 400.371C556.284 400.371 555.84 400.198 555.468 399.854C555.104 399.502 554.922 399.085 554.922 398.601C554.922 398.11 555.104 397.693 555.468 397.348C555.84 396.997 556.284 396.821 556.801 396.821C557.318 396.821 557.759 396.997 558.123 397.348C558.494 397.693 558.68 398.11 558.68 398.601C558.68 399.085 558.494 399.502 558.123 399.854C557.759 400.198 557.318 400.371 556.801 400.371ZM573.717 406.456L571.022 406.933C570.909 406.589 570.73 406.26 570.485 405.949C570.246 405.637 569.922 405.382 569.511 405.183C569.1 404.984 568.586 404.885 567.969 404.885C567.128 404.885 566.425 405.074 565.862 405.452C565.298 405.823 565.016 406.304 565.016 406.893C565.016 407.404 565.205 407.815 565.583 408.126C565.961 408.438 566.571 408.693 567.413 408.892L569.839 409.449C571.244 409.774 572.291 410.274 572.981 410.95C573.67 411.626 574.015 412.505 574.015 413.585C574.015 414.5 573.75 415.315 573.219 416.031C572.696 416.741 571.963 417.297 571.022 417.702C570.087 418.106 569.004 418.308 567.771 418.308C566.06 418.308 564.665 417.944 563.585 417.214C562.504 416.479 561.841 415.435 561.596 414.082L564.469 413.645C564.648 414.394 565.016 414.961 565.573 415.345C566.13 415.723 566.856 415.912 567.751 415.912C568.725 415.912 569.504 415.71 570.087 415.305C570.671 414.894 570.962 414.394 570.962 413.804C570.962 413.327 570.783 412.926 570.425 412.601C570.074 412.276 569.534 412.031 568.805 411.865L566.219 411.298C564.794 410.973 563.74 410.456 563.058 409.747C562.381 409.038 562.043 408.14 562.043 407.053C562.043 406.151 562.295 405.362 562.799 404.686C563.303 404.01 563.999 403.483 564.887 403.105C565.775 402.721 566.793 402.528 567.94 402.528C569.59 402.528 570.889 402.886 571.837 403.602C572.785 404.312 573.412 405.263 573.717 406.456ZM584.413 402.727V405.114H576.071V402.727H584.413ZM578.308 399.068H581.281V413.516C581.281 414.092 581.367 414.527 581.539 414.818C581.712 415.103 581.934 415.299 582.206 415.405C582.484 415.504 582.786 415.554 583.11 415.554C583.349 415.554 583.558 415.537 583.737 415.504C583.916 415.471 584.055 415.445 584.154 415.425L584.691 417.881C584.519 417.947 584.274 418.013 583.956 418.08C583.637 418.152 583.24 418.192 582.762 418.199C581.98 418.212 581.251 418.073 580.575 417.781C579.899 417.49 579.352 417.039 578.934 416.429C578.517 415.819 578.308 415.054 578.308 414.132V399.068ZM587.702 418V402.727H590.575V405.153H590.734C591.013 404.331 591.503 403.685 592.206 403.214C592.915 402.737 593.717 402.499 594.612 402.499C594.798 402.499 595.017 402.505 595.268 402.518C595.527 402.532 595.729 402.548 595.875 402.568V405.412C595.756 405.379 595.544 405.342 595.239 405.303C594.934 405.256 594.629 405.233 594.324 405.233C593.621 405.233 592.995 405.382 592.445 405.68C591.901 405.972 591.47 406.38 591.152 406.903C590.834 407.42 590.675 408.01 590.675 408.673V418H587.702ZM598.448 418V402.727H601.421V418H598.448ZM599.949 400.371C599.432 400.371 598.988 400.198 598.617 399.854C598.252 399.502 598.07 399.085 598.07 398.601C598.07 398.11 598.252 397.693 598.617 397.348C598.988 396.997 599.432 396.821 599.949 396.821C600.466 396.821 600.907 396.997 601.272 397.348C601.643 397.693 601.828 398.11 601.828 398.601C601.828 399.085 601.643 399.502 601.272 399.854C600.907 400.198 600.466 400.371 599.949 400.371ZM605.659 418V397.636H608.632V405.203H608.811C608.983 404.885 609.232 404.517 609.557 404.099C609.882 403.682 610.332 403.317 610.909 403.006C611.486 402.688 612.248 402.528 613.196 402.528C614.429 402.528 615.529 402.84 616.497 403.463C617.465 404.086 618.224 404.984 618.774 406.158C619.331 407.331 619.609 408.743 619.609 410.393C619.609 412.044 619.334 413.459 618.784 414.639C618.234 415.812 617.478 416.717 616.517 417.354C615.556 417.983 614.459 418.298 613.226 418.298C612.298 418.298 611.539 418.143 610.949 417.831C610.366 417.519 609.908 417.155 609.577 416.737C609.245 416.32 608.99 415.948 608.811 415.624H608.562V418H605.659ZM608.572 410.364C608.572 411.437 608.728 412.379 609.04 413.188C609.351 413.996 609.802 414.629 610.392 415.087C610.982 415.537 611.705 415.763 612.56 415.763C613.448 415.763 614.19 415.527 614.787 415.057C615.384 414.58 615.834 413.933 616.139 413.118C616.451 412.303 616.607 411.384 616.607 410.364C616.607 409.356 616.454 408.451 616.149 407.649C615.851 406.847 615.4 406.214 614.797 405.75C614.2 405.286 613.455 405.054 612.56 405.054C611.698 405.054 610.969 405.276 610.372 405.72C609.782 406.164 609.335 406.784 609.03 407.58C608.725 408.375 608.572 409.303 608.572 410.364ZM632.623 411.666V402.727H635.605V418H632.682V415.355H632.523C632.172 416.17 631.608 416.85 630.833 417.393C630.064 417.93 629.106 418.199 627.959 418.199C626.978 418.199 626.11 417.983 625.354 417.553C624.605 417.115 624.015 416.469 623.584 415.614C623.16 414.759 622.948 413.701 622.948 412.442V402.727H625.921V412.084C625.921 413.125 626.209 413.953 626.786 414.57C627.363 415.186 628.112 415.494 629.033 415.494C629.59 415.494 630.143 415.355 630.694 415.077C631.25 414.798 631.711 414.377 632.076 413.814C632.447 413.25 632.629 412.535 632.623 411.666ZM646.729 402.727V405.114H638.387V402.727H646.729ZM640.624 399.068H643.597V413.516C643.597 414.092 643.683 414.527 643.856 414.818C644.028 415.103 644.25 415.299 644.522 415.405C644.8 415.504 645.102 415.554 645.427 415.554C645.665 415.554 645.874 415.537 646.053 415.504C646.232 415.471 646.371 415.445 646.471 415.425L647.008 417.881C646.835 417.947 646.59 418.013 646.272 418.08C645.954 418.152 645.556 418.192 645.079 418.199C644.297 418.212 643.567 418.073 642.891 417.781C642.215 417.49 641.668 417.039 641.251 416.429C640.833 415.819 640.624 415.054 640.624 414.132V399.068ZM656.436 418.308C654.932 418.308 653.636 417.987 652.549 417.344C651.468 416.694 650.633 415.783 650.043 414.609C649.46 413.429 649.168 412.047 649.168 410.463C649.168 408.899 649.46 407.52 650.043 406.327C650.633 405.134 651.455 404.202 652.509 403.533C653.569 402.863 654.809 402.528 656.228 402.528C657.089 402.528 657.925 402.671 658.733 402.956C659.542 403.241 660.268 403.688 660.911 404.298C661.554 404.908 662.061 405.7 662.432 406.675C662.803 407.643 662.989 408.819 662.989 410.205V411.259H650.848V409.031H660.076C660.076 408.249 659.917 407.556 659.598 406.953C659.28 406.343 658.833 405.863 658.256 405.511C657.686 405.16 657.016 404.984 656.248 404.984C655.412 404.984 654.683 405.19 654.06 405.601C653.444 406.005 652.966 406.536 652.628 407.192C652.297 407.841 652.131 408.547 652.131 409.31V411.05C652.131 412.071 652.31 412.939 652.668 413.655C653.033 414.371 653.54 414.918 654.189 415.295C654.839 415.667 655.598 415.852 656.466 415.852C657.03 415.852 657.543 415.773 658.007 415.614C658.471 415.448 658.873 415.203 659.211 414.878C659.549 414.553 659.807 414.152 659.986 413.675L662.8 414.182C662.575 415.01 662.17 415.736 661.587 416.359C661.01 416.976 660.284 417.456 659.409 417.801C658.541 418.139 657.55 418.308 656.436 418.308ZM366.237 452V431.636H373.496C375.073 431.636 376.383 431.908 377.423 432.452C378.471 432.995 379.253 433.748 379.77 434.709C380.287 435.663 380.545 436.767 380.545 438.02C380.545 439.266 380.284 440.363 379.76 441.311C379.243 442.252 378.461 442.985 377.413 443.509C376.373 444.032 375.063 444.294 373.486 444.294H367.987V441.649H373.207C374.202 441.649 375.01 441.507 375.634 441.222C376.263 440.937 376.724 440.522 377.016 439.979C377.307 439.435 377.453 438.782 377.453 438.02C377.453 437.251 377.304 436.585 377.006 436.021C376.714 435.458 376.253 435.027 375.624 434.729C375 434.424 374.182 434.271 373.168 434.271H369.31V452H366.237ZM376.29 442.812L381.321 452H377.821L372.889 442.812H376.29ZM390.436 452.308C388.932 452.308 387.636 451.987 386.549 451.344C385.468 450.694 384.633 449.783 384.043 448.609C383.46 447.429 383.168 446.047 383.168 444.463C383.168 442.899 383.46 441.52 384.043 440.327C384.633 439.134 385.455 438.202 386.509 437.533C387.569 436.863 388.809 436.528 390.228 436.528C391.089 436.528 391.925 436.671 392.733 436.956C393.542 437.241 394.268 437.688 394.911 438.298C395.554 438.908 396.061 439.7 396.432 440.675C396.803 441.643 396.989 442.819 396.989 444.205V445.259H384.848V443.031H394.076C394.076 442.249 393.917 441.556 393.598 440.953C393.28 440.343 392.833 439.863 392.256 439.511C391.686 439.16 391.016 438.984 390.248 438.984C389.412 438.984 388.683 439.19 388.06 439.601C387.444 440.005 386.966 440.536 386.628 441.192C386.297 441.841 386.131 442.547 386.131 443.31V445.05C386.131 446.071 386.31 446.939 386.668 447.655C387.033 448.371 387.54 448.918 388.189 449.295C388.839 449.667 389.598 449.852 390.466 449.852C391.03 449.852 391.543 449.773 392.007 449.614C392.471 449.448 392.873 449.203 393.211 448.878C393.549 448.553 393.807 448.152 393.986 447.675L396.8 448.182C396.575 449.01 396.17 449.736 395.587 450.359C395.01 450.976 394.284 451.456 393.409 451.801C392.541 452.139 391.55 452.308 390.436 452.308ZM411.732 440.456L409.038 440.933C408.925 440.589 408.746 440.26 408.501 439.949C408.262 439.637 407.937 439.382 407.526 439.183C407.115 438.984 406.602 438.885 405.985 438.885C405.143 438.885 404.441 439.074 403.877 439.452C403.314 439.823 403.032 440.304 403.032 440.893C403.032 441.404 403.221 441.815 403.599 442.126C403.977 442.438 404.586 442.693 405.428 442.892L407.854 443.449C409.26 443.774 410.307 444.274 410.996 444.95C411.686 445.626 412.031 446.505 412.031 447.585C412.031 448.5 411.765 449.315 411.235 450.031C410.711 450.741 409.979 451.297 409.038 451.702C408.103 452.106 407.019 452.308 405.786 452.308C404.076 452.308 402.681 451.944 401.6 451.214C400.52 450.479 399.857 449.435 399.612 448.082L402.485 447.645C402.664 448.394 403.032 448.961 403.589 449.345C404.146 449.723 404.871 449.912 405.766 449.912C406.741 449.912 407.52 449.71 408.103 449.305C408.686 448.894 408.978 448.394 408.978 447.804C408.978 447.327 408.799 446.926 408.441 446.601C408.09 446.276 407.549 446.031 406.82 445.865L404.235 445.298C402.81 444.973 401.756 444.456 401.073 443.747C400.397 443.038 400.059 442.14 400.059 441.053C400.059 440.151 400.311 439.362 400.815 438.686C401.318 438.01 402.014 437.483 402.903 437.105C403.791 436.721 404.808 436.528 405.955 436.528C407.606 436.528 408.905 436.886 409.853 437.602C410.801 438.312 411.427 439.263 411.732 440.456ZM415.299 457.727V436.727H418.203V439.203H418.451C418.624 438.885 418.872 438.517 419.197 438.099C419.522 437.682 419.973 437.317 420.549 437.006C421.126 436.688 421.888 436.528 422.836 436.528C424.069 436.528 425.17 436.84 426.137 437.463C427.105 438.086 427.864 438.984 428.414 440.158C428.971 441.331 429.25 442.743 429.25 444.393C429.25 446.044 428.975 447.459 428.424 448.639C427.874 449.812 427.118 450.717 426.157 451.354C425.196 451.983 424.099 452.298 422.866 452.298C421.938 452.298 421.179 452.143 420.589 451.831C420.006 451.519 419.548 451.155 419.217 450.737C418.886 450.32 418.63 449.948 418.451 449.624H418.272V457.727H415.299ZM418.213 444.364C418.213 445.437 418.368 446.379 418.68 447.188C418.992 447.996 419.442 448.629 420.032 449.087C420.622 449.537 421.345 449.763 422.2 449.763C423.088 449.763 423.831 449.527 424.427 449.057C425.024 448.58 425.475 447.933 425.779 447.118C426.091 446.303 426.247 445.384 426.247 444.364C426.247 443.356 426.094 442.451 425.789 441.649C425.491 440.847 425.04 440.214 424.437 439.75C423.841 439.286 423.095 439.054 422.2 439.054C421.338 439.054 420.609 439.276 420.012 439.72C419.422 440.164 418.975 440.784 418.67 441.58C418.365 442.375 418.213 443.303 418.213 444.364ZM439.163 452.308C437.658 452.308 436.362 451.987 435.275 451.344C434.195 450.694 433.359 449.783 432.77 448.609C432.186 447.429 431.895 446.047 431.895 444.463C431.895 442.899 432.186 441.52 432.77 440.327C433.359 439.134 434.181 438.202 435.235 437.533C436.296 436.863 437.536 436.528 438.954 436.528C439.816 436.528 440.651 436.671 441.46 436.956C442.269 437.241 442.994 437.688 443.637 438.298C444.28 438.908 444.788 439.7 445.159 440.675C445.53 441.643 445.716 442.819 445.716 444.205V445.259H433.575V443.031H442.802C442.802 442.249 442.643 441.556 442.325 440.953C442.007 440.343 441.559 439.863 440.983 439.511C440.413 439.16 439.743 438.984 438.974 438.984C438.139 438.984 437.41 439.19 436.787 439.601C436.17 440.005 435.693 440.536 435.355 441.192C435.023 441.841 434.858 442.547 434.858 443.31V445.05C434.858 446.071 435.037 446.939 435.395 447.655C435.759 448.371 436.266 448.918 436.916 449.295C437.565 449.667 438.324 449.852 439.193 449.852C439.756 449.852 440.27 449.773 440.734 449.614C441.198 449.448 441.599 449.203 441.937 448.878C442.275 448.553 442.534 448.152 442.713 447.675L445.527 448.182C445.301 449.01 444.897 449.736 444.314 450.359C443.737 450.976 443.011 451.456 442.136 451.801C441.268 452.139 440.277 452.308 439.163 452.308ZM455.447 452.308C453.969 452.308 452.696 451.973 451.629 451.304C450.569 450.628 449.753 449.696 449.183 448.51C448.613 447.323 448.328 445.964 448.328 444.433C448.328 442.882 448.62 441.513 449.203 440.327C449.786 439.134 450.608 438.202 451.669 437.533C452.73 436.863 453.979 436.528 455.418 436.528C456.578 436.528 457.612 436.744 458.52 437.175C459.428 437.599 460.161 438.196 460.717 438.964C461.281 439.733 461.616 440.632 461.722 441.659H458.828C458.669 440.943 458.304 440.327 457.734 439.81C457.171 439.293 456.415 439.034 455.467 439.034C454.639 439.034 453.913 439.253 453.29 439.69C452.673 440.121 452.193 440.738 451.848 441.54C451.503 442.335 451.331 443.277 451.331 444.364C451.331 445.477 451.5 446.438 451.838 447.247C452.176 448.056 452.653 448.682 453.27 449.126C453.893 449.571 454.625 449.793 455.467 449.793C456.031 449.793 456.541 449.69 456.999 449.484C457.463 449.272 457.85 448.971 458.162 448.58C458.48 448.188 458.702 447.718 458.828 447.168H461.722C461.616 448.155 461.294 449.037 460.757 449.812C460.22 450.588 459.501 451.198 458.599 451.642C457.705 452.086 456.654 452.308 455.447 452.308ZM472.03 436.727V439.114H463.688V436.727H472.03ZM465.925 433.068H468.898V447.516C468.898 448.092 468.984 448.527 469.157 448.818C469.329 449.103 469.551 449.299 469.823 449.405C470.101 449.504 470.403 449.554 470.728 449.554C470.966 449.554 471.175 449.537 471.354 449.504C471.533 449.471 471.672 449.445 471.772 449.425L472.309 451.881C472.136 451.947 471.891 452.013 471.573 452.08C471.255 452.152 470.857 452.192 470.38 452.199C469.597 452.212 468.868 452.073 468.192 451.781C467.516 451.49 466.969 451.039 466.551 450.429C466.134 449.819 465.925 449.054 465.925 448.132V433.068ZM489.56 452H482.968V431.636H489.769C491.764 431.636 493.478 432.044 494.909 432.859C496.341 433.668 497.438 434.831 498.201 436.349C498.97 437.861 499.354 439.674 499.354 441.788C499.354 443.91 498.966 445.732 498.191 447.257C497.422 448.782 496.308 449.955 494.85 450.777C493.391 451.592 491.628 452 489.56 452ZM486.04 449.315H489.391C490.942 449.315 492.231 449.024 493.259 448.44C494.286 447.85 495.055 446.999 495.566 445.885C496.076 444.765 496.331 443.399 496.331 441.788C496.331 440.191 496.076 438.835 495.566 437.722C495.062 436.608 494.31 435.763 493.309 435.186C492.308 434.609 491.065 434.321 489.58 434.321H486.04V449.315ZM509.518 452.308C508.014 452.308 506.718 451.987 505.631 451.344C504.55 450.694 503.715 449.783 503.125 448.609C502.542 447.429 502.25 446.047 502.25 444.463C502.25 442.899 502.542 441.52 503.125 440.327C503.715 439.134 504.537 438.202 505.591 437.533C506.652 436.863 507.891 436.528 509.31 436.528C510.171 436.528 511.007 436.671 511.815 436.956C512.624 437.241 513.35 437.688 513.993 438.298C514.636 438.908 515.143 439.7 515.514 440.675C515.885 441.643 516.071 442.819 516.071 444.205V445.259H503.93V443.031H513.158C513.158 442.249 512.999 441.556 512.68 440.953C512.362 440.343 511.915 439.863 511.338 439.511C510.768 439.16 510.098 438.984 509.33 438.984C508.494 438.984 507.765 439.19 507.142 439.601C506.526 440.005 506.048 440.536 505.71 441.192C505.379 441.841 505.213 442.547 505.213 443.31V445.05C505.213 446.071 505.392 446.939 505.75 447.655C506.115 448.371 506.622 448.918 507.271 449.295C507.921 449.667 508.68 449.852 509.548 449.852C510.112 449.852 510.625 449.773 511.089 449.614C511.554 449.448 511.955 449.203 512.293 448.878C512.631 448.553 512.889 448.152 513.068 447.675L515.882 448.182C515.657 449.01 515.252 449.736 514.669 450.359C514.092 450.976 513.366 451.456 512.491 451.801C511.623 452.139 510.632 452.308 509.518 452.308ZM519.37 457.727V436.727H522.273V439.203H522.522C522.694 438.885 522.943 438.517 523.267 438.099C523.592 437.682 524.043 437.317 524.62 437.006C525.196 436.688 525.959 436.528 526.907 436.528C528.14 436.528 529.24 436.84 530.208 437.463C531.176 438.086 531.935 438.984 532.485 440.158C533.042 441.331 533.32 442.743 533.32 444.393C533.32 446.044 533.045 447.459 532.495 448.639C531.944 449.812 531.189 450.717 530.228 451.354C529.266 451.983 528.169 452.298 526.936 452.298C526.008 452.298 525.249 452.143 524.659 451.831C524.076 451.519 523.619 451.155 523.287 450.737C522.956 450.32 522.701 449.948 522.522 449.624H522.343V457.727H519.37ZM522.283 444.364C522.283 445.437 522.439 446.379 522.75 447.188C523.062 447.996 523.513 448.629 524.103 449.087C524.693 449.537 525.415 449.763 526.27 449.763C527.158 449.763 527.901 449.527 528.498 449.057C529.094 448.58 529.545 447.933 529.85 447.118C530.161 446.303 530.317 445.384 530.317 444.364C530.317 443.356 530.165 442.451 529.86 441.649C529.561 440.847 529.111 440.214 528.507 439.75C527.911 439.286 527.165 439.054 526.27 439.054C525.408 439.054 524.679 439.276 524.083 439.72C523.493 440.164 523.045 440.784 522.74 441.58C522.435 442.375 522.283 443.303 522.283 444.364ZM543.233 452.308C541.729 452.308 540.433 451.987 539.346 451.344C538.265 450.694 537.43 449.783 536.84 448.609C536.257 447.429 535.965 446.047 535.965 444.463C535.965 442.899 536.257 441.52 536.84 440.327C537.43 439.134 538.252 438.202 539.306 437.533C540.366 436.863 541.606 436.528 543.025 436.528C543.886 436.528 544.721 436.671 545.53 436.956C546.339 437.241 547.065 437.688 547.708 438.298C548.351 438.908 548.858 439.7 549.229 440.675C549.6 441.643 549.786 442.819 549.786 444.205V445.259H537.645V443.031H546.873C546.873 442.249 546.713 441.556 546.395 440.953C546.077 440.343 545.63 439.863 545.053 439.511C544.483 439.16 543.813 438.984 543.044 438.984C542.209 438.984 541.48 439.19 540.857 439.601C540.24 440.005 539.763 440.536 539.425 441.192C539.094 441.841 538.928 442.547 538.928 443.31V445.05C538.928 446.071 539.107 446.939 539.465 447.655C539.829 448.371 540.337 448.918 540.986 449.295C541.636 449.667 542.395 449.852 543.263 449.852C543.827 449.852 544.34 449.773 544.804 449.614C545.268 449.448 545.669 449.203 546.007 448.878C546.346 448.553 546.604 448.152 546.783 447.675L549.597 448.182C549.372 449.01 548.967 449.736 548.384 450.359C547.807 450.976 547.081 451.456 546.206 451.801C545.338 452.139 544.347 452.308 543.233 452.308ZM556.058 442.932V452H553.085V436.727H555.938V439.213H556.127C556.478 438.404 557.029 437.755 557.778 437.264C558.533 436.774 559.485 436.528 560.631 436.528C561.672 436.528 562.584 436.747 563.366 437.185C564.148 437.616 564.754 438.259 565.185 439.114C565.616 439.969 565.832 441.026 565.832 442.286V452H562.859V442.643C562.859 441.536 562.57 440.671 561.994 440.048C561.417 439.419 560.625 439.104 559.617 439.104C558.928 439.104 558.315 439.253 557.778 439.551C557.247 439.849 556.826 440.287 556.515 440.864C556.21 441.434 556.058 442.123 556.058 442.932ZM575.536 452.298C574.303 452.298 573.203 451.983 572.235 451.354C571.274 450.717 570.518 449.812 569.968 448.639C569.424 447.459 569.153 446.044 569.153 444.393C569.153 442.743 569.428 441.331 569.978 440.158C570.535 438.984 571.297 438.086 572.265 437.463C573.233 436.84 574.33 436.528 575.556 436.528C576.504 436.528 577.266 436.688 577.843 437.006C578.426 437.317 578.877 437.682 579.195 438.099C579.52 438.517 579.772 438.885 579.951 439.203H580.13V431.636H583.103V452H580.2V449.624H579.951C579.772 449.948 579.513 450.32 579.175 450.737C578.844 451.155 578.387 451.519 577.803 451.831C577.22 452.143 576.464 452.298 575.536 452.298ZM576.192 449.763C577.048 449.763 577.77 449.537 578.36 449.087C578.957 448.629 579.407 447.996 579.712 447.188C580.024 446.379 580.18 445.437 580.18 444.364C580.18 443.303 580.027 442.375 579.722 441.58C579.417 440.784 578.97 440.164 578.38 439.72C577.79 439.276 577.061 439.054 576.192 439.054C575.298 439.054 574.552 439.286 573.955 439.75C573.359 440.214 572.908 440.847 572.603 441.649C572.305 442.451 572.156 443.356 572.156 444.364C572.156 445.384 572.308 446.303 572.613 447.118C572.918 447.933 573.369 448.58 573.965 449.057C574.568 449.527 575.311 449.763 576.192 449.763ZM593.929 452.308C592.424 452.308 591.128 451.987 590.041 451.344C588.96 450.694 588.125 449.783 587.535 448.609C586.952 447.429 586.66 446.047 586.66 444.463C586.66 442.899 586.952 441.52 587.535 440.327C588.125 439.134 588.947 438.202 590.001 437.533C591.062 436.863 592.301 436.528 593.72 436.528C594.582 436.528 595.417 436.671 596.225 436.956C597.034 437.241 597.76 437.688 598.403 438.298C599.046 438.908 599.553 439.7 599.924 440.675C600.296 441.643 600.481 442.819 600.481 444.205V445.259H588.341V443.031H597.568C597.568 442.249 597.409 441.556 597.091 440.953C596.772 440.343 596.325 439.863 595.748 439.511C595.178 439.16 594.509 438.984 593.74 438.984C592.904 438.984 592.175 439.19 591.552 439.601C590.936 440.005 590.458 440.536 590.12 441.192C589.789 441.841 589.623 442.547 589.623 443.31V445.05C589.623 446.071 589.802 446.939 590.16 447.655C590.525 448.371 591.032 448.918 591.681 449.295C592.331 449.667 593.09 449.852 593.958 449.852C594.522 449.852 595.036 449.773 595.5 449.614C595.964 449.448 596.365 449.203 596.703 448.878C597.041 448.553 597.299 448.152 597.478 447.675L600.292 448.182C600.067 449.01 599.663 449.736 599.079 450.359C598.502 450.976 597.777 451.456 596.902 451.801C596.033 452.139 595.042 452.308 593.929 452.308ZM606.753 442.932V452H603.78V436.727H606.634V439.213H606.822C607.174 438.404 607.724 437.755 608.473 437.264C609.229 436.774 610.18 436.528 611.327 436.528C612.367 436.528 613.279 436.747 614.061 437.185C614.843 437.616 615.45 438.259 615.881 439.114C616.312 439.969 616.527 441.026 616.527 442.286V452H613.554V442.643C613.554 441.536 613.266 440.671 612.689 440.048C612.112 439.419 611.32 439.104 610.312 439.104C609.623 439.104 609.01 439.253 608.473 439.551C607.943 439.849 607.522 440.287 607.21 440.864C606.905 441.434 606.753 442.123 606.753 442.932ZM626.947 452.308C625.469 452.308 624.196 451.973 623.129 451.304C622.069 450.628 621.253 449.696 620.683 448.51C620.113 447.323 619.828 445.964 619.828 444.433C619.828 442.882 620.12 441.513 620.703 440.327C621.286 439.134 622.108 438.202 623.169 437.533C624.23 436.863 625.479 436.528 626.918 436.528C628.078 436.528 629.112 436.744 630.02 437.175C630.928 437.599 631.661 438.196 632.217 438.964C632.781 439.733 633.116 440.632 633.222 441.659H630.328C630.169 440.943 629.804 440.327 629.234 439.81C628.671 439.293 627.915 439.034 626.967 439.034C626.139 439.034 625.413 439.253 624.79 439.69C624.173 440.121 623.693 440.738 623.348 441.54C623.003 442.335 622.831 443.277 622.831 444.364C622.831 445.477 623 446.438 623.338 447.247C623.676 448.056 624.153 448.682 624.77 449.126C625.393 449.571 626.125 449.793 626.967 449.793C627.531 449.793 628.041 449.69 628.499 449.484C628.963 449.272 629.35 448.971 629.662 448.58C629.98 448.188 630.202 447.718 630.328 447.168H633.222C633.116 448.155 632.794 449.037 632.257 449.812C631.72 450.588 631.001 451.198 630.099 451.642C629.205 452.086 628.154 452.308 626.947 452.308ZM638.28 457.727C637.836 457.727 637.432 457.691 637.067 457.618C636.703 457.552 636.431 457.479 636.252 457.399L636.968 454.963C637.511 455.109 637.995 455.172 638.419 455.152C638.844 455.132 639.218 454.973 639.543 454.675C639.874 454.376 640.166 453.889 640.418 453.213L640.786 452.199L635.198 436.727H638.38L642.248 448.58H642.407L646.275 436.727H649.466L643.172 454.038C642.881 454.834 642.509 455.507 642.059 456.057C641.608 456.614 641.071 457.031 640.448 457.31C639.825 457.588 639.102 457.727 638.28 457.727ZM677.598 441.818C677.598 443.992 677.2 445.862 676.405 447.426C675.609 448.984 674.519 450.184 673.134 451.026C671.755 451.861 670.187 452.278 668.43 452.278C666.667 452.278 665.093 451.861 663.707 451.026C662.329 450.184 661.241 448.981 660.446 447.416C659.651 445.852 659.253 443.986 659.253 441.818C659.253 439.644 659.651 437.778 660.446 436.22C661.241 434.656 662.329 433.456 663.707 432.621C665.093 431.779 666.667 431.358 668.43 431.358C670.187 431.358 671.755 431.779 673.134 432.621C674.519 433.456 675.609 434.656 676.405 436.22C677.2 437.778 677.598 439.644 677.598 441.818ZM674.555 441.818C674.555 440.161 674.287 438.766 673.75 437.632C673.22 436.492 672.491 435.63 671.562 435.047C670.641 434.457 669.597 434.162 668.43 434.162C667.257 434.162 666.21 434.457 665.288 435.047C664.367 435.63 663.638 436.492 663.101 437.632C662.571 438.766 662.305 440.161 662.305 441.818C662.305 443.475 662.571 444.874 663.101 446.014C663.638 447.148 664.367 448.009 665.288 448.599C666.21 449.183 667.257 449.474 668.43 449.474C669.597 449.474 670.641 449.183 671.562 448.599C672.491 448.009 673.22 447.148 673.75 446.014C674.287 444.874 674.555 443.475 674.555 441.818ZM681.19 452V436.727H684.064V439.153H684.223C684.501 438.331 684.992 437.685 685.694 437.214C686.404 436.737 687.206 436.499 688.1 436.499C688.286 436.499 688.505 436.505 688.757 436.518C689.015 436.532 689.217 436.548 689.363 436.568V439.412C689.244 439.379 689.032 439.342 688.727 439.303C688.422 439.256 688.117 439.233 687.812 439.233C687.109 439.233 686.483 439.382 685.933 439.68C685.389 439.972 684.958 440.38 684.64 440.903C684.322 441.42 684.163 442.01 684.163 442.673V452H681.19ZM697.107 452.298C695.874 452.298 694.773 451.983 693.805 451.354C692.844 450.717 692.089 449.812 691.538 448.639C690.995 447.459 690.723 446.044 690.723 444.393C690.723 442.743 690.998 441.331 691.548 440.158C692.105 438.984 692.867 438.086 693.835 437.463C694.803 436.84 695.9 436.528 697.126 436.528C698.074 436.528 698.837 436.688 699.413 437.006C699.997 437.317 700.447 437.682 700.766 438.099C701.09 438.517 701.342 438.885 701.521 439.203H701.7V431.636H704.673V452H701.77V449.624H701.521C701.342 449.948 701.084 450.32 700.746 450.737C700.414 451.155 699.957 451.519 699.374 451.831C698.79 452.143 698.035 452.298 697.107 452.298ZM697.763 449.763C698.618 449.763 699.34 449.537 699.93 449.087C700.527 448.629 700.978 447.996 701.283 447.188C701.594 446.379 701.75 445.437 701.75 444.364C701.75 443.303 701.598 442.375 701.293 441.58C700.988 440.784 700.54 440.164 699.95 439.72C699.36 439.276 698.631 439.054 697.763 439.054C696.868 439.054 696.122 439.286 695.526 439.75C694.929 440.214 694.478 440.847 694.173 441.649C693.875 442.451 693.726 443.356 693.726 444.364C693.726 445.384 693.878 446.303 694.183 447.118C694.488 447.933 694.939 448.58 695.536 449.057C696.139 449.527 696.881 449.763 697.763 449.763ZM715.499 452.308C713.994 452.308 712.698 451.987 711.611 451.344C710.531 450.694 709.695 449.783 709.105 448.609C708.522 447.429 708.23 446.047 708.23 444.463C708.23 442.899 708.522 441.52 709.105 440.327C709.695 439.134 710.517 438.202 711.571 437.533C712.632 436.863 713.872 436.528 715.29 436.528C716.152 436.528 716.987 436.671 717.796 436.956C718.605 437.241 719.33 437.688 719.973 438.298C720.616 438.908 721.123 439.7 721.495 440.675C721.866 441.643 722.051 442.819 722.051 444.205V445.259H709.911V443.031H719.138C719.138 442.249 718.979 441.556 718.661 440.953C718.343 440.343 717.895 439.863 717.319 439.511C716.748 439.16 716.079 438.984 715.31 438.984C714.475 438.984 713.746 439.19 713.123 439.601C712.506 440.005 712.029 440.536 711.691 441.192C711.359 441.841 711.194 442.547 711.194 443.31V445.05C711.194 446.071 711.373 446.939 711.73 447.655C712.095 448.371 712.602 448.918 713.252 449.295C713.901 449.667 714.66 449.852 715.529 449.852C716.092 449.852 716.606 449.773 717.07 449.614C717.534 449.448 717.935 449.203 718.273 448.878C718.611 448.553 718.87 448.152 719.049 447.675L721.863 448.182C721.637 449.01 721.233 449.736 720.65 450.359C720.073 450.976 719.347 451.456 718.472 451.801C717.604 452.139 716.613 452.308 715.499 452.308ZM725.35 452V436.727H728.224V439.153H728.383C728.661 438.331 729.152 437.685 729.854 437.214C730.564 436.737 731.366 436.499 732.261 436.499C732.446 436.499 732.665 436.505 732.917 436.518C733.175 436.532 733.378 436.548 733.523 436.568V439.412C733.404 439.379 733.192 439.342 732.887 439.303C732.582 439.256 732.277 439.233 731.972 439.233C731.27 439.233 730.643 439.382 730.093 439.68C729.549 439.972 729.119 440.38 728.8 440.903C728.482 441.42 728.323 442.01 728.323 442.673V452H725.35Z" fill="white"/>
<path d="M256.25 445.5H304.083" stroke="white" stroke-width="2.75" stroke-linecap="round" stroke-linejoin="round"/>
<path d="M276.75 414.75L287 425L276.75 435.25" stroke="white" stroke-width="2.75" stroke-linecap="round" stroke-linejoin="round"/>
<path d="M293.833 435.25L304.083 445.5L293.833 455.75" stroke="white" stroke-width="2.75" stroke-linecap="round" stroke-linejoin="round"/>
<path d="M256.25 394.25V455.75" stroke="white" stroke-width="2.75" stroke-linecap="round" stroke-linejoin="round"/>
<path d="M256.25 425H287" stroke="white" stroke-width="2.75" stroke-linecap="round" stroke-linejoin="round"/>
<path d="M307.5 394.25L317.75 404.5L307.5 414.75" stroke="white" stroke-width="2.75" stroke-linecap="round" stroke-linejoin="round"/>
<path d="M256.25 404.5H317.75" stroke="white" stroke-width="2.75" stroke-linecap="round" stroke-linejoin="round"/>
<line x1="346" y1="190" x2="346" y2="211" stroke="#9CA3AF" stroke-width="2" stroke-linecap="round" stroke-dasharray="5 5"/>
<line x1="559" y1="252" x2="559" y2="273" stroke="#9CA3AF" stroke-width="2" stroke-linecap="round" stroke-dasharray="5 5"/>
<line x1="288" y1="596" x2="288" y2="617" stroke="#9CA3AF" stroke-width="2" stroke-linecap="round" stroke-dasharray="5 5"/>
</svg>
