<svg width="380" height="340" viewBox="25 15 360 330" fill="none" xmlns="http://www.w3.org/2000/svg">
  <!-- Brain outline - side view with bumpy lobes -->
  <path d="
    M215 275
    C195 282, 182 278, 170 275
    C150 285, 125 288, 105 280
    C82 272, 65 255, 55 235
    C45 215, 42 195, 48 175
    C40 162, 35 145, 40 125
    C45 108, 55 95, 70 82
    C65 68, 70 55, 82 45
    C95 35, 112 30, 132 30
    C142 24, 155 22, 170 28
    C182 22, 198 22, 215 32
    C228 28, 242 32, 255 42
    C270 40, 285 48, 295 62
    C308 65, 318 78, 322 95
    C332 102, 340 118, 338 135
    C345 148, 345 165, 338 180
    C342 195, 335 208, 322 218
    C325 230, 315 240, 300 245
    C288 252, 272 255, 258 250
    C248 258, 238 268, 230 275
  " stroke="#FF6D74" stroke-width="2.5" fill="none" stroke-linejoin="round"/>

  <!-- Brain stem -->
  <path d="
    M215 275
    C212 290, 205 310, 200 340
    M230 275
    C228 290, 222 310, 218 340
  " stroke="#FF6D74" stroke-width="2.5" fill="none" stroke-linecap="round"/>

  <!-- ===== Network connections (lines) ===== -->
  <!-- Top cluster -->
  <line x1="140" y1="48" x2="180" y2="42" stroke="#FF6D74" stroke-width="1"/>
  <line x1="140" y1="48" x2="112" y2="72" stroke="#FF6D74" stroke-width="1"/>
  <line x1="140" y1="48" x2="170" y2="78" stroke="#FF6D74" stroke-width="1"/>
  <line x1="180" y1="42" x2="222" y2="45" stroke="#FF6D74" stroke-width="1"/>
  <line x1="180" y1="42" x2="170" y2="78" stroke="#FF6D74" stroke-width="1"/>
  <line x1="222" y1="45" x2="258" y2="55" stroke="#FF6D74" stroke-width="1"/>
  <line x1="222" y1="45" x2="210" y2="85" stroke="#FF6D74" stroke-width="1"/>
  <line x1="258" y1="55" x2="288" y2="75" stroke="#FF6D74" stroke-width="1"/>
  <line x1="258" y1="55" x2="248" y2="100" stroke="#FF6D74" stroke-width="1"/>
  <line x1="258" y1="55" x2="210" y2="85" stroke="#FF6D74" stroke-width="1"/>

  <!-- Upper-mid -->
  <line x1="112" y1="72" x2="78" y2="100" stroke="#FF6D74" stroke-width="1"/>
  <line x1="112" y1="72" x2="130" y2="108" stroke="#FF6D74" stroke-width="1"/>
  <line x1="170" y1="78" x2="130" y2="108" stroke="#FF6D74" stroke-width="1"/>
  <line x1="170" y1="78" x2="210" y2="85" stroke="#FF6D74" stroke-width="1"/>
  <line x1="210" y1="85" x2="248" y2="100" stroke="#FF6D74" stroke-width="1"/>
  <line x1="210" y1="85" x2="180" y2="125" stroke="#FF6D74" stroke-width="1"/>
  <line x1="288" y1="75" x2="305" y2="110" stroke="#FF6D74" stroke-width="1"/>
  <line x1="288" y1="75" x2="248" y2="100" stroke="#FF6D74" stroke-width="1"/>

  <!-- Mid -->
  <line x1="78" y1="100" x2="58" y2="142" stroke="#FF6D74" stroke-width="1"/>
  <line x1="78" y1="100" x2="130" y2="108" stroke="#FF6D74" stroke-width="1"/>
  <line x1="130" y1="108" x2="180" y2="125" stroke="#FF6D74" stroke-width="1"/>
  <line x1="130" y1="108" x2="98" y2="150" stroke="#FF6D74" stroke-width="1"/>
  <line x1="248" y1="100" x2="305" y2="110" stroke="#FF6D74" stroke-width="1"/>
  <line x1="248" y1="100" x2="275" y2="148" stroke="#FF6D74" stroke-width="1"/>
  <line x1="248" y1="100" x2="218" y2="145" stroke="#FF6D74" stroke-width="1"/>
  <line x1="305" y1="110" x2="318" y2="148" stroke="#FF6D74" stroke-width="1"/>
  <line x1="305" y1="110" x2="275" y2="148" stroke="#FF6D74" stroke-width="1"/>
  <line x1="180" y1="125" x2="218" y2="145" stroke="#FF6D74" stroke-width="1"/>
  <line x1="180" y1="125" x2="148" y2="165" stroke="#FF6D74" stroke-width="1"/>

  <!-- Center -->
  <line x1="58" y1="142" x2="98" y2="150" stroke="#FF6D74" stroke-width="1"/>
  <line x1="58" y1="142" x2="55" y2="188" stroke="#FF6D74" stroke-width="1"/>
  <line x1="98" y1="150" x2="148" y2="165" stroke="#FF6D74" stroke-width="1"/>
  <line x1="98" y1="150" x2="75" y2="195" stroke="#FF6D74" stroke-width="1"/>
  <line x1="148" y1="165" x2="218" y2="145" stroke="#FF6D74" stroke-width="1"/>
  <line x1="148" y1="165" x2="125" y2="205" stroke="#FF6D74" stroke-width="1"/>
  <line x1="148" y1="165" x2="180" y2="200" stroke="#FF6D74" stroke-width="1"/>
  <line x1="218" y1="145" x2="275" y2="148" stroke="#FF6D74" stroke-width="1"/>
  <line x1="218" y1="145" x2="240" y2="190" stroke="#FF6D74" stroke-width="1"/>
  <line x1="218" y1="145" x2="180" y2="200" stroke="#FF6D74" stroke-width="1"/>
  <line x1="275" y1="148" x2="318" y2="148" stroke="#FF6D74" stroke-width="1"/>
  <line x1="275" y1="148" x2="295" y2="192" stroke="#FF6D74" stroke-width="1"/>
  <line x1="275" y1="148" x2="240" y2="190" stroke="#FF6D74" stroke-width="1"/>
  <line x1="318" y1="148" x2="325" y2="188" stroke="#FF6D74" stroke-width="1"/>
  <line x1="318" y1="148" x2="295" y2="192" stroke="#FF6D74" stroke-width="1"/>

  <!-- Lower -->
  <line x1="55" y1="188" x2="75" y2="195" stroke="#FF6D74" stroke-width="1"/>
  <line x1="55" y1="188" x2="65" y2="232" stroke="#FF6D74" stroke-width="1"/>
  <line x1="75" y1="195" x2="125" y2="205" stroke="#FF6D74" stroke-width="1"/>
  <line x1="75" y1="195" x2="65" y2="232" stroke="#FF6D74" stroke-width="1"/>
  <line x1="125" y1="205" x2="180" y2="200" stroke="#FF6D74" stroke-width="1"/>
  <line x1="125" y1="205" x2="105" y2="248" stroke="#FF6D74" stroke-width="1"/>
  <line x1="180" y1="200" x2="240" y2="190" stroke="#FF6D74" stroke-width="1"/>
  <line x1="180" y1="200" x2="160" y2="242" stroke="#FF6D74" stroke-width="1"/>
  <line x1="240" y1="190" x2="295" y2="192" stroke="#FF6D74" stroke-width="1"/>
  <line x1="240" y1="190" x2="225" y2="235" stroke="#FF6D74" stroke-width="1"/>
  <line x1="295" y1="192" x2="325" y2="188" stroke="#FF6D74" stroke-width="1"/>
  <line x1="295" y1="192" x2="280" y2="235" stroke="#FF6D74" stroke-width="1"/>
  <line x1="325" y1="188" x2="310" y2="225" stroke="#FF6D74" stroke-width="1"/>

  <!-- Bottom -->
  <line x1="65" y1="232" x2="105" y2="248" stroke="#FF6D74" stroke-width="1"/>
  <line x1="105" y1="248" x2="160" y2="242" stroke="#FF6D74" stroke-width="1"/>
  <line x1="160" y1="242" x2="225" y2="235" stroke="#FF6D74" stroke-width="1"/>
  <line x1="160" y1="242" x2="185" y2="268" stroke="#FF6D74" stroke-width="1"/>
  <line x1="225" y1="235" x2="280" y2="235" stroke="#FF6D74" stroke-width="1"/>
  <line x1="225" y1="235" x2="185" y2="268" stroke="#FF6D74" stroke-width="1"/>
  <line x1="225" y1="235" x2="250" y2="255" stroke="#FF6D74" stroke-width="1"/>
  <line x1="280" y1="235" x2="310" y2="225" stroke="#FF6D74" stroke-width="1"/>
  <line x1="280" y1="235" x2="250" y2="255" stroke="#FF6D74" stroke-width="1"/>
  <line x1="185" y1="268" x2="250" y2="255" stroke="#FF6D74" stroke-width="1"/>

  <!-- ===== Dots (nodes) ===== -->
  <circle cx="140" cy="48" r="5" fill="#FF6D74"/>
  <circle cx="180" cy="42" r="5" fill="#FF6D74"/>
  <circle cx="222" cy="45" r="5" fill="#FF6D74"/>
  <circle cx="258" cy="55" r="5" fill="#FF6D74"/>

  <circle cx="112" cy="72" r="4.5" fill="#FF6D74"/>
  <circle cx="170" cy="78" r="4.5" fill="#FF6D74"/>
  <circle cx="210" cy="85" r="4.5" fill="#FF6D74"/>
  <circle cx="288" cy="75" r="5" fill="#FF6D74"/>

  <circle cx="78" cy="100" r="4.5" fill="#FF6D74"/>
  <circle cx="130" cy="108" r="5" fill="#FF6D74"/>
  <circle cx="248" cy="100" r="5" fill="#FF6D74"/>
  <circle cx="305" cy="110" r="5" fill="#FF6D74"/>
  <circle cx="180" cy="125" r="4.5" fill="#FF6D74"/>

  <circle cx="58" cy="142" r="4.5" fill="#FF6D74"/>
  <circle cx="98" cy="150" r="4.5" fill="#FF6D74"/>
  <circle cx="148" cy="165" r="5" fill="#FF6D74"/>
  <circle cx="218" cy="145" r="5" fill="#FF6D74"/>
  <circle cx="275" cy="148" r="5" fill="#FF6D74"/>
  <circle cx="318" cy="148" r="4.5" fill="#FF6D74"/>

  <circle cx="55" cy="188" r="4" fill="#FF6D74"/>
  <circle cx="75" cy="195" r="4.5" fill="#FF6D74"/>
  <circle cx="125" cy="205" r="5" fill="#FF6D74"/>
  <circle cx="180" cy="200" r="5" fill="#FF6D74"/>
  <circle cx="240" cy="190" r="5" fill="#FF6D74"/>
  <circle cx="295" cy="192" r="4.5" fill="#FF6D74"/>
  <circle cx="325" cy="188" r="4" fill="#FF6D74"/>

  <circle cx="65" cy="232" r="4" fill="#FF6D74"/>
  <circle cx="105" cy="248" r="4.5" fill="#FF6D74"/>
  <circle cx="160" cy="242" r="5" fill="#FF6D74"/>
  <circle cx="225" cy="235" r="5" fill="#FF6D74"/>
  <circle cx="280" cy="235" r="4.5" fill="#FF6D74"/>
  <circle cx="310" cy="225" r="4" fill="#FF6D74"/>

  <circle cx="185" cy="268" r="4.5" fill="#FF6D74"/>
  <circle cx="250" cy="255" r="4" fill="#FF6D74"/>
</svg>
