<svg width="300" height="300" viewBox="0 0 300 300" fill="none" xmlns="http://www.w3.org/2000/svg">
<rect width="300" height="300" fill="#FFD1DC"/>
<path d="M143.877 193L130.008 144.155H129.59C130.24 152.473 130.564 158.937 130.564 163.544V193H114.329V125.183H138.729L152.876 173.332H153.248L167.117 125.183H191.563V193H174.725V163.266C174.725 161.72 174.74 160.004 174.771 158.117C174.833 156.231 175.049 151.608 175.42 144.248H175.003L161.319 193H143.877ZM269.632 158.999C269.632 170.41 266.833 179.084 261.236 185.021C255.639 190.959 247.444 193.928 236.651 193.928C226.013 193.928 217.849 190.944 212.159 184.975C206.5 179.007 203.67 170.317 203.67 158.906C203.67 147.618 206.484 139.006 212.112 133.068C217.771 127.1 225.982 124.116 236.744 124.116C247.536 124.116 255.716 127.069 261.282 132.976C266.849 138.882 269.632 147.556 269.632 158.999ZM222.967 158.999C222.967 172.111 227.528 178.667 236.651 178.667C241.29 178.667 244.722 177.074 246.949 173.889C249.206 170.703 250.335 165.74 250.335 158.999C250.335 152.226 249.191 147.232 246.902 144.016C244.645 140.769 241.259 139.145 236.744 139.145C227.559 139.145 222.967 145.763 222.967 158.999Z" fill="#1F2937"/>
<path d="M191.899 272H167.871L143.101 224.222H142.683C143.271 231.736 143.564 237.473 143.564 241.431V272H127.329V204.183H151.265L175.942 251.312H176.221C175.788 244.477 175.571 238.988 175.571 234.844V204.183H191.899V272ZM270.015 237.999C270.015 249.41 267.216 258.084 261.619 264.021C256.021 269.959 247.826 272.928 237.034 272.928C226.396 272.928 218.232 269.944 212.542 263.975C206.882 258.007 204.053 249.317 204.053 237.906C204.053 226.618 206.867 218.006 212.495 212.068C218.154 206.1 226.365 203.116 237.126 203.116C247.919 203.116 256.099 206.069 261.665 211.976C267.231 217.882 270.015 226.556 270.015 237.999ZM223.35 237.999C223.35 251.111 227.911 257.667 237.034 257.667C241.672 257.667 245.105 256.074 247.332 252.889C249.589 249.703 250.718 244.74 250.718 237.999C250.718 231.226 249.574 226.232 247.285 223.016C245.028 219.769 241.641 218.145 237.126 218.145C227.942 218.145 223.35 224.763 223.35 237.999Z" fill="#1F2937"/>
</svg>
