<svg width="980" height="1140" viewBox="0 0 980 1140" fill="none" xmlns="http://www.w3.org/2000/svg">
<path d="M403.876 25.8182V52H407.635V33.0412H407.878L415.599 51.9616H418.719L426.44 33.054H426.683V52H430.442V25.8182H425.648L417.312 46.1705H417.006L408.67 25.8182H403.876ZM444.15 52.3963C449.685 52.3963 453.303 48.3438 453.303 42.2713C453.303 36.1605 449.685 32.108 444.15 32.108C438.614 32.108 434.996 36.1605 434.996 42.2713C434.996 48.3438 438.614 52.3963 444.15 52.3963ZM444.162 49.1875C440.544 49.1875 438.857 46.0298 438.857 42.2585C438.857 38.5 440.544 35.304 444.162 35.304C447.755 35.304 449.442 38.5 449.442 42.2585C449.442 46.0298 447.755 49.1875 444.162 49.1875ZM461.392 40.3409C461.392 37.2088 463.31 35.419 465.969 35.419C468.564 35.419 470.136 37.1193 470.136 39.9702V52H473.959V39.5099C473.959 34.652 471.287 32.108 467.273 32.108C464.32 32.108 462.389 33.4759 461.482 35.5597H461.239V32.3636H457.57V52H461.392V40.3409ZM487.357 52.3963C492.892 52.3963 496.51 48.3438 496.51 42.2713C496.51 36.1605 492.892 32.108 487.357 32.108C481.821 32.108 478.203 36.1605 478.203 42.2713C478.203 48.3438 481.821 52.3963 487.357 52.3963ZM487.369 49.1875C483.751 49.1875 482.064 46.0298 482.064 42.2585C482.064 38.5 483.751 35.304 487.369 35.304C490.962 35.304 492.649 38.5 492.649 42.2585C492.649 46.0298 490.962 49.1875 487.369 49.1875ZM500.777 52H504.599V40.0085C504.599 37.4389 506.581 35.5852 509.291 35.5852C510.083 35.5852 510.978 35.7259 511.285 35.8153V32.1591C510.902 32.108 510.147 32.0696 509.662 32.0696C507.36 32.0696 505.392 33.3736 504.676 35.483H504.471V32.3636H500.777V52ZM522.353 52.3963C526.636 52.3963 529.665 50.2869 530.535 47.0909L526.917 46.4389C526.227 48.2926 524.565 49.2386 522.391 49.2386C519.119 49.2386 516.92 47.1165 516.817 43.3324H530.778V41.9773C530.778 34.8821 526.533 32.108 522.085 32.108C516.613 32.108 513.008 36.2756 513.008 42.3097C513.008 48.4077 516.562 52.3963 522.353 52.3963ZM516.83 40.4688C516.984 37.6818 519.004 35.2656 522.11 35.2656C525.076 35.2656 527.019 37.4645 527.032 40.4688H516.83ZM535.019 59.3636H538.841V48.9446H539.071C539.762 50.1974 541.168 52.3835 544.748 52.3835C549.503 52.3835 552.955 48.5739 552.955 42.2202C552.955 35.8537 549.452 32.108 544.709 32.108C541.066 32.108 539.749 34.3324 539.071 35.5469H538.752V32.3636H535.019V59.3636ZM538.765 42.1818C538.765 38.0781 540.554 35.3551 543.891 35.3551C547.355 35.3551 549.094 38.2827 549.094 42.1818C549.094 46.1193 547.304 49.1236 543.891 49.1236C540.605 49.1236 538.765 46.3111 538.765 42.1818ZM565.509 52.3963C571.044 52.3963 574.662 48.3438 574.662 42.2713C574.662 36.1605 571.044 32.108 565.509 32.108C559.973 32.108 556.355 36.1605 556.355 42.2713C556.355 48.3438 559.973 52.3963 565.509 52.3963ZM565.522 49.1875C561.904 49.1875 560.216 46.0298 560.216 42.2585C560.216 38.5 561.904 35.304 565.522 35.304C569.114 35.304 570.801 38.5 570.801 42.2585C570.801 46.0298 569.114 49.1875 565.522 49.1875Z" fill="#A8A8A8"/>
<line x1="489.596" y1="146.376" x2="145.596" y2="295.376" stroke="#9CA3AF" stroke-width="3"/>
<line x1="490.047" y1="146.075" x2="336.047" y2="296.075" stroke="#9CA3AF" stroke-width="3"/>
<line x1="490.492" y1="144.85" x2="505.492" y2="293.85" stroke="#9CA3AF" stroke-width="3"/>
<line x1="489.944" y1="143.834" x2="673.944" y2="292.834" stroke="#9CA3AF" stroke-width="3"/>
<line x1="489.583" y1="143.618" x2="842.583" y2="292.618" stroke="#9CA3AF" stroke-width="3"/>
<rect x="439" y="120" width="100" height="50" rx="5" fill="#9CA3AF"/>
<path d="M478.989 145.455C478.989 141.223 476.406 138.73 472.974 138.73C469.535 138.73 466.959 141.223 466.959 145.455C466.959 149.68 469.535 152.179 472.974 152.179C476.406 152.179 478.989 149.686 478.989 145.455ZM476.604 145.455C476.604 148.433 475.109 150.05 472.974 150.05C470.845 150.05 469.343 148.433 469.343 145.455C469.343 142.476 470.845 140.859 472.974 140.859C475.109 140.859 476.604 142.476 476.604 145.455ZM481.128 152H483.442V146.228C483.442 144.982 484.382 144.099 485.654 144.099C486.044 144.099 486.53 144.17 486.728 144.234V142.105C486.517 142.067 486.153 142.041 485.897 142.041C484.772 142.041 483.832 142.68 483.474 143.818H483.372V142.182H481.128V152ZM492.131 155.886C494.783 155.886 496.739 154.672 496.739 152.16V142.182H494.457V143.805H494.33C493.978 143.096 493.243 142.054 491.511 142.054C489.241 142.054 487.458 143.831 487.458 147.059C487.458 150.261 489.241 151.859 491.504 151.859C493.185 151.859 493.972 150.958 494.33 150.236H494.445V152.096C494.445 153.54 493.486 154.135 492.169 154.135C490.776 154.135 490.162 153.477 489.881 152.901L487.797 153.406C488.219 154.781 489.631 155.886 492.131 155.886ZM492.15 150.044C490.622 150.044 489.817 148.855 489.817 147.046C489.817 145.263 490.609 143.952 492.15 143.952C493.639 143.952 494.457 145.186 494.457 147.046C494.457 148.919 493.626 150.044 492.15 150.044ZM508.875 138.909H506.618L503.365 140.999V143.173L506.426 141.217H506.503V152H508.875V138.909Z" fill="white"/>
<line x1="148.95" y1="294.312" x2="128.95" y2="355.312" stroke="#FFC562" stroke-width="2"/>
<line x1="148.817" y1="293.424" x2="191.817" y2="354.424" stroke="#FFC562" stroke-width="2"/>
<rect x="97" y="269" width="100" height="50" rx="5" fill="#FFC562"/>
<rect x="103" y="343" width="50" height="25" rx="5" fill="#70AF40"/>
<rect x="166" y="343" width="50" height="25" rx="5" fill="#61A8E8"/>
<path d="M125.972 301L127.053 297.772H131.974L133.061 301H135.592L130.977 287.909H128.05L123.441 301H125.972ZM127.692 295.867L129.462 290.594H129.565L131.335 295.867H127.692ZM137.214 304.682H139.528V299.453H139.624C139.988 300.169 140.749 301.173 142.437 301.173C144.751 301.173 146.483 299.338 146.483 296.104C146.483 292.831 144.699 291.054 142.43 291.054C140.698 291.054 139.976 292.096 139.624 292.805H139.49V291.182H137.214V304.682ZM139.483 296.091C139.483 294.186 140.302 292.952 141.791 292.952C143.331 292.952 144.124 294.263 144.124 296.091C144.124 297.932 143.319 299.274 141.791 299.274C140.314 299.274 139.483 297.996 139.483 296.091ZM148.464 304.682H150.778V299.453H150.874C151.238 300.169 151.999 301.173 153.687 301.173C156.001 301.173 157.733 299.338 157.733 296.104C157.733 292.831 155.949 291.054 153.68 291.054C151.948 291.054 151.226 292.096 150.874 292.805H150.74V291.182H148.464V304.682ZM150.733 296.091C150.733 294.186 151.552 292.952 153.041 292.952C154.581 292.952 155.374 294.263 155.374 296.091C155.374 297.932 154.569 299.274 153.041 299.274C151.564 299.274 150.733 297.996 150.733 296.091ZM169.478 287.909H167.222L163.968 289.999V292.173L167.03 290.217H167.107V301H169.478V287.909Z" fill="white"/>
<rect x="285" y="270" width="100" height="50" rx="5" fill="#70AF40"/>
<path d="M316.291 302H324.428V300.012H318.663V288.909H316.291V302ZM326.384 302H328.698V292.182H326.384V302ZM327.548 290.788C328.283 290.788 328.884 290.226 328.884 289.536C328.884 288.839 328.283 288.276 327.548 288.276C326.806 288.276 326.205 288.839 326.205 289.536C326.205 290.226 326.806 290.788 327.548 290.788ZM331.18 302H333.455V300.453H333.59C333.954 301.169 334.715 302.173 336.402 302.173C338.716 302.173 340.448 300.338 340.448 297.104C340.448 293.831 338.665 292.054 336.396 292.054C334.664 292.054 333.941 293.096 333.59 293.805H333.494V288.909H331.18V302ZM333.449 297.091C333.449 295.186 334.267 293.952 335.757 293.952C337.297 293.952 338.09 295.263 338.09 297.091C338.09 298.932 337.284 300.274 335.757 300.274C334.28 300.274 333.449 298.996 333.449 297.091ZM352.179 288.909H349.923L346.669 290.999V293.173L349.731 291.217H349.808V302H352.179V288.909Z" fill="white"/>
<rect x="623" y="269" width="100" height="50" rx="5" fill="#EB77A6"/>
<path d="M654.291 301H662.428V299.012H656.663V287.909H654.291V301ZM664.384 301H666.698V291.182H664.384V301ZM665.548 289.788C666.283 289.788 666.884 289.226 666.884 288.536C666.884 287.839 666.283 287.276 665.548 287.276C664.806 287.276 664.205 287.839 664.205 288.536C664.205 289.226 664.806 289.788 665.548 289.788ZM669.18 301H671.455V299.453H671.59C671.954 300.169 672.715 301.173 674.402 301.173C676.716 301.173 678.448 299.338 678.448 296.104C678.448 292.831 676.665 291.054 674.396 291.054C672.664 291.054 671.941 292.096 671.59 292.805H671.494V287.909H669.18V301ZM671.449 296.091C671.449 294.186 672.267 292.952 673.757 292.952C675.297 292.952 676.09 294.263 676.09 296.091C676.09 297.932 675.284 299.274 673.757 299.274C672.28 299.274 671.449 297.996 671.449 296.091ZM689.553 301.179C692.353 301.179 694.392 299.575 694.385 297.363C694.392 295.727 693.369 294.55 691.534 294.288V294.186C692.953 293.879 693.906 292.825 693.9 291.354C693.906 289.36 692.206 287.73 689.591 287.73C687.047 287.73 685.078 289.245 685.027 291.438H687.309C687.348 290.338 688.37 289.654 689.578 289.654C690.799 289.654 691.611 290.396 691.605 291.495C691.611 292.639 690.665 293.4 689.31 293.4H688.153V295.228H689.31C690.966 295.228 691.95 296.059 691.944 297.241C691.95 298.398 690.946 299.191 689.547 299.191C688.23 299.191 687.213 298.507 687.156 297.44H684.752C684.816 299.651 686.792 301.179 689.553 301.179Z" fill="white"/>
<line x1="505" y1="295" x2="505" y2="355" stroke="#FFC562" stroke-width="2"/>
<rect x="454" y="269" width="100" height="50" rx="5" fill="#FFC562"/>
<rect x="479" y="343" width="50" height="25" rx="5" fill="#EB77A6"/>
<path d="M482.972 301L484.053 297.772H488.974L490.061 301H492.592L487.977 287.909H485.05L480.441 301H482.972ZM484.692 295.867L486.462 290.594H486.565L488.335 295.867H484.692ZM494.214 304.682H496.528V299.453H496.624C496.988 300.169 497.749 301.173 499.437 301.173C501.751 301.173 503.483 299.338 503.483 296.104C503.483 292.831 501.699 291.054 499.43 291.054C497.698 291.054 496.976 292.096 496.624 292.805H496.49V291.182H494.214V304.682ZM496.483 296.091C496.483 294.186 497.302 292.952 498.791 292.952C500.331 292.952 501.124 294.263 501.124 296.091C501.124 297.932 500.319 299.274 498.791 299.274C497.314 299.274 496.483 297.996 496.483 296.091ZM505.464 304.682H507.778V299.453H507.874C508.238 300.169 508.999 301.173 510.687 301.173C513.001 301.173 514.733 299.338 514.733 296.104C514.733 292.831 512.949 291.054 510.68 291.054C508.948 291.054 508.226 292.096 507.874 292.805H507.74V291.182H505.464V304.682ZM507.733 296.091C507.733 294.186 508.552 292.952 510.041 292.952C511.581 292.952 512.374 294.263 512.374 296.091C512.374 297.932 511.569 299.274 510.041 299.274C508.564 299.274 507.733 297.996 507.733 296.091ZM521.154 301H530.128V299.018H524.426V298.929L526.683 296.634C529.227 294.192 529.93 293.004 529.93 291.527C529.93 289.335 528.146 287.73 525.513 287.73C522.918 287.73 521.077 289.341 521.077 291.827H523.333C523.333 290.491 524.177 289.654 525.481 289.654C526.727 289.654 527.654 290.415 527.654 291.648C527.654 292.741 526.99 293.521 525.698 294.832L521.154 299.287V301Z" fill="white"/>
<line x1="840.5" y1="355" x2="840.5" y2="294" stroke="#61A8E8" stroke-width="3"/>
<rect x="792" y="269" width="100" height="50" rx="5" fill="#61A8E8"/>
<rect x="817" y="343" width="50" height="25" rx="5" fill="#EB77A6"/>
<path d="M822.291 301H830.428V299.012H824.663V287.909H822.291V301ZM832.384 301H834.698V291.182H832.384V301ZM833.548 289.788C834.283 289.788 834.884 289.226 834.884 288.536C834.884 287.839 834.283 287.276 833.548 287.276C832.806 287.276 832.205 287.839 832.205 288.536C832.205 289.226 832.806 289.788 833.548 289.788ZM837.18 301H839.455V299.453H839.59C839.954 300.169 840.715 301.173 842.402 301.173C844.716 301.173 846.448 299.338 846.448 296.104C846.448 292.831 844.665 291.054 842.396 291.054C840.664 291.054 839.941 292.096 839.59 292.805H839.494V287.909H837.18V301ZM839.449 296.091C839.449 294.186 840.267 292.952 841.757 292.952C843.297 292.952 844.09 294.263 844.09 296.091C844.09 297.932 843.284 299.274 841.757 299.274C840.28 299.274 839.449 297.996 839.449 296.091ZM852.855 301H861.829V299.018H856.127V298.929L858.384 296.634C860.928 294.192 861.631 293.004 861.631 291.527C861.631 289.335 859.848 287.73 857.214 287.73C854.619 287.73 852.778 289.341 852.778 291.827H855.034C855.034 290.491 855.878 289.654 857.182 289.654C858.429 289.654 859.355 290.415 859.355 291.648C859.355 292.741 858.691 293.521 857.4 294.832L852.855 299.287V301Z" fill="white"/>
<rect x="17" y="87" width="945" height="427" rx="15" stroke="#9CA3AF" stroke-width="3" stroke-dasharray="6 6"/>
<path d="M587.992 826L599.465 827.302L594.856 816.715L587.992 826ZM712.162 770.853L595.845 821.491L596.643 823.324L712.96 772.687L712.162 770.853Z" fill="#FF6D74"/>
<circle cx="712.789" cy="771.5" r="47.5" fill="#FF6D74"/>
<path d="M689.261 768L690.341 764.772H695.263L696.35 768H698.881L694.266 754.909H691.338L686.73 768H689.261ZM690.98 762.867L692.751 757.594H692.853L694.624 762.867H690.98ZM700.503 771.682H702.817V766.453H702.913C703.277 767.169 704.038 768.173 705.725 768.173C708.039 768.173 709.771 766.338 709.771 763.104C709.771 759.831 707.988 758.054 705.719 758.054C703.987 758.054 703.264 759.096 702.913 759.805H702.778V758.182H700.503V771.682ZM702.772 763.091C702.772 761.186 703.59 759.952 705.08 759.952C706.62 759.952 707.413 761.263 707.413 763.091C707.413 764.932 706.607 766.274 705.08 766.274C703.603 766.274 702.772 764.996 702.772 763.091ZM711.753 771.682H714.067V766.453H714.163C714.527 767.169 715.288 768.173 716.975 768.173C719.289 768.173 721.021 766.338 721.021 763.104C721.021 759.831 719.238 758.054 716.969 758.054C715.237 758.054 714.514 759.096 714.163 759.805H714.028V758.182H711.753V771.682ZM714.022 763.091C714.022 761.186 714.84 759.952 716.33 759.952C717.87 759.952 718.663 761.263 718.663 763.091C718.663 764.932 717.857 766.274 716.33 766.274C714.853 766.274 714.022 764.996 714.022 763.091ZM727.442 768H736.417V766.018H730.715V765.929L732.971 763.634C735.515 761.192 736.218 760.004 736.218 758.527C736.218 756.335 734.435 754.73 731.802 754.73C729.206 754.73 727.365 756.341 727.365 758.827H729.622C729.622 757.491 730.466 756.654 731.77 756.654C733.016 756.654 733.943 757.415 733.943 758.648C733.943 759.741 733.278 760.521 731.987 761.832L727.442 766.287V768ZM687.58 790H689.951V785.206H692.367L694.937 790H697.583L694.752 784.81C696.292 784.19 697.104 782.873 697.104 781.096C697.104 778.597 695.493 776.909 692.489 776.909H687.58V790ZM689.951 783.237V778.891H692.125C693.895 778.891 694.688 779.702 694.688 781.096C694.688 782.489 693.895 783.237 692.137 783.237H689.951ZM703.39 790.192C705.679 790.192 707.251 789.073 707.66 787.366L705.5 787.124C705.187 787.955 704.42 788.389 703.422 788.389C701.927 788.389 700.936 787.405 700.917 785.724H707.756V785.014C707.756 781.569 705.685 780.054 703.269 780.054C700.457 780.054 698.622 782.119 698.622 785.148C698.622 788.229 700.431 790.192 703.39 790.192ZM700.923 784.164C700.993 782.911 701.92 781.857 703.301 781.857C704.631 781.857 705.525 782.828 705.538 784.164H700.923ZM709.714 793.682H712.028V788.453H712.124C712.488 789.169 713.249 790.173 714.936 790.173C717.25 790.173 718.982 788.338 718.982 785.104C718.982 781.831 717.199 780.054 714.93 780.054C713.197 780.054 712.475 781.096 712.124 781.805H711.989V780.182H709.714V793.682ZM711.983 785.091C711.983 783.186 712.801 781.952 714.291 781.952C715.831 781.952 716.624 783.263 716.624 785.091C716.624 786.932 715.818 788.274 714.291 788.274C712.814 788.274 711.983 786.996 711.983 785.091ZM725.246 790.192C728.123 790.192 729.951 788.165 729.951 785.129C729.951 782.087 728.123 780.054 725.246 780.054C722.37 780.054 720.542 782.087 720.542 785.129C720.542 788.165 722.37 790.192 725.246 790.192ZM725.259 788.338C723.668 788.338 722.888 786.919 722.888 785.123C722.888 783.327 723.668 781.888 725.259 781.888C726.825 781.888 727.605 783.327 727.605 785.123C727.605 786.919 726.825 788.338 725.259 788.338Z" fill="white"/>
<path d="M506 946L498.519 954.796L509.877 956.877L506 946ZM492.552 1024.95L505.362 955.033L503.394 954.672L490.585 1024.59L492.552 1024.95Z" fill="#9CA3AF"/>
<circle cx="491.797" cy="1024.5" r="47.5" fill="#9CA3AF"/>
<path d="M468.269 1021L469.349 1017.77H474.271L475.358 1021H477.889L473.274 1007.91H470.346L465.738 1021H468.269ZM469.988 1015.87L471.759 1010.59H471.861L473.632 1015.87H469.988ZM479.511 1024.68H481.825V1019.45H481.921C482.285 1020.17 483.046 1021.17 484.733 1021.17C487.047 1021.17 488.779 1019.34 488.779 1016.1C488.779 1012.83 486.996 1011.05 484.727 1011.05C482.995 1011.05 482.272 1012.1 481.921 1012.81H481.787V1011.18H479.511V1024.68ZM481.78 1016.09C481.78 1014.19 482.598 1012.95 484.088 1012.95C485.628 1012.95 486.421 1014.26 486.421 1016.09C486.421 1017.93 485.615 1019.27 484.088 1019.27C482.611 1019.27 481.78 1018 481.78 1016.09ZM490.761 1024.68H493.075V1019.45H493.171C493.535 1020.17 494.296 1021.17 495.983 1021.17C498.297 1021.17 500.029 1019.34 500.029 1016.1C500.029 1012.83 498.246 1011.05 495.977 1011.05C494.245 1011.05 493.522 1012.1 493.171 1012.81H493.037V1011.18H490.761V1024.68ZM493.03 1016.09C493.03 1014.19 493.848 1012.95 495.338 1012.95C496.878 1012.95 497.671 1014.26 497.671 1016.09C497.671 1017.93 496.865 1019.27 495.338 1019.27C493.861 1019.27 493.03 1018 493.03 1016.09ZM506.45 1021H515.425V1019.02H509.723V1018.93L511.979 1016.63C514.523 1014.19 515.226 1013 515.226 1011.53C515.226 1009.33 513.443 1007.73 510.81 1007.73C508.214 1007.73 506.374 1009.34 506.374 1011.83H508.63C508.63 1010.49 509.474 1009.65 510.778 1009.65C512.024 1009.65 512.951 1010.41 512.951 1011.65C512.951 1012.74 512.286 1013.52 510.995 1014.83L506.45 1019.29V1021ZM466.588 1043H468.959V1038.21H471.375L473.945 1043H476.591L473.76 1037.81C475.3 1037.19 476.112 1035.87 476.112 1034.1C476.112 1031.6 474.501 1029.91 471.497 1029.91H466.588V1043ZM468.959 1036.24V1031.89H471.133C472.903 1031.89 473.696 1032.7 473.696 1034.1C473.696 1035.49 472.903 1036.24 471.145 1036.24H468.959ZM482.399 1043.19C484.687 1043.19 486.259 1042.07 486.668 1040.37L484.508 1040.12C484.195 1040.95 483.428 1041.39 482.431 1041.39C480.935 1041.39 479.944 1040.4 479.925 1038.72H486.764V1038.01C486.764 1034.57 484.693 1033.05 482.277 1033.05C479.465 1033.05 477.63 1035.12 477.63 1038.15C477.63 1041.23 479.439 1043.19 482.399 1043.19ZM479.931 1037.16C480.002 1035.91 480.928 1034.86 482.309 1034.86C483.639 1034.86 484.533 1035.83 484.546 1037.16H479.931ZM488.722 1046.68H491.036V1041.45H491.132C491.496 1042.17 492.257 1043.17 493.944 1043.17C496.258 1043.17 497.99 1041.34 497.99 1038.1C497.99 1034.83 496.207 1033.05 493.938 1033.05C492.206 1033.05 491.483 1034.1 491.132 1034.81H490.997V1033.18H488.722V1046.68ZM490.991 1038.09C490.991 1036.19 491.809 1034.95 493.299 1034.95C494.839 1034.95 495.632 1036.26 495.632 1038.09C495.632 1039.93 494.826 1041.27 493.299 1041.27C491.822 1041.27 490.991 1040 490.991 1038.09ZM504.255 1043.19C507.131 1043.19 508.959 1041.17 508.959 1038.13C508.959 1035.09 507.131 1033.05 504.255 1033.05C501.378 1033.05 499.55 1035.09 499.55 1038.13C499.55 1041.17 501.378 1043.19 504.255 1043.19ZM504.267 1041.34C502.676 1041.34 501.896 1039.92 501.896 1038.12C501.896 1036.33 502.676 1034.89 504.267 1034.89C505.833 1034.89 506.613 1036.33 506.613 1038.12C506.613 1039.92 505.833 1041.34 504.267 1041.34Z" fill="white"/>
<path d="M617.992 919L625.581 927.703L629.323 916.779L617.992 919ZM734.868 957.983L626.83 920.971L626.182 922.863L734.22 959.875L734.868 957.983Z" fill="#61A8E8"/>
<circle cx="735.115" cy="958.5" r="47.5" fill="#61A8E8"/>
<path d="M711.73 955L712.81 951.772H717.732L718.819 955H721.35L716.735 941.909H713.807L709.199 955H711.73ZM713.449 949.867L715.22 944.594H715.322L717.093 949.867H713.449ZM722.972 958.682H725.286V953.453H725.382C725.746 954.169 726.507 955.173 728.194 955.173C730.508 955.173 732.24 953.338 732.24 950.104C732.24 946.831 730.457 945.054 728.188 945.054C726.456 945.054 725.733 946.096 725.382 946.805H725.247V945.182H722.972V958.682ZM725.241 950.091C725.241 948.186 726.059 946.952 727.549 946.952C729.089 946.952 729.882 948.263 729.882 950.091C729.882 951.932 729.076 953.274 727.549 953.274C726.072 953.274 725.241 951.996 725.241 950.091ZM734.222 958.682H736.536V953.453H736.632C736.996 954.169 737.757 955.173 739.444 955.173C741.758 955.173 743.49 953.338 743.49 950.104C743.49 946.831 741.707 945.054 739.438 945.054C737.706 945.054 736.983 946.096 736.632 946.805H736.497V945.182H734.222V958.682ZM736.491 950.091C736.491 948.186 737.309 946.952 738.799 946.952C740.339 946.952 741.132 948.263 741.132 950.091C741.132 951.932 740.326 953.274 738.799 953.274C737.322 953.274 736.491 951.996 736.491 950.091ZM754.609 955.179C757.409 955.179 759.448 953.575 759.442 951.363C759.448 949.727 758.425 948.55 756.591 948.288V948.186C758.01 947.879 758.962 946.825 758.956 945.354C758.962 943.36 757.262 941.73 754.648 941.73C752.104 941.73 750.135 943.245 750.084 945.438H752.366C752.404 944.338 753.427 943.654 754.635 943.654C755.856 943.654 756.668 944.396 756.661 945.495C756.668 946.639 755.722 947.4 754.366 947.4H753.209V949.228H754.366C756.022 949.228 757.006 950.059 757 951.241C757.006 952.398 756.003 953.191 754.603 953.191C753.286 953.191 752.27 952.507 752.212 951.44H749.809C749.873 953.651 751.848 955.179 754.609 955.179ZM713.687 977H716.059V972.206H718.475L721.045 977H723.691L720.859 971.81C722.4 971.19 723.212 969.873 723.212 968.096C723.212 965.597 721.601 963.909 718.597 963.909H713.687V977ZM716.059 970.237V965.891H718.232C720.003 965.891 720.795 966.702 720.795 968.096C720.795 969.489 720.003 970.237 718.245 970.237H716.059ZM729.498 977.192C731.787 977.192 733.359 976.073 733.768 974.366L731.608 974.124C731.294 974.955 730.527 975.389 729.53 975.389C728.034 975.389 727.044 974.405 727.024 972.724H733.864V972.014C733.864 968.569 731.793 967.054 729.377 967.054C726.564 967.054 724.73 969.119 724.73 972.148C724.73 975.229 726.539 977.192 729.498 977.192ZM727.031 971.164C727.101 969.911 728.028 968.857 729.409 968.857C730.738 968.857 731.633 969.828 731.646 971.164H727.031ZM735.821 980.682H738.135V975.453H738.231C738.596 976.169 739.356 977.173 741.044 977.173C743.358 977.173 745.09 975.338 745.09 972.104C745.09 968.831 743.307 967.054 741.037 967.054C739.305 967.054 738.583 968.096 738.231 968.805H738.097V967.182H735.821V980.682ZM738.091 972.091C738.091 970.186 738.909 968.952 740.398 968.952C741.939 968.952 742.731 970.263 742.731 972.091C742.731 973.932 741.926 975.274 740.398 975.274C738.922 975.274 738.091 973.996 738.091 972.091ZM751.354 977.192C754.231 977.192 756.059 975.165 756.059 972.129C756.059 969.087 754.231 967.054 751.354 967.054C748.478 967.054 746.65 969.087 746.65 972.129C746.65 975.165 748.478 977.192 751.354 977.192ZM751.367 975.338C749.775 975.338 748.995 973.919 748.995 972.123C748.995 970.327 749.775 968.888 751.367 968.888C752.933 968.888 753.713 970.327 753.713 972.123C753.713 973.919 752.933 975.338 751.367 975.338Z" fill="white"/>
<path d="M447.369 841L440.998 831.37L435.843 841.702L447.369 841ZM308.475 772.824L438.869 837.877L439.762 836.087L309.368 771.034L308.475 772.824Z" fill="#70AF40"/>
<circle cx="309.492" cy="771.5" r="47.5" fill="#70AF40"/>
<path d="M285.975 768L287.055 764.772H291.977L293.064 768H295.595L290.98 754.909H288.052L283.444 768H285.975ZM287.694 762.867L289.465 757.594H289.567L291.338 762.867H287.694ZM297.217 771.682H299.531V766.453H299.627C299.991 767.169 300.752 768.173 302.439 768.173C304.753 768.173 306.485 766.338 306.485 763.104C306.485 759.831 304.702 758.054 302.433 758.054C300.701 758.054 299.978 759.096 299.627 759.805H299.493V758.182H297.217V771.682ZM299.486 763.091C299.486 761.186 300.304 759.952 301.794 759.952C303.334 759.952 304.127 761.263 304.127 763.091C304.127 764.932 303.321 766.274 301.794 766.274C300.317 766.274 299.486 764.996 299.486 763.091ZM308.467 771.682H310.781V766.453H310.877C311.241 767.169 312.002 768.173 313.689 768.173C316.003 768.173 317.735 766.338 317.735 763.104C317.735 759.831 315.952 758.054 313.683 758.054C311.951 758.054 311.228 759.096 310.877 759.805H310.743V758.182H308.467V771.682ZM310.736 763.091C310.736 761.186 311.554 759.952 313.044 759.952C314.584 759.952 315.377 761.263 315.377 763.091C315.377 764.932 314.571 766.274 313.044 766.274C311.567 766.274 310.736 764.996 310.736 763.091ZM323.92 765.571H330.165V768H332.428V765.571H334.102V763.621H332.428V754.909H329.474L323.92 763.685V765.571ZM330.19 763.621H326.349V763.519L330.088 757.594H330.19V763.621ZM288.064 790H290.436V785.206H292.852L295.422 790H298.068L295.236 784.81C296.777 784.19 297.589 782.873 297.589 781.096C297.589 778.597 295.978 776.909 292.973 776.909H288.064V790ZM290.436 783.237V778.891H292.609C294.38 778.891 295.172 779.702 295.172 781.096C295.172 782.489 294.38 783.237 292.622 783.237H290.436ZM303.875 790.192C306.163 790.192 307.736 789.073 308.145 787.366L305.984 787.124C305.671 787.955 304.904 788.389 303.907 788.389C302.411 788.389 301.421 787.405 301.401 785.724H308.241V785.014C308.241 781.569 306.17 780.054 303.754 780.054C300.941 780.054 299.107 782.119 299.107 785.148C299.107 788.229 300.916 790.192 303.875 790.192ZM301.408 784.164C301.478 782.911 302.405 781.857 303.786 781.857C305.115 781.857 306.01 782.828 306.023 784.164H301.408ZM310.198 793.682H312.512V788.453H312.608C312.973 789.169 313.733 790.173 315.421 790.173C317.735 790.173 319.467 788.338 319.467 785.104C319.467 781.831 317.684 780.054 315.414 780.054C313.682 780.054 312.96 781.096 312.608 781.805H312.474V780.182H310.198V793.682ZM312.468 785.091C312.468 783.186 313.286 781.952 314.775 781.952C316.316 781.952 317.108 783.263 317.108 785.091C317.108 786.932 316.303 788.274 314.775 788.274C313.299 788.274 312.468 786.996 312.468 785.091ZM325.731 790.192C328.608 790.192 330.436 788.165 330.436 785.129C330.436 782.087 328.608 780.054 325.731 780.054C322.855 780.054 321.027 782.087 321.027 785.129C321.027 788.165 322.855 790.192 325.731 790.192ZM325.744 788.338C324.152 788.338 323.372 786.919 323.372 785.123C323.372 783.327 324.152 781.888 325.744 781.888C327.31 781.888 328.09 783.327 328.09 785.123C328.09 786.919 327.31 788.338 325.744 788.338Z" fill="white"/>
<path d="M446.992 899L435.949 895.626L438.549 906.877L446.992 899ZM244.006 946.931L438.448 902.001L437.998 900.052L243.556 944.982L244.006 946.931Z" fill="#FFC562"/>
<circle cx="244.5" cy="946.399" r="47.5" fill="#FFC562"/>
<path d="M222.972 942.899L224.053 939.671H228.974L230.061 942.899H232.592L227.977 929.808H225.05L220.441 942.899H222.972ZM224.692 937.767L226.462 932.493H226.565L228.335 937.767H224.692ZM234.214 946.581H236.528V941.352H236.624C236.988 942.068 237.749 943.072 239.437 943.072C241.751 943.072 243.483 941.237 243.483 938.003C243.483 934.73 241.699 932.953 239.43 932.953C237.698 932.953 236.976 933.995 236.624 934.705H236.49V933.081H234.214V946.581ZM236.483 937.99C236.483 936.085 237.302 934.852 238.791 934.852C240.331 934.852 241.124 936.162 241.124 937.99C241.124 939.831 240.319 941.174 238.791 941.174C237.314 941.174 236.483 939.895 236.483 937.99ZM245.464 946.581H247.778V941.352H247.874C248.238 942.068 248.999 943.072 250.687 943.072C253.001 943.072 254.733 941.237 254.733 938.003C254.733 934.73 252.949 932.953 250.68 932.953C248.948 932.953 248.226 933.995 247.874 934.705H247.74V933.081H245.464V946.581ZM247.733 937.99C247.733 936.085 248.552 934.852 250.041 934.852C251.581 934.852 252.374 936.162 252.374 937.99C252.374 939.831 251.569 941.174 250.041 941.174C248.564 941.174 247.733 939.895 247.733 937.99ZM266.478 929.808H264.222L260.968 931.899V934.072L264.03 932.116H264.107V942.899H266.478V929.808ZM221.291 964.899H223.663V960.105H226.079L228.648 964.899H231.295L228.463 959.709C230.004 959.089 230.815 957.772 230.815 955.995C230.815 953.496 229.205 951.808 226.2 951.808H221.291V964.899ZM223.663 958.137V953.79H225.836C227.607 953.79 228.399 954.602 228.399 955.995C228.399 957.389 227.607 958.137 225.849 958.137H223.663ZM237.102 965.091C239.39 965.091 240.963 963.973 241.372 962.266L239.211 962.023C238.898 962.854 238.131 963.289 237.134 963.289C235.638 963.289 234.647 962.304 234.628 960.623H241.468V959.914C241.468 956.468 239.397 954.953 236.98 954.953C234.168 954.953 232.333 957.018 232.333 960.048C232.333 963.129 234.142 965.091 237.102 965.091ZM234.635 959.063C234.705 957.811 235.632 956.756 237.012 956.756C238.342 956.756 239.237 957.727 239.25 959.063H234.635ZM243.425 968.581H245.739V963.352H245.835C246.199 964.068 246.96 965.072 248.648 965.072C250.961 965.072 252.694 963.237 252.694 960.003C252.694 956.73 250.91 954.953 248.641 954.953C246.909 954.953 246.187 955.995 245.835 956.705H245.701V955.081H243.425V968.581ZM245.694 959.99C245.694 958.085 246.513 956.852 248.002 956.852C249.542 956.852 250.335 958.162 250.335 959.99C250.335 961.831 249.53 963.174 248.002 963.174C246.525 963.174 245.694 961.895 245.694 959.99ZM258.958 965.091C261.834 965.091 263.662 963.065 263.662 960.029C263.662 956.986 261.834 954.953 258.958 954.953C256.081 954.953 254.253 956.986 254.253 960.029C254.253 963.065 256.081 965.091 258.958 965.091ZM258.971 963.237C257.379 963.237 256.599 961.818 256.599 960.022C256.599 958.226 257.379 956.788 258.971 956.788C260.537 956.788 261.317 958.226 261.317 960.022C261.317 961.818 260.537 963.237 258.971 963.237Z" fill="white"/>
<circle cx="520.492" cy="866.5" r="59.5" fill="#EB77A6"/>
<path d="M490.618 863H498.755V861.012H492.99V849.909H490.618V863ZM500.711 863H503.025V853.182H500.711V863ZM501.874 851.788C502.61 851.788 503.21 851.226 503.21 850.536C503.21 849.839 502.61 849.276 501.874 849.276C501.133 849.276 500.532 849.839 500.532 850.536C500.532 851.226 501.133 851.788 501.874 851.788ZM505.507 863H507.782V861.453H507.917C508.281 862.169 509.042 863.173 510.729 863.173C513.043 863.173 514.775 861.338 514.775 858.104C514.775 854.831 512.992 853.054 510.723 853.054C508.99 853.054 508.268 854.096 507.917 854.805H507.821V849.909H505.507V863ZM507.776 858.091C507.776 856.186 508.594 854.952 510.083 854.952C511.624 854.952 512.417 856.263 512.417 858.091C512.417 859.932 511.611 861.274 510.083 861.274C508.607 861.274 507.776 859.996 507.776 858.091ZM516.742 863H519.056V857.228C519.056 855.982 519.996 855.099 521.268 855.099C521.658 855.099 522.144 855.17 522.342 855.234V853.105C522.131 853.067 521.767 853.041 521.511 853.041C520.386 853.041 519.446 853.68 519.088 854.818H518.986V853.182H516.742V863ZM526.511 863.198C528.052 863.198 528.972 862.476 529.394 861.651H529.471V863H531.695V856.429C531.695 853.834 529.579 853.054 527.706 853.054C525.642 853.054 524.056 853.974 523.545 855.764L525.706 856.071C525.936 855.4 526.588 854.825 527.719 854.825C528.793 854.825 529.381 855.374 529.381 856.339V856.378C529.381 857.043 528.684 857.075 526.952 857.26C525.047 857.464 523.226 858.033 523.226 860.245C523.226 862.175 524.638 863.198 526.511 863.198ZM527.112 861.498C526.147 861.498 525.456 861.057 525.456 860.207C525.456 859.318 526.23 858.947 527.265 858.8C527.873 858.717 529.087 858.564 529.387 858.321V859.478C529.387 860.571 528.505 861.498 527.112 861.498ZM534.022 863H536.336V857.228C536.336 855.982 537.275 855.099 538.547 855.099C538.937 855.099 539.423 855.17 539.621 855.234V853.105C539.41 853.067 539.046 853.041 538.79 853.041C537.665 853.041 536.726 853.68 536.368 854.818H536.265V853.182H534.022V863ZM542.895 866.682C544.698 866.682 545.74 865.755 546.296 864.189L550.24 853.195L547.766 853.182L545.497 860.597H545.395L543.132 853.182H540.677L544.238 863.205L544.04 863.735C543.611 864.854 542.934 864.93 541.924 864.636L541.387 866.439C541.7 866.567 542.263 866.682 542.895 866.682ZM499.064 885H501.436V880.206H503.852L506.422 885H509.068L506.236 879.81C507.777 879.19 508.589 877.873 508.589 876.096C508.589 873.597 506.978 871.909 503.973 871.909H499.064V885ZM501.436 878.237V873.891H503.609C505.38 873.891 506.172 874.702 506.172 876.096C506.172 877.489 505.38 878.237 503.622 878.237H501.436ZM514.875 885.192C517.163 885.192 518.736 884.073 519.145 882.366L516.984 882.124C516.671 882.955 515.904 883.389 514.907 883.389C513.411 883.389 512.421 882.405 512.401 880.724H519.241V880.014C519.241 876.569 517.17 875.054 514.754 875.054C511.941 875.054 510.107 877.119 510.107 880.148C510.107 883.229 511.916 885.192 514.875 885.192ZM512.408 879.164C512.478 877.911 513.405 876.857 514.786 876.857C516.115 876.857 517.01 877.828 517.023 879.164H512.408ZM521.198 888.682H523.512V883.453H523.608C523.973 884.169 524.733 885.173 526.421 885.173C528.735 885.173 530.467 883.338 530.467 880.104C530.467 876.831 528.684 875.054 526.414 875.054C524.682 875.054 523.96 876.096 523.608 876.805H523.474V875.182H521.198V888.682ZM523.468 880.091C523.468 878.186 524.286 876.952 525.775 876.952C527.316 876.952 528.108 878.263 528.108 880.091C528.108 881.932 527.303 883.274 525.775 883.274C524.299 883.274 523.468 881.996 523.468 880.091ZM536.731 885.192C539.608 885.192 541.436 883.165 541.436 880.129C541.436 877.087 539.608 875.054 536.731 875.054C533.855 875.054 532.027 877.087 532.027 880.129C532.027 883.165 533.855 885.192 536.731 885.192ZM536.744 883.338C535.152 883.338 534.372 881.919 534.372 880.123C534.372 878.327 535.152 876.888 536.744 876.888C538.31 876.888 539.09 878.327 539.09 880.123C539.09 881.919 538.31 883.338 536.744 883.338Z" fill="white"/>
<rect x="22" y="653" width="936" height="469" rx="15" stroke="#9CA3AF" stroke-width="3" stroke-dasharray="6 6"/>
<path d="M415.876 618H419.827V608.795H425.196C431.268 608.795 434.273 605.126 434.273 600.294C434.273 595.474 431.294 591.818 425.209 591.818H415.876V618ZM419.827 605.446V595.206H424.787C428.699 595.206 430.297 597.328 430.297 600.294C430.297 603.26 428.699 605.446 424.838 605.446H419.827ZM446.622 618.396C452.158 618.396 455.776 614.344 455.776 608.271C455.776 602.161 452.158 598.108 446.622 598.108C441.087 598.108 437.469 602.161 437.469 608.271C437.469 614.344 441.087 618.396 446.622 618.396ZM446.635 615.188C443.017 615.188 441.33 612.03 441.33 608.259C441.33 604.5 443.017 601.304 446.635 601.304C450.227 601.304 451.915 604.5 451.915 608.259C451.915 612.03 450.227 615.188 446.635 615.188ZM463.865 591.818H460.042V618H463.865V591.818ZM471.423 625.364C474.581 625.364 476.575 623.714 477.713 620.621L485.831 598.402L481.702 598.364L476.729 613.602H476.524L471.551 598.364H467.46L474.645 618.256L474.172 619.56C473.2 622.168 471.832 622.385 469.736 621.81L468.815 624.942C469.276 625.146 470.273 625.364 471.423 625.364ZM489.433 618H493.255V606.009C493.255 603.439 495.237 601.585 497.947 601.585C498.74 601.585 499.635 601.726 499.941 601.815V598.159C499.558 598.108 498.804 598.07 498.318 598.07C496.017 598.07 494.048 599.374 493.332 601.483H493.127V598.364H489.433V618ZM511.009 618.396C515.292 618.396 518.322 616.287 519.191 613.091L515.573 612.439C514.883 614.293 513.221 615.239 511.048 615.239C507.775 615.239 505.576 613.116 505.474 609.332H519.434V607.977C519.434 600.882 515.19 598.108 510.741 598.108C505.269 598.108 501.664 602.276 501.664 608.31C501.664 614.408 505.218 618.396 511.009 618.396ZM505.487 606.469C505.64 603.682 507.66 601.266 510.766 601.266C513.732 601.266 515.675 603.464 515.688 606.469H505.487ZM523.675 625.364H527.498V614.945H527.728C528.418 616.197 529.824 618.384 533.404 618.384C538.159 618.384 541.611 614.574 541.611 608.22C541.611 601.854 538.108 598.108 533.365 598.108C529.722 598.108 528.405 600.332 527.728 601.547H527.408V598.364H523.675V625.364ZM527.421 608.182C527.421 604.078 529.211 601.355 532.547 601.355C536.012 601.355 537.75 604.283 537.75 608.182C537.75 612.119 535.961 615.124 532.547 615.124C529.262 615.124 527.421 612.311 527.421 608.182ZM554.165 618.396C559.701 618.396 563.319 614.344 563.319 608.271C563.319 602.161 559.701 598.108 554.165 598.108C548.63 598.108 545.012 602.161 545.012 608.271C545.012 614.344 548.63 618.396 554.165 618.396ZM554.178 615.188C550.56 615.188 548.873 612.03 548.873 608.259C548.873 604.5 550.56 601.304 554.178 601.304C557.77 601.304 559.458 604.5 559.458 608.259C559.458 612.03 557.77 615.188 554.178 615.188Z" fill="#A8A8A8"/>
</svg>
