<svg width="980" height="748" viewBox="0 0 980 748" fill="none" xmlns="http://www.w3.org/2000/svg">
<line x1="240.717" y1="335.746" x2="203.471" y2="396.831" stroke="#9CA3AF" stroke-width="2"/>
<line x1="158.08" y1="498.609" x2="201.696" y2="395.92" stroke="#9CA3AF" stroke-width="2"/>
<line x1="240.754" y1="334.77" x2="272.041" y2="395.855" stroke="#9CA3AF" stroke-width="2"/>
<line x1="295.559" y1="456.297" x2="270.231" y2="396.702" stroke="#9CA3AF" stroke-width="2"/>
<line x1="297.169" y1="455.181" x2="359.743" y2="514.776" stroke="#9CA3AF" stroke-width="2"/>
<circle cx="202.617" cy="396.311" r="22.3481" fill="#9CA3AF"/>
<circle cx="239.864" cy="335.226" r="22.3481" fill="#9CA3AF"/>
<circle cx="271.151" cy="396.311" r="22.3481" fill="#9CA3AF"/>
<ellipse cx="296.479" cy="455.317" rx="22.3481" ry="21.76" fill="#9CA3AF"/>
<path d="M106 496C106 466.729 129.729 443 159 443V443C188.271 443 212 466.729 212 496V496C212 525.271 188.271 549 159 549V549C129.729 549 106 525.271 106 496V496Z" fill="#9CA3AF"/>
<rect width="31.1538" height="31.1538" rx="5" transform="matrix(-1 0 0 1 174.154 455)" fill="#61A8E8"/>
<rect x="-0.5" y="0.5" width="30.1538" height="30.1538" rx="4.5" transform="matrix(-1 0 0 1 173.154 455)" stroke="#476088" stroke-opacity="0.35"/>
<rect width="31.1538" height="31.1538" rx="5" transform="matrix(-1 0 0 1 195.154 493)" fill="#61A8E8"/>
<rect x="-0.5" y="0.5" width="30.1538" height="30.1538" rx="4.5" transform="matrix(-1 0 0 1 194.154 493)" stroke="#476088" stroke-opacity="0.35"/>
<rect width="31.1538" height="31.1538" rx="5" transform="matrix(-1 0 0 1 152.154 493)" fill="#61A8E8"/>
<rect x="-0.5" y="0.5" width="30.1538" height="30.1538" rx="4.5" transform="matrix(-1 0 0 1 151.154 493)" stroke="#476088" stroke-opacity="0.35"/>
<path d="M334 511.5C334 489.132 352.132 471 374.5 471V471C396.868 471 415 489.132 415 511.5V511.5C415 533.868 396.868 552 374.5 552V552C352.132 552 334 533.868 334 511.5V511.5Z" fill="#9CA3AF"/>
<rect width="25" height="25" rx="5" transform="matrix(-1 0 0 1 372 499)" fill="#FFC562"/>
<rect width="25" height="25" rx="5" transform="matrix(-1 0 0 1 403 499)" fill="#FFC562"/>
<path d="M225.087 286.181L226.404 282.474H231.696L233.013 286.181H234.675L229.868 273.09H228.232L223.425 286.181H225.087ZM226.902 281.068L228.999 275.161H229.101L231.198 281.068H226.902ZM236.51 289.863H238.018V284.673H238.146C238.478 285.21 239.118 286.386 241.01 286.386C243.464 286.386 245.177 284.417 245.177 281.298C245.177 278.204 243.464 276.235 240.984 276.235C239.066 276.235 238.478 277.411 238.146 277.923H237.967V276.363H236.51V289.863ZM237.993 281.272C237.993 279.073 238.964 277.59 240.805 277.59C242.723 277.59 243.669 279.201 243.669 281.272C243.669 283.369 242.697 285.031 240.805 285.031C238.99 285.031 237.993 283.497 237.993 281.272ZM247.478 289.863H248.987V284.673H249.115C249.447 285.21 250.086 286.386 251.978 286.386C254.433 286.386 256.146 284.417 256.146 281.298C256.146 278.204 254.433 276.235 251.953 276.235C250.035 276.235 249.447 277.411 249.115 277.923H248.936V276.363H247.478V289.863ZM248.961 281.272C248.961 279.073 249.933 277.59 251.774 277.59C253.691 277.59 254.638 279.201 254.638 281.272C254.638 283.369 253.666 285.031 251.774 285.031C249.959 285.031 248.961 283.497 248.961 281.272Z" fill="#9CA3AF"/>
<rect x="40" y="228.429" width="422.076" height="342.571" rx="15" stroke="#9CA3AF" stroke-width="3" stroke-dasharray="6 6"/>
<path d="M90.7241 166.818V193H94.4826V174.041H94.7255L102.447 192.962H105.566L113.288 174.054H113.531V193H117.289V166.818H112.495L104.16 187.17H103.853L95.5181 166.818H90.7241ZM130.997 193.396C136.533 193.396 140.151 189.344 140.151 183.271C140.151 177.161 136.533 173.108 130.997 173.108C125.462 173.108 121.844 177.161 121.844 183.271C121.844 189.344 125.462 193.396 130.997 193.396ZM131.01 190.188C127.392 190.188 125.705 187.03 125.705 183.259C125.705 179.5 127.392 176.304 131.01 176.304C134.602 176.304 136.29 179.5 136.29 183.259C136.29 187.03 134.602 190.188 131.01 190.188ZM148.24 181.341C148.24 178.209 150.157 176.419 152.816 176.419C155.412 176.419 156.984 178.119 156.984 180.97V193H160.806V180.51C160.806 175.652 158.135 173.108 154.12 173.108C151.167 173.108 149.237 174.476 148.329 176.56H148.086V173.364H144.417V193H148.24V181.341ZM174.204 193.396C179.74 193.396 183.358 189.344 183.358 183.271C183.358 177.161 179.74 173.108 174.204 173.108C168.669 173.108 165.051 177.161 165.051 183.271C165.051 189.344 168.669 193.396 174.204 193.396ZM174.217 190.188C170.599 190.188 168.912 187.03 168.912 183.259C168.912 179.5 170.599 176.304 174.217 176.304C177.809 176.304 179.497 179.5 179.497 183.259C179.497 187.03 177.809 190.188 174.217 190.188ZM191.447 166.818H187.624V193H191.447V166.818ZM196.589 193H200.412V173.364H196.589V193ZM198.52 170.334C199.836 170.334 200.936 169.311 200.936 168.058C200.936 166.805 199.836 165.77 198.52 165.77C197.19 165.77 196.103 166.805 196.103 168.058C196.103 169.311 197.19 170.334 198.52 170.334ZM214.72 173.364H210.693V168.659H206.871V173.364H203.994V176.432H206.871V188.027C206.858 191.594 209.581 193.32 212.598 193.256C213.812 193.243 214.631 193.013 215.078 192.847L214.388 189.689C214.132 189.74 213.659 189.855 213.045 189.855C211.805 189.855 210.693 189.446 210.693 187.234V176.432H214.72V173.364ZM223.193 181.341C223.193 178.209 225.174 176.419 227.897 176.419C230.531 176.419 232.103 178.094 232.103 180.97V193H235.926V180.51C235.926 175.614 233.241 173.108 229.201 173.108C226.146 173.108 224.305 174.438 223.385 176.56H223.142V166.818H219.37V193H223.193V181.341ZM253.072 193L255.476 186.071H265.703L268.094 193H272.287L262.865 166.818H258.301L248.879 193H253.072ZM256.626 182.747L260.487 171.574H260.692L264.553 182.747H256.626ZM275.761 200.364H279.583V189.945H279.814C280.504 191.197 281.91 193.384 285.49 193.384C290.245 193.384 293.697 189.574 293.697 183.22C293.697 176.854 290.194 173.108 285.451 173.108C281.808 173.108 280.491 175.332 279.814 176.547H279.494V173.364H275.761V200.364ZM279.507 183.182C279.507 179.078 281.297 176.355 284.633 176.355C288.098 176.355 289.836 179.283 289.836 183.182C289.836 187.119 288.047 190.124 284.633 190.124C281.348 190.124 279.507 187.311 279.507 183.182ZM297.98 200.364H301.802V189.945H302.032C302.723 191.197 304.129 193.384 307.708 193.384C312.464 193.384 315.916 189.574 315.916 183.22C315.916 176.854 312.413 173.108 307.67 173.108C304.027 173.108 302.71 175.332 302.032 176.547H301.713V173.364H297.98V200.364ZM301.725 183.182C301.725 179.078 303.515 176.355 306.852 176.355C310.316 176.355 312.055 179.283 312.055 183.182C312.055 187.119 310.265 190.124 306.852 190.124C303.566 190.124 301.725 187.311 301.725 183.182ZM330.033 193H333.983V183.092H339.352C339.442 183.092 339.518 183.092 339.608 183.092L344.926 193H349.426L343.622 182.402C346.831 181.213 348.429 178.541 348.429 175.026C348.429 170.206 345.438 166.818 339.365 166.818H330.033V193ZM333.983 179.692V170.206H338.943C342.842 170.206 344.453 172.06 344.453 175.026C344.453 177.979 342.842 179.692 338.994 179.692H333.983ZM361.146 193.396C365.429 193.396 368.458 191.287 369.328 188.091L365.71 187.439C365.02 189.293 363.358 190.239 361.184 190.239C357.912 190.239 355.713 188.116 355.61 184.332H369.571V182.977C369.571 175.882 365.326 173.108 360.877 173.108C355.406 173.108 351.801 177.276 351.801 183.31C351.801 189.408 355.355 193.396 361.146 193.396ZM355.623 181.469C355.777 178.682 357.797 176.266 360.903 176.266C363.869 176.266 365.812 178.464 365.825 181.469H355.623ZM373.812 200.364H377.634V189.945H377.864C378.555 191.197 379.961 193.384 383.54 193.384C388.296 193.384 391.748 189.574 391.748 183.22C391.748 176.854 388.245 173.108 383.502 173.108C379.859 173.108 378.542 175.332 377.864 176.547H377.545V173.364H373.812V200.364ZM377.558 183.182C377.558 179.078 379.347 176.355 382.684 176.355C386.148 176.355 387.887 179.283 387.887 183.182C387.887 187.119 386.097 190.124 382.684 190.124C379.398 190.124 377.558 187.311 377.558 183.182ZM404.302 193.396C409.837 193.396 413.455 189.344 413.455 183.271C413.455 177.161 409.837 173.108 404.302 173.108C398.766 173.108 395.148 177.161 395.148 183.271C395.148 189.344 398.766 193.396 404.302 193.396ZM404.315 190.188C400.697 190.188 399.009 187.03 399.009 183.259C399.009 179.5 400.697 176.304 404.315 176.304C407.907 176.304 409.594 179.5 409.594 183.259C409.594 187.03 407.907 190.188 404.315 190.188Z" fill="#A8A8A8"/>
<rect x="715.177" y="345.523" width="52.6133" height="52.6133" rx="5" fill="#FFC562"/>
<rect x="715.177" y="415.674" width="52.6133" height="52.6133" rx="5" fill="#FFC562"/>
<rect x="707.408" y="336" width="68.1511" height="141.81" rx="9" stroke="#9CA3AF" stroke-width="2"/>
<path d="M703.676 283H705.261V277.886H708.125C708.24 277.886 708.349 277.886 708.457 277.88L711.219 283H713.06L710.1 277.592C711.768 277.023 712.548 275.662 712.548 273.923C712.548 271.609 711.168 269.909 708.099 269.909H703.676V283ZM705.261 276.455V271.315H708.048C710.17 271.315 710.989 272.351 710.989 273.923C710.989 275.496 710.17 276.455 708.074 276.455H705.261ZM718.996 283.205C720.991 283.205 722.448 282.207 722.908 280.724L721.451 280.315C721.067 281.338 720.179 281.849 718.996 281.849C717.226 281.849 716.005 280.705 715.934 278.602H723.062V277.963C723.062 274.307 720.888 273.054 718.843 273.054C716.184 273.054 714.419 275.151 714.419 278.168C714.419 281.185 716.158 283.205 718.996 283.205ZM715.934 277.298C716.037 275.771 717.117 274.409 718.843 274.409C720.479 274.409 721.527 275.636 721.527 277.298H715.934ZM731.544 278.986C731.544 280.827 730.138 281.67 729.013 281.67C727.76 281.67 726.865 280.75 726.865 279.318V273.182H725.356V279.42C725.356 281.926 726.686 283.128 728.527 283.128C730.01 283.128 730.981 282.335 731.441 281.338H731.544V283H733.052V273.182H731.544V278.986ZM742.77 275.381C742.297 273.987 741.236 273.054 739.293 273.054C737.222 273.054 735.687 274.23 735.687 275.892C735.687 277.247 736.493 278.155 738.295 278.577L739.932 278.96C740.922 279.19 741.389 279.663 741.389 280.341C741.389 281.185 740.494 281.875 739.088 281.875C737.854 281.875 737.081 281.344 736.812 280.29L735.381 280.648C735.732 282.316 737.106 283.205 739.114 283.205C741.396 283.205 742.949 281.958 742.949 280.264C742.949 278.896 742.092 278.033 740.341 277.605L738.883 277.247C737.72 276.96 737.196 276.57 737.196 275.815C737.196 274.972 738.091 274.358 739.293 274.358C740.609 274.358 741.153 275.087 741.415 275.764L742.77 275.381ZM748.109 283.23C749.822 283.23 750.717 282.31 751.024 281.67H751.1V283H752.609V276.531C752.609 273.412 750.231 273.054 748.978 273.054C747.495 273.054 745.808 273.565 745.041 275.355L746.472 275.866C746.805 275.151 747.591 274.384 749.029 274.384C750.416 274.384 751.1 275.119 751.1 276.378V276.429C751.1 277.158 750.359 277.094 748.569 277.324C746.747 277.56 744.759 277.963 744.759 280.213C744.759 282.131 746.242 283.23 748.109 283.23ZM748.339 281.875C747.137 281.875 746.268 281.338 746.268 280.29C746.268 279.139 747.316 278.781 748.492 278.628C749.131 278.551 750.845 278.372 751.1 278.065V279.446C751.1 280.673 750.129 281.875 748.339 281.875ZM755.567 283H757.024V281.491H757.203C757.535 282.028 758.175 283.205 760.067 283.205C762.521 283.205 764.234 281.236 764.234 278.116C764.234 275.023 762.521 273.054 760.041 273.054C758.123 273.054 757.535 274.23 757.203 274.741H757.075V269.909H755.567V283ZM757.05 278.091C757.05 275.892 758.021 274.409 759.862 274.409C761.78 274.409 762.726 276.02 762.726 278.091C762.726 280.188 761.754 281.849 759.862 281.849C758.047 281.849 757.05 280.315 757.05 278.091ZM768.05 269.909H766.542V283H768.05V269.909ZM774.93 283.205C776.924 283.205 778.381 282.207 778.842 280.724L777.384 280.315C777.001 281.338 776.112 281.849 774.93 281.849C773.159 281.849 771.938 280.705 771.868 278.602H778.995V277.963C778.995 274.307 776.822 273.054 774.776 273.054C772.117 273.054 770.353 275.151 770.353 278.168C770.353 281.185 772.092 283.205 774.93 283.205ZM771.868 277.298C771.97 275.771 773.051 274.409 774.776 274.409C776.413 274.409 777.461 275.636 777.461 277.298H771.868ZM698.873 296C698.387 293.315 696.24 291.73 693.606 291.73C690.257 291.73 687.828 294.312 687.828 298.455C687.828 302.597 690.257 305.179 693.606 305.179C696.24 305.179 698.387 303.594 698.873 300.909H697.288C696.904 302.724 695.345 303.696 693.606 303.696C691.228 303.696 689.362 301.855 689.362 298.455C689.362 295.054 691.228 293.213 693.606 293.213C695.345 293.213 696.904 294.185 697.288 296H698.873ZM705.219 305.205C707.878 305.205 709.668 303.185 709.668 300.142C709.668 297.074 707.878 295.054 705.219 295.054C702.56 295.054 700.77 297.074 700.77 300.142C700.77 303.185 702.56 305.205 705.219 305.205ZM705.219 303.849C703.199 303.849 702.279 302.111 702.279 300.142C702.279 298.173 703.199 296.409 705.219 296.409C707.239 296.409 708.159 298.173 708.159 300.142C708.159 302.111 707.239 303.849 705.219 303.849ZM711.971 305H713.479V298.864C713.479 297.425 714.527 296.409 715.703 296.409C716.848 296.409 717.647 297.157 717.647 298.276V305H719.181V298.608C719.181 297.342 719.973 296.409 721.354 296.409C722.428 296.409 723.348 296.978 723.348 298.429V305H724.857V298.429C724.857 296.121 723.617 295.054 721.865 295.054C720.459 295.054 719.43 295.7 718.925 296.716H718.823C718.337 295.668 717.48 295.054 716.189 295.054C714.911 295.054 713.965 295.668 713.556 296.716H713.428V295.182H711.971V305ZM727.615 308.682H729.124V303.491H729.251C729.584 304.028 730.223 305.205 732.115 305.205C734.57 305.205 736.283 303.236 736.283 300.116C736.283 297.023 734.57 295.054 732.089 295.054C730.172 295.054 729.584 296.23 729.251 296.741H729.072V295.182H727.615V308.682ZM729.098 300.091C729.098 297.892 730.07 296.409 731.911 296.409C733.828 296.409 734.774 298.02 734.774 300.091C734.774 302.188 733.803 303.849 731.911 303.849C730.095 303.849 729.098 302.315 729.098 300.091ZM742.572 305.205C745.232 305.205 747.021 303.185 747.021 300.142C747.021 297.074 745.232 295.054 742.572 295.054C739.913 295.054 738.124 297.074 738.124 300.142C738.124 303.185 739.913 305.205 742.572 305.205ZM742.572 303.849C740.553 303.849 739.632 302.111 739.632 300.142C739.632 298.173 740.553 296.409 742.572 296.409C744.592 296.409 745.513 298.173 745.513 300.142C745.513 302.111 744.592 303.849 742.572 303.849ZM750.833 299.094C750.833 297.381 751.894 296.409 753.338 296.409C754.738 296.409 755.588 297.323 755.588 298.864V305H757.097V298.761C757.097 296.256 755.761 295.054 753.773 295.054C752.29 295.054 751.369 295.719 750.909 296.716H750.781V295.182H749.324V305H750.833V299.094ZM763.97 305.205C765.964 305.205 767.422 304.207 767.882 302.724L766.424 302.315C766.041 303.338 765.152 303.849 763.97 303.849C762.199 303.849 760.978 302.705 760.908 300.602H768.035V299.963C768.035 296.307 765.862 295.054 763.816 295.054C761.157 295.054 759.393 297.151 759.393 300.168C759.393 303.185 761.132 305.205 763.97 305.205ZM760.908 299.298C761.01 297.771 762.091 296.409 763.816 296.409C765.453 296.409 766.501 297.636 766.501 299.298H760.908ZM771.838 299.094C771.838 297.381 772.9 296.409 774.344 296.409C775.744 296.409 776.594 297.323 776.594 298.864V305H778.103V298.761C778.103 296.256 776.767 295.054 774.779 295.054C773.296 295.054 772.375 295.719 771.915 296.716H771.787V295.182H770.33V305H771.838V299.094ZM785.129 295.182H783.032V292.83H781.524V295.182H780.041V296.46H781.524V302.597C781.524 304.31 782.905 305.128 784.183 305.128C784.746 305.128 785.104 305.026 785.308 304.949L785.001 303.594C784.873 303.619 784.669 303.67 784.336 303.67C783.672 303.67 783.032 303.466 783.032 302.188V296.46H785.129V295.182ZM794.177 297.381C793.704 295.987 792.643 295.054 790.7 295.054C788.629 295.054 787.095 296.23 787.095 297.892C787.095 299.247 787.9 300.155 789.703 300.577L791.339 300.96C792.33 301.19 792.796 301.663 792.796 302.341C792.796 303.185 791.901 303.875 790.495 303.875C789.262 303.875 788.488 303.344 788.22 302.29L786.788 302.648C787.139 304.316 788.514 305.205 790.521 305.205C792.803 305.205 794.356 303.958 794.356 302.264C794.356 300.896 793.499 300.033 791.748 299.605L790.291 299.247C789.127 298.96 788.603 298.57 788.603 297.815C788.603 296.972 789.498 296.358 790.7 296.358C792.017 296.358 792.56 297.087 792.822 297.764L794.177 297.381Z" fill="#9CA3AF"/>
<line x1="607.881" y1="354.058" x2="578.651" y2="401.995" stroke="#9CA3AF" stroke-width="2"/>
<line x1="607.917" y1="353.082" x2="632.47" y2="401.018" stroke="#9CA3AF" stroke-width="2"/>
<line x1="650.536" y1="448.633" x2="630.66" y2="401.865" stroke="#9CA3AF" stroke-width="2"/>
<circle cx="577.798" cy="401.474" r="17.5378" fill="#9CA3AF"/>
<circle cx="607.027" cy="353.538" r="17.5378" fill="#9CA3AF"/>
<circle cx="631.58" cy="401.474" r="17.5378" fill="#9CA3AF"/>
<ellipse cx="651.456" cy="447.78" rx="17.5378" ry="17.0762" fill="#9CA3AF"/>
<path d="M551.432 283L552.748 279.293H558.041L559.358 283H561.02L556.213 269.909H554.577L549.77 283H551.432ZM553.247 277.886L555.344 271.98H555.446L557.543 277.886H553.247ZM562.854 286.682H564.363V281.491H564.491C564.823 282.028 565.462 283.205 567.354 283.205C569.809 283.205 571.522 281.236 571.522 278.116C571.522 275.023 569.809 273.054 567.329 273.054C565.411 273.054 564.823 274.23 564.491 274.741H564.312V273.182H562.854V286.682ZM564.337 278.091C564.337 275.892 565.309 274.409 567.15 274.409C569.067 274.409 570.013 276.02 570.013 278.091C570.013 280.188 569.042 281.849 567.15 281.849C565.334 281.849 564.337 280.315 564.337 278.091ZM573.823 286.682H575.332V281.491H575.459C575.792 282.028 576.431 283.205 578.323 283.205C580.778 283.205 582.491 281.236 582.491 278.116C582.491 275.023 580.778 273.054 578.297 273.054C576.38 273.054 575.792 274.23 575.459 274.741H575.28V273.182H573.823V286.682ZM575.306 278.091C575.306 275.892 576.278 274.409 578.119 274.409C580.036 274.409 580.982 276.02 580.982 278.091C580.982 280.188 580.011 281.849 578.119 281.849C576.303 281.849 575.306 280.315 575.306 278.091ZM590.059 283H591.644V277.886H594.508C594.623 277.886 594.731 277.886 594.84 277.88L597.601 283H599.442L596.483 277.592C598.151 277.023 598.931 275.662 598.931 273.923C598.931 271.609 597.55 269.909 594.482 269.909H590.059V283ZM591.644 276.455V271.315H594.431C596.553 271.315 597.371 272.351 597.371 273.923C597.371 275.496 596.553 276.455 594.457 276.455H591.644ZM605.251 283.205C607.91 283.205 609.7 281.185 609.7 278.142C609.7 275.074 607.91 273.054 605.251 273.054C602.592 273.054 600.802 275.074 600.802 278.142C600.802 281.185 602.592 283.205 605.251 283.205ZM605.251 281.849C603.231 281.849 602.311 280.111 602.311 278.142C602.311 276.173 603.231 274.409 605.251 274.409C607.271 274.409 608.191 276.173 608.191 278.142C608.191 280.111 607.271 281.849 605.251 281.849ZM618.19 278.986C618.19 280.827 616.784 281.67 615.659 281.67C614.406 281.67 613.511 280.75 613.511 279.318V273.182H612.003V279.42C612.003 281.926 613.332 283.128 615.173 283.128C616.656 283.128 617.628 282.335 618.088 281.338H618.19V283H619.699V273.182H618.19V278.986ZM626.732 273.182H624.635V270.83H623.127V273.182H621.644V274.46H623.127V280.597C623.127 282.31 624.507 283.128 625.786 283.128C626.348 283.128 626.706 283.026 626.911 282.949L626.604 281.594C626.476 281.619 626.271 281.67 625.939 281.67C625.274 281.67 624.635 281.466 624.635 280.188V274.46H626.732V273.182ZM631.89 283.23C633.603 283.23 634.498 282.31 634.805 281.67H634.881V283H636.39V276.531C636.39 273.412 634.012 273.054 632.759 273.054C631.276 273.054 629.589 273.565 628.822 275.355L630.254 275.866C630.586 275.151 631.372 274.384 632.81 274.384C634.198 274.384 634.881 275.119 634.881 276.378V276.429C634.881 277.158 634.14 277.094 632.35 277.324C630.528 277.56 628.541 277.963 628.541 280.213C628.541 282.131 630.024 283.23 631.89 283.23ZM632.12 281.875C630.918 281.875 630.049 281.338 630.049 280.29C630.049 279.139 631.097 278.781 632.274 278.628C632.913 278.551 634.626 278.372 634.881 278.065V279.446C634.881 280.673 633.91 281.875 632.12 281.875ZM639.348 283H640.805V281.491H640.984C641.317 282.028 641.956 283.205 643.848 283.205C646.302 283.205 648.016 281.236 648.016 278.116C648.016 275.023 646.302 273.054 643.822 273.054C641.905 273.054 641.317 274.23 640.984 274.741H640.856V269.909H639.348V283ZM640.831 278.091C640.831 275.892 641.802 274.409 643.643 274.409C645.561 274.409 646.507 276.02 646.507 278.091C646.507 280.188 645.535 281.849 643.643 281.849C641.828 281.849 640.831 280.315 640.831 278.091ZM651.832 269.909H650.323V283H651.832V269.909ZM658.711 283.205C660.705 283.205 662.163 282.207 662.623 280.724L661.166 280.315C660.782 281.338 659.894 281.849 658.711 281.849C656.94 281.849 655.72 280.705 655.649 278.602H662.776V277.963C662.776 274.307 660.603 273.054 658.558 273.054C655.899 273.054 654.134 275.151 654.134 278.168C654.134 281.185 655.873 283.205 658.711 283.205ZM655.649 277.298C655.752 275.771 656.832 274.409 658.558 274.409C660.194 274.409 661.242 275.636 661.242 277.298H655.649ZM564.373 296C563.887 293.315 561.74 291.73 559.106 291.73C555.757 291.73 553.328 294.312 553.328 298.455C553.328 302.597 555.757 305.179 559.106 305.179C561.74 305.179 563.887 303.594 564.373 300.909H562.788C562.404 302.724 560.845 303.696 559.106 303.696C556.728 303.696 554.862 301.855 554.862 298.455C554.862 295.054 556.728 293.213 559.106 293.213C560.845 293.213 562.404 294.185 562.788 296H564.373ZM570.719 305.205C573.378 305.205 575.168 303.185 575.168 300.142C575.168 297.074 573.378 295.054 570.719 295.054C568.06 295.054 566.27 297.074 566.27 300.142C566.27 303.185 568.06 305.205 570.719 305.205ZM570.719 303.849C568.699 303.849 567.779 302.111 567.779 300.142C567.779 298.173 568.699 296.409 570.719 296.409C572.739 296.409 573.659 298.173 573.659 300.142C573.659 302.111 572.739 303.849 570.719 303.849ZM577.471 305H578.979V298.864C578.979 297.425 580.027 296.409 581.203 296.409C582.348 296.409 583.147 297.157 583.147 298.276V305H584.681V298.608C584.681 297.342 585.473 296.409 586.854 296.409C587.928 296.409 588.848 296.978 588.848 298.429V305H590.357V298.429C590.357 296.121 589.117 295.054 587.365 295.054C585.959 295.054 584.93 295.7 584.425 296.716H584.323C583.837 295.668 582.98 295.054 581.689 295.054C580.411 295.054 579.465 295.668 579.056 296.716H578.928V295.182H577.471V305ZM593.115 308.682H594.624V303.491H594.751C595.084 304.028 595.723 305.205 597.615 305.205C600.07 305.205 601.783 303.236 601.783 300.116C601.783 297.023 600.07 295.054 597.589 295.054C595.672 295.054 595.084 296.23 594.751 296.741H594.572V295.182H593.115V308.682ZM594.598 300.091C594.598 297.892 595.57 296.409 597.411 296.409C599.328 296.409 600.274 298.02 600.274 300.091C600.274 302.188 599.303 303.849 597.411 303.849C595.595 303.849 594.598 302.315 594.598 300.091ZM608.072 305.205C610.732 305.205 612.521 303.185 612.521 300.142C612.521 297.074 610.732 295.054 608.072 295.054C605.413 295.054 603.624 297.074 603.624 300.142C603.624 303.185 605.413 305.205 608.072 305.205ZM608.072 303.849C606.053 303.849 605.132 302.111 605.132 300.142C605.132 298.173 606.053 296.409 608.072 296.409C610.092 296.409 611.013 298.173 611.013 300.142C611.013 302.111 610.092 303.849 608.072 303.849ZM616.333 299.094C616.333 297.381 617.394 296.409 618.838 296.409C620.238 296.409 621.088 297.323 621.088 298.864V305H622.597V298.761C622.597 296.256 621.261 295.054 619.273 295.054C617.79 295.054 616.869 295.719 616.409 296.716H616.281V295.182H614.824V305H616.333V299.094ZM629.47 305.205C631.464 305.205 632.922 304.207 633.382 302.724L631.924 302.315C631.541 303.338 630.652 303.849 629.47 303.849C627.699 303.849 626.478 302.705 626.408 300.602H633.535V299.963C633.535 296.307 631.362 295.054 629.316 295.054C626.657 295.054 624.893 297.151 624.893 300.168C624.893 303.185 626.632 305.205 629.47 305.205ZM626.408 299.298C626.51 297.771 627.591 296.409 629.316 296.409C630.953 296.409 632.001 297.636 632.001 299.298H626.408ZM637.338 299.094C637.338 297.381 638.4 296.409 639.844 296.409C641.244 296.409 642.094 297.323 642.094 298.864V305H643.603V298.761C643.603 296.256 642.267 295.054 640.279 295.054C638.796 295.054 637.875 295.719 637.415 296.716H637.287V295.182H635.83V305H637.338V299.094ZM650.629 295.182H648.532V292.83H647.024V295.182H645.541V296.46H647.024V302.597C647.024 304.31 648.405 305.128 649.683 305.128C650.246 305.128 650.604 305.026 650.808 304.949L650.501 303.594C650.373 303.619 650.169 303.67 649.836 303.67C649.172 303.67 648.532 303.466 648.532 302.188V296.46H650.629V295.182ZM659.677 297.381C659.204 295.987 658.143 295.054 656.2 295.054C654.129 295.054 652.595 296.23 652.595 297.892C652.595 299.247 653.4 300.155 655.203 300.577L656.839 300.96C657.83 301.19 658.296 301.663 658.296 302.341C658.296 303.185 657.401 303.875 655.995 303.875C654.762 303.875 653.988 303.344 653.72 302.29L652.288 302.648C652.639 304.316 654.014 305.205 656.021 305.205C658.303 305.205 659.856 303.958 659.856 302.264C659.856 300.896 658.999 300.033 657.248 299.605L655.791 299.247C654.627 298.96 654.103 298.57 654.103 297.815C654.103 296.972 654.998 296.358 656.2 296.358C657.517 296.358 658.06 297.087 658.322 297.764L659.677 297.381Z" fill="#9CA3AF"/>
<rect x="828.588" y="345.523" width="52.6133" height="52.6133" rx="5" fill="#61A8E8"/>
<rect x="828.588" y="415.674" width="52.6133" height="52.6133" rx="5" fill="#61A8E8"/>
<rect x="828.588" y="485.825" width="52.6133" height="52.6133" rx="5" fill="#61A8E8"/>
<rect x="820.819" y="336" width="68.1511" height="211.961" rx="9" stroke="#9CA3AF" stroke-width="2"/>
<path d="M810.009 273.182H811.543C811.473 271.207 809.651 269.73 807.12 269.73C804.614 269.73 802.645 271.188 802.645 273.386C802.645 275.151 803.924 276.199 805.969 276.787L807.58 277.247C808.961 277.631 810.188 278.116 810.188 279.42C810.188 280.852 808.807 281.798 806.992 281.798C805.432 281.798 804.052 281.108 803.924 279.625H802.287C802.441 281.773 804.179 283.23 806.992 283.23C810.009 283.23 811.722 281.568 811.722 279.446C811.722 276.991 809.395 276.199 808.04 275.841L806.711 275.483C805.739 275.227 804.179 274.716 804.179 273.31C804.179 272.057 805.33 271.136 807.069 271.136C808.654 271.136 809.856 271.891 810.009 273.182ZM818.394 273.182H816.297V270.83H814.789V273.182H813.306V274.46H814.789V280.597C814.789 282.31 816.169 283.128 817.448 283.128C818.01 283.128 818.368 283.026 818.573 282.949L818.266 281.594C818.138 281.619 817.934 281.67 817.601 281.67C816.936 281.67 816.297 281.466 816.297 280.188V274.46H818.394V273.182ZM823.552 283.23C825.265 283.23 826.16 282.31 826.467 281.67H826.544V283H828.052V276.531C828.052 273.412 825.674 273.054 824.421 273.054C822.938 273.054 821.251 273.565 820.484 275.355L821.916 275.866C822.248 275.151 823.034 274.384 824.473 274.384C825.86 274.384 826.544 275.119 826.544 276.378V276.429C826.544 277.158 825.802 277.094 824.012 277.324C822.191 277.56 820.203 277.963 820.203 280.213C820.203 282.131 821.686 283.23 823.552 283.23ZM823.782 281.875C822.581 281.875 821.711 281.338 821.711 280.29C821.711 279.139 822.759 278.781 823.936 278.628C824.575 278.551 826.288 278.372 826.544 278.065V279.446C826.544 280.673 825.572 281.875 823.782 281.875ZM835.075 273.182H832.979V270.83H831.47V273.182H829.987V274.46H831.47V280.597C831.47 282.31 832.851 283.128 834.129 283.128C834.692 283.128 835.05 283.026 835.254 282.949L834.948 281.594C834.82 281.619 834.615 281.67 834.283 281.67C833.618 281.67 832.979 281.466 832.979 280.188V274.46H835.075V273.182ZM841.356 283.205C843.35 283.205 844.807 282.207 845.267 280.724L843.81 280.315C843.427 281.338 842.538 281.849 841.356 281.849C839.585 281.849 838.364 280.705 838.294 278.602H845.421V277.963C845.421 274.307 843.248 273.054 841.202 273.054C838.543 273.054 836.779 275.151 836.779 278.168C836.779 281.185 838.517 283.205 841.356 283.205ZM838.294 277.298C838.396 275.771 839.476 274.409 841.202 274.409C842.839 274.409 843.887 275.636 843.887 277.298H838.294ZM856.486 283.179C857.687 283.179 859.03 282.757 859.88 281.888L860.807 283H862.622L860.813 280.795C861.305 280.162 861.855 279.101 861.855 277.273H860.397C860.397 278.168 860.193 278.96 859.854 279.619L857.01 276.148L857.968 275.432C859.042 274.639 859.707 273.77 859.707 272.517C859.707 271.06 858.505 269.781 856.537 269.781C854.619 269.781 853.366 270.983 853.366 272.747C853.366 273.911 853.999 274.805 854.9 275.892C853.373 276.953 852.318 277.938 852.318 279.523C852.318 281.645 853.903 283.179 856.486 283.179ZM858.978 280.795C858.256 281.472 857.342 281.849 856.434 281.849C854.875 281.849 853.852 280.75 853.852 279.523C853.852 279.165 854.184 278.244 855.361 277.375L855.846 277.017L858.978 280.795ZM856.083 275.023C855.444 274.243 854.9 273.501 854.9 272.773C854.9 271.955 855.591 271.085 856.588 271.085C857.534 271.085 858.173 271.852 858.173 272.517C858.173 273.412 857.687 273.898 856.946 274.384L856.083 275.023ZM873.599 283C877.587 283 879.837 280.52 879.837 276.429C879.837 272.364 877.587 269.909 873.778 269.909H869.559V283H873.599ZM871.144 281.594V271.315H873.675C876.744 271.315 878.303 273.259 878.303 276.429C878.303 279.625 876.744 281.594 873.496 281.594H871.144ZM885.181 283.23C886.894 283.23 887.789 282.31 888.096 281.67H888.172V283H889.681V276.531C889.681 273.412 887.303 273.054 886.05 273.054C884.567 273.054 882.88 273.565 882.113 275.355L883.545 275.866C883.877 275.151 884.663 274.384 886.101 274.384C887.489 274.384 888.172 275.119 888.172 276.378V276.429C888.172 277.158 887.431 277.094 885.641 277.324C883.82 277.56 881.832 277.963 881.832 280.213C881.832 282.131 883.315 283.23 885.181 283.23ZM885.411 281.875C884.209 281.875 883.34 281.338 883.34 280.29C883.34 279.139 884.388 278.781 885.565 278.628C886.204 278.551 887.917 278.372 888.172 278.065V279.446C888.172 280.673 887.201 281.875 885.411 281.875ZM896.704 273.182H894.608V270.83H893.099V273.182H891.616V274.46H893.099V280.597C893.099 282.31 894.48 283.128 895.758 283.128C896.321 283.128 896.679 283.026 896.883 282.949L896.576 281.594C896.449 281.619 896.244 281.67 895.912 281.67C895.247 281.67 894.608 281.466 894.608 280.188V274.46H896.704V273.182ZM901.863 283.23C903.576 283.23 904.471 282.31 904.777 281.67H904.854V283H906.363V276.531C906.363 273.412 903.985 273.054 902.732 273.054C901.249 273.054 899.562 273.565 898.794 275.355L900.226 275.866C900.559 275.151 901.345 274.384 902.783 274.384C904.17 274.384 904.854 275.119 904.854 276.378V276.429C904.854 277.158 904.113 277.094 902.323 277.324C900.501 277.56 898.513 277.963 898.513 280.213C898.513 282.131 899.996 283.23 901.863 283.23ZM902.093 281.875C900.891 281.875 900.022 281.338 900.022 280.29C900.022 279.139 901.07 278.781 902.246 278.628C902.885 278.551 904.598 278.372 904.854 278.065V279.446C904.854 280.673 903.883 281.875 902.093 281.875ZM819.452 305H827.123V303.594H821.038V291.909H819.452V305ZM829.373 305H830.881V295.182H829.373V305ZM830.14 293.545C830.728 293.545 831.214 293.085 831.214 292.523C831.214 291.96 830.728 291.5 830.14 291.5C829.552 291.5 829.066 291.96 829.066 292.523C829.066 293.085 829.552 293.545 830.14 293.545ZM833.849 305H835.306V303.491H835.485C835.818 304.028 836.457 305.205 838.349 305.205C840.803 305.205 842.517 303.236 842.517 300.116C842.517 297.023 840.803 295.054 838.323 295.054C836.406 295.054 835.818 296.23 835.485 296.741H835.357V291.909H833.849V305ZM835.332 300.091C835.332 297.892 836.303 296.409 838.144 296.409C840.062 296.409 841.008 298.02 841.008 300.091C841.008 302.188 840.036 303.849 838.144 303.849C836.329 303.849 835.332 302.315 835.332 300.091ZM844.824 305H846.333V298.787C846.333 297.457 847.381 296.486 848.813 296.486C849.215 296.486 849.631 296.562 849.733 296.588V295.054C849.561 295.041 849.164 295.028 848.941 295.028C847.764 295.028 846.742 295.693 846.384 296.665H846.281V295.182H844.824V305ZM854.411 305.23C856.124 305.23 857.018 304.31 857.325 303.67H857.402V305H858.911V298.531C858.911 295.412 856.533 295.054 855.28 295.054C853.797 295.054 852.109 295.565 851.342 297.355L852.774 297.866C853.107 297.151 853.893 296.384 855.331 296.384C856.718 296.384 857.402 297.119 857.402 298.378V298.429C857.402 299.158 856.661 299.094 854.871 299.324C853.049 299.56 851.061 299.963 851.061 302.213C851.061 304.131 852.544 305.23 854.411 305.23ZM854.641 303.875C853.439 303.875 852.57 303.338 852.57 302.29C852.57 301.139 853.618 300.781 854.794 300.628C855.433 300.551 857.146 300.372 857.402 300.065V301.446C857.402 302.673 856.43 303.875 854.641 303.875ZM861.664 305H863.172V298.787C863.172 297.457 864.221 296.486 865.653 296.486C866.055 296.486 866.471 296.562 866.573 296.588V295.054C866.4 295.041 866.004 295.028 865.78 295.028C864.604 295.028 863.581 295.693 863.224 296.665H863.121V295.182H861.664V305ZM868.361 305H869.87V295.182H868.361V305ZM869.128 293.545C869.716 293.545 870.202 293.085 870.202 292.523C870.202 291.96 869.716 291.5 869.128 291.5C868.54 291.5 868.054 291.96 868.054 292.523C868.054 293.085 868.54 293.545 869.128 293.545ZM876.749 305.205C878.743 305.205 880.201 304.207 880.661 302.724L879.204 302.315C878.82 303.338 877.932 303.849 876.749 303.849C874.979 303.849 873.758 302.705 873.687 300.602H880.814V299.963C880.814 296.307 878.641 295.054 876.596 295.054C873.937 295.054 872.172 297.151 872.172 300.168C872.172 303.185 873.911 305.205 876.749 305.205ZM873.687 299.298C873.79 297.771 874.87 296.409 876.596 296.409C878.232 296.409 879.28 297.636 879.28 299.298H873.687ZM890.064 297.381C889.591 295.987 888.53 295.054 886.586 295.054C884.515 295.054 882.981 296.23 882.981 297.892C882.981 299.247 883.787 300.155 885.589 300.577L887.226 300.96C888.216 301.19 888.683 301.663 888.683 302.341C888.683 303.185 887.788 303.875 886.382 303.875C885.148 303.875 884.375 303.344 884.106 302.29L882.675 302.648C883.026 304.316 884.4 305.205 886.407 305.205C888.689 305.205 890.243 303.958 890.243 302.264C890.243 300.896 889.386 300.033 887.635 299.605L886.177 299.247C885.014 298.96 884.49 298.57 884.49 297.815C884.49 296.972 885.385 296.358 886.586 296.358C887.903 296.358 888.447 297.087 888.709 297.764L890.064 297.381Z" fill="#9CA3AF"/>
<rect x="517" y="224.921" width="422.076" height="342.571" rx="15" stroke="#9CA3AF" stroke-width="3" stroke-dasharray="6 6"/>
<path d="M571.917 169.818V196H575.676V177.041H575.919L583.64 195.962H586.76L594.481 177.054H594.724V196H598.483V169.818H593.689L585.354 190.17H585.047L576.711 169.818H571.917ZM612.191 196.396C617.726 196.396 621.344 192.344 621.344 186.271C621.344 180.161 617.726 176.108 612.191 176.108C606.655 176.108 603.037 180.161 603.037 186.271C603.037 192.344 606.655 196.396 612.191 196.396ZM612.203 193.188C608.585 193.188 606.898 190.03 606.898 186.259C606.898 182.5 608.585 179.304 612.203 179.304C615.796 179.304 617.483 182.5 617.483 186.259C617.483 190.03 615.796 193.188 612.203 193.188ZM632.961 196.384C636.541 196.384 637.947 194.197 638.638 192.945H638.957V196H642.69V169.818H638.868V179.547H638.638C637.947 178.332 636.643 176.108 632.987 176.108C628.244 176.108 624.754 179.854 624.754 186.22C624.754 192.574 628.193 196.384 632.961 196.384ZM633.805 193.124C630.392 193.124 628.615 190.119 628.615 186.182C628.615 182.283 630.354 179.355 633.805 179.355C637.142 179.355 638.932 182.078 638.932 186.182C638.932 190.311 637.104 193.124 633.805 193.124ZM660.585 187.857C660.597 191.193 658.117 192.778 655.97 192.778C653.605 192.778 651.968 191.065 651.968 188.393V176.364H648.146V188.854C648.146 193.724 650.818 196.256 654.589 196.256C657.542 196.256 659.549 194.696 660.457 192.599H660.661V196H664.42V176.364H660.585V187.857ZM673.378 169.818H669.556V196H673.378V169.818ZM684.235 196.435C687.482 196.435 689.311 194.786 690.039 193.315H690.193V196H693.926V182.96C693.926 177.246 689.426 176.108 686.306 176.108C682.752 176.108 679.48 177.54 678.201 181.119L681.794 181.938C682.356 180.544 683.788 179.202 686.357 179.202C688.825 179.202 690.09 180.493 690.09 182.717V182.807C690.09 184.2 688.659 184.175 685.13 184.584C681.41 185.018 677.6 185.99 677.6 190.452C677.6 194.312 680.502 196.435 684.235 196.435ZM685.066 193.366C682.906 193.366 681.346 192.395 681.346 190.503C681.346 188.457 683.161 187.729 685.373 187.435C686.613 187.268 689.553 186.936 690.103 186.386V188.918C690.103 191.244 688.249 193.366 685.066 193.366ZM699.017 196H702.839V184.009C702.839 181.439 704.821 179.585 707.531 179.585C708.324 179.585 709.219 179.726 709.525 179.815V176.159C709.142 176.108 708.388 176.07 707.902 176.07C705.601 176.07 703.632 177.374 702.916 179.483H702.711V176.364H699.017V196ZM724.879 196L727.282 189.071H737.51L739.9 196H744.094L734.672 169.818H730.108L720.686 196H724.879ZM728.433 185.747L732.294 174.574H732.498L736.359 185.747H728.433ZM747.568 203.364H751.39V192.945H751.62C752.311 194.197 753.717 196.384 757.296 196.384C762.052 196.384 765.504 192.574 765.504 186.22C765.504 179.854 762.001 176.108 757.258 176.108C753.615 176.108 752.298 178.332 751.62 179.547H751.301V176.364H747.568V203.364ZM751.313 186.182C751.313 182.078 753.103 179.355 756.44 179.355C759.904 179.355 761.643 182.283 761.643 186.182C761.643 190.119 759.853 193.124 756.44 193.124C753.154 193.124 751.313 190.311 751.313 186.182ZM769.786 203.364H773.609V192.945H773.839C774.529 194.197 775.936 196.384 779.515 196.384C784.271 196.384 787.722 192.574 787.722 186.22C787.722 179.854 784.22 176.108 779.477 176.108C775.833 176.108 774.517 178.332 773.839 179.547H773.519V176.364H769.786V203.364ZM773.532 186.182C773.532 182.078 775.322 179.355 778.659 179.355C782.123 179.355 783.862 182.283 783.862 186.182C783.862 190.119 782.072 193.124 778.659 193.124C775.373 193.124 773.532 190.311 773.532 186.182ZM801.839 196H805.79V186.092H811.159C811.248 186.092 811.325 186.092 811.415 186.092L816.733 196H821.233L815.429 185.402C818.638 184.213 820.236 181.541 820.236 178.026C820.236 173.206 817.244 169.818 811.172 169.818H801.839V196ZM805.79 182.692V173.206H810.75C814.649 173.206 816.26 175.06 816.26 178.026C816.26 180.979 814.649 182.692 810.801 182.692H805.79ZM832.953 196.396C837.235 196.396 840.265 194.287 841.134 191.091L837.517 190.439C836.826 192.293 835.164 193.239 832.991 193.239C829.718 193.239 827.519 191.116 827.417 187.332H841.377V185.977C841.377 178.882 837.133 176.108 832.684 176.108C827.213 176.108 823.607 180.276 823.607 186.31C823.607 192.408 827.161 196.396 832.953 196.396ZM827.43 184.469C827.583 181.682 829.603 179.266 832.71 179.266C835.676 179.266 837.619 181.464 837.632 184.469H827.43ZM845.618 203.364H849.441V192.945H849.671C850.361 194.197 851.768 196.384 855.347 196.384C860.103 196.384 863.555 192.574 863.555 186.22C863.555 179.854 860.052 176.108 855.309 176.108C851.665 176.108 850.349 178.332 849.671 179.547H849.351V176.364H845.618V203.364ZM849.364 186.182C849.364 182.078 851.154 179.355 854.491 179.355C857.955 179.355 859.694 182.283 859.694 186.182C859.694 190.119 857.904 193.124 854.491 193.124C851.205 193.124 849.364 190.311 849.364 186.182ZM876.108 196.396C881.644 196.396 885.262 192.344 885.262 186.271C885.262 180.161 881.644 176.108 876.108 176.108C870.573 176.108 866.955 180.161 866.955 186.271C866.955 192.344 870.573 196.396 876.108 196.396ZM876.121 193.188C872.503 193.188 870.816 190.03 870.816 186.259C870.816 182.5 872.503 179.304 876.121 179.304C879.714 179.304 881.401 182.5 881.401 186.259C881.401 190.03 879.714 193.188 876.121 193.188Z" fill="#A8A8A8"/>
</svg>
