<svg viewBox="0 0 340 340" fill="none" xmlns="http://www.w3.org/2000/svg">
<path fill-rule="evenodd" clip-rule="evenodd" d="M166.655 289.73C166.655 303.466 155.994 313.58 142.6 313.58C129.206 313.58 118.545 303.466 118.545 289.73C118.545 275.994 129.206 265.88 142.6 265.88C155.994 265.88 166.655 275.994 166.655 289.73ZM128.386 289.73C128.386 298.409 134.126 305.038 142.6 305.038C151.074 305.038 156.814 298.409 156.814 289.73C156.814 281.051 151.074 274.423 142.6 274.423C134.126 274.423 128.386 281.051 128.386 289.73Z"/>
<path d="M62.1484 312.965H52.9912V266.017H53.7429L76.636 291.165L99.1874 266.017H100.007V312.965H90.7819V295.539C90.7819 292.395 91.1236 287.407 91.1236 287.407C91.1236 287.407 88.3217 291.507 86.1349 293.967L76.9094 304.286H76.021L66.7954 293.967C64.6086 291.507 61.8068 287.407 61.8068 287.407C61.8068 287.407 62.1484 292.395 62.1484 295.539V312.965Z"/>
<path d="M222.435 313.375H223.392V266.495H214.44V285.971C214.44 289.183 215.055 294.445 215.055 294.445C215.055 294.445 211.843 290.208 209.588 288.09L186.148 266.085H185.191V312.965H194.144V293.489C194.144 290.14 193.46 285.015 193.46 285.015C193.46 285.015 196.672 289.183 198.995 291.37L222.435 313.375Z" fill="white"/>
<path fill-rule="evenodd" clip-rule="evenodd" d="M288.141 289.73C288.141 303.466 277.481 313.58 264.087 313.58C250.692 313.58 240.032 303.466 240.032 289.73C240.032 275.994 250.692 265.88 264.087 265.88C277.481 265.88 288.141 275.994 288.141 289.73ZM249.872 289.73C249.872 298.409 255.613 305.038 264.087 305.038C272.561 305.038 278.301 298.409 278.301 289.73C278.301 281.051 272.561 274.423 264.087 274.423C255.613 274.423 249.872 281.051 249.872 289.73Z"/>
<path fill-rule="evenodd" clip-rule="evenodd" d="M45.8997 51.0001C45.8997 34.1002 59.5997 20.4001 76.4997 20.4001C93.3996 20.4001 107.1 34.1002 107.1 51.0001C107.1 57.4336 105.114 63.4035 101.723 68.3303L151.891 111.331C156.961 107.603 163.223 105.4 170 105.4C176.776 105.4 183.038 107.603 188.109 111.332L238.277 68.3303C234.886 63.4035 232.9 57.4336 232.9 51.0001C232.9 34.1002 246.601 20.4001 263.5 20.4001C280.4 20.4001 294.1 34.1002 294.1 51.0001C294.1 66.1624 283.073 78.749 268.6 81.177V217.187L293.894 191.894L301.106 199.106L263.5 236.713L225.894 199.106L233.106 191.894L258.4 217.188V81.177C253.59 80.37 249.161 78.4408 245.39 75.6679L195.222 118.669C198.614 123.596 200.6 129.566 200.6 136C200.6 152.9 186.9 166.6 170 166.6C153.1 166.6 139.4 152.9 139.4 136C139.4 129.566 141.385 123.596 144.778 118.669L94.61 75.6679C90.8393 78.4409 86.4098 80.37 81.5997 81.177V217.188L106.894 191.894L114.106 199.106L76.5 236.713L38.8938 199.106L46.1063 191.894L71.3997 217.187V81.177C56.9273 78.749 45.8997 66.1624 45.8997 51.0001ZM76.4997 30.6001C65.2331 30.6001 56.0997 39.7335 56.0997 51.0001C56.0997 62.2667 65.2331 71.4001 76.4997 71.4001C87.7663 71.4001 96.8997 62.2667 96.8997 51.0001C96.8997 39.7335 87.7663 30.6001 76.4997 30.6001ZM170 115.6C158.733 115.6 149.6 124.733 149.6 136C149.6 147.267 158.733 156.4 170 156.4C181.266 156.4 190.4 147.267 190.4 136C190.4 124.733 181.266 115.6 170 115.6ZM263.5 30.6001C274.767 30.6001 283.9 39.7335 283.9 51.0001C283.9 62.2667 274.767 71.4001 263.5 71.4001C252.234 71.4001 243.1 62.2667 243.1 51.0001C243.1 39.7335 252.234 30.6001 263.5 30.6001Z"/>
</svg>
