<svg width="980" height="748" viewBox="0 0 980 748" fill="none" xmlns="http://www.w3.org/2000/svg">
<circle cx="479" cy="445" r="95" fill="#FF6D74"/>
<path d="M452.465 430H457.764C460.762 430 462.232 428.472 462.232 426.433C462.232 424.452 460.826 423.288 459.432 423.218V423.09C460.711 422.79 461.721 421.895 461.721 420.303C461.721 418.354 460.314 416.909 457.476 416.909H452.465V430ZM454.836 428.018V424.183H457.451C458.915 424.183 459.822 425.078 459.822 426.248C459.822 427.29 459.106 428.018 457.387 428.018H454.836ZM454.836 422.477V418.865H457.233C458.627 418.865 459.349 419.6 459.349 420.61C459.349 421.761 458.416 422.477 457.182 422.477H454.836ZM464.193 430H466.507V420.182H464.193V430ZM465.356 418.788C466.091 418.788 466.692 418.226 466.692 417.536C466.692 416.839 466.091 416.276 465.356 416.276C464.615 416.276 464.014 416.839 464.014 417.536C464.014 418.226 464.615 418.788 465.356 418.788ZM471.2 424.247C471.2 422.828 472.057 422.01 473.278 422.01C474.473 422.01 475.189 422.796 475.189 424.107V430H477.503V423.749C477.509 421.396 476.167 420.054 474.14 420.054C472.67 420.054 471.66 420.757 471.213 421.85H471.098V420.182H468.886V430H471.2V424.247ZM482.68 430.198C484.221 430.198 485.141 429.476 485.563 428.651H485.64V430H487.864V423.429C487.864 420.834 485.748 420.054 483.876 420.054C481.811 420.054 480.226 420.974 479.714 422.764L481.875 423.071C482.105 422.4 482.757 421.825 483.888 421.825C484.962 421.825 485.55 422.374 485.55 423.34V423.378C485.55 424.043 484.854 424.075 483.121 424.26C481.216 424.465 479.395 425.033 479.395 427.245C479.395 429.175 480.807 430.198 482.68 430.198ZM483.281 428.498C482.316 428.498 481.626 428.057 481.626 427.207C481.626 426.318 482.399 425.947 483.434 425.8C484.042 425.717 485.256 425.564 485.557 425.321V426.478C485.557 427.571 484.675 428.498 483.281 428.498ZM490.191 430H492.505V424.228C492.505 422.982 493.444 422.099 494.716 422.099C495.106 422.099 495.592 422.17 495.79 422.234V420.105C495.579 420.067 495.215 420.041 494.959 420.041C493.834 420.041 492.895 420.68 492.537 421.818H492.434V420.182H490.191V430ZM499.065 433.682C500.867 433.682 501.909 432.755 502.465 431.189L506.409 420.195L503.935 420.182L501.666 427.597H501.564L499.301 420.182H496.847L500.407 430.205L500.209 430.735C499.781 431.854 499.103 431.93 498.093 431.636L497.556 433.439C497.869 433.567 498.432 433.682 499.065 433.682ZM433.032 452H435.404V447.206H437.82L440.39 452H443.036L440.204 446.81C441.745 446.19 442.557 444.873 442.557 443.096C442.557 440.597 440.946 438.909 437.941 438.909H433.032V452ZM435.404 445.237V440.891H437.577C439.348 440.891 440.14 441.702 440.14 443.096C440.14 444.489 439.348 445.237 437.59 445.237H435.404ZM448.843 452.192C451.131 452.192 452.704 451.073 453.113 449.367L450.953 449.124C450.639 449.955 449.872 450.389 448.875 450.389C447.379 450.389 446.389 449.405 446.369 447.724H453.209V447.014C453.209 443.569 451.138 442.054 448.722 442.054C445.909 442.054 444.075 444.119 444.075 447.148C444.075 450.229 445.884 452.192 448.843 452.192ZM446.376 446.164C446.446 444.911 447.373 443.857 448.754 443.857C450.083 443.857 450.978 444.828 450.991 446.164H446.376ZM455.166 455.682H457.48V450.453H457.576C457.941 451.169 458.701 452.173 460.389 452.173C462.703 452.173 464.435 450.338 464.435 447.104C464.435 443.831 462.652 442.054 460.382 442.054C458.65 442.054 457.928 443.096 457.576 443.805H457.442V442.182H455.166V455.682ZM457.436 447.091C457.436 445.186 458.254 443.952 459.743 443.952C461.284 443.952 462.076 445.263 462.076 447.091C462.076 448.932 461.271 450.274 459.743 450.274C458.267 450.274 457.436 448.996 457.436 447.091ZM470.699 452.192C473.576 452.192 475.404 450.166 475.404 447.129C475.404 444.087 473.576 442.054 470.699 442.054C467.823 442.054 465.995 444.087 465.995 447.129C465.995 450.166 467.823 452.192 470.699 452.192ZM470.712 450.338C469.12 450.338 468.34 448.919 468.34 447.123C468.34 445.327 469.12 443.889 470.712 443.889C472.278 443.889 473.058 445.327 473.058 447.123C473.058 448.919 472.278 450.338 470.712 450.338ZM485.128 444.777C484.808 443.115 483.478 442.054 481.177 442.054C478.812 442.054 477.201 443.217 477.208 445.033C477.201 446.465 478.084 447.411 479.969 447.8L481.644 448.152C482.545 448.35 482.967 448.715 482.967 449.271C482.967 449.942 482.238 450.447 481.139 450.447C480.078 450.447 479.388 449.987 479.189 449.104L476.933 449.322C477.221 451.124 478.736 452.192 481.145 452.192C483.6 452.192 485.332 450.92 485.339 449.06C485.332 447.66 484.431 446.803 482.577 446.401L480.902 446.043C479.905 445.819 479.509 445.474 479.515 444.905C479.509 444.24 480.244 443.78 481.209 443.78C482.277 443.78 482.839 444.362 483.018 445.007L485.128 444.777ZM487.247 452H489.56V442.182H487.247V452ZM488.41 440.788C489.145 440.788 489.746 440.226 489.746 439.536C489.746 438.839 489.145 438.276 488.41 438.276C487.668 438.276 487.068 438.839 487.068 439.536C487.068 440.226 487.668 440.788 488.41 440.788ZM496.843 442.182H494.906V439.83H492.592V442.182H491.198V443.972H492.592V449.43C492.579 451.278 493.921 452.185 495.66 452.134C496.318 452.115 496.772 451.987 497.022 451.904L496.632 450.095C496.504 450.127 496.242 450.185 495.954 450.185C495.372 450.185 494.906 449.98 494.906 449.047V443.972H496.843V442.182ZM502.955 452.192C505.831 452.192 507.66 450.166 507.66 447.129C507.66 444.087 505.831 442.054 502.955 442.054C500.079 442.054 498.25 444.087 498.25 447.129C498.25 450.166 500.079 452.192 502.955 452.192ZM502.968 450.338C501.376 450.338 500.596 448.919 500.596 447.123C500.596 445.327 501.376 443.889 502.968 443.889C504.534 443.889 505.314 445.327 505.314 447.123C505.314 448.919 504.534 450.338 502.968 450.338ZM509.623 452H511.937V446.228C511.937 444.982 512.877 444.099 514.149 444.099C514.539 444.099 515.025 444.17 515.223 444.234V442.105C515.012 442.067 514.648 442.041 514.392 442.041C513.267 442.041 512.327 442.68 511.969 443.818H511.867V442.182H509.623V452ZM518.497 455.682C520.3 455.682 521.342 454.755 521.898 453.189L525.842 442.195L523.368 442.182L521.099 449.597H520.997L518.734 442.182H516.279L519.84 452.205L519.641 452.735C519.213 453.854 518.536 453.93 517.526 453.636L516.989 455.439C517.302 455.567 517.864 455.682 518.497 455.682ZM398.799 463.909C398.799 466.39 399.46 468.453 400.768 470.223H402.463C401.454 468.911 400.673 466.266 400.673 463.909C400.673 461.548 401.454 458.903 402.463 457.59H400.768C399.46 459.36 398.799 461.428 398.799 463.909ZM405.248 469L406.089 466.489H409.917L410.762 469H412.731L409.141 458.818H406.864L403.28 469H405.248ZM406.586 465.008L407.963 460.906H408.042L409.419 465.008H406.586ZM413.992 469H415.792V464.511C415.792 463.541 416.523 462.855 417.512 462.855C417.815 462.855 418.193 462.91 418.347 462.96V461.304C418.183 461.274 417.9 461.254 417.701 461.254C416.826 461.254 416.095 461.751 415.817 462.636H415.737V461.364H413.992V469ZM423.766 461.364H422.26V459.534H420.46V461.364H419.376V462.756H420.46V467.001C420.45 468.438 421.494 469.144 422.847 469.104C423.359 469.09 423.712 468.99 423.905 468.925L423.602 467.518C423.503 467.543 423.299 467.588 423.075 467.588C422.623 467.588 422.26 467.429 422.26 466.703V462.756H423.766V461.364ZM425.271 469H427.071V461.364H425.271V469ZM426.176 460.28C426.748 460.28 427.215 459.842 427.215 459.305C427.215 458.764 426.748 458.326 426.176 458.326C425.6 458.326 425.132 458.764 425.132 459.305C425.132 459.842 425.6 460.28 426.176 460.28ZM432.79 461.364H431.204V460.762C431.204 460.166 431.452 459.832 432.123 459.832C432.407 459.832 432.646 459.897 432.795 459.942L433.158 458.55C432.924 458.47 432.412 458.341 431.79 458.341C430.463 458.341 429.404 459.102 429.404 460.643V461.364H428.275V462.756H429.404V469H431.204V462.756H432.79V461.364ZM436.137 469.154C437.335 469.154 438.051 468.592 438.379 467.951H438.439V469H440.169V463.889C440.169 461.871 438.523 461.264 437.066 461.264C435.461 461.264 434.228 461.98 433.83 463.372L435.51 463.611C435.689 463.089 436.196 462.641 437.076 462.641C437.912 462.641 438.369 463.069 438.369 463.82V463.849C438.369 464.367 437.827 464.391 436.48 464.536C434.998 464.695 433.581 465.137 433.581 466.857C433.581 468.359 434.68 469.154 436.137 469.154ZM436.604 467.832C435.853 467.832 435.316 467.489 435.316 466.827C435.316 466.136 435.918 465.848 436.723 465.734C437.196 465.669 438.14 465.55 438.374 465.361V466.261C438.374 467.111 437.688 467.832 436.604 467.832ZM445.309 469.149C447.228 469.149 448.451 468.011 448.581 466.39H446.861C446.706 467.21 446.115 467.683 445.324 467.683C444.201 467.683 443.475 466.743 443.475 465.182C443.475 463.641 444.216 462.716 445.324 462.716C446.189 462.716 446.721 463.273 446.861 464.009H448.581C448.456 462.353 447.164 461.264 445.299 461.264C443.062 461.264 441.65 462.88 441.65 465.212C441.65 467.523 443.027 469.149 445.309 469.149ZM453.872 461.364H452.365V459.534H450.566V461.364H449.482V462.756H450.566V467.001C450.556 468.438 451.6 469.144 452.952 469.104C453.464 469.09 453.817 468.99 454.011 468.925L453.708 467.518C453.608 467.543 453.404 467.588 453.181 467.588C452.728 467.588 452.365 467.429 452.365 466.703V462.756H453.872V461.364ZM458.626 469.149C460.863 469.149 462.285 467.573 462.285 465.212C462.285 462.845 460.863 461.264 458.626 461.264C456.389 461.264 454.967 462.845 454.967 465.212C454.967 467.573 456.389 469.149 458.626 469.149ZM458.636 467.707C457.398 467.707 456.791 466.604 456.791 465.207C456.791 463.81 457.398 462.691 458.636 462.691C459.854 462.691 460.46 463.81 460.46 465.207C460.46 466.604 459.854 467.707 458.636 467.707ZM463.812 469H465.612V464.511C465.612 463.541 466.343 462.855 467.332 462.855C467.636 462.855 468.013 462.91 468.168 462.96V461.304C468.003 461.274 467.72 461.254 467.521 461.254C466.646 461.254 465.915 461.751 465.637 462.636H465.557V461.364H463.812V469ZM470.714 471.864C472.116 471.864 472.927 471.143 473.359 469.925L476.427 461.374L474.503 461.364L472.738 467.131H472.658L470.898 461.364H468.989L471.758 469.159L471.604 469.572C471.271 470.442 470.744 470.501 469.959 470.273L469.541 471.675C469.785 471.774 470.222 471.864 470.714 471.864ZM479.31 467.608H477.719L477.684 468.165C477.6 469.512 477.247 470.884 477.103 471.486H478.316C478.554 470.859 479.106 469.408 479.245 468.155L479.31 467.608ZM492.931 458.818H491.097V465.759H491.007L486.214 458.818H484.564V469H486.408V462.065H486.493L491.29 469H492.931V458.818ZM498.242 469.149C500.022 469.149 501.245 468.279 501.563 466.952L499.883 466.763C499.639 467.409 499.042 467.747 498.267 467.747C497.103 467.747 496.333 466.982 496.318 465.674H501.638V465.122C501.638 462.443 500.027 461.264 498.147 461.264C495.96 461.264 494.533 462.87 494.533 465.227C494.533 467.623 495.94 469.149 498.242 469.149ZM496.323 464.461C496.378 463.487 497.098 462.666 498.172 462.666C499.206 462.666 499.902 463.422 499.912 464.461H496.323ZM504.481 461.364H502.572L504.839 465.182L502.513 469H504.422L506.022 466.251L507.638 469H509.532L507.191 465.182L509.493 461.364H507.589L506.022 464.183L504.481 461.364ZM515.752 465.788C515.752 466.952 514.922 467.528 514.126 467.528C513.261 467.528 512.684 466.917 512.684 465.947V461.364H510.885V466.226C510.885 468.06 511.929 469.099 513.43 469.099C514.574 469.099 515.379 468.498 515.727 467.643H515.807V469H517.552V461.364H515.752V465.788ZM525.438 463.382C525.189 462.09 524.155 461.264 522.365 461.264C520.526 461.264 519.273 462.169 519.278 463.581C519.273 464.695 519.959 465.43 521.426 465.734L522.728 466.007C523.429 466.161 523.757 466.445 523.757 466.877C523.757 467.399 523.191 467.792 522.335 467.792C521.51 467.792 520.973 467.434 520.819 466.748L519.064 466.917C519.288 468.319 520.466 469.149 522.34 469.149C524.25 469.149 525.597 468.16 525.602 466.713C525.597 465.624 524.896 464.958 523.454 464.645L522.152 464.367C521.376 464.193 521.068 463.924 521.073 463.482C521.068 462.965 521.639 462.607 522.39 462.607C523.22 462.607 523.658 463.059 523.797 463.561L525.438 463.382ZM529.199 467.608H527.608L527.573 468.165C527.489 469.512 527.136 470.884 526.991 471.486H528.204C528.443 470.859 528.995 469.408 529.134 468.155L529.199 467.608ZM537.754 469.149C539.533 469.149 540.756 468.279 541.075 466.952L539.394 466.763C539.151 467.409 538.554 467.747 537.778 467.747C536.615 467.747 535.845 466.982 535.83 465.674H541.149V465.122C541.149 462.443 539.538 461.264 537.659 461.264C535.472 461.264 534.045 462.87 534.045 465.227C534.045 467.623 535.452 469.149 537.754 469.149ZM535.835 464.461C535.889 463.487 536.61 462.666 537.684 462.666C538.718 462.666 539.414 463.422 539.424 464.461H535.835ZM546.485 461.364H544.979V459.534H543.179V461.364H542.095V462.756H543.179V467.001C543.169 468.438 544.213 469.144 545.565 469.104C546.077 469.09 546.43 468.99 546.624 468.925L546.321 467.518C546.222 467.543 546.018 467.588 545.794 467.588C545.342 467.588 544.979 467.429 544.979 466.703V462.756H546.485V461.364ZM551.239 469.149C553.158 469.149 554.381 468.011 554.51 466.39H552.79C552.636 467.21 552.044 467.683 551.254 467.683C550.13 467.683 549.405 466.743 549.405 465.182C549.405 463.641 550.145 462.716 551.254 462.716C552.119 462.716 552.651 463.273 552.79 464.009H554.51C554.386 462.353 553.093 461.264 551.229 461.264C548.992 461.264 547.58 462.88 547.58 465.212C547.58 467.523 548.957 469.149 551.239 469.149ZM559.2 464.849C559.2 462.368 558.539 460.305 557.231 458.535H555.536C556.545 459.847 557.326 462.492 557.326 464.849C557.326 467.21 556.545 469.855 555.536 471.168H557.231C558.539 469.398 559.2 467.33 559.2 464.849Z" fill="white"/>
<path d="M405 350L395.123 329.125L381.983 348.116L405 350ZM218.862 223.645L389.06 341.403L391.336 338.114L221.138 220.355L218.862 223.645Z" fill="#476088"/>
<circle cx="220" cy="222" r="50" fill="#476088"/>
<path d="M197.387 218L198.468 214.772H203.389L204.476 218H207.007L202.392 204.909H199.465L194.856 218H197.387ZM199.107 212.867L200.877 207.594H200.98L202.75 212.867H199.107ZM208.629 221.682H210.943V216.453H211.039C211.403 217.169 212.164 218.173 213.852 218.173C216.166 218.173 217.898 216.338 217.898 213.104C217.898 209.831 216.114 208.054 213.845 208.054C212.113 208.054 211.391 209.096 211.039 209.805H210.905V208.182H208.629V221.682ZM210.899 213.091C210.899 211.186 211.717 209.952 213.206 209.952C214.747 209.952 215.539 211.263 215.539 213.091C215.539 214.932 214.734 216.274 213.206 216.274C211.729 216.274 210.899 214.996 210.899 213.091ZM219.879 221.682H222.193V216.453H222.289C222.653 217.169 223.414 218.173 225.102 218.173C227.416 218.173 229.148 216.338 229.148 213.104C229.148 209.831 227.364 208.054 225.095 208.054C223.363 208.054 222.641 209.096 222.289 209.805H222.155V208.182H219.879V221.682ZM222.149 213.091C222.149 211.186 222.967 209.952 224.456 209.952C225.997 209.952 226.789 211.263 226.789 213.091C226.789 214.932 225.984 216.274 224.456 216.274C222.979 216.274 222.149 214.996 222.149 213.091ZM235.569 218H244.543V216.018H238.841V215.929L241.098 213.634C243.642 211.192 244.345 210.004 244.345 208.527C244.345 206.334 242.562 204.73 239.928 204.73C237.333 204.73 235.492 206.341 235.492 208.827H237.748C237.748 207.491 238.592 206.654 239.896 206.654C241.142 206.654 242.069 207.415 242.069 208.648C242.069 209.741 241.405 210.521 240.113 211.832L235.569 216.287V218ZM199.072 240H201.444V235.206H203.86L206.43 240H209.076L206.244 234.81C207.785 234.19 208.597 232.873 208.597 231.096C208.597 228.597 206.986 226.909 203.982 226.909H199.072V240ZM201.444 233.237V228.891H203.617C205.388 228.891 206.18 229.702 206.18 231.096C206.18 232.489 205.388 233.237 203.63 233.237H201.444ZM214.883 240.192C217.172 240.192 218.744 239.073 219.153 237.366L216.993 237.124C216.679 237.954 215.912 238.389 214.915 238.389C213.419 238.389 212.429 237.405 212.409 235.724H219.249V235.014C219.249 231.569 217.178 230.054 214.762 230.054C211.949 230.054 210.115 232.119 210.115 235.148C210.115 238.229 211.924 240.192 214.883 240.192ZM212.416 234.164C212.486 232.911 213.413 231.856 214.794 231.856C216.123 231.856 217.018 232.828 217.031 234.164H212.416ZM221.206 243.682H223.52V238.453H223.616C223.981 239.169 224.741 240.173 226.429 240.173C228.743 240.173 230.475 238.338 230.475 235.104C230.475 231.831 228.692 230.054 226.422 230.054C224.69 230.054 223.968 231.096 223.616 231.805H223.482V230.182H221.206V243.682ZM223.476 235.091C223.476 233.186 224.294 231.952 225.783 231.952C227.324 231.952 228.116 233.263 228.116 235.091C228.116 236.932 227.311 238.274 225.783 238.274C224.307 238.274 223.476 236.996 223.476 235.091ZM236.739 240.192C239.616 240.192 241.444 238.165 241.444 235.129C241.444 232.087 239.616 230.054 236.739 230.054C233.863 230.054 232.035 232.087 232.035 235.129C232.035 238.165 233.863 240.192 236.739 240.192ZM236.752 238.338C235.16 238.338 234.381 236.919 234.381 235.123C234.381 233.327 235.16 231.888 236.752 231.888C238.318 231.888 239.098 233.327 239.098 235.123C239.098 236.919 238.318 238.338 236.752 238.338Z" fill="white"/>
<path d="M201.113 373.31L191.13 352.485L178.087 371.543L201.113 373.31ZM187.429 361.522C161.162 342.384 149.883 326.498 150.777 308.733C151.229 299.758 154.787 290.053 161.519 278.927C168.251 267.803 178.078 255.383 190.909 240.997L187.924 238.334C175.033 252.788 165.017 265.421 158.097 276.856C151.179 288.289 147.279 298.648 146.782 308.532C145.778 328.484 158.638 345.494 185.073 364.755L187.429 361.522Z" fill="#476088"/>
<path d="M590 212L578.326 192.074L566.906 212.147L590 212ZM575.256 201.315C537.944 182.592 483.953 170.628 427.17 168.941C370.376 167.254 310.563 175.841 261.621 198.425L263.297 202.057C311.52 179.804 370.676 171.265 427.051 172.94C483.436 174.615 536.813 186.5 573.462 204.89L575.256 201.315Z" fill="#476088"/>
<path d="M332 664L310.122 656.606L314.657 679.25L332 664ZM314.185 665.542C279.433 668.494 240.533 649.053 204.888 616.269C169.306 583.542 137.288 537.8 116.333 488.871C95.3695 439.923 85.5591 387.982 94.1254 342.813C102.669 297.762 129.508 259.307 182.236 237.084L180.683 233.398C126.683 256.157 98.9814 295.74 90.1954 342.068C81.4318 388.277 91.5026 441.054 112.656 490.446C133.817 539.856 166.152 586.075 202.181 619.213C238.148 652.294 278.12 672.62 314.524 669.527L314.185 665.542Z" fill="#476088"/>
<path d="M193.322 315.364H188.4L183.874 329.95H183.67L179.157 315.364H174.222L181.215 335H186.329L193.322 315.364ZM205.869 335.358C211.469 335.358 215.547 332.149 215.534 327.726C215.547 324.453 213.502 322.101 209.833 321.577V321.372C212.671 320.759 214.575 318.649 214.563 315.709C214.575 311.72 211.175 308.46 205.946 308.46C200.858 308.46 196.921 311.49 196.818 315.875H201.382C201.459 313.676 203.504 312.308 205.921 312.308C208.362 312.308 209.986 313.791 209.973 315.99C209.986 318.278 208.094 319.8 205.384 319.8H203.07V323.456H205.384C208.695 323.456 210.664 325.118 210.651 327.483C210.664 329.797 208.656 331.382 205.857 331.382C203.223 331.382 201.191 330.014 201.075 327.879H196.269C196.396 332.303 200.347 335.358 205.869 335.358Z" fill="#70AF40"/>
<path d="M558.322 154.364H553.4L548.874 168.95H548.67L544.157 154.364H539.222L546.215 174H551.329L558.322 154.364ZM570.869 174.358C576.469 174.358 580.547 171.149 580.534 166.726C580.547 163.453 578.502 161.101 574.833 160.577V160.372C577.671 159.759 579.575 157.649 579.563 154.709C579.575 150.72 576.175 147.46 570.946 147.46C565.858 147.46 561.921 150.49 561.818 154.875H566.382C566.459 152.676 568.504 151.308 570.921 151.308C573.362 151.308 574.986 152.791 574.973 154.99C574.986 157.278 573.094 158.8 570.384 158.8H568.07V162.456H570.384C573.695 162.456 575.664 164.118 575.651 166.483C575.664 168.797 573.656 170.382 570.857 170.382C568.223 170.382 566.191 169.014 566.075 166.879H561.269C561.396 171.303 565.347 174.358 570.869 174.358Z" fill="#70AF40"/>
<path d="M300.398 628.364H295.476L290.951 642.95H290.746L286.233 628.364H281.299L288.292 648H293.405L300.398 628.364ZM314.199 621.818H309.686L303.179 625.999V630.345L309.302 626.433H309.456V648H314.199V621.818Z" fill="#70AF40"/>
<path d="M601 450L621 461.547V438.453L601 450ZM830 448H619V452H830V448Z" fill="#476088"/>
<path d="M467 666L485.131 680.303L488.453 657.45L467 666ZM484.581 670.575C562.44 679.346 653.741 657.846 723.431 618.217C792.998 578.659 841.817 520.523 832.982 455.73L829.018 456.27C837.509 518.533 790.621 575.41 721.454 614.74C652.411 654 561.951 675.266 485.029 666.6L484.581 670.575Z" fill="#476088"/>
<circle cx="829" cy="450" r="50" fill="#476088"/>
<path d="M808.153 446L809.233 442.772H814.155L815.242 446H817.773L813.158 432.909H810.23L805.622 446H808.153ZM809.872 440.867L811.643 435.594H811.745L813.516 440.867H809.872ZM819.395 449.682H821.709V444.453H821.805C822.169 445.169 822.93 446.173 824.617 446.173C826.931 446.173 828.663 444.338 828.663 441.104C828.663 437.831 826.88 436.054 824.611 436.054C822.879 436.054 822.156 437.096 821.805 437.805H821.671V436.182H819.395V449.682ZM821.664 441.091C821.664 439.186 822.482 437.952 823.972 437.952C825.512 437.952 826.305 439.263 826.305 441.091C826.305 442.932 825.499 444.274 823.972 444.274C822.495 444.274 821.664 442.996 821.664 441.091ZM830.645 449.682H832.959V444.453H833.055C833.419 445.169 834.18 446.173 835.867 446.173C838.181 446.173 839.913 444.338 839.913 441.104C839.913 437.831 838.13 436.054 835.861 436.054C834.129 436.054 833.406 437.096 833.055 437.805H832.921V436.182H830.645V449.682ZM832.914 441.091C832.914 439.186 833.732 437.952 835.222 437.952C836.762 437.952 837.555 439.263 837.555 441.091C837.555 442.932 836.749 444.274 835.222 444.274C833.745 444.274 832.914 442.996 832.914 441.091ZM851.659 432.909H849.402L846.149 434.999V437.173L849.211 435.217H849.287V446H851.659V432.909ZM808.572 468H810.944V463.206H813.36L815.93 468H818.576L815.744 462.81C817.285 462.19 818.097 460.873 818.097 459.096C818.097 456.597 816.486 454.909 813.482 454.909H808.572V468ZM810.944 461.237V456.891H813.117C814.888 456.891 815.68 457.702 815.68 459.096C815.68 460.489 814.888 461.237 813.13 461.237H810.944ZM824.383 468.192C826.672 468.192 828.244 467.073 828.653 465.366L826.493 465.124C826.179 465.955 825.412 466.389 824.415 466.389C822.919 466.389 821.929 465.405 821.909 463.724H828.749V463.014C828.749 459.569 826.678 458.054 824.262 458.054C821.449 458.054 819.615 460.119 819.615 463.148C819.615 466.229 821.424 468.192 824.383 468.192ZM821.916 462.164C821.986 460.911 822.913 459.857 824.294 459.857C825.623 459.857 826.518 460.828 826.531 462.164H821.916ZM830.706 471.682H833.02V466.453H833.116C833.481 467.169 834.241 468.173 835.929 468.173C838.243 468.173 839.975 466.338 839.975 463.104C839.975 459.831 838.192 458.054 835.922 458.054C834.19 458.054 833.468 459.096 833.116 459.805H832.982V458.182H830.706V471.682ZM832.976 463.091C832.976 461.186 833.794 459.952 835.283 459.952C836.824 459.952 837.616 461.263 837.616 463.091C837.616 464.932 836.811 466.274 835.283 466.274C833.807 466.274 832.976 464.996 832.976 463.091ZM846.239 468.192C849.116 468.192 850.944 466.165 850.944 463.129C850.944 460.087 849.116 458.054 846.239 458.054C843.363 458.054 841.535 460.087 841.535 463.129C841.535 466.165 843.363 468.192 846.239 468.192ZM846.252 466.338C844.66 466.338 843.881 464.919 843.881 463.123C843.881 461.327 844.66 459.888 846.252 459.888C847.818 459.888 848.598 461.327 848.598 463.123C848.598 464.919 847.818 466.338 846.252 466.338Z" fill="white"/>
<path d="M499.367 628.364H494.445L489.919 642.95H489.715L485.202 628.364H480.267L487.26 648H492.374L499.367 628.364ZM502.518 648H520.467V644.037H509.064V643.858L513.576 639.268C518.664 634.385 520.071 632.007 520.071 629.054C520.071 624.669 516.504 621.46 511.237 621.46C506.047 621.46 502.365 624.682 502.365 629.655H506.877C506.877 626.983 508.565 625.308 511.173 625.308C513.666 625.308 515.52 626.83 515.52 629.297C515.52 631.483 514.19 633.043 511.608 635.663L502.518 644.574V648Z" fill="#70AF40"/>
<path d="M601 450L621 461.547V438.453L601 450ZM830 448H619V452H830V448Z" fill="#476088"/>
<path d="M467 666L485.132 680.303L488.453 657.449L467 666ZM484.582 670.575C562.44 679.346 653.741 657.845 723.431 618.217C792.999 578.659 841.817 520.523 832.982 455.73L829.019 456.27C837.509 518.533 790.621 575.409 721.454 614.74C652.411 654 561.951 675.266 485.029 666.6L484.582 670.575Z" fill="#476088"/>
<path d="M712 239L729.874 253.623L733.602 230.832L712 239ZM729.398 243.872C794.271 255.398 829.76 272.829 844.096 303.986C851.289 319.617 853.281 338.945 850.702 363.199C848.123 387.456 840.991 416.482 830.091 451.404L833.909 452.596C844.837 417.587 852.06 388.268 854.68 363.622C857.3 338.975 855.335 318.843 847.73 302.314C832.472 269.153 795.008 251.466 730.098 239.933L729.398 243.872Z" fill="#476088"/>
<circle cx="829" cy="450" r="50" fill="#476088"/>
<path d="M808.153 446L809.233 442.772H814.155L815.242 446H817.773L813.158 432.909H810.231L805.622 446H808.153ZM809.873 440.867L811.643 435.594H811.745L813.516 440.867H809.873ZM819.395 449.682H821.709V444.453H821.805C822.169 445.169 822.93 446.173 824.617 446.173C826.931 446.173 828.664 444.338 828.664 441.104C828.664 437.831 826.88 436.054 824.611 436.054C822.879 436.054 822.156 437.096 821.805 437.805H821.671V436.182H819.395V449.682ZM821.664 441.091C821.664 439.186 822.482 437.952 823.972 437.952C825.512 437.952 826.305 439.263 826.305 441.091C826.305 442.932 825.5 444.274 823.972 444.274C822.495 444.274 821.664 442.996 821.664 441.091ZM830.645 449.682H832.959V444.453H833.055C833.419 445.169 834.18 446.173 835.867 446.173C838.181 446.173 839.914 444.338 839.914 441.104C839.914 437.831 838.13 436.054 835.861 436.054C834.129 436.054 833.406 437.096 833.055 437.805H832.921V436.182H830.645V449.682ZM832.914 441.091C832.914 439.186 833.732 437.952 835.222 437.952C836.762 437.952 837.555 439.263 837.555 441.091C837.555 442.932 836.75 444.274 835.222 444.274C833.745 444.274 832.914 442.996 832.914 441.091ZM851.659 432.909H849.403L846.149 434.999V437.173L849.211 435.217H849.287V446H851.659V432.909ZM808.573 468H810.944V463.206H813.36L815.93 468H818.576L815.744 462.81C817.285 462.19 818.097 460.873 818.097 459.096C818.097 456.597 816.486 454.909 813.482 454.909H808.573V468ZM810.944 461.237V456.891H813.117C814.888 456.891 815.681 457.702 815.681 459.096C815.681 460.489 814.888 461.237 813.13 461.237H810.944ZM824.383 468.192C826.672 468.192 828.244 467.073 828.653 465.367L826.493 465.124C826.179 465.955 825.412 466.389 824.415 466.389C822.92 466.389 821.929 465.405 821.91 463.724H828.749V463.014C828.749 459.569 826.678 458.054 824.262 458.054C821.449 458.054 819.615 460.119 819.615 463.148C819.615 466.229 821.424 468.192 824.383 468.192ZM821.916 462.164C821.986 460.911 822.913 459.857 824.294 459.857C825.623 459.857 826.518 460.828 826.531 462.164H821.916ZM830.707 471.682H833.021V466.453H833.116C833.481 467.169 834.241 468.173 835.929 468.173C838.243 468.173 839.975 466.338 839.975 463.104C839.975 459.831 838.192 458.054 835.923 458.054C834.19 458.054 833.468 459.096 833.116 459.805H832.982V458.182H830.707V471.682ZM832.976 463.091C832.976 461.186 833.794 459.952 835.283 459.952C836.824 459.952 837.616 461.263 837.616 463.091C837.616 464.932 836.811 466.274 835.283 466.274C833.807 466.274 832.976 464.996 832.976 463.091ZM846.239 468.192C849.116 468.192 850.944 466.166 850.944 463.129C850.944 460.087 849.116 458.054 846.239 458.054C843.363 458.054 841.535 460.087 841.535 463.129C841.535 466.166 843.363 468.192 846.239 468.192ZM846.252 466.338C844.66 466.338 843.881 464.919 843.881 463.123C843.881 461.327 844.66 459.889 846.252 459.889C847.818 459.889 848.598 461.327 848.598 463.123C848.598 464.919 847.818 466.338 846.252 466.338Z" fill="white"/>
<path d="M499.367 628.364H494.445L489.92 642.95H489.715L485.202 628.364H480.268L487.26 648H492.374L499.367 628.364ZM502.518 648H520.467V644.037H509.064V643.858L513.576 639.268C518.665 634.385 520.071 632.007 520.071 629.054C520.071 624.669 516.504 621.46 511.237 621.46C506.047 621.46 502.365 624.682 502.365 629.655H506.878C506.878 626.983 508.565 625.308 511.173 625.308C513.666 625.308 515.52 626.829 515.52 629.297C515.52 631.483 514.19 633.042 511.608 635.663L502.518 644.574V648Z" fill="#70AF40"/>
<path d="M753.398 203.364H748.476L743.951 217.95H743.746L739.233 203.364H734.299L741.292 223H746.405L753.398 203.364ZM767.199 196.818H762.686L756.179 200.999V205.345L762.302 201.433H762.456V223H767.199V196.818Z" fill="#70AF40"/>
<path d="M532 344L554.548 339.006L538.949 321.976L532 344ZM649.649 233.525L543.923 330.367L546.624 333.317L652.351 236.475L649.649 233.525Z" fill="#70AF40"/>
<circle cx="651" cy="227" r="50" fill="#70AF40"/>
<path d="M615.57 223H623.707V221.012H617.941V209.909H615.57V223ZM625.663 223H627.977V213.182H625.663V223ZM626.826 211.788C627.561 211.788 628.162 211.226 628.162 210.535C628.162 209.839 627.561 209.276 626.826 209.276C626.085 209.276 625.484 209.839 625.484 210.535C625.484 211.226 626.085 211.788 626.826 211.788ZM630.458 223H632.734V221.453H632.868C633.232 222.169 633.993 223.173 635.681 223.173C637.995 223.173 639.727 221.338 639.727 218.104C639.727 214.831 637.943 213.054 635.674 213.054C633.942 213.054 633.22 214.096 632.868 214.805H632.772V209.909H630.458V223ZM632.727 218.091C632.727 216.186 633.546 214.952 635.035 214.952C636.575 214.952 637.368 216.263 637.368 218.091C637.368 219.932 636.563 221.274 635.035 221.274C633.558 221.274 632.727 219.996 632.727 218.091ZM641.694 223H644.008V217.228C644.008 215.982 644.947 215.099 646.219 215.099C646.609 215.099 647.095 215.17 647.293 215.234V213.105C647.082 213.067 646.718 213.041 646.462 213.041C645.337 213.041 644.398 213.68 644.04 214.818H643.938V213.182H641.694V223ZM651.463 223.198C653.003 223.198 653.924 222.476 654.345 221.651H654.422V223H656.647V216.429C656.647 213.834 654.531 213.054 652.658 213.054C650.593 213.054 649.008 213.974 648.497 215.764L650.657 216.071C650.887 215.4 651.539 214.825 652.671 214.825C653.745 214.825 654.333 215.374 654.333 216.339V216.378C654.333 217.043 653.636 217.075 651.904 217.26C649.999 217.464 648.177 218.033 648.177 220.245C648.177 222.175 649.59 223.198 651.463 223.198ZM652.063 221.498C651.098 221.498 650.408 221.057 650.408 220.207C650.408 219.318 651.181 218.947 652.217 218.8C652.824 218.717 654.039 218.564 654.339 218.321V219.478C654.339 220.571 653.457 221.498 652.063 221.498ZM658.973 223H661.287V217.228C661.287 215.982 662.227 215.099 663.499 215.099C663.889 215.099 664.375 215.17 664.573 215.234V213.105C664.362 213.067 663.997 213.041 663.742 213.041C662.617 213.041 661.677 213.68 661.319 214.818H661.217V213.182H658.973V223ZM667.847 226.682C669.65 226.682 670.691 225.755 671.248 224.189L675.191 213.195L672.718 213.182L670.449 220.597H670.346L668.083 213.182H665.629L669.189 223.205L668.991 223.735C668.563 224.854 667.885 224.93 666.875 224.636L666.338 226.439C666.652 226.567 667.214 226.682 667.847 226.682ZM686.561 209.909H684.305L681.051 211.999V214.173L684.113 212.217H684.19V223H686.561V209.909ZM630.573 245H632.944V240.206H635.36L637.93 245H640.576L637.744 239.81C639.285 239.19 640.097 237.873 640.097 236.096C640.097 233.597 638.486 231.909 635.482 231.909H630.573V245ZM632.944 238.237V233.891H635.117C636.888 233.891 637.681 234.702 637.681 236.096C637.681 237.489 636.888 238.237 635.13 238.237H632.944ZM646.383 245.192C648.672 245.192 650.244 244.073 650.653 242.366L648.493 242.124C648.179 242.955 647.412 243.389 646.415 243.389C644.92 243.389 643.929 242.405 643.91 240.724H650.749V240.014C650.749 236.569 648.678 235.054 646.262 235.054C643.449 235.054 641.615 237.119 641.615 240.148C641.615 243.229 643.424 245.192 646.383 245.192ZM643.916 239.164C643.986 237.911 644.913 236.857 646.294 236.857C647.623 236.857 648.518 237.828 648.531 239.164H643.916ZM652.707 248.682H655.021V243.453H655.116C655.481 244.169 656.241 245.173 657.929 245.173C660.243 245.173 661.975 243.338 661.975 240.104C661.975 236.831 660.192 235.054 657.923 235.054C656.19 235.054 655.468 236.096 655.116 236.805H654.982V235.182H652.707V248.682ZM654.976 240.091C654.976 238.186 655.794 236.952 657.283 236.952C658.824 236.952 659.616 238.263 659.616 240.091C659.616 241.932 658.811 243.274 657.283 243.274C655.807 243.274 654.976 241.996 654.976 240.091ZM668.239 245.192C671.116 245.192 672.944 243.165 672.944 240.129C672.944 237.087 671.116 235.054 668.239 235.054C665.363 235.054 663.535 237.087 663.535 240.129C663.535 243.165 665.363 245.192 668.239 245.192ZM668.252 243.338C666.66 243.338 665.881 241.919 665.881 240.123C665.881 238.327 666.66 236.888 668.252 236.888C669.818 236.888 670.598 238.327 670.598 240.123C670.598 241.919 669.818 243.338 668.252 243.338Z" fill="white"/>
<path d="M430 574L412.721 589.322L434.63 596.625L430 574ZM399.897 670.632L426.205 591.709L422.411 590.444L396.103 669.367L399.897 670.632Z" fill="#70AF40"/>
<circle cx="397" cy="670" r="50" fill="#70AF40"/>
<path d="M360.304 666H368.441V664.012H362.675V652.909H360.304V666ZM370.397 666H372.711V656.182H370.397V666ZM371.56 654.788C372.295 654.788 372.896 654.226 372.896 653.535C372.896 652.839 372.295 652.276 371.56 652.276C370.819 652.276 370.218 652.839 370.218 653.535C370.218 654.226 370.819 654.788 371.56 654.788ZM375.193 666H377.468V664.453H377.602C377.967 665.169 378.727 666.173 380.415 666.173C382.729 666.173 384.461 664.338 384.461 661.104C384.461 657.831 382.678 656.054 380.409 656.054C378.676 656.054 377.954 657.096 377.602 657.805H377.507V652.909H375.193V666ZM377.462 661.091C377.462 659.186 378.28 657.952 379.769 657.952C381.31 657.952 382.102 659.263 382.102 661.091C382.102 662.932 381.297 664.274 379.769 664.274C378.293 664.274 377.462 662.996 377.462 661.091ZM386.428 666H388.742V660.228C388.742 658.981 389.682 658.099 390.954 658.099C391.344 658.099 391.83 658.17 392.028 658.234V656.105C391.817 656.067 391.452 656.041 391.197 656.041C390.072 656.041 389.132 656.68 388.774 657.818H388.672V656.182H386.428V666ZM396.197 666.198C397.737 666.198 398.658 665.476 399.08 664.651H399.156V666H401.381V659.429C401.381 656.834 399.265 656.054 397.392 656.054C395.328 656.054 393.742 656.974 393.231 658.764L395.392 659.071C395.622 658.4 396.274 657.825 397.405 657.825C398.479 657.825 399.067 658.374 399.067 659.339V659.378C399.067 660.043 398.37 660.075 396.638 660.26C394.733 660.464 392.911 661.033 392.911 663.245C392.911 665.175 394.324 666.198 396.197 666.198ZM396.798 664.498C395.833 664.498 395.142 664.057 395.142 663.207C395.142 662.318 395.916 661.947 396.951 661.8C397.558 661.717 398.773 661.564 399.073 661.321V662.478C399.073 663.571 398.191 664.498 396.798 664.498ZM403.708 666H406.022V660.228C406.022 658.981 406.961 658.099 408.233 658.099C408.623 658.099 409.109 658.17 409.307 658.234V656.105C409.096 656.067 408.732 656.041 408.476 656.041C407.351 656.041 406.411 656.68 406.053 657.818H405.951V656.182H403.708V666ZM412.581 669.682C414.384 669.682 415.426 668.755 415.982 667.189L419.926 656.195L417.452 656.182L415.183 663.597H415.081L412.818 656.182H410.363L413.924 666.204L413.726 666.735C413.297 667.854 412.62 667.93 411.61 667.636L411.073 669.439C411.386 669.567 411.949 669.682 412.581 669.682ZM425.971 666H434.946V664.018H429.244V663.929L431.5 661.634C434.044 659.192 434.747 658.003 434.747 656.527C434.747 654.334 432.964 652.73 430.33 652.73C427.735 652.73 425.894 654.341 425.894 656.827H428.151C428.151 655.491 428.995 654.654 430.299 654.654C431.545 654.654 432.472 655.415 432.472 656.648C432.472 657.741 431.807 658.521 430.516 659.832L425.971 664.287V666ZM376.573 688H378.944V683.206H381.36L383.93 688H386.576L383.744 682.81C385.285 682.19 386.097 680.873 386.097 679.096C386.097 676.597 384.486 674.909 381.482 674.909H376.573V688ZM378.944 681.237V676.891H381.117C382.888 676.891 383.681 677.702 383.681 679.096C383.681 680.489 382.888 681.237 381.13 681.237H378.944ZM392.383 688.192C394.672 688.192 396.244 687.073 396.653 685.366L394.493 685.124C394.179 685.954 393.412 686.389 392.415 686.389C390.92 686.389 389.929 685.405 389.91 683.724H396.749V683.014C396.749 679.569 394.678 678.054 392.262 678.054C389.449 678.054 387.615 680.119 387.615 683.148C387.615 686.229 389.424 688.192 392.383 688.192ZM389.916 682.164C389.986 680.911 390.913 679.856 392.294 679.856C393.623 679.856 394.518 680.828 394.531 682.164H389.916ZM398.707 691.682H401.021V686.453H401.116C401.481 687.169 402.241 688.173 403.929 688.173C406.243 688.173 407.975 686.338 407.975 683.104C407.975 679.831 406.192 678.054 403.923 678.054C402.19 678.054 401.468 679.096 401.116 679.805H400.982V678.182H398.707V691.682ZM400.976 683.091C400.976 681.186 401.794 679.952 403.283 679.952C404.824 679.952 405.616 681.263 405.616 683.091C405.616 684.932 404.811 686.274 403.283 686.274C401.807 686.274 400.976 684.996 400.976 683.091ZM414.239 688.192C417.116 688.192 418.944 686.165 418.944 683.129C418.944 680.087 417.116 678.054 414.239 678.054C411.363 678.054 409.535 680.087 409.535 683.129C409.535 686.165 411.363 688.192 414.239 688.192ZM414.252 686.338C412.66 686.338 411.881 684.919 411.881 683.123C411.881 681.327 412.66 679.888 414.252 679.888C415.818 679.888 416.598 681.327 416.598 683.123C416.598 684.919 415.818 686.338 414.252 686.338Z" fill="white"/>
<path d="M369 422L351.707 406.693L347.098 429.323L369 422ZM260.601 401.96L350.963 420.367L351.762 416.447L261.399 398.04L260.601 401.96Z" fill="#70AF40"/>
<circle cx="261" cy="400" r="50" fill="#70AF40"/>
<path d="M223.532 396H231.669V394.012H225.903V382.909H223.532V396ZM233.625 396H235.939V386.182H233.625V396ZM234.788 384.788C235.523 384.788 236.124 384.226 236.124 383.536C236.124 382.839 235.523 382.276 234.788 382.276C234.046 382.276 233.446 382.839 233.446 383.536C233.446 384.226 234.046 384.788 234.788 384.788ZM238.42 396H240.696V394.453H240.83C241.194 395.169 241.955 396.173 243.643 396.173C245.956 396.173 247.689 394.338 247.689 391.104C247.689 387.831 245.905 386.054 243.636 386.054C241.904 386.054 241.182 387.096 240.83 387.805H240.734V382.909H238.42V396ZM240.689 391.091C240.689 389.186 241.508 387.952 242.997 387.952C244.537 387.952 245.33 389.263 245.33 391.091C245.33 392.932 244.525 394.274 242.997 394.274C241.52 394.274 240.689 392.996 240.689 391.091ZM249.656 396H251.97V390.228C251.97 388.982 252.909 388.099 254.181 388.099C254.571 388.099 255.057 388.17 255.255 388.234V386.105C255.044 386.067 254.68 386.041 254.424 386.041C253.299 386.041 252.36 386.68 252.002 387.818H251.899V386.182H249.656V396ZM259.424 396.198C260.965 396.198 261.885 395.476 262.307 394.651H262.384V396H264.608V389.429C264.608 386.834 262.493 386.054 260.62 386.054C258.555 386.054 256.97 386.974 256.459 388.764L258.619 389.071C258.849 388.4 259.501 387.825 260.633 387.825C261.706 387.825 262.295 388.374 262.295 389.34V389.378C262.295 390.043 261.598 390.075 259.866 390.26C257.961 390.465 256.139 391.033 256.139 393.245C256.139 395.175 257.552 396.198 259.424 396.198ZM260.025 394.498C259.06 394.498 258.37 394.057 258.37 393.207C258.37 392.318 259.143 391.947 260.179 391.8C260.786 391.717 262 391.564 262.301 391.321V392.478C262.301 393.571 261.419 394.498 260.025 394.498ZM266.935 396H269.249V390.228C269.249 388.982 270.189 388.099 271.461 388.099C271.851 388.099 272.336 388.17 272.535 388.234V386.105C272.324 386.067 271.959 386.041 271.704 386.041C270.579 386.041 269.639 386.68 269.281 387.818H269.179V386.182H266.935V396ZM275.809 399.682C277.611 399.682 278.653 398.755 279.209 397.189L283.153 386.195L280.68 386.182L278.41 393.597H278.308L276.045 386.182H273.591L277.151 396.205L276.953 396.735C276.525 397.854 275.847 397.93 274.837 397.636L274.3 399.439C274.614 399.567 275.176 399.682 275.809 399.682ZM293.897 396.179C296.697 396.179 298.736 394.575 298.729 392.363C298.736 390.727 297.713 389.55 295.878 389.288V389.186C297.297 388.879 298.25 387.825 298.243 386.354C298.25 384.36 296.549 382.73 293.935 382.73C291.391 382.73 289.422 384.245 289.371 386.438H291.653C291.692 385.338 292.714 384.654 293.922 384.654C295.143 384.654 295.955 385.396 295.949 386.495C295.955 387.639 295.009 388.4 293.654 388.4H292.497V390.228H293.654C295.309 390.228 296.294 391.059 296.287 392.242C296.294 393.398 295.29 394.191 293.89 394.191C292.574 394.191 291.557 393.507 291.5 392.44H289.096C289.16 394.651 291.135 396.179 293.897 396.179ZM240.073 418H242.444V413.206H244.86L247.43 418H250.076L247.244 412.81C248.785 412.19 249.597 410.873 249.597 409.096C249.597 406.597 247.986 404.909 244.982 404.909H240.073V418ZM242.444 411.237V406.891H244.617C246.388 406.891 247.181 407.702 247.181 409.096C247.181 410.489 246.388 411.237 244.63 411.237H242.444ZM255.883 418.192C258.172 418.192 259.744 417.073 260.153 415.367L257.993 415.124C257.679 415.955 256.912 416.389 255.915 416.389C254.42 416.389 253.429 415.405 253.41 413.724H260.249V413.014C260.249 409.569 258.178 408.054 255.762 408.054C252.949 408.054 251.115 410.119 251.115 413.148C251.115 416.229 252.924 418.192 255.883 418.192ZM253.416 412.164C253.486 410.911 254.413 409.857 255.794 409.857C257.123 409.857 258.018 410.828 258.031 412.164H253.416ZM262.207 421.682H264.521V416.453H264.616C264.981 417.169 265.741 418.173 267.429 418.173C269.743 418.173 271.475 416.338 271.475 413.104C271.475 409.831 269.692 408.054 267.423 408.054C265.69 408.054 264.968 409.096 264.616 409.805H264.482V408.182H262.207V421.682ZM264.476 413.091C264.476 411.186 265.294 409.952 266.783 409.952C268.324 409.952 269.116 411.263 269.116 413.091C269.116 414.932 268.311 416.274 266.783 416.274C265.307 416.274 264.476 414.996 264.476 413.091ZM277.739 418.192C280.616 418.192 282.444 416.166 282.444 413.129C282.444 410.087 280.616 408.054 277.739 408.054C274.863 408.054 273.035 410.087 273.035 413.129C273.035 416.166 274.863 418.192 277.739 418.192ZM277.752 416.338C276.16 416.338 275.381 414.919 275.381 413.123C275.381 411.327 276.16 409.889 277.752 409.889C279.318 409.889 280.098 411.327 280.098 413.123C280.098 414.919 279.318 416.338 277.752 416.338Z" fill="white"/>
<path d="M318.753 66H322.704V56.7955H328.073C334.145 56.7955 337.15 53.1264 337.15 48.294C337.15 43.4744 334.171 39.8182 328.086 39.8182H318.753V66ZM322.704 53.446V43.206H327.664C331.576 43.206 333.174 45.3281 333.174 48.294C333.174 51.2599 331.576 53.446 327.715 53.446H322.704ZM349.499 66.3963C355.035 66.3963 358.653 62.3438 358.653 56.2713C358.653 50.1605 355.035 46.108 349.499 46.108C343.964 46.108 340.346 50.1605 340.346 56.2713C340.346 62.3438 343.964 66.3963 349.499 66.3963ZM349.512 63.1875C345.894 63.1875 344.206 60.0298 344.206 56.2585C344.206 52.5 345.894 49.304 349.512 49.304C353.104 49.304 354.792 52.5 354.792 56.2585C354.792 60.0298 353.104 63.1875 349.512 63.1875ZM366.742 39.8182H362.919V66H366.742V39.8182ZM374.3 73.3636C377.458 73.3636 379.452 71.7145 380.59 68.6207L388.708 46.402L384.579 46.3636L379.606 61.6023H379.401L374.428 46.3636H370.337L377.522 66.2557L377.049 67.5597C376.077 70.1676 374.709 70.3849 372.613 69.8097L371.692 72.9418C372.153 73.1463 373.15 73.3636 374.3 73.3636ZM392.31 66H396.132V54.0085C396.132 51.4389 398.114 49.5852 400.824 49.5852C401.617 49.5852 402.512 49.7259 402.818 49.8153V46.1591C402.435 46.108 401.681 46.0696 401.195 46.0696C398.894 46.0696 396.925 47.3736 396.209 49.483H396.004V46.3636H392.31V66ZM413.886 66.3963C418.169 66.3963 421.199 64.2869 422.068 61.0909L418.45 60.4389C417.76 62.2926 416.098 63.2386 413.925 63.2386C410.652 63.2386 408.453 61.1165 408.351 57.3324H422.311V55.9773C422.311 48.8821 418.067 46.108 413.618 46.108C408.146 46.108 404.541 50.2756 404.541 56.3097C404.541 62.4077 408.095 66.3963 413.886 66.3963ZM408.363 54.4688C408.517 51.6818 410.537 49.2656 413.643 49.2656C416.609 49.2656 418.552 51.4645 418.565 54.4688H408.363ZM426.552 73.3636H430.374V62.9446H430.605C431.295 64.1974 432.701 66.3835 436.281 66.3835C441.036 66.3835 444.488 62.5739 444.488 56.2202C444.488 49.8537 440.985 46.108 436.242 46.108C432.599 46.108 431.282 48.3324 430.605 49.5469H430.285V46.3636H426.552V73.3636ZM430.298 56.1818C430.298 52.0781 432.088 49.3551 435.424 49.3551C438.889 49.3551 440.627 52.2827 440.627 56.1818C440.627 60.1193 438.838 63.1236 435.424 63.1236C432.139 63.1236 430.298 60.3111 430.298 56.1818ZM457.042 66.3963C462.578 66.3963 466.195 62.3438 466.195 56.2713C466.195 50.1605 462.578 46.108 457.042 46.108C451.507 46.108 447.889 50.1605 447.889 56.2713C447.889 62.3438 451.507 66.3963 457.042 66.3963ZM457.055 63.1875C453.437 63.1875 451.749 60.0298 451.749 56.2585C451.749 52.5 453.437 49.304 457.055 49.304C460.647 49.304 462.335 52.5 462.335 56.2585C462.335 60.0298 460.647 63.1875 457.055 63.1875ZM479.99 66H483.812V46.3636H479.99V66ZM481.92 43.3338C483.237 43.3338 484.336 42.3111 484.336 41.0582C484.336 39.8054 483.237 38.7699 481.92 38.7699C480.59 38.7699 479.504 39.8054 479.504 41.0582C479.504 42.3111 480.59 43.3338 481.92 43.3338ZM492.777 54.3409C492.777 51.2088 494.694 49.419 497.354 49.419C499.949 49.419 501.521 51.1193 501.521 53.9702V66H505.344V53.5099C505.344 48.652 502.672 46.108 498.657 46.108C495.704 46.108 493.774 47.4759 492.866 49.5597H492.623V46.3636H488.954V66H492.777V54.3409ZM519.997 73.3636H523.82V62.9446H524.05C524.74 64.1974 526.146 66.3835 529.726 66.3835C534.482 66.3835 537.933 62.5739 537.933 56.2202C537.933 49.8537 534.431 46.108 529.688 46.108C526.044 46.108 524.727 48.3324 524.05 49.5469H523.73V46.3636H519.997V73.3636ZM523.743 56.1818C523.743 52.0781 525.533 49.3551 528.869 49.3551C532.334 49.3551 534.073 52.2827 534.073 56.1818C534.073 60.1193 532.283 63.1236 528.869 63.1236C525.584 63.1236 523.743 60.3111 523.743 56.1818ZM542.216 66H546.039V54.0085C546.039 51.4389 548.02 49.5852 550.73 49.5852C551.523 49.5852 552.418 49.7259 552.725 49.8153V46.1591C552.341 46.108 551.587 46.0696 551.101 46.0696C548.8 46.0696 546.831 47.3736 546.115 49.483H545.911V46.3636H542.216V66ZM561.571 66.4347C564.818 66.4347 566.646 64.7855 567.375 63.3153H567.529V66H571.262V52.9602C571.262 47.2457 566.762 46.108 563.642 46.108C560.088 46.108 556.816 47.5398 555.537 51.1193L559.129 51.9375C559.692 50.544 561.124 49.2017 563.693 49.2017C566.161 49.2017 567.426 50.4929 567.426 52.7173V52.8068C567.426 54.2003 565.994 54.1747 562.466 54.5838C558.746 55.0185 554.936 55.9901 554.936 60.4517C554.936 64.3125 557.838 66.4347 561.571 66.4347ZM562.402 63.3665C560.242 63.3665 558.682 62.3949 558.682 60.5028C558.682 58.4574 560.497 57.7287 562.709 57.4347C563.949 57.2685 566.889 56.9361 567.439 56.3864V58.9176C567.439 61.2443 565.585 63.3665 562.402 63.3665ZM584.624 66.3963C589.265 66.3963 592.269 63.6094 592.691 59.7869H588.971C588.485 61.9091 586.836 63.1619 584.65 63.1619C581.415 63.1619 579.331 60.4645 579.331 56.1818C579.331 51.9759 581.454 49.3295 584.65 49.3295C587.079 49.3295 588.562 50.8636 588.971 52.7045H592.691C592.282 48.7415 589.047 46.108 584.586 46.108C579.05 46.108 575.471 50.2756 575.471 56.2713C575.471 62.1903 578.922 66.3963 584.624 66.3963ZM605.945 46.3636H601.918V41.6591H598.095V46.3636H595.219V49.4318H598.095V61.027C598.083 64.5938 600.806 66.3196 603.823 66.2557C605.037 66.2429 605.855 66.0128 606.303 65.8466L605.612 62.6889C605.357 62.7401 604.884 62.8551 604.27 62.8551C603.03 62.8551 601.918 62.446 601.918 60.2344V49.4318H605.945V46.3636ZM610.173 66H613.996V46.3636H610.173V66ZM612.104 43.3338C613.42 43.3338 614.52 42.3111 614.52 41.0582C614.52 39.8054 613.42 38.7699 612.104 38.7699C610.774 38.7699 609.687 39.8054 609.687 41.0582C609.687 42.3111 610.774 43.3338 612.104 43.3338ZM627.409 66.3963C632.05 66.3963 635.054 63.6094 635.476 59.7869H631.756C631.27 61.9091 629.621 63.1619 627.435 63.1619C624.2 63.1619 622.117 60.4645 622.117 56.1818C622.117 51.9759 624.239 49.3295 627.435 49.3295C629.864 49.3295 631.347 50.8636 631.756 52.7045H635.476C635.067 48.7415 631.833 46.108 627.371 46.108C621.835 46.108 618.256 50.2756 618.256 56.2713C618.256 62.1903 621.708 66.3963 627.409 66.3963ZM648.027 66.3963C652.309 66.3963 655.339 64.2869 656.209 61.0909L652.591 60.4389C651.9 62.2926 650.238 63.2386 648.065 63.2386C644.792 63.2386 642.594 61.1165 642.491 57.3324H656.452V55.9773C656.452 48.8821 652.207 46.108 647.758 46.108C642.287 46.108 638.682 50.2756 638.682 56.3097C638.682 62.4077 642.236 66.3963 648.027 66.3963ZM642.504 54.4688C642.657 51.6818 644.677 49.2656 647.784 49.2656C650.75 49.2656 652.693 51.4645 652.706 54.4688H642.504ZM229.752 110C237.729 110 242.562 105.065 242.562 96.8835C242.562 88.7273 237.729 83.8182 229.829 83.8182H220.471V110H229.752ZM226.006 105.257V88.5611H229.535C234.444 88.5611 237.039 91.0668 237.039 96.8835C237.039 102.726 234.444 105.257 229.522 105.257H226.006ZM255.509 110.384C260.367 110.384 263.64 108.018 264.407 104.375L259.37 104.043C258.82 105.538 257.414 106.318 255.598 106.318C252.875 106.318 251.15 104.516 251.15 101.588V101.575H264.522V100.08C264.522 93.4062 260.482 90.108 255.292 90.108C249.513 90.108 245.767 94.2116 245.767 100.271C245.767 106.497 249.462 110.384 255.509 110.384ZM251.15 98.2003C251.265 95.9631 252.965 94.1733 255.381 94.1733C257.746 94.1733 259.382 95.8608 259.395 98.2003H251.15ZM268.076 117.364H273.522V106.855H273.688C274.442 108.491 276.091 110.32 279.262 110.32C283.736 110.32 287.226 106.778 287.226 100.207C287.226 93.4574 283.583 90.108 279.275 90.108C275.989 90.108 274.417 92.0639 273.688 93.6619H273.445V90.3636H268.076V117.364ZM273.407 100.182C273.407 96.679 274.89 94.4418 277.536 94.4418C280.233 94.4418 281.665 96.7812 281.665 100.182C281.665 103.608 280.208 105.986 277.536 105.986C274.915 105.986 273.407 103.685 273.407 100.182ZM299.806 110.384C304.664 110.384 307.936 108.018 308.703 104.375L303.667 104.043C303.117 105.538 301.711 106.318 299.895 106.318C297.172 106.318 295.446 104.516 295.446 101.588V101.575H308.819V100.08C308.819 93.4062 304.779 90.108 299.588 90.108C293.81 90.108 290.064 94.2116 290.064 100.271C290.064 106.497 293.759 110.384 299.806 110.384ZM295.446 98.2003C295.561 95.9631 297.262 94.1733 299.678 94.1733C302.043 94.1733 303.679 95.8608 303.692 98.2003H295.446ZM317.819 98.6477C317.831 96.1165 319.34 94.6335 321.539 94.6335C323.725 94.6335 325.042 96.0653 325.029 98.4688V110H330.475V97.4972C330.475 92.9205 327.79 90.108 323.699 90.108C320.784 90.108 318.675 91.5398 317.793 93.8281H317.563V90.3636H312.373V110H317.819V98.6477ZM342.003 110.32C345.173 110.32 346.822 108.491 347.577 106.855H347.807V110H353.176V83.8182H347.743V93.6619H347.577C346.848 92.0639 345.276 90.108 341.99 90.108C337.682 90.108 334.038 93.4574 334.038 100.207C334.038 106.778 337.528 110.32 342.003 110.32ZM343.729 105.986C341.057 105.986 339.599 103.608 339.599 100.182C339.599 96.7812 341.031 94.4418 343.729 94.4418C346.375 94.4418 347.858 96.679 347.858 100.182C347.858 103.685 346.349 105.986 343.729 105.986ZM374.858 110.384C380.815 110.384 384.523 106.305 384.523 100.259C384.523 94.1733 380.815 90.108 374.858 90.108C368.901 90.108 365.193 94.1733 365.193 100.259C365.193 106.305 368.901 110.384 374.858 110.384ZM374.884 106.165C372.135 106.165 370.729 103.646 370.729 100.22C370.729 96.794 372.135 94.2628 374.884 94.2628C377.581 94.2628 378.987 96.794 378.987 100.22C378.987 103.646 377.581 106.165 374.884 106.165ZM393.51 98.6477C393.523 96.1165 395.031 94.6335 397.23 94.6335C399.416 94.6335 400.733 96.0653 400.72 98.4688V110H406.166V97.4972C406.166 92.9205 403.482 90.108 399.391 90.108C396.476 90.108 394.366 91.5398 393.484 93.8281H393.254V90.3636H388.064V110H393.51V98.6477ZM418.893 110H424.428V101.511H429.082C435.103 101.511 438.606 97.919 438.606 92.6903C438.606 87.4872 435.167 83.8182 429.222 83.8182H418.893V110ZM424.428 97.0753V88.3438H428.161C431.357 88.3438 432.904 90.0824 432.904 92.6903C432.904 95.2855 431.357 97.0753 428.187 97.0753H424.428ZM454.691 101.639C454.704 104.273 452.902 105.653 450.946 105.653C448.887 105.653 447.558 104.209 447.545 101.895V90.3636H442.099V102.866C442.112 107.456 444.797 110.256 448.747 110.256C451.7 110.256 453.822 108.734 454.704 106.433H454.909V110H460.137V90.3636H454.691V101.639ZM464.596 110H469.965V106.855H470.208C470.962 108.491 472.612 110.32 475.782 110.32C480.256 110.32 483.746 106.778 483.746 100.207C483.746 93.4574 480.103 90.108 475.795 90.108C472.509 90.108 470.937 92.0639 470.208 93.6619H470.042V83.8182H464.596V110ZM469.927 100.182C469.927 96.679 471.41 94.4418 474.056 94.4418C476.754 94.4418 478.185 96.7812 478.185 100.182C478.185 103.608 476.728 105.986 474.056 105.986C471.435 105.986 469.927 103.685 469.927 100.182ZM492.826 83.8182H487.38V110H492.826V83.8182ZM497.189 110H502.635V90.3636H497.189V110ZM499.925 87.8324C501.548 87.8324 502.878 86.5923 502.878 85.071C502.878 83.5625 501.548 82.3224 499.925 82.3224C498.314 82.3224 496.984 83.5625 496.984 85.071C496.984 86.5923 498.314 87.8324 499.925 87.8324ZM523.336 95.9631C522.85 92.3452 519.935 90.108 514.975 90.108C509.951 90.108 506.64 92.4347 506.652 96.2188C506.64 99.1591 508.493 101.064 512.328 101.831L515.729 102.509C517.442 102.854 518.222 103.48 518.248 104.464C518.222 105.628 516.956 106.459 515.051 106.459C513.108 106.459 511.817 105.628 511.485 104.03L506.128 104.311C506.64 108.07 509.836 110.384 515.039 110.384C520.127 110.384 523.77 107.788 523.783 103.915C523.77 101.077 521.917 99.3764 518.107 98.5966L514.553 97.8807C512.725 97.4844 512.047 96.858 512.06 95.9119C512.047 94.7358 513.377 93.9688 515.064 93.9688C516.956 93.9688 518.081 95.0043 518.35 96.2699L523.336 95.9631ZM532.658 98.6477C532.671 96.1165 534.218 94.6335 536.442 94.6335C538.654 94.6335 539.958 96.0526 539.945 98.4688V110H545.391V97.4972C545.404 92.8949 542.694 90.108 538.603 90.108C535.624 90.108 533.63 91.5142 532.735 93.8281H532.505V83.8182H527.212V110H532.658V98.6477ZM558.626 110.384C563.484 110.384 566.757 108.018 567.524 104.375L562.487 104.043C561.937 105.538 560.531 106.318 558.716 106.318C555.993 106.318 554.267 104.516 554.267 101.588V101.575H567.639V100.08C567.639 93.4062 563.599 90.108 558.409 90.108C552.63 90.108 548.885 94.2116 548.885 100.271C548.885 106.497 552.579 110.384 558.626 110.384ZM554.267 98.2003C554.382 95.9631 556.082 94.1733 558.498 94.1733C560.863 94.1733 562.5 95.8608 562.512 98.2003H554.267ZM578.429 110.32C581.599 110.32 583.248 108.491 584.002 106.855H584.233V110H589.602V83.8182H584.169V93.6619H584.002C583.274 92.0639 581.701 90.108 578.416 90.108C574.108 90.108 570.464 93.4574 570.464 100.207C570.464 106.778 573.954 110.32 578.429 110.32ZM580.154 105.986C577.483 105.986 576.025 103.608 576.025 100.182C576.025 96.7812 577.457 94.4418 580.154 94.4418C582.801 94.4418 584.284 96.679 584.284 100.182C584.284 103.685 582.775 105.986 580.154 105.986ZM607.027 110L608.97 104.03H618.417L620.36 110H626.292L617.267 83.8182H610.133L601.095 110H607.027ZM610.376 99.7088L613.598 89.8011H613.802L617.024 99.7088H610.376ZM629.341 110H634.787V98.8906C634.787 96.4744 636.551 94.8125 638.955 94.8125C639.709 94.8125 640.745 94.9403 641.256 95.1065V90.2741C640.77 90.1591 640.093 90.0824 639.543 90.0824C637.344 90.0824 635.542 91.3608 634.826 93.7898H634.621V90.3636H629.341V110ZM655.501 90.3636H651.806V85.6591H646.36V90.3636H643.675V94.4545H646.36V104.682C646.335 108.53 648.955 110.435 652.906 110.268C654.312 110.217 655.309 109.936 655.859 109.757L655.002 105.705C654.734 105.756 654.158 105.884 653.647 105.884C652.56 105.884 651.806 105.474 651.806 103.966V94.4545H655.501V90.3636ZM659.048 110H664.494V90.3636H659.048V110ZM661.784 87.8324C663.408 87.8324 664.737 86.5923 664.737 85.071C664.737 83.5625 663.408 82.3224 661.784 82.3224C660.173 82.3224 658.844 83.5625 658.844 85.071C658.844 86.5923 660.173 87.8324 661.784 87.8324ZM679.417 90.3636H675.517V89.0469C675.517 87.7173 676.054 86.9375 677.652 86.9375C678.304 86.9375 678.969 87.0781 679.404 87.2188L680.363 83.1278C679.685 82.9233 678.189 82.5909 676.515 82.5909C672.82 82.5909 670.071 84.6747 670.071 88.9446V90.3636H667.297V94.4545H670.071V110H675.517V94.4545H679.417V90.3636ZM687.64 110.371C690.542 110.371 692.421 109.105 693.38 107.277H693.533V110H698.698V96.7557C698.698 92.0767 694.735 90.108 690.363 90.108C685.658 90.108 682.565 92.358 681.81 95.9375L686.847 96.3466C687.218 95.0426 688.381 94.0838 690.337 94.0838C692.191 94.0838 693.252 95.017 693.252 96.6278V96.7045C693.252 97.9702 691.91 98.1364 688.496 98.4688C684.61 98.8267 681.12 100.131 681.12 104.516C681.12 108.402 683.894 110.371 687.64 110.371ZM689.2 106.612C687.525 106.612 686.323 105.832 686.323 104.337C686.323 102.803 687.589 102.048 689.506 101.78C690.695 101.614 692.638 101.332 693.29 100.898V102.982C693.29 105.04 691.59 106.612 689.2 106.612ZM711.795 110.384C717.024 110.384 720.31 107.315 720.565 102.803H715.426C715.107 104.899 713.726 106.075 711.859 106.075C709.315 106.075 707.666 103.94 707.666 100.182C707.666 96.4744 709.328 94.3523 711.859 94.3523C713.854 94.3523 715.132 95.669 715.426 97.625H720.565C720.335 93.0866 716.896 90.108 711.77 90.108C705.812 90.108 702.131 94.2372 702.131 100.259C702.131 106.229 705.749 110.384 711.795 110.384ZM734.497 90.3636H730.802V85.6591H725.356V90.3636H722.672V94.4545H725.356V104.682C725.331 108.53 727.951 110.435 731.902 110.268C733.308 110.217 734.305 109.936 734.855 109.757L733.998 105.705C733.73 105.756 733.154 105.884 732.643 105.884C731.556 105.884 730.802 105.474 730.802 103.966V94.4545H734.497V90.3636ZM754.101 95.9631C753.615 92.3452 750.701 90.108 745.74 90.108C740.716 90.108 737.405 92.4347 737.418 96.2188C737.405 99.1591 739.259 101.064 743.094 101.831L746.495 102.509C748.208 102.854 748.988 103.48 749.013 104.464C748.988 105.628 747.722 106.459 745.817 106.459C743.874 106.459 742.583 105.628 742.25 104.03L736.894 104.311C737.405 108.07 740.601 110.384 745.804 110.384C750.892 110.384 754.536 107.788 754.549 103.915C754.536 101.077 752.682 99.3764 748.873 98.5966L745.319 97.8807C743.49 97.4844 742.813 96.858 742.826 95.9119C742.813 94.7358 744.142 93.9688 745.83 93.9688C747.722 93.9688 748.847 95.0043 749.115 96.2699L754.101 95.9631Z" fill="#A8A8A8"/>
</svg>
