<svg width="330" height="293" viewBox="0 0 330 293" fill="none" xmlns="http://www.w3.org/2000/svg">
<path d="M207.964 115.596C210.384 119.788 216.434 119.788 218.854 115.596L283.777 3.14459C285.513 0.13754 289.358 -0.892768 292.365 0.843345L312.934 12.7188C315.941 14.4548 316.971 18.2999 315.235 21.3069L250.312 133.759C247.893 137.951 250.917 143.19 255.757 143.19L322.907 143.19C326.38 143.19 329.194 146.004 329.194 149.477L329.194 173.227C329.194 176.7 326.38 179.514 322.907 179.514L255.757 179.515C250.917 179.515 247.893 184.754 250.312 188.945L297.771 271.147C299.508 274.154 298.477 277.999 295.47 279.735L274.901 291.61C271.894 293.346 268.049 292.316 266.313 289.309L218.854 207.108C216.434 202.916 210.385 202.916 207.965 207.108L174.389 265.262C172.653 268.269 168.808 269.299 165.801 267.563L145.232 255.687C142.225 253.951 141.195 250.106 142.931 247.099L176.507 188.944C178.927 184.753 175.902 179.514 171.062 179.514L6.28703 179.514C2.8148 179.514 -3.60096e-06 176.7 0 173.227L2.46314e-05 149.476C2.82324e-05 146.004 2.81481 143.189 6.28702 143.189L171.062 143.189C175.901 143.189 178.926 137.95 176.506 133.759L142.931 75.6043C141.195 72.5973 142.225 68.7522 145.232 67.0161L165.801 55.1407C168.808 53.4046 172.653 54.4348 174.389 57.4419L207.964 115.596Z" fill="#F59E0B" style="fill:#F59E0B;fill:color(display-p3 0.9608 0.6196 0.0431);fill-opacity:1;"/>
</svg>
