<svg width="980" height="748" viewBox="0 0 980 748" fill="none" xmlns="http://www.w3.org/2000/svg">
<line x1="525.746" y1="248.776" x2="423.876" y2="322.122" stroke="#9CA3AF" stroke-width="3"/>
<line x1="424.611" y1="321.71" x2="340.059" y2="383.85" stroke="#9CA3AF" stroke-width="2"/>
<line x1="424.969" y1="321.216" x2="404.595" y2="383.356" stroke="#9CA3AF" stroke-width="2"/>
<line x1="424.836" y1="320.328" x2="468.64" y2="382.468" stroke="#9CA3AF" stroke-width="2"/>
<line x1="467.841" y1="422.774" x2="467.841" y2="383.045" stroke="#9CA3AF" stroke-width="2"/>
<line x1="467.804" y1="422.774" x2="467.804" y2="462.503" stroke="#9CA3AF" stroke-width="2"/>
<line x1="466.822" y1="503.25" x2="466.822" y2="461.484" stroke="#9CA3AF" stroke-width="2"/>
<line x1="466.822" y1="545.016" x2="466.822" y2="503.25" stroke="#9CA3AF" stroke-width="2"/>
<line x1="468.337" y1="423.631" x2="402.122" y2="463.36" stroke="#9CA3AF" stroke-width="2"/>
<line x1="402.645" y1="503.25" x2="402.645" y2="462.503" stroke="#9CA3AF" stroke-width="2"/>
<line x1="424.517" y1="320.038" x2="532.499" y2="382.178" stroke="#9CA3AF" stroke-width="2"/>
<line x1="525.746" y1="246.341" x2="627.615" y2="319.687" stroke="#9CA3AF" stroke-width="3"/>
<line x1="594.831" y1="382.382" x2="625.392" y2="320.242" stroke="#9CA3AF" stroke-width="3"/>
<line x1="659.036" y1="383.758" x2="625.419" y2="321.618" stroke="#9CA3AF" stroke-width="3"/>
<line x1="660.836" y1="383.044" x2="660.836" y2="422.773" stroke="#9CA3AF" stroke-width="3"/>
<rect x="473.69" y="222" width="101.869" height="50.9346" rx="5" fill="#9CA3AF"/>
<rect x="575.732" y="295.55" width="101.869" height="50.9346" rx="5" fill="#9CA3AF"/>
<rect x="372.31" y="295.55" width="101.869" height="50.9346" rx="5" fill="#9CA3AF"/>
<rect x="314" y="370.82" width="50.9346" height="25.4673" rx="5" fill="#9CA3AF"/>
<rect x="378.178" y="370.82" width="50.9346" height="25.4673" rx="5" fill="#9CA3AF"/>
<rect x="506.533" y="370.82" width="50.9346" height="25.4673" rx="5" fill="#9CA3AF"/>
<rect x="570.71" y="370.82" width="50.9346" height="25.4673" rx="5" fill="#9CA3AF"/>
<rect x="634.888" y="370.82" width="50.9346" height="25.4673" rx="5" fill="#9CA3AF"/>
<rect x="634.888" y="410.549" width="50.9346" height="25.4673" rx="5" fill="#9CA3AF"/>
<rect x="442.355" y="370.82" width="50.9346" height="25.4673" rx="5" fill="#9CA3AF"/>
<rect x="442.355" y="410.549" width="50.9346" height="25.4673" rx="5" fill="#9CA3AF"/>
<rect x="378.178" y="450.278" width="50.9346" height="25.4673" rx="5" fill="#9CA3AF"/>
<rect x="378.178" y="490.007" width="50.9346" height="25.4673" rx="5" fill="#9CA3AF"/>
<rect x="442.355" y="490.007" width="50.9346" height="25.4673" rx="5" fill="#9CA3AF"/>
<rect x="442.355" y="529.736" width="50.9346" height="25.4673" rx="5" fill="#9CA3AF"/>
<rect x="442.355" y="450.278" width="50.9346" height="25.4673" rx="5" fill="#9CA3AF"/>
<path d="M517.631 247.475C517.631 248.572 517.426 249.511 517.015 250.293C516.607 251.072 516.05 251.669 515.344 252.083C514.642 252.497 513.844 252.705 512.953 252.705C512.061 252.705 511.263 252.497 510.557 252.083C509.854 251.666 509.297 251.067 508.886 250.288C508.478 249.506 508.275 248.568 508.275 247.475C508.275 246.377 508.478 245.439 508.886 244.661C509.297 243.878 509.854 243.28 510.557 242.866C511.263 242.452 512.061 242.244 512.953 242.244C513.844 242.244 514.642 242.452 515.344 242.866C516.05 243.28 516.607 243.878 517.015 244.661C517.426 245.439 517.631 246.377 517.631 247.475ZM515.777 247.475C515.777 246.702 515.656 246.051 515.414 245.521C515.175 244.987 514.844 244.584 514.419 244.313C513.995 244.037 513.506 243.9 512.953 243.9C512.399 243.9 511.91 244.037 511.486 244.313C511.062 244.584 510.729 244.987 510.487 245.521C510.248 246.051 510.129 246.702 510.129 247.475C510.129 248.247 510.248 248.9 510.487 249.433C510.729 249.964 511.062 250.366 511.486 250.641C511.91 250.913 512.399 251.049 512.953 251.049C513.506 251.049 513.995 250.913 514.419 250.641C514.844 250.366 515.175 249.964 515.414 249.433C515.656 248.9 515.777 248.247 515.777 247.475ZM519.295 252.565V244.929H521.04V246.202H521.12C521.259 245.761 521.498 245.421 521.836 245.183C522.177 244.941 522.567 244.82 523.004 244.82C523.104 244.82 523.215 244.825 523.337 244.835C523.463 244.841 523.568 244.853 523.65 244.869V246.525C523.574 246.498 523.453 246.475 523.288 246.455C523.125 246.432 522.968 246.421 522.815 246.421C522.487 246.421 522.192 246.492 521.93 246.634C521.672 246.774 521.468 246.967 521.319 247.216C521.17 247.465 521.095 247.751 521.095 248.076V252.565H519.295ZM527.853 255.588C527.206 255.588 526.651 255.5 526.187 255.325C525.723 255.152 525.35 254.92 525.069 254.629C524.787 254.337 524.591 254.014 524.482 253.659L526.103 253.266C526.176 253.416 526.282 253.563 526.421 253.709C526.56 253.858 526.747 253.981 526.983 254.077C527.221 254.176 527.521 254.226 527.883 254.226C528.393 254.226 528.816 254.102 529.15 253.853C529.485 253.608 529.652 253.203 529.652 252.64V251.193H529.563C529.47 251.379 529.334 251.569 529.155 251.765C528.98 251.961 528.746 252.125 528.454 252.257C528.166 252.39 527.803 252.456 527.365 252.456C526.779 252.456 526.247 252.319 525.77 252.043C525.296 251.765 524.918 251.351 524.636 250.801C524.358 250.247 524.218 249.554 524.218 248.722C524.218 247.884 524.358 247.176 524.636 246.6C524.918 246.02 525.297 245.58 525.775 245.282C526.252 244.98 526.784 244.83 527.37 244.83C527.818 244.83 528.186 244.906 528.474 245.058C528.766 245.207 528.998 245.388 529.17 245.6C529.343 245.809 529.473 246.006 529.563 246.192H529.662V244.929H531.437V252.69C531.437 253.343 531.281 253.883 530.97 254.31C530.658 254.738 530.232 255.058 529.692 255.27C529.152 255.482 528.539 255.588 527.853 255.588ZM527.868 251.044C528.249 251.044 528.574 250.951 528.842 250.766C529.111 250.58 529.314 250.313 529.454 249.965C529.593 249.617 529.662 249.2 529.662 248.712C529.662 248.232 529.593 247.811 529.454 247.45C529.318 247.088 529.115 246.808 528.847 246.609C528.582 246.407 528.255 246.306 527.868 246.306C527.467 246.306 527.132 246.411 526.863 246.619C526.595 246.828 526.393 247.115 526.257 247.479C526.121 247.841 526.053 248.252 526.053 248.712C526.053 249.18 526.121 249.589 526.257 249.94C526.396 250.288 526.6 250.56 526.868 250.756C527.14 250.948 527.473 251.044 527.868 251.044ZM540.876 242.384V252.565H539.031V244.178H538.972L536.59 245.7V244.009L539.121 242.384H540.876Z" fill="white"/>
<path d="M405.937 324.02H403.968L407.553 313.838H409.83L413.419 324.02H411.45L408.731 315.926H408.651L405.937 324.02ZM406.001 320.027H411.371V321.509H406.001V320.027ZM414.681 326.883V316.383H416.45V317.646H416.555C416.648 317.46 416.779 317.263 416.948 317.054C417.117 316.842 417.345 316.662 417.634 316.512C417.922 316.36 418.29 316.284 418.737 316.284C419.327 316.284 419.859 316.435 420.333 316.736C420.811 317.034 421.188 317.477 421.467 318.064C421.749 318.647 421.889 319.363 421.889 320.211C421.889 321.05 421.752 321.762 421.477 322.349C421.202 322.936 420.827 323.383 420.353 323.691C419.879 324 419.342 324.154 418.742 324.154C418.305 324.154 417.942 324.081 417.654 323.935C417.365 323.789 417.133 323.614 416.958 323.408C416.785 323.199 416.651 323.002 416.555 322.816H416.48V326.883H414.681ZM416.445 320.201C416.445 320.695 416.515 321.128 416.654 321.499C416.797 321.87 417.001 322.16 417.266 322.369C417.534 322.574 417.859 322.677 418.24 322.677C418.638 322.677 418.971 322.571 419.24 322.359C419.508 322.144 419.71 321.85 419.846 321.479C419.985 321.105 420.055 320.679 420.055 320.201C420.055 319.727 419.987 319.306 419.851 318.939C419.715 318.571 419.513 318.282 419.244 318.074C418.976 317.865 418.641 317.76 418.24 317.76C417.856 317.76 417.529 317.861 417.261 318.064C416.992 318.266 416.789 318.549 416.649 318.914C416.513 319.278 416.445 319.708 416.445 320.201ZM423.431 326.883V316.383H425.2V317.646H425.305C425.398 317.46 425.529 317.263 425.698 317.054C425.867 316.842 426.095 316.662 426.384 316.512C426.672 316.36 427.04 316.284 427.487 316.284C428.077 316.284 428.609 316.435 429.083 316.736C429.561 317.034 429.938 317.477 430.217 318.064C430.499 318.647 430.639 319.363 430.639 320.211C430.639 321.05 430.502 321.762 430.227 322.349C429.952 322.936 429.577 323.383 429.103 323.691C428.629 324 428.092 324.154 427.492 324.154C427.055 324.154 426.692 324.081 426.404 323.935C426.115 323.789 425.883 323.614 425.708 323.408C425.535 323.199 425.401 323.002 425.305 322.816H425.23V326.883H423.431ZM425.195 320.201C425.195 320.695 425.265 321.128 425.404 321.499C425.547 321.87 425.751 322.16 426.016 322.369C426.284 322.574 426.609 322.677 426.99 322.677C427.388 322.677 427.721 322.571 427.99 322.359C428.258 322.144 428.46 321.85 428.596 321.479C428.735 321.105 428.805 320.679 428.805 320.201C428.805 319.727 428.737 319.306 428.601 318.939C428.465 318.571 428.263 318.282 427.994 318.074C427.726 317.865 427.391 317.76 426.99 317.76C426.606 317.76 426.279 317.861 426.011 318.064C425.742 318.266 425.539 318.549 425.399 318.914C425.263 319.278 425.195 319.708 425.195 320.201ZM439.775 313.838V324.02H437.93V315.632H437.871L435.489 317.154V315.463L438.02 313.838H439.775Z" fill="white"/>
<path d="M612.459 326.115V315.934H614.304V324.569H618.788V326.115H612.459ZM620.309 326.115V318.479H622.109V326.115H620.309ZM621.214 317.395C620.929 317.395 620.684 317.301 620.478 317.112C620.273 316.92 620.17 316.689 620.17 316.421C620.17 316.149 620.273 315.919 620.478 315.73C620.684 315.538 620.929 315.441 621.214 315.441C621.503 315.441 621.748 315.538 621.95 315.73C622.155 315.919 622.258 316.149 622.258 316.421C622.258 316.689 622.155 316.92 621.95 317.112C621.748 317.301 621.503 317.395 621.214 317.395ZM624.039 326.115V315.934H625.839V319.742H625.914C626.006 319.556 626.137 319.359 626.306 319.15C626.475 318.938 626.704 318.758 626.992 318.608C627.281 318.456 627.649 318.38 628.096 318.38C628.686 318.38 629.218 318.53 629.692 318.832C630.169 319.13 630.547 319.573 630.826 320.16C631.107 320.743 631.248 321.459 631.248 322.307C631.248 323.146 631.111 323.858 630.835 324.445C630.56 325.032 630.186 325.479 629.712 325.787C629.238 326.096 628.701 326.25 628.101 326.25C627.664 326.25 627.301 326.177 627.012 326.031C626.724 325.885 626.492 325.709 626.316 325.504C626.144 325.295 626.01 325.098 625.914 324.912H625.809V326.115H624.039ZM625.804 322.297C625.804 322.791 625.874 323.224 626.013 323.595C626.156 323.966 626.359 324.256 626.625 324.465C626.893 324.67 627.218 324.773 627.599 324.773C627.997 324.773 628.33 324.667 628.598 324.455C628.867 324.24 629.069 323.946 629.205 323.575C629.344 323.2 629.414 322.775 629.414 322.297C629.414 321.823 629.346 321.402 629.21 321.035C629.074 320.667 628.872 320.378 628.603 320.169C628.335 319.961 628 319.856 627.599 319.856C627.215 319.856 626.888 319.957 626.62 320.16C626.351 320.362 626.147 320.645 626.008 321.01C625.872 321.374 625.804 321.803 625.804 322.297ZM640.372 315.934V326.115H638.528V317.728H638.468L636.087 319.25V317.559L638.617 315.934H640.372Z" fill="white"/>
<path d="M734 566.333C744.309 566.333 752.667 557.976 752.667 547.667C752.667 537.357 744.309 529 734 529C723.691 529 715.333 537.357 715.333 547.667C715.333 557.976 723.691 566.333 734 566.333Z" stroke="#FCCC6B" stroke-width="4" stroke-linecap="round" stroke-linejoin="round"/>
<path d="M706 613V603.667C706 598.716 707.967 593.968 711.467 590.467C714.968 586.967 719.716 585 724.667 585H743.333C748.284 585 753.032 586.967 756.533 590.467C760.033 593.968 762 598.716 762 603.667V613" stroke="#FCCC6B" stroke-width="4" stroke-linecap="round" stroke-linejoin="round"/>
<path d="M766.667 529.607C770.682 530.635 774.241 532.97 776.782 536.244C779.324 539.518 780.703 543.545 780.703 547.69C780.703 551.835 779.324 555.862 776.782 559.136C774.241 562.41 770.682 564.745 766.667 565.773" stroke="#FCCC6B" stroke-width="4" stroke-linecap="round" stroke-linejoin="round"/>
<path d="M790 613V603.667C789.976 599.547 788.59 595.55 786.058 592.3C783.526 589.051 779.989 586.73 776 585.7" stroke="#FCCC6B" stroke-width="4" stroke-linecap="round" stroke-linejoin="round"/>
<path d="M671.401 547.277L666.407 538.628C664.732 535.727 663.782 532.465 663.636 529.118C663.491 525.772 664.154 522.439 665.57 519.404L677.899 492.974C679.315 489.938 679.978 486.606 679.833 483.259C679.687 479.913 678.737 476.651 677.062 473.75L669.985 461.492" stroke="#FCCC6B" stroke-width="4" stroke-linecap="round" stroke-linejoin="round"/>
<path d="M687.06 466.067L669.985 461.492L665.41 478.567" stroke="#FCCC6B" stroke-width="4" stroke-linecap="round" stroke-linejoin="round"/>
<path d="M525.238 575.49L519.976 558.614L536.852 553.352" stroke="#FCCC6B" stroke-width="4" stroke-linecap="round" stroke-linejoin="round"/>
<path d="M605.748 556.561L596.904 551.921C593.938 550.365 590.64 549.547 587.29 549.537C583.941 549.527 580.638 550.324 577.662 551.862L551.752 565.249C548.776 566.786 545.473 567.584 542.124 567.574C538.774 567.564 535.476 566.746 532.51 565.19L519.976 558.614" stroke="#FCCC6B" stroke-width="4" stroke-linecap="round" stroke-linejoin="round"/>
<path d="M748 171.333C758.309 171.333 766.667 162.976 766.667 152.667C766.667 142.357 758.309 134 748 134C737.691 134 729.333 142.357 729.333 152.667C729.333 162.976 737.691 171.333 748 171.333Z" stroke="#61A8E8" stroke-width="4" stroke-linecap="round" stroke-linejoin="round"/>
<path d="M720 218V208.667C720 203.716 721.967 198.968 725.467 195.467C728.968 191.967 733.716 190 738.667 190H757.333C762.284 190 767.032 191.967 770.533 195.467C774.033 198.968 776 203.716 776 208.667V218" stroke="#61A8E8" stroke-width="4" stroke-linecap="round" stroke-linejoin="round"/>
<path d="M780.667 134.607C784.682 135.635 788.241 137.97 790.782 141.244C793.324 144.518 794.703 148.545 794.703 152.69C794.703 156.835 793.324 160.862 790.782 164.136C788.241 167.41 784.682 169.745 780.667 170.773" stroke="#61A8E8" stroke-width="4" stroke-linecap="round" stroke-linejoin="round"/>
<path d="M804 218V208.667C803.976 204.547 802.59 200.55 800.058 197.3C797.526 194.051 793.989 191.73 790 190.7" stroke="#61A8E8" stroke-width="4" stroke-linecap="round" stroke-linejoin="round"/>
<path d="M684.303 198.796L678.036 206.573C675.933 209.181 673.233 211.243 670.165 212.586C667.096 213.928 663.748 214.51 660.406 214.284L631.309 212.313C627.967 212.087 624.619 212.669 621.551 214.012C618.482 215.354 615.782 217.417 613.679 220.025L604.797 231.045" stroke="#61A8E8" stroke-width="4" stroke-linecap="round" stroke-linejoin="round"/>
<path d="M602.909 213.469L604.797 231.045L622.374 229.156" stroke="#61A8E8" stroke-width="4" stroke-linecap="round" stroke-linejoin="round"/>
<path d="M724.307 332.983L708.157 325.795L715.346 309.645" stroke="#61A8E8" stroke-width="4" stroke-linecap="round" stroke-linejoin="round"/>
<path d="M763.237 260.013L753.913 263.593C750.787 264.794 747.995 266.731 745.776 269.24C743.557 271.75 741.976 274.757 741.167 278.007L734.117 306.307C733.308 309.557 731.727 312.564 729.508 315.074C727.289 317.583 724.498 319.52 721.371 320.721L708.157 325.795" stroke="#61A8E8" stroke-width="4" stroke-linecap="round" stroke-linejoin="round"/>
<path d="M763 343.25C774.184 343.25 783.25 334.184 783.25 323C783.25 311.816 774.184 302.75 763 302.75C751.816 302.75 742.75 311.816 742.75 323C742.75 334.184 751.816 343.25 763 343.25Z" stroke="#FF6D74" stroke-width="4" stroke-linecap="round" stroke-linejoin="round"/>
<path d="M748.825 308.825L777.175 337.175" stroke="#FF6D74" stroke-width="4" stroke-linecap="round" stroke-linejoin="round"/>
<path d="M203 171.333C213.309 171.333 221.667 162.976 221.667 152.667C221.667 142.357 213.309 134 203 134C192.691 134 184.333 142.357 184.333 152.667C184.333 162.976 192.691 171.333 203 171.333Z" stroke="#70AF40" stroke-width="4" stroke-linecap="round" stroke-linejoin="round"/>
<path d="M175 218V208.667C175 203.716 176.967 198.968 180.467 195.467C183.968 191.967 188.716 190 193.667 190H212.333C217.284 190 222.032 191.967 225.533 195.467C229.033 198.968 231 203.716 231 208.667V218" stroke="#70AF40" stroke-width="4" stroke-linecap="round" stroke-linejoin="round"/>
<path d="M235.667 134.607C239.682 135.635 243.241 137.97 245.782 141.244C248.324 144.518 249.703 148.545 249.703 152.69C249.703 156.835 248.324 160.862 245.782 164.136C243.241 167.41 239.682 169.745 235.667 170.773" stroke="#70AF40" stroke-width="4" stroke-linecap="round" stroke-linejoin="round"/>
<path d="M259 218V208.667C258.976 204.547 257.59 200.55 255.058 197.3C252.526 194.051 248.989 191.73 245 190.7" stroke="#70AF40" stroke-width="4" stroke-linecap="round" stroke-linejoin="round"/>
<path d="M281.83 278.802L288.801 285.954C291.139 288.352 292.865 291.279 293.831 294.487C294.797 297.694 294.975 301.087 294.351 304.378L288.918 333.032C288.294 336.323 288.472 339.716 289.438 342.923C290.404 346.13 292.13 349.057 294.468 351.456L304.348 361.591" stroke="#70AF40" stroke-width="4" stroke-linecap="round" stroke-linejoin="round"/>
<path d="M286.672 361.366L304.348 361.591L304.573 343.915" stroke="#70AF40" stroke-width="4" stroke-linecap="round" stroke-linejoin="round"/>
<g clip-path="url(#clip0_617_128)">
<path d="M270.889 366.578C275.031 356.189 269.967 344.41 259.578 340.269C249.189 336.127 237.41 341.191 233.269 351.58C229.127 361.969 234.191 373.748 244.58 377.889C254.969 382.031 266.748 376.966 270.889 366.578Z" stroke="#FF6D74" stroke-width="4" stroke-linecap="round" stroke-linejoin="round"/>
<path d="M233.662 366.997L270.495 351.161" stroke="#FF6D74" stroke-width="4" stroke-linecap="round" stroke-linejoin="round"/>
</g>
<path d="M377.6 251.789L374.254 269.147L356.896 265.801" stroke="#70AF40" stroke-width="4" stroke-linecap="round" stroke-linejoin="round"/>
<path d="M297.71 230.389L303.308 238.66C305.186 241.434 307.705 243.714 310.651 245.308C313.598 246.901 316.885 247.76 320.234 247.813L349.394 248.273C352.744 248.325 356.031 249.184 358.977 250.778C361.924 252.371 364.443 254.651 366.32 257.425L374.254 269.147" stroke="#70AF40" stroke-width="4" stroke-linecap="round" stroke-linejoin="round"/>
<defs>
<clipPath id="clip0_617_128">
<rect width="54" height="54" fill="white" transform="translate(217 374.161) rotate(-68.2649)"/>
</clipPath>
</defs>
</svg>
