<svg width="980" height="748" viewBox="0 0 980 748" fill="none" xmlns="http://www.w3.org/2000/svg">
<path d="M469.167 357.333L452.5 374L469.167 390.667" stroke="#9CA3AF" stroke-width="4" stroke-linecap="round" stroke-linejoin="round"/>
<path d="M510.833 357.333L527.5 374L510.833 390.667" stroke="#9CA3AF" stroke-width="4" stroke-linecap="round" stroke-linejoin="round"/>
<path d="M498.333 340.667L481.667 407.333" stroke="#9CA3AF" stroke-width="4" stroke-linecap="round" stroke-linejoin="round"/>
<path d="M490 434.75C523.551 434.75 550.75 407.551 550.75 374C550.75 340.449 523.551 313.25 490 313.25C456.449 313.25 429.25 340.449 429.25 374C429.25 407.551 456.449 434.75 490 434.75Z" stroke="#9CA3AF" stroke-width="4" stroke-linecap="round" stroke-linejoin="round"/>
<path d="M593.5 287.333L639.333 241.5" stroke="#9CA3AF" stroke-width="4" stroke-linecap="round" stroke-linejoin="round"/>
<path d="M622.667 241.5H639.333V258.167" stroke="#9CA3AF" stroke-width="4" stroke-linecap="round" stroke-linejoin="round"/>
<path d="M622.667 299.833V316.5H639.333" stroke="#9CA3AF" stroke-width="4" stroke-linecap="round" stroke-linejoin="round"/>
<path d="M668.5 270.667L622.667 316.5" stroke="#9CA3AF" stroke-width="4" stroke-linecap="round" stroke-linejoin="round"/>
<path d="M356.333 316.5L310.5 270.667" stroke="#9CA3AF" stroke-width="4" stroke-linecap="round" stroke-linejoin="round"/>
<path d="M310.5 287.333V270.667H327.167" stroke="#9CA3AF" stroke-width="4" stroke-linecap="round" stroke-linejoin="round"/>
<path d="M368.833 287.333H385.5V270.667" stroke="#9CA3AF" stroke-width="4" stroke-linecap="round" stroke-linejoin="round"/>
<path d="M339.667 241.5L385.5 287.333" stroke="#9CA3AF" stroke-width="4" stroke-linecap="round" stroke-linejoin="round"/>
<path d="M593.5 481.667L639.333 527.5" stroke="#9CA3AF" stroke-width="4" stroke-linecap="round" stroke-linejoin="round"/>
<path d="M639.333 510.833V527.5H622.667" stroke="#9CA3AF" stroke-width="4" stroke-linecap="round" stroke-linejoin="round"/>
<path d="M639.333 452.5H622.667V469.167" stroke="#9CA3AF" stroke-width="4" stroke-linecap="round" stroke-linejoin="round"/>
<path d="M668.5 498.333L622.667 452.5" stroke="#9CA3AF" stroke-width="4" stroke-linecap="round" stroke-linejoin="round"/>
<path d="M356.333 452.5L310.5 498.333" stroke="#9CA3AF" stroke-width="4" stroke-linecap="round" stroke-linejoin="round"/>
<path d="M310.5 481.667V498.333H327.167" stroke="#9CA3AF" stroke-width="4" stroke-linecap="round" stroke-linejoin="round"/>
<path d="M368.833 481.667H385.5V498.333" stroke="#9CA3AF" stroke-width="4" stroke-linecap="round" stroke-linejoin="round"/>
<path d="M339.667 527.5L385.5 481.667" stroke="#9CA3AF" stroke-width="4" stroke-linecap="round" stroke-linejoin="round"/>
<path d="M228 176.333C238.309 176.333 246.667 167.976 246.667 157.667C246.667 147.357 238.309 139 228 139C217.691 139 209.333 147.357 209.333 157.667C209.333 167.976 217.691 176.333 228 176.333Z" stroke="#9CA3AF" stroke-width="4" stroke-linecap="round" stroke-linejoin="round"/>
<path d="M200 223V213.667C200 208.716 201.967 203.968 205.467 200.467C208.968 196.967 213.716 195 218.667 195H237.333C242.284 195 247.032 196.967 250.533 200.467C254.033 203.968 256 208.716 256 213.667V223" stroke="#9CA3AF" stroke-width="4" stroke-linecap="round" stroke-linejoin="round"/>
<path d="M260.667 139.607C264.682 140.635 268.241 142.97 270.782 146.244C273.324 149.518 274.703 153.545 274.703 157.69C274.703 161.835 273.324 165.862 270.782 169.136C268.241 172.41 264.682 174.745 260.667 175.773" stroke="#9CA3AF" stroke-width="4" stroke-linecap="round" stroke-linejoin="round"/>
<path d="M284 223V213.667C283.976 209.547 282.59 205.55 280.058 202.3C277.526 199.051 273.989 196.73 270 195.7" stroke="#9CA3AF" stroke-width="4" stroke-linecap="round" stroke-linejoin="round"/>
<path d="M723 176.333C733.309 176.333 741.667 167.976 741.667 157.667C741.667 147.357 733.309 139 723 139C712.691 139 704.333 147.357 704.333 157.667C704.333 167.976 712.691 176.333 723 176.333Z" stroke="#9CA3AF" stroke-width="4" stroke-linecap="round" stroke-linejoin="round"/>
<path d="M695 223V213.667C695 208.716 696.967 203.968 700.467 200.467C703.968 196.967 708.716 195 713.667 195H732.333C737.284 195 742.032 196.967 745.533 200.467C749.033 203.968 751 208.716 751 213.667V223" stroke="#9CA3AF" stroke-width="4" stroke-linecap="round" stroke-linejoin="round"/>
<path d="M755.667 139.607C759.682 140.635 763.241 142.97 765.782 146.244C768.324 149.518 769.703 153.545 769.703 157.69C769.703 161.835 768.324 165.862 765.782 169.136C763.241 172.41 759.682 174.745 755.667 175.773" stroke="#9CA3AF" stroke-width="4" stroke-linecap="round" stroke-linejoin="round"/>
<path d="M779 223V213.667C778.976 209.547 777.59 205.55 775.058 202.3C772.526 199.051 768.989 196.73 765 195.7" stroke="#9CA3AF" stroke-width="4" stroke-linecap="round" stroke-linejoin="round"/>
<path d="M723 562.333C733.309 562.333 741.667 553.976 741.667 543.667C741.667 533.357 733.309 525 723 525C712.691 525 704.333 533.357 704.333 543.667C704.333 553.976 712.691 562.333 723 562.333Z" stroke="#9CA3AF" stroke-width="4" stroke-linecap="round" stroke-linejoin="round"/>
<path d="M695 609V599.667C695 594.716 696.967 589.968 700.467 586.467C703.968 582.967 708.716 581 713.667 581H732.333C737.284 581 742.032 582.967 745.533 586.467C749.033 589.968 751 594.716 751 599.667V609" stroke="#9CA3AF" stroke-width="4" stroke-linecap="round" stroke-linejoin="round"/>
<path d="M755.667 525.607C759.682 526.635 763.241 528.97 765.782 532.244C768.324 535.518 769.703 539.545 769.703 543.69C769.703 547.835 768.324 551.862 765.782 555.136C763.241 558.41 759.682 560.745 755.667 561.773" stroke="#9CA3AF" stroke-width="4" stroke-linecap="round" stroke-linejoin="round"/>
<path d="M779 609V599.667C778.976 595.547 777.59 591.55 775.058 588.3C772.526 585.051 768.989 582.73 765 581.7" stroke="#9CA3AF" stroke-width="4" stroke-linecap="round" stroke-linejoin="round"/>
<path d="M242 562.333C252.309 562.333 260.667 553.976 260.667 543.667C260.667 533.357 252.309 525 242 525C231.691 525 223.333 533.357 223.333 543.667C223.333 553.976 231.691 562.333 242 562.333Z" stroke="#9CA3AF" stroke-width="4" stroke-linecap="round" stroke-linejoin="round"/>
<path d="M214 609V599.667C214 594.716 215.967 589.968 219.467 586.467C222.968 582.967 227.716 581 232.667 581H251.333C256.284 581 261.032 582.967 264.533 586.467C268.033 589.968 270 594.716 270 599.667V609" stroke="#9CA3AF" stroke-width="4" stroke-linecap="round" stroke-linejoin="round"/>
<path d="M274.667 525.607C278.682 526.635 282.241 528.97 284.782 532.244C287.324 535.518 288.703 539.545 288.703 543.69C288.703 547.835 287.324 551.862 284.782 555.136C282.241 558.41 278.682 560.745 274.667 561.773" stroke="#9CA3AF" stroke-width="4" stroke-linecap="round" stroke-linejoin="round"/>
<path d="M298 609V599.667C297.976 595.547 296.59 591.55 294.058 588.3C291.526 585.051 287.989 582.73 284 581.7" stroke="#9CA3AF" stroke-width="4" stroke-linecap="round" stroke-linejoin="round"/>
</svg>
