<svg width="980" height="748" viewBox="0 0 980 748" fill="none" xmlns="http://www.w3.org/2000/svg">
<path d="M207.086 46.696H210.896C210.781 42.5028 207.073 39.4602 201.755 39.4602C196.501 39.4602 192.474 42.4645 192.474 46.9773C192.474 50.6207 195.082 52.7557 199.288 53.8935L202.381 54.7372C205.181 55.4787 207.342 56.3991 207.342 58.7259C207.342 61.2827 204.9 62.9702 201.538 62.9702C198.495 62.9702 195.964 61.6151 195.734 58.7642H191.771C192.026 63.5071 195.695 66.4347 201.563 66.4347C207.712 66.4347 211.254 63.2003 211.254 58.7642C211.254 54.0469 207.048 52.2188 203.724 51.4006L201.167 50.7358C199.121 50.2116 196.398 49.2528 196.411 46.7472C196.411 44.5227 198.444 42.8736 201.665 42.8736C204.67 42.8736 206.805 44.2798 207.086 46.696ZM215.667 73.3636H219.49V62.9446H219.72C220.41 64.1974 221.816 66.3835 225.396 66.3835C230.152 66.3835 233.603 62.5739 233.603 56.2202C233.603 49.8537 230.1 46.108 225.358 46.108C221.714 46.108 220.397 48.3324 219.72 49.5469H219.4V46.3636H215.667V73.3636ZM219.413 56.1818C219.413 52.0781 221.203 49.3551 224.539 49.3551C228.004 49.3551 229.743 52.2827 229.743 56.1818C229.743 60.1193 227.953 63.1236 224.539 63.1236C221.254 63.1236 219.413 60.3111 219.413 56.1818ZM246.349 66.3963C250.632 66.3963 253.662 64.2869 254.531 61.0909L250.913 60.4389C250.223 62.2926 248.561 63.2386 246.387 63.2386C243.115 63.2386 240.916 61.1165 240.814 57.3324H254.774V55.9773C254.774 48.8821 250.529 46.108 246.081 46.108C240.609 46.108 237.004 50.2756 237.004 56.3097C237.004 62.4077 240.558 66.3963 246.349 66.3963ZM240.826 54.4688C240.98 51.6818 243 49.2656 246.106 49.2656C249.072 49.2656 251.015 51.4645 251.028 54.4688H240.826ZM267.286 66.3963C271.927 66.3963 274.931 63.6094 275.353 59.7869H271.633C271.147 61.9091 269.498 63.1619 267.312 63.1619C264.077 63.1619 261.994 60.4645 261.994 56.1818C261.994 51.9759 264.116 49.3295 267.312 49.3295C269.741 49.3295 271.224 50.8636 271.633 52.7045H275.353C274.944 48.7415 271.71 46.108 267.248 46.108C261.712 46.108 258.133 50.2756 258.133 56.2713C258.133 62.1903 261.585 66.3963 267.286 66.3963ZM288.607 46.3636H284.58V41.6591H280.757V46.3636H277.881V49.4318H280.757V61.027C280.745 64.5938 283.468 66.3196 286.485 66.2557C287.699 66.2429 288.517 66.0128 288.965 65.8466L288.275 62.6889C288.019 62.7401 287.546 62.8551 286.932 62.8551C285.692 62.8551 284.58 62.446 284.58 60.2344V49.4318H288.607V46.3636ZM292.835 66H296.658V54.0085C296.658 51.4389 298.639 49.5852 301.349 49.5852C302.142 49.5852 303.037 49.7259 303.344 49.8153V46.1591C302.96 46.108 302.206 46.0696 301.72 46.0696C299.419 46.0696 297.45 47.3736 296.734 49.483H296.53V46.3636H292.835V66ZM319.091 57.8565C319.103 61.1932 316.623 62.7784 314.475 62.7784C312.11 62.7784 310.474 61.0653 310.474 58.3935V46.3636H306.652V58.8537C306.652 63.7244 309.324 66.2557 313.095 66.2557C316.048 66.2557 318.055 64.696 318.963 62.5994H319.167V66H322.926V46.3636H319.091V57.8565ZM328.062 66H331.884V53.8935C331.884 51.2472 333.738 49.4062 335.911 49.4062C338.033 49.4062 339.504 50.8125 339.504 52.9474V66H343.313V53.4844C343.313 51.1193 344.758 49.4062 347.251 49.4062C349.271 49.4062 350.933 50.5312 350.933 53.1903V66H354.755V52.8324C354.755 48.3452 352.249 46.108 348.695 46.108C345.87 46.108 343.748 47.4631 342.802 49.5597H342.597C341.741 47.4119 339.938 46.108 337.317 46.108C334.722 46.108 332.792 47.3991 331.974 49.5597H331.731V46.3636H328.062V66ZM374.593 51.1577C373.8 48.1023 371.409 46.108 367.165 46.108C362.729 46.108 359.584 48.4474 359.584 51.9247C359.584 54.7116 361.272 56.5653 364.953 57.3835L368.277 58.1122C370.169 58.5341 371.051 59.3778 371.051 60.6051C371.051 62.1264 369.428 63.3153 366.922 63.3153C364.634 63.3153 363.164 62.331 362.703 60.4006L359.009 60.9631C359.648 64.4403 362.537 66.3963 366.948 66.3963C371.691 66.3963 374.976 63.8778 374.976 60.3239C374.976 57.5497 373.212 55.8366 369.607 55.0057L366.488 54.2898C364.327 53.7784 363.394 53.0497 363.407 51.7202C363.394 50.2116 365.03 49.1378 367.203 49.1378C369.581 49.1378 370.681 50.4545 371.128 51.7713L374.593 51.1577ZM394.421 66.4347C397.668 66.4347 399.496 64.7855 400.225 63.3153H400.378V66H404.111V52.9602C404.111 47.2457 399.611 46.108 396.492 46.108C392.938 46.108 389.665 47.5398 388.387 51.1193L391.979 51.9375C392.542 50.544 393.973 49.2017 396.543 49.2017C399.01 49.2017 400.276 50.4929 400.276 52.7173V52.8068C400.276 54.2003 398.844 54.1747 395.316 54.5838C391.596 55.0185 387.786 55.9901 387.786 60.4517C387.786 64.3125 390.688 66.4347 394.421 66.4347ZM395.252 63.3665C393.091 63.3665 391.532 62.3949 391.532 60.5028C391.532 58.4574 393.347 57.7287 395.559 57.4347C396.799 57.2685 399.739 56.9361 400.289 56.3864V58.9176C400.289 61.2443 398.435 63.3665 395.252 63.3665ZM409.202 73.3636H413.025V62.9446H413.255C413.945 64.1974 415.352 66.3835 418.931 66.3835C423.687 66.3835 427.138 62.5739 427.138 56.2202C427.138 49.8537 423.636 46.108 418.893 46.108C415.249 46.108 413.933 48.3324 413.255 49.5469H412.935V46.3636H409.202V73.3636ZM412.948 56.1818C412.948 52.0781 414.738 49.3551 418.075 49.3551C421.539 49.3551 423.278 52.2827 423.278 56.1818C423.278 60.1193 421.488 63.1236 418.075 63.1236C414.789 63.1236 412.948 60.3111 412.948 56.1818ZM431.421 73.3636H435.244V62.9446H435.474C436.164 64.1974 437.57 66.3835 441.15 66.3835C445.906 66.3835 449.357 62.5739 449.357 56.2202C449.357 49.8537 445.854 46.108 441.112 46.108C437.468 46.108 436.151 48.3324 435.474 49.5469H435.154V46.3636H431.421V73.3636ZM435.167 56.1818C435.167 52.0781 436.957 49.3551 440.293 49.3551C443.758 49.3551 445.496 52.2827 445.496 56.1818C445.496 60.1193 443.707 63.1236 440.293 63.1236C437.008 63.1236 435.167 60.3111 435.167 56.1818ZM457.462 39.8182H453.64V66H457.462V39.8182ZM462.605 66H466.427V46.3636H462.605V66ZM464.535 43.3338C465.852 43.3338 466.951 42.3111 466.951 41.0582C466.951 39.8054 465.852 38.7699 464.535 38.7699C463.206 38.7699 462.119 39.8054 462.119 41.0582C462.119 42.3111 463.206 43.3338 464.535 43.3338ZM480.033 66.3963C484.315 66.3963 487.345 64.2869 488.214 61.0909L484.597 60.4389C483.906 62.2926 482.244 63.2386 480.071 63.2386C476.798 63.2386 474.599 61.1165 474.497 57.3324H488.457V55.9773C488.457 48.8821 484.213 46.108 479.764 46.108C474.293 46.108 470.688 50.2756 470.688 56.3097C470.688 62.4077 474.241 66.3963 480.033 66.3963ZM474.51 54.4688C474.663 51.6818 476.683 49.2656 479.79 49.2656C482.756 49.2656 484.699 51.4645 484.712 54.4688H474.51ZM500.049 66.3835C503.629 66.3835 505.035 64.1974 505.725 62.9446H506.045V66H509.778V39.8182H505.956V49.5469H505.725C505.035 48.3324 503.731 46.108 500.075 46.108C495.332 46.108 491.842 49.8537 491.842 56.2202C491.842 62.5739 495.281 66.3835 500.049 66.3835ZM500.893 63.1236C497.48 63.1236 495.703 60.1193 495.703 56.1818C495.703 52.2827 497.441 49.3551 500.893 49.3551C504.23 49.3551 506.02 52.0781 506.02 56.1818C506.02 60.3111 504.191 63.1236 500.893 63.1236ZM533.927 46.3636H529.9V41.6591H526.078V46.3636H523.201V49.4318H526.078V61.027C526.065 64.5938 528.788 66.3196 531.805 66.2557C533.02 66.2429 533.838 66.0128 534.285 65.8466L533.595 62.6889C533.339 62.7401 532.866 62.8551 532.252 62.8551C531.012 62.8551 529.9 62.446 529.9 60.2344V49.4318H533.927V46.3636ZM546.216 66.3963C551.751 66.3963 555.369 62.3438 555.369 56.2713C555.369 50.1605 551.751 46.108 546.216 46.108C540.68 46.108 537.062 50.1605 537.062 56.2713C537.062 62.3438 540.68 66.3963 546.216 66.3963ZM546.229 63.1875C542.611 63.1875 540.923 60.0298 540.923 56.2585C540.923 52.5 542.611 49.304 546.229 49.304C549.821 49.304 551.509 52.5 551.509 56.2585C551.509 60.0298 549.821 63.1875 546.229 63.1875ZM578.33 46.3636H574.303V41.6591H570.48V46.3636H567.604V49.4318H570.48V61.027C570.467 64.5938 573.19 66.3196 576.207 66.2557C577.422 66.2429 578.24 66.0128 578.688 65.8466L577.997 62.6889C577.741 62.7401 577.268 62.8551 576.655 62.8551C575.415 62.8551 574.303 62.446 574.303 60.2344V49.4318H578.33V46.3636ZM586.802 54.3409C586.802 51.2088 588.784 49.419 591.507 49.419C594.14 49.419 595.713 51.0938 595.713 53.9702V66H599.535V53.5099C599.535 48.6136 596.85 46.108 592.811 46.108C589.755 46.108 587.914 47.4375 586.994 49.5597H586.751V39.8182H582.98V66H586.802V54.3409ZM613.099 66.3963C617.382 66.3963 620.412 64.2869 621.281 61.0909L617.663 60.4389C616.973 62.2926 615.311 63.2386 613.137 63.2386C609.865 63.2386 607.666 61.1165 607.564 57.3324H621.524V55.9773C621.524 48.8821 617.279 46.108 612.831 46.108C607.359 46.108 603.754 50.2756 603.754 56.3097C603.754 62.4077 607.308 66.3963 613.099 66.3963ZM607.576 54.4688C607.73 51.6818 609.75 49.2656 612.856 49.2656C615.822 49.2656 617.765 51.4645 617.778 54.4688H607.576ZM635.292 66H639.115V54.0085C639.115 51.4389 641.096 49.5852 643.806 49.5852C644.599 49.5852 645.494 49.7259 645.801 49.8153V46.1591C645.417 46.108 644.663 46.0696 644.177 46.0696C641.876 46.0696 639.907 47.3736 639.191 49.483H638.987V46.3636H635.292V66ZM656.869 66.3963C661.151 66.3963 664.181 64.2869 665.05 61.0909L661.433 60.4389C660.742 62.2926 659.08 63.2386 656.907 63.2386C653.634 63.2386 651.435 61.1165 651.333 57.3324H665.293V55.9773C665.293 48.8821 661.049 46.108 656.6 46.108C651.129 46.108 647.523 50.2756 647.523 56.3097C647.523 62.4077 651.077 66.3963 656.869 66.3963ZM651.346 54.4688C651.499 51.6818 653.519 49.2656 656.626 49.2656C659.592 49.2656 661.535 51.4645 661.548 54.4688H651.346ZM675.249 66.4347C678.496 66.4347 680.324 64.7855 681.053 63.3153H681.206V66H684.939V52.9602C684.939 47.2457 680.439 46.108 677.32 46.108C673.766 46.108 670.493 47.5398 669.215 51.1193L672.807 51.9375C673.37 50.544 674.801 49.2017 677.371 49.2017C679.838 49.2017 681.104 50.4929 681.104 52.7173V52.8068C681.104 54.2003 679.672 54.1747 676.144 54.5838C672.424 55.0185 668.614 55.9901 668.614 60.4517C668.614 64.3125 671.516 66.4347 675.249 66.4347ZM676.08 63.3665C673.919 63.3665 672.36 62.3949 672.36 60.5028C672.36 58.4574 674.175 57.7287 676.387 57.4347C677.627 57.2685 680.567 56.9361 681.117 56.3864V58.9176C681.117 61.2443 679.263 63.3665 676.08 63.3665ZM693.853 39.8182H690.031V66H693.853V39.8182ZM712.78 66H716.666L720.655 51.8224H720.949L724.938 66H728.837L734.602 46.3636H730.652L726.83 60.7202H726.638L722.803 46.3636H718.852L714.991 60.7841H714.8L710.952 46.3636H707.001L712.78 66ZM745.903 66.3963C751.439 66.3963 755.057 62.3438 755.057 56.2713C755.057 50.1605 751.439 46.108 745.903 46.108C740.368 46.108 736.75 50.1605 736.75 56.2713C736.75 62.3438 740.368 66.3963 745.903 66.3963ZM745.916 63.1875C742.298 63.1875 740.611 60.0298 740.611 56.2585C740.611 52.5 742.298 49.304 745.916 49.304C749.509 49.304 751.196 52.5 751.196 56.2585C751.196 60.0298 749.509 63.1875 745.916 63.1875ZM759.324 66H763.146V54.0085C763.146 51.4389 765.127 49.5852 767.838 49.5852C768.63 49.5852 769.525 49.7259 769.832 49.8153V46.1591C769.449 46.108 768.694 46.0696 768.208 46.0696C765.907 46.0696 763.939 47.3736 763.223 49.483H763.018V46.3636H759.324V66ZM776.962 39.8182H773.14V66H776.962V39.8182ZM789.456 66.3835C793.035 66.3835 794.441 64.1974 795.132 62.9446H795.451V66H799.184V39.8182H795.362V49.5469H795.132C794.441 48.3324 793.137 46.108 789.481 46.108C784.738 46.108 781.248 49.8537 781.248 56.2202C781.248 62.5739 784.687 66.3835 789.456 66.3835ZM790.299 63.1236C786.886 63.1236 785.109 60.1193 785.109 56.1818C785.109 52.2827 786.848 49.3551 790.299 49.3551C793.636 49.3551 795.426 52.0781 795.426 56.1818C795.426 60.3111 793.598 63.1236 790.299 63.1236Z" fill="#A8A8A8"/>
<line x1="494.207" y1="258.705" x2="495.514" y2="623.284" stroke="#9CA3AF" stroke-width="3" stroke-dasharray="3 3"/>
<line x1="909" y1="442.5" x2="79" y2="442.5" stroke="#9CA3AF" stroke-width="3" stroke-dasharray="3 3"/>
<path d="M32.9091 464.545V482H35.9432V469.983H36.1051L40.929 481.949H43.196L48.0199 470.009H48.1818V482H51.2159V464.545H47.3466L42.1648 477.193H41.9602L36.7784 464.545H32.9091ZM60.233 482.256C64.0682 482.256 66.5057 479.554 66.5057 475.506C66.5057 471.449 64.0682 468.739 60.233 468.739C56.3977 468.739 53.9602 471.449 53.9602 475.506C53.9602 479.554 56.3977 482.256 60.233 482.256ZM60.25 479.784C58.1278 479.784 57.0881 477.892 57.0881 475.497C57.0881 473.102 58.1278 471.185 60.25 471.185C62.3381 471.185 63.3778 473.102 63.3778 475.497C63.3778 477.892 62.3381 479.784 60.25 479.784ZM73.9822 482.23C76.2322 482.23 77.2464 480.892 77.7322 479.938H77.9197V482H80.9538V464.545H77.8601V471.074H77.7322C77.2635 470.128 76.3004 468.739 73.9908 468.739C70.9652 468.739 68.5874 471.108 68.5874 475.472C68.5874 479.784 70.897 482.23 73.9822 482.23ZM74.843 479.699C72.8061 479.699 71.7322 477.909 71.7322 475.455C71.7322 473.017 72.7891 471.27 74.843 471.27C76.8288 471.27 77.9197 472.915 77.9197 475.455C77.9197 477.994 76.8118 479.699 74.843 479.699ZM92.5852 476.494C92.5852 478.489 91.1619 479.477 89.7983 479.477C88.3153 479.477 87.3267 478.429 87.3267 476.767V468.909H84.2415V477.244C84.2415 480.389 86.0312 482.17 88.6051 482.17C90.5653 482.17 91.946 481.139 92.5426 479.673H92.679V482H95.6705V468.909H92.5852V476.494ZM101.928 464.545H98.843V482H101.928V464.545ZM108.868 482.264C110.922 482.264 112.149 481.301 112.712 480.202H112.814V482H115.78V473.239C115.78 469.778 112.959 468.739 110.462 468.739C107.709 468.739 105.595 469.966 104.913 472.352L107.794 472.761C108.101 471.866 108.97 471.099 110.479 471.099C111.911 471.099 112.695 471.832 112.695 473.119V473.17C112.695 474.057 111.766 474.099 109.456 474.347C106.916 474.619 104.487 475.378 104.487 478.327C104.487 480.901 106.371 482.264 108.868 482.264ZM109.669 479.997C108.382 479.997 107.462 479.409 107.462 478.276C107.462 477.091 108.493 476.597 109.874 476.401C110.683 476.29 112.303 476.085 112.703 475.761V477.304C112.703 478.761 111.527 479.997 109.669 479.997ZM118.882 482H121.967V474.304C121.967 472.642 123.22 471.466 124.916 471.466C125.436 471.466 126.084 471.56 126.348 471.645V468.807C126.067 468.756 125.581 468.722 125.24 468.722C123.74 468.722 122.487 469.574 122.01 471.091H121.874V468.909H118.882V482Z" fill="#A8A8A8"/>
<path d="M859.116 403.545V421H862.15V408.983H862.312L867.136 420.949H869.403L874.227 409.009H874.389V421H877.423V403.545H873.554L868.372 416.193H868.167L862.985 403.545H859.116ZM886.44 421.256C890.275 421.256 892.713 418.554 892.713 414.506C892.713 410.449 890.275 407.739 886.44 407.739C882.605 407.739 880.167 410.449 880.167 414.506C880.167 418.554 882.605 421.256 886.44 421.256ZM886.457 418.784C884.335 418.784 883.295 416.892 883.295 414.497C883.295 412.102 884.335 410.185 886.457 410.185C888.545 410.185 889.585 412.102 889.585 414.497C889.585 416.892 888.545 418.784 886.457 418.784ZM898.417 413.33C898.417 411.438 899.559 410.347 901.186 410.347C902.78 410.347 903.735 411.395 903.735 413.142V421H906.82V412.665C906.828 409.528 905.039 407.739 902.337 407.739C900.377 407.739 899.03 408.676 898.434 410.134H898.28V407.909H895.331V421H898.417V413.33ZM915.667 421.256C919.502 421.256 921.939 418.554 921.939 414.506C921.939 410.449 919.502 407.739 915.667 407.739C911.831 407.739 909.394 410.449 909.394 414.506C909.394 418.554 911.831 421.256 915.667 421.256ZM915.684 418.784C913.561 418.784 912.522 416.892 912.522 414.497C912.522 412.102 913.561 410.185 915.684 410.185C917.772 410.185 918.811 412.102 918.811 414.497C918.811 416.892 917.772 418.784 915.684 418.784ZM927.643 403.545H924.558V421H927.643V403.545ZM930.816 421H933.901V407.909H930.816V421ZM932.367 406.051C933.347 406.051 934.148 405.301 934.148 404.381C934.148 403.452 933.347 402.702 932.367 402.702C931.378 402.702 930.577 403.452 930.577 404.381C930.577 405.301 931.378 406.051 932.367 406.051ZM943.61 407.909H941.028V404.773H937.943V407.909H936.085V410.295H937.943V417.574C937.926 420.037 939.716 421.247 942.034 421.179C942.912 421.153 943.517 420.983 943.849 420.872L943.329 418.46C943.159 418.503 942.809 418.58 942.426 418.58C941.65 418.58 941.028 418.307 941.028 417.062V410.295H943.61V407.909ZM949.557 413.33C949.557 411.438 950.733 410.347 952.387 410.347C954.006 410.347 954.961 411.378 954.961 413.142V421H958.046V412.665C958.046 409.503 956.256 407.739 953.537 407.739C951.526 407.739 950.248 408.651 949.642 410.134H949.489V403.545H946.472V421H949.557V413.33Z" fill="#A8A8A8"/>
<path d="M443.835 665H446.997V659.102H450.338C454.369 659.102 456.534 656.682 456.534 653.324C456.534 649.991 454.395 647.545 450.38 647.545H443.835V665ZM446.997 656.503V650.188H449.895C452.264 650.188 453.312 651.466 453.312 653.324C453.312 655.182 452.264 656.503 449.912 656.503H446.997ZM464.667 665.256C468.502 665.256 470.939 662.554 470.939 658.506C470.939 654.449 468.502 651.739 464.667 651.739C460.831 651.739 458.394 654.449 458.394 658.506C458.394 662.554 460.831 665.256 464.667 665.256ZM464.684 662.784C462.561 662.784 461.522 660.892 461.522 658.497C461.522 656.102 462.561 654.185 464.684 654.185C466.772 654.185 467.811 656.102 467.811 658.497C467.811 660.892 466.772 662.784 464.684 662.784ZM476.643 647.545H473.558V665H476.643V647.545ZM481.733 669.909C484.137 669.909 485.526 668.673 486.267 666.585L491.526 651.926L488.228 651.909L485.202 661.795H485.066L482.049 651.909H478.776L483.523 665.273L483.259 665.98C482.688 667.472 481.784 667.574 480.438 667.182L479.722 669.585C480.14 669.756 480.89 669.909 481.733 669.909ZM493.667 665H496.752V657.304C496.752 655.642 498.005 654.466 499.701 654.466C500.221 654.466 500.869 654.56 501.133 654.645V651.807C500.852 651.756 500.366 651.722 500.025 651.722C498.525 651.722 497.272 652.574 496.795 654.091H496.659V651.909H493.667V665ZM508.439 665.256C511.49 665.256 513.587 663.764 514.132 661.489L511.252 661.165C510.834 662.273 509.811 662.852 508.482 662.852C506.488 662.852 505.167 661.54 505.141 659.298H514.26V658.352C514.26 653.759 511.499 651.739 508.277 651.739C504.527 651.739 502.081 654.491 502.081 658.531C502.081 662.639 504.493 665.256 508.439 665.256ZM505.15 657.219C505.243 655.548 506.479 654.142 508.32 654.142C510.093 654.142 511.286 655.438 511.303 657.219H505.15ZM516.87 669.909H519.956V662.938H520.083C520.569 663.892 521.583 665.23 523.833 665.23C526.919 665.23 529.228 662.784 529.228 658.472C529.228 654.108 526.85 651.739 523.825 651.739C521.515 651.739 520.552 653.128 520.083 654.074H519.904V651.909H516.87V669.909ZM519.896 658.455C519.896 655.915 520.987 654.27 522.973 654.27C525.027 654.27 526.083 656.017 526.083 658.455C526.083 660.909 525.01 662.699 522.973 662.699C521.004 662.699 519.896 660.994 519.896 658.455ZM537.581 665.256C541.416 665.256 543.853 662.554 543.853 658.506C543.853 654.449 541.416 651.739 537.581 651.739C533.745 651.739 531.308 654.449 531.308 658.506C531.308 662.554 533.745 665.256 537.581 665.256ZM537.598 662.784C535.475 662.784 534.436 660.892 534.436 658.497C534.436 656.102 535.475 654.185 537.598 654.185C539.686 654.185 540.725 656.102 540.725 658.497C540.725 660.892 539.686 662.784 537.598 662.784Z" fill="#A8A8A8"/>
<path d="M436.03 216.545V234H439.064V221.983H439.226L444.05 233.949H446.317L451.141 222.009H451.303V234H454.337V216.545H450.468L445.286 229.193H445.081L439.9 216.545H436.03ZM463.354 234.256C467.189 234.256 469.627 231.554 469.627 227.506C469.627 223.449 467.189 220.739 463.354 220.739C459.519 220.739 457.081 223.449 457.081 227.506C457.081 231.554 459.519 234.256 463.354 234.256ZM463.371 231.784C461.249 231.784 460.209 229.892 460.209 227.497C460.209 225.102 461.249 223.185 463.371 223.185C465.459 223.185 466.499 225.102 466.499 227.497C466.499 229.892 465.459 231.784 463.371 231.784ZM475.331 226.33C475.331 224.438 476.473 223.347 478.1 223.347C479.694 223.347 480.649 224.395 480.649 226.142V234H483.734V225.665C483.743 222.528 481.953 220.739 479.251 220.739C477.291 220.739 475.944 221.676 475.348 223.134H475.194V220.909H472.245V234H475.331V226.33ZM492.581 234.256C496.416 234.256 498.853 231.554 498.853 227.506C498.853 223.449 496.416 220.739 492.581 220.739C488.745 220.739 486.308 223.449 486.308 227.506C486.308 231.554 488.745 234.256 492.581 234.256ZM492.598 231.784C490.475 231.784 489.436 229.892 489.436 227.497C489.436 225.102 490.475 223.185 492.598 223.185C494.686 223.185 495.725 225.102 495.725 227.497C495.725 229.892 494.686 231.784 492.598 231.784ZM501.472 234H504.557V226.304C504.557 224.642 505.81 223.466 507.506 223.466C508.026 223.466 508.674 223.56 508.938 223.645V220.807C508.657 220.756 508.171 220.722 507.83 220.722C506.33 220.722 505.077 221.574 504.6 223.091H504.463V220.909H501.472V234ZM516.244 234.256C519.295 234.256 521.392 232.764 521.937 230.489L519.056 230.165C518.639 231.273 517.616 231.852 516.287 231.852C514.292 231.852 512.971 230.54 512.946 228.298H522.065V227.352C522.065 222.759 519.304 220.739 516.082 220.739C512.332 220.739 509.886 223.491 509.886 227.531C509.886 231.639 512.298 234.256 516.244 234.256ZM512.954 226.219C513.048 224.548 514.284 223.142 516.125 223.142C517.897 223.142 519.091 224.438 519.108 226.219H512.954ZM524.675 238.909H527.76V231.938H527.888C528.374 232.892 529.388 234.23 531.638 234.23C534.723 234.23 537.033 231.784 537.033 227.472C537.033 223.108 534.655 220.739 531.63 220.739C529.32 220.739 528.357 222.128 527.888 223.074H527.709V220.909H524.675V238.909ZM527.701 227.455C527.701 224.915 528.792 223.27 530.777 223.27C532.831 223.27 533.888 225.017 533.888 227.455C533.888 229.909 532.814 231.699 530.777 231.699C528.809 231.699 527.701 229.994 527.701 227.455ZM545.385 234.256C549.221 234.256 551.658 231.554 551.658 227.506C551.658 223.449 549.221 220.739 545.385 220.739C541.55 220.739 539.113 223.449 539.113 227.506C539.113 231.554 541.55 234.256 545.385 234.256ZM545.402 231.784C543.28 231.784 542.24 229.892 542.24 227.497C542.24 225.102 543.28 223.185 545.402 223.185C547.49 223.185 548.53 225.102 548.53 227.497C548.53 229.892 547.49 231.784 545.402 231.784Z" fill="#A8A8A8"/>
<path d="M121.843 288.06H124.545C123.957 284.659 121.051 282.307 117.284 282.307C112.767 282.307 109.468 285.707 109.468 291.281C109.468 296.804 112.673 300.239 117.403 300.239C121.639 300.239 124.664 297.46 124.664 293.054V291.068H117.804V293.241H122.116C122.056 296.054 120.199 297.835 117.403 297.835C114.326 297.835 112.085 295.509 112.085 291.264C112.085 287.037 114.343 284.71 117.301 284.71C119.619 284.71 121.187 285.989 121.843 288.06ZM133.317 300.264C137.007 300.264 139.419 297.562 139.419 293.514C139.419 289.44 137.007 286.739 133.317 286.739C129.627 286.739 127.215 289.44 127.215 293.514C127.215 297.562 129.627 300.264 133.317 300.264ZM133.326 298.125C130.914 298.125 129.789 296.02 129.789 293.506C129.789 291 130.914 288.869 133.326 288.869C135.721 288.869 136.846 291 136.846 293.506C136.846 296.02 135.721 298.125 133.326 298.125ZM147.778 300.264C151.468 300.264 153.88 297.562 153.88 293.514C153.88 289.44 151.468 286.739 147.778 286.739C144.088 286.739 141.676 289.44 141.676 293.514C141.676 297.562 144.088 300.264 147.778 300.264ZM147.787 298.125C145.375 298.125 144.25 296.02 144.25 293.506C144.25 291 145.375 288.869 147.787 288.869C150.181 288.869 151.306 291 151.306 293.506C151.306 296.02 150.181 298.125 147.787 298.125ZM162.213 305.182C165.546 305.182 168.12 303.656 168.12 300.29V286.909H165.623V289.031H165.435C164.983 288.222 164.08 286.739 161.642 286.739C158.48 286.739 156.154 289.236 156.154 293.403C156.154 297.58 158.532 299.804 161.625 299.804C164.029 299.804 164.958 298.449 165.418 297.614H165.58V300.188C165.58 302.241 164.174 303.128 162.239 303.128C160.117 303.128 159.29 302.062 158.838 301.312L156.648 302.216C157.338 303.818 159.086 305.182 162.213 305.182ZM162.188 297.69C159.912 297.69 158.728 295.943 158.728 293.369C158.728 290.855 159.887 288.903 162.188 288.903C164.412 288.903 165.605 290.719 165.605 293.369C165.605 296.071 164.387 297.69 162.188 297.69ZM174.086 282.545H171.537V300H174.086V282.545ZM183.156 300.264C186.011 300.264 188.031 298.858 188.61 296.727L186.199 296.293C185.738 297.528 184.63 298.159 183.181 298.159C181 298.159 179.534 296.744 179.466 294.222H188.772V293.318C188.772 288.588 185.943 286.739 182.977 286.739C179.329 286.739 176.926 289.517 176.926 293.54C176.926 297.605 179.295 300.264 183.156 300.264ZM179.474 292.312C179.576 290.455 180.923 288.844 182.994 288.844C184.971 288.844 186.267 290.31 186.275 292.312H179.474Z" fill="#61A8E8"/>
<path d="M110.191 320.545V338H112.697V325.361H112.859L118.006 337.974H120.086L125.234 325.369H125.396V338H127.901V320.545H124.705L119.148 334.114H118.944L113.387 320.545H110.191ZM131.526 338H134.074V324.909H131.526V338ZM132.812 322.889C133.69 322.889 134.423 322.207 134.423 321.372C134.423 320.537 133.69 319.847 132.812 319.847C131.926 319.847 131.202 320.537 131.202 321.372C131.202 322.207 131.926 322.889 132.812 322.889ZM143.016 338.264C146.11 338.264 148.113 336.406 148.394 333.858H145.914C145.59 335.273 144.491 336.108 143.033 336.108C140.877 336.108 139.488 334.31 139.488 331.455C139.488 328.651 140.903 326.886 143.033 326.886C144.653 326.886 145.641 327.909 145.914 329.136H148.394C148.121 326.494 145.965 324.739 142.991 324.739C139.3 324.739 136.914 327.517 136.914 331.514C136.914 335.46 139.215 338.264 143.016 338.264ZM151.119 338H153.668V330.006C153.668 328.293 154.989 327.057 156.795 327.057C157.324 327.057 157.92 327.151 158.125 327.21V324.773C157.869 324.739 157.366 324.713 157.043 324.713C155.509 324.713 154.196 325.582 153.719 326.989H153.582V324.909H151.119V338ZM165.376 338.264C169.066 338.264 171.478 335.562 171.478 331.514C171.478 327.44 169.066 324.739 165.376 324.739C161.685 324.739 159.273 327.44 159.273 331.514C159.273 335.562 161.685 338.264 165.376 338.264ZM165.384 336.125C162.972 336.125 161.847 334.02 161.847 331.506C161.847 329 162.972 326.869 165.384 326.869C167.779 326.869 168.904 329 168.904 331.506C168.904 334.02 167.779 336.125 165.384 336.125ZM184.132 328.105C183.604 326.068 182.01 324.739 179.18 324.739C176.223 324.739 174.126 326.298 174.126 328.616C174.126 330.474 175.251 331.71 177.706 332.256L179.922 332.741C181.183 333.023 181.771 333.585 181.771 334.403C181.771 335.418 180.689 336.21 179.018 336.21C177.493 336.21 176.513 335.554 176.206 334.267L173.743 334.642C174.169 336.96 176.095 338.264 179.036 338.264C182.197 338.264 184.388 336.585 184.388 334.216C184.388 332.366 183.212 331.224 180.808 330.67L178.729 330.193C177.288 329.852 176.666 329.366 176.675 328.48C176.666 327.474 177.757 326.759 179.206 326.759C180.791 326.759 181.524 327.636 181.822 328.514L184.132 328.105ZM192.704 338.264C196.394 338.264 198.806 335.562 198.806 331.514C198.806 327.44 196.394 324.739 192.704 324.739C189.013 324.739 186.602 327.44 186.602 331.514C186.602 335.562 189.013 338.264 192.704 338.264ZM192.712 336.125C190.3 336.125 189.175 334.02 189.175 331.506C189.175 329 190.3 326.869 192.712 326.869C195.107 326.869 196.232 329 196.232 331.506C196.232 334.02 195.107 336.125 192.712 336.125ZM207.881 324.909H205.06V323.733C205.06 322.574 205.537 321.943 206.781 321.943C207.31 321.943 207.685 322.062 207.923 322.139L208.52 320.077C208.162 319.94 207.42 319.727 206.389 319.727C204.318 319.727 202.503 320.938 202.503 323.392V324.909H200.483V326.955H202.503V338H205.06V326.955H207.881V324.909ZM216.621 324.909H213.936V321.773H211.388V324.909H209.47V326.955H211.388V334.685C211.379 337.062 213.195 338.213 215.206 338.17C216.016 338.162 216.561 338.009 216.859 337.898L216.399 335.793C216.229 335.827 215.913 335.903 215.504 335.903C214.678 335.903 213.936 335.631 213.936 334.156V326.955H216.621V324.909Z" fill="#61A8E8"/>
<path d="M240.074 338H242.707V330.389H250.122V328.131H242.707V322.812H250.898V320.545H240.074V338ZM257.695 338.29C259.859 338.29 261.078 337.19 261.564 336.21H261.666V338H264.155V329.307C264.155 325.497 261.155 324.739 259.075 324.739C256.706 324.739 254.524 325.693 253.672 328.08L256.067 328.625C256.442 327.696 257.396 326.801 259.109 326.801C260.754 326.801 261.598 327.662 261.598 329.145V329.205C261.598 330.134 260.643 330.116 258.291 330.389C255.811 330.679 253.271 331.327 253.271 334.301C253.271 336.875 255.206 338.29 257.695 338.29ZM258.249 336.244C256.808 336.244 255.768 335.597 255.768 334.335C255.768 332.972 256.979 332.486 258.453 332.29C259.28 332.179 261.24 331.957 261.607 331.591V333.278C261.607 334.83 260.371 336.244 258.249 336.244ZM273.063 338.264C276.157 338.264 278.16 336.406 278.441 333.858H275.961C275.637 335.273 274.538 336.108 273.08 336.108C270.924 336.108 269.535 334.31 269.535 331.455C269.535 328.651 270.95 326.886 273.08 326.886C274.7 326.886 275.688 327.909 275.961 329.136H278.441C278.168 326.494 276.012 324.739 273.038 324.739C269.347 324.739 266.961 327.517 266.961 331.514C266.961 335.46 269.262 338.264 273.063 338.264ZM286.808 338.264C289.663 338.264 291.683 336.858 292.263 334.727L289.851 334.293C289.391 335.528 288.283 336.159 286.834 336.159C284.652 336.159 283.186 334.744 283.118 332.222H292.425V331.318C292.425 326.588 289.595 324.739 286.629 324.739C282.982 324.739 280.578 327.517 280.578 331.54C280.578 335.605 282.947 338.264 286.808 338.264ZM283.126 330.312C283.229 328.455 284.575 326.844 286.646 326.844C288.624 326.844 289.919 328.31 289.928 330.312H283.126ZM295.457 338H297.945V335.963H298.158C298.619 336.798 299.556 338.256 301.942 338.256C305.113 338.256 307.414 335.716 307.414 331.48C307.414 327.236 305.079 324.739 301.917 324.739C299.488 324.739 298.61 326.222 298.158 327.031H298.005V320.545H295.457V338ZM297.954 331.455C297.954 328.719 299.147 326.903 301.371 326.903C303.681 326.903 304.84 328.855 304.84 331.455C304.84 334.08 303.647 336.082 301.371 336.082C299.181 336.082 297.954 334.207 297.954 331.455ZM315.79 338.264C319.48 338.264 321.892 335.562 321.892 331.514C321.892 327.44 319.48 324.739 315.79 324.739C312.099 324.739 309.688 327.44 309.688 331.514C309.688 335.562 312.099 338.264 315.79 338.264ZM315.798 336.125C313.386 336.125 312.261 334.02 312.261 331.506C312.261 329 313.386 326.869 315.798 326.869C318.193 326.869 319.318 329 319.318 331.506C319.318 334.02 318.193 336.125 315.798 336.125ZM330.251 338.264C333.941 338.264 336.353 335.562 336.353 331.514C336.353 327.44 333.941 324.739 330.251 324.739C326.56 324.739 324.148 327.44 324.148 331.514C324.148 335.562 326.56 338.264 330.251 338.264ZM330.259 336.125C327.847 336.125 326.722 334.02 326.722 331.506C326.722 329 327.847 326.869 330.259 326.869C332.654 326.869 333.779 329 333.779 331.506C333.779 334.02 332.654 336.125 330.259 336.125ZM339.197 338H341.746V333.355L343.016 332.085L347.464 338H350.592L344.933 330.526L350.234 324.909H347.183L341.967 330.449H341.746V320.545H339.197V338Z" fill="#61A8E8"/>
<path d="M249.707 287.131H252.247C252.17 284.335 249.699 282.307 246.153 282.307C242.65 282.307 239.966 284.31 239.966 287.318C239.966 289.747 241.704 291.17 244.508 291.929L246.571 292.491C248.437 292.986 249.877 293.599 249.877 295.151C249.877 296.855 248.25 297.98 246.008 297.98C243.98 297.98 242.292 297.077 242.139 295.176H239.497C239.667 298.338 242.113 300.29 246.025 300.29C250.125 300.29 252.485 298.134 252.485 295.176C252.485 292.031 249.681 290.812 247.466 290.267L245.761 289.824C244.397 289.474 242.582 288.835 242.591 287.165C242.591 285.682 243.946 284.582 246.093 284.582C248.096 284.582 249.52 285.52 249.707 287.131ZM261.539 286.909H258.854V283.773H256.306V286.909H254.388V288.955H256.306V296.685C256.297 299.062 258.113 300.213 260.124 300.17C260.934 300.162 261.479 300.009 261.777 299.898L261.317 297.793C261.147 297.827 260.831 297.903 260.422 297.903C259.596 297.903 258.854 297.631 258.854 296.156V288.955H261.539V286.909ZM264.358 300H266.906V292.006C266.906 290.293 268.227 289.057 270.034 289.057C270.562 289.057 271.159 289.151 271.363 289.21V286.773C271.108 286.739 270.605 286.713 270.281 286.713C268.747 286.713 267.434 287.582 266.957 288.989H266.821V286.909H264.358V300ZM273.569 300H276.117V286.909H273.569V300ZM274.855 284.889C275.733 284.889 276.466 284.207 276.466 283.372C276.466 282.537 275.733 281.847 274.855 281.847C273.969 281.847 273.245 282.537 273.245 283.372C273.245 284.207 273.969 284.889 274.855 284.889ZM279.545 304.909H282.093V297.963H282.247C282.707 298.798 283.645 300.256 286.031 300.256C289.201 300.256 291.502 297.716 291.502 293.48C291.502 289.236 289.167 286.739 286.005 286.739C283.576 286.739 282.699 288.222 282.247 289.031H282.034V286.909H279.545V304.909ZM282.042 293.455C282.042 290.719 283.235 288.903 285.46 288.903C287.77 288.903 288.929 290.855 288.929 293.455C288.929 296.08 287.735 298.082 285.46 298.082C283.27 298.082 282.042 296.207 282.042 293.455ZM300 300.264C302.855 300.264 304.875 298.858 305.454 296.727L303.042 296.293C302.582 297.528 301.474 298.159 300.025 298.159C297.843 298.159 296.377 296.744 296.309 294.222H305.616V293.318C305.616 288.588 302.787 286.739 299.821 286.739C296.173 286.739 293.77 289.517 293.77 293.54C293.77 297.605 296.139 300.264 300 300.264ZM296.318 292.312C296.42 290.455 297.767 288.844 299.838 288.844C301.815 288.844 303.11 290.31 303.119 292.312H296.318Z" fill="#61A8E8"/>
<path d="M161.22 551.273C161.22 545.69 157.879 542.307 153.362 542.307C148.828 542.307 145.496 545.69 145.496 551.273C145.496 556.847 148.828 560.239 153.362 560.239C157.879 560.239 161.22 556.855 161.22 551.273ZM158.612 551.273C158.612 555.526 156.362 557.835 153.362 557.835C150.354 557.835 148.112 555.526 148.112 551.273C148.112 547.02 150.354 544.71 153.362 544.71C156.362 544.71 158.612 547.02 158.612 551.273ZM164.299 564.909H166.847V557.963H167.001C167.461 558.798 168.398 560.256 170.785 560.256C173.955 560.256 176.256 557.716 176.256 553.48C176.256 549.236 173.921 546.739 170.759 546.739C168.33 546.739 167.452 548.222 167.001 549.031H166.788V546.909H164.299V564.909ZM166.796 553.455C166.796 550.719 167.989 548.903 170.214 548.903C172.523 548.903 173.683 550.855 173.683 553.455C173.683 556.08 172.489 558.082 170.214 558.082C168.023 558.082 166.796 556.207 166.796 553.455ZM184.754 560.264C187.609 560.264 189.629 558.858 190.208 556.727L187.796 556.293C187.336 557.528 186.228 558.159 184.779 558.159C182.597 558.159 181.131 556.744 181.063 554.222H190.37V553.318C190.37 548.588 187.54 546.739 184.575 546.739C180.927 546.739 178.523 549.517 178.523 553.54C178.523 557.605 180.893 560.264 184.754 560.264ZM181.072 552.312C181.174 550.455 182.521 548.844 184.592 548.844C186.569 548.844 187.864 550.31 187.873 552.312H181.072ZM195.746 552.227C195.746 550.139 197.024 548.946 198.797 548.946C200.527 548.946 201.575 550.08 201.575 551.98V560H204.124V551.673C204.124 548.435 202.342 546.739 199.666 546.739C197.697 546.739 196.411 547.651 195.805 549.04H195.643V546.909H193.197V560H195.746V552.227ZM223.702 550.105C223.174 548.068 221.58 546.739 218.751 546.739C215.793 546.739 213.697 548.298 213.697 550.616C213.697 552.474 214.822 553.71 217.276 554.256L219.492 554.741C220.754 555.023 221.342 555.585 221.342 556.403C221.342 557.418 220.259 558.21 218.589 558.21C217.063 558.21 216.083 557.554 215.776 556.267L213.313 556.642C213.739 558.96 215.665 560.264 218.606 560.264C221.768 560.264 223.958 558.585 223.958 556.216C223.958 554.366 222.782 553.224 220.379 552.67L218.299 552.193C216.859 551.852 216.237 551.366 216.245 550.48C216.237 549.474 217.327 548.759 218.776 548.759C220.362 548.759 221.094 549.636 221.393 550.514L223.702 550.105ZM232.274 560.264C235.964 560.264 238.376 557.562 238.376 553.514C238.376 549.44 235.964 546.739 232.274 546.739C228.584 546.739 226.172 549.44 226.172 553.514C226.172 557.562 228.584 560.264 232.274 560.264ZM232.283 558.125C229.871 558.125 228.746 556.02 228.746 553.506C228.746 551 229.871 548.869 232.283 548.869C234.678 548.869 235.803 551 235.803 553.506C235.803 556.02 234.678 558.125 232.283 558.125ZM249.513 554.571C249.522 556.795 247.869 557.852 246.437 557.852C244.86 557.852 243.769 556.71 243.769 554.929V546.909H241.221V555.236C241.221 558.483 243.002 560.17 245.516 560.17C247.485 560.17 248.823 559.131 249.428 557.733H249.565V560H252.07V546.909H249.513V554.571ZM255.494 560H258.043V552.006C258.043 550.293 259.364 549.057 261.17 549.057C261.699 549.057 262.295 549.151 262.5 549.21V546.773C262.244 546.739 261.741 546.713 261.418 546.713C259.884 546.713 258.571 547.582 258.094 548.989H257.957V546.909H255.494V560ZM269.751 560.264C272.844 560.264 274.847 558.406 275.129 555.858H272.648C272.325 557.273 271.225 558.108 269.768 558.108C267.612 558.108 266.222 556.31 266.222 553.455C266.222 550.651 267.637 548.886 269.768 548.886C271.387 548.886 272.376 549.909 272.648 551.136H275.129C274.856 548.494 272.7 546.739 269.725 546.739C266.035 546.739 263.648 549.517 263.648 553.514C263.648 557.46 265.95 560.264 269.751 560.264ZM283.496 560.264C286.351 560.264 288.371 558.858 288.95 556.727L286.538 556.293C286.078 557.528 284.97 558.159 283.521 558.159C281.339 558.159 279.874 556.744 279.805 554.222H289.112V553.318C289.112 548.588 286.283 546.739 283.317 546.739C279.669 546.739 277.266 549.517 277.266 553.54C277.266 557.605 279.635 560.264 283.496 560.264ZM279.814 552.312C279.916 550.455 281.263 548.844 283.334 548.844C285.311 548.844 286.607 550.31 286.615 552.312H279.814ZM298.291 564.909H300.839V557.963H300.993C301.453 558.798 302.391 560.256 304.777 560.256C307.947 560.256 310.249 557.716 310.249 553.48C310.249 549.236 307.913 546.739 304.751 546.739C302.322 546.739 301.445 548.222 300.993 549.031H300.78V546.909H298.291V564.909ZM300.788 553.455C300.788 550.719 301.982 548.903 304.206 548.903C306.516 548.903 307.675 550.855 307.675 553.455C307.675 556.08 306.482 558.082 304.206 558.082C302.016 558.082 300.788 556.207 300.788 553.455ZM313.104 560H315.652V552.006C315.652 550.293 316.973 549.057 318.78 549.057C319.308 549.057 319.905 549.151 320.109 549.21V546.773C319.854 546.739 319.351 546.713 319.027 546.713C317.493 546.713 316.18 547.582 315.703 548.989H315.567V546.909H313.104V560ZM327.36 560.264C331.05 560.264 333.462 557.562 333.462 553.514C333.462 549.44 331.05 546.739 327.36 546.739C323.67 546.739 321.258 549.44 321.258 553.514C321.258 557.562 323.67 560.264 327.36 560.264ZM327.369 558.125C324.957 558.125 323.832 556.02 323.832 553.506C323.832 551 324.957 548.869 327.369 548.869C329.763 548.869 330.888 551 330.888 553.506C330.888 556.02 329.763 558.125 327.369 558.125ZM336.307 546.909V560.835C336.307 562.045 335.804 562.71 334.594 562.71H334.185V564.901C334.364 564.909 334.526 564.909 334.705 564.909C337.415 564.909 338.855 563.477 338.855 560.852V546.909H336.307ZM337.568 544.889C338.446 544.889 339.179 544.207 339.179 543.372C339.179 542.537 338.446 541.847 337.568 541.847C336.682 541.847 335.957 542.537 335.957 543.372C335.957 544.207 336.682 544.889 337.568 544.889ZM347.925 560.264C350.781 560.264 352.8 558.858 353.38 556.727L350.968 556.293C350.508 557.528 349.4 558.159 347.951 558.159C345.769 558.159 344.303 556.744 344.235 554.222H353.542V553.318C353.542 548.588 350.712 546.739 347.746 546.739C344.099 546.739 341.695 549.517 341.695 553.54C341.695 557.605 344.065 560.264 347.925 560.264ZM344.244 552.312C344.346 550.455 345.692 548.844 347.763 548.844C349.741 548.844 351.036 550.31 351.045 552.312H344.244ZM361.884 560.264C364.977 560.264 366.98 558.406 367.261 555.858H364.781C364.457 557.273 363.358 558.108 361.901 558.108C359.744 558.108 358.355 556.31 358.355 553.455C358.355 550.651 359.77 548.886 361.901 548.886C363.52 548.886 364.509 549.909 364.781 551.136H367.261C366.989 548.494 364.832 546.739 361.858 546.739C358.168 546.739 355.781 549.517 355.781 553.514C355.781 557.46 358.082 560.264 361.884 560.264ZM376.097 546.909H373.413V543.773H370.864V546.909H368.947V548.955H370.864V556.685C370.856 559.062 372.671 560.213 374.683 560.17C375.492 560.162 376.038 560.009 376.336 559.898L375.876 557.793C375.705 557.827 375.39 557.903 374.981 557.903C374.154 557.903 373.413 557.631 373.413 556.156V548.955H376.097V546.909ZM388.515 550.105C387.987 548.068 386.393 546.739 383.563 546.739C380.606 546.739 378.509 548.298 378.509 550.616C378.509 552.474 379.634 553.71 382.089 554.256L384.305 554.741C385.566 555.023 386.154 555.585 386.154 556.403C386.154 557.418 385.072 558.21 383.401 558.21C381.876 558.21 380.896 557.554 380.589 556.267L378.126 556.642C378.552 558.96 380.478 560.264 383.418 560.264C386.58 560.264 388.771 558.585 388.771 556.216C388.771 554.366 387.594 553.224 385.191 552.67L383.112 552.193C381.671 551.852 381.049 551.366 381.058 550.48C381.049 549.474 382.14 548.759 383.589 548.759C385.174 548.759 385.907 549.636 386.205 550.514L388.515 550.105Z" fill="#61A8E8"/>
<path d="M664.449 309.131H666.989C666.912 306.335 664.441 304.307 660.895 304.307C657.392 304.307 654.708 306.31 654.708 309.318C654.708 311.747 656.446 313.17 659.25 313.929L661.313 314.491C663.179 314.986 664.62 315.599 664.62 317.151C664.62 318.855 662.992 319.98 660.75 319.98C658.722 319.98 657.034 319.077 656.881 317.176H654.239C654.409 320.338 656.855 322.29 660.767 322.29C664.867 322.29 667.228 320.134 667.228 317.176C667.228 314.031 664.424 312.812 662.208 312.267L660.503 311.824C659.14 311.474 657.324 310.835 657.333 309.165C657.333 307.682 658.688 306.582 660.836 306.582C662.838 306.582 664.262 307.52 664.449 309.131ZM675.684 322.264C679.375 322.264 681.787 319.562 681.787 315.514C681.787 311.44 679.375 308.739 675.684 308.739C671.994 308.739 669.582 311.44 669.582 315.514C669.582 319.562 671.994 322.264 675.684 322.264ZM675.693 320.125C673.281 320.125 672.156 318.02 672.156 315.506C672.156 313 673.281 310.869 675.693 310.869C678.088 310.869 679.213 313 679.213 315.506C679.213 318.02 678.088 320.125 675.693 320.125ZM687.179 304.545H684.631V322H687.179V304.545ZM696.122 322.264C699.812 322.264 702.224 319.562 702.224 315.514C702.224 311.44 699.812 308.739 696.122 308.739C692.431 308.739 690.02 311.44 690.02 315.514C690.02 319.562 692.431 322.264 696.122 322.264ZM696.13 320.125C693.718 320.125 692.593 318.02 692.593 315.506C692.593 313 693.718 310.869 696.13 310.869C698.525 310.869 699.65 313 699.65 315.506C699.65 318.02 698.525 320.125 696.13 320.125ZM711.42 326.909H713.968V319.963H714.122C714.582 320.798 715.52 322.256 717.906 322.256C721.076 322.256 723.377 319.716 723.377 315.48C723.377 311.236 721.042 308.739 717.88 308.739C715.451 308.739 714.574 310.222 714.122 311.031H713.909V308.909H711.42V326.909ZM713.917 315.455C713.917 312.719 715.11 310.903 717.335 310.903C719.645 310.903 720.804 312.855 720.804 315.455C720.804 318.08 719.61 320.082 717.335 320.082C715.145 320.082 713.917 318.207 713.917 315.455ZM726.233 322H728.781V314.006C728.781 312.293 730.102 311.057 731.909 311.057C732.437 311.057 733.034 311.151 733.238 311.21V308.773C732.983 308.739 732.48 308.713 732.156 308.713C730.622 308.713 729.309 309.582 728.832 310.989H728.696V308.909H726.233V322ZM740.489 322.264C744.179 322.264 746.591 319.562 746.591 315.514C746.591 311.44 744.179 308.739 740.489 308.739C736.799 308.739 734.387 311.44 734.387 315.514C734.387 319.562 736.799 322.264 740.489 322.264ZM740.498 320.125C738.086 320.125 736.961 318.02 736.961 315.506C736.961 313 738.086 310.869 740.498 310.869C742.892 310.869 744.017 313 744.017 315.506C744.017 318.02 742.892 320.125 740.498 320.125ZM749.436 308.909V322.835C749.436 324.045 748.933 324.71 747.723 324.71H747.314V326.901C747.493 326.909 747.654 326.909 747.833 326.909C750.544 326.909 751.984 325.477 751.984 322.852V308.909H749.436ZM750.697 306.889C751.575 306.889 752.308 306.207 752.308 305.372C752.308 304.537 751.575 303.847 750.697 303.847C749.811 303.847 749.086 304.537 749.086 305.372C749.086 306.207 749.811 306.889 750.697 306.889ZM761.054 322.264C763.909 322.264 765.929 320.858 766.509 318.727L764.097 318.293C763.637 319.528 762.529 320.159 761.08 320.159C758.898 320.159 757.432 318.744 757.364 316.222H766.671V315.318C766.671 310.588 763.841 308.739 760.875 308.739C757.228 308.739 754.824 311.517 754.824 315.54C754.824 319.605 757.194 322.264 761.054 322.264ZM757.373 314.312C757.475 312.455 758.821 310.844 760.892 310.844C762.87 310.844 764.165 312.31 764.174 314.312H757.373ZM775.012 322.264C778.106 322.264 780.109 320.406 780.39 317.858H777.91C777.586 319.273 776.487 320.108 775.029 320.108C772.873 320.108 771.484 318.31 771.484 315.455C771.484 312.651 772.899 310.886 775.029 310.886C776.649 310.886 777.637 311.909 777.91 313.136H780.39C780.118 310.494 777.961 308.739 774.987 308.739C771.297 308.739 768.91 311.517 768.91 315.514C768.91 319.46 771.211 322.264 775.012 322.264ZM789.226 308.909H786.542V305.773H783.993V308.909H782.076V310.955H783.993V318.685C783.985 321.062 785.8 322.213 787.811 322.17C788.621 322.162 789.167 322.009 789.465 321.898L789.005 319.793C788.834 319.827 788.519 319.903 788.11 319.903C787.283 319.903 786.542 319.631 786.542 318.156V310.955H789.226V308.909ZM801.644 312.105C801.115 310.068 799.522 308.739 796.692 308.739C793.735 308.739 791.638 310.298 791.638 312.616C791.638 314.474 792.763 315.71 795.218 316.256L797.434 316.741C798.695 317.023 799.283 317.585 799.283 318.403C799.283 319.418 798.201 320.21 796.53 320.21C795.005 320.21 794.025 319.554 793.718 318.267L791.255 318.642C791.681 320.96 793.607 322.264 796.547 322.264C799.709 322.264 801.9 320.585 801.9 318.216C801.9 316.366 800.723 315.224 798.32 314.67L796.24 314.193C794.8 313.852 794.178 313.366 794.186 312.48C794.178 311.474 795.269 310.759 796.718 310.759C798.303 310.759 799.036 311.636 799.334 312.514L801.644 312.105Z" fill="#61A8E8"/>
<path d="M556.283 538.818V565H560.041V546.041H560.284L568.006 564.962H571.125L578.847 546.054H579.089V565H582.848V538.818H578.054L569.719 559.17H569.412L561.077 538.818H556.283ZM596.556 565.396C602.091 565.396 605.709 561.344 605.709 555.271C605.709 549.161 602.091 545.108 596.556 545.108C591.02 545.108 587.402 549.161 587.402 555.271C587.402 561.344 591.02 565.396 596.556 565.396ZM596.569 562.188C592.951 562.188 591.263 559.03 591.263 555.259C591.263 551.5 592.951 548.304 596.569 548.304C600.161 548.304 601.848 551.5 601.848 555.259C601.848 559.03 600.161 562.188 596.569 562.188ZM624.69 550.158C623.898 547.102 621.507 545.108 617.263 545.108C612.827 545.108 609.682 547.447 609.682 550.925C609.682 553.712 611.369 555.565 615.051 556.384L618.375 557.112C620.267 557.534 621.149 558.378 621.149 559.605C621.149 561.126 619.526 562.315 617.02 562.315C614.732 562.315 613.261 561.331 612.801 559.401L609.107 559.963C609.746 563.44 612.635 565.396 617.045 565.396C621.788 565.396 625.074 562.878 625.074 559.324C625.074 556.55 623.31 554.837 619.705 554.006L616.585 553.29C614.425 552.778 613.491 552.05 613.504 550.72C613.491 549.212 615.128 548.138 617.301 548.138C619.679 548.138 620.778 549.455 621.226 550.771L624.69 550.158ZM638.443 545.364H634.416V540.659H630.593V545.364H627.717V548.432H630.593V560.027C630.581 563.594 633.304 565.32 636.321 565.256C637.535 565.243 638.353 565.013 638.801 564.847L638.11 561.689C637.855 561.74 637.382 561.855 636.768 561.855C635.528 561.855 634.416 561.446 634.416 559.234V548.432H638.443V545.364ZM660.662 565.396C664.944 565.396 667.974 563.287 668.843 560.091L665.225 559.439C664.535 561.293 662.873 562.239 660.7 562.239C657.427 562.239 655.228 560.116 655.126 556.332H669.086V554.977C669.086 547.882 664.842 545.108 660.393 545.108C654.922 545.108 651.316 549.276 651.316 555.31C651.316 561.408 654.87 565.396 660.662 565.396ZM655.139 553.469C655.292 550.682 657.312 548.266 660.419 548.266C663.385 548.266 665.328 550.464 665.341 553.469H655.139ZM677.15 553.341C677.15 550.209 679.067 548.419 681.727 548.419C684.322 548.419 685.894 550.119 685.894 552.97V565H689.717V552.51C689.717 547.652 687.045 545.108 683.031 545.108C680.077 545.108 678.147 546.476 677.239 548.56H676.996V545.364H673.327V565H677.15V553.341ZM704.009 545.364H699.982V540.659H696.16V545.364H693.283V548.432H696.16V560.027C696.147 563.594 698.87 565.32 701.887 565.256C703.102 565.243 703.92 565.013 704.367 564.847L703.677 561.689C703.421 561.74 702.948 561.855 702.335 561.855C701.094 561.855 699.982 561.446 699.982 559.234V548.432H704.009V545.364ZM716.49 565.396C720.772 565.396 723.802 563.287 724.672 560.091L721.054 559.439C720.363 561.293 718.701 562.239 716.528 562.239C713.255 562.239 711.056 560.116 710.954 556.332H724.914V554.977C724.914 547.882 720.67 545.108 716.221 545.108C710.75 545.108 707.145 549.276 707.145 555.31C707.145 561.408 710.699 565.396 716.49 565.396ZM710.967 553.469C711.12 550.682 713.14 548.266 716.247 548.266C719.213 548.266 721.156 550.464 721.169 553.469H710.967ZM729.156 565H732.978V553.009C732.978 550.439 734.96 548.585 737.67 548.585C738.462 548.585 739.357 548.726 739.664 548.815V545.159C739.281 545.108 738.526 545.07 738.04 545.07C735.739 545.07 733.771 546.374 733.055 548.483H732.85V545.364H729.156V565ZM742.972 572.364H746.794V561.945H747.025C747.715 563.197 749.121 565.384 752.701 565.384C757.456 565.384 760.908 561.574 760.908 555.22C760.908 548.854 757.405 545.108 752.662 545.108C749.019 545.108 747.702 547.332 747.025 548.547H746.705V545.364H742.972V572.364ZM746.718 555.182C746.718 551.078 748.507 548.355 751.844 548.355C755.309 548.355 757.047 551.283 757.047 555.182C757.047 559.119 755.257 562.124 751.844 562.124C748.559 562.124 746.718 559.311 746.718 555.182ZM765.191 565H769.013V553.009C769.013 550.439 770.995 548.585 773.705 548.585C774.498 548.585 775.392 548.726 775.699 548.815V545.159C775.316 545.108 774.561 545.07 774.076 545.07C771.775 545.07 769.806 546.374 769.09 548.483H768.885V545.364H765.191V565ZM779.007 565H782.83V545.364H779.007V565ZM780.938 542.334C782.254 542.334 783.354 541.311 783.354 540.058C783.354 538.805 782.254 537.77 780.938 537.77C779.608 537.77 778.521 538.805 778.521 540.058C778.521 541.311 779.608 542.334 780.938 542.334ZM802.686 550.158C801.894 547.102 799.503 545.108 795.259 545.108C790.823 545.108 787.678 547.447 787.678 550.925C787.678 553.712 789.365 555.565 793.047 556.384L796.371 557.112C798.263 557.534 799.145 558.378 799.145 559.605C799.145 561.126 797.522 562.315 795.016 562.315C792.728 562.315 791.257 561.331 790.797 559.401L787.103 559.963C787.742 563.44 790.631 565.396 795.042 565.396C799.784 565.396 803.07 562.878 803.07 559.324C803.07 556.55 801.306 554.837 797.701 554.006L794.581 553.29C792.421 552.778 791.488 552.05 791.5 550.72C791.488 549.212 793.124 548.138 795.297 548.138C797.675 548.138 798.775 549.455 799.222 550.771L802.686 550.158ZM815.736 565.396C820.018 565.396 823.048 563.287 823.918 560.091L820.3 559.439C819.609 561.293 817.947 562.239 815.774 562.239C812.501 562.239 810.303 560.116 810.2 556.332H824.161V554.977C824.161 547.882 819.916 545.108 815.467 545.108C809.996 545.108 806.391 549.276 806.391 555.31C806.391 561.408 809.945 565.396 815.736 565.396ZM810.213 553.469C810.366 550.682 812.386 548.266 815.493 548.266C818.459 548.266 820.402 550.464 820.415 553.469H810.213ZM843.643 565.435C846.891 565.435 848.719 563.786 849.447 562.315H849.601V565H853.334V551.96C853.334 546.246 848.834 545.108 845.714 545.108C842.161 545.108 838.888 546.54 837.609 550.119L841.202 550.938C841.764 549.544 843.196 548.202 845.766 548.202C848.233 548.202 849.499 549.493 849.499 551.717V551.807C849.499 553.2 848.067 553.175 844.538 553.584C840.818 554.018 837.009 554.99 837.009 559.452C837.009 563.312 839.911 565.435 843.643 565.435ZM844.474 562.366C842.314 562.366 840.754 561.395 840.754 559.503C840.754 557.457 842.57 556.729 844.781 556.435C846.021 556.268 848.962 555.936 849.511 555.386V557.918C849.511 560.244 847.658 562.366 844.474 562.366ZM858.425 572.364H862.248V561.945H862.478C863.168 563.197 864.574 565.384 868.154 565.384C872.909 565.384 876.361 561.574 876.361 555.22C876.361 548.854 872.858 545.108 868.115 545.108C864.472 545.108 863.155 547.332 862.478 548.547H862.158V545.364H858.425V572.364ZM862.171 555.182C862.171 551.078 863.961 548.355 867.297 548.355C870.762 548.355 872.5 551.283 872.5 555.182C872.5 559.119 870.711 562.124 867.297 562.124C864.012 562.124 862.171 559.311 862.171 555.182ZM880.644 572.364H884.466V561.945H884.696C885.387 563.197 886.793 565.384 890.373 565.384C895.128 565.384 898.58 561.574 898.58 555.22C898.58 548.854 895.077 545.108 890.334 545.108C886.691 545.108 885.374 547.332 884.696 548.547H884.377V545.364H880.644V572.364ZM884.39 555.182C884.39 551.078 886.179 548.355 889.516 548.355C892.98 548.355 894.719 551.283 894.719 555.182C894.719 559.119 892.929 562.124 889.516 562.124C886.23 562.124 884.39 559.311 884.39 555.182ZM917.577 550.158C916.784 547.102 914.394 545.108 910.15 545.108C905.713 545.108 902.569 547.447 902.569 550.925C902.569 553.712 904.256 555.565 907.938 556.384L911.262 557.112C913.154 557.534 914.036 558.378 914.036 559.605C914.036 561.126 912.412 562.315 909.907 562.315C907.618 562.315 906.148 561.331 905.688 559.401L901.993 559.963C902.632 563.44 905.522 565.396 909.932 565.396C914.675 565.396 917.961 562.878 917.961 559.324C917.961 556.55 916.196 554.837 912.591 554.006L909.472 553.29C907.311 552.778 906.378 552.05 906.391 550.72C906.378 549.212 908.015 548.138 910.188 548.138C912.566 548.138 913.665 549.455 914.113 550.771L917.577 550.158Z" fill="#FF6D74"/>
</svg>
