<svg width="980" height="748" viewBox="0 0 980 748" fill="none" xmlns="http://www.w3.org/2000/svg">
<line x1="783.746" y1="264.605" x2="681.876" y2="337.951" stroke="#9CA3AF" stroke-width="3"/>
<line x1="682.611" y1="337.54" x2="598.059" y2="399.68" stroke="#9CA3AF" stroke-width="2"/>
<line x1="682.969" y1="337.045" x2="662.595" y2="399.185" stroke="#9CA3AF" stroke-width="2"/>
<line x1="682.836" y1="336.158" x2="726.64" y2="398.298" stroke="#9CA3AF" stroke-width="2"/>
<line x1="725.841" y1="438.603" x2="725.841" y2="398.874" stroke="#9CA3AF" stroke-width="2"/>
<line x1="725.804" y1="438.603" x2="725.804" y2="478.332" stroke="#9CA3AF" stroke-width="2"/>
<line x1="724.822" y1="519.08" x2="724.822" y2="477.313" stroke="#9CA3AF" stroke-width="2"/>
<line x1="724.822" y1="560.846" x2="724.822" y2="519.079" stroke="#9CA3AF" stroke-width="2"/>
<line x1="726.337" y1="439.461" x2="660.122" y2="479.189" stroke="#9CA3AF" stroke-width="2"/>
<line x1="660.645" y1="519.08" x2="660.645" y2="478.332" stroke="#9CA3AF" stroke-width="2"/>
<line x1="682.517" y1="335.867" x2="790.499" y2="398.007" stroke="#9CA3AF" stroke-width="2"/>
<line x1="783.746" y1="262.171" x2="885.615" y2="335.516" stroke="#9CA3AF" stroke-width="3"/>
<line x1="852.831" y1="398.212" x2="883.392" y2="336.072" stroke="#9CA3AF" stroke-width="3"/>
<line x1="917.036" y1="399.588" x2="883.419" y2="337.448" stroke="#9CA3AF" stroke-width="3"/>
<line x1="918.836" y1="398.874" x2="918.836" y2="438.603" stroke="#9CA3AF" stroke-width="3"/>
<rect x="731.69" y="237.829" width="101.869" height="50.9346" rx="5" fill="#9CA3AF"/>
<rect x="833.732" y="311.379" width="101.869" height="50.9346" rx="5" fill="#9CA3AF"/>
<rect x="630.31" y="311.379" width="101.869" height="50.9346" rx="5" fill="#9CA3AF"/>
<rect x="572" y="386.649" width="50.9346" height="25.4673" rx="5" fill="#9CA3AF"/>
<rect x="636.178" y="386.649" width="50.9346" height="25.4673" rx="5" fill="#9CA3AF"/>
<rect x="764.533" y="386.649" width="50.9346" height="25.4673" rx="5" fill="#9CA3AF"/>
<rect x="828.71" y="386.649" width="50.9346" height="25.4673" rx="5" fill="#9CA3AF"/>
<rect x="892.888" y="386.649" width="50.9346" height="25.4673" rx="5" fill="#9CA3AF"/>
<rect x="892.888" y="426.379" width="50.9346" height="25.4673" rx="5" fill="#9CA3AF"/>
<rect x="700.355" y="386.649" width="50.9346" height="25.4673" rx="5" fill="#9CA3AF"/>
<rect x="700.355" y="426.379" width="50.9346" height="25.4673" rx="5" fill="#9CA3AF"/>
<rect x="636.178" y="466.108" width="50.9346" height="25.4673" rx="5" fill="#9CA3AF"/>
<rect x="636.178" y="505.837" width="50.9346" height="25.4673" rx="5" fill="#9CA3AF"/>
<rect x="700.355" y="505.837" width="50.9346" height="25.4673" rx="5" fill="#9CA3AF"/>
<rect x="700.355" y="545.565" width="50.9346" height="25.4673" rx="5" fill="#9CA3AF"/>
<rect x="700.355" y="466.108" width="50.9346" height="25.4673" rx="5" fill="#9CA3AF"/>
<path d="M775.631 263.304C775.631 264.401 775.426 265.341 775.015 266.123C774.607 266.902 774.05 267.498 773.344 267.913C772.642 268.327 771.844 268.534 770.953 268.534C770.061 268.534 769.263 268.327 768.557 267.913C767.854 267.495 767.297 266.897 766.886 266.118C766.478 265.336 766.275 264.398 766.275 263.304C766.275 262.207 766.478 261.269 766.886 260.49C767.297 259.708 767.854 259.11 768.557 258.695C769.263 258.281 770.061 258.074 770.953 258.074C771.844 258.074 772.642 258.281 773.344 258.695C774.05 259.11 774.607 259.708 775.015 260.49C775.426 261.269 775.631 262.207 775.631 263.304ZM773.777 263.304C773.777 262.532 773.656 261.88 773.414 261.35C773.175 260.816 772.844 260.414 772.419 260.142C771.995 259.867 771.506 259.729 770.953 259.729C770.399 259.729 769.91 259.867 769.486 260.142C769.062 260.414 768.729 260.816 768.487 261.35C768.248 261.88 768.129 262.532 768.129 263.304C768.129 264.076 768.248 264.729 768.487 265.263C768.729 265.793 769.062 266.196 769.486 266.471C769.91 266.743 770.399 266.878 770.953 266.878C771.506 266.878 771.995 266.743 772.419 266.471C772.844 266.196 773.175 265.793 773.414 265.263C773.656 264.729 773.777 264.076 773.777 263.304ZM777.295 268.395V260.758H779.04V262.031H779.12C779.259 261.59 779.498 261.251 779.836 261.012C780.177 260.77 780.567 260.649 781.004 260.649C781.104 260.649 781.215 260.654 781.337 260.664C781.463 260.671 781.568 260.682 781.65 260.699V262.354C781.574 262.328 781.453 262.305 781.288 262.285C781.125 262.261 780.968 262.25 780.815 262.25C780.487 262.25 780.192 262.321 779.93 262.464C779.672 262.603 779.468 262.797 779.319 263.045C779.17 263.294 779.095 263.581 779.095 263.905V268.395H777.295ZM785.853 271.418C785.206 271.418 784.651 271.33 784.187 271.154C783.723 270.982 783.35 270.75 783.069 270.458C782.787 270.166 782.591 269.843 782.482 269.489L784.103 269.096C784.176 269.245 784.282 269.392 784.421 269.538C784.56 269.687 784.747 269.81 784.983 269.906C785.221 270.006 785.521 270.055 785.883 270.055C786.393 270.055 786.816 269.931 787.15 269.682C787.485 269.437 787.652 269.033 787.652 268.469V267.023H787.563C787.47 267.208 787.334 267.399 787.155 267.594C786.98 267.79 786.746 267.954 786.454 268.087C786.166 268.219 785.803 268.285 785.365 268.285C784.779 268.285 784.247 268.148 783.77 267.873C783.296 267.594 782.918 267.18 782.636 266.63C782.358 266.076 782.218 265.384 782.218 264.552C782.218 263.713 782.358 263.006 782.636 262.429C782.918 261.849 783.297 261.41 783.775 261.111C784.252 260.81 784.784 260.659 785.37 260.659C785.818 260.659 786.186 260.735 786.474 260.888C786.766 261.037 786.998 261.217 787.17 261.43C787.343 261.638 787.473 261.836 787.563 262.021H787.662V260.758H789.437V268.519C789.437 269.172 789.281 269.712 788.97 270.14C788.658 270.567 788.232 270.887 787.692 271.099C787.152 271.311 786.539 271.418 785.853 271.418ZM785.868 266.873C786.249 266.873 786.574 266.781 786.842 266.595C787.111 266.409 787.314 266.143 787.454 265.795C787.593 265.447 787.662 265.029 787.662 264.542C787.662 264.061 787.593 263.64 787.454 263.279C787.318 262.918 787.115 262.638 786.847 262.439C786.582 262.237 786.255 262.136 785.868 262.136C785.467 262.136 785.132 262.24 784.863 262.449C784.595 262.658 784.393 262.944 784.257 263.309C784.121 263.67 784.053 264.081 784.053 264.542C784.053 265.009 784.121 265.418 784.257 265.77C784.396 266.118 784.6 266.39 784.868 266.585C785.14 266.777 785.473 266.873 785.868 266.873ZM798.876 258.213V268.395H797.031V260.008H796.972L794.59 261.529V259.839L797.121 258.213H798.876Z" fill="white"/>
<path d="M663.937 339.849H661.968L665.553 329.667H667.83L671.419 339.849H669.45L666.731 331.755H666.651L663.937 339.849ZM664.001 335.857H669.371V337.338H664.001V335.857ZM672.681 342.713V332.213H674.45V333.475H674.555C674.648 333.29 674.779 333.092 674.948 332.884C675.117 332.672 675.345 332.491 675.634 332.342C675.922 332.189 676.29 332.113 676.737 332.113C677.327 332.113 677.859 332.264 678.333 332.565C678.811 332.864 679.188 333.306 679.467 333.893C679.749 334.476 679.889 335.192 679.889 336.041C679.889 336.879 679.752 337.592 679.477 338.178C679.202 338.765 678.827 339.213 678.353 339.521C677.879 339.829 677.342 339.983 676.742 339.983C676.305 339.983 675.942 339.91 675.654 339.764C675.365 339.619 675.133 339.443 674.958 339.237C674.785 339.029 674.651 338.831 674.555 338.646H674.48V342.713H672.681ZM674.445 336.031C674.445 336.525 674.515 336.957 674.654 337.328C674.797 337.699 675.001 337.99 675.266 338.198C675.534 338.404 675.859 338.507 676.24 338.507C676.638 338.507 676.971 338.4 677.24 338.188C677.508 337.973 677.71 337.68 677.846 337.308C677.985 336.934 678.055 336.508 678.055 336.031C678.055 335.557 677.987 335.136 677.851 334.768C677.715 334.4 677.513 334.112 677.244 333.903C676.976 333.694 676.641 333.59 676.24 333.59C675.856 333.59 675.529 333.691 675.261 333.893C674.992 334.095 674.789 334.378 674.649 334.743C674.513 335.108 674.445 335.537 674.445 336.031ZM681.431 342.713V332.213H683.2V333.475H683.305C683.398 333.29 683.529 333.092 683.698 332.884C683.867 332.672 684.095 332.491 684.384 332.342C684.672 332.189 685.04 332.113 685.487 332.113C686.077 332.113 686.609 332.264 687.083 332.565C687.561 332.864 687.938 333.306 688.217 333.893C688.499 334.476 688.639 335.192 688.639 336.041C688.639 336.879 688.502 337.592 688.227 338.178C687.952 338.765 687.577 339.213 687.103 339.521C686.629 339.829 686.092 339.983 685.492 339.983C685.055 339.983 684.692 339.91 684.404 339.764C684.115 339.619 683.883 339.443 683.708 339.237C683.535 339.029 683.401 338.831 683.305 338.646H683.23V342.713H681.431ZM683.195 336.031C683.195 336.525 683.265 336.957 683.404 337.328C683.547 337.699 683.751 337.99 684.016 338.198C684.284 338.404 684.609 338.507 684.99 338.507C685.388 338.507 685.721 338.4 685.99 338.188C686.258 337.973 686.46 337.68 686.596 337.308C686.735 336.934 686.805 336.508 686.805 336.031C686.805 335.557 686.737 335.136 686.601 334.768C686.465 334.4 686.263 334.112 685.994 333.903C685.726 333.694 685.391 333.59 684.99 333.59C684.606 333.59 684.279 333.691 684.011 333.893C683.742 334.095 683.539 334.378 683.399 334.743C683.263 335.108 683.195 335.537 683.195 336.031ZM697.775 329.667V339.849H695.93V331.462H695.871L693.489 332.983V331.293L696.02 329.667H697.775Z" fill="white"/>
<path d="M870.459 341.945V331.763H872.304V340.399H876.788V341.945H870.459ZM878.309 341.945V334.308H880.109V341.945H878.309ZM879.214 333.225C878.929 333.225 878.684 333.13 878.478 332.941C878.273 332.749 878.17 332.519 878.17 332.25C878.17 331.978 878.273 331.748 878.478 331.559C878.684 331.367 878.929 331.271 879.214 331.271C879.503 331.271 879.748 331.367 879.95 331.559C880.155 331.748 880.258 331.978 880.258 332.25C880.258 332.519 880.155 332.749 879.95 332.941C879.748 333.13 879.503 333.225 879.214 333.225ZM882.039 341.945V331.763H883.839V335.571H883.914C884.006 335.386 884.137 335.188 884.306 334.98C884.475 334.768 884.704 334.587 884.992 334.438C885.281 334.285 885.649 334.209 886.096 334.209C886.686 334.209 887.218 334.36 887.692 334.661C888.169 334.96 888.547 335.402 888.826 335.989C889.107 336.572 889.248 337.288 889.248 338.137C889.248 338.975 889.111 339.688 888.835 340.274C888.56 340.861 888.186 341.308 887.712 341.617C887.238 341.925 886.701 342.079 886.101 342.079C885.664 342.079 885.301 342.006 885.012 341.86C884.724 341.714 884.492 341.539 884.316 341.333C884.144 341.125 884.01 340.927 883.914 340.742H883.809V341.945H882.039ZM883.804 338.127C883.804 338.62 883.874 339.053 884.013 339.424C884.156 339.795 884.359 340.085 884.625 340.294C884.893 340.5 885.218 340.602 885.599 340.602C885.997 340.602 886.33 340.496 886.598 340.284C886.867 340.069 887.069 339.776 887.205 339.404C887.344 339.03 887.414 338.604 887.414 338.127C887.414 337.653 887.346 337.232 887.21 336.864C887.074 336.496 886.872 336.208 886.603 335.999C886.335 335.79 886 335.686 885.599 335.686C885.214 335.686 884.888 335.787 884.62 335.989C884.351 336.191 884.147 336.474 884.008 336.839C883.872 337.204 883.804 337.633 883.804 338.127ZM898.372 331.763V341.945H896.528V333.558H896.468L894.087 335.079V333.389L896.617 331.763H898.372Z" fill="white"/>
<rect x="37" y="278" width="163" height="268" rx="5" fill="#9CA3AF"/>
<path d="M63.6 304.12C63.072 304.12 62.616 304.02 62.232 303.82C61.856 303.62 61.564 303.332 61.356 302.956C61.156 302.572 61.056 302.12 61.056 301.6V297.64C61.056 297.112 61.156 296.66 61.356 296.284C61.564 295.908 61.856 295.62 62.232 295.42C62.616 295.22 63.072 295.12 63.6 295.12C64.128 295.12 64.58 295.22 64.956 295.42C65.34 295.62 65.632 295.908 65.832 296.284C66.04 296.66 66.144 297.108 66.144 297.628V301.6C66.144 302.12 66.04 302.572 65.832 302.956C65.632 303.332 65.34 303.62 64.956 303.82C64.58 304.02 64.128 304.12 63.6 304.12ZM63.6 303.148C64.072 303.148 64.432 303.016 64.68 302.752C64.936 302.48 65.064 302.096 65.064 301.6V297.64C65.064 297.144 64.936 296.764 64.68 296.5C64.432 296.228 64.072 296.092 63.6 296.092C63.136 296.092 62.776 296.228 62.52 296.5C62.264 296.764 62.136 297.144 62.136 297.64V301.6C62.136 302.096 62.264 302.48 62.52 302.752C62.776 303.016 63.136 303.148 63.6 303.148ZM68.5273 304V297.4H69.5833V298.66H69.8353L69.4873 299.44C69.4873 298.728 69.6393 298.192 69.9433 297.832C70.2553 297.464 70.7153 297.28 71.3233 297.28C72.0193 297.28 72.5713 297.5 72.9793 297.94C73.3953 298.372 73.6033 298.96 73.6033 299.704V300.1H72.5233V299.8C72.5233 299.28 72.3953 298.884 72.1393 298.612C71.8913 298.332 71.5353 298.192 71.0713 298.192C70.6153 298.192 70.2553 298.332 69.9913 298.612C69.7353 298.892 69.6073 299.288 69.6073 299.8V304H68.5273ZM76.3226 306.16V305.176H78.4226C78.7586 305.176 79.0026 305.1 79.1546 304.948C79.3146 304.796 79.3946 304.56 79.3946 304.24V303.4L79.4186 302.2H79.2026L79.4066 302.02C79.4066 302.5 79.2466 302.88 78.9266 303.16C78.6066 303.44 78.1786 303.58 77.6426 303.58C76.9626 303.58 76.4266 303.36 76.0346 302.92C75.6426 302.472 75.4466 301.872 75.4466 301.12V299.728C75.4466 298.976 75.6426 298.38 76.0346 297.94C76.4266 297.5 76.9626 297.28 77.6426 297.28C78.1786 297.28 78.6066 297.42 78.9266 297.7C79.2466 297.98 79.4066 298.36 79.4066 298.84L79.2026 298.66H79.4066V297.4H80.4746V304.24C80.4746 304.832 80.2906 305.3 79.9226 305.644C79.5626 305.988 79.0586 306.16 78.4106 306.16H76.3226ZM77.9666 302.644C78.4146 302.644 78.7666 302.504 79.0226 302.224C79.2786 301.944 79.4066 301.556 79.4066 301.06V299.8C79.4066 299.304 79.2786 298.916 79.0226 298.636C78.7666 298.356 78.4146 298.216 77.9666 298.216C77.5106 298.216 77.1546 298.352 76.8986 298.624C76.6506 298.896 76.5266 299.288 76.5266 299.8V301.06C76.5266 301.572 76.6506 301.964 76.8986 302.236C77.1546 302.508 77.5106 302.644 77.9666 302.644ZM82.6659 304V303.016H85.0419V296.14L82.6659 297.916V296.716L84.6459 295.24H86.1219V303.016H88.0659V304H82.6659ZM89.6813 305.32L93.9413 294.04H95.0813L90.8213 305.32H89.6813ZM63 323.6V307.76H64.2V314.96H67.44V316.16H64.2V323.6H63ZM66.9553 316.16V314.96H74.6353V316.16H66.9553ZM74.1506 316.16V314.96H81.8306V316.16H74.1506ZM91.8053 320.12C91.1093 320.12 90.5613 319.944 90.1613 319.592C89.7613 319.232 89.5613 318.748 89.5613 318.14C89.5613 317.524 89.7613 317.04 90.1613 316.688C90.5613 316.336 91.1013 316.16 91.7812 316.16H93.8213V315.5C93.8213 315.092 93.6973 314.78 93.4493 314.564C93.2093 314.34 92.8653 314.228 92.4173 314.228C92.0253 314.228 91.6973 314.312 91.4333 314.48C91.1693 314.64 91.0173 314.86 90.9773 315.14H89.8973C89.9693 314.572 90.2373 314.12 90.7013 313.784C91.1653 313.448 91.7453 313.28 92.4413 313.28C93.2013 313.28 93.8013 313.476 94.2413 313.868C94.6813 314.26 94.9013 314.792 94.9013 315.464V320H93.8453V318.74H93.6653L93.8453 318.56C93.8453 319.04 93.6573 319.42 93.2813 319.7C92.9133 319.98 92.4213 320.12 91.8053 320.12ZM92.0693 319.268C92.5813 319.268 93.0013 319.14 93.3293 318.884C93.6573 318.628 93.8213 318.3 93.8213 317.9V316.964H91.8053C91.4453 316.964 91.1613 317.064 90.9533 317.264C90.7453 317.464 90.6413 317.736 90.6413 318.08C90.6413 318.448 90.7653 318.74 91.0133 318.956C91.2693 319.164 91.6213 319.268 92.0693 319.268ZM97.0806 322.16V313.4H98.1606V314.66H98.3766L98.1606 314.912C98.1606 314.408 98.3246 314.012 98.6526 313.724C98.9886 313.428 99.4286 313.28 99.9726 313.28C100.637 313.28 101.165 313.5 101.557 313.94C101.957 314.372 102.157 314.968 102.157 315.728V317.66C102.157 318.164 102.065 318.6 101.881 318.968C101.705 319.336 101.453 319.62 101.125 319.82C100.805 320.02 100.421 320.12 99.9726 320.12C99.4366 320.12 99.0006 319.972 98.6646 319.676C98.3286 319.38 98.1606 318.984 98.1606 318.488L98.3766 318.74H98.1366L98.1606 320.24V322.16H97.0806ZM99.6126 319.184C100.069 319.184 100.425 319.048 100.681 318.776C100.945 318.504 101.077 318.112 101.077 317.6V315.8C101.077 315.288 100.945 314.896 100.681 314.624C100.425 314.352 100.069 314.216 99.6126 314.216C99.1726 314.216 98.8206 314.356 98.5566 314.636C98.2926 314.916 98.1606 315.304 98.1606 315.8V317.6C98.1606 318.096 98.2926 318.484 98.5566 318.764C98.8206 319.044 99.1726 319.184 99.6126 319.184ZM104.276 322.16V313.4H105.356V314.66H105.572L105.356 314.912C105.356 314.408 105.52 314.012 105.848 313.724C106.184 313.428 106.624 313.28 107.168 313.28C107.832 313.28 108.36 313.5 108.752 313.94C109.152 314.372 109.352 314.968 109.352 315.728V317.66C109.352 318.164 109.26 318.6 109.076 318.968C108.9 319.336 108.648 319.62 108.32 319.82C108 320.02 107.616 320.12 107.168 320.12C106.632 320.12 106.196 319.972 105.86 319.676C105.524 319.38 105.356 318.984 105.356 318.488L105.572 318.74H105.332L105.356 320.24V322.16H104.276ZM106.808 319.184C107.264 319.184 107.62 319.048 107.876 318.776C108.14 318.504 108.272 318.112 108.272 317.6V315.8C108.272 315.288 108.14 314.896 107.876 314.624C107.62 314.352 107.264 314.216 106.808 314.216C106.368 314.216 106.016 314.356 105.752 314.636C105.488 314.916 105.356 315.304 105.356 315.8V317.6C105.356 318.096 105.488 318.484 105.752 318.764C106.016 319.044 106.368 319.184 106.808 319.184ZM113.763 320.096C113.315 320.096 112.923 320.028 112.587 319.892C112.259 319.748 111.995 319.548 111.795 319.292C111.603 319.036 111.487 318.732 111.447 318.38H112.527C112.575 318.612 112.703 318.796 112.911 318.932C113.127 319.068 113.411 319.136 113.763 319.136H114.267C114.691 319.136 115.007 319.052 115.215 318.884C115.423 318.708 115.527 318.476 115.527 318.188C115.527 317.908 115.431 317.688 115.239 317.528C115.055 317.36 114.779 317.248 114.411 317.192L113.523 317.048C112.875 316.936 112.391 316.736 112.071 316.448C111.759 316.152 111.603 315.724 111.603 315.164C111.603 314.572 111.791 314.116 112.167 313.796C112.543 313.468 113.107 313.304 113.859 313.304H114.315C114.947 313.304 115.455 313.452 115.839 313.748C116.223 314.044 116.455 314.444 116.535 314.948H115.455C115.407 314.74 115.287 314.576 115.095 314.456C114.903 314.328 114.643 314.264 114.315 314.264H113.859C113.451 314.264 113.151 314.34 112.959 314.492C112.775 314.644 112.683 314.872 112.683 315.176C112.683 315.448 112.763 315.648 112.923 315.776C113.083 315.904 113.335 315.996 113.679 316.052L114.567 316.196C115.279 316.308 115.795 316.516 116.115 316.82C116.443 317.124 116.607 317.564 116.607 318.14C116.607 318.748 116.411 319.228 116.019 319.58C115.635 319.924 115.051 320.096 114.267 320.096H113.763ZM118.463 321.32L122.723 310.04H123.863L119.603 321.32H118.463ZM63 339.6V323.76H64.2V339.6H63ZM91.7812 339.6V323.76H92.9813V330.96H96.2213V332.16H92.9813V339.6H91.7812ZM95.7366 332.16V330.96H103.417V332.16H95.7366ZM102.932 332.16V330.96H110.612V332.16H102.932ZM120.587 336.12C119.891 336.12 119.343 335.944 118.943 335.592C118.543 335.232 118.343 334.748 118.343 334.14C118.343 333.524 118.543 333.04 118.943 332.688C119.343 332.336 119.883 332.16 120.562 332.16H122.603V331.5C122.603 331.092 122.479 330.78 122.231 330.564C121.991 330.34 121.647 330.228 121.199 330.228C120.807 330.228 120.479 330.312 120.215 330.48C119.951 330.64 119.799 330.86 119.759 331.14H118.679C118.751 330.572 119.019 330.12 119.483 329.784C119.947 329.448 120.527 329.28 121.223 329.28C121.983 329.28 122.583 329.476 123.023 329.868C123.463 330.26 123.683 330.792 123.683 331.464V336H122.627V334.74H122.447L122.627 334.56C122.627 335.04 122.439 335.42 122.063 335.7C121.695 335.98 121.203 336.12 120.587 336.12ZM120.851 335.268C121.363 335.268 121.783 335.14 122.111 334.884C122.439 334.628 122.603 334.3 122.603 333.9V332.964H120.587C120.227 332.964 119.943 333.064 119.735 333.264C119.527 333.464 119.423 333.736 119.423 334.08C119.423 334.448 119.547 334.74 119.795 334.956C120.051 335.164 120.403 335.268 120.851 335.268ZM125.862 338.16V329.4H126.942V330.66H127.158L126.942 330.912C126.942 330.408 127.106 330.012 127.434 329.724C127.77 329.428 128.21 329.28 128.754 329.28C129.418 329.28 129.946 329.5 130.338 329.94C130.738 330.372 130.938 330.968 130.938 331.728V333.66C130.938 334.164 130.846 334.6 130.662 334.968C130.486 335.336 130.234 335.62 129.906 335.82C129.586 336.02 129.202 336.12 128.754 336.12C128.218 336.12 127.782 335.972 127.446 335.676C127.11 335.38 126.942 334.984 126.942 334.488L127.158 334.74H126.918L126.942 336.24V338.16H125.862ZM128.394 335.184C128.85 335.184 129.206 335.048 129.462 334.776C129.726 334.504 129.858 334.112 129.858 333.6V331.8C129.858 331.288 129.726 330.896 129.462 330.624C129.206 330.352 128.85 330.216 128.394 330.216C127.954 330.216 127.602 330.356 127.338 330.636C127.074 330.916 126.942 331.304 126.942 331.8V333.6C126.942 334.096 127.074 334.484 127.338 334.764C127.602 335.044 127.954 335.184 128.394 335.184ZM133.057 338.16V329.4H134.137V330.66H134.353L134.137 330.912C134.137 330.408 134.301 330.012 134.629 329.724C134.965 329.428 135.405 329.28 135.949 329.28C136.613 329.28 137.141 329.5 137.533 329.94C137.933 330.372 138.133 330.968 138.133 331.728V333.66C138.133 334.164 138.041 334.6 137.857 334.968C137.681 335.336 137.429 335.62 137.101 335.82C136.781 336.02 136.397 336.12 135.949 336.12C135.413 336.12 134.977 335.972 134.641 335.676C134.305 335.38 134.137 334.984 134.137 334.488L134.353 334.74H134.113L134.137 336.24V338.16H133.057ZM135.589 335.184C136.045 335.184 136.401 335.048 136.657 334.776C136.921 334.504 137.053 334.112 137.053 333.6V331.8C137.053 331.288 136.921 330.896 136.657 330.624C136.401 330.352 136.045 330.216 135.589 330.216C135.149 330.216 134.797 330.356 134.533 330.636C134.269 330.916 134.137 331.304 134.137 331.8V333.6C134.137 334.096 134.269 334.484 134.533 334.764C134.797 335.044 135.149 335.184 135.589 335.184ZM140.228 336V335.016H142.604V328.14L140.228 329.916V328.716L142.208 327.24H143.684V335.016H145.628V336H140.228ZM147.244 337.32L151.504 326.04H152.644L148.384 337.32H147.244ZM63 355.6V339.76H64.2V355.6H63ZM91.7812 355.6V339.76H92.9813V355.6H91.7812ZM63 371.6V355.76H64.2V371.6H63ZM91.7812 364.16V355.76H92.9813V362.96H96.2213V364.16H91.7812ZM95.7366 364.16V362.96H103.417V364.16H95.7366ZM102.932 364.16V362.96H110.612V364.16H102.932ZM120.587 368.12C119.891 368.12 119.343 367.944 118.943 367.592C118.543 367.232 118.343 366.748 118.343 366.14C118.343 365.524 118.543 365.04 118.943 364.688C119.343 364.336 119.883 364.16 120.562 364.16H122.603V363.5C122.603 363.092 122.479 362.78 122.231 362.564C121.991 362.34 121.647 362.228 121.199 362.228C120.807 362.228 120.479 362.312 120.215 362.48C119.951 362.64 119.799 362.86 119.759 363.14H118.679C118.751 362.572 119.019 362.12 119.483 361.784C119.947 361.448 120.527 361.28 121.223 361.28C121.983 361.28 122.583 361.476 123.023 361.868C123.463 362.26 123.683 362.792 123.683 363.464V368H122.627V366.74H122.447L122.627 366.56C122.627 367.04 122.439 367.42 122.063 367.7C121.695 367.98 121.203 368.12 120.587 368.12ZM120.851 367.268C121.363 367.268 121.783 367.14 122.111 366.884C122.439 366.628 122.603 366.3 122.603 365.9V364.964H120.587C120.227 364.964 119.943 365.064 119.735 365.264C119.527 365.464 119.423 365.736 119.423 366.08C119.423 366.448 119.547 366.74 119.795 366.956C120.051 367.164 120.403 367.268 120.851 367.268ZM125.862 370.16V361.4H126.942V362.66H127.158L126.942 362.912C126.942 362.408 127.106 362.012 127.434 361.724C127.77 361.428 128.21 361.28 128.754 361.28C129.418 361.28 129.946 361.5 130.338 361.94C130.738 362.372 130.938 362.968 130.938 363.728V365.66C130.938 366.164 130.846 366.6 130.662 366.968C130.486 367.336 130.234 367.62 129.906 367.82C129.586 368.02 129.202 368.12 128.754 368.12C128.218 368.12 127.782 367.972 127.446 367.676C127.11 367.38 126.942 366.984 126.942 366.488L127.158 366.74H126.918L126.942 368.24V370.16H125.862ZM128.394 367.184C128.85 367.184 129.206 367.048 129.462 366.776C129.726 366.504 129.858 366.112 129.858 365.6V363.8C129.858 363.288 129.726 362.896 129.462 362.624C129.206 362.352 128.85 362.216 128.394 362.216C127.954 362.216 127.602 362.356 127.338 362.636C127.074 362.916 126.942 363.304 126.942 363.8V365.6C126.942 366.096 127.074 366.484 127.338 366.764C127.602 367.044 127.954 367.184 128.394 367.184ZM133.057 370.16V361.4H134.137V362.66H134.353L134.137 362.912C134.137 362.408 134.301 362.012 134.629 361.724C134.965 361.428 135.405 361.28 135.949 361.28C136.613 361.28 137.141 361.5 137.533 361.94C137.933 362.372 138.133 362.968 138.133 363.728V365.66C138.133 366.164 138.041 366.6 137.857 366.968C137.681 367.336 137.429 367.62 137.101 367.82C136.781 368.02 136.397 368.12 135.949 368.12C135.413 368.12 134.977 367.972 134.641 367.676C134.305 367.38 134.137 366.984 134.137 366.488L134.353 366.74H134.113L134.137 368.24V370.16H133.057ZM135.589 367.184C136.045 367.184 136.401 367.048 136.657 366.776C136.921 366.504 137.053 366.112 137.053 365.6V363.8C137.053 363.288 136.921 362.896 136.657 362.624C136.401 362.352 136.045 362.216 135.589 362.216C135.149 362.216 134.797 362.356 134.533 362.636C134.269 362.916 134.137 363.304 134.137 363.8V365.6C134.137 366.096 134.269 366.484 134.533 366.764C134.797 367.044 135.149 367.184 135.589 367.184ZM140.252 368V366.896L142.928 364.052C143.384 363.564 143.716 363.132 143.924 362.756C144.132 362.372 144.236 362.004 144.236 361.652C144.236 361.164 144.1 360.78 143.828 360.5C143.564 360.22 143.2 360.08 142.736 360.08C142.224 360.08 141.82 360.224 141.524 360.512C141.236 360.8 141.092 361.196 141.092 361.7H140.012C140.028 361.172 140.148 360.716 140.372 360.332C140.604 359.94 140.92 359.64 141.32 359.432C141.728 359.224 142.2 359.12 142.736 359.12C143.264 359.12 143.72 359.224 144.104 359.432C144.496 359.632 144.796 359.92 145.004 360.296C145.212 360.672 145.316 361.12 145.316 361.64C145.316 362.136 145.184 362.628 144.92 363.116C144.656 363.604 144.224 364.16 143.624 364.784L141.464 367.016H145.46V368H140.252ZM147.244 369.32L151.504 358.04H152.644L148.384 369.32H147.244ZM63 387.6V371.76H64.2V378.96H67.44V380.16H64.2V387.6H63ZM66.9553 380.16V378.96H74.6353V380.16H66.9553ZM74.1506 380.16V378.96H81.8306V380.16H74.1506ZM93.2813 384C92.8973 384 92.5613 383.924 92.2733 383.772C91.9853 383.62 91.7613 383.404 91.6013 383.124C91.4413 382.844 91.3613 382.516 91.3613 382.14V376.224H89.1413V375.24H92.4413V382.14C92.4413 382.412 92.5173 382.628 92.6693 382.788C92.8213 382.94 93.0253 383.016 93.2813 383.016H95.3813V384H93.2813ZM96.9966 384V383.016H99.3366V378.384H97.2966V377.4H100.417V383.016H102.637V384H96.9966ZM99.7566 376.212C99.4926 376.212 99.2846 376.144 99.1326 376.008C98.9806 375.872 98.9046 375.688 98.9046 375.456C98.9046 375.216 98.9806 375.028 99.1326 374.892C99.2846 374.748 99.4926 374.676 99.7566 374.676C100.021 374.676 100.229 374.748 100.381 374.892C100.533 375.028 100.609 375.216 100.609 375.456C100.609 375.688 100.533 375.872 100.381 376.008C100.229 376.144 100.021 376.212 99.7566 376.212ZM107.156 384.12C106.612 384.12 106.176 383.976 105.848 383.688C105.52 383.392 105.356 382.992 105.356 382.488L105.572 382.74H105.356V384H104.276V375.24H105.356V377.16L105.332 378.66H105.572L105.356 378.912C105.356 378.416 105.52 378.02 105.848 377.724C106.184 377.428 106.62 377.28 107.156 377.28C107.82 377.28 108.352 377.5 108.752 377.94C109.152 378.38 109.352 378.98 109.352 379.74V381.672C109.352 382.424 109.152 383.02 108.752 383.46C108.352 383.9 107.82 384.12 107.156 384.12ZM106.796 383.184C107.252 383.184 107.612 383.048 107.876 382.776C108.14 382.504 108.272 382.112 108.272 381.6V379.8C108.272 379.288 108.14 378.896 107.876 378.624C107.612 378.352 107.252 378.216 106.796 378.216C106.356 378.216 106.004 378.356 105.74 378.636C105.484 378.916 105.356 379.304 105.356 379.8V381.6C105.356 382.096 105.484 382.484 105.74 382.764C106.004 383.044 106.356 383.184 106.796 383.184ZM113.763 384.096C113.315 384.096 112.923 384.028 112.587 383.892C112.259 383.748 111.995 383.548 111.795 383.292C111.603 383.036 111.487 382.732 111.447 382.38H112.527C112.575 382.612 112.703 382.796 112.911 382.932C113.127 383.068 113.411 383.136 113.763 383.136H114.267C114.691 383.136 115.007 383.052 115.215 382.884C115.423 382.708 115.527 382.476 115.527 382.188C115.527 381.908 115.431 381.688 115.239 381.528C115.055 381.36 114.779 381.248 114.411 381.192L113.523 381.048C112.875 380.936 112.391 380.736 112.071 380.448C111.759 380.152 111.603 379.724 111.603 379.164C111.603 378.572 111.791 378.116 112.167 377.796C112.543 377.468 113.107 377.304 113.859 377.304H114.315C114.947 377.304 115.455 377.452 115.839 377.748C116.223 378.044 116.455 378.444 116.535 378.948H115.455C115.407 378.74 115.287 378.576 115.095 378.456C114.903 378.328 114.643 378.264 114.315 378.264H113.859C113.451 378.264 113.151 378.34 112.959 378.492C112.775 378.644 112.683 378.872 112.683 379.176C112.683 379.448 112.763 379.648 112.923 379.776C113.083 379.904 113.335 379.996 113.679 380.052L114.567 380.196C115.279 380.308 115.795 380.516 116.115 380.82C116.443 381.124 116.607 381.564 116.607 382.14C116.607 382.748 116.411 383.228 116.019 383.58C115.635 383.924 115.051 384.096 114.267 384.096H113.763ZM118.463 385.32L122.723 374.04H123.863L119.603 385.32H118.463ZM63 403.6V387.76H64.2V403.6H63ZM91.7812 403.6V387.76H92.9813V394.96H96.2213V396.16H92.9813V403.6H91.7812ZM95.7366 396.16V394.96H103.417V396.16H95.7366ZM102.932 396.16V394.96H110.612V396.16H102.932ZM122.063 400C121.679 400 121.343 399.924 121.055 399.772C120.767 399.62 120.543 399.404 120.383 399.124C120.223 398.844 120.143 398.516 120.143 398.14V392.224H117.923V391.24H121.223V398.14C121.223 398.412 121.299 398.628 121.451 398.788C121.603 398.94 121.807 399.016 122.063 399.016H124.163V400H122.063ZM125.778 400V399.016H128.118V394.384H126.078V393.4H129.198V399.016H131.418V400H125.778ZM128.538 392.212C128.274 392.212 128.066 392.144 127.914 392.008C127.762 391.872 127.686 391.688 127.686 391.456C127.686 391.216 127.762 391.028 127.914 390.892C128.066 390.748 128.274 390.676 128.538 390.676C128.802 390.676 129.01 390.748 129.162 390.892C129.314 391.028 129.39 391.216 129.39 391.456C129.39 391.688 129.314 391.872 129.162 392.008C129.01 392.144 128.802 392.212 128.538 392.212ZM135.937 400.12C135.393 400.12 134.957 399.976 134.629 399.688C134.301 399.392 134.137 398.992 134.137 398.488L134.353 398.74H134.137V400H133.057V391.24H134.137V393.16L134.113 394.66H134.353L134.137 394.912C134.137 394.416 134.301 394.02 134.629 393.724C134.965 393.428 135.401 393.28 135.937 393.28C136.601 393.28 137.133 393.5 137.533 393.94C137.933 394.38 138.133 394.98 138.133 395.74V397.672C138.133 398.424 137.933 399.02 137.533 399.46C137.133 399.9 136.601 400.12 135.937 400.12ZM135.577 399.184C136.033 399.184 136.393 399.048 136.657 398.776C136.921 398.504 137.053 398.112 137.053 397.6V395.8C137.053 395.288 136.921 394.896 136.657 394.624C136.393 394.352 136.033 394.216 135.577 394.216C135.137 394.216 134.785 394.356 134.521 394.636C134.265 394.916 134.137 395.304 134.137 395.8V397.6C134.137 398.096 134.265 398.484 134.521 398.764C134.785 399.044 135.137 399.184 135.577 399.184ZM140.228 400V399.016H142.604V392.14L140.228 393.916V392.716L142.208 391.24H143.684V399.016H145.628V400H140.228ZM147.244 401.32L151.504 390.04H152.644L148.384 401.32H147.244ZM63 419.6V403.76H64.2V419.6H63ZM91.7812 419.6V403.76H92.9813V410.96H96.2213V412.16H92.9813V419.6H91.7812ZM95.7366 412.16V410.96H103.417V412.16H95.7366ZM102.932 412.16V410.96H110.612V412.16H102.932ZM122.063 416C121.679 416 121.343 415.924 121.055 415.772C120.767 415.62 120.543 415.404 120.383 415.124C120.223 414.844 120.143 414.516 120.143 414.14V408.224H117.923V407.24H121.223V414.14C121.223 414.412 121.299 414.628 121.451 414.788C121.603 414.94 121.807 415.016 122.063 415.016H124.163V416H122.063ZM125.778 416V415.016H128.118V410.384H126.078V409.4H129.198V415.016H131.418V416H125.778ZM128.538 408.212C128.274 408.212 128.066 408.144 127.914 408.008C127.762 407.872 127.686 407.688 127.686 407.456C127.686 407.216 127.762 407.028 127.914 406.892C128.066 406.748 128.274 406.676 128.538 406.676C128.802 406.676 129.01 406.748 129.162 406.892C129.314 407.028 129.39 407.216 129.39 407.456C129.39 407.688 129.314 407.872 129.162 408.008C129.01 408.144 128.802 408.212 128.538 408.212ZM135.937 416.12C135.393 416.12 134.957 415.976 134.629 415.688C134.301 415.392 134.137 414.992 134.137 414.488L134.353 414.74H134.137V416H133.057V407.24H134.137V409.16L134.113 410.66H134.353L134.137 410.912C134.137 410.416 134.301 410.02 134.629 409.724C134.965 409.428 135.401 409.28 135.937 409.28C136.601 409.28 137.133 409.5 137.533 409.94C137.933 410.38 138.133 410.98 138.133 411.74V413.672C138.133 414.424 137.933 415.02 137.533 415.46C137.133 415.9 136.601 416.12 135.937 416.12ZM135.577 415.184C136.033 415.184 136.393 415.048 136.657 414.776C136.921 414.504 137.053 414.112 137.053 413.6V411.8C137.053 411.288 136.921 410.896 136.657 410.624C136.393 410.352 136.033 410.216 135.577 410.216C135.137 410.216 134.785 410.356 134.521 410.636C134.265 410.916 134.137 411.304 134.137 411.8V413.6C134.137 414.096 134.265 414.484 134.521 414.764C134.785 415.044 135.137 415.184 135.577 415.184ZM140.252 416V414.896L142.928 412.052C143.384 411.564 143.716 411.132 143.924 410.756C144.132 410.372 144.236 410.004 144.236 409.652C144.236 409.164 144.1 408.78 143.828 408.5C143.564 408.22 143.2 408.08 142.736 408.08C142.224 408.08 141.82 408.224 141.524 408.512C141.236 408.8 141.092 409.196 141.092 409.7H140.012C140.028 409.172 140.148 408.716 140.372 408.332C140.604 407.94 140.92 407.64 141.32 407.432C141.728 407.224 142.2 407.12 142.736 407.12C143.264 407.12 143.72 407.224 144.104 407.432C144.496 407.632 144.796 407.92 145.004 408.296C145.212 408.672 145.316 409.12 145.316 409.64C145.316 410.136 145.184 410.628 144.92 411.116C144.656 411.604 144.224 412.16 143.624 412.784L141.464 415.016H145.46V416H140.252ZM147.244 417.32L151.504 406.04H152.644L148.384 417.32H147.244ZM63 435.6V419.76H64.2V435.6H63ZM91.7812 435.6V419.76H92.9813V426.96H96.2213V428.16H92.9813V435.6H91.7812ZM95.7366 428.16V426.96H103.417V428.16H95.7366ZM102.932 428.16V426.96H110.612V428.16H102.932ZM122.063 432C121.679 432 121.343 431.924 121.055 431.772C120.767 431.62 120.543 431.404 120.383 431.124C120.223 430.844 120.143 430.516 120.143 430.14V424.224H117.923V423.24H121.223V430.14C121.223 430.412 121.299 430.628 121.451 430.788C121.603 430.94 121.807 431.016 122.063 431.016H124.163V432H122.063ZM125.778 432V431.016H128.118V426.384H126.078V425.4H129.198V431.016H131.418V432H125.778ZM128.538 424.212C128.274 424.212 128.066 424.144 127.914 424.008C127.762 423.872 127.686 423.688 127.686 423.456C127.686 423.216 127.762 423.028 127.914 422.892C128.066 422.748 128.274 422.676 128.538 422.676C128.802 422.676 129.01 422.748 129.162 422.892C129.314 423.028 129.39 423.216 129.39 423.456C129.39 423.688 129.314 423.872 129.162 424.008C129.01 424.144 128.802 424.212 128.538 424.212ZM135.937 432.12C135.393 432.12 134.957 431.976 134.629 431.688C134.301 431.392 134.137 430.992 134.137 430.488L134.353 430.74H134.137V432H133.057V423.24H134.137V425.16L134.113 426.66H134.353L134.137 426.912C134.137 426.416 134.301 426.02 134.629 425.724C134.965 425.428 135.401 425.28 135.937 425.28C136.601 425.28 137.133 425.5 137.533 425.94C137.933 426.38 138.133 426.98 138.133 427.74V429.672C138.133 430.424 137.933 431.02 137.533 431.46C137.133 431.9 136.601 432.12 135.937 432.12ZM135.577 431.184C136.033 431.184 136.393 431.048 136.657 430.776C136.921 430.504 137.053 430.112 137.053 429.6V427.8C137.053 427.288 136.921 426.896 136.657 426.624C136.393 426.352 136.033 426.216 135.577 426.216C135.137 426.216 134.785 426.356 134.521 426.636C134.265 426.916 134.137 427.304 134.137 427.8V429.6C134.137 430.096 134.265 430.484 134.521 430.764C134.785 431.044 135.137 431.184 135.577 431.184ZM142.616 432.12C142.088 432.12 141.624 432.016 141.224 431.808C140.832 431.592 140.528 431.296 140.312 430.92C140.096 430.544 139.988 430.104 139.988 429.6H141.068C141.068 430.088 141.204 430.472 141.476 430.752C141.756 431.024 142.14 431.16 142.628 431.16C143.124 431.16 143.508 431.016 143.78 430.728C144.052 430.44 144.188 430.064 144.188 429.6V428.976C144.188 428.48 144.052 428.096 143.78 427.824C143.508 427.552 143.124 427.416 142.628 427.416H141.728V426.336L143.9 424.224H140.348V423.24H144.992V424.32L142.652 426.588V426.456C143.452 426.456 144.088 426.684 144.56 427.14C145.032 427.596 145.268 428.208 145.268 428.976V429.6C145.268 430.104 145.156 430.544 144.932 430.92C144.716 431.296 144.408 431.592 144.008 431.808C143.608 432.016 143.144 432.12 142.616 432.12ZM147.244 433.32L151.504 422.04H152.644L148.384 433.32H147.244ZM63 451.6V435.76H64.2V451.6H63ZM91.7812 451.6V435.76H92.9813V442.96H96.2213V444.16H92.9813V451.6H91.7812ZM95.7366 444.16V442.96H103.417V444.16H95.7366ZM102.932 444.16V442.96H110.612V444.16H102.932ZM122.063 448C121.679 448 121.343 447.924 121.055 447.772C120.767 447.62 120.543 447.404 120.383 447.124C120.223 446.844 120.143 446.516 120.143 446.14V440.224H117.923V439.24H121.223V446.14C121.223 446.412 121.299 446.628 121.451 446.788C121.603 446.94 121.807 447.016 122.063 447.016H124.163V448H122.063ZM125.778 448V447.016H128.118V442.384H126.078V441.4H129.198V447.016H131.418V448H125.778ZM128.538 440.212C128.274 440.212 128.066 440.144 127.914 440.008C127.762 439.872 127.686 439.688 127.686 439.456C127.686 439.216 127.762 439.028 127.914 438.892C128.066 438.748 128.274 438.676 128.538 438.676C128.802 438.676 129.01 438.748 129.162 438.892C129.314 439.028 129.39 439.216 129.39 439.456C129.39 439.688 129.314 439.872 129.162 440.008C129.01 440.144 128.802 440.212 128.538 440.212ZM135.937 448.12C135.393 448.12 134.957 447.976 134.629 447.688C134.301 447.392 134.137 446.992 134.137 446.488L134.353 446.74H134.137V448H133.057V439.24H134.137V441.16L134.113 442.66H134.353L134.137 442.912C134.137 442.416 134.301 442.02 134.629 441.724C134.965 441.428 135.401 441.28 135.937 441.28C136.601 441.28 137.133 441.5 137.533 441.94C137.933 442.38 138.133 442.98 138.133 443.74V445.672C138.133 446.424 137.933 447.02 137.533 447.46C137.133 447.9 136.601 448.12 135.937 448.12ZM135.577 447.184C136.033 447.184 136.393 447.048 136.657 446.776C136.921 446.504 137.053 446.112 137.053 445.6V443.8C137.053 443.288 136.921 442.896 136.657 442.624C136.393 442.352 136.033 442.216 135.577 442.216C135.137 442.216 134.785 442.356 134.521 442.636C134.265 442.916 134.137 443.304 134.137 443.8V445.6C134.137 446.096 134.265 446.484 134.521 446.764C134.785 447.044 135.137 447.184 135.577 447.184ZM144.068 448V446.08H140.108V444.388L143.576 439.24H144.752L141.188 444.616V445.096H144.068V442.96H145.148V448H144.068ZM147.244 449.32L151.504 438.04H152.644L148.384 449.32H147.244ZM63 467.6V451.76H64.2V467.6H63ZM91.7812 467.6V451.76H92.9813V458.96H96.2213V460.16H92.9813V467.6H91.7812ZM95.7366 460.16V458.96H103.417V460.16H95.7366ZM102.932 460.16V458.96H110.612V460.16H102.932ZM122.063 464C121.679 464 121.343 463.924 121.055 463.772C120.767 463.62 120.543 463.404 120.383 463.124C120.223 462.844 120.143 462.516 120.143 462.14V456.224H117.923V455.24H121.223V462.14C121.223 462.412 121.299 462.628 121.451 462.788C121.603 462.94 121.807 463.016 122.063 463.016H124.163V464H122.063ZM125.778 464V463.016H128.118V458.384H126.078V457.4H129.198V463.016H131.418V464H125.778ZM128.538 456.212C128.274 456.212 128.066 456.144 127.914 456.008C127.762 455.872 127.686 455.688 127.686 455.456C127.686 455.216 127.762 455.028 127.914 454.892C128.066 454.748 128.274 454.676 128.538 454.676C128.802 454.676 129.01 454.748 129.162 454.892C129.314 455.028 129.39 455.216 129.39 455.456C129.39 455.688 129.314 455.872 129.162 456.008C129.01 456.144 128.802 456.212 128.538 456.212ZM135.937 464.12C135.393 464.12 134.957 463.976 134.629 463.688C134.301 463.392 134.137 462.992 134.137 462.488L134.353 462.74H134.137V464H133.057V455.24H134.137V457.16L134.113 458.66H134.353L134.137 458.912C134.137 458.416 134.301 458.02 134.629 457.724C134.965 457.428 135.401 457.28 135.937 457.28C136.601 457.28 137.133 457.5 137.533 457.94C137.933 458.38 138.133 458.98 138.133 459.74V461.672C138.133 462.424 137.933 463.02 137.533 463.46C137.133 463.9 136.601 464.12 135.937 464.12ZM135.577 463.184C136.033 463.184 136.393 463.048 136.657 462.776C136.921 462.504 137.053 462.112 137.053 461.6V459.8C137.053 459.288 136.921 458.896 136.657 458.624C136.393 458.352 136.033 458.216 135.577 458.216C135.137 458.216 134.785 458.356 134.521 458.636C134.265 458.916 134.137 459.304 134.137 459.8V461.6C134.137 462.096 134.265 462.484 134.521 462.764C134.785 463.044 135.137 463.184 135.577 463.184ZM142.724 464.12C142.012 464.12 141.428 463.936 140.972 463.568C140.516 463.2 140.248 462.704 140.168 462.08H141.248C141.288 462.424 141.436 462.692 141.692 462.884C141.948 463.068 142.296 463.16 142.736 463.16C143.24 463.16 143.616 463.024 143.864 462.752C144.12 462.48 144.248 462.096 144.248 461.6V460.748C144.248 460.252 144.12 459.868 143.864 459.596C143.616 459.324 143.244 459.188 142.748 459.188C142.436 459.188 142.164 459.272 141.932 459.44C141.7 459.6 141.532 459.816 141.428 460.088H140.348L140.408 455.24H145.016V456.224H141.452L141.416 459.14H141.752L141.416 459.452C141.416 459.076 141.564 458.78 141.86 458.564C142.164 458.348 142.568 458.24 143.072 458.24C143.784 458.232 144.336 458.452 144.728 458.9C145.128 459.34 145.328 459.956 145.328 460.748V461.6C145.328 462.376 145.1 462.992 144.644 463.448C144.188 463.896 143.548 464.12 142.724 464.12ZM147.244 465.32L151.504 454.04H152.644L148.384 465.32H147.244ZM63 483.6V467.76H64.2V483.6H63ZM91.7812 476.16V467.76H92.9813V474.96H96.2213V476.16H91.7812ZM95.7366 476.16V474.96H103.417V476.16H95.7366ZM102.932 476.16V474.96H110.612V476.16H102.932ZM122.377 480.12C122.073 480.12 121.833 480.032 121.657 479.856C121.473 479.68 121.381 479.444 121.381 479.148C121.381 478.836 121.473 478.588 121.657 478.404C121.833 478.22 122.073 478.128 122.377 478.128C122.681 478.128 122.925 478.22 123.109 478.404C123.285 478.588 123.373 478.836 123.373 479.148C123.373 479.444 123.285 479.68 123.109 479.856C122.925 480.032 122.681 480.12 122.377 480.12ZM128.365 480.12C128.061 480.12 127.821 480.032 127.645 479.856C127.461 479.68 127.369 479.444 127.369 479.148C127.369 478.836 127.461 478.588 127.645 478.404C127.821 478.22 128.061 478.128 128.365 478.128C128.669 478.128 128.913 478.22 129.097 478.404C129.273 478.588 129.361 478.836 129.361 479.148C129.361 479.444 129.273 479.68 129.097 479.856C128.913 480.032 128.669 480.12 128.365 480.12ZM134.353 480.12C134.049 480.12 133.805 480.032 133.621 479.856C133.445 479.68 133.357 479.444 133.357 479.148C133.357 478.836 133.445 478.588 133.621 478.404C133.805 478.22 134.049 478.128 134.353 478.128C134.657 478.128 134.897 478.22 135.073 478.404C135.257 478.588 135.349 478.836 135.349 479.148C135.349 479.444 135.257 479.68 135.073 479.856C134.897 480.032 134.657 480.12 134.353 480.12ZM63 499.6V483.76H64.2V490.96H67.44V492.16H64.2V499.6H63ZM66.9553 492.16V490.96H74.6353V492.16H66.9553ZM74.1506 492.16V490.96H81.8306V492.16H74.1506ZM93.1013 496C92.5333 496 92.0893 495.848 91.7693 495.544C91.4573 495.24 91.3013 494.812 91.3013 494.26V490.384H89.4413V489.4H91.3013V487.54H92.3813V489.4H95.0213V490.384H92.3813V494.26C92.3813 494.764 92.6213 495.016 93.1013 495.016H94.9013V496H93.1013ZM99.5766 496.096C99.0486 496.096 98.5926 495.996 98.2086 495.796C97.8246 495.596 97.5246 495.308 97.3086 494.932C97.1006 494.548 96.9966 494.096 96.9966 493.576V491.824C96.9966 491.296 97.1006 490.844 97.3086 490.468C97.5246 490.092 97.8246 489.804 98.2086 489.604C98.5926 489.404 99.0486 489.304 99.5766 489.304C100.105 489.304 100.561 489.404 100.945 489.604C101.329 489.804 101.625 490.092 101.833 490.468C102.049 490.844 102.157 491.292 102.157 491.812V493.576C102.157 494.096 102.049 494.548 101.833 494.932C101.625 495.308 101.329 495.596 100.945 495.796C100.561 495.996 100.105 496.096 99.5766 496.096ZM99.5766 495.136C100.049 495.136 100.417 495.004 100.681 494.74C100.945 494.476 101.077 494.088 101.077 493.576V491.824C101.077 491.312 100.945 490.924 100.681 490.66C100.417 490.396 100.049 490.264 99.5766 490.264C99.1126 490.264 98.7446 490.396 98.4726 490.66C98.2086 490.924 98.0766 491.312 98.0766 491.824V493.576C98.0766 494.088 98.2086 494.476 98.4726 494.74C98.7446 495.004 99.1126 495.136 99.5766 495.136ZM106.772 496.096C106.244 496.096 105.788 495.996 105.404 495.796C105.02 495.596 104.72 495.308 104.504 494.932C104.296 494.548 104.192 494.096 104.192 493.576V491.824C104.192 491.296 104.296 490.844 104.504 490.468C104.72 490.092 105.02 489.804 105.404 489.604C105.788 489.404 106.244 489.304 106.772 489.304C107.3 489.304 107.756 489.404 108.14 489.604C108.524 489.804 108.82 490.092 109.028 490.468C109.244 490.844 109.352 491.292 109.352 491.812V493.576C109.352 494.096 109.244 494.548 109.028 494.932C108.82 495.308 108.524 495.596 108.14 495.796C107.756 495.996 107.3 496.096 106.772 496.096ZM106.772 495.136C107.244 495.136 107.612 495.004 107.876 494.74C108.14 494.476 108.272 494.088 108.272 493.576V491.824C108.272 491.312 108.14 490.924 107.876 490.66C107.612 490.396 107.244 490.264 106.772 490.264C106.308 490.264 105.94 490.396 105.668 490.66C105.404 490.924 105.272 491.312 105.272 491.824V493.576C105.272 494.088 105.404 494.476 105.668 494.74C105.94 495.004 106.308 495.136 106.772 495.136ZM114.867 496C114.483 496 114.147 495.924 113.859 495.772C113.571 495.62 113.347 495.404 113.187 495.124C113.027 494.844 112.947 494.516 112.947 494.14V488.224H110.727V487.24H114.027V494.14C114.027 494.412 114.103 494.628 114.255 494.788C114.407 494.94 114.611 495.016 114.867 495.016H116.967V496H114.867ZM120.959 496.096C120.511 496.096 120.119 496.028 119.783 495.892C119.455 495.748 119.191 495.548 118.991 495.292C118.799 495.036 118.683 494.732 118.643 494.38H119.723C119.771 494.612 119.899 494.796 120.107 494.932C120.323 495.068 120.607 495.136 120.959 495.136H121.463C121.887 495.136 122.203 495.052 122.411 494.884C122.619 494.708 122.723 494.476 122.723 494.188C122.723 493.908 122.627 493.688 122.435 493.528C122.251 493.36 121.975 493.248 121.607 493.192L120.719 493.048C120.071 492.936 119.587 492.736 119.267 492.448C118.955 492.152 118.799 491.724 118.799 491.164C118.799 490.572 118.987 490.116 119.363 489.796C119.739 489.468 120.303 489.304 121.055 489.304H121.511C122.143 489.304 122.651 489.452 123.035 489.748C123.419 490.044 123.651 490.444 123.73 490.948H122.651C122.603 490.74 122.483 490.576 122.291 490.456C122.099 490.328 121.839 490.264 121.511 490.264H121.055C120.647 490.264 120.347 490.34 120.155 490.492C119.971 490.644 119.879 490.872 119.879 491.176C119.879 491.448 119.959 491.648 120.119 491.776C120.279 491.904 120.531 491.996 120.875 492.052L121.763 492.196C122.475 492.308 122.991 492.516 123.311 492.82C123.639 493.124 123.803 493.564 123.803 494.14C123.803 494.748 123.607 495.228 123.215 495.58C122.831 495.924 122.247 496.096 121.463 496.096H120.959ZM125.658 497.32L129.918 486.04H131.058L126.798 497.32H125.658ZM63 515.6V499.76H64.2V506.96H67.44V508.16H64.2V515.6H63ZM66.9553 508.16V506.96H74.6353V508.16H66.9553ZM74.1506 508.16V506.96H81.8306V508.16H74.1506ZM89.8853 512V503.24H92.5973C93.1173 503.24 93.5733 503.348 93.9653 503.564C94.3573 503.772 94.6613 504.064 94.8773 504.44C95.0933 504.816 95.2013 505.256 95.2013 505.76C95.2013 506.352 95.0453 506.86 94.7333 507.284C94.4293 507.708 94.0133 508 93.4853 508.16L95.3213 512H94.0493L92.3693 508.28H90.9653V512H89.8853ZM90.9653 507.308H92.5973C93.0453 507.308 93.4053 507.168 93.6773 506.888C93.9493 506.6 94.0853 506.224 94.0853 505.76C94.0853 505.288 93.9493 504.912 93.6773 504.632C93.4053 504.352 93.0453 504.212 92.5973 504.212H90.9653V507.308ZM97.1766 512V503.24H102.217V504.224H98.2446V506.936H101.797V507.908H98.2446V511.016H102.217V512H97.1766ZM103.772 512L106.052 503.24H107.504L109.772 512H108.68L108.104 509.672H105.452L104.876 512H103.772ZM105.668 508.76H107.876L107.204 506.06C107.076 505.548 106.976 505.12 106.904 504.776C106.832 504.432 106.788 504.208 106.772 504.104C106.756 504.208 106.712 504.432 106.64 504.776C106.568 505.12 106.468 505.544 106.34 506.048L105.668 508.76ZM111.471 512V503.24H113.739C114.307 503.24 114.795 503.348 115.203 503.564C115.619 503.78 115.939 504.084 116.163 504.476C116.395 504.868 116.511 505.332 116.511 505.868V509.36C116.511 509.896 116.395 510.364 116.163 510.764C115.939 511.156 115.619 511.46 115.203 511.676C114.795 511.892 114.307 512 113.739 512H111.471ZM112.551 511.04H113.739C114.267 511.04 114.679 510.892 114.975 510.596C115.279 510.3 115.431 509.888 115.431 509.36V505.868C115.431 505.348 115.279 504.94 114.975 504.644C114.679 504.348 114.267 504.2 113.739 504.2H112.551V511.04ZM118.475 512V503.24H119.891L120.803 506.072C120.891 506.328 120.971 506.584 121.043 506.84C121.115 507.088 121.167 507.28 121.199 507.416C121.239 507.28 121.291 507.088 121.355 506.84C121.419 506.584 121.491 506.324 121.571 506.06L122.435 503.24H123.851V512H122.795V508.82C122.795 508.468 122.807 508.068 122.831 507.62C122.855 507.172 122.887 506.716 122.927 506.252C122.967 505.78 123.007 505.332 123.047 504.908C123.095 504.476 123.135 504.1 123.167 503.78L121.751 508.16H120.611L119.183 503.78C119.223 504.092 119.263 504.456 119.303 504.872C119.343 505.28 119.379 505.716 119.411 506.18C119.443 506.636 119.471 507.092 119.495 507.548C119.519 508.004 119.531 508.428 119.531 508.82V512H118.475ZM125.958 512V503.24H130.998V504.224H127.026V506.936H130.578V507.908H127.026V511.016H130.998V512H125.958ZM135.553 512.12C135.249 512.12 135.005 512.032 134.821 511.856C134.645 511.68 134.557 511.444 134.557 511.148C134.557 510.836 134.645 510.588 134.821 510.404C135.005 510.22 135.249 510.128 135.553 510.128C135.857 510.128 136.097 510.22 136.273 510.404C136.457 510.588 136.549 510.836 136.549 511.148C136.549 511.444 136.457 511.68 136.273 511.856C136.097 512.032 135.857 512.12 135.553 512.12ZM139.94 512V505.4H140.888V506.192H141.104L140.936 506.48C140.936 506.112 141.032 505.82 141.224 505.604C141.424 505.388 141.692 505.28 142.028 505.28C142.396 505.28 142.68 505.416 142.88 505.688C143.08 505.96 143.18 506.344 143.18 506.84L142.856 506.192H143.36L143.132 506.48C143.132 506.112 143.232 505.82 143.432 505.604C143.64 505.388 143.912 505.28 144.248 505.28C144.664 505.28 144.984 505.436 145.208 505.748C145.44 506.06 145.556 506.472 145.556 506.984V512H144.56V506.972C144.56 506.7 144.5 506.488 144.38 506.336C144.268 506.184 144.1 506.108 143.876 506.108C143.66 506.108 143.488 506.184 143.36 506.336C143.24 506.48 143.18 506.688 143.18 506.96V512H142.316V506.972C142.316 506.692 142.252 506.48 142.124 506.336C142.004 506.184 141.832 506.108 141.608 506.108C141.384 506.108 141.216 506.184 141.104 506.336C140.992 506.48 140.936 506.688 140.936 506.96V512H139.94ZM149.56 512.12C148.904 512.12 148.372 511.9 147.964 511.46C147.564 511.02 147.364 510.424 147.364 509.672V507.74C147.364 506.98 147.564 506.38 147.964 505.94C148.364 505.5 148.896 505.28 149.56 505.28C150.104 505.28 150.54 505.428 150.868 505.724C151.196 506.02 151.36 506.416 151.36 506.912L151.144 506.66H151.384L151.36 505.16V503.24H152.44V512H151.36V510.74H151.144L151.36 510.488C151.36 510.992 151.196 511.392 150.868 511.688C150.54 511.976 150.104 512.12 149.56 512.12ZM149.92 511.184C150.368 511.184 150.72 511.044 150.976 510.764C151.232 510.484 151.36 510.096 151.36 509.6V507.8C151.36 507.304 151.232 506.916 150.976 506.636C150.72 506.356 150.368 506.216 149.92 506.216C149.464 506.216 149.104 506.352 148.84 506.624C148.576 506.896 148.444 507.288 148.444 507.8V509.6C148.444 510.112 148.576 510.504 148.84 510.776C149.104 511.048 149.464 511.184 149.92 511.184ZM63 524.16V515.76H64.2V522.96H67.44V524.16H63ZM66.9553 524.16V522.96H74.6353V524.16H66.9553ZM74.1506 524.16V522.96H81.8306V524.16H74.1506ZM89.8853 530.16V521.4H90.9653V522.66H91.1813L90.9653 522.912C90.9653 522.408 91.1293 522.012 91.4573 521.724C91.7933 521.428 92.2333 521.28 92.7773 521.28C93.4413 521.28 93.9693 521.5 94.3613 521.94C94.7613 522.372 94.9613 522.968 94.9613 523.728V525.66C94.9613 526.164 94.8693 526.6 94.6853 526.968C94.5093 527.336 94.2573 527.62 93.9293 527.82C93.6093 528.02 93.2253 528.12 92.7773 528.12C92.2413 528.12 91.8053 527.972 91.4693 527.676C91.1333 527.38 90.9653 526.984 90.9653 526.488L91.1813 526.74H90.9413L90.9653 528.24V530.16H89.8853ZM92.4173 527.184C92.8733 527.184 93.2293 527.048 93.4853 526.776C93.7493 526.504 93.8813 526.112 93.8813 525.6V523.8C93.8813 523.288 93.7493 522.896 93.4853 522.624C93.2293 522.352 92.8733 522.216 92.4173 522.216C91.9773 522.216 91.6253 522.356 91.3613 522.636C91.0973 522.916 90.9653 523.304 90.9653 523.8V525.6C90.9653 526.096 91.0973 526.484 91.3613 526.764C91.6253 527.044 91.9773 527.184 92.4173 527.184ZM99.0006 528.12C98.3046 528.12 97.7566 527.944 97.3566 527.592C96.9566 527.232 96.7566 526.748 96.7566 526.14C96.7566 525.524 96.9566 525.04 97.3566 524.688C97.7566 524.336 98.2966 524.16 98.9766 524.16H101.017V523.5C101.017 523.092 100.893 522.78 100.645 522.564C100.405 522.34 100.061 522.228 99.6126 522.228C99.2206 522.228 98.8926 522.312 98.6286 522.48C98.3646 522.64 98.2126 522.86 98.1726 523.14H97.0926C97.1646 522.572 97.4326 522.12 97.8966 521.784C98.3606 521.448 98.9406 521.28 99.6366 521.28C100.397 521.28 100.997 521.476 101.437 521.868C101.877 522.26 102.097 522.792 102.097 523.464V528H101.041V526.74H100.861L101.041 526.56C101.041 527.04 100.853 527.42 100.477 527.7C100.109 527.98 99.6166 528.12 99.0006 528.12ZM99.2646 527.268C99.7766 527.268 100.197 527.14 100.525 526.884C100.853 526.628 101.017 526.3 101.017 525.9V524.964H99.0006C98.6406 524.964 98.3566 525.064 98.1486 525.264C97.9406 525.464 97.8366 525.736 97.8366 526.08C97.8366 526.448 97.9606 526.74 98.2086 526.956C98.4646 527.164 98.8166 527.268 99.2646 527.268ZM106.82 528.12C106.292 528.12 105.828 528.02 105.428 527.82C105.036 527.62 104.732 527.332 104.516 526.956C104.3 526.572 104.192 526.12 104.192 525.6V523.8C104.192 523.272 104.3 522.82 104.516 522.444C104.732 522.068 105.036 521.78 105.428 521.58C105.828 521.38 106.292 521.28 106.82 521.28C107.58 521.28 108.192 521.484 108.656 521.892C109.12 522.3 109.364 522.856 109.388 523.56H108.308C108.284 523.136 108.14 522.812 107.876 522.588C107.62 522.356 107.268 522.24 106.82 522.24C106.348 522.24 105.972 522.376 105.692 522.648C105.412 522.912 105.272 523.292 105.272 523.788V525.6C105.272 526.096 105.412 526.48 105.692 526.752C105.972 527.024 106.348 527.16 106.82 527.16C107.268 527.16 107.62 527.044 107.876 526.812C108.14 526.58 108.284 526.256 108.308 525.84H109.388C109.364 526.544 109.12 527.1 108.656 527.508C108.192 527.916 107.58 528.12 106.82 528.12ZM111.507 528V519.24H112.587V524.124H113.859L115.779 521.4H117.015L114.795 524.544L117.051 528H115.791L113.871 525.06H112.587V528H111.507ZM120.587 528.12C119.891 528.12 119.343 527.944 118.943 527.592C118.543 527.232 118.343 526.748 118.343 526.14C118.343 525.524 118.543 525.04 118.943 524.688C119.343 524.336 119.883 524.16 120.562 524.16H122.603V523.5C122.603 523.092 122.479 522.78 122.231 522.564C121.991 522.34 121.647 522.228 121.199 522.228C120.807 522.228 120.479 522.312 120.215 522.48C119.951 522.64 119.799 522.86 119.759 523.14H118.679C118.751 522.572 119.019 522.12 119.483 521.784C119.947 521.448 120.527 521.28 121.223 521.28C121.983 521.28 122.583 521.476 123.023 521.868C123.463 522.26 123.683 522.792 123.683 523.464V528H122.627V526.74H122.447L122.627 526.56C122.627 527.04 122.439 527.42 122.063 527.7C121.695 527.98 121.203 528.12 120.587 528.12ZM120.851 527.268C121.363 527.268 121.783 527.14 122.111 526.884C122.439 526.628 122.603 526.3 122.603 525.9V524.964H120.587C120.227 524.964 119.943 525.064 119.735 525.264C119.527 525.464 119.423 525.736 119.423 526.08C119.423 526.448 119.547 526.74 119.795 526.956C120.051 527.164 120.403 527.268 120.851 527.268ZM126.69 530.16V529.176H128.79C129.126 529.176 129.37 529.1 129.522 528.948C129.682 528.796 129.762 528.56 129.762 528.24V527.4L129.786 526.2H129.57L129.774 526.02C129.774 526.5 129.614 526.88 129.294 527.16C128.974 527.44 128.546 527.58 128.01 527.58C127.33 527.58 126.794 527.36 126.402 526.92C126.01 526.472 125.814 525.872 125.814 525.12V523.728C125.814 522.976 126.01 522.38 126.402 521.94C126.794 521.5 127.33 521.28 128.01 521.28C128.546 521.28 128.974 521.42 129.294 521.7C129.614 521.98 129.774 522.36 129.774 522.84L129.57 522.66H129.774V521.4H130.842V528.24C130.842 528.832 130.658 529.3 130.29 529.644C129.93 529.988 129.426 530.16 128.778 530.16H126.69ZM128.334 526.644C128.782 526.644 129.134 526.504 129.39 526.224C129.646 525.944 129.774 525.556 129.774 525.06V523.8C129.774 523.304 129.646 522.916 129.39 522.636C129.134 522.356 128.782 522.216 128.334 522.216C127.878 522.216 127.522 522.352 127.266 522.624C127.018 522.896 126.894 523.288 126.894 523.8V525.06C126.894 525.572 127.018 525.964 127.266 526.236C127.522 526.508 127.878 526.644 128.334 526.644ZM135.553 528.12C135.033 528.12 134.577 528.016 134.185 527.808C133.801 527.6 133.501 527.308 133.285 526.932C133.077 526.548 132.973 526.104 132.973 525.6V523.8C132.973 523.288 133.077 522.844 133.285 522.468C133.501 522.092 133.801 521.8 134.185 521.592C134.577 521.384 135.033 521.28 135.553 521.28C136.073 521.28 136.525 521.384 136.909 521.592C137.301 521.8 137.601 522.092 137.809 522.468C138.025 522.844 138.133 523.288 138.133 523.8V524.964H134.029V525.6C134.029 526.12 134.161 526.52 134.425 526.8C134.689 527.072 135.065 527.208 135.553 527.208C135.969 527.208 136.305 527.136 136.561 526.992C136.817 526.84 136.973 526.616 137.029 526.32H138.109C138.037 526.872 137.765 527.312 137.293 527.64C136.829 527.96 136.249 528.12 135.553 528.12ZM137.077 524.244V523.8C137.077 523.28 136.945 522.88 136.681 522.6C136.425 522.32 136.049 522.18 135.553 522.18C135.065 522.18 134.689 522.32 134.425 522.6C134.161 522.88 134.029 523.28 134.029 523.8V524.148H137.161L137.077 524.244ZM142.748 528.12C142.444 528.12 142.2 528.032 142.016 527.856C141.84 527.68 141.752 527.444 141.752 527.148C141.752 526.836 141.84 526.588 142.016 526.404C142.2 526.22 142.444 526.128 142.748 526.128C143.052 526.128 143.292 526.22 143.468 526.404C143.652 526.588 143.744 526.836 143.744 527.148C143.744 527.444 143.652 527.68 143.468 527.856C143.292 528.032 143.052 528.12 142.748 528.12ZM147.364 530.16V529.164H148.912C149.408 529.164 149.792 529.028 150.064 528.756C150.344 528.492 150.484 528.116 150.484 527.628V522.384H147.724V521.4H151.564V527.628C151.564 528.404 151.324 529.02 150.844 529.476C150.364 529.932 149.72 530.16 148.912 530.16H147.364ZM150.964 520.212C150.7 520.212 150.492 520.144 150.34 520.008C150.188 519.872 150.112 519.688 150.112 519.456C150.112 519.216 150.188 519.028 150.34 518.892C150.492 518.748 150.7 518.676 150.964 518.676C151.228 518.676 151.436 518.748 151.588 518.892C151.74 519.028 151.816 519.216 151.816 519.456C151.816 519.688 151.74 519.872 151.588 520.008C151.436 520.144 151.228 520.212 150.964 520.212ZM156.935 528.096C156.487 528.096 156.095 528.028 155.759 527.892C155.431 527.748 155.167 527.548 154.967 527.292C154.775 527.036 154.659 526.732 154.619 526.38H155.699C155.747 526.612 155.875 526.796 156.083 526.932C156.299 527.068 156.583 527.136 156.935 527.136H157.439C157.863 527.136 158.179 527.052 158.387 526.884C158.595 526.708 158.699 526.476 158.699 526.188C158.699 525.908 158.603 525.688 158.411 525.528C158.227 525.36 157.951 525.248 157.583 525.192L156.695 525.048C156.047 524.936 155.563 524.736 155.243 524.448C154.931 524.152 154.775 523.724 154.775 523.164C154.775 522.572 154.963 522.116 155.339 521.796C155.715 521.468 156.279 521.304 157.031 521.304H157.487C158.119 521.304 158.627 521.452 159.011 521.748C159.395 522.044 159.627 522.444 159.707 522.948H158.627C158.579 522.74 158.459 522.576 158.267 522.456C158.075 522.328 157.815 522.264 157.487 522.264H157.031C156.623 522.264 156.323 522.34 156.131 522.492C155.947 522.644 155.855 522.872 155.855 523.176C155.855 523.448 155.935 523.648 156.095 523.776C156.255 523.904 156.507 523.996 156.851 524.052L157.739 524.196C158.451 524.308 158.967 524.516 159.287 524.82C159.615 525.124 159.779 525.564 159.779 526.14C159.779 526.748 159.583 527.228 159.191 527.58C158.807 527.924 158.223 528.096 157.439 528.096H156.935ZM164.334 528.096C163.806 528.096 163.35 527.996 162.966 527.796C162.582 527.596 162.282 527.308 162.066 526.932C161.858 526.548 161.754 526.096 161.754 525.576V523.824C161.754 523.296 161.858 522.844 162.066 522.468C162.282 522.092 162.582 521.804 162.966 521.604C163.35 521.404 163.806 521.304 164.334 521.304C164.862 521.304 165.318 521.404 165.702 521.604C166.086 521.804 166.382 522.092 166.59 522.468C166.806 522.844 166.914 523.292 166.914 523.812V525.576C166.914 526.096 166.806 526.548 166.59 526.932C166.382 527.308 166.086 527.596 165.702 527.796C165.318 527.996 164.862 528.096 164.334 528.096ZM164.334 527.136C164.806 527.136 165.174 527.004 165.438 526.74C165.702 526.476 165.834 526.088 165.834 525.576V523.824C165.834 523.312 165.702 522.924 165.438 522.66C165.174 522.396 164.806 522.264 164.334 522.264C163.87 522.264 163.502 522.396 163.23 522.66C162.966 522.924 162.834 523.312 162.834 523.824V525.576C162.834 526.088 162.966 526.476 163.23 526.74C163.502 527.004 163.87 527.136 164.334 527.136ZM169.034 528V521.4H170.114V522.66H170.342L170.114 522.912C170.114 522.392 170.27 521.992 170.582 521.712C170.894 521.424 171.326 521.28 171.878 521.28C172.542 521.28 173.07 521.484 173.462 521.892C173.854 522.3 174.05 522.856 174.05 523.56V528H172.97V523.68C172.97 523.208 172.842 522.848 172.586 522.6C172.338 522.344 171.998 522.216 171.566 522.216C171.118 522.216 170.762 522.352 170.498 522.624C170.242 522.896 170.114 523.288 170.114 523.8V528H169.034Z" fill="white" fill-opacity="0.93"/>
<path d="M367.184 353.832C368.409 348.783 375.591 348.783 376.816 353.832C376.999 354.59 377.36 355.295 377.867 355.887C378.375 356.48 379.015 356.945 379.736 357.244C380.457 357.542 381.238 357.667 382.016 357.606C382.794 357.546 383.547 357.303 384.213 356.897C388.649 354.194 393.729 359.271 391.027 363.71C390.621 364.376 390.378 365.129 390.318 365.906C390.258 366.684 390.382 367.464 390.68 368.185C390.979 368.905 391.443 369.545 392.035 370.053C392.627 370.56 393.331 370.921 394.089 371.105C399.137 372.33 399.137 379.511 394.089 380.736C393.33 380.92 392.626 381.28 392.033 381.787C391.44 382.295 390.975 382.935 390.677 383.656C390.378 384.377 390.254 385.158 390.314 385.936C390.375 386.714 390.618 387.467 391.024 388.133C393.726 392.57 388.649 397.65 384.21 394.947C383.544 394.541 382.792 394.299 382.014 394.239C381.237 394.178 380.456 394.302 379.736 394.601C379.015 394.899 378.375 395.363 377.868 395.956C377.36 396.548 377 397.251 376.816 398.009C375.591 403.058 368.409 403.058 367.184 398.009C367.001 397.251 366.64 396.546 366.133 395.953C365.626 395.361 364.985 394.896 364.264 394.597C363.543 394.298 362.762 394.174 361.984 394.235C361.206 394.295 360.453 394.538 359.787 394.944C355.351 397.647 350.271 392.57 352.973 388.131C353.379 387.465 353.622 386.712 353.682 385.935C353.742 385.157 353.618 384.376 353.32 383.656C353.021 382.935 352.557 382.295 351.965 381.788C351.373 381.281 350.669 380.92 349.911 380.736C344.863 379.511 344.863 372.33 349.911 371.105C350.67 370.921 351.374 370.561 351.967 370.053C352.56 369.546 353.025 368.906 353.323 368.185C353.622 367.464 353.746 366.683 353.686 365.905C353.626 365.126 353.382 364.374 352.976 363.707C350.274 359.271 355.351 354.191 359.79 356.894C362.665 358.642 366.391 357.095 367.184 353.832Z" stroke="#FF6D74" stroke-width="2.75" stroke-linecap="round" stroke-linejoin="round"/>
<path d="M372 384.545C376.764 384.545 380.625 380.684 380.625 375.92C380.625 371.157 376.764 367.295 372 367.295C367.237 367.295 363.375 371.157 363.375 375.92C363.375 380.684 367.237 384.545 372 384.545Z" stroke="#FF6D74" stroke-width="2.75" stroke-linecap="round" stroke-linejoin="round"/>
<path d="M351.063 411.61C352.322 406.57 359.503 406.618 360.694 411.675C360.873 412.434 361.228 413.141 361.732 413.737C362.235 414.334 362.872 414.803 363.591 415.106C364.31 415.41 365.091 415.539 365.869 415.484C366.647 415.429 367.402 415.191 368.071 414.789C372.525 412.116 377.571 417.227 374.839 421.648C374.429 422.312 374.181 423.062 374.115 423.839C374.05 424.616 374.169 425.398 374.462 426.12C374.756 426.843 375.216 427.486 375.805 427.997C376.393 428.509 377.095 428.874 377.851 429.063C382.891 430.322 382.843 437.503 377.786 438.694C377.027 438.873 376.32 439.228 375.724 439.732C375.128 440.235 374.659 440.872 374.355 441.591C374.051 442.31 373.922 443.091 373.977 443.869C374.032 444.647 374.27 445.402 374.672 446.071C377.345 450.525 372.234 455.571 367.813 452.839C367.15 452.429 366.399 452.181 365.622 452.115C364.845 452.05 364.063 452.169 363.341 452.462C362.618 452.756 361.975 453.216 361.464 453.805C360.952 454.393 360.587 455.094 360.398 455.851C359.139 460.891 351.958 460.843 350.767 455.786C350.588 455.027 350.233 454.32 349.729 453.724C349.226 453.127 348.589 452.658 347.87 452.355C347.151 452.051 346.371 451.922 345.592 451.977C344.814 452.032 344.059 452.27 343.39 452.672C338.936 455.345 333.89 450.234 336.622 445.813C337.033 445.15 337.28 444.399 337.346 443.622C337.411 442.845 337.292 442.063 336.999 441.341C336.705 440.618 336.245 439.975 335.657 439.464C335.068 438.952 334.367 438.587 333.61 438.398C328.57 437.139 328.618 429.958 333.675 428.767C334.434 428.588 335.141 428.233 335.737 427.729C336.334 427.226 336.803 426.589 337.106 425.87C337.41 425.151 337.539 424.37 337.484 423.592C337.429 422.814 337.191 422.059 336.789 421.39C334.116 416.936 339.228 411.89 343.648 414.622C346.512 416.39 350.248 414.868 351.063 411.61Z" stroke="#FF6D74" stroke-width="2.75" stroke-linecap="round" stroke-linejoin="round"/>
<path d="M355.673 442.355C360.436 442.387 364.323 438.552 364.355 433.788C364.387 429.025 360.552 425.138 355.788 425.106C351.025 425.074 347.138 428.909 347.106 433.673C347.074 438.436 350.909 442.323 355.673 442.355Z" stroke="#FF6D74" stroke-width="2.75" stroke-linecap="round" stroke-linejoin="round"/>
<path d="M414.06 395.822C417.864 392.284 423.858 396.241 422.098 401.129C421.834 401.863 421.746 402.649 421.843 403.423C421.94 404.198 422.218 404.938 422.655 405.585C423.092 406.231 423.676 406.765 424.359 407.144C425.041 407.522 425.803 407.734 426.583 407.762C431.774 407.951 433.216 414.987 428.516 417.202C427.81 417.535 427.193 418.029 426.714 418.644C426.236 419.26 425.909 419.98 425.761 420.746C425.613 421.511 425.648 422.301 425.863 423.051C426.077 423.8 426.466 424.489 426.997 425.06C430.535 428.864 426.579 434.857 421.691 433.098C420.956 432.833 420.17 432.746 419.396 432.843C418.621 432.94 417.881 433.218 417.234 433.655C416.588 434.092 416.054 434.676 415.676 435.358C415.297 436.041 415.085 436.803 415.057 437.583C414.869 442.774 407.833 444.216 405.617 439.515C405.285 438.81 404.791 438.193 404.175 437.714C403.559 437.235 402.839 436.909 402.074 436.761C401.308 436.613 400.518 436.648 399.768 436.862C399.019 437.077 398.33 437.466 397.759 437.997C393.956 441.535 387.962 437.578 389.721 432.69C389.986 431.956 390.073 431.17 389.976 430.396C389.88 429.621 389.601 428.881 389.164 428.234C388.727 427.588 388.144 427.054 387.461 426.675C386.779 426.297 386.016 426.085 385.236 426.057C380.045 425.868 378.603 418.832 383.304 416.617C384.01 416.284 384.627 415.79 385.105 415.175C385.584 414.559 385.91 413.839 386.058 413.073C386.206 412.308 386.172 411.518 385.957 410.768C385.742 410.019 385.354 409.33 384.823 408.759C381.284 404.955 385.241 398.962 390.129 400.721C390.863 400.986 391.649 401.073 392.424 400.976C393.198 400.879 393.939 400.601 394.585 400.164C395.232 399.727 395.766 399.143 396.144 398.461C396.522 397.778 396.734 397.016 396.762 396.236C396.951 391.045 403.987 389.603 406.203 394.304C407.639 397.347 411.6 398.108 414.06 395.822Z" stroke="#FF6D74" stroke-width="2.75" stroke-linecap="round" stroke-linejoin="round"/>
<path d="M401.158 424.107C405.133 426.732 410.483 425.637 413.108 421.661C415.732 417.686 414.637 412.336 410.662 409.712C406.686 407.087 401.336 408.182 398.712 412.158C396.087 416.133 397.183 421.483 401.158 424.107Z" stroke="#FF6D74" stroke-width="2.75" stroke-linecap="round" stroke-linejoin="round"/>
<path d="M285.5 407C285.5 397.887 278.113 390.5 269 390.5C259.887 390.5 252.5 397.887 252.5 407C252.5 416.113 259.887 423.5 269 423.5C278.113 423.5 285.5 416.113 285.5 407Z" stroke="#9CA3AF" stroke-width="2.75" stroke-linecap="round" stroke-linejoin="round"/>
<path d="M269 414.333L276.333 407" stroke="#9CA3AF" stroke-width="2.75" stroke-linecap="round" stroke-linejoin="round"/>
<path d="M261.667 407L276.333 407" stroke="#9CA3AF" stroke-width="2.75" stroke-linecap="round" stroke-linejoin="round"/>
<path d="M269 399.667L276.333 407" stroke="#9CA3AF" stroke-width="2.75" stroke-linecap="round" stroke-linejoin="round"/>
<path d="M519.5 407C519.5 397.887 512.113 390.5 503 390.5C493.887 390.5 486.5 397.887 486.5 407C486.5 416.113 493.887 423.5 503 423.5C512.113 423.5 519.5 416.113 519.5 407Z" stroke="#9CA3AF" stroke-width="2.75" stroke-linecap="round" stroke-linejoin="round"/>
<path d="M503 414.333L510.333 407" stroke="#9CA3AF" stroke-width="2.75" stroke-linecap="round" stroke-linejoin="round"/>
<path d="M495.667 407L510.333 407" stroke="#9CA3AF" stroke-width="2.75" stroke-linecap="round" stroke-linejoin="round"/>
<path d="M503 399.667L510.333 407" stroke="#9CA3AF" stroke-width="2.75" stroke-linecap="round" stroke-linejoin="round"/>
<path d="M332.733 300H329.358L335.502 282.545H339.406L345.559 300H342.184L337.522 286.125H337.386L332.733 300ZM332.843 293.156H342.048V295.696H332.843V293.156ZM350.807 292.33V300H347.722V286.909H350.671V289.134H350.824C351.125 288.401 351.605 287.818 352.265 287.386C352.929 286.955 353.75 286.739 354.728 286.739C355.631 286.739 356.418 286.932 357.088 287.318C357.765 287.705 358.287 288.264 358.657 288.997C359.032 289.73 359.216 290.619 359.211 291.665V300H356.125V292.142C356.125 291.267 355.898 290.582 355.444 290.088C354.995 289.594 354.373 289.347 353.577 289.347C353.037 289.347 352.557 289.466 352.137 289.705C351.722 289.937 351.395 290.276 351.157 290.719C350.924 291.162 350.807 291.699 350.807 292.33ZM366.114 300.264C365.284 300.264 364.537 300.116 363.873 299.821C363.213 299.52 362.691 299.077 362.304 298.491C361.924 297.906 361.733 297.185 361.733 296.327C361.733 295.588 361.87 294.977 362.142 294.494C362.415 294.011 362.787 293.625 363.259 293.335C363.73 293.045 364.262 292.827 364.853 292.679C365.449 292.526 366.066 292.415 366.702 292.347C367.469 292.267 368.091 292.196 368.569 292.134C369.046 292.065 369.392 291.963 369.608 291.827C369.83 291.685 369.941 291.466 369.941 291.17V291.119C369.941 290.477 369.75 289.98 369.37 289.628C368.989 289.276 368.441 289.099 367.725 289.099C366.969 289.099 366.37 289.264 365.926 289.594C365.489 289.923 365.194 290.312 365.04 290.761L362.159 290.352C362.387 289.557 362.762 288.892 363.284 288.358C363.807 287.818 364.446 287.415 365.202 287.148C365.958 286.875 366.793 286.739 367.708 286.739C368.338 286.739 368.966 286.812 369.591 286.96C370.216 287.108 370.787 287.352 371.304 287.693C371.821 288.028 372.236 288.486 372.549 289.065C372.867 289.645 373.026 290.369 373.026 291.239V300H370.06V298.202H369.958C369.77 298.565 369.506 298.906 369.165 299.224C368.83 299.537 368.407 299.79 367.895 299.983C367.39 300.17 366.796 300.264 366.114 300.264ZM366.915 297.997C367.534 297.997 368.071 297.875 368.526 297.631C368.98 297.381 369.33 297.051 369.574 296.642C369.824 296.233 369.949 295.787 369.949 295.304V293.761C369.853 293.841 369.688 293.915 369.455 293.983C369.228 294.051 368.972 294.111 368.688 294.162C368.404 294.213 368.123 294.259 367.844 294.298C367.566 294.338 367.324 294.372 367.12 294.401C366.659 294.463 366.248 294.565 365.884 294.707C365.52 294.849 365.233 295.048 365.023 295.304C364.813 295.554 364.708 295.878 364.708 296.276C364.708 296.844 364.915 297.273 365.33 297.562C365.745 297.852 366.273 297.997 366.915 297.997ZM379.213 282.545V300H376.128V282.545H379.213ZM384.304 304.909C383.883 304.909 383.494 304.875 383.136 304.807C382.784 304.744 382.502 304.67 382.292 304.585L383.008 302.182C383.457 302.313 383.858 302.375 384.21 302.369C384.562 302.364 384.872 302.253 385.139 302.037C385.412 301.827 385.642 301.474 385.829 300.98L386.093 300.273L381.346 286.909H384.619L387.636 296.795H387.772L390.798 286.909H394.079L388.838 301.585C388.593 302.278 388.27 302.872 387.866 303.366C387.463 303.866 386.968 304.247 386.383 304.509C385.804 304.776 385.11 304.909 384.304 304.909ZM406.561 290.369L403.748 290.676C403.669 290.392 403.529 290.125 403.331 289.875C403.137 289.625 402.876 289.423 402.547 289.27C402.217 289.116 401.814 289.04 401.336 289.04C400.694 289.04 400.154 289.179 399.717 289.457C399.285 289.736 399.072 290.097 399.078 290.54C399.072 290.92 399.211 291.23 399.495 291.469C399.785 291.707 400.262 291.903 400.927 292.057L403.16 292.534C404.399 292.801 405.319 293.224 405.922 293.804C406.529 294.384 406.836 295.142 406.842 296.08C406.836 296.903 406.595 297.631 406.118 298.261C405.646 298.886 404.99 299.375 404.149 299.727C403.308 300.08 402.342 300.256 401.251 300.256C399.649 300.256 398.359 299.92 397.382 299.25C396.404 298.574 395.822 297.634 395.635 296.429L398.643 296.139C398.779 296.73 399.069 297.176 399.512 297.477C399.956 297.778 400.532 297.929 401.243 297.929C401.975 297.929 402.564 297.778 403.007 297.477C403.456 297.176 403.68 296.804 403.68 296.361C403.68 295.986 403.535 295.676 403.245 295.432C402.961 295.187 402.518 295 401.916 294.869L399.683 294.401C398.427 294.139 397.498 293.699 396.896 293.08C396.294 292.455 395.995 291.665 396.001 290.71C395.995 289.903 396.214 289.205 396.657 288.614C397.106 288.017 397.728 287.557 398.524 287.233C399.325 286.903 400.248 286.739 401.294 286.739C402.828 286.739 404.035 287.065 404.916 287.719C405.802 288.372 406.35 289.256 406.561 290.369ZM409.386 300V286.909H412.471V300H409.386ZM410.937 285.051C410.449 285.051 410.028 284.889 409.676 284.565C409.324 284.236 409.147 283.841 409.147 283.381C409.147 282.915 409.324 282.52 409.676 282.196C410.028 281.866 410.449 281.702 410.937 281.702C411.431 281.702 411.852 281.866 412.199 282.196C412.551 282.52 412.727 282.915 412.727 283.381C412.727 283.841 412.551 284.236 412.199 284.565C411.852 284.889 411.431 285.051 410.937 285.051ZM425.99 290.369L423.178 290.676C423.098 290.392 422.959 290.125 422.76 289.875C422.567 289.625 422.306 289.423 421.976 289.27C421.647 289.116 421.243 289.04 420.766 289.04C420.124 289.04 419.584 289.179 419.147 289.457C418.715 289.736 418.502 290.097 418.507 290.54C418.502 290.92 418.641 291.23 418.925 291.469C419.215 291.707 419.692 291.903 420.357 292.057L422.59 292.534C423.828 292.801 424.749 293.224 425.351 293.804C425.959 294.384 426.266 295.142 426.272 296.08C426.266 296.903 426.025 297.631 425.547 298.261C425.076 298.886 424.419 299.375 423.578 299.727C422.738 300.08 421.772 300.256 420.681 300.256C419.078 300.256 417.789 299.92 416.811 299.25C415.834 298.574 415.252 297.634 415.064 296.429L418.073 296.139C418.209 296.73 418.499 297.176 418.942 297.477C419.385 297.778 419.962 297.929 420.672 297.929C421.405 297.929 421.993 297.778 422.436 297.477C422.885 297.176 423.11 296.804 423.11 296.361C423.11 295.986 422.965 295.676 422.675 295.432C422.391 295.187 421.948 295 421.346 294.869L419.113 294.401C417.857 294.139 416.928 293.699 416.326 293.08C415.723 292.455 415.425 291.665 415.431 290.71C415.425 289.903 415.644 289.205 416.087 288.614C416.536 288.017 417.158 287.557 417.953 287.233C418.755 286.903 419.678 286.739 420.723 286.739C422.257 286.739 423.465 287.065 424.346 287.719C425.232 288.372 425.78 289.256 425.99 290.369Z" fill="#FF6D74"/>
<path d="M56.7216 247V229.545H63.267C64.608 229.545 65.733 229.778 66.642 230.244C67.5568 230.71 68.2472 231.364 68.7131 232.205C69.1847 233.04 69.4205 234.014 69.4205 235.128C69.4205 236.247 69.1818 237.219 68.7045 238.043C68.233 238.861 67.5369 239.494 66.6165 239.943C65.696 240.386 64.5653 240.608 63.2244 240.608H58.5625V237.983H62.7983C63.5824 237.983 64.2244 237.875 64.7244 237.659C65.2244 237.437 65.5938 237.116 65.8324 236.696C66.0767 236.27 66.1989 235.747 66.1989 235.128C66.1989 234.509 66.0767 233.98 65.8324 233.543C65.5881 233.099 65.2159 232.764 64.7159 232.537C64.2159 232.304 63.571 232.188 62.7812 232.188H59.8835V247H56.7216ZM65.7386 239.091L70.0597 247H66.5312L62.2869 239.091H65.7386ZM77.8026 247.256C76.4901 247.256 75.3565 246.983 74.402 246.438C73.4531 245.886 72.723 245.108 72.2116 244.102C71.7003 243.091 71.4446 241.901 71.4446 240.531C71.4446 239.185 71.7003 238.003 72.2116 236.986C72.7287 235.963 73.4503 235.168 74.3764 234.599C75.3026 234.026 76.3906 233.739 77.6406 233.739C78.4474 233.739 79.2088 233.869 79.9247 234.131C80.6463 234.386 81.2827 234.784 81.8338 235.324C82.3906 235.864 82.8281 236.551 83.1463 237.386C83.4645 238.216 83.6236 239.205 83.6236 240.352V241.298H72.8935V239.219H80.6662C80.6605 238.628 80.5327 238.102 80.2827 237.642C80.0327 237.176 79.6832 236.81 79.2344 236.543C78.7912 236.276 78.2741 236.142 77.6832 236.142C77.0526 236.142 76.4986 236.295 76.0213 236.602C75.544 236.903 75.1719 237.301 74.9048 237.795C74.6435 238.284 74.5099 238.821 74.5043 239.406V241.222C74.5043 241.983 74.6435 242.636 74.9219 243.182C75.2003 243.722 75.5895 244.136 76.0895 244.426C76.5895 244.71 77.1747 244.852 77.8452 244.852C78.294 244.852 78.7003 244.79 79.0639 244.665C79.4276 244.534 79.7429 244.344 80.0099 244.094C80.277 243.844 80.4787 243.534 80.6151 243.165L83.4957 243.489C83.3139 244.25 82.9673 244.915 82.456 245.483C81.9503 246.045 81.3026 246.483 80.5128 246.795C79.723 247.102 78.8196 247.256 77.8026 247.256ZM86.2337 251.909V233.909H89.2678V236.074H89.4467C89.6058 235.756 89.8303 235.418 90.12 235.06C90.4098 234.696 90.8018 234.386 91.2962 234.131C91.7905 233.869 92.4212 233.739 93.1882 233.739C94.1996 233.739 95.1115 233.997 95.924 234.514C96.7422 235.026 97.3899 235.784 97.8672 236.79C98.3501 237.79 98.5916 239.017 98.5916 240.472C98.5916 241.909 98.3558 243.131 97.8842 244.136C97.4126 245.142 96.7706 245.909 95.9581 246.438C95.1456 246.966 94.2251 247.23 93.1967 247.23C92.4467 247.23 91.8246 247.105 91.3303 246.855C90.8359 246.605 90.4382 246.304 90.1371 245.952C89.8416 245.594 89.6115 245.256 89.4467 244.938H89.3189V251.909H86.2337ZM89.2592 240.455C89.2592 241.301 89.3786 242.043 89.6172 242.679C89.8615 243.315 90.2109 243.812 90.6655 244.17C91.1257 244.523 91.6825 244.699 92.3359 244.699C93.0178 244.699 93.5888 244.517 94.049 244.153C94.5092 243.784 94.8558 243.281 95.0888 242.645C95.3274 242.003 95.4467 241.273 95.4467 240.455C95.4467 239.642 95.3303 238.92 95.0973 238.29C94.8643 237.659 94.5178 237.165 94.0575 236.807C93.5973 236.449 93.0234 236.27 92.3359 236.27C91.6768 236.27 91.1172 236.443 90.657 236.79C90.1967 237.136 89.8473 237.622 89.6087 238.247C89.3757 238.872 89.2592 239.608 89.2592 240.455ZM106.944 247.256C105.665 247.256 104.558 246.974 103.62 246.412C102.683 245.849 101.955 245.062 101.438 244.051C100.927 243.04 100.671 241.858 100.671 240.506C100.671 239.153 100.927 237.969 101.438 236.952C101.955 235.935 102.683 235.145 103.62 234.582C104.558 234.02 105.665 233.739 106.944 233.739C108.222 233.739 109.33 234.02 110.268 234.582C111.205 235.145 111.93 235.935 112.441 236.952C112.958 237.969 113.217 239.153 113.217 240.506C113.217 241.858 112.958 243.04 112.441 244.051C111.93 245.062 111.205 245.849 110.268 246.412C109.33 246.974 108.222 247.256 106.944 247.256ZM106.961 244.784C107.654 244.784 108.234 244.594 108.7 244.213C109.165 243.827 109.512 243.31 109.739 242.662C109.972 242.014 110.089 241.293 110.089 240.497C110.089 239.696 109.972 238.972 109.739 238.324C109.512 237.67 109.165 237.151 108.7 236.764C108.234 236.378 107.654 236.185 106.961 236.185C106.251 236.185 105.66 236.378 105.188 236.764C104.722 237.151 104.373 237.67 104.14 238.324C103.913 238.972 103.799 239.696 103.799 240.497C103.799 241.293 103.913 242.014 104.14 242.662C104.373 243.31 104.722 243.827 105.188 244.213C105.66 244.594 106.251 244.784 106.961 244.784ZM126.182 237.369L123.369 237.676C123.29 237.392 123.151 237.125 122.952 236.875C122.759 236.625 122.497 236.423 122.168 236.27C121.838 236.116 121.435 236.04 120.957 236.04C120.315 236.04 119.776 236.179 119.338 236.457C118.906 236.736 118.693 237.097 118.699 237.54C118.693 237.92 118.832 238.23 119.116 238.469C119.406 238.707 119.884 238.903 120.548 239.057L122.781 239.534C124.02 239.801 124.94 240.224 125.543 240.804C126.151 241.384 126.457 242.142 126.463 243.08C126.457 243.903 126.216 244.631 125.739 245.261C125.267 245.886 124.611 246.375 123.77 246.727C122.929 247.08 121.963 247.256 120.872 247.256C119.27 247.256 117.98 246.92 117.003 246.25C116.026 245.574 115.443 244.634 115.256 243.429L118.264 243.139C118.401 243.73 118.69 244.176 119.134 244.477C119.577 244.778 120.153 244.929 120.864 244.929C121.597 244.929 122.185 244.778 122.628 244.477C123.077 244.176 123.301 243.804 123.301 243.361C123.301 242.986 123.156 242.676 122.866 242.432C122.582 242.187 122.139 242 121.537 241.869L119.304 241.401C118.048 241.139 117.119 240.699 116.517 240.08C115.915 239.455 115.616 238.665 115.622 237.71C115.616 236.903 115.835 236.205 116.278 235.614C116.727 235.017 117.349 234.557 118.145 234.233C118.946 233.903 119.869 233.739 120.915 233.739C122.449 233.739 123.656 234.065 124.537 234.719C125.423 235.372 125.972 236.256 126.182 237.369ZM129.007 247V233.909H132.092V247H129.007ZM130.558 232.051C130.07 232.051 129.649 231.889 129.297 231.565C128.945 231.236 128.768 230.841 128.768 230.381C128.768 229.915 128.945 229.52 129.297 229.196C129.649 228.866 130.07 228.702 130.558 228.702C131.053 228.702 131.473 228.866 131.82 229.196C132.172 229.52 132.348 229.915 132.348 230.381C132.348 230.841 132.172 231.236 131.82 231.565C131.473 231.889 131.053 232.051 130.558 232.051ZM141.802 233.909V236.295H134.276V233.909H141.802ZM136.134 230.773H139.219V243.062C139.219 243.477 139.282 243.795 139.407 244.017C139.538 244.233 139.708 244.381 139.918 244.46C140.129 244.54 140.362 244.58 140.617 244.58C140.81 244.58 140.987 244.565 141.146 244.537C141.31 244.509 141.435 244.483 141.521 244.46L142.04 246.872C141.876 246.929 141.64 246.991 141.333 247.06C141.032 247.128 140.663 247.168 140.225 247.179C139.452 247.202 138.756 247.085 138.137 246.83C137.518 246.568 137.026 246.165 136.663 245.619C136.305 245.074 136.129 244.392 136.134 243.574V230.773ZM149.952 247.256C148.673 247.256 147.565 246.974 146.628 246.412C145.69 245.849 144.963 245.062 144.446 244.051C143.935 243.04 143.679 241.858 143.679 240.506C143.679 239.153 143.935 237.969 144.446 236.952C144.963 235.935 145.69 235.145 146.628 234.582C147.565 234.02 148.673 233.739 149.952 233.739C151.23 233.739 152.338 234.02 153.276 234.582C154.213 235.145 154.938 235.935 155.449 236.952C155.966 237.969 156.224 239.153 156.224 240.506C156.224 241.858 155.966 243.04 155.449 244.051C154.938 245.062 154.213 245.849 153.276 246.412C152.338 246.974 151.23 247.256 149.952 247.256ZM149.969 244.784C150.662 244.784 151.241 244.594 151.707 244.213C152.173 243.827 152.52 243.31 152.747 242.662C152.98 242.014 153.097 241.293 153.097 240.497C153.097 239.696 152.98 238.972 152.747 238.324C152.52 237.67 152.173 237.151 151.707 236.764C151.241 236.378 150.662 236.185 149.969 236.185C149.259 236.185 148.668 236.378 148.196 236.764C147.73 237.151 147.381 237.67 147.148 238.324C146.92 238.972 146.807 239.696 146.807 240.497C146.807 241.293 146.92 242.014 147.148 242.662C147.381 243.31 147.73 243.827 148.196 244.213C148.668 244.594 149.259 244.784 149.969 244.784ZM158.843 247V233.909H161.835V236.091H161.971C162.21 235.335 162.619 234.753 163.198 234.344C163.783 233.929 164.451 233.722 165.201 233.722C165.371 233.722 165.562 233.73 165.772 233.747C165.988 233.759 166.167 233.778 166.309 233.807V236.645C166.178 236.599 165.971 236.56 165.687 236.526C165.408 236.486 165.138 236.466 164.877 236.466C164.315 236.466 163.809 236.588 163.36 236.832C162.917 237.071 162.567 237.403 162.312 237.83C162.056 238.256 161.928 238.747 161.928 239.304V247H158.843ZM170.675 251.909C170.254 251.909 169.865 251.875 169.507 251.807C169.155 251.744 168.874 251.67 168.663 251.585L169.379 249.182C169.828 249.313 170.229 249.375 170.581 249.369C170.933 249.364 171.243 249.253 171.51 249.037C171.783 248.827 172.013 248.474 172.2 247.98L172.464 247.273L167.717 233.909H170.99L174.007 243.795H174.143L177.169 233.909H180.45L175.209 248.585C174.964 249.278 174.641 249.872 174.237 250.366C173.834 250.866 173.339 251.247 172.754 251.509C172.175 251.776 171.482 251.909 170.675 251.909Z" fill="#9CA3AF"/>
<path d="M681.616 199V181.545H688.162C689.502 181.545 690.627 181.795 691.537 182.295C692.451 182.795 693.142 183.483 693.608 184.358C694.079 185.227 694.315 186.216 694.315 187.324C694.315 188.443 694.079 189.437 693.608 190.307C693.136 191.176 692.44 191.861 691.52 192.361C690.599 192.855 689.466 193.102 688.119 193.102H683.781V190.503H687.693C688.477 190.503 689.119 190.366 689.619 190.094C690.119 189.821 690.488 189.446 690.727 188.969C690.971 188.491 691.093 187.943 691.093 187.324C691.093 186.705 690.971 186.159 690.727 185.688C690.488 185.216 690.116 184.849 689.61 184.588C689.11 184.321 688.466 184.188 687.676 184.188H684.778V199H681.616ZM696.925 199V185.909H699.917V188.091H700.053C700.292 187.335 700.701 186.753 701.28 186.344C701.865 185.929 702.533 185.722 703.283 185.722C703.453 185.722 703.644 185.73 703.854 185.747C704.07 185.759 704.249 185.778 704.391 185.807V188.645C704.26 188.599 704.053 188.56 703.769 188.526C703.49 188.486 703.221 188.466 702.959 188.466C702.397 188.466 701.891 188.588 701.442 188.832C700.999 189.071 700.65 189.403 700.394 189.83C700.138 190.256 700.01 190.747 700.01 191.304V199H696.925ZM711.612 199.256C710.333 199.256 709.225 198.974 708.288 198.412C707.35 197.849 706.623 197.062 706.106 196.051C705.595 195.04 705.339 193.858 705.339 192.506C705.339 191.153 705.595 189.969 706.106 188.952C706.623 187.935 707.35 187.145 708.288 186.582C709.225 186.02 710.333 185.739 711.612 185.739C712.89 185.739 713.998 186.02 714.936 186.582C715.873 187.145 716.598 187.935 717.109 188.952C717.626 189.969 717.885 191.153 717.885 192.506C717.885 193.858 717.626 195.04 717.109 196.051C716.598 197.062 715.873 197.849 714.936 198.412C713.998 198.974 712.89 199.256 711.612 199.256ZM711.629 196.784C712.322 196.784 712.902 196.594 713.368 196.213C713.833 195.827 714.18 195.31 714.407 194.662C714.64 194.014 714.757 193.293 714.757 192.497C714.757 191.696 714.64 190.972 714.407 190.324C714.18 189.67 713.833 189.151 713.368 188.764C712.902 188.378 712.322 188.185 711.629 188.185C710.919 188.185 710.328 188.378 709.856 188.764C709.39 189.151 709.041 189.67 708.808 190.324C708.581 190.972 708.467 191.696 708.467 192.497C708.467 193.293 708.581 194.014 708.808 194.662C709.041 195.31 709.39 195.827 709.856 196.213C710.328 196.594 710.919 196.784 711.629 196.784ZM720.503 185.909H723.588V199.75C723.588 200.693 723.409 201.472 723.051 202.085C722.694 202.699 722.176 203.156 721.5 203.457C720.824 203.759 720.003 203.909 719.037 203.909C718.924 203.909 718.819 203.906 718.722 203.901C718.625 203.901 718.52 203.898 718.407 203.892V201.378C718.492 201.384 718.569 201.386 718.637 201.386C718.705 201.392 718.776 201.395 718.85 201.395C719.441 201.395 719.864 201.25 720.12 200.96C720.375 200.676 720.503 200.259 720.503 199.707V185.909ZM722.037 184.051C721.543 184.051 721.12 183.889 720.767 183.565C720.421 183.236 720.248 182.841 720.248 182.381C720.248 181.915 720.421 181.52 720.767 181.196C721.12 180.866 721.543 180.702 722.037 180.702C722.526 180.702 722.944 180.866 723.29 181.196C723.642 181.52 723.819 181.915 723.819 182.381C723.819 182.841 723.642 183.236 723.29 183.565C722.944 183.889 722.526 184.051 722.037 184.051ZM732.556 199.256C731.244 199.256 730.11 198.983 729.156 198.438C728.207 197.886 727.477 197.108 726.966 196.102C726.454 195.091 726.199 193.901 726.199 192.531C726.199 191.185 726.454 190.003 726.966 188.986C727.483 187.963 728.204 187.168 729.13 186.599C730.056 186.026 731.145 185.739 732.395 185.739C733.201 185.739 733.963 185.869 734.679 186.131C735.4 186.386 736.037 186.784 736.588 187.324C737.145 187.864 737.582 188.551 737.9 189.386C738.218 190.216 738.377 191.205 738.377 192.352V193.298H727.647V191.219H735.42C735.414 190.628 735.287 190.102 735.037 189.642C734.787 189.176 734.437 188.81 733.988 188.543C733.545 188.276 733.028 188.142 732.437 188.142C731.806 188.142 731.252 188.295 730.775 188.602C730.298 188.903 729.926 189.301 729.659 189.795C729.397 190.284 729.264 190.821 729.258 191.406V193.222C729.258 193.983 729.397 194.636 729.676 195.182C729.954 195.722 730.343 196.136 730.843 196.426C731.343 196.71 731.929 196.852 732.599 196.852C733.048 196.852 733.454 196.79 733.818 196.665C734.181 196.534 734.497 196.344 734.764 196.094C735.031 195.844 735.233 195.534 735.369 195.165L738.25 195.489C738.068 196.25 737.721 196.915 737.21 197.483C736.704 198.045 736.056 198.483 735.267 198.795C734.477 199.102 733.574 199.256 732.556 199.256ZM746.698 199.256C745.391 199.256 744.269 198.969 743.331 198.395C742.4 197.821 741.681 197.028 741.175 196.017C740.675 195 740.425 193.83 740.425 192.506C740.425 191.176 740.681 190.003 741.192 188.986C741.703 187.963 742.425 187.168 743.357 186.599C744.294 186.026 745.402 185.739 746.681 185.739C747.743 185.739 748.684 185.935 749.502 186.327C750.326 186.713 750.982 187.261 751.471 187.972C751.959 188.676 752.238 189.5 752.306 190.443H749.357C749.238 189.812 748.953 189.287 748.505 188.866C748.061 188.44 747.468 188.227 746.723 188.227C746.093 188.227 745.539 188.398 745.061 188.739C744.584 189.074 744.212 189.557 743.945 190.188C743.684 190.818 743.553 191.574 743.553 192.455C743.553 193.347 743.684 194.114 743.945 194.756C744.206 195.392 744.573 195.884 745.044 196.23C745.522 196.571 746.081 196.741 746.723 196.741C747.178 196.741 747.584 196.656 747.942 196.486C748.306 196.31 748.61 196.057 748.854 195.727C749.098 195.398 749.266 194.997 749.357 194.526H752.306C752.232 195.452 751.959 196.273 751.488 196.989C751.016 197.699 750.374 198.256 749.561 198.659C748.749 199.057 747.794 199.256 746.698 199.256ZM761.376 185.909V188.295H753.85V185.909H761.376ZM755.708 182.773H758.794V195.062C758.794 195.477 758.856 195.795 758.981 196.017C759.112 196.233 759.282 196.381 759.493 196.46C759.703 196.54 759.936 196.58 760.191 196.58C760.385 196.58 760.561 196.565 760.72 196.537C760.885 196.509 761.01 196.483 761.095 196.46L761.615 198.872C761.45 198.929 761.214 198.991 760.907 199.06C760.606 199.128 760.237 199.168 759.799 199.179C759.027 199.202 758.331 199.085 757.711 198.83C757.092 198.568 756.6 198.165 756.237 197.619C755.879 197.074 755.703 196.392 755.708 195.574V182.773ZM775.603 204.182C774.495 204.182 773.543 204.031 772.748 203.73C771.952 203.435 771.313 203.037 770.83 202.537C770.347 202.037 770.012 201.483 769.824 200.875L772.603 200.202C772.728 200.457 772.909 200.71 773.148 200.96C773.387 201.216 773.708 201.426 774.111 201.591C774.52 201.761 775.034 201.847 775.654 201.847C776.529 201.847 777.253 201.634 777.827 201.207C778.401 200.787 778.688 200.094 778.688 199.128V196.648H778.534C778.375 196.966 778.142 197.293 777.836 197.628C777.534 197.963 777.134 198.244 776.634 198.472C776.14 198.699 775.517 198.812 774.767 198.812C773.762 198.812 772.85 198.577 772.032 198.105C771.219 197.628 770.571 196.918 770.088 195.974C769.611 195.026 769.373 193.838 769.373 192.412C769.373 190.974 769.611 189.761 770.088 188.773C770.571 187.778 771.222 187.026 772.04 186.514C772.858 185.997 773.77 185.739 774.776 185.739C775.543 185.739 776.174 185.869 776.668 186.131C777.168 186.386 777.566 186.696 777.861 187.06C778.157 187.418 778.381 187.756 778.534 188.074H778.705V185.909H781.748V199.213C781.748 200.332 781.48 201.259 780.946 201.991C780.412 202.724 779.682 203.273 778.756 203.636C777.83 204 776.779 204.182 775.603 204.182ZM775.628 196.392C776.282 196.392 776.838 196.233 777.299 195.915C777.759 195.597 778.108 195.139 778.347 194.543C778.586 193.946 778.705 193.23 778.705 192.395C778.705 191.571 778.586 190.849 778.347 190.23C778.114 189.611 777.767 189.131 777.307 188.79C776.853 188.443 776.293 188.27 775.628 188.27C774.941 188.27 774.367 188.449 773.907 188.807C773.446 189.165 773.1 189.656 772.867 190.281C772.634 190.901 772.517 191.605 772.517 192.395C772.517 193.196 772.634 193.898 772.867 194.5C773.105 195.097 773.455 195.562 773.915 195.898C774.381 196.227 774.952 196.392 775.628 196.392ZM784.909 199V185.909H787.901V188.091H788.037C788.276 187.335 788.685 186.753 789.265 186.344C789.85 185.929 790.517 185.722 791.267 185.722C791.438 185.722 791.628 185.73 791.838 185.747C792.054 185.759 792.233 185.778 792.375 185.807V188.645C792.245 188.599 792.037 188.56 791.753 188.526C791.475 188.486 791.205 188.466 790.944 188.466C790.381 188.466 789.875 188.588 789.426 188.832C788.983 189.071 788.634 189.403 788.378 189.83C788.123 190.256 787.995 190.747 787.995 191.304V199H784.909ZM797.958 199.264C797.128 199.264 796.381 199.116 795.716 198.821C795.057 198.52 794.534 198.077 794.148 197.491C793.767 196.906 793.577 196.185 793.577 195.327C793.577 194.588 793.713 193.977 793.986 193.494C794.259 193.011 794.631 192.625 795.103 192.335C795.574 192.045 796.105 191.827 796.696 191.679C797.293 191.526 797.909 191.415 798.546 191.347C799.313 191.267 799.935 191.196 800.412 191.134C800.89 191.065 801.236 190.963 801.452 190.827C801.674 190.685 801.784 190.466 801.784 190.17V190.119C801.784 189.477 801.594 188.98 801.213 188.628C800.833 188.276 800.284 188.099 799.569 188.099C798.813 188.099 798.213 188.264 797.77 188.594C797.333 188.923 797.037 189.312 796.884 189.761L794.003 189.352C794.23 188.557 794.605 187.892 795.128 187.358C795.651 186.818 796.29 186.415 797.046 186.148C797.801 185.875 798.637 185.739 799.551 185.739C800.182 185.739 800.81 185.812 801.435 185.96C802.06 186.108 802.631 186.352 803.148 186.693C803.665 187.028 804.08 187.486 804.392 188.065C804.711 188.645 804.87 189.369 804.87 190.239V199H801.904V197.202H801.801C801.614 197.565 801.35 197.906 801.009 198.224C800.674 198.537 800.25 198.79 799.739 198.983C799.233 199.17 798.64 199.264 797.958 199.264ZM798.759 196.997C799.378 196.997 799.915 196.875 800.37 196.631C800.824 196.381 801.174 196.051 801.418 195.642C801.668 195.233 801.793 194.787 801.793 194.304V192.761C801.696 192.841 801.532 192.915 801.299 192.983C801.071 193.051 800.816 193.111 800.532 193.162C800.248 193.213 799.966 193.259 799.688 193.298C799.409 193.338 799.168 193.372 798.963 193.401C798.503 193.463 798.091 193.565 797.728 193.707C797.364 193.849 797.077 194.048 796.867 194.304C796.657 194.554 796.551 194.878 796.551 195.276C796.551 195.844 796.759 196.273 797.174 196.562C797.588 196.852 798.117 196.997 798.759 196.997ZM807.972 203.909V185.909H811.006V188.074H811.185C811.344 187.756 811.569 187.418 811.858 187.06C812.148 186.696 812.54 186.386 813.034 186.131C813.529 185.869 814.159 185.739 814.926 185.739C815.938 185.739 816.85 185.997 817.662 186.514C818.48 187.026 819.128 187.784 819.605 188.79C820.088 189.79 820.33 191.017 820.33 192.472C820.33 193.909 820.094 195.131 819.623 196.136C819.151 197.142 818.509 197.909 817.696 198.438C816.884 198.966 815.963 199.23 814.935 199.23C814.185 199.23 813.563 199.105 813.069 198.855C812.574 198.605 812.176 198.304 811.875 197.952C811.58 197.594 811.35 197.256 811.185 196.938H811.057V203.909H807.972ZM810.998 192.455C810.998 193.301 811.117 194.043 811.355 194.679C811.6 195.315 811.949 195.812 812.404 196.17C812.864 196.523 813.421 196.699 814.074 196.699C814.756 196.699 815.327 196.517 815.787 196.153C816.248 195.784 816.594 195.281 816.827 194.645C817.066 194.003 817.185 193.273 817.185 192.455C817.185 191.642 817.069 190.92 816.836 190.29C816.603 189.659 816.256 189.165 815.796 188.807C815.336 188.449 814.762 188.27 814.074 188.27C813.415 188.27 812.855 188.443 812.395 188.79C811.935 189.136 811.586 189.622 811.347 190.247C811.114 190.872 810.998 191.608 810.998 192.455ZM826.057 191.33V199H822.972V181.545H825.989V188.134H826.142C826.449 187.395 826.924 186.812 827.566 186.386C828.213 185.955 829.037 185.739 830.037 185.739C830.946 185.739 831.739 185.929 832.415 186.31C833.091 186.69 833.614 187.247 833.983 187.98C834.358 188.713 834.546 189.608 834.546 190.665V199H831.461V191.142C831.461 190.261 831.233 189.577 830.779 189.088C830.33 188.594 829.699 188.347 828.887 188.347C828.341 188.347 827.853 188.466 827.421 188.705C826.995 188.937 826.659 189.276 826.415 189.719C826.176 190.162 826.057 190.699 826.057 191.33Z" fill="#9CA3AF"/>
</svg>
