<?xml version="1.0" encoding="UTF-8" standalone="no"?>
<svg
  id="Layer_2"
  viewBox="0 0 779141.62 182927.29"
  version="1.1"
  width="779141.62"
  height="182927.3"
  xmlns="http://www.w3.org/2000/svg"
  xmlns:svg="http://www.w3.org/2000/svg">
  <defs
    id="defs4">
    <linearGradient
      id="linear-gradient"
      x1="489.26999"
      y1="261.78"
      x2="393.42001"
      y2="165.92"
      gradientUnits="userSpaceOnUse">
      <stop
        offset="0"
        stop-color="#fff"
        id="stop1" />
      <stop
        offset="1"
        stop-color="#223f99"
        id="stop2" />
    </linearGradient>
    <linearGradient
      id="linear-gradient-2"
      x1="441.35001"
      y1="309.70999"
      x2="441.35001"
      y2="118"
      gradientUnits="userSpaceOnUse">
      <stop
        offset="0"
        stop-color="#00bf63"
        id="stop3" />
      <stop
        offset="1"
        stop-color="#004aad"
        id="stop4" />
    </linearGradient>
    <style
      id="style4">.cls-1,.cls-2{stroke:#004aad;fill:none;stroke-miterlimit:10;stroke-width:20px}.cls-2{stroke:#00bf63}</style>
  </defs>
  <g
    id="Layer_1-2">
    <path
      style="fill:url(#linear-gradient);stroke:url(#linear-gradient-2);stroke-width:20px;stroke-miterlimit:10"
      d="M 441.35,118 V 309.71"
      id="path4" />
    <path
      class="cls-1"
      d="M 73.88,118 V 407.62"
      id="path5" />
    <circle
      class="cls-1"
      cx="73.879997"
      cy="64.919998"
      r="53.080002"
      id="circle5" />
    <circle
      class="cls-1"
      cx="441.35001"
      cy="64.919998"
      r="53.080002"
      id="circle6" />
    <path
      class="cls-1"
      d="m 116.17,101.97 102.74,90.88"
      id="path6" />
    <circle
      class="cls-1"
      cx="256.79001"
      cy="230.00999"
      r="53.080002"
      id="circle7" />
    <path
      class="cls-1"
      d="M 402.15,101.97 299.41,192.85"
      id="path7" />
    <path
      style="fill:#004aad;stroke-width:0"
      d="m 0,353.44 13.86,-12.82 60.02,57.54 58.98,-57.54 13.6,12.82 -72.58,74.26 z"
      id="path8" />
    <path
      class="cls-2"
      d="M 809.46,304.43 V 14.81"
      id="path9" />
    <circle
      class="cls-2"
      cx="808.81"
      cy="362.79001"
      r="53.080002"
      id="circle9" />
    <circle
      class="cls-2"
      cx="441.35001"
      cy="362.79001"
      r="53.080002"
      id="circle10" />
    <path
      class="cls-2"
      d="M 766.52,325.74 663.78,234.85"
      id="path10" />
    <circle
      class="cls-2"
      cx="625.90002"
      cy="197.69"
      r="53.080002"
      id="circle11" />
    <path
      class="cls-2"
      d="M 480.54,325.74 583.28,234.85"
      id="path11" />
    <path
      style="fill:#ffffff;stroke-width:0"
      d="M 882.69,74.26 868.83,87.08 808.81,29.54 749.83,87.08 736.24,74.26 808.81,0 Z"
      id="path12" />
    <path
      style="fill:#00bf63;stroke-width:0"
      d="m 735.58,75.67 13.86,12.82 60.02,-57.54 58.98,57.54 13.6,-12.82 -72.58,-74.26 z"
      id="path13" />
  </g>
</svg>
