<svg width="678" height="137" viewBox="0 0 678 137" fill="none" xmlns="http://www.w3.org/2000/svg">
<path d="M200.11 110.941V34.0203H233.89C242.64 34.0203 249.346 36.423 254.008 41.2283C258.598 45.9618 260.893 51.8071 260.893 58.764C260.893 66.0796 258.598 71.9607 254.008 76.4074C249.418 80.8541 243.142 83.0774 235.181 83.0774H216.247V110.941H200.11ZM216.247 47.5756V70.3828H232.384C236.401 70.3828 239.485 69.3787 241.636 67.3705C243.788 65.2906 244.864 62.4577 244.864 58.8716C244.864 55.2856 243.788 52.5243 241.636 50.5878C239.485 48.5797 236.472 47.5756 232.599 47.5756H216.247ZM309.528 104.271C304.149 109.794 297.228 112.555 288.764 112.555C280.301 112.555 273.38 109.794 268.001 104.271C262.622 98.6768 259.933 91.7198 259.933 83.4002C259.933 75.0806 262.622 68.1595 268.001 62.637C273.38 57.0427 280.301 54.2456 288.764 54.2456C297.228 54.2456 304.149 57.0427 309.528 62.637C314.907 68.1595 317.596 75.0806 317.596 83.4002C317.596 91.7198 314.907 98.6768 309.528 104.271ZM288.764 101.366C293.139 101.366 296.546 99.7526 298.985 96.5251C301.495 93.226 302.75 88.851 302.75 83.4002C302.75 77.9494 301.495 73.5744 298.985 70.2752C296.546 66.9761 293.139 65.3265 288.764 65.3265C284.318 65.3265 280.875 66.9761 278.437 70.2752C275.998 73.5027 274.779 77.8777 274.779 83.4002C274.779 88.851 275.998 93.226 278.437 96.5251C280.875 99.7526 284.318 101.366 288.764 101.366ZM321.385 110.941V34.0203H336.016V110.941H321.385ZM343.605 129.015V117.504H348.769C354.22 117.504 356.945 114.993 356.945 109.973C356.945 107.534 355.546 102.55 352.749 95.019L337.903 55.7518H353.287L361.463 80.6031L365.014 92.6522H365.229C366.233 87.9903 367.309 83.974 368.456 80.6031L376.202 55.7518H390.941L371.684 112.34C369.532 118.651 367.094 122.99 364.368 125.357C361.714 127.795 357.662 129.015 352.211 129.015H343.605ZM415.932 129.768C408.473 129.768 402.485 128.262 397.966 125.249C393.52 122.237 390.902 118.006 390.113 112.555H404.636C406.071 116.643 409.764 118.687 415.717 118.687C423.894 118.687 427.982 114.85 427.982 107.176V101.151H427.659C423.858 105.454 419.052 107.606 413.243 107.606C406.716 107.606 401.015 105.203 396.137 100.398C391.332 95.5928 388.93 89.2096 388.93 81.2486C388.93 73.0724 391.153 66.5458 395.6 61.6687C400.046 56.72 405.784 54.2456 412.813 54.2456C419.483 54.2456 424.575 56.6841 428.089 61.5612H428.304V55.7518H442.398V106.745C442.398 113.917 440.21 119.512 435.835 123.528C431.388 127.688 424.754 129.768 415.932 129.768ZM415.717 95.8796C420.092 95.8796 423.356 94.4811 425.507 91.684C427.659 88.8868 428.735 85.3008 428.735 80.9258C428.735 76.6226 427.587 73.0724 425.292 70.2752C423.069 67.4064 419.841 65.972 415.61 65.972C411.88 65.972 408.868 67.3347 406.573 70.0601C404.35 72.7855 403.238 76.4433 403.238 81.0334C403.238 85.6953 404.35 89.353 406.573 92.0067C408.868 94.5887 411.916 95.8796 415.717 95.8796ZM462.684 55.7518V64.5734H463.007C464.728 61.346 466.629 58.9792 468.709 57.4731C470.789 55.8952 473.406 55.1063 476.562 55.1063C478.068 55.1063 479.216 55.2497 480.005 55.5366V68.3388H479.682C474.733 67.8367 470.753 68.9126 467.741 71.5662C464.728 74.2199 463.222 78.3797 463.222 84.0457V110.941H448.591V55.7518H462.684ZM516.253 110.941C515.536 110.009 514.962 107.965 514.532 104.809H514.317C512.739 107.176 510.731 109.005 508.292 110.296C505.853 111.587 502.447 112.232 498.072 112.232C492.262 112.232 487.6 110.762 484.086 107.821C480.572 104.881 478.815 100.721 478.815 95.3417C478.815 89.7475 480.751 85.6594 484.624 83.0774C488.497 80.4238 493.948 78.5949 500.976 77.5908C506.14 76.8736 509.655 76.1564 511.519 75.4392C513.384 74.6502 514.317 73.2875 514.317 71.3511C514.317 69.3429 513.528 67.765 511.95 66.6175C510.372 65.3982 508.077 64.7886 505.065 64.7886C498.395 64.7886 494.844 67.3705 494.414 72.5345H481.397C481.612 67.2988 483.728 62.9597 487.744 59.5171C491.76 56.0745 497.57 54.3532 505.172 54.3532C520.664 54.3532 528.41 61.1308 528.41 74.6861V102.765C528.41 106.925 529.055 109.471 530.346 110.403V110.941H516.253ZM501.622 102.012C505.638 102.012 508.794 100.972 511.089 98.8919C513.456 96.812 514.639 94.3376 514.639 91.4688V83.185C513.061 84.1174 509.655 85.1932 504.419 86.4125C500.259 87.3448 497.319 88.4207 495.597 89.6399C493.876 90.7874 493.015 92.5805 493.015 95.019C493.015 99.6808 495.884 102.012 501.622 102.012ZM534.484 129.015V55.7518H548.577V62.637H548.9C552.988 57.0427 558.403 54.2456 565.145 54.2456C572.388 54.2456 578.198 56.9351 582.573 62.3142C586.948 67.6933 589.135 74.722 589.135 83.4002C589.135 92.2936 586.948 99.394 582.573 104.701C578.198 109.937 572.424 112.555 565.252 112.555C558.08 112.555 552.773 109.937 549.33 104.701H549.115V129.015H534.484ZM562.132 100.398C565.862 100.398 568.802 98.9278 570.954 95.9872C573.177 93.0467 574.289 88.9944 574.289 83.8305C574.289 78.308 573.249 73.9689 571.169 70.8132C569.089 67.6574 565.898 66.0796 561.594 66.0796C557.219 66.0796 553.992 67.7292 551.912 71.0283C549.832 74.2558 548.792 78.5232 548.792 83.8305C548.792 88.9227 549.94 92.9749 552.235 95.9872C554.53 98.9278 557.829 100.398 562.132 100.398ZM607.348 34.0203V62.9597H607.67C609.75 59.9474 612.009 57.7599 614.448 56.3972C616.958 54.9628 620.042 54.2456 623.7 54.2456C629.366 54.2456 633.956 56.1821 637.47 60.055C640.985 63.8562 642.742 68.805 642.742 74.9013V110.941H628.111V77.0529C628.111 74.0406 627.25 71.6021 625.529 69.7373C623.879 67.8726 621.548 66.9402 618.536 66.9402C615.309 66.9402 612.619 68.1236 610.467 70.4904C608.388 72.8572 607.348 75.9053 607.348 79.6348V110.941H592.717V34.0203H607.348Z" fill="white" style="fill:white;fill-opacity:1;"/>
<path d="M310.497 128.799V117.33H348.587C354.054 117.33 356.788 114.828 356.788 109.826C356.788 107.396 355.385 102.429 352.579 94.9257L337.688 55.7994H353.119L361.32 80.5616L364.881 92.5674H365.097C366.104 87.9223 367.183 83.9203 368.334 80.5616L376.103 55.7994H390.887L371.738 112.184C369.58 118.473 367.12 122.941 364.387 125.299C361.725 127.729 357.565 129.013 352.097 129.013L310.497 128.799Z" fill="url(#paint0_linear_304_554)"/>
<g clip-path="url(#clip0_304_554)">
<path d="M670.447 47.9668C674.083 47.9668 677.031 45.019 677.031 41.3827C677.031 37.7464 674.083 34.7986 670.447 34.7986C666.811 34.7986 663.863 37.7464 663.863 41.3827C663.863 45.019 666.811 47.9668 670.447 47.9668Z" stroke="white" style="stroke:white;stroke-opacity:1;" stroke-width="1.48793"/>
<path d="M670.046 40.7872C670.456 40.7872 670.753 40.7054 670.932 40.5492C671.11 40.4004 671.207 40.1474 671.207 39.7903C671.207 39.4407 671.11 39.1952 670.932 39.0389C670.753 38.8901 670.456 38.8157 670.046 38.8157H669.213V40.7872H670.046ZM669.213 42.1487V45.0502H667.234V37.3799H670.255C671.267 37.3799 672.003 37.551 672.472 37.8932C672.948 38.228 673.178 38.7637 673.178 39.5002C673.178 40.0061 673.059 40.4227 672.814 40.7501C672.568 41.07 672.204 41.3155 671.705 41.4643C671.981 41.5312 672.219 41.6726 672.435 41.8883C672.65 42.1041 672.866 42.4314 673.082 42.8778L674.161 45.0502H672.055L671.118 43.1456C670.932 42.7662 670.738 42.4984 670.545 42.3645C670.351 42.2231 670.091 42.1487 669.771 42.1487H669.213Z" fill="white" style="fill:white;fill-opacity:1;"/>
</g>
<path d="M96.7786 53.7942C97.9048 55.7447 100.72 55.7447 101.846 53.7942L132.059 1.46349C132.867 0.0641277 134.656 -0.415338 136.055 0.392582L145.627 5.91894C147.027 6.72685 147.506 8.51618 146.698 9.91553L116.486 62.2466C115.36 64.1971 116.767 66.6351 119.02 66.6351L150.269 66.635C151.884 66.635 153.194 67.9449 153.194 69.5608L153.194 80.6135C153.194 82.2293 151.884 83.5392 150.269 83.5392L119.02 83.5393C116.767 83.5393 115.36 85.9774 116.486 87.9279L138.571 126.181C139.379 127.581 138.9 129.37 137.5 130.178L127.929 135.704C126.529 136.512 124.74 136.033 123.932 134.633L101.846 96.38C100.72 94.4295 97.9049 94.4295 96.7788 96.38L81.1539 123.443C80.3459 124.842 78.5566 125.321 77.1573 124.514L67.5853 118.987C66.1859 118.179 65.7065 116.39 66.5144 114.991L82.1394 87.9276C83.2655 85.9771 81.8579 83.5389 79.6057 83.539L2.92574 83.5392C1.3099 83.5392 -1.67575e-06 82.2293 0 80.6134L1.14625e-05 69.5607C1.31383e-05 67.9449 1.3099 66.635 2.92574 66.635L79.6055 66.6349C81.8577 66.6349 83.2653 64.1968 82.1392 62.2463L66.5145 35.1835C65.7065 33.7841 66.186 31.9948 67.5853 31.1868L77.1573 25.6605C78.5567 24.8525 80.346 25.332 81.1539 26.7314L96.7786 53.7942Z" fill="#F59E0B" style="fill:#F59E0B;fill:color(display-p3 0.9608 0.6196 0.0431);fill-opacity:1;"/>
<defs>
<linearGradient id="paint0_linear_304_554" x1="340.271" y1="122.652" x2="313.266" y2="122.652" gradientUnits="userSpaceOnUse">
<stop stop-color="white" style="stop-color:white;stop-opacity:1;"/>
<stop offset="1" stop-color="#666666" stop-opacity="0" style="stop-color:none;stop-opacity:0;"/>
</linearGradient>
<clipPath id="clip0_304_554">
<rect width="14.8793" height="14.8793" fill="white" style="fill:white;fill-opacity:1;" transform="translate(663.007 33.9429)"/>
</clipPath>
</defs>
</svg>
