<svg width="951" height="796" viewBox="0 0 951 796" fill="none" xmlns="http://www.w3.org/2000/svg">
<path d="M842.333 398.315C842.333 345.272 821.262 294.401 783.755 256.894C746.247 219.387 695.377 198.315 642.333 198.315C555.667 198.315 484 266.649 444 388.315C414 479.982 364 531.649 309 531.649C273.638 531.649 239.724 517.601 214.719 492.596C189.714 467.592 175.667 433.678 175.667 398.315C175.667 362.953 189.714 329.039 214.719 304.035C239.724 279.03 273.638 264.982 309 264.982H329L302.333 291.649C298.71 294.856 295.87 298.851 294.031 303.326C292.192 307.802 291.404 312.639 291.725 317.467C292.047 322.295 293.471 326.985 295.888 331.177C298.305 335.369 301.65 338.951 305.667 341.649C312.355 346.491 320.541 348.812 328.776 348.202C337.01 347.592 344.764 344.09 350.667 338.315L432.333 254.982C435.566 252.016 438.148 248.41 439.914 244.393C441.679 240.376 442.591 236.037 442.591 231.649C442.591 227.261 441.679 222.921 439.914 218.905C438.148 214.888 435.566 211.282 432.333 208.315L350.667 124.982C344.764 119.208 337.01 115.706 328.776 115.096C320.541 114.486 312.355 116.807 305.667 121.649C301.65 124.347 298.305 127.929 295.888 132.121C293.471 136.313 292.047 141.003 291.725 145.831C291.404 150.658 292.192 155.496 294.031 159.972C295.87 164.447 298.71 168.442 302.333 171.649L329 198.315H309C255.957 198.315 205.086 219.387 167.579 256.894C130.071 294.401 109 345.272 109 398.315C109 451.359 130.071 502.23 167.579 539.737C205.086 577.244 255.957 598.315 309 598.315C395.667 598.315 467.333 529.982 507.333 408.315C537.333 316.649 587.333 264.982 642.333 264.982C677.696 264.982 711.609 279.03 736.614 304.035C761.619 329.039 775.667 362.953 775.667 398.315C775.667 433.678 761.619 467.592 736.614 492.596C711.609 517.601 677.696 531.649 642.333 531.649H622.333L649 504.982C652.623 501.775 655.463 497.78 657.302 493.305C659.141 488.829 659.93 483.992 659.608 479.164C659.286 474.336 657.862 469.646 655.445 465.454C653.029 461.262 649.683 457.68 645.667 454.982C638.978 450.14 630.793 447.819 622.558 448.429C614.323 449.039 606.569 452.541 600.667 458.315L519 541.649C515.767 544.615 513.186 548.221 511.42 552.238C509.654 556.255 508.742 560.594 508.742 564.982C508.742 569.37 509.654 573.71 511.42 577.726C513.186 581.743 515.767 585.349 519 588.316L600.667 671.649C606.569 677.423 614.323 680.925 622.558 681.535C630.793 682.145 638.978 679.824 645.667 674.982C649.683 672.284 653.029 668.702 655.445 664.51C657.862 660.318 659.286 655.628 659.608 650.8C659.93 645.972 659.141 641.135 657.302 636.659C655.463 632.184 652.623 628.189 649 624.982L622.333 598.315H642.333C695.377 598.315 746.247 577.244 783.755 539.737C821.262 502.23 842.333 451.359 842.333 398.315Z" fill="url(#paint0_linear_84_8)"/>
<defs>
<linearGradient id="paint0_linear_84_8" x1="475.667" y1="681.631" x2="475.667" y2="115" gradientUnits="userSpaceOnUse">
<stop stop-color="#3B82F6"/>
<stop offset="1" stop-color="#06B6D4"/>
</linearGradient>
</defs>
</svg>
