<svg width="1120" height="624" viewBox="0 0 1120 624" fill="none" xmlns="http://www.w3.org/2000/svg">
<path d="M509 75L741 248"  stroke="#dddddd" stroke-width="5"/>
<path d="M871 376L980 496" stroke="#dddddd" stroke-width="5"/>
<path d="M741 376L565 496" stroke="#dddddd" stroke-width="5"/>
<path d="M595 353L237 496" stroke="#dddddd" stroke-width="5"/>
<path d="M273 376L491 496" stroke="#dddddd" stroke-width="5"/>
<path d="M134 376L134 496" stroke="#dddddd" stroke-width="5"/>
<path d="M244 128L146 248" stroke="#dddddd" stroke-width="5"/>
<rect x="201" y="2" width="306" height="124" fill="#ECECFF" stroke="#9370DB" stroke-width="4"/>
<path d="M281.712 67.4385V75H277.733V54.3828H284.785C285.909 54.3828 286.923 54.548 287.83 54.8784C288.736 55.1994 289.51 55.6478 290.152 56.2236C290.784 56.8089 291.271 57.5075 291.61 58.3193C291.96 59.1312 292.134 60.0327 292.134 61.0239C292.134 61.9491 291.96 62.8034 291.61 63.5869C291.271 64.3704 290.784 65.0454 290.152 65.6118C289.51 66.1877 288.736 66.6361 287.83 66.957C286.923 67.278 285.909 67.4385 284.785 67.4385H281.712ZM281.712 64.21H284.785C285.352 64.21 285.842 64.125 286.258 63.9551C286.673 63.7852 287.022 63.5539 287.306 63.2612C287.579 62.9686 287.782 62.6335 287.915 62.2559C288.056 61.8688 288.127 61.4676 288.127 61.0522C288.127 60.5708 288.056 60.1224 287.915 59.707C287.782 59.2917 287.579 58.9282 287.306 58.6167C287.022 58.3052 286.673 58.0597 286.258 57.8804C285.842 57.701 285.352 57.6113 284.785 57.6113H281.712V64.21ZM304.609 75C304.515 74.8112 304.435 74.5941 304.369 74.3486C304.303 74.1032 304.246 73.8436 304.199 73.5698C303.982 73.8058 303.731 74.0277 303.448 74.2354C303.165 74.443 302.854 74.6224 302.514 74.7734C302.164 74.9339 301.782 75.0566 301.367 75.1416C300.951 75.236 300.503 75.2832 300.021 75.2832C299.238 75.2832 298.516 75.1699 297.855 74.9434C297.204 74.7168 296.642 74.4006 296.17 73.9946C295.698 73.5887 295.33 73.1073 295.065 72.5503C294.801 71.9839 294.669 71.3703 294.669 70.7095C294.669 69.8599 294.834 69.1094 295.165 68.458C295.495 67.7972 295.991 67.2544 296.651 66.8296C297.246 66.4425 297.978 66.1499 298.846 65.9517C299.724 65.744 300.729 65.6401 301.862 65.6401H304.057V64.7339C304.057 64.3752 304 64.0542 303.887 63.771C303.774 63.4784 303.604 63.2282 303.377 63.0205C303.141 62.8034 302.844 62.6382 302.485 62.5249C302.136 62.4022 301.725 62.3408 301.253 62.3408C300.838 62.3408 300.479 62.3927 300.177 62.4966C299.875 62.591 299.63 62.7279 299.441 62.9072C299.271 63.0677 299.144 63.2612 299.059 63.4878C298.983 63.7144 298.945 63.9645 298.945 64.2383H295.009C295.009 63.5869 295.15 62.9686 295.434 62.3833C295.726 61.798 296.151 61.2835 296.708 60.8398C297.256 60.3962 297.926 60.0469 298.719 59.792C299.521 59.5277 300.437 59.3955 301.466 59.3955C302.391 59.3955 303.25 59.5088 304.043 59.7354C304.845 59.9619 305.539 60.297 306.125 60.7407C306.71 61.1844 307.168 61.7461 307.498 62.4258C307.828 63.096 307.994 63.8748 307.994 64.7622V71.3325C307.994 72.1538 308.046 72.8335 308.149 73.3716C308.253 73.9097 308.404 74.3722 308.603 74.7593V75H304.609ZM300.857 72.2388C301.253 72.2388 301.622 72.1916 301.961 72.0972C302.301 72.0028 302.608 71.88 302.882 71.729C303.156 71.578 303.392 71.408 303.59 71.2192C303.788 71.021 303.944 70.8228 304.057 70.6245V67.9907H302.046C301.433 67.9907 300.909 68.0521 300.475 68.1748C300.04 68.2881 299.686 68.4486 299.413 68.6562C299.139 68.8734 298.936 69.133 298.804 69.4351C298.672 69.7277 298.605 70.0487 298.605 70.3979C298.605 70.6717 298.653 70.9266 298.747 71.1626C298.851 71.3892 298.997 71.5827 299.186 71.7432C299.375 71.8942 299.606 72.0169 299.88 72.1113C300.163 72.1963 300.489 72.2388 300.857 72.2388ZM319.237 72.1396C319.624 72.1396 319.992 72.083 320.341 71.9697C320.691 71.8564 320.997 71.696 321.262 71.4883C321.526 71.2806 321.729 71.0304 321.871 70.7378C322.022 70.4451 322.088 70.1195 322.069 69.7607H325.779C325.798 70.5537 325.632 71.29 325.283 71.9697C324.943 72.6494 324.476 73.2347 323.881 73.7256C323.287 74.2165 322.593 74.6035 321.8 74.8867C321.016 75.1605 320.186 75.2974 319.308 75.2974C318.118 75.2974 317.075 75.0991 316.178 74.7026C315.281 74.2967 314.536 73.7445 313.941 73.0459C313.337 72.3473 312.879 71.5308 312.567 70.5962C312.265 69.6522 312.114 68.6421 312.114 67.5659V67.1411C312.114 66.0649 312.265 65.0596 312.567 64.125C312.869 63.181 313.323 62.3597 313.927 61.6611C314.531 60.9626 315.277 60.4103 316.164 60.0044C317.061 59.5985 318.099 59.3955 319.279 59.3955C320.223 59.3955 321.097 59.5371 321.899 59.8203C322.701 60.1035 323.395 60.5 323.98 61.0098C324.556 61.529 325.005 62.1567 325.326 62.8931C325.647 63.62 325.798 64.4365 325.779 65.3428H322.069C322.088 64.9652 322.031 64.6064 321.899 64.2666C321.767 63.9268 321.573 63.6341 321.318 63.3887C321.063 63.1432 320.757 62.9497 320.398 62.8081C320.039 62.6571 319.647 62.5815 319.223 62.5815C318.6 62.5815 318.085 62.709 317.679 62.9639C317.273 63.2188 316.952 63.5586 316.716 63.9834C316.471 64.4082 316.296 64.8944 316.192 65.4419C316.098 65.9894 316.051 66.5558 316.051 67.1411V67.5659C316.051 68.1606 316.098 68.7365 316.192 69.2935C316.287 69.841 316.457 70.3224 316.702 70.7378C316.938 71.1626 317.259 71.5024 317.665 71.7573C318.08 72.0122 318.604 72.1396 319.237 72.1396ZM335.634 68.6704L333.85 70.3271V75H329.914V53.25H333.85V65.6826L335.04 64.3232L339.273 59.6787H344.003L338.226 66.0649L344.81 75H339.981L335.634 68.6704ZM356.86 75C356.766 74.8112 356.686 74.5941 356.62 74.3486C356.554 74.1032 356.497 73.8436 356.45 73.5698C356.233 73.8058 355.982 74.0277 355.699 74.2354C355.416 74.443 355.104 74.6224 354.765 74.7734C354.415 74.9339 354.033 75.0566 353.618 75.1416C353.202 75.236 352.754 75.2832 352.272 75.2832C351.489 75.2832 350.767 75.1699 350.106 74.9434C349.455 74.7168 348.893 74.4006 348.421 73.9946C347.949 73.5887 347.581 73.1073 347.316 72.5503C347.052 71.9839 346.92 71.3703 346.92 70.7095C346.92 69.8599 347.085 69.1094 347.416 68.458C347.746 67.7972 348.242 67.2544 348.902 66.8296C349.497 66.4425 350.229 66.1499 351.097 65.9517C351.975 65.744 352.98 65.6401 354.113 65.6401H356.308V64.7339C356.308 64.3752 356.251 64.0542 356.138 63.771C356.025 63.4784 355.855 63.2282 355.628 63.0205C355.392 62.8034 355.095 62.6382 354.736 62.5249C354.387 62.4022 353.976 62.3408 353.504 62.3408C353.089 62.3408 352.73 62.3927 352.428 62.4966C352.126 62.591 351.881 62.7279 351.692 62.9072C351.522 63.0677 351.395 63.2612 351.31 63.4878C351.234 63.7144 351.196 63.9645 351.196 64.2383H347.26C347.26 63.5869 347.401 62.9686 347.685 62.3833C347.977 61.798 348.402 61.2835 348.959 60.8398C349.507 60.3962 350.177 60.0469 350.97 59.792C351.772 59.5277 352.688 59.3955 353.717 59.3955C354.642 59.3955 355.501 59.5088 356.294 59.7354C357.096 59.9619 357.79 60.297 358.375 60.7407C358.961 61.1844 359.419 61.7461 359.749 62.4258C360.079 63.096 360.245 63.8748 360.245 64.7622V71.3325C360.245 72.1538 360.297 72.8335 360.4 73.3716C360.504 73.9097 360.655 74.3722 360.854 74.7593V75H356.86ZM353.108 72.2388C353.504 72.2388 353.873 72.1916 354.212 72.0972C354.552 72.0028 354.859 71.88 355.133 71.729C355.407 71.578 355.643 71.408 355.841 71.2192C356.039 71.021 356.195 70.8228 356.308 70.6245V67.9907H354.297C353.684 67.9907 353.16 68.0521 352.726 68.1748C352.291 68.2881 351.937 68.4486 351.664 68.6562C351.39 68.8734 351.187 69.133 351.055 69.4351C350.923 69.7277 350.856 70.0487 350.856 70.3979C350.856 70.6717 350.904 70.9266 350.998 71.1626C351.102 71.3892 351.248 71.5827 351.437 71.7432C351.626 71.8942 351.857 72.0169 352.131 72.1113C352.414 72.1963 352.74 72.2388 353.108 72.2388ZM364.309 67.2261C364.309 66.0649 364.45 65.0029 364.733 64.04C365.026 63.0771 365.441 62.2511 365.979 61.562C366.518 60.8729 367.169 60.3395 367.934 59.9619C368.698 59.5843 369.562 59.3955 370.525 59.3955C371.044 59.3955 371.516 59.4474 371.941 59.5513C372.375 59.6457 372.767 59.792 373.116 59.9902C373.381 60.1318 373.626 60.3018 373.853 60.5C374.079 60.6888 374.287 60.9012 374.476 61.1372L374.631 59.6787H378.214V74.5044C378.214 75.5428 378.035 76.4679 377.676 77.2798C377.326 78.0916 376.836 78.776 376.203 79.333C375.561 79.89 374.792 80.3101 373.895 80.5933C373.008 80.8859 372.026 81.0322 370.95 81.0322C370.487 81.0322 369.992 80.985 369.463 80.8906C368.934 80.7962 368.41 80.6499 367.891 80.4517C367.372 80.2534 366.881 79.9985 366.418 79.687C365.956 79.3849 365.559 79.0215 365.229 78.5967L366.999 76.2036C367.254 76.4963 367.528 76.7511 367.82 76.9683C368.113 77.1948 368.42 77.3789 368.741 77.5205C369.052 77.6621 369.373 77.766 369.704 77.832C370.043 77.9076 370.393 77.9453 370.751 77.9453C371.327 77.9453 371.837 77.8651 372.281 77.7046C372.734 77.5441 373.111 77.3081 373.414 76.9966C373.687 76.7134 373.895 76.3641 374.037 75.9487C374.188 75.5334 374.263 75.0661 374.263 74.5469V73.6689C374.074 73.8766 373.876 74.0654 373.668 74.2354C373.461 74.4053 373.239 74.5563 373.003 74.6885C372.654 74.8773 372.267 75.0236 371.842 75.1274C371.426 75.2313 370.978 75.2832 370.497 75.2832C369.543 75.2832 368.684 75.0897 367.919 74.7026C367.164 74.3062 366.518 73.7633 365.979 73.0742C365.441 72.3851 365.026 71.5685 364.733 70.6245C364.45 69.6711 364.309 68.6374 364.309 67.5234V67.2261ZM368.259 67.5234C368.259 68.1654 368.321 68.7648 368.443 69.3218C368.576 69.8693 368.774 70.346 369.038 70.752C369.302 71.1673 369.638 71.493 370.043 71.729C370.449 71.965 370.931 72.083 371.488 72.083C371.828 72.083 372.134 72.05 372.408 71.9839C372.691 71.9178 372.946 71.8234 373.173 71.7007C373.409 71.5685 373.617 71.408 373.796 71.2192C373.975 71.0304 374.131 70.818 374.263 70.582V64.0967C374.122 63.8324 373.952 63.6011 373.753 63.4028C373.555 63.2046 373.329 63.0441 373.074 62.9214C372.857 62.8175 372.616 62.7373 372.352 62.6807C372.097 62.624 371.818 62.5957 371.516 62.5957C370.959 62.5957 370.478 62.7184 370.072 62.9639C369.666 63.1999 369.331 63.5256 369.066 63.9409C368.793 64.3657 368.59 64.8613 368.458 65.4277C368.325 65.9847 368.259 66.5841 368.259 67.2261V67.5234ZM389.556 75.2832C388.376 75.2832 387.305 75.0897 386.342 74.7026C385.379 74.3156 384.553 73.7869 383.864 73.1167C383.175 72.4559 382.641 71.6771 382.264 70.7803C381.896 69.874 381.711 68.9064 381.711 67.8774V67.311C381.711 66.1405 381.896 65.0737 382.264 64.1108C382.632 63.1385 383.146 62.3031 383.807 61.6045C384.468 60.9059 385.251 60.3631 386.158 59.9761C387.064 59.589 388.05 59.3955 389.117 59.3955C390.222 59.3955 391.203 59.5796 392.062 59.9478C392.931 60.3065 393.667 60.8162 394.271 61.4771C394.866 62.1379 395.319 62.9355 395.631 63.8701C395.942 64.7952 396.098 65.8195 396.098 66.9429V68.6138H385.705V68.6562C385.837 69.2699 386.007 69.7655 386.214 70.1431C386.422 70.5112 386.701 70.8464 387.05 71.1484C387.409 71.46 387.819 71.7007 388.282 71.8706C388.744 72.0405 389.249 72.1255 389.797 72.1255C390.571 72.1255 391.321 71.9792 392.048 71.6865C392.775 71.3939 393.365 70.9549 393.818 70.3696L395.787 72.4937C395.286 73.2017 394.493 73.8436 393.408 74.4194C392.322 74.9953 391.038 75.2832 389.556 75.2832ZM389.089 62.5815C388.645 62.5815 388.239 62.6618 387.871 62.8223C387.503 62.9733 387.182 63.1951 386.908 63.4878C386.625 63.7804 386.389 64.1297 386.2 64.5356C386.011 64.9416 385.87 65.3947 385.775 65.895H392.232V65.5835C392.232 65.1681 392.157 64.7764 392.006 64.4082C391.855 64.04 391.647 63.7191 391.383 63.4453C391.118 63.181 390.793 62.9733 390.406 62.8223C390.028 62.6618 389.589 62.5815 389.089 62.5815ZM426.599 75H422.62V59.1831L417.409 61.0522V57.6255L426.387 54.3828H426.599V75Z" fill="#333333"/>
<rect x="597" y="250" width="288" height="124" fill="#ECECFF" stroke="#9370DB" stroke-width="4"/>
<path d="M668.741 319.786H678.398V323H664.748V302.383H668.741V319.786ZM683.085 307.679H691.425V319.8H695.574V323H683.085V319.8H687.446V310.893H683.085V307.679ZM687.163 303.756C687.163 303.454 687.215 303.176 687.319 302.921C687.432 302.657 687.588 302.43 687.786 302.241C687.984 302.062 688.22 301.92 688.494 301.816C688.777 301.713 689.089 301.661 689.429 301.661C690.127 301.661 690.68 301.859 691.085 302.255C691.501 302.642 691.708 303.143 691.708 303.756C691.708 304.37 691.501 304.875 691.085 305.271C690.68 305.659 690.127 305.852 689.429 305.852C689.089 305.852 688.777 305.8 688.494 305.696C688.22 305.592 687.984 305.446 687.786 305.257C687.588 305.078 687.432 304.861 687.319 304.606C687.215 304.342 687.163 304.058 687.163 303.756ZM713.26 315.495C713.26 316.231 713.208 316.93 713.104 317.591C713.001 318.242 712.85 318.846 712.651 319.403C712.434 320.017 712.146 320.574 711.788 321.074C711.438 321.575 711.023 321.99 710.542 322.32C710.107 322.632 709.616 322.868 709.069 323.028C708.531 323.198 707.936 323.283 707.285 323.283C706.69 323.283 706.147 323.208 705.656 323.057C705.175 322.915 704.741 322.703 704.354 322.419C704.146 322.278 703.952 322.122 703.773 321.952C703.594 321.773 703.424 321.579 703.263 321.372L703.079 323H699.539V301.25H703.476V309.066C703.664 308.849 703.867 308.651 704.084 308.472C704.302 308.283 704.533 308.122 704.778 307.99C705.128 307.792 705.505 307.646 705.911 307.551C706.326 307.447 706.775 307.396 707.256 307.396C707.917 307.396 708.521 307.48 709.069 307.65C709.626 307.82 710.121 308.066 710.556 308.387C710.905 308.632 711.221 308.93 711.504 309.279C711.788 309.619 712.038 309.992 712.255 310.397C712.595 311.049 712.845 311.78 713.005 312.592C713.175 313.404 713.26 314.273 713.26 315.198V315.495ZM709.324 315.198C709.324 314.792 709.305 314.4 709.267 314.022C709.229 313.645 709.168 313.291 709.083 312.96C708.979 312.573 708.842 312.229 708.672 311.927C708.512 311.615 708.266 311.332 707.936 311.077C707.719 310.917 707.473 310.799 707.2 310.723C706.926 310.638 706.614 310.596 706.265 310.596C705.793 310.596 705.378 310.662 705.019 310.794C704.66 310.926 704.354 311.12 704.099 311.375C703.976 311.497 703.863 311.639 703.759 311.799C703.655 311.95 703.561 312.116 703.476 312.295V318.398C703.589 318.634 703.716 318.851 703.858 319.049C704.009 319.238 704.184 319.403 704.382 319.545C704.618 319.724 704.892 319.861 705.203 319.956C705.524 320.05 705.888 320.097 706.293 320.097C706.643 320.097 706.959 320.055 707.242 319.97C707.525 319.885 707.771 319.767 707.979 319.616C708.271 319.408 708.507 319.139 708.687 318.809C708.875 318.469 709.017 318.086 709.111 317.662C709.187 317.35 709.239 317.01 709.267 316.642C709.305 316.274 709.324 315.892 709.324 315.495V315.198ZM727.874 307.396C728.468 307.396 729.016 307.438 729.516 307.523C730.026 307.598 730.437 307.683 730.748 307.778L730.167 311.7C729.648 311.577 729.115 311.488 728.567 311.431C728.029 311.365 727.515 311.332 727.024 311.332C726.514 311.332 726.052 311.379 725.636 311.474C725.23 311.559 724.867 311.691 724.546 311.87C724.159 312.078 723.828 312.342 723.555 312.663C723.281 312.984 723.054 313.362 722.875 313.796V323H718.938V307.679H722.606L722.762 309.845L722.79 310.185C723.413 309.317 724.159 308.637 725.027 308.146C725.896 307.646 726.845 307.396 727.874 307.396ZM743.86 323C743.766 322.811 743.686 322.594 743.62 322.349C743.554 322.103 743.497 321.844 743.45 321.57C743.233 321.806 742.982 322.028 742.699 322.235C742.416 322.443 742.104 322.622 741.765 322.773C741.415 322.934 741.033 323.057 740.618 323.142C740.202 323.236 739.754 323.283 739.272 323.283C738.489 323.283 737.767 323.17 737.106 322.943C736.455 322.717 735.893 322.401 735.421 321.995C734.949 321.589 734.581 321.107 734.316 320.55C734.052 319.984 733.92 319.37 733.92 318.709C733.92 317.86 734.085 317.109 734.416 316.458C734.746 315.797 735.242 315.254 735.902 314.83C736.497 314.443 737.229 314.15 738.097 313.952C738.975 313.744 739.98 313.64 741.113 313.64H743.308V312.734C743.308 312.375 743.251 312.054 743.138 311.771C743.025 311.478 742.855 311.228 742.628 311.021C742.392 310.803 742.095 310.638 741.736 310.525C741.387 310.402 740.976 310.341 740.504 310.341C740.089 310.341 739.73 310.393 739.428 310.497C739.126 310.591 738.881 310.728 738.692 310.907C738.522 311.068 738.395 311.261 738.31 311.488C738.234 311.714 738.196 311.965 738.196 312.238H734.26C734.26 311.587 734.401 310.969 734.685 310.383C734.977 309.798 735.402 309.284 735.959 308.84C736.507 308.396 737.177 308.047 737.97 307.792C738.772 307.528 739.688 307.396 740.717 307.396C741.642 307.396 742.501 307.509 743.294 307.735C744.096 307.962 744.79 308.297 745.375 308.741C745.961 309.184 746.419 309.746 746.749 310.426C747.079 311.096 747.245 311.875 747.245 312.762V319.333C747.245 320.154 747.297 320.833 747.4 321.372C747.504 321.91 747.655 322.372 747.854 322.759V323H743.86ZM740.108 320.239C740.504 320.239 740.873 320.192 741.212 320.097C741.552 320.003 741.859 319.88 742.133 319.729C742.407 319.578 742.643 319.408 742.841 319.219C743.039 319.021 743.195 318.823 743.308 318.625V315.991H741.297C740.684 315.991 740.16 316.052 739.726 316.175C739.291 316.288 738.937 316.449 738.664 316.656C738.39 316.873 738.187 317.133 738.055 317.435C737.923 317.728 737.856 318.049 737.856 318.398C737.856 318.672 737.904 318.927 737.998 319.163C738.102 319.389 738.248 319.583 738.437 319.743C738.626 319.894 738.857 320.017 739.131 320.111C739.414 320.196 739.74 320.239 740.108 320.239ZM762.708 307.396C763.302 307.396 763.85 307.438 764.35 307.523C764.86 307.598 765.271 307.683 765.582 307.778L765.001 311.7C764.482 311.577 763.949 311.488 763.401 311.431C762.863 311.365 762.349 311.332 761.858 311.332C761.348 311.332 760.886 311.379 760.47 311.474C760.064 311.559 759.701 311.691 759.38 311.87C758.993 312.078 758.662 312.342 758.389 312.663C758.115 312.984 757.888 313.362 757.709 313.796V323H753.772V307.679H757.44L757.596 309.845L757.624 310.185C758.247 309.317 758.993 308.637 759.861 308.146C760.73 307.646 761.679 307.396 762.708 307.396ZM771.543 329.188C771.166 329.188 770.835 329.164 770.552 329.117C770.278 329.07 769.972 328.999 769.632 328.905L770.113 325.903C770.274 325.903 770.477 325.908 770.722 325.917C770.977 325.936 771.18 325.945 771.331 325.945C771.643 325.945 771.916 325.846 772.152 325.648C772.398 325.459 772.605 325.251 772.775 325.025C772.945 324.798 773.068 324.628 773.144 324.515C773.229 324.402 773.328 324.241 773.441 324.034L774.347 322.349L767.862 307.679H772.167L775.678 316.656L776.103 318.214L776.684 316.685L780.181 307.679H784.528L776.754 325.294C776.584 325.681 776.363 326.101 776.089 326.554C775.825 327.007 775.489 327.427 775.083 327.814C774.678 328.201 774.182 328.527 773.597 328.792C773.021 329.056 772.336 329.188 771.543 329.188ZM803.786 323V302.383H810.71C811.834 302.383 812.853 302.496 813.769 302.723C814.694 302.949 815.482 303.294 816.134 303.756C816.785 304.219 817.285 304.804 817.635 305.512C817.993 306.22 818.173 307.056 818.173 308.019C818.163 308.642 818.05 309.232 817.833 309.789C817.625 310.336 817.314 310.818 816.898 311.233C816.672 311.459 816.412 311.667 816.12 311.856C815.836 312.045 815.52 312.205 815.171 312.337V312.352C815.851 312.54 816.389 312.781 816.785 313.074C817.191 313.366 817.531 313.706 817.805 314.093C818.088 314.509 818.296 314.962 818.428 315.453C818.569 315.934 818.64 316.434 818.64 316.954C818.64 317.945 818.47 318.818 818.13 319.573C817.791 320.328 817.304 320.961 816.672 321.471C816.039 321.98 815.27 322.363 814.364 322.618C813.458 322.873 812.438 323 811.305 323H803.786ZM807.779 313.909V319.786H811.319C811.839 319.786 812.301 319.72 812.707 319.587C813.122 319.455 813.467 319.276 813.741 319.049C814.043 318.794 814.269 318.488 814.42 318.129C814.581 317.77 814.661 317.369 814.661 316.925C814.661 316.463 814.6 316.047 814.477 315.679C814.364 315.311 814.18 315 813.925 314.745C813.67 314.48 813.34 314.277 812.934 314.136C812.528 313.994 812.046 313.919 811.489 313.909H807.779ZM807.779 311.035H810.739C811.343 311.025 811.876 310.954 812.339 310.822C812.801 310.681 813.174 310.473 813.458 310.199C813.694 309.982 813.873 309.718 813.996 309.406C814.128 309.095 814.194 308.741 814.194 308.344C814.194 307.929 814.137 307.565 814.024 307.254C813.92 306.942 813.76 306.683 813.542 306.475C813.259 306.182 812.877 305.97 812.396 305.838C811.924 305.706 811.367 305.635 810.725 305.625H807.779V311.035Z" fill="#333333"/>
<rect x="2" y="250" width="288" height="124" fill="#ECECFF" stroke="#9370DB" stroke-width="4"/>
<path d="M73.7407 319.786H83.3979V323H69.7476V302.383H73.7407V319.786ZM88.085 307.679H96.4253V319.8H100.574V323H88.085V319.8H92.4463V310.893H88.085V307.679ZM92.1631 303.756C92.1631 303.454 92.215 303.176 92.3188 302.921C92.4321 302.657 92.5879 302.43 92.7861 302.241C92.9844 302.062 93.2204 301.92 93.4941 301.816C93.7773 301.713 94.0889 301.661 94.4287 301.661C95.1273 301.661 95.6795 301.859 96.0854 302.255C96.5008 302.642 96.7085 303.143 96.7085 303.756C96.7085 304.37 96.5008 304.875 96.0854 305.271C95.6795 305.659 95.1273 305.852 94.4287 305.852C94.0889 305.852 93.7773 305.8 93.4941 305.696C93.2204 305.592 92.9844 305.446 92.7861 305.257C92.5879 305.078 92.4321 304.861 92.3188 304.606C92.215 304.342 92.1631 304.058 92.1631 303.756ZM118.26 315.495C118.26 316.231 118.208 316.93 118.104 317.591C118.001 318.242 117.85 318.846 117.651 319.403C117.434 320.017 117.146 320.574 116.788 321.074C116.438 321.575 116.023 321.99 115.542 322.32C115.107 322.632 114.616 322.868 114.069 323.028C113.531 323.198 112.936 323.283 112.285 323.283C111.69 323.283 111.147 323.208 110.656 323.057C110.175 322.915 109.741 322.703 109.354 322.419C109.146 322.278 108.952 322.122 108.773 321.952C108.594 321.773 108.424 321.579 108.263 321.372L108.079 323H104.539V301.25H108.476V309.066C108.664 308.849 108.867 308.651 109.084 308.472C109.302 308.283 109.533 308.122 109.778 307.99C110.128 307.792 110.505 307.646 110.911 307.551C111.326 307.447 111.775 307.396 112.256 307.396C112.917 307.396 113.521 307.48 114.069 307.65C114.626 307.82 115.121 308.066 115.556 308.387C115.905 308.632 116.221 308.93 116.504 309.279C116.788 309.619 117.038 309.992 117.255 310.397C117.595 311.049 117.845 311.78 118.005 312.592C118.175 313.404 118.26 314.273 118.26 315.198V315.495ZM114.324 315.198C114.324 314.792 114.305 314.4 114.267 314.022C114.229 313.645 114.168 313.291 114.083 312.96C113.979 312.573 113.842 312.229 113.672 311.927C113.512 311.615 113.266 311.332 112.936 311.077C112.719 310.917 112.473 310.799 112.2 310.723C111.926 310.638 111.614 310.596 111.265 310.596C110.793 310.596 110.378 310.662 110.019 310.794C109.66 310.926 109.354 311.12 109.099 311.375C108.976 311.497 108.863 311.639 108.759 311.799C108.655 311.95 108.561 312.116 108.476 312.295V318.398C108.589 318.634 108.716 318.851 108.858 319.049C109.009 319.238 109.184 319.403 109.382 319.545C109.618 319.724 109.892 319.861 110.203 319.956C110.524 320.05 110.888 320.097 111.293 320.097C111.643 320.097 111.959 320.055 112.242 319.97C112.525 319.885 112.771 319.767 112.979 319.616C113.271 319.408 113.507 319.139 113.687 318.809C113.875 318.469 114.017 318.086 114.111 317.662C114.187 317.35 114.239 317.01 114.267 316.642C114.305 316.274 114.324 315.892 114.324 315.495V315.198ZM132.874 307.396C133.468 307.396 134.016 307.438 134.516 307.523C135.026 307.598 135.437 307.683 135.748 307.778L135.167 311.7C134.648 311.577 134.115 311.488 133.567 311.431C133.029 311.365 132.515 311.332 132.024 311.332C131.514 311.332 131.052 311.379 130.636 311.474C130.23 311.559 129.867 311.691 129.546 311.87C129.159 312.078 128.828 312.342 128.555 312.663C128.281 312.984 128.054 313.362 127.875 313.796V323H123.938V307.679H127.606L127.762 309.845L127.79 310.185C128.413 309.317 129.159 308.637 130.027 308.146C130.896 307.646 131.845 307.396 132.874 307.396ZM148.86 323C148.766 322.811 148.686 322.594 148.62 322.349C148.554 322.103 148.497 321.844 148.45 321.57C148.233 321.806 147.982 322.028 147.699 322.235C147.416 322.443 147.104 322.622 146.765 322.773C146.415 322.934 146.033 323.057 145.618 323.142C145.202 323.236 144.754 323.283 144.272 323.283C143.489 323.283 142.767 323.17 142.106 322.943C141.455 322.717 140.893 322.401 140.421 321.995C139.949 321.589 139.581 321.107 139.316 320.55C139.052 319.984 138.92 319.37 138.92 318.709C138.92 317.86 139.085 317.109 139.416 316.458C139.746 315.797 140.242 315.254 140.902 314.83C141.497 314.443 142.229 314.15 143.097 313.952C143.975 313.744 144.98 313.64 146.113 313.64H148.308V312.734C148.308 312.375 148.251 312.054 148.138 311.771C148.025 311.478 147.855 311.228 147.628 311.021C147.392 310.803 147.095 310.638 146.736 310.525C146.387 310.402 145.976 310.341 145.504 310.341C145.089 310.341 144.73 310.393 144.428 310.497C144.126 310.591 143.881 310.728 143.692 310.907C143.522 311.068 143.395 311.261 143.31 311.488C143.234 311.714 143.196 311.965 143.196 312.238H139.26C139.26 311.587 139.401 310.969 139.685 310.383C139.977 309.798 140.402 309.284 140.959 308.84C141.507 308.396 142.177 308.047 142.97 307.792C143.772 307.528 144.688 307.396 145.717 307.396C146.642 307.396 147.501 307.509 148.294 307.735C149.096 307.962 149.79 308.297 150.375 308.741C150.961 309.184 151.419 309.746 151.749 310.426C152.079 311.096 152.245 311.875 152.245 312.762V319.333C152.245 320.154 152.297 320.833 152.4 321.372C152.504 321.91 152.655 322.372 152.854 322.759V323H148.86ZM145.108 320.239C145.504 320.239 145.873 320.192 146.212 320.097C146.552 320.003 146.859 319.88 147.133 319.729C147.407 319.578 147.643 319.408 147.841 319.219C148.039 319.021 148.195 318.823 148.308 318.625V315.991H146.297C145.684 315.991 145.16 316.052 144.726 316.175C144.291 316.288 143.937 316.449 143.664 316.656C143.39 316.873 143.187 317.133 143.055 317.435C142.923 317.728 142.856 318.049 142.856 318.398C142.856 318.672 142.904 318.927 142.998 319.163C143.102 319.389 143.248 319.583 143.437 319.743C143.626 319.894 143.857 320.017 144.131 320.111C144.414 320.196 144.74 320.239 145.108 320.239ZM167.708 307.396C168.302 307.396 168.85 307.438 169.35 307.523C169.86 307.598 170.271 307.683 170.582 307.778L170.001 311.7C169.482 311.577 168.949 311.488 168.401 311.431C167.863 311.365 167.349 311.332 166.858 311.332C166.348 311.332 165.886 311.379 165.47 311.474C165.064 311.559 164.701 311.691 164.38 311.87C163.993 312.078 163.662 312.342 163.389 312.663C163.115 312.984 162.888 313.362 162.709 313.796V323H158.772V307.679H162.44L162.596 309.845L162.624 310.185C163.247 309.317 163.993 308.637 164.861 308.146C165.73 307.646 166.679 307.396 167.708 307.396ZM176.543 329.188C176.166 329.188 175.835 329.164 175.552 329.117C175.278 329.07 174.972 328.999 174.632 328.905L175.113 325.903C175.274 325.903 175.477 325.908 175.722 325.917C175.977 325.936 176.18 325.945 176.331 325.945C176.643 325.945 176.916 325.846 177.152 325.648C177.398 325.459 177.605 325.251 177.775 325.025C177.945 324.798 178.068 324.628 178.144 324.515C178.229 324.402 178.328 324.241 178.441 324.034L179.347 322.349L172.862 307.679H177.167L180.678 316.656L181.103 318.214L181.684 316.685L185.181 307.679H189.528L181.754 325.294C181.584 325.681 181.363 326.101 181.089 326.554C180.825 327.007 180.489 327.427 180.083 327.814C179.678 328.201 179.182 328.527 178.597 328.792C178.021 329.056 177.336 329.188 176.543 329.188ZM218.953 318.695H212.765L211.547 323H207.356L214.11 302.383H217.721L224.348 323H220.157L218.953 318.695ZM213.742 315.311H218.019L215.909 307.721L213.742 315.311Z" fill="#333333"/>
<rect x="2" y="498" width="288" height="124" fill="#ECECFF" stroke="#9370DB" stroke-width="4"/>
<path d="M73.7407 567.786H83.3979V571H69.7476V550.383H73.7407V567.786ZM88.085 555.679H96.4253V567.8H100.574V571H88.085V567.8H92.4463V558.893H88.085V555.679ZM92.1631 551.756C92.1631 551.454 92.215 551.176 92.3188 550.921C92.4321 550.657 92.5879 550.43 92.7861 550.241C92.9844 550.062 93.2204 549.92 93.4941 549.816C93.7773 549.713 94.0889 549.661 94.4287 549.661C95.1273 549.661 95.6795 549.859 96.0854 550.255C96.5008 550.642 96.7085 551.143 96.7085 551.756C96.7085 552.37 96.5008 552.875 96.0854 553.271C95.6795 553.659 95.1273 553.852 94.4287 553.852C94.0889 553.852 93.7773 553.8 93.4941 553.696C93.2204 553.592 92.9844 553.446 92.7861 553.257C92.5879 553.078 92.4321 552.861 92.3188 552.606C92.215 552.342 92.1631 552.058 92.1631 551.756ZM118.26 563.495C118.26 564.231 118.208 564.93 118.104 565.591C118.001 566.242 117.85 566.846 117.651 567.403C117.434 568.017 117.146 568.574 116.788 569.074C116.438 569.575 116.023 569.99 115.542 570.32C115.107 570.632 114.616 570.868 114.069 571.028C113.531 571.198 112.936 571.283 112.285 571.283C111.69 571.283 111.147 571.208 110.656 571.057C110.175 570.915 109.741 570.703 109.354 570.419C109.146 570.278 108.952 570.122 108.773 569.952C108.594 569.773 108.424 569.579 108.263 569.372L108.079 571H104.539V549.25H108.476V557.066C108.664 556.849 108.867 556.651 109.084 556.472C109.302 556.283 109.533 556.122 109.778 555.99C110.128 555.792 110.505 555.646 110.911 555.551C111.326 555.447 111.775 555.396 112.256 555.396C112.917 555.396 113.521 555.48 114.069 555.65C114.626 555.82 115.121 556.066 115.556 556.387C115.905 556.632 116.221 556.93 116.504 557.279C116.788 557.619 117.038 557.992 117.255 558.397C117.595 559.049 117.845 559.78 118.005 560.592C118.175 561.404 118.26 562.273 118.26 563.198V563.495ZM114.324 563.198C114.324 562.792 114.305 562.4 114.267 562.022C114.229 561.645 114.168 561.291 114.083 560.96C113.979 560.573 113.842 560.229 113.672 559.927C113.512 559.615 113.266 559.332 112.936 559.077C112.719 558.917 112.473 558.799 112.2 558.723C111.926 558.638 111.614 558.596 111.265 558.596C110.793 558.596 110.378 558.662 110.019 558.794C109.66 558.926 109.354 559.12 109.099 559.375C108.976 559.497 108.863 559.639 108.759 559.799C108.655 559.95 108.561 560.116 108.476 560.295V566.398C108.589 566.634 108.716 566.851 108.858 567.049C109.009 567.238 109.184 567.403 109.382 567.545C109.618 567.724 109.892 567.861 110.203 567.956C110.524 568.05 110.888 568.097 111.293 568.097C111.643 568.097 111.959 568.055 112.242 567.97C112.525 567.885 112.771 567.767 112.979 567.616C113.271 567.408 113.507 567.139 113.687 566.809C113.875 566.469 114.017 566.086 114.111 565.662C114.187 565.35 114.239 565.01 114.267 564.642C114.305 564.274 114.324 563.892 114.324 563.495V563.198ZM132.874 555.396C133.468 555.396 134.016 555.438 134.516 555.523C135.026 555.598 135.437 555.683 135.748 555.778L135.167 559.7C134.648 559.577 134.115 559.488 133.567 559.431C133.029 559.365 132.515 559.332 132.024 559.332C131.514 559.332 131.052 559.379 130.636 559.474C130.23 559.559 129.867 559.691 129.546 559.87C129.159 560.078 128.828 560.342 128.555 560.663C128.281 560.984 128.054 561.362 127.875 561.796V571H123.938V555.679H127.606L127.762 557.845L127.79 558.185C128.413 557.317 129.159 556.637 130.027 556.146C130.896 555.646 131.845 555.396 132.874 555.396ZM148.86 571C148.766 570.811 148.686 570.594 148.62 570.349C148.554 570.103 148.497 569.844 148.45 569.57C148.233 569.806 147.982 570.028 147.699 570.235C147.416 570.443 147.104 570.622 146.765 570.773C146.415 570.934 146.033 571.057 145.618 571.142C145.202 571.236 144.754 571.283 144.272 571.283C143.489 571.283 142.767 571.17 142.106 570.943C141.455 570.717 140.893 570.401 140.421 569.995C139.949 569.589 139.581 569.107 139.316 568.55C139.052 567.984 138.92 567.37 138.92 566.709C138.92 565.86 139.085 565.109 139.416 564.458C139.746 563.797 140.242 563.254 140.902 562.83C141.497 562.443 142.229 562.15 143.097 561.952C143.975 561.744 144.98 561.64 146.113 561.64H148.308V560.734C148.308 560.375 148.251 560.054 148.138 559.771C148.025 559.478 147.855 559.228 147.628 559.021C147.392 558.803 147.095 558.638 146.736 558.525C146.387 558.402 145.976 558.341 145.504 558.341C145.089 558.341 144.73 558.393 144.428 558.497C144.126 558.591 143.881 558.728 143.692 558.907C143.522 559.068 143.395 559.261 143.31 559.488C143.234 559.714 143.196 559.965 143.196 560.238H139.26C139.26 559.587 139.401 558.969 139.685 558.383C139.977 557.798 140.402 557.284 140.959 556.84C141.507 556.396 142.177 556.047 142.97 555.792C143.772 555.528 144.688 555.396 145.717 555.396C146.642 555.396 147.501 555.509 148.294 555.735C149.096 555.962 149.79 556.297 150.375 556.741C150.961 557.184 151.419 557.746 151.749 558.426C152.079 559.096 152.245 559.875 152.245 560.762V567.333C152.245 568.154 152.297 568.833 152.4 569.372C152.504 569.91 152.655 570.372 152.854 570.759V571H148.86ZM145.108 568.239C145.504 568.239 145.873 568.192 146.212 568.097C146.552 568.003 146.859 567.88 147.133 567.729C147.407 567.578 147.643 567.408 147.841 567.219C148.039 567.021 148.195 566.823 148.308 566.625V563.991H146.297C145.684 563.991 145.16 564.052 144.726 564.175C144.291 564.288 143.937 564.449 143.664 564.656C143.39 564.873 143.187 565.133 143.055 565.435C142.923 565.728 142.856 566.049 142.856 566.398C142.856 566.672 142.904 566.927 142.998 567.163C143.102 567.389 143.248 567.583 143.437 567.743C143.626 567.894 143.857 568.017 144.131 568.111C144.414 568.196 144.74 568.239 145.108 568.239ZM167.708 555.396C168.302 555.396 168.85 555.438 169.35 555.523C169.86 555.598 170.271 555.683 170.582 555.778L170.001 559.7C169.482 559.577 168.949 559.488 168.401 559.431C167.863 559.365 167.349 559.332 166.858 559.332C166.348 559.332 165.886 559.379 165.47 559.474C165.064 559.559 164.701 559.691 164.38 559.87C163.993 560.078 163.662 560.342 163.389 560.663C163.115 560.984 162.888 561.362 162.709 561.796V571H158.772V555.679H162.44L162.596 557.845L162.624 558.185C163.247 557.317 163.993 556.637 164.861 556.146C165.73 555.646 166.679 555.396 167.708 555.396ZM176.543 577.188C176.166 577.188 175.835 577.164 175.552 577.117C175.278 577.07 174.972 576.999 174.632 576.905L175.113 573.903C175.274 573.903 175.477 573.908 175.722 573.917C175.977 573.936 176.18 573.945 176.331 573.945C176.643 573.945 176.916 573.846 177.152 573.648C177.398 573.459 177.605 573.251 177.775 573.025C177.945 572.798 178.068 572.628 178.144 572.515C178.229 572.402 178.328 572.241 178.441 572.034L179.347 570.349L172.862 555.679H177.167L180.678 564.656L181.103 566.214L181.684 564.685L185.181 555.679H189.528L181.754 573.294C181.584 573.681 181.363 574.101 181.089 574.554C180.825 575.007 180.489 575.427 180.083 575.814C179.678 576.201 179.182 576.527 178.597 576.792C178.021 577.056 177.336 577.188 176.543 577.188ZM223.13 564.543C223.064 565.581 222.838 566.516 222.451 567.347C222.073 568.177 221.563 568.885 220.921 569.471C220.279 570.056 219.515 570.509 218.627 570.83C217.74 571.142 216.758 571.297 215.682 571.297C214.833 571.297 214.044 571.189 213.317 570.972C212.6 570.745 211.953 570.424 211.377 570.009C210.849 569.622 210.377 569.154 209.961 568.607C209.556 568.059 209.211 567.455 208.928 566.794C208.654 566.134 208.442 565.407 208.291 564.614C208.149 563.821 208.078 562.981 208.078 562.093V559.318C208.078 558.487 208.144 557.699 208.276 556.953C208.409 556.198 208.607 555.499 208.871 554.857C209.173 554.074 209.57 553.375 210.061 552.762C210.551 552.148 211.108 551.629 211.731 551.204C212.288 550.845 212.897 550.572 213.558 550.383C214.228 550.185 214.946 550.085 215.71 550.085C216.843 550.085 217.849 550.246 218.727 550.567C219.614 550.888 220.369 551.346 220.992 551.94C221.615 552.535 222.106 553.262 222.465 554.121C222.824 554.98 223.05 555.948 223.145 557.024H219.18C219.142 556.41 219.048 555.872 218.896 555.41C218.755 554.947 218.547 554.56 218.273 554.249C217.99 553.946 217.636 553.72 217.211 553.569C216.796 553.408 216.296 553.328 215.71 553.328C215.399 553.328 215.106 553.361 214.833 553.427C214.568 553.493 214.323 553.592 214.096 553.725C213.709 553.951 213.379 554.277 213.105 554.702C212.841 555.117 212.628 555.603 212.468 556.16C212.345 556.594 212.255 557.076 212.199 557.604C212.142 558.124 212.114 558.685 212.114 559.29V562.093C212.114 562.915 212.156 563.651 212.241 564.302C212.336 564.944 212.477 565.506 212.666 565.987C212.798 566.318 212.954 566.61 213.133 566.865C213.322 567.12 213.535 567.333 213.771 567.502C214.025 567.691 214.309 567.833 214.62 567.927C214.941 568.012 215.295 568.055 215.682 568.055C216.201 568.055 216.669 567.989 217.084 567.856C217.499 567.724 217.853 567.517 218.146 567.233C218.439 566.95 218.67 566.587 218.84 566.143C219.01 565.699 219.114 565.166 219.151 564.543H223.13Z" fill="#333333"/>
<rect x="416" y="498" width="288" height="124" fill="#ECECFF" stroke="#9370DB" stroke-width="4"/>
<path d="M487.741 567.786H497.398V571H483.748V550.383H487.741V567.786ZM502.085 555.679H510.425V567.8H514.574V571H502.085V567.8H506.446V558.893H502.085V555.679ZM506.163 551.756C506.163 551.454 506.215 551.176 506.319 550.921C506.432 550.657 506.588 550.43 506.786 550.241C506.984 550.062 507.22 549.92 507.494 549.816C507.777 549.713 508.089 549.661 508.429 549.661C509.127 549.661 509.68 549.859 510.085 550.255C510.501 550.642 510.708 551.143 510.708 551.756C510.708 552.37 510.501 552.875 510.085 553.271C509.68 553.659 509.127 553.852 508.429 553.852C508.089 553.852 507.777 553.8 507.494 553.696C507.22 553.592 506.984 553.446 506.786 553.257C506.588 553.078 506.432 552.861 506.319 552.606C506.215 552.342 506.163 552.058 506.163 551.756ZM532.26 563.495C532.26 564.231 532.208 564.93 532.104 565.591C532.001 566.242 531.85 566.846 531.651 567.403C531.434 568.017 531.146 568.574 530.788 569.074C530.438 569.575 530.023 569.99 529.542 570.32C529.107 570.632 528.616 570.868 528.069 571.028C527.531 571.198 526.936 571.283 526.285 571.283C525.69 571.283 525.147 571.208 524.656 571.057C524.175 570.915 523.741 570.703 523.354 570.419C523.146 570.278 522.952 570.122 522.773 569.952C522.594 569.773 522.424 569.579 522.263 569.372L522.079 571H518.539V549.25H522.476V557.066C522.664 556.849 522.867 556.651 523.084 556.472C523.302 556.283 523.533 556.122 523.778 555.99C524.128 555.792 524.505 555.646 524.911 555.551C525.326 555.447 525.775 555.396 526.256 555.396C526.917 555.396 527.521 555.48 528.069 555.65C528.626 555.82 529.121 556.066 529.556 556.387C529.905 556.632 530.221 556.93 530.504 557.279C530.788 557.619 531.038 557.992 531.255 558.397C531.595 559.049 531.845 559.78 532.005 560.592C532.175 561.404 532.26 562.273 532.26 563.198V563.495ZM528.324 563.198C528.324 562.792 528.305 562.4 528.267 562.022C528.229 561.645 528.168 561.291 528.083 560.96C527.979 560.573 527.842 560.229 527.672 559.927C527.512 559.615 527.266 559.332 526.936 559.077C526.719 558.917 526.473 558.799 526.2 558.723C525.926 558.638 525.614 558.596 525.265 558.596C524.793 558.596 524.378 558.662 524.019 558.794C523.66 558.926 523.354 559.12 523.099 559.375C522.976 559.497 522.863 559.639 522.759 559.799C522.655 559.95 522.561 560.116 522.476 560.295V566.398C522.589 566.634 522.716 566.851 522.858 567.049C523.009 567.238 523.184 567.403 523.382 567.545C523.618 567.724 523.892 567.861 524.203 567.956C524.524 568.05 524.888 568.097 525.293 568.097C525.643 568.097 525.959 568.055 526.242 567.97C526.525 567.885 526.771 567.767 526.979 567.616C527.271 567.408 527.507 567.139 527.687 566.809C527.875 566.469 528.017 566.086 528.111 565.662C528.187 565.35 528.239 565.01 528.267 564.642C528.305 564.274 528.324 563.892 528.324 563.495V563.198ZM546.874 555.396C547.468 555.396 548.016 555.438 548.516 555.523C549.026 555.598 549.437 555.683 549.748 555.778L549.167 559.7C548.648 559.577 548.115 559.488 547.567 559.431C547.029 559.365 546.515 559.332 546.024 559.332C545.514 559.332 545.052 559.379 544.636 559.474C544.23 559.559 543.867 559.691 543.546 559.87C543.159 560.078 542.828 560.342 542.555 560.663C542.281 560.984 542.054 561.362 541.875 561.796V571H537.938V555.679H541.606L541.762 557.845L541.79 558.185C542.413 557.317 543.159 556.637 544.027 556.146C544.896 555.646 545.845 555.396 546.874 555.396ZM562.86 571C562.766 570.811 562.686 570.594 562.62 570.349C562.554 570.103 562.497 569.844 562.45 569.57C562.233 569.806 561.982 570.028 561.699 570.235C561.416 570.443 561.104 570.622 560.765 570.773C560.415 570.934 560.033 571.057 559.618 571.142C559.202 571.236 558.754 571.283 558.272 571.283C557.489 571.283 556.767 571.17 556.106 570.943C555.455 570.717 554.893 570.401 554.421 569.995C553.949 569.589 553.581 569.107 553.316 568.55C553.052 567.984 552.92 567.37 552.92 566.709C552.92 565.86 553.085 565.109 553.416 564.458C553.746 563.797 554.242 563.254 554.902 562.83C555.497 562.443 556.229 562.15 557.097 561.952C557.975 561.744 558.98 561.64 560.113 561.64H562.308V560.734C562.308 560.375 562.251 560.054 562.138 559.771C562.025 559.478 561.855 559.228 561.628 559.021C561.392 558.803 561.095 558.638 560.736 558.525C560.387 558.402 559.976 558.341 559.504 558.341C559.089 558.341 558.73 558.393 558.428 558.497C558.126 558.591 557.881 558.728 557.692 558.907C557.522 559.068 557.395 559.261 557.31 559.488C557.234 559.714 557.196 559.965 557.196 560.238H553.26C553.26 559.587 553.401 558.969 553.685 558.383C553.977 557.798 554.402 557.284 554.959 556.84C555.507 556.396 556.177 556.047 556.97 555.792C557.772 555.528 558.688 555.396 559.717 555.396C560.642 555.396 561.501 555.509 562.294 555.735C563.096 555.962 563.79 556.297 564.375 556.741C564.961 557.184 565.419 557.746 565.749 558.426C566.079 559.096 566.245 559.875 566.245 560.762V567.333C566.245 568.154 566.297 568.833 566.4 569.372C566.504 569.91 566.655 570.372 566.854 570.759V571H562.86ZM559.108 568.239C559.504 568.239 559.873 568.192 560.212 568.097C560.552 568.003 560.859 567.88 561.133 567.729C561.407 567.578 561.643 567.408 561.841 567.219C562.039 567.021 562.195 566.823 562.308 566.625V563.991H560.297C559.684 563.991 559.16 564.052 558.726 564.175C558.291 564.288 557.937 564.449 557.664 564.656C557.39 564.873 557.187 565.133 557.055 565.435C556.923 565.728 556.856 566.049 556.856 566.398C556.856 566.672 556.904 566.927 556.998 567.163C557.102 567.389 557.248 567.583 557.437 567.743C557.626 567.894 557.857 568.017 558.131 568.111C558.414 568.196 558.74 568.239 559.108 568.239ZM581.708 555.396C582.302 555.396 582.85 555.438 583.35 555.523C583.86 555.598 584.271 555.683 584.582 555.778L584.001 559.7C583.482 559.577 582.949 559.488 582.401 559.431C581.863 559.365 581.349 559.332 580.858 559.332C580.348 559.332 579.886 559.379 579.47 559.474C579.064 559.559 578.701 559.691 578.38 559.87C577.993 560.078 577.662 560.342 577.389 560.663C577.115 560.984 576.888 561.362 576.709 561.796V571H572.772V555.679H576.44L576.596 557.845L576.624 558.185C577.247 557.317 577.993 556.637 578.861 556.146C579.73 555.646 580.679 555.396 581.708 555.396ZM590.543 577.188C590.166 577.188 589.835 577.164 589.552 577.117C589.278 577.07 588.972 576.999 588.632 576.905L589.113 573.903C589.274 573.903 589.477 573.908 589.722 573.917C589.977 573.936 590.18 573.945 590.331 573.945C590.643 573.945 590.916 573.846 591.152 573.648C591.398 573.459 591.605 573.251 591.775 573.025C591.945 572.798 592.068 572.628 592.144 572.515C592.229 572.402 592.328 572.241 592.441 572.034L593.347 570.349L586.862 555.679H591.167L594.678 564.656L595.103 566.214L595.684 564.685L599.181 555.679H603.528L595.754 573.294C595.584 573.681 595.363 574.101 595.089 574.554C594.825 575.007 594.489 575.427 594.083 575.814C593.678 576.201 593.182 576.527 592.597 576.792C592.021 577.056 591.336 577.188 590.543 577.188ZM622.729 571V550.383H628.068C629.021 550.383 629.913 550.501 630.744 550.737C631.575 550.963 632.33 551.289 633.01 551.714C633.604 552.063 634.133 552.493 634.596 553.002C635.068 553.503 635.478 554.05 635.828 554.645C636.234 555.372 636.545 556.174 636.762 557.052C636.989 557.93 637.102 558.865 637.102 559.856V561.555C637.102 562.509 636.998 563.41 636.791 564.26C636.583 565.109 636.29 565.888 635.913 566.596C635.554 567.229 635.134 567.814 634.652 568.352C634.171 568.881 633.642 569.324 633.066 569.683C632.396 570.108 631.655 570.434 630.843 570.66C630.041 570.887 629.182 571 628.266 571H622.729ZM626.737 553.611V567.8H628.266C628.757 567.8 629.215 567.738 629.64 567.616C630.064 567.493 630.451 567.314 630.801 567.078C631.16 566.832 631.48 566.521 631.764 566.143C632.056 565.756 632.306 565.308 632.514 564.798C632.684 564.354 632.812 563.863 632.896 563.325C632.991 562.778 633.038 562.188 633.038 561.555V559.828C633.038 559.233 632.991 558.671 632.896 558.143C632.812 557.604 632.684 557.114 632.514 556.67C632.306 556.141 632.033 555.669 631.693 555.254C631.362 554.839 630.975 554.499 630.532 554.234C630.192 554.036 629.814 553.885 629.399 553.781C628.993 553.668 628.549 553.611 628.068 553.611H626.737Z" fill="#333333"/>
<rect x="830" y="498" width="288" height="124" fill="#ECECFF" stroke="#9370DB" stroke-width="4"/>
<path d="M901.741 567.786H911.398V571H897.748V550.383H901.741V567.786ZM916.085 555.679H924.425V567.8H928.574V571H916.085V567.8H920.446V558.893H916.085V555.679ZM920.163 551.756C920.163 551.454 920.215 551.176 920.319 550.921C920.432 550.657 920.588 550.43 920.786 550.241C920.984 550.062 921.22 549.92 921.494 549.816C921.777 549.713 922.089 549.661 922.429 549.661C923.127 549.661 923.68 549.859 924.085 550.255C924.501 550.642 924.708 551.143 924.708 551.756C924.708 552.37 924.501 552.875 924.085 553.271C923.68 553.659 923.127 553.852 922.429 553.852C922.089 553.852 921.777 553.8 921.494 553.696C921.22 553.592 920.984 553.446 920.786 553.257C920.588 553.078 920.432 552.861 920.319 552.606C920.215 552.342 920.163 552.058 920.163 551.756ZM946.26 563.495C946.26 564.231 946.208 564.93 946.104 565.591C946.001 566.242 945.85 566.846 945.651 567.403C945.434 568.017 945.146 568.574 944.788 569.074C944.438 569.575 944.023 569.99 943.542 570.32C943.107 570.632 942.616 570.868 942.069 571.028C941.531 571.198 940.936 571.283 940.285 571.283C939.69 571.283 939.147 571.208 938.656 571.057C938.175 570.915 937.741 570.703 937.354 570.419C937.146 570.278 936.952 570.122 936.773 569.952C936.594 569.773 936.424 569.579 936.263 569.372L936.079 571H932.539V549.25H936.476V557.066C936.664 556.849 936.867 556.651 937.084 556.472C937.302 556.283 937.533 556.122 937.778 555.99C938.128 555.792 938.505 555.646 938.911 555.551C939.326 555.447 939.775 555.396 940.256 555.396C940.917 555.396 941.521 555.48 942.069 555.65C942.626 555.82 943.121 556.066 943.556 556.387C943.905 556.632 944.221 556.93 944.504 557.279C944.788 557.619 945.038 557.992 945.255 558.397C945.595 559.049 945.845 559.78 946.005 560.592C946.175 561.404 946.26 562.273 946.26 563.198V563.495ZM942.324 563.198C942.324 562.792 942.305 562.4 942.267 562.022C942.229 561.645 942.168 561.291 942.083 560.96C941.979 560.573 941.842 560.229 941.672 559.927C941.512 559.615 941.266 559.332 940.936 559.077C940.719 558.917 940.473 558.799 940.2 558.723C939.926 558.638 939.614 558.596 939.265 558.596C938.793 558.596 938.378 558.662 938.019 558.794C937.66 558.926 937.354 559.12 937.099 559.375C936.976 559.497 936.863 559.639 936.759 559.799C936.655 559.95 936.561 560.116 936.476 560.295V566.398C936.589 566.634 936.716 566.851 936.858 567.049C937.009 567.238 937.184 567.403 937.382 567.545C937.618 567.724 937.892 567.861 938.203 567.956C938.524 568.05 938.888 568.097 939.293 568.097C939.643 568.097 939.959 568.055 940.242 567.97C940.525 567.885 940.771 567.767 940.979 567.616C941.271 567.408 941.507 567.139 941.687 566.809C941.875 566.469 942.017 566.086 942.111 565.662C942.187 565.35 942.239 565.01 942.267 564.642C942.305 564.274 942.324 563.892 942.324 563.495V563.198ZM960.874 555.396C961.468 555.396 962.016 555.438 962.516 555.523C963.026 555.598 963.437 555.683 963.748 555.778L963.167 559.7C962.648 559.577 962.115 559.488 961.567 559.431C961.029 559.365 960.515 559.332 960.024 559.332C959.514 559.332 959.052 559.379 958.636 559.474C958.23 559.559 957.867 559.691 957.546 559.87C957.159 560.078 956.828 560.342 956.555 560.663C956.281 560.984 956.054 561.362 955.875 561.796V571H951.938V555.679H955.606L955.762 557.845L955.79 558.185C956.413 557.317 957.159 556.637 958.027 556.146C958.896 555.646 959.845 555.396 960.874 555.396ZM976.86 571C976.766 570.811 976.686 570.594 976.62 570.349C976.554 570.103 976.497 569.844 976.45 569.57C976.233 569.806 975.982 570.028 975.699 570.235C975.416 570.443 975.104 570.622 974.765 570.773C974.415 570.934 974.033 571.057 973.618 571.142C973.202 571.236 972.754 571.283 972.272 571.283C971.489 571.283 970.767 571.17 970.106 570.943C969.455 570.717 968.893 570.401 968.421 569.995C967.949 569.589 967.581 569.107 967.316 568.55C967.052 567.984 966.92 567.37 966.92 566.709C966.92 565.86 967.085 565.109 967.416 564.458C967.746 563.797 968.242 563.254 968.902 562.83C969.497 562.443 970.229 562.15 971.097 561.952C971.975 561.744 972.98 561.64 974.113 561.64H976.308V560.734C976.308 560.375 976.251 560.054 976.138 559.771C976.025 559.478 975.855 559.228 975.628 559.021C975.392 558.803 975.095 558.638 974.736 558.525C974.387 558.402 973.976 558.341 973.504 558.341C973.089 558.341 972.73 558.393 972.428 558.497C972.126 558.591 971.881 558.728 971.692 558.907C971.522 559.068 971.395 559.261 971.31 559.488C971.234 559.714 971.196 559.965 971.196 560.238H967.26C967.26 559.587 967.401 558.969 967.685 558.383C967.977 557.798 968.402 557.284 968.959 556.84C969.507 556.396 970.177 556.047 970.97 555.792C971.772 555.528 972.688 555.396 973.717 555.396C974.642 555.396 975.501 555.509 976.294 555.735C977.096 555.962 977.79 556.297 978.375 556.741C978.961 557.184 979.419 557.746 979.749 558.426C980.079 559.096 980.245 559.875 980.245 560.762V567.333C980.245 568.154 980.297 568.833 980.4 569.372C980.504 569.91 980.655 570.372 980.854 570.759V571H976.86ZM973.108 568.239C973.504 568.239 973.873 568.192 974.212 568.097C974.552 568.003 974.859 567.88 975.133 567.729C975.407 567.578 975.643 567.408 975.841 567.219C976.039 567.021 976.195 566.823 976.308 566.625V563.991H974.297C973.684 563.991 973.16 564.052 972.726 564.175C972.291 564.288 971.937 564.449 971.664 564.656C971.39 564.873 971.187 565.133 971.055 565.435C970.923 565.728 970.856 566.049 970.856 566.398C970.856 566.672 970.904 566.927 970.998 567.163C971.102 567.389 971.248 567.583 971.437 567.743C971.626 567.894 971.857 568.017 972.131 568.111C972.414 568.196 972.74 568.239 973.108 568.239ZM995.708 555.396C996.302 555.396 996.85 555.438 997.35 555.523C997.86 555.598 998.271 555.683 998.582 555.778L998.001 559.7C997.482 559.577 996.949 559.488 996.401 559.431C995.863 559.365 995.349 559.332 994.858 559.332C994.348 559.332 993.886 559.379 993.47 559.474C993.064 559.559 992.701 559.691 992.38 559.87C991.993 560.078 991.662 560.342 991.389 560.663C991.115 560.984 990.888 561.362 990.709 561.796V571H986.772V555.679H990.44L990.596 557.845L990.624 558.185C991.247 557.317 991.993 556.637 992.861 556.146C993.73 555.646 994.679 555.396 995.708 555.396ZM1004.54 577.188C1004.17 577.188 1003.84 577.164 1003.55 577.117C1003.28 577.07 1002.97 576.999 1002.63 576.905L1003.11 573.903C1003.27 573.903 1003.48 573.908 1003.72 573.917C1003.98 573.936 1004.18 573.945 1004.33 573.945C1004.64 573.945 1004.92 573.846 1005.15 573.648C1005.4 573.459 1005.61 573.251 1005.78 573.025C1005.95 572.798 1006.07 572.628 1006.14 572.515C1006.23 572.402 1006.33 572.241 1006.44 572.034L1007.35 570.349L1000.86 555.679H1005.17L1008.68 564.656L1009.1 566.214L1009.68 564.685L1013.18 555.679H1017.53L1009.75 573.294C1009.58 573.681 1009.36 574.101 1009.09 574.554C1008.82 575.007 1008.49 575.427 1008.08 575.814C1007.68 576.201 1007.18 576.527 1006.6 576.792C1006.02 577.056 1005.34 577.188 1004.54 577.188ZM1049.5 561.966H1041.03V567.786H1050.93V571H1037.04V550.383H1050.89V553.625H1041.03V558.822H1049.5V561.966Z" fill="#333333"/>
</svg>
