<svg width="1469" height="916" viewBox="0 0 1469 916" fill="none" xmlns="http://www.w3.org/2000/svg">
<path d="M167.28 169.7C160.92 169.7 156.54 165.44 156.54 159.38V154.4C156.54 148.58 153.84 146.12 146.7 146.24V141.26C153.84 141.38 156.54 138.92 156.54 133.1V128.12C156.54 122.06 160.92 117.8 167.28 117.8H170.64V122.48C163.68 122.24 161.34 123.8 161.34 128V133.52C161.34 138.92 158.28 142.82 154.02 143.66V143.72C158.4 144.56 161.34 148.52 161.34 153.98V159.5C161.34 163.64 163.68 165.2 170.64 165.02V169.7H167.28ZM443.213 254V246.8H450.413V254H443.213ZM443.213 230.84V223.64H450.413V230.84H443.213ZM1055.23 263.36L1058.05 254H1054.81V246.8H1062.01V253.16L1058.23 263.36H1055.23ZM443.213 344V336.8H450.413V344H443.213ZM443.213 320.84V313.64H450.413V320.84H443.213ZM803.398 353.36L806.218 344H802.978V336.8H810.178V343.16L806.398 353.36H803.398ZM551.142 434V426.8H558.342V434H551.142ZM551.142 410.84V403.64H558.342V410.84H551.142ZM634.975 439.7C628.615 439.7 624.235 435.44 624.235 429.38V424.4C624.235 418.58 621.535 416.12 614.395 416.24V411.26C621.535 411.38 624.235 408.92 624.235 403.1V398.12C624.235 392.06 628.615 387.8 634.975 387.8H638.335V392.48C631.375 392.24 629.035 393.8 629.035 398V403.52C629.035 408.92 625.975 412.82 621.715 413.66V413.72C626.095 414.56 629.035 418.52 629.035 423.98V429.5C629.035 433.64 631.375 435.2 638.335 435.02V439.7H634.975ZM587.119 524V516.8H594.319V524H587.119ZM587.119 500.84V493.64H594.319V500.84H587.119ZM1235.12 533.36L1237.94 524H1234.7V516.8H1241.9V523.16L1238.12 533.36H1235.12ZM623.095 614V606.8H630.295V614H623.095ZM623.095 590.84V583.64H630.295V590.84H623.095ZM222.673 709.7H219.313V705.02C226.273 705.2 228.613 703.64 228.613 699.5V693.98C228.613 688.52 231.553 684.56 235.933 683.72V683.66C231.673 682.82 228.613 678.92 228.613 673.52V668C228.613 663.8 226.273 662.24 219.313 662.48V657.8H222.673C229.033 657.8 233.413 662.06 233.413 668.12V673.1C233.413 678.92 236.113 681.38 243.253 681.26V686.24C236.113 686.12 233.413 688.58 233.413 694.4V699.38C233.413 705.44 229.033 709.7 222.673 709.7ZM150.72 799.7H147.36V795.02C154.32 795.2 156.66 793.64 156.66 789.5V783.98C156.66 778.52 159.6 774.56 163.98 773.72V773.66C159.72 772.82 156.66 768.92 156.66 763.52V758C156.66 753.8 154.32 752.24 147.36 752.48V747.8H150.72C157.08 747.8 161.46 752.06 161.46 758.12V763.1C161.46 768.92 164.16 771.38 171.3 771.26V776.24C164.16 776.12 161.46 778.58 161.46 784.4V789.38C161.46 795.44 157.08 799.7 150.72 799.7Z" fill="#999999"/>
<path d="M233.653 231.02L233.413 211.4H238.693V216.2L237.313 231.02H233.653ZM224.593 231.02L223.213 216.2V211.4H228.493L228.253 231.02H224.593ZM413.536 231.02L413.296 211.4H418.576V216.2L417.196 231.02H413.536ZM404.476 231.02L403.096 216.2V211.4H408.376L408.136 231.02H404.476ZM521.466 231.02L521.226 211.4H526.506V216.2L525.126 231.02H521.466ZM512.406 231.02L511.026 216.2V211.4H516.306L516.066 231.02H512.406ZM1025.14 231.02L1024.9 211.4H1030.18V216.2L1028.8 231.02H1025.14ZM1016.08 231.02L1014.7 216.2V211.4H1019.98L1019.74 231.02H1016.08ZM233.653 321.02L233.413 301.4H238.693V306.2L237.313 321.02H233.653ZM224.593 321.02L223.213 306.2V301.4H228.493L228.253 321.02H224.593ZM413.536 321.02L413.296 301.4H418.576V306.2L417.196 321.02H413.536ZM404.476 321.02L403.096 306.2V301.4H408.376L408.136 321.02H404.476ZM521.466 321.02L521.226 301.4H526.506V306.2L525.126 321.02H521.466ZM512.406 321.02L511.026 306.2V301.4H516.306L516.066 321.02H512.406ZM773.302 321.02L773.062 301.4H778.342V306.2L776.962 321.02H773.302ZM764.242 321.02L762.862 306.2V301.4H768.142L767.902 321.02H764.242ZM233.653 411.02L233.413 391.4H238.693V396.2L237.313 411.02H233.653ZM224.593 411.02L223.213 396.2V391.4H228.493L228.253 411.02H224.593ZM521.466 411.02L521.226 391.4H526.506V396.2L525.126 411.02H521.466ZM512.406 411.02L511.026 396.2V391.4H516.306L516.066 411.02H512.406ZM305.606 501.02L305.366 481.4H310.646V486.2L309.266 501.02H305.606ZM296.546 501.02L295.166 486.2V481.4H300.446L300.206 501.02H296.546ZM557.442 501.02L557.202 481.4H562.482V486.2L561.102 501.02H557.442ZM548.382 501.02L547.002 486.2V481.4H552.282L552.042 501.02H548.382ZM665.372 501.02L665.132 481.4H670.412V486.2L669.032 501.02H665.372ZM656.312 501.02L654.932 486.2V481.4H660.212L659.972 501.02H656.312ZM1205.02 501.02L1204.78 481.4H1210.06V486.2L1208.68 501.02H1205.02ZM1195.96 501.02L1194.58 486.2V481.4H1199.86L1199.62 501.02H1195.96ZM305.606 591.02L305.366 571.4H310.646V576.2L309.266 591.02H305.606ZM296.546 591.02L295.166 576.2V571.4H300.446L300.206 591.02H296.546ZM593.419 591.02L593.179 571.4H598.459V576.2L597.079 591.02H593.419ZM584.359 591.02L582.979 576.2V571.4H588.259L588.019 591.02H584.359ZM701.348 591.02L701.108 571.4H706.388V576.2L705.008 591.02H701.348ZM692.288 591.02L690.908 576.2V571.4H696.188L695.948 591.02H692.288ZM1312.95 591.02L1312.71 571.4H1317.99V576.2L1316.61 591.02H1312.95ZM1303.89 591.02L1302.51 576.2V571.4H1307.79L1307.55 591.02H1303.89Z" fill="#B56959" fill-opacity="0.6"/>
<path d="M254.69 254V222.2H259.31L259.43 227.9C261.11 223.52 264.83 221.48 269.21 221.48C276.47 221.48 279.89 226.82 279.89 233.54V254H274.85V234.98C274.85 229.1 272.93 225.92 268.13 225.92C263.21 225.92 259.73 229.1 259.73 234.98V254H254.69ZM298.706 254.72C292.706 254.72 288.146 251.24 288.146 246.08C288.146 240.68 291.266 237.86 298.226 236.48L308.906 234.32C308.906 228.92 306.386 226.28 301.826 226.28C297.386 226.28 295.046 228.32 294.086 231.98L288.746 231.56C289.946 225.56 294.626 221.48 301.826 221.48C309.506 221.48 313.946 226.4 313.946 234.44V247.64C313.946 249.08 314.546 249.56 315.866 249.56H317.906V254C317.426 254.06 316.226 254.12 315.266 254.12C311.786 254.12 309.746 252.74 309.086 249.5C307.346 252.62 303.266 254.72 298.706 254.72ZM299.186 250.28C305.666 250.28 308.906 246.68 308.906 241.4V238.64L299.186 240.56C294.866 241.4 293.426 242.96 293.426 245.6C293.426 248.6 295.586 250.28 299.186 250.28ZM323.283 254V222.2H327.903L328.023 226.88C329.103 223.52 331.323 221.48 334.323 221.48C337.623 221.48 339.603 223.64 340.323 227.72C341.343 223.88 343.803 221.48 347.163 221.48C352.263 221.48 354.483 224.84 354.483 233V254H349.443V233.6C349.443 227.96 348.243 225.92 345.723 225.92C343.203 225.92 341.403 228.32 341.403 233.72V254H336.363V233.6C336.363 228.2 335.283 225.92 332.643 225.92C330.123 225.92 328.323 228.32 328.323 233.72V254H323.283ZM375.399 254.72C366.399 254.72 360.819 248.18 360.819 238.1C360.819 228.02 366.399 221.48 375.159 221.48C383.439 221.48 389.259 227.48 389.259 238.16V239.66H366.099C366.459 246.5 369.879 249.92 375.399 249.92C379.539 249.92 382.239 247.82 383.319 244.58L388.719 245C387.039 250.7 382.119 254.72 375.399 254.72ZM383.739 235.22C383.259 229.1 379.839 226.28 375.159 226.28C370.239 226.28 366.939 229.34 366.099 235.22H383.739ZM562.602 255.74C559.362 257.42 556.242 258.2 553.182 258.2C544.782 258.2 538.062 250.76 538.062 237.5C538.062 224.9 544.182 211.4 556.902 211.4C565.542 211.4 571.422 220.22 571.422 232.88C571.422 242.06 567.822 249.08 563.082 249.08C560.742 249.08 558.762 247.4 557.982 244.16C556.782 247.16 554.622 249.14 551.802 249.14C547.782 249.14 545.082 245.18 545.082 239.24C545.082 233.18 548.022 224.06 554.322 224.06C556.362 224.06 557.982 225.14 558.642 226.76L558.822 224.6H563.202L562.122 238.4C561.762 243.02 562.242 245.24 563.682 245.24C565.662 245.24 567.042 240.98 567.042 233.18C567.042 222.86 562.962 215.78 556.782 215.78C546.942 215.78 542.442 227.18 542.442 237.44C542.442 248.42 547.062 254.06 553.362 254.06C555.702 254.06 558.222 253.28 560.802 251.84L562.602 255.74ZM553.182 245.36C557.142 245.36 558.042 236.84 558.042 233.96C558.042 229.94 556.902 227.36 554.862 227.36C551.202 227.36 549.822 235.1 549.822 238.52C549.822 242.66 551.082 245.36 553.182 245.36ZM575.119 254V222.2H579.739L579.859 226.88C580.939 223.52 583.159 221.48 586.159 221.48C589.459 221.48 591.439 223.64 592.159 227.72C593.179 223.88 595.639 221.48 598.999 221.48C604.099 221.48 606.319 224.84 606.319 233V254H601.279V233.6C601.279 227.96 600.079 225.92 597.559 225.92C595.039 225.92 593.239 228.32 593.239 233.72V254H588.199V233.6C588.199 228.2 587.119 225.92 584.479 225.92C581.959 225.92 580.159 228.32 580.159 233.72V254H575.119ZM616.975 263V258.56H620.635C622.855 258.56 623.755 257.9 624.355 256.4L625.495 253.4H623.755L611.935 222.2H617.455L627.115 248.72L636.175 222.2H641.695L628.795 258.02C627.595 261.44 625.375 263 621.115 263H616.975ZM653.672 238.88V234.2H671.672V238.88H653.672ZM698.648 254.72C689.828 254.72 684.128 248.24 684.128 238.1C684.128 227.96 689.828 221.48 698.648 221.48C707.408 221.48 713.168 227.96 713.168 238.1C713.168 248.24 707.408 254.72 698.648 254.72ZM698.648 249.92C704.468 249.92 707.888 245.48 707.888 238.1C707.888 230.72 704.468 226.28 698.648 226.28C692.768 226.28 689.408 230.72 689.408 238.1C689.408 245.48 692.768 249.92 698.648 249.92ZM722.025 254V249.56H730.305V226.64H722.025V222.2H734.505L734.865 228.32C735.945 224.18 738.525 222.2 742.485 222.2H749.025V226.76H742.545C737.865 226.76 735.345 229.58 735.345 234.8V249.56H745.425V254H722.025ZM770.422 263.72C763.582 263.72 758.422 260.06 757.102 254.48L762.382 254.12C763.342 257.12 765.502 258.92 770.422 258.92C776.182 258.92 779.362 256.64 779.362 251.96V246.8C777.802 250.16 774.202 252.32 770.062 252.32C761.962 252.32 756.202 245.96 756.202 236.9C756.202 227.84 761.842 221.48 769.822 221.48C774.262 221.48 778.162 223.7 779.602 227.24V222.2H784.402V251.84C784.402 259.28 779.182 263.72 770.422 263.72ZM770.302 247.52C775.762 247.52 779.302 243.44 779.362 236.9C779.482 230.36 775.822 226.28 770.302 226.28C764.722 226.28 761.482 230.36 761.482 236.9C761.482 243.44 764.842 247.52 770.302 247.52ZM795.058 260.6L813.298 209H818.098L799.858 260.6H795.058ZM842.135 219.92C842.135 217.34 840.635 215.84 838.055 215.84H830.555V211.4H838.295C844.115 211.4 847.175 214.46 847.175 220.28V249.56H858.155V254H829.355V249.56H842.135V219.92ZM865.331 254V249.56H878.111V226.64H865.931V222.2H883.151V249.56H894.131V254H865.331ZM877.631 217.22V211.34H882.911V217.22H877.631ZM915.888 254.72C911.448 254.72 907.848 252.68 906.048 249.2L905.868 254H901.308V211.4H906.348V226.64C907.908 224 911.448 221.48 915.888 221.48C924.288 221.48 929.508 227.9 929.508 238.1C929.508 248.3 924.288 254.72 915.888 254.72ZM915.588 249.92C920.928 249.92 924.228 245.36 924.228 238.1C924.228 230.72 920.928 226.28 915.708 226.28C909.828 226.28 906.348 230.72 906.348 238.1C906.348 245.36 909.828 249.92 915.588 249.92ZM941.484 238.88V234.2H959.484V238.88H941.484ZM982.261 254.72C976.261 254.72 971.701 251.24 971.701 246.08C971.701 240.68 974.821 237.86 981.781 236.48L992.461 234.32C992.461 228.92 989.941 226.28 985.381 226.28C980.941 226.28 978.601 228.32 977.641 231.98L972.301 231.56C973.501 225.56 978.181 221.48 985.381 221.48C993.061 221.48 997.501 226.4 997.501 234.44V247.64C997.501 249.08 998.101 249.56 999.421 249.56H1001.46V254C1000.98 254.06 999.781 254.12 998.821 254.12C995.341 254.12 993.301 252.74 992.641 249.5C990.901 252.62 986.821 254.72 982.261 254.72ZM982.741 250.28C989.221 250.28 992.461 246.68 992.461 241.4V238.64L982.741 240.56C978.421 241.4 976.981 242.96 976.981 245.6C976.981 248.6 979.141 250.28 982.741 250.28ZM271.61 344C265.43 344 262.43 341.18 262.43 335.24V316.64H251.93V312.2H262.43V303.8H267.47V312.2H280.13V316.64H267.47V335.24C267.47 338.18 268.79 339.56 271.61 339.56H280.13V344H271.61ZM293.186 353V348.56H296.846C299.066 348.56 299.966 347.9 300.566 346.4L301.706 343.4H299.966L288.146 312.2H293.666L303.326 338.72L312.386 312.2H317.906L305.006 348.02C303.806 351.44 301.586 353 297.326 353H293.186ZM325.683 353V312.2H330.363L330.423 317.3C332.343 313.52 335.883 311.48 340.203 311.48C349.683 311.48 353.883 319.34 353.883 328.1C353.883 336.86 349.683 344.72 340.203 344.72C336.063 344.72 332.403 342.86 330.723 339.8V353H325.683ZM339.723 339.92C345.243 339.92 348.603 335.54 348.603 328.1C348.603 320.66 345.243 316.28 339.723 316.28C334.203 316.28 330.723 320.3 330.723 328.1C330.723 335.9 334.143 339.92 339.723 339.92ZM375.399 344.72C366.399 344.72 360.819 338.18 360.819 328.1C360.819 318.02 366.399 311.48 375.159 311.48C383.439 311.48 389.259 317.48 389.259 328.16V329.66H366.099C366.459 336.5 369.879 339.92 375.399 339.92C379.539 339.92 382.239 337.82 383.319 334.58L388.719 335C387.039 340.7 382.119 344.72 375.399 344.72ZM383.739 325.22C383.259 319.1 379.839 316.28 375.159 316.28C370.239 316.28 366.939 319.34 366.099 325.22H383.739ZM539.142 344V312.2H543.762L543.882 316.88C544.962 313.52 547.182 311.48 550.182 311.48C553.482 311.48 555.462 313.64 556.182 317.72C557.202 313.88 559.662 311.48 563.022 311.48C568.122 311.48 570.342 314.84 570.342 323V344H565.302V323.6C565.302 317.96 564.102 315.92 561.582 315.92C559.062 315.92 557.262 318.32 557.262 323.72V344H552.222V323.6C552.222 318.2 551.142 315.92 548.502 315.92C545.982 315.92 544.182 318.32 544.182 323.72V344H539.142ZM590.719 344.72C581.899 344.72 576.199 338.24 576.199 328.1C576.199 317.96 581.899 311.48 590.719 311.48C599.479 311.48 605.239 317.96 605.239 328.1C605.239 338.24 599.479 344.72 590.719 344.72ZM590.719 339.92C596.539 339.92 599.959 335.48 599.959 328.1C599.959 320.72 596.539 316.28 590.719 316.28C584.839 316.28 581.479 320.72 581.479 328.1C581.479 335.48 584.839 339.92 590.719 339.92ZM625.315 344.72C616.915 344.72 611.695 338.3 611.695 328.1C611.695 317.9 616.915 311.48 625.315 311.48C629.755 311.48 633.295 314 634.855 316.64V301.4H639.895V344H635.335L635.155 339.2C633.355 342.68 629.755 344.72 625.315 344.72ZM625.615 339.92C631.375 339.92 634.855 335.36 634.855 328.1C634.855 320.72 631.375 316.28 625.495 316.28C620.275 316.28 616.975 320.72 616.975 328.1C616.975 335.36 620.275 339.92 625.615 339.92ZM660.452 344.72C654.152 344.72 650.072 340.22 650.072 332.66V312.2H655.112V331.28C655.112 337.46 657.272 340.28 661.832 340.28C666.812 340.28 669.872 336.86 669.872 331.16V312.2H674.912V344H670.112V338.84C668.372 342.62 665.012 344.72 660.452 344.72ZM698.228 309.92C698.228 307.34 696.728 305.84 694.148 305.84H686.648V301.4H694.388C700.208 301.4 703.268 304.46 703.268 310.28V339.56H714.248V344H685.448V339.56H698.228V309.92ZM735.165 344.72C726.165 344.72 720.585 338.18 720.585 328.1C720.585 318.02 726.165 311.48 734.925 311.48C743.205 311.48 749.025 317.48 749.025 328.16V329.66H725.865C726.225 336.5 729.645 339.92 735.165 339.92C739.305 339.92 742.005 337.82 743.085 334.58L748.485 335C746.805 340.7 741.885 344.72 735.165 344.72ZM743.505 325.22C743.025 319.1 739.605 316.28 734.925 316.28C730.005 316.28 726.705 319.34 725.865 325.22H743.505ZM267.47 434.72C258.47 434.72 252.89 428.18 252.89 418.1C252.89 408.02 258.47 401.48 267.23 401.48C275.51 401.48 281.33 407.48 281.33 418.16V419.66H258.17C258.53 426.5 261.95 429.92 267.47 429.92C271.61 429.92 274.31 427.82 275.39 424.58L280.79 425C279.11 430.7 274.19 434.72 267.47 434.72ZM275.81 415.22C275.33 409.1 271.91 406.28 267.23 406.28C262.31 406.28 259.01 409.34 258.17 415.22H275.81ZM288.146 434L299.846 417.68L288.746 402.2H294.626L302.966 414.2L311.126 402.2H317.126L306.086 417.8L317.666 434H311.786L302.966 421.16L294.146 434H288.146ZM325.683 443V402.2H330.363L330.423 407.3C332.343 403.52 335.883 401.48 340.203 401.48C349.683 401.48 353.883 409.34 353.883 418.1C353.883 426.86 349.683 434.72 340.203 434.72C336.063 434.72 332.403 432.86 330.723 429.8V443H325.683ZM339.723 429.92C345.243 429.92 348.603 425.54 348.603 418.1C348.603 410.66 345.243 406.28 339.723 406.28C334.203 406.28 330.723 410.3 330.723 418.1C330.723 425.9 334.143 429.92 339.723 429.92ZM374.859 434.72C366.039 434.72 360.339 428.24 360.339 418.1C360.339 407.96 366.039 401.48 374.859 401.48C383.619 401.48 389.379 407.96 389.379 418.1C389.379 428.24 383.619 434.72 374.859 434.72ZM374.859 429.92C380.679 429.92 384.099 425.48 384.099 418.1C384.099 410.72 380.679 406.28 374.859 406.28C368.979 406.28 365.619 410.72 365.619 418.1C365.619 425.48 368.979 429.92 374.859 429.92ZM398.236 434V429.56H406.516V406.64H398.236V402.2H410.716L411.076 408.32C412.156 404.18 414.736 402.2 418.696 402.2H425.236V406.76H418.756C414.076 406.76 411.556 409.58 411.556 414.8V429.56H421.636V434H398.236ZM451.493 434C445.313 434 442.313 431.18 442.313 425.24V406.64H431.813V402.2H442.313V393.8H447.353V402.2H460.013V406.64H447.353V425.24C447.353 428.18 448.673 429.56 451.493 429.56H460.013V434H451.493ZM483.389 434.72C475.109 434.72 470.069 429.98 469.589 423.98L474.869 423.62C475.469 427.58 478.349 429.92 483.389 429.92C488.069 429.92 490.829 428.6 490.829 425.72C490.829 422.96 489.389 421.88 482.429 420.68C473.189 419.06 470.429 416.24 470.429 411.08C470.429 405.56 474.689 401.48 482.489 401.48C490.349 401.48 494.429 406.16 495.389 411.68L490.109 412.04C489.389 408.68 486.749 406.28 482.429 406.28C477.749 406.28 475.589 408.38 475.589 411.08C475.589 414.32 477.749 415.28 483.509 416.24C493.349 417.86 495.989 420.44 495.989 425.72C495.989 431.36 490.589 434.72 483.389 434.72ZM325.683 524V519.56H338.463V496.64H326.283V492.2H343.503V519.56H354.483V524H325.683ZM337.983 487.22V481.34H343.263V487.22H337.983ZM359.259 524V492.2H363.879L363.999 496.88C365.079 493.52 367.299 491.48 370.299 491.48C373.599 491.48 375.579 493.64 376.299 497.72C377.319 493.88 379.779 491.48 383.139 491.48C388.239 491.48 390.459 494.84 390.459 503V524H385.419V503.6C385.419 497.96 384.219 495.92 381.699 495.92C379.179 495.92 377.379 498.32 377.379 503.72V524H372.339V503.6C372.339 498.2 371.259 495.92 368.619 495.92C366.099 495.92 364.299 498.32 364.299 503.72V524H359.259ZM397.636 533V492.2H402.316L402.376 497.3C404.296 493.52 407.836 491.48 412.156 491.48C421.636 491.48 425.836 499.34 425.836 508.1C425.836 516.86 421.636 524.72 412.156 524.72C408.016 524.72 404.356 522.86 402.676 519.8V533H397.636ZM411.676 519.92C417.196 519.92 420.556 515.54 420.556 508.1C420.556 500.66 417.196 496.28 411.676 496.28C406.156 496.28 402.676 500.3 402.676 508.1C402.676 515.9 406.096 519.92 411.676 519.92ZM446.813 524.72C437.993 524.72 432.293 518.24 432.293 508.1C432.293 497.96 437.993 491.48 446.813 491.48C455.573 491.48 461.333 497.96 461.333 508.1C461.333 518.24 455.573 524.72 446.813 524.72ZM446.813 519.92C452.633 519.92 456.053 515.48 456.053 508.1C456.053 500.72 452.633 496.28 446.813 496.28C440.933 496.28 437.573 500.72 437.573 508.1C437.573 515.48 440.933 519.92 446.813 519.92ZM470.189 524V519.56H478.469V496.64H470.189V492.2H482.669L483.029 498.32C484.109 494.18 486.689 492.2 490.649 492.2H497.189V496.76H490.709C486.029 496.76 483.509 499.58 483.509 504.8V519.56H493.589V524H470.189ZM523.446 524C517.266 524 514.266 521.18 514.266 515.24V496.64H503.766V492.2H514.266V483.8H519.306V492.2H531.966V496.64H519.306V515.24C519.306 518.18 520.626 519.56 523.446 519.56H531.966V524H523.446ZM695.048 524V516.8H702.248V524H695.048ZM723.105 530.6L741.345 479H746.145L727.905 530.6H723.105ZM771.202 524.72C762.922 524.72 757.882 519.98 757.402 513.98L762.682 513.62C763.282 517.58 766.162 519.92 771.202 519.92C775.882 519.92 778.642 518.6 778.642 515.72C778.642 512.96 777.202 511.88 770.242 510.68C761.002 509.06 758.242 506.24 758.242 501.08C758.242 495.56 762.502 491.48 770.302 491.48C778.162 491.48 782.242 496.16 783.202 501.68L777.922 502.04C777.202 498.68 774.562 496.28 770.242 496.28C765.562 496.28 763.402 498.38 763.402 501.08C763.402 504.32 765.562 505.28 771.322 506.24C781.162 507.86 783.802 510.44 783.802 515.72C783.802 521.36 778.402 524.72 771.202 524.72ZM793.978 524V519.56H802.258V496.64H793.978V492.2H806.458L806.818 498.32C807.898 494.18 810.478 492.2 814.438 492.2H820.978V496.76H814.498C809.818 496.76 807.298 499.58 807.298 504.8V519.56H817.378V524H793.978ZM843.395 524.72C834.515 524.72 828.755 518.18 828.755 508.1C828.755 498.02 834.515 491.48 843.395 491.48C850.475 491.48 855.395 495.44 856.715 502.52L851.435 502.88C850.475 498.68 847.475 496.28 843.395 496.28C837.515 496.28 834.035 500.72 834.035 508.1C834.035 515.48 837.515 519.92 843.395 519.92C847.475 519.92 850.715 517.52 851.675 512.72L856.955 513.08C855.635 520.16 850.475 524.72 843.395 524.72ZM867.011 530.6L885.251 479H890.051L871.811 530.6H867.011ZM901.308 524V519.56H914.088V496.64H901.908V492.2H919.128V519.56H930.108V524H901.308ZM913.608 487.22V481.34H918.888V487.22H913.608ZM938.244 524V492.2H942.864L942.984 497.9C944.664 493.52 948.384 491.48 952.764 491.48C960.024 491.48 963.444 496.82 963.444 503.54V524H958.404V504.98C958.404 499.1 956.484 495.92 951.684 495.92C946.764 495.92 943.284 499.1 943.284 504.98V524H938.244ZM985.081 524.72C976.681 524.72 971.461 518.3 971.461 508.1C971.461 497.9 976.681 491.48 985.081 491.48C989.521 491.48 993.061 494 994.621 496.64V481.4H999.661V524H995.101L994.921 519.2C993.121 522.68 989.521 524.72 985.081 524.72ZM985.381 519.92C991.141 519.92 994.621 515.36 994.621 508.1C994.621 500.72 991.141 496.28 985.261 496.28C980.041 496.28 976.741 500.72 976.741 508.1C976.741 515.36 980.041 519.92 985.381 519.92ZM1022.98 524.72C1013.98 524.72 1008.4 518.18 1008.4 508.1C1008.4 498.02 1013.98 491.48 1022.74 491.48C1031.02 491.48 1036.84 497.48 1036.84 508.16V509.66H1013.68C1014.04 516.5 1017.46 519.92 1022.98 519.92C1027.12 519.92 1029.82 517.82 1030.9 514.58L1036.3 515C1034.62 520.7 1029.7 524.72 1022.98 524.72ZM1031.32 505.22C1030.84 499.1 1027.42 496.28 1022.74 496.28C1017.82 496.28 1014.52 499.34 1013.68 505.22H1031.32ZM1043.65 524L1055.35 507.68L1044.25 492.2H1050.13L1058.47 504.2L1066.63 492.2H1072.63L1061.59 507.8L1073.17 524H1067.29L1058.47 511.16L1049.65 524H1043.65ZM1090.79 524V516.8H1097.99V524H1090.79ZM1135.05 524C1128.87 524 1125.87 521.18 1125.87 515.24V496.64H1115.37V492.2H1125.87V483.8H1130.91V492.2H1143.57V496.64H1130.91V515.24C1130.91 518.18 1132.23 519.56 1135.05 519.56H1143.57V524H1135.05ZM1166.94 524.72C1158.66 524.72 1153.62 519.98 1153.14 513.98L1158.42 513.62C1159.02 517.58 1161.9 519.92 1166.94 519.92C1171.62 519.92 1174.38 518.6 1174.38 515.72C1174.38 512.96 1172.94 511.88 1165.98 510.68C1156.74 509.06 1153.98 506.24 1153.98 501.08C1153.98 495.56 1158.24 491.48 1166.04 491.48C1173.9 491.48 1177.98 496.16 1178.94 501.68L1173.66 502.04C1172.94 498.68 1170.3 496.28 1165.98 496.28C1161.3 496.28 1159.14 498.38 1159.14 501.08C1159.14 504.32 1161.3 505.28 1167.06 506.24C1176.9 507.86 1179.54 510.44 1179.54 515.72C1179.54 521.36 1174.14 524.72 1166.94 524.72ZM343.563 614C337.383 614 334.383 611.18 334.383 605.24V586.64H323.883V582.2H334.383V573.8H339.423V582.2H352.083V586.64H339.423V605.24C339.423 608.18 340.743 609.56 343.563 609.56H352.083V614H343.563ZM365.139 623V618.56H368.799C371.019 618.56 371.919 617.9 372.519 616.4L373.659 613.4H371.919L360.099 582.2H365.619L375.279 608.72L384.339 582.2H389.859L376.959 618.02C375.759 621.44 373.539 623 369.279 623H365.139ZM397.636 623V582.2H402.316L402.376 587.3C404.296 583.52 407.836 581.48 412.156 581.48C421.636 581.48 425.836 589.34 425.836 598.1C425.836 606.86 421.636 614.72 412.156 614.72C408.016 614.72 404.356 612.86 402.676 609.8V623H397.636ZM411.676 609.92C417.196 609.92 420.556 605.54 420.556 598.1C420.556 590.66 417.196 586.28 411.676 586.28C406.156 586.28 402.676 590.3 402.676 598.1C402.676 605.9 406.096 609.92 411.676 609.92ZM433.613 614V609.56H446.393V586.64H434.213V582.2H451.433V609.56H462.413V614H433.613ZM445.913 577.22V571.34H451.193V577.22H445.913ZM470.549 614V582.2H475.169L475.289 587.9C476.969 583.52 480.689 581.48 485.069 581.48C492.329 581.48 495.749 586.82 495.749 593.54V614H490.709V594.98C490.709 589.1 488.789 585.92 483.989 585.92C479.069 585.92 475.589 589.1 475.589 594.98V614H470.549ZM518.586 623.72C511.746 623.72 506.586 620.06 505.266 614.48L510.546 614.12C511.506 617.12 513.666 618.92 518.586 618.92C524.346 618.92 527.526 616.64 527.526 611.96V606.8C525.966 610.16 522.366 612.32 518.226 612.32C510.126 612.32 504.366 605.96 504.366 596.9C504.366 587.84 510.006 581.48 517.986 581.48C522.426 581.48 526.326 583.7 527.766 587.24V582.2H532.566V611.84C532.566 619.28 527.346 623.72 518.586 623.72ZM518.466 607.52C523.926 607.52 527.466 603.44 527.526 596.9C527.646 590.36 523.986 586.28 518.466 586.28C512.886 586.28 509.646 590.36 509.646 596.9C509.646 603.44 513.006 607.52 518.466 607.52ZM555.342 614.72C547.062 614.72 542.022 609.98 541.542 603.98L546.822 603.62C547.422 607.58 550.302 609.92 555.342 609.92C560.022 609.92 562.782 608.6 562.782 605.72C562.782 602.96 561.342 601.88 554.382 600.68C545.142 599.06 542.382 596.24 542.382 591.08C542.382 585.56 546.642 581.48 554.442 581.48C562.302 581.48 566.382 586.16 567.342 591.68L562.062 592.04C561.342 588.68 558.702 586.28 554.382 586.28C549.702 586.28 547.542 588.38 547.542 591.08C547.542 594.32 549.702 595.28 555.462 596.24C565.302 597.86 567.942 600.44 567.942 605.72C567.942 611.36 562.542 614.72 555.342 614.72ZM731.025 614V606.8H738.225V614H731.025ZM759.082 620.6L777.322 569H782.122L763.882 620.6H759.082ZM807.178 614.72C798.898 614.72 793.858 609.98 793.378 603.98L798.658 603.62C799.258 607.58 802.138 609.92 807.178 609.92C811.858 609.92 814.618 608.6 814.618 605.72C814.618 602.96 813.178 601.88 806.218 600.68C796.978 599.06 794.218 596.24 794.218 591.08C794.218 585.56 798.478 581.48 806.278 581.48C814.138 581.48 818.218 586.16 819.178 591.68L813.898 592.04C813.178 588.68 810.538 586.28 806.218 586.28C801.538 586.28 799.378 588.38 799.378 591.08C799.378 594.32 801.538 595.28 807.298 596.24C817.138 597.86 819.778 600.44 819.778 605.72C819.778 611.36 814.378 614.72 807.178 614.72ZM829.955 614V609.56H838.235V586.64H829.955V582.2H842.435L842.795 588.32C843.875 584.18 846.455 582.2 850.415 582.2H856.955V586.76H850.475C845.795 586.76 843.275 589.58 843.275 594.8V609.56H853.355V614H829.955ZM879.371 614.72C870.491 614.72 864.731 608.18 864.731 598.1C864.731 588.02 870.491 581.48 879.371 581.48C886.451 581.48 891.371 585.44 892.691 592.52L887.411 592.88C886.451 588.68 883.451 586.28 879.371 586.28C873.491 586.28 870.011 590.72 870.011 598.1C870.011 605.48 873.491 609.92 879.371 609.92C883.451 609.92 886.691 607.52 887.651 602.72L892.931 603.08C891.611 610.16 886.451 614.72 879.371 614.72ZM902.988 620.6L921.228 569H926.028L907.788 620.6H902.988ZM937.284 614V609.56H950.064V586.64H937.884V582.2H955.104V609.56H966.084V614H937.284ZM949.584 577.22V571.34H954.864V577.22H949.584ZM974.221 614V582.2H978.841L978.961 587.9C980.641 583.52 984.361 581.48 988.741 581.48C996.001 581.48 999.421 586.82 999.421 593.54V614H994.381V594.98C994.381 589.1 992.461 585.92 987.661 585.92C982.741 585.92 979.261 589.1 979.261 594.98V614H974.221ZM1021.06 614.72C1012.66 614.72 1007.44 608.3 1007.44 598.1C1007.44 587.9 1012.66 581.48 1021.06 581.48C1025.5 581.48 1029.04 584 1030.6 586.64V571.4H1035.64V614H1031.08L1030.9 609.2C1029.1 612.68 1025.5 614.72 1021.06 614.72ZM1021.36 609.92C1027.12 609.92 1030.6 605.36 1030.6 598.1C1030.6 590.72 1027.12 586.28 1021.24 586.28C1016.02 586.28 1012.72 590.72 1012.72 598.1C1012.72 605.36 1016.02 609.92 1021.36 609.92ZM1058.95 614.72C1049.95 614.72 1044.37 608.18 1044.37 598.1C1044.37 588.02 1049.95 581.48 1058.71 581.48C1066.99 581.48 1072.81 587.48 1072.81 598.16V599.66H1049.65C1050.01 606.5 1053.43 609.92 1058.95 609.92C1063.09 609.92 1065.79 607.82 1066.87 604.58L1072.27 605C1070.59 610.7 1065.67 614.72 1058.95 614.72ZM1067.29 595.22C1066.81 589.1 1063.39 586.28 1058.71 586.28C1053.79 586.28 1050.49 589.34 1049.65 595.22H1067.29ZM1079.63 614L1091.33 597.68L1080.23 582.2H1086.11L1094.45 594.2L1102.61 582.2H1108.61L1097.57 597.8L1109.15 614H1103.27L1094.45 601.16L1085.63 614H1079.63ZM1126.77 614V606.8H1133.97V614H1126.77ZM1164.96 614.72C1156.56 614.72 1151.34 608.3 1151.34 598.1C1151.34 587.9 1156.56 581.48 1164.96 581.48C1169.4 581.48 1172.94 584 1174.5 586.64V571.4H1179.54V614H1174.98L1174.8 609.2C1173 612.68 1169.4 614.72 1164.96 614.72ZM1165.26 609.92C1171.02 609.92 1174.5 605.36 1174.5 598.1C1174.5 590.72 1171.02 586.28 1165.14 586.28C1159.92 586.28 1156.62 590.72 1156.62 598.1C1156.62 605.36 1159.92 609.92 1165.26 609.92ZM1198.72 614V606.8H1205.92V614H1198.72ZM1242.98 614C1236.8 614 1233.8 611.18 1233.8 605.24V586.64H1223.3V582.2H1233.8V573.8H1238.84V582.2H1251.5V586.64H1238.84V605.24C1238.84 608.18 1240.16 609.56 1242.98 609.56H1251.5V614H1242.98ZM1274.87 614.72C1266.59 614.72 1261.55 609.98 1261.07 603.98L1266.35 603.62C1266.95 607.58 1269.83 609.92 1274.87 609.92C1279.55 609.92 1282.31 608.6 1282.31 605.72C1282.31 602.96 1280.87 601.88 1273.91 600.68C1264.67 599.06 1261.91 596.24 1261.91 591.08C1261.91 585.56 1266.17 581.48 1273.97 581.48C1281.83 581.48 1285.91 586.16 1286.87 591.68L1281.59 592.04C1280.87 588.68 1278.23 586.28 1273.91 586.28C1269.23 586.28 1267.07 588.38 1267.07 591.08C1267.07 594.32 1269.23 595.28 1274.99 596.24C1284.83 597.86 1287.47 600.44 1287.47 605.72C1287.47 611.36 1282.07 614.72 1274.87 614.72Z" fill="#B56959"/>
</svg>
