<svg width="1125" height="940" viewBox="0 0 1125 940" fill="none" xmlns="http://www.w3.org/2000/svg">
<rect x="870.12" y="6.12" width="165.76" height="165.76" rx="82.88" fill="#ECECFF" stroke="#9370DB" stroke-width="2.24"/>
<path d="M910.295 93.52H915.703V95.3201H908.059V83.7744H910.295V93.52ZM918.328 86.7401H922.998V93.528H925.322V95.3201H918.328V93.528H920.77V88.5402H918.328V86.7401ZM920.611 84.5436C920.611 84.3745 920.64 84.2185 920.699 84.0758C920.762 83.9278 920.849 83.8009 920.96 83.6951C921.071 83.5947 921.203 83.5154 921.357 83.4573C921.515 83.3991 921.69 83.37 921.88 83.37C922.271 83.37 922.581 83.481 922.808 83.7031C923.04 83.9198 923.157 84.2 923.157 84.5436C923.157 84.8872 923.04 85.1701 922.808 85.3921C922.581 85.6088 922.271 85.7172 921.88 85.7172C921.69 85.7172 921.515 85.6881 921.357 85.63C921.203 85.5718 921.071 85.4899 920.96 85.3842C920.849 85.2837 920.762 85.1621 920.699 85.0194C920.64 84.8714 920.611 84.7128 920.611 84.5436ZM935.226 91.1173C935.226 91.5297 935.197 91.9209 935.139 92.2909C935.08 92.6557 934.996 92.994 934.885 93.3059C934.763 93.6495 934.602 93.9614 934.401 94.2416C934.205 94.5218 933.973 94.7544 933.703 94.9394C933.46 95.1139 933.185 95.2461 932.879 95.3359C932.577 95.4311 932.244 95.4787 931.879 95.4787C931.546 95.4787 931.242 95.4364 930.968 95.3518C930.698 95.2725 930.455 95.1535 930.238 94.995C930.122 94.9157 930.013 94.8284 929.913 94.7333C929.812 94.6328 929.717 94.5245 929.627 94.4082L929.524 95.3201H927.542V83.1401H929.746V87.5173C929.852 87.3957 929.966 87.2847 930.087 87.1842C930.209 87.0785 930.338 86.9886 930.476 86.9146C930.671 86.8036 930.883 86.7216 931.11 86.6688C931.343 86.6106 931.594 86.5816 931.864 86.5816C932.234 86.5816 932.572 86.6291 932.879 86.7243C933.19 86.8194 933.468 86.9569 933.711 87.1366C933.907 87.2741 934.084 87.4406 934.242 87.6362C934.401 87.8265 934.541 88.0353 934.663 88.2626C934.853 88.6274 934.993 89.0371 935.083 89.4917C935.178 89.9464 935.226 90.4327 935.226 90.9508V91.1173ZM933.021 90.9508C933.021 90.7235 933.011 90.5041 932.99 90.2926C932.968 90.0812 932.934 89.8829 932.886 89.6979C932.828 89.4812 932.752 89.2882 932.657 89.1191C932.567 88.9446 932.429 88.786 932.244 88.6433C932.123 88.5534 931.985 88.4873 931.832 88.445C931.679 88.3975 931.504 88.3737 931.308 88.3737C931.044 88.3737 930.812 88.4107 930.611 88.4847C930.41 88.5587 930.238 88.6671 930.095 88.8098C930.027 88.8785 929.963 88.9578 929.905 89.0477C929.847 89.1323 929.794 89.2248 929.746 89.3252V92.7429C929.81 92.8751 929.881 92.9967 929.96 93.1077C930.045 93.2134 930.143 93.3059 930.254 93.3852C930.386 93.4857 930.539 93.5623 930.714 93.6152C930.893 93.6681 931.097 93.6945 931.324 93.6945C931.52 93.6945 931.697 93.6707 931.856 93.6231C932.014 93.5755 932.152 93.5095 932.268 93.4249C932.432 93.3086 932.564 93.1579 932.664 92.9729C932.77 92.7826 932.849 92.5685 932.902 92.3306C932.945 92.1561 932.974 91.9658 932.99 91.7596C933.011 91.5535 933.021 91.3394 933.021 91.1173V90.9508ZM943.409 86.5816C943.742 86.5816 944.049 86.6053 944.329 86.6529C944.614 86.6952 944.844 86.7428 945.019 86.7957L944.694 88.9922C944.403 88.9235 944.104 88.8732 943.798 88.8415C943.496 88.8045 943.208 88.786 942.933 88.786C942.648 88.786 942.389 88.8124 942.156 88.8653C941.929 88.9129 941.725 88.9869 941.546 89.0873C941.329 89.2036 941.144 89.3517 940.991 89.5314C940.837 89.7111 940.71 89.9226 940.61 90.1658V95.3201H938.406V86.7401H940.459L940.547 87.9534L940.562 88.1437C940.911 87.6573 941.329 87.2767 941.815 87.0018C942.302 86.7216 942.833 86.5816 943.409 86.5816ZM952.362 95.3201C952.309 95.2143 952.264 95.0928 952.227 94.9553C952.19 94.8179 952.158 94.6725 952.132 94.5192C952.01 94.6513 951.87 94.7756 951.712 94.8919C951.553 95.0082 951.379 95.1086 951.188 95.1932C950.993 95.2831 950.779 95.3518 950.546 95.3994C950.313 95.4522 950.062 95.4787 949.793 95.4787C949.354 95.4787 948.949 95.4152 948.579 95.2883C948.215 95.1615 947.9 94.9844 947.636 94.7571C947.371 94.5297 947.165 94.2601 947.017 93.9482C946.869 93.631 946.795 93.2874 946.795 92.9174C946.795 92.4416 946.888 92.0213 947.073 91.6566C947.258 91.2865 947.535 90.9825 947.905 90.7446C948.238 90.5279 948.648 90.364 949.134 90.253C949.626 90.1367 950.189 90.0785 950.823 90.0785H952.053V89.571C952.053 89.3702 952.021 89.1904 951.957 89.0318C951.894 88.8679 951.799 88.7279 951.672 88.6116C951.54 88.49 951.373 88.3975 951.172 88.334C950.977 88.2653 950.747 88.2309 950.482 88.2309C950.25 88.2309 950.049 88.26 949.88 88.3182C949.711 88.371 949.573 88.4477 949.467 88.5481C949.372 88.638 949.301 88.7464 949.253 88.8732C949.211 89.0001 949.19 89.1402 949.19 89.2935H946.985C946.985 88.9287 947.065 88.5825 947.223 88.2547C947.387 87.927 947.625 87.6388 947.937 87.3904C948.244 87.1419 948.619 86.9463 949.063 86.8036C949.512 86.6556 950.025 86.5816 950.601 86.5816C951.119 86.5816 951.601 86.645 952.045 86.7719C952.494 86.8987 952.883 87.0864 953.21 87.3349C953.538 87.5833 953.794 87.8979 953.979 88.2785C954.164 88.6538 954.257 89.09 954.257 89.5869V93.2663C954.257 93.7262 954.286 94.1068 954.344 94.4082C954.402 94.7095 954.487 94.9685 954.598 95.1853V95.3201H952.362ZM950.26 93.7738C950.482 93.7738 950.689 93.7473 950.879 93.6945C951.069 93.6416 951.241 93.5729 951.394 93.4883C951.548 93.4037 951.68 93.3086 951.791 93.2028C951.902 93.0918 951.989 92.9808 952.053 92.8698V91.3949H950.927C950.583 91.3949 950.29 91.4292 950.046 91.498C949.803 91.5614 949.605 91.6513 949.452 91.7676C949.298 91.8892 949.185 92.0345 949.111 92.2037C949.037 92.3676 949 92.5473 949 92.7429C949 92.8962 949.026 93.039 949.079 93.1711C949.137 93.298 949.219 93.4064 949.325 93.4962C949.43 93.5808 949.56 93.6495 949.713 93.7024C949.872 93.75 950.054 93.7738 950.26 93.7738ZM962.916 86.5816C963.249 86.5816 963.556 86.6053 963.836 86.6529C964.122 86.6952 964.351 86.7428 964.526 86.7957L964.201 88.9922C963.91 88.9235 963.611 88.8732 963.305 88.8415C963.003 88.8045 962.715 88.786 962.44 88.786C962.155 88.786 961.896 88.8124 961.663 88.8653C961.436 88.9129 961.232 88.9869 961.053 89.0873C960.836 89.2036 960.651 89.3517 960.498 89.5314C960.344 89.7111 960.217 89.9226 960.117 90.1658V95.3201H957.913V86.7401H959.966L960.054 87.9534L960.069 88.1437C960.418 87.6573 960.836 87.2767 961.322 87.0018C961.809 86.7216 962.34 86.5816 962.916 86.5816ZM967.864 98.7853C967.653 98.7853 967.468 98.7721 967.309 98.7457C967.156 98.7193 966.984 98.6796 966.794 98.6267L967.063 96.9457C967.153 96.9457 967.267 96.9483 967.404 96.9536C967.547 96.9642 967.661 96.9694 967.745 96.9694C967.92 96.9694 968.073 96.9139 968.205 96.8029C968.343 96.6972 968.459 96.5809 968.554 96.454C968.649 96.3271 968.718 96.232 968.76 96.1685C968.808 96.1051 968.863 96.0152 968.927 95.8989L969.434 94.9553L965.803 86.7401H968.213L970.18 91.7676L970.418 92.6398L970.743 91.7834L972.701 86.7401H975.136L970.782 96.6047C970.687 96.8214 970.563 97.0567 970.41 97.3104C970.262 97.5642 970.074 97.7994 969.847 98.0162C969.619 98.2329 969.342 98.4153 969.014 98.5633C968.692 98.7113 968.308 98.7853 967.864 98.7853ZM985.92 95.3201V83.7744H989.798C990.427 83.7744 990.998 83.8379 991.511 83.9648C992.029 84.0916 992.47 84.2846 992.835 84.5436C993.2 84.8027 993.48 85.1304 993.675 85.5269C993.876 85.9234 993.977 86.3912 993.977 86.9305C993.972 87.2794 993.908 87.6098 993.786 87.9217C993.67 88.2283 993.496 88.4979 993.263 88.7305C993.136 88.8574 992.991 88.9737 992.827 89.0794C992.668 89.1851 992.491 89.275 992.296 89.349V89.3569C992.676 89.4627 992.978 89.5975 993.2 89.7614C993.427 89.9252 993.617 90.1156 993.771 90.3323C993.929 90.5649 994.046 90.8186 994.12 91.0935C994.199 91.3632 994.238 91.6433 994.238 91.9341C994.238 92.4892 994.143 92.9782 993.953 93.4011C993.763 93.824 993.49 94.1782 993.136 94.4637C992.782 94.7491 992.351 94.9632 991.844 95.106C991.336 95.2487 990.765 95.3201 990.131 95.3201H985.92ZM988.156 90.2292V93.52H990.139C990.43 93.52 990.689 93.483 990.916 93.409C991.149 93.335 991.342 93.2346 991.495 93.1077C991.664 92.965 991.791 92.7931 991.875 92.5923C991.965 92.3914 992.01 92.1667 992.01 91.9182C992.01 91.6592 991.976 91.4266 991.907 91.2204C991.844 91.0142 991.741 90.8398 991.598 90.6971C991.455 90.549 991.27 90.4354 991.043 90.3561C990.815 90.2768 990.546 90.2345 990.234 90.2292H988.156ZM988.156 88.6195H989.814C990.152 88.6142 990.451 88.5745 990.71 88.5005C990.969 88.4212 991.178 88.3049 991.336 88.1516C991.468 88.03 991.569 87.882 991.638 87.7076C991.712 87.5331 991.749 87.3349 991.749 87.1128C991.749 86.8802 991.717 86.6767 991.653 86.5023C991.595 86.3278 991.505 86.1824 991.384 86.0661C991.225 85.9022 991.011 85.7833 990.741 85.7093C990.477 85.6353 990.165 85.5956 989.806 85.5903H988.156V88.6195Z" fill="#333333"/>
<rect x="2.52667" y="2.52667" width="373.947" height="373.947" rx="186.973" fill="#ECECFF" stroke="#9370DB" stroke-width="5.05333"/>
<path d="M93.1591 199.732H105.359V203.793H88.1144V177.747H93.1591V199.732ZM111.281 184.437H121.817V199.75H127.059V203.793H111.281V199.75H116.79V188.498H111.281V184.437ZM116.433 179.482C116.433 179.1 116.498 178.749 116.629 178.427C116.773 178.093 116.969 177.806 117.22 177.568C117.47 177.341 117.768 177.162 118.114 177.031C118.472 176.9 118.866 176.834 119.295 176.834C120.177 176.834 120.875 177.085 121.388 177.586C121.913 178.075 122.175 178.707 122.175 179.482C122.175 180.257 121.913 180.895 121.388 181.396C120.875 181.885 120.177 182.13 119.295 182.13C118.866 182.13 118.472 182.064 118.114 181.933C117.768 181.802 117.47 181.617 117.22 181.378C116.969 181.152 116.773 180.877 116.629 180.555C116.498 180.221 116.433 179.864 116.433 179.482ZM149.402 194.312C149.402 195.242 149.337 196.125 149.205 196.96C149.074 197.783 148.883 198.546 148.633 199.249C148.359 200.025 147.995 200.728 147.542 201.36C147.1 201.992 146.576 202.517 145.967 202.935C145.419 203.328 144.799 203.626 144.107 203.829C143.427 204.044 142.676 204.151 141.853 204.151C141.102 204.151 140.416 204.056 139.796 203.865C139.188 203.686 138.639 203.418 138.15 203.06C137.888 202.881 137.643 202.684 137.416 202.469C137.19 202.243 136.975 201.998 136.772 201.736L136.54 203.793H132.068V176.316H137.041V186.19C137.279 185.916 137.536 185.666 137.81 185.439C138.084 185.201 138.377 184.998 138.687 184.831C139.128 184.58 139.605 184.396 140.118 184.276C140.642 184.145 141.209 184.08 141.817 184.08C142.652 184.08 143.415 184.187 144.107 184.402C144.811 184.616 145.437 184.926 145.985 185.332C146.427 185.642 146.826 186.018 147.184 186.459C147.542 186.888 147.858 187.359 148.132 187.872C148.561 188.695 148.877 189.619 149.08 190.645C149.295 191.67 149.402 192.768 149.402 193.936V194.312ZM144.429 193.936C144.429 193.424 144.405 192.929 144.357 192.452C144.31 191.975 144.232 191.527 144.125 191.11C143.994 190.621 143.821 190.186 143.606 189.804C143.403 189.41 143.093 189.053 142.676 188.731C142.402 188.528 142.091 188.379 141.746 188.283C141.4 188.176 141.006 188.122 140.565 188.122C139.969 188.122 139.444 188.206 138.991 188.373C138.538 188.54 138.15 188.784 137.828 189.106C137.673 189.261 137.53 189.44 137.399 189.643C137.267 189.834 137.148 190.043 137.041 190.269V197.979C137.184 198.277 137.345 198.552 137.524 198.802C137.715 199.041 137.935 199.249 138.186 199.428C138.484 199.655 138.83 199.828 139.223 199.947C139.629 200.066 140.088 200.126 140.601 200.126C141.042 200.126 141.442 200.072 141.799 199.965C142.157 199.858 142.467 199.709 142.73 199.518C143.099 199.255 143.397 198.915 143.624 198.498C143.862 198.069 144.041 197.586 144.161 197.049C144.256 196.656 144.322 196.226 144.357 195.761C144.405 195.296 144.429 194.813 144.429 194.312V193.936ZM167.864 184.08C168.615 184.08 169.307 184.133 169.939 184.241C170.583 184.336 171.101 184.443 171.495 184.563L170.762 189.518C170.106 189.363 169.432 189.249 168.74 189.178C168.06 189.094 167.41 189.053 166.79 189.053C166.146 189.053 165.562 189.112 165.037 189.232C164.524 189.339 164.065 189.506 163.66 189.732C163.171 189.995 162.753 190.329 162.407 190.734C162.062 191.14 161.775 191.617 161.549 192.165V203.793H156.576V184.437H161.209L161.406 187.174L161.441 187.604C162.229 186.506 163.171 185.648 164.268 185.028C165.365 184.396 166.564 184.08 167.864 184.08ZM188.06 203.793C187.941 203.555 187.84 203.28 187.756 202.97C187.673 202.66 187.601 202.332 187.541 201.986C187.267 202.285 186.951 202.565 186.593 202.827C186.236 203.09 185.842 203.316 185.413 203.507C184.971 203.71 184.488 203.865 183.964 203.972C183.439 204.091 182.872 204.151 182.264 204.151C181.274 204.151 180.362 204.008 179.527 203.722C178.704 203.435 177.995 203.036 177.398 202.523C176.802 202.01 176.337 201.402 176.003 200.698C175.669 199.983 175.502 199.208 175.502 198.373C175.502 197.3 175.711 196.351 176.128 195.528C176.546 194.694 177.172 194.008 178.007 193.471C178.758 192.982 179.682 192.613 180.779 192.362C181.889 192.1 183.159 191.969 184.59 191.969H187.363V190.824C187.363 190.371 187.291 189.965 187.148 189.607C187.005 189.238 186.79 188.921 186.504 188.659C186.206 188.385 185.83 188.176 185.377 188.033C184.936 187.878 184.417 187.8 183.821 187.8C183.296 187.8 182.843 187.866 182.461 187.997C182.079 188.116 181.769 188.289 181.531 188.516C181.316 188.719 181.155 188.963 181.048 189.249C180.952 189.536 180.905 189.852 180.905 190.198H175.932C175.932 189.375 176.11 188.594 176.468 187.854C176.838 187.115 177.375 186.465 178.078 185.904C178.77 185.344 179.617 184.902 180.618 184.58C181.632 184.247 182.789 184.08 184.089 184.08C185.258 184.08 186.343 184.223 187.345 184.509C188.358 184.795 189.235 185.218 189.974 185.779C190.714 186.34 191.292 187.049 191.71 187.908C192.127 188.755 192.336 189.738 192.336 190.859V199.16C192.336 200.198 192.401 201.056 192.533 201.736C192.664 202.416 192.855 203 193.105 203.489V203.793H188.06ZM183.32 200.305C183.821 200.305 184.286 200.245 184.715 200.126C185.144 200.007 185.532 199.852 185.878 199.661C186.224 199.47 186.522 199.255 186.772 199.017C187.023 198.766 187.219 198.516 187.363 198.266V194.938H184.822C184.047 194.938 183.385 195.016 182.837 195.171C182.288 195.314 181.841 195.517 181.495 195.779C181.149 196.053 180.893 196.381 180.726 196.763C180.559 197.133 180.475 197.538 180.475 197.979C180.475 198.325 180.535 198.647 180.654 198.945C180.785 199.232 180.97 199.476 181.209 199.679C181.447 199.87 181.739 200.025 182.085 200.144C182.443 200.251 182.855 200.305 183.32 200.305ZM211.87 184.08C212.622 184.08 213.314 184.133 213.946 184.241C214.59 184.336 215.108 184.443 215.502 184.563L214.769 189.518C214.113 189.363 213.439 189.249 212.747 189.178C212.067 189.094 211.417 189.053 210.797 189.053C210.153 189.053 209.569 189.112 209.044 189.232C208.531 189.339 208.072 189.506 207.667 189.732C207.178 189.995 206.76 190.329 206.414 190.734C206.068 191.14 205.782 191.617 205.556 192.165V203.793H200.583V184.437H205.216L205.413 187.174L205.448 187.604C206.235 186.506 207.178 185.648 208.275 185.028C209.372 184.396 210.571 184.08 211.87 184.08ZM223.033 211.611C222.556 211.611 222.139 211.581 221.781 211.521C221.435 211.462 221.048 211.372 220.618 211.253L221.226 207.46C221.429 207.46 221.686 207.466 221.996 207.478C222.318 207.502 222.574 207.514 222.765 207.514C223.158 207.514 223.504 207.389 223.802 207.138C224.113 206.9 224.375 206.638 224.59 206.351C224.804 206.065 224.959 205.85 225.055 205.707C225.162 205.564 225.287 205.361 225.43 205.099L226.575 202.97L218.382 184.437H223.82L228.257 195.779L228.793 197.747L229.527 195.815L233.946 184.437H239.437L229.616 206.691C229.402 207.18 229.121 207.711 228.776 208.283C228.442 208.856 228.018 209.387 227.505 209.875C226.993 210.364 226.367 210.776 225.627 211.11C224.9 211.444 224.035 211.611 223.033 211.611ZM276.611 198.355H268.793L267.255 203.793H261.96L270.493 177.747H275.054L283.426 203.793H278.131L276.611 198.355ZM270.028 194.079H275.43L272.765 184.491L270.028 194.079Z" fill="#333333"/>
<rect x="186" y="642" width="296" height="296" rx="148" fill="#ECECFF" stroke="#9370DB" stroke-width="4"/>
<path d="M257.741 797.786H267.398V801H253.748V780.383H257.741V797.786ZM272.085 785.679H280.425V797.8H284.574V801H272.085V797.8H276.446V788.893H272.085V785.679ZM276.163 781.756C276.163 781.454 276.215 781.176 276.319 780.921C276.432 780.657 276.588 780.43 276.786 780.241C276.984 780.062 277.22 779.92 277.494 779.816C277.777 779.713 278.089 779.661 278.429 779.661C279.127 779.661 279.68 779.859 280.085 780.255C280.501 780.642 280.708 781.143 280.708 781.756C280.708 782.37 280.501 782.875 280.085 783.271C279.68 783.659 279.127 783.852 278.429 783.852C278.089 783.852 277.777 783.8 277.494 783.696C277.22 783.592 276.984 783.446 276.786 783.257C276.588 783.078 276.432 782.861 276.319 782.606C276.215 782.342 276.163 782.058 276.163 781.756ZM302.26 793.495C302.26 794.231 302.208 794.93 302.104 795.591C302.001 796.242 301.85 796.846 301.651 797.403C301.434 798.017 301.146 798.574 300.788 799.074C300.438 799.575 300.023 799.99 299.542 800.32C299.107 800.632 298.616 800.868 298.069 801.028C297.531 801.198 296.936 801.283 296.285 801.283C295.69 801.283 295.147 801.208 294.656 801.057C294.175 800.915 293.741 800.703 293.354 800.419C293.146 800.278 292.952 800.122 292.773 799.952C292.594 799.773 292.424 799.579 292.263 799.372L292.079 801H288.539V779.25H292.476V787.066C292.664 786.849 292.867 786.651 293.084 786.472C293.302 786.283 293.533 786.122 293.778 785.99C294.128 785.792 294.505 785.646 294.911 785.551C295.326 785.447 295.775 785.396 296.256 785.396C296.917 785.396 297.521 785.48 298.069 785.65C298.626 785.82 299.121 786.066 299.556 786.387C299.905 786.632 300.221 786.93 300.504 787.279C300.788 787.619 301.038 787.992 301.255 788.397C301.595 789.049 301.845 789.78 302.005 790.592C302.175 791.404 302.26 792.273 302.26 793.198V793.495ZM298.324 793.198C298.324 792.792 298.305 792.4 298.267 792.022C298.229 791.645 298.168 791.291 298.083 790.96C297.979 790.573 297.842 790.229 297.672 789.927C297.512 789.615 297.266 789.332 296.936 789.077C296.719 788.917 296.473 788.799 296.2 788.723C295.926 788.638 295.614 788.596 295.265 788.596C294.793 788.596 294.378 788.662 294.019 788.794C293.66 788.926 293.354 789.12 293.099 789.375C292.976 789.497 292.863 789.639 292.759 789.799C292.655 789.95 292.561 790.116 292.476 790.295V796.398C292.589 796.634 292.716 796.851 292.858 797.049C293.009 797.238 293.184 797.403 293.382 797.545C293.618 797.724 293.892 797.861 294.203 797.956C294.524 798.05 294.888 798.097 295.293 798.097C295.643 798.097 295.959 798.055 296.242 797.97C296.525 797.885 296.771 797.767 296.979 797.616C297.271 797.408 297.507 797.139 297.687 796.809C297.875 796.469 298.017 796.086 298.111 795.662C298.187 795.35 298.239 795.01 298.267 794.642C298.305 794.274 298.324 793.892 298.324 793.495V793.198ZM316.874 785.396C317.468 785.396 318.016 785.438 318.516 785.523C319.026 785.598 319.437 785.683 319.748 785.778L319.167 789.7C318.648 789.577 318.115 789.488 317.567 789.431C317.029 789.365 316.515 789.332 316.024 789.332C315.514 789.332 315.052 789.379 314.636 789.474C314.23 789.559 313.867 789.691 313.546 789.87C313.159 790.078 312.828 790.342 312.555 790.663C312.281 790.984 312.054 791.362 311.875 791.796V801H307.938V785.679H311.606L311.762 787.845L311.79 788.185C312.413 787.317 313.159 786.637 314.027 786.146C314.896 785.646 315.845 785.396 316.874 785.396ZM332.86 801C332.766 800.811 332.686 800.594 332.62 800.349C332.554 800.103 332.497 799.844 332.45 799.57C332.233 799.806 331.982 800.028 331.699 800.235C331.416 800.443 331.104 800.622 330.765 800.773C330.415 800.934 330.033 801.057 329.618 801.142C329.202 801.236 328.754 801.283 328.272 801.283C327.489 801.283 326.767 801.17 326.106 800.943C325.455 800.717 324.893 800.401 324.421 799.995C323.949 799.589 323.581 799.107 323.316 798.55C323.052 797.984 322.92 797.37 322.92 796.709C322.92 795.86 323.085 795.109 323.416 794.458C323.746 793.797 324.242 793.254 324.902 792.83C325.497 792.443 326.229 792.15 327.097 791.952C327.975 791.744 328.98 791.64 330.113 791.64H332.308V790.734C332.308 790.375 332.251 790.054 332.138 789.771C332.025 789.478 331.855 789.228 331.628 789.021C331.392 788.803 331.095 788.638 330.736 788.525C330.387 788.402 329.976 788.341 329.504 788.341C329.089 788.341 328.73 788.393 328.428 788.497C328.126 788.591 327.881 788.728 327.692 788.907C327.522 789.068 327.395 789.261 327.31 789.488C327.234 789.714 327.196 789.965 327.196 790.238H323.26C323.26 789.587 323.401 788.969 323.685 788.383C323.977 787.798 324.402 787.284 324.959 786.84C325.507 786.396 326.177 786.047 326.97 785.792C327.772 785.528 328.688 785.396 329.717 785.396C330.642 785.396 331.501 785.509 332.294 785.735C333.096 785.962 333.79 786.297 334.375 786.741C334.961 787.184 335.419 787.746 335.749 788.426C336.079 789.096 336.245 789.875 336.245 790.762V797.333C336.245 798.154 336.297 798.833 336.4 799.372C336.504 799.91 336.655 800.372 336.854 800.759V801H332.86ZM329.108 798.239C329.504 798.239 329.873 798.192 330.212 798.097C330.552 798.003 330.859 797.88 331.133 797.729C331.407 797.578 331.643 797.408 331.841 797.219C332.039 797.021 332.195 796.823 332.308 796.625V793.991H330.297C329.684 793.991 329.16 794.052 328.726 794.175C328.291 794.288 327.937 794.449 327.664 794.656C327.39 794.873 327.187 795.133 327.055 795.435C326.923 795.728 326.856 796.049 326.856 796.398C326.856 796.672 326.904 796.927 326.998 797.163C327.102 797.389 327.248 797.583 327.437 797.743C327.626 797.894 327.857 798.017 328.131 798.111C328.414 798.196 328.74 798.239 329.108 798.239ZM351.708 785.396C352.302 785.396 352.85 785.438 353.35 785.523C353.86 785.598 354.271 785.683 354.582 785.778L354.001 789.7C353.482 789.577 352.949 789.488 352.401 789.431C351.863 789.365 351.349 789.332 350.858 789.332C350.348 789.332 349.886 789.379 349.47 789.474C349.064 789.559 348.701 789.691 348.38 789.87C347.993 790.078 347.662 790.342 347.389 790.663C347.115 790.984 346.888 791.362 346.709 791.796V801H342.772V785.679H346.44L346.596 787.845L346.624 788.185C347.247 787.317 347.993 786.637 348.861 786.146C349.73 785.646 350.679 785.396 351.708 785.396ZM360.543 807.188C360.166 807.188 359.835 807.164 359.552 807.117C359.278 807.07 358.972 806.999 358.632 806.905L359.113 803.903C359.274 803.903 359.477 803.908 359.722 803.917C359.977 803.936 360.18 803.945 360.331 803.945C360.643 803.945 360.916 803.846 361.152 803.648C361.398 803.459 361.605 803.251 361.775 803.025C361.945 802.798 362.068 802.628 362.144 802.515C362.229 802.402 362.328 802.241 362.441 802.034L363.347 800.349L356.862 785.679H361.167L364.678 794.656L365.103 796.214L365.684 794.685L369.181 785.679H373.528L365.754 803.294C365.584 803.681 365.363 804.101 365.089 804.554C364.825 805.007 364.489 805.427 364.083 805.814C363.678 806.201 363.182 806.527 362.597 806.792C362.021 807.056 361.336 807.188 360.543 807.188ZM407.13 794.543C407.064 795.581 406.838 796.516 406.451 797.347C406.073 798.177 405.563 798.885 404.921 799.471C404.279 800.056 403.515 800.509 402.627 800.83C401.74 801.142 400.758 801.297 399.682 801.297C398.833 801.297 398.044 801.189 397.317 800.972C396.6 800.745 395.953 800.424 395.377 800.009C394.849 799.622 394.377 799.154 393.961 798.607C393.556 798.059 393.211 797.455 392.928 796.794C392.654 796.134 392.442 795.407 392.291 794.614C392.149 793.821 392.078 792.981 392.078 792.093V789.318C392.078 788.487 392.144 787.699 392.276 786.953C392.409 786.198 392.607 785.499 392.871 784.857C393.173 784.074 393.57 783.375 394.061 782.762C394.551 782.148 395.108 781.629 395.731 781.204C396.288 780.845 396.897 780.572 397.558 780.383C398.228 780.185 398.946 780.085 399.71 780.085C400.843 780.085 401.849 780.246 402.727 780.567C403.614 780.888 404.369 781.346 404.992 781.94C405.615 782.535 406.106 783.262 406.465 784.121C406.824 784.98 407.05 785.948 407.145 787.024H403.18C403.142 786.41 403.048 785.872 402.896 785.41C402.755 784.947 402.547 784.56 402.273 784.249C401.99 783.946 401.636 783.72 401.211 783.569C400.796 783.408 400.296 783.328 399.71 783.328C399.399 783.328 399.106 783.361 398.833 783.427C398.568 783.493 398.323 783.592 398.096 783.725C397.709 783.951 397.379 784.277 397.105 784.702C396.841 785.117 396.628 785.603 396.468 786.16C396.345 786.594 396.255 787.076 396.199 787.604C396.142 788.124 396.114 788.685 396.114 789.29V792.093C396.114 792.915 396.156 793.651 396.241 794.302C396.336 794.944 396.477 795.506 396.666 795.987C396.798 796.318 396.954 796.61 397.133 796.865C397.322 797.12 397.535 797.333 397.771 797.502C398.025 797.691 398.309 797.833 398.62 797.927C398.941 798.012 399.295 798.055 399.682 798.055C400.201 798.055 400.669 797.989 401.084 797.856C401.499 797.724 401.853 797.517 402.146 797.233C402.439 796.95 402.67 796.587 402.84 796.143C403.01 795.699 403.114 795.166 403.151 794.543H407.13Z" fill="#333333"/>
<rect x="536.867" y="74.8667" width="128.267" height="128.267" rx="64.1333" fill="#ECECFF" stroke="#9370DB" stroke-width="1.73333"/>
<path d="M567.954 142.141H572.139V143.533H566.224V134.599H567.954V142.141ZM574.17 136.894H577.784V142.147H579.582V143.533H574.17V142.147H576.06V138.287H574.17V136.894ZM575.937 135.195C575.937 135.064 575.96 134.943 576.005 134.833C576.054 134.718 576.121 134.62 576.207 134.538C576.293 134.46 576.395 134.399 576.514 134.354C576.637 134.309 576.772 134.286 576.919 134.286C577.222 134.286 577.461 134.372 577.637 134.544C577.817 134.712 577.907 134.929 577.907 135.195C577.907 135.46 577.817 135.679 577.637 135.851C577.461 136.019 577.222 136.103 576.919 136.103C576.772 136.103 576.637 136.08 576.514 136.035C576.395 135.99 576.293 135.927 576.207 135.845C576.121 135.767 576.054 135.673 576.005 135.563C575.96 135.448 575.937 135.325 575.937 135.195ZM587.246 140.281C587.246 140.6 587.224 140.903 587.179 141.189C587.134 141.472 587.068 141.734 586.982 141.975C586.888 142.241 586.763 142.482 586.608 142.699C586.457 142.916 586.277 143.096 586.068 143.239C585.88 143.374 585.667 143.476 585.43 143.546C585.197 143.619 584.939 143.656 584.657 143.656C584.399 143.656 584.164 143.623 583.951 143.558C583.742 143.497 583.554 143.405 583.387 143.282C583.297 143.221 583.213 143.153 583.135 143.079C583.057 143.002 582.984 142.918 582.914 142.828L582.834 143.533H581.3V134.108H583.006V137.496C583.088 137.401 583.176 137.316 583.27 137.238C583.364 137.156 583.464 137.086 583.571 137.029C583.722 136.943 583.886 136.88 584.061 136.839C584.241 136.794 584.436 136.772 584.644 136.772C584.931 136.772 585.193 136.808 585.43 136.882C585.671 136.956 585.886 137.062 586.074 137.201C586.225 137.307 586.363 137.436 586.485 137.588C586.608 137.735 586.716 137.896 586.81 138.072C586.958 138.355 587.066 138.672 587.136 139.023C587.209 139.375 587.246 139.752 587.246 140.152V140.281ZM585.54 140.152C585.54 139.977 585.532 139.807 585.516 139.643C585.499 139.48 585.473 139.326 585.436 139.183C585.391 139.015 585.332 138.866 585.258 138.735C585.188 138.6 585.082 138.477 584.939 138.367C584.845 138.297 584.739 138.246 584.62 138.213C584.501 138.177 584.366 138.158 584.215 138.158C584.01 138.158 583.83 138.187 583.675 138.244C583.519 138.301 583.387 138.385 583.276 138.496C583.223 138.549 583.174 138.61 583.129 138.68C583.084 138.745 583.043 138.817 583.006 138.895V141.539C583.055 141.641 583.11 141.736 583.172 141.821C583.237 141.903 583.313 141.975 583.399 142.036C583.501 142.114 583.62 142.173 583.755 142.214C583.894 142.255 584.051 142.276 584.227 142.276C584.379 142.276 584.516 142.257 584.638 142.22C584.761 142.184 584.867 142.132 584.957 142.067C585.084 141.977 585.186 141.86 585.264 141.717C585.346 141.57 585.407 141.404 585.448 141.22C585.481 141.085 585.503 140.938 585.516 140.778C585.532 140.619 585.54 140.453 585.54 140.281V140.152ZM593.579 136.772C593.836 136.772 594.074 136.79 594.29 136.827C594.511 136.859 594.689 136.896 594.824 136.937L594.573 138.637C594.348 138.584 594.116 138.545 593.879 138.52C593.646 138.492 593.423 138.477 593.21 138.477C592.989 138.477 592.789 138.498 592.609 138.539C592.433 138.576 592.276 138.633 592.137 138.71C591.969 138.8 591.826 138.915 591.707 139.054C591.588 139.193 591.49 139.357 591.412 139.545V143.533H589.707V136.894H591.296L591.363 137.833L591.376 137.98C591.646 137.604 591.969 137.309 592.345 137.097C592.722 136.88 593.133 136.772 593.579 136.772ZM600.506 143.533C600.465 143.452 600.43 143.358 600.402 143.251C600.373 143.145 600.349 143.032 600.328 142.914C600.234 143.016 600.126 143.112 600.003 143.202C599.88 143.292 599.745 143.37 599.598 143.435C599.447 143.505 599.281 143.558 599.101 143.595C598.921 143.636 598.727 143.656 598.518 143.656C598.179 143.656 597.866 143.607 597.579 143.509C597.297 143.411 597.054 143.274 596.849 143.098C596.645 142.922 596.485 142.713 596.37 142.472C596.256 142.226 596.199 141.961 596.199 141.674C596.199 141.306 596.27 140.981 596.413 140.699C596.557 140.412 596.771 140.177 597.058 139.993C597.315 139.825 597.632 139.698 598.009 139.613C598.389 139.523 598.825 139.478 599.316 139.478H600.267V139.085C600.267 138.929 600.242 138.79 600.193 138.668C600.144 138.541 600.07 138.432 599.972 138.342C599.87 138.248 599.741 138.177 599.586 138.128C599.434 138.074 599.256 138.048 599.052 138.048C598.872 138.048 598.716 138.07 598.586 138.115C598.455 138.156 598.348 138.216 598.266 138.293C598.193 138.363 598.138 138.447 598.101 138.545C598.068 138.643 598.052 138.751 598.052 138.87H596.346C596.346 138.588 596.407 138.32 596.53 138.066C596.657 137.813 596.841 137.59 597.082 137.397C597.319 137.205 597.61 137.054 597.954 136.943C598.301 136.829 598.698 136.772 599.144 136.772C599.545 136.772 599.917 136.821 600.261 136.919C600.608 137.017 600.909 137.162 601.163 137.354C601.416 137.547 601.615 137.79 601.758 138.085C601.901 138.375 601.973 138.713 601.973 139.097V141.944C601.973 142.3 601.995 142.595 602.04 142.828C602.085 143.061 602.151 143.261 602.237 143.429V143.533H600.506ZM598.88 142.337C599.052 142.337 599.211 142.316 599.359 142.276C599.506 142.235 599.639 142.181 599.758 142.116C599.876 142.051 599.978 141.977 600.064 141.895C600.15 141.809 600.218 141.723 600.267 141.637V140.496H599.396C599.13 140.496 598.903 140.523 598.714 140.576C598.526 140.625 598.373 140.694 598.254 140.784C598.136 140.879 598.048 140.991 597.99 141.122C597.933 141.249 597.904 141.388 597.904 141.539C597.904 141.658 597.925 141.768 597.966 141.871C598.011 141.969 598.074 142.053 598.156 142.122C598.238 142.188 598.338 142.241 598.457 142.282C598.579 142.319 598.721 142.337 598.88 142.337ZM608.673 136.772C608.931 136.772 609.168 136.79 609.385 136.827C609.606 136.859 609.784 136.896 609.919 136.937L609.667 138.637C609.442 138.584 609.211 138.545 608.974 138.52C608.741 138.492 608.518 138.477 608.305 138.477C608.084 138.477 607.884 138.498 607.704 138.539C607.528 138.576 607.37 138.633 607.231 138.71C607.064 138.8 606.92 138.915 606.802 139.054C606.683 139.193 606.585 139.357 606.507 139.545V143.533H604.801V136.894H606.391L606.458 137.833L606.47 137.98C606.74 137.604 607.064 137.309 607.44 137.097C607.816 136.88 608.227 136.772 608.673 136.772ZM612.502 146.215C612.339 146.215 612.195 146.205 612.073 146.184C611.954 146.164 611.821 146.133 611.674 146.092L611.882 144.791C611.952 144.791 612.04 144.793 612.146 144.797C612.257 144.806 612.345 144.81 612.41 144.81C612.545 144.81 612.664 144.767 612.766 144.681C612.872 144.599 612.962 144.509 613.036 144.411C613.11 144.313 613.163 144.239 613.196 144.19C613.232 144.141 613.275 144.071 613.324 143.981L613.717 143.251L610.907 136.894H612.772L614.294 140.784L614.478 141.459L614.73 140.797L616.245 136.894H618.129L614.76 144.527C614.687 144.695 614.59 144.877 614.472 145.074C614.357 145.27 614.212 145.452 614.036 145.62C613.86 145.787 613.646 145.929 613.392 146.043C613.142 146.158 612.846 146.215 612.502 146.215ZM626.449 143.533V134.599H628.763C629.176 134.599 629.562 134.65 629.922 134.753C630.282 134.851 630.61 134.992 630.904 135.176C631.162 135.327 631.391 135.514 631.591 135.735C631.796 135.951 631.974 136.189 632.125 136.446C632.301 136.761 632.436 137.109 632.53 137.489C632.628 137.87 632.678 138.275 632.678 138.704V139.441C632.678 139.854 632.633 140.245 632.543 140.613C632.453 140.981 632.326 141.318 632.162 141.625C632.007 141.899 631.825 142.153 631.616 142.386C631.407 142.615 631.178 142.807 630.929 142.963C630.638 143.147 630.317 143.288 629.965 143.386C629.618 143.484 629.245 143.533 628.849 143.533H626.449ZM628.186 135.998V142.147H628.849C629.061 142.147 629.26 142.12 629.444 142.067C629.628 142.014 629.796 141.936 629.947 141.834C630.102 141.727 630.242 141.592 630.364 141.429C630.491 141.261 630.599 141.067 630.689 140.846C630.763 140.654 630.818 140.441 630.855 140.208C630.896 139.97 630.916 139.715 630.916 139.441V138.692C630.916 138.434 630.896 138.191 630.855 137.962C630.818 137.729 630.763 137.516 630.689 137.324C630.599 137.095 630.481 136.89 630.334 136.71C630.19 136.53 630.023 136.383 629.83 136.268C629.683 136.182 629.52 136.117 629.34 136.072C629.164 136.023 628.971 135.998 628.763 135.998H628.186Z" fill="#333333"/>
<rect x="908.453" y="479.453" width="215.093" height="215.093" rx="107.547" fill="#ECECFF" stroke="#9370DB" stroke-width="2.90667"/>
<path d="M960.585 592.651H967.603V594.987H957.683V580.005H960.585V592.651ZM971.008 583.853H977.069V592.661H980.084V594.987H971.008V592.661H974.178V586.189H971.008V583.853ZM973.972 581.003C973.972 580.783 974.01 580.581 974.085 580.396C974.167 580.204 974.281 580.039 974.425 579.902C974.569 579.772 974.74 579.669 974.939 579.593C975.145 579.518 975.371 579.48 975.618 579.48C976.126 579.48 976.527 579.624 976.822 579.912C977.124 580.193 977.275 580.557 977.275 581.003C977.275 581.449 977.124 581.816 976.822 582.104C976.527 582.385 976.126 582.526 975.618 582.526C975.371 582.526 975.145 582.488 974.939 582.413C974.74 582.337 974.569 582.231 974.425 582.094C974.281 581.963 974.167 581.805 974.085 581.62C974.01 581.428 973.972 581.222 973.972 581.003ZM992.936 589.533C992.936 590.068 992.898 590.576 992.823 591.056C992.747 591.529 992.637 591.968 992.493 592.373C992.336 592.819 992.126 593.224 991.866 593.587C991.612 593.951 991.31 594.253 990.96 594.493C990.645 594.719 990.288 594.891 989.89 595.007C989.499 595.131 989.067 595.192 988.594 595.192C988.161 595.192 987.767 595.137 987.41 595.028C987.06 594.925 986.745 594.77 986.464 594.565C986.313 594.462 986.172 594.349 986.042 594.225C985.911 594.095 985.788 593.954 985.671 593.803L985.537 594.987H982.965V579.182H985.826V584.861C985.963 584.704 986.11 584.56 986.268 584.429C986.426 584.292 986.594 584.176 986.772 584.079C987.026 583.935 987.3 583.829 987.595 583.76C987.897 583.685 988.223 583.647 988.573 583.647C989.053 583.647 989.492 583.709 989.89 583.833C990.295 583.956 990.655 584.134 990.97 584.368C991.224 584.546 991.454 584.762 991.66 585.016C991.866 585.263 992.047 585.534 992.205 585.829C992.452 586.302 992.634 586.834 992.751 587.424C992.874 588.014 992.936 588.645 992.936 589.317V589.533ZM990.075 589.317C990.075 589.022 990.062 588.737 990.034 588.463C990.007 588.189 989.962 587.931 989.9 587.691C989.825 587.41 989.725 587.16 989.602 586.94C989.485 586.714 989.307 586.508 989.067 586.323C988.909 586.206 988.731 586.12 988.532 586.065C988.333 586.004 988.106 585.973 987.853 585.973C987.51 585.973 987.208 586.021 986.947 586.117C986.686 586.213 986.464 586.354 986.278 586.539C986.189 586.628 986.107 586.731 986.031 586.847C985.956 586.957 985.887 587.077 985.826 587.208V591.642C985.908 591.814 986.001 591.972 986.103 592.116C986.213 592.253 986.34 592.373 986.484 592.476C986.656 592.606 986.855 592.706 987.081 592.774C987.314 592.843 987.578 592.877 987.873 592.877C988.127 592.877 988.357 592.846 988.563 592.785C988.768 592.723 988.947 592.637 989.098 592.527C989.31 592.376 989.482 592.181 989.612 591.941C989.749 591.694 989.852 591.416 989.921 591.107C989.976 590.881 990.014 590.634 990.034 590.366C990.062 590.099 990.075 589.821 990.075 589.533V589.317ZM1003.55 583.647C1003.99 583.647 1004.38 583.678 1004.75 583.74C1005.12 583.795 1005.42 583.857 1005.64 583.925L1005.22 586.775C1004.84 586.686 1004.46 586.621 1004.06 586.58C1003.67 586.532 1003.29 586.508 1002.94 586.508C1002.57 586.508 1002.23 586.542 1001.93 586.611C1001.63 586.672 1001.37 586.769 1001.14 586.899C1000.86 587.05 1000.62 587.242 1000.42 587.475C1000.22 587.708 1000.05 587.983 999.922 588.298V594.987H997.062V583.853H999.727L999.84 585.427L999.861 585.674C1000.31 585.043 1000.86 584.549 1001.49 584.193C1002.12 583.829 1002.81 583.647 1003.55 583.647ZM1015.17 594.987C1015.1 594.849 1015.04 594.692 1015 594.513C1014.95 594.335 1014.91 594.146 1014.87 593.947C1014.72 594.119 1014.53 594.28 1014.33 594.431C1014.12 594.582 1013.9 594.712 1013.65 594.822C1013.4 594.939 1013.12 595.028 1012.82 595.089C1012.51 595.158 1012.19 595.192 1011.84 595.192C1011.27 595.192 1010.74 595.11 1010.26 594.945C1009.79 594.781 1009.38 594.551 1009.04 594.256C1008.7 593.961 1008.43 593.611 1008.24 593.206C1008.04 592.795 1007.95 592.349 1007.95 591.869C1007.95 591.251 1008.07 590.706 1008.31 590.233C1008.55 589.753 1008.91 589.358 1009.39 589.049C1009.82 588.768 1010.35 588.556 1010.98 588.411C1011.62 588.261 1012.35 588.185 1013.18 588.185H1014.77V587.527C1014.77 587.266 1014.73 587.033 1014.65 586.827C1014.56 586.614 1014.44 586.432 1014.28 586.281C1014.11 586.124 1013.89 586.004 1013.63 585.921C1013.37 585.832 1013.08 585.788 1012.73 585.788C1012.43 585.788 1012.17 585.825 1011.95 585.901C1011.73 585.969 1011.55 586.069 1011.42 586.199C1011.29 586.316 1011.2 586.456 1011.14 586.621C1011.08 586.786 1011.06 586.967 1011.06 587.166H1008.2C1008.2 586.693 1008.3 586.244 1008.5 585.818C1008.72 585.393 1009.03 585.019 1009.43 584.697C1009.83 584.374 1010.32 584.121 1010.89 583.935C1011.47 583.743 1012.14 583.647 1012.89 583.647C1013.56 583.647 1014.18 583.73 1014.76 583.894C1015.34 584.059 1015.85 584.302 1016.27 584.625C1016.7 584.947 1017.03 585.355 1017.27 585.849C1017.51 586.336 1017.63 586.902 1017.63 587.547V592.322C1017.63 592.918 1017.67 593.412 1017.74 593.803C1017.82 594.194 1017.93 594.53 1018.07 594.812V594.987H1015.17ZM1012.45 592.98C1012.73 592.98 1013 592.946 1013.25 592.877C1013.49 592.809 1013.72 592.719 1013.92 592.61C1014.12 592.5 1014.29 592.376 1014.43 592.239C1014.58 592.095 1014.69 591.951 1014.77 591.807V589.893H1013.31C1012.86 589.893 1012.48 589.938 1012.17 590.027C1011.85 590.109 1011.59 590.226 1011.4 590.377C1011.2 590.535 1011.05 590.723 1010.95 590.943C1010.86 591.155 1010.81 591.389 1010.81 591.642C1010.81 591.841 1010.84 592.027 1010.91 592.198C1010.99 592.363 1011.09 592.503 1011.23 592.62C1011.37 592.73 1011.54 592.819 1011.74 592.887C1011.94 592.949 1012.18 592.98 1012.45 592.98ZM1028.87 583.647C1029.3 583.647 1029.7 583.678 1030.06 583.74C1030.43 583.795 1030.73 583.857 1030.96 583.925L1030.53 586.775C1030.16 586.686 1029.77 586.621 1029.37 586.58C1028.98 586.532 1028.61 586.508 1028.25 586.508C1027.88 586.508 1027.54 586.542 1027.24 586.611C1026.95 586.672 1026.68 586.769 1026.45 586.899C1026.17 587.05 1025.93 587.242 1025.73 587.475C1025.53 587.708 1025.37 587.983 1025.24 588.298V594.987H1022.37V583.853H1025.04L1025.15 585.427L1025.17 585.674C1025.63 585.043 1026.17 584.549 1026.8 584.193C1027.43 583.829 1028.12 583.647 1028.87 583.647ZM1035.29 599.483C1035.01 599.483 1034.77 599.466 1034.57 599.432C1034.37 599.397 1034.15 599.346 1033.9 599.277L1034.25 597.096C1034.37 597.096 1034.51 597.099 1034.69 597.106C1034.88 597.12 1035.02 597.127 1035.13 597.127C1035.36 597.127 1035.56 597.055 1035.73 596.911C1035.91 596.774 1036.06 596.623 1036.18 596.458C1036.31 596.293 1036.4 596.17 1036.45 596.088C1036.51 596.005 1036.58 595.889 1036.67 595.738L1037.33 594.513L1032.61 583.853H1035.74L1038.29 590.377L1038.6 591.509L1039.02 590.397L1041.56 583.853H1044.72L1039.07 596.654C1038.95 596.935 1038.79 597.24 1038.59 597.569C1038.4 597.899 1038.16 598.204 1037.86 598.485C1037.57 598.766 1037.21 599.003 1036.78 599.195C1036.36 599.387 1035.86 599.483 1035.29 599.483ZM1067.96 588.422H1061.8V592.651H1069V594.987H1058.9V580.005H1068.97V582.361H1061.8V586.137H1067.96V588.422Z" fill="#333333"/>
<rect x="526.4" y="431.4" width="207.2" height="207.2" rx="103.6" fill="#ECECFF" stroke="#9370DB" stroke-width="2.8"/>
<path d="M576.619 540.15H583.379V542.4H573.823V527.968H576.619V540.15ZM586.659 531.675H592.498V540.16H595.402V542.4H586.659V540.16H589.712V533.925H586.659V531.675ZM589.514 528.929C589.514 528.718 589.551 528.523 589.623 528.345C589.702 528.16 589.812 528.001 589.95 527.869C590.089 527.743 590.254 527.644 590.446 527.571C590.644 527.499 590.862 527.462 591.1 527.462C591.589 527.462 591.976 527.601 592.26 527.879C592.551 528.15 592.696 528.5 592.696 528.929C592.696 529.359 592.551 529.712 592.26 529.99C591.976 530.261 591.589 530.396 591.1 530.396C590.862 530.396 590.644 530.36 590.446 530.287C590.254 530.215 590.089 530.112 589.95 529.98C589.812 529.854 589.702 529.702 589.623 529.524C589.551 529.339 589.514 529.141 589.514 528.929ZM607.782 537.146C607.782 537.662 607.746 538.151 607.673 538.613C607.6 539.069 607.495 539.492 607.356 539.882C607.204 540.312 607.002 540.702 606.751 541.052C606.507 541.402 606.216 541.693 605.879 541.924C605.575 542.142 605.231 542.307 604.848 542.42C604.472 542.539 604.055 542.598 603.599 542.598C603.183 542.598 602.803 542.545 602.459 542.44C602.122 542.34 601.818 542.192 601.547 541.994C601.402 541.894 601.267 541.785 601.141 541.666C601.016 541.541 600.897 541.405 600.784 541.26L600.655 542.4H598.177V527.175H600.933V532.646C601.065 532.494 601.207 532.356 601.359 532.23C601.511 532.098 601.673 531.986 601.845 531.893C602.089 531.754 602.354 531.652 602.638 531.586C602.929 531.513 603.242 531.477 603.579 531.477C604.042 531.477 604.465 531.536 604.848 531.655C605.238 531.774 605.585 531.946 605.889 532.171C606.133 532.342 606.355 532.551 606.553 532.795C606.751 533.033 606.926 533.294 607.078 533.578C607.316 534.034 607.491 534.546 607.604 535.115C607.723 535.683 607.782 536.291 607.782 536.938V537.146ZM605.027 536.938C605.027 536.654 605.013 536.38 604.987 536.116C604.961 535.851 604.918 535.603 604.858 535.372C604.785 535.101 604.69 534.86 604.571 534.649C604.458 534.431 604.287 534.232 604.055 534.054C603.903 533.942 603.731 533.859 603.54 533.806C603.348 533.747 603.13 533.717 602.886 533.717C602.555 533.717 602.264 533.763 602.013 533.856C601.762 533.948 601.547 534.084 601.369 534.262C601.283 534.348 601.204 534.447 601.131 534.559C601.058 534.665 600.992 534.781 600.933 534.906V539.178C601.012 539.344 601.101 539.496 601.201 539.634C601.306 539.767 601.429 539.882 601.567 539.981C601.732 540.107 601.924 540.203 602.142 540.269C602.367 540.335 602.621 540.368 602.905 540.368C603.15 540.368 603.371 540.338 603.57 540.279C603.768 540.219 603.94 540.137 604.085 540.031C604.29 539.886 604.455 539.697 604.581 539.466C604.713 539.228 604.812 538.96 604.878 538.663C604.931 538.445 604.967 538.207 604.987 537.949C605.013 537.692 605.027 537.424 605.027 537.146V536.938ZM618.011 531.477C618.428 531.477 618.811 531.506 619.161 531.566C619.518 531.619 619.806 531.678 620.024 531.744L619.617 534.49C619.254 534.404 618.88 534.341 618.497 534.302C618.121 534.255 617.76 534.232 617.417 534.232C617.06 534.232 616.736 534.265 616.445 534.331C616.161 534.391 615.907 534.483 615.682 534.609C615.411 534.754 615.18 534.939 614.988 535.164C614.797 535.389 614.638 535.653 614.512 535.957V542.4H611.757V531.675H614.324L614.433 533.192L614.453 533.429C614.889 532.822 615.411 532.346 616.019 532.002C616.627 531.652 617.291 531.477 618.011 531.477ZM629.202 542.4C629.136 542.268 629.08 542.116 629.034 541.944C628.987 541.772 628.948 541.59 628.915 541.399C628.763 541.564 628.588 541.719 628.389 541.865C628.191 542.01 627.973 542.136 627.735 542.241C627.491 542.354 627.223 542.44 626.932 542.499C626.642 542.565 626.328 542.598 625.991 542.598C625.442 542.598 624.937 542.519 624.474 542.36C624.018 542.202 623.625 541.98 623.295 541.696C622.964 541.412 622.707 541.075 622.521 540.685C622.336 540.289 622.244 539.859 622.244 539.397C622.244 538.802 622.36 538.276 622.591 537.821C622.822 537.358 623.169 536.978 623.632 536.681C624.048 536.41 624.56 536.205 625.168 536.066C625.783 535.921 626.486 535.848 627.279 535.848H628.816V535.214C628.816 534.963 628.776 534.738 628.697 534.54C628.617 534.335 628.498 534.16 628.34 534.014C628.175 533.862 627.967 533.747 627.715 533.667C627.471 533.581 627.183 533.538 626.853 533.538C626.562 533.538 626.311 533.575 626.1 533.648C625.888 533.714 625.716 533.809 625.584 533.935C625.465 534.047 625.376 534.183 625.317 534.341C625.264 534.5 625.237 534.675 625.237 534.867H622.482C622.482 534.411 622.581 533.978 622.779 533.568C622.984 533.159 623.281 532.798 623.671 532.488C624.055 532.177 624.524 531.933 625.079 531.754C625.64 531.569 626.281 531.477 627.002 531.477C627.649 531.477 628.251 531.556 628.806 531.715C629.367 531.873 629.853 532.108 630.263 532.418C630.673 532.729 630.993 533.122 631.224 533.598C631.456 534.067 631.571 534.612 631.571 535.233V539.833C631.571 540.408 631.608 540.883 631.68 541.26C631.753 541.637 631.859 541.96 631.997 542.231V542.4H629.202ZM626.576 540.467C626.853 540.467 627.111 540.434 627.349 540.368C627.587 540.302 627.801 540.216 627.993 540.11C628.185 540.004 628.35 539.886 628.489 539.753C628.627 539.615 628.736 539.476 628.816 539.337V537.493H627.408C626.979 537.493 626.612 537.536 626.308 537.622C626.004 537.702 625.756 537.814 625.564 537.959C625.373 538.111 625.231 538.293 625.138 538.504C625.046 538.709 625 538.934 625 539.178C625 539.37 625.033 539.549 625.099 539.714C625.171 539.872 625.274 540.008 625.406 540.12C625.538 540.226 625.7 540.312 625.892 540.378C626.09 540.437 626.318 540.467 626.576 540.467ZM642.395 531.477C642.812 531.477 643.195 531.506 643.545 531.566C643.902 531.619 644.189 531.678 644.407 531.744L644.001 534.49C643.638 534.404 643.264 534.341 642.881 534.302C642.504 534.255 642.144 534.232 641.801 534.232C641.444 534.232 641.12 534.265 640.829 534.331C640.545 534.391 640.291 534.483 640.066 534.609C639.795 534.754 639.564 534.939 639.372 535.164C639.18 535.389 639.022 535.653 638.896 535.957V542.4H636.141V531.675H638.708L638.817 533.192L638.837 533.429C639.273 532.822 639.795 532.346 640.403 532.002C641.011 531.652 641.675 531.477 642.395 531.477ZM648.58 546.731C648.316 546.731 648.085 546.715 647.887 546.682C647.695 546.649 647.48 546.599 647.242 546.533L647.579 544.432C647.692 544.432 647.834 544.435 648.006 544.442C648.184 544.455 648.326 544.462 648.432 544.462C648.65 544.462 648.841 544.392 649.007 544.253C649.178 544.121 649.324 543.976 649.443 543.817C649.562 543.659 649.648 543.54 649.7 543.46C649.76 543.381 649.829 543.269 649.909 543.123L650.543 541.944L646.003 531.675H649.017L651.475 537.959L651.772 539.05L652.179 537.979L654.627 531.675H657.67L652.228 544.006C652.109 544.277 651.954 544.571 651.762 544.888C651.577 545.205 651.343 545.499 651.058 545.77C650.774 546.041 650.427 546.269 650.018 546.454C649.615 546.639 649.135 546.731 648.58 546.731ZM680.329 536.423H674.144V542.4H671.349V527.968H681.102V530.238H674.144V534.163H680.329V536.423Z" fill="#333333"/>
</svg>
