<svg width="412" height="229" viewBox="0 0 412 229" fill="none" xmlns="http://www.w3.org/2000/svg">
<path d="M25.44 41V39.668H29.274V32.792H25.62V31.46H30.786V39.668H34.08V41H25.44ZM29.13 29.966V28.202H30.714V29.966H29.13ZM35.513 41V31.46H36.899L36.935 32.864C37.259 31.856 37.925 31.244 38.825 31.244C39.815 31.244 40.409 31.892 40.625 33.116C40.931 31.964 41.669 31.244 42.677 31.244C44.207 31.244 44.873 32.252 44.873 34.7V41H43.361V34.88C43.361 33.188 43.001 32.576 42.245 32.576C41.489 32.576 40.949 33.296 40.949 34.916V41H39.437V34.88C39.437 33.26 39.113 32.576 38.321 32.576C37.565 32.576 37.025 33.296 37.025 34.916V41H35.513ZM47.0259 43.7V31.46H48.4299L48.4479 32.99C49.0239 31.856 50.0859 31.244 51.3819 31.244C54.2259 31.244 55.4859 33.602 55.4859 36.23C55.4859 38.858 54.2259 41.216 51.3819 41.216C50.1399 41.216 49.0419 40.658 48.5379 39.74V43.7H47.0259ZM51.2379 39.776C52.8939 39.776 53.9019 38.462 53.9019 36.23C53.9019 33.998 52.8939 32.684 51.2379 32.684C49.5819 32.684 48.5379 33.89 48.5379 36.23C48.5379 38.57 49.5639 39.776 51.2379 39.776ZM61.7789 41.216C59.1329 41.216 57.4229 39.272 57.4229 36.23C57.4229 33.188 59.1329 31.244 61.7789 31.244C64.4069 31.244 66.1349 33.188 66.1349 36.23C66.1349 39.272 64.4069 41.216 61.7789 41.216ZM61.7789 39.776C63.5249 39.776 64.5509 38.444 64.5509 36.23C64.5509 34.016 63.5249 32.684 61.7789 32.684C60.0149 32.684 59.0069 34.016 59.0069 36.23C59.0069 38.444 60.0149 39.776 61.7789 39.776ZM68.7919 41V39.668H71.2759V32.792H68.7919V31.46H72.5359L72.6439 33.296C72.9679 32.054 73.7419 31.46 74.9299 31.46H76.8919V32.828H74.9479C73.5439 32.828 72.7879 33.674 72.7879 35.24V39.668H75.8119V41H68.7919ZM84.7688 41C82.9148 41 82.0148 40.154 82.0148 38.372V32.792H78.8648V31.46H82.0148V28.94H83.5268V31.46H87.3248V32.792H83.5268V38.372C83.5268 39.254 83.9228 39.668 84.7688 39.668H87.3248V41H84.7688ZM168.502 30.848C168.502 29.156 169.366 28.22 171.166 28.22H173.866V29.552H171.166C170.41 29.552 170.014 30.056 170.014 30.848V31.46H173.686V32.792H170.014V41H168.502V32.792H165.586V31.46H168.502V30.848ZM176.739 41V39.668H179.223V32.792H176.739V31.46H180.483L180.591 33.296C180.915 32.054 181.689 31.46 182.877 31.46H184.839V32.828H182.895C181.491 32.828 180.735 33.674 180.735 35.24V39.668H183.759V41H176.739ZM191.312 41.216C188.666 41.216 186.956 39.272 186.956 36.23C186.956 33.188 188.666 31.244 191.312 31.244C193.94 31.244 195.668 33.188 195.668 36.23C195.668 39.272 193.94 41.216 191.312 41.216ZM191.312 39.776C193.058 39.776 194.084 38.444 194.084 36.23C194.084 34.016 193.058 32.684 191.312 32.684C189.548 32.684 188.54 34.016 188.54 36.23C188.54 38.444 189.548 39.776 191.312 39.776ZM197.425 41V31.46H198.811L198.847 32.864C199.171 31.856 199.837 31.244 200.737 31.244C201.727 31.244 202.321 31.892 202.537 33.116C202.843 31.964 203.581 31.244 204.589 31.244C206.119 31.244 206.785 32.252 206.785 34.7V41H205.273V34.88C205.273 33.188 204.913 32.576 204.157 32.576C203.401 32.576 202.861 33.296 202.861 34.916V41H201.349V34.88C201.349 33.26 201.025 32.576 200.233 32.576C199.477 32.576 198.937 33.296 198.937 34.916V41H197.425Z" fill="#1E754F"/>
<path d="M117.454 41V38.84H119.614V41H117.454ZM125.464 41V38.84H127.624V41H125.464ZM133.456 41V38.84H135.616V41H133.456Z" fill="#393A34"/>
<path d="M107.435 42.71C105.527 42.71 104.213 41.432 104.213 39.614V38.12C104.213 36.374 103.403 35.636 101.261 35.672V34.178C103.403 34.214 104.213 33.476 104.213 31.73V30.236C104.213 28.418 105.527 27.14 107.435 27.14H108.443V28.544C106.355 28.472 105.653 28.94 105.653 30.2V31.856C105.653 33.476 104.735 34.646 103.457 34.898V34.916C104.771 35.168 105.653 36.356 105.653 37.994V39.65C105.653 40.892 106.355 41.36 108.443 41.306V42.71H107.435ZM145.656 42.71H144.648V41.306C146.736 41.36 147.438 40.892 147.438 39.65V37.994C147.438 36.356 148.32 35.168 149.634 34.916V34.898C148.356 34.646 147.438 33.476 147.438 31.856V30.2C147.438 28.94 146.736 28.472 144.648 28.544V27.14H145.656C147.564 27.14 148.878 28.418 148.878 30.236V31.73C148.878 33.476 149.688 34.214 151.83 34.178V35.672C149.688 35.636 148.878 36.374 148.878 38.12V39.614C148.878 41.432 147.564 42.71 145.656 42.71ZM384.506 34.052V31.892H386.666V34.052H384.506ZM384.632 43.808L385.478 41H384.506V38.84H386.666V40.748L385.532 43.808H384.632Z" fill="#999999"/>
<path d="M223.151 34.106L222.899 29.588V28.22H224.483V29.588L224.231 34.106H223.151ZM374.253 34.106L374.001 29.588V28.22H375.585V29.588L375.333 34.106H374.253Z" fill="#B56959" fill-opacity="0.6"/>
<path d="M236.842 41.522C235.87 42.026 234.934 42.26 234.016 42.26C231.496 42.26 229.48 40.028 229.48 36.05C229.48 32.27 231.316 28.22 235.132 28.22C237.724 28.22 239.488 30.866 239.488 34.664C239.488 37.418 238.408 39.524 236.986 39.524C236.284 39.524 235.69 39.02 235.456 38.048C235.096 38.948 234.448 39.542 233.602 39.542C232.396 39.542 231.586 38.354 231.586 36.572C231.586 34.754 232.468 32.018 234.358 32.018C234.97 32.018 235.456 32.342 235.654 32.828L235.708 32.18H237.022L236.698 36.32C236.59 37.706 236.734 38.372 237.166 38.372C237.76 38.372 238.174 37.094 238.174 34.754C238.174 31.658 236.95 29.534 235.096 29.534C232.144 29.534 230.794 32.954 230.794 36.032C230.794 39.326 232.18 41.018 234.07 41.018C234.772 41.018 235.528 40.784 236.302 40.352L236.842 41.522ZM234.016 38.408C235.204 38.408 235.474 35.852 235.474 34.988C235.474 33.782 235.132 33.008 234.52 33.008C233.422 33.008 233.008 35.33 233.008 36.356C233.008 37.598 233.386 38.408 234.016 38.408ZM240.597 41V31.46H241.983L242.019 32.864C242.343 31.856 243.009 31.244 243.909 31.244C244.899 31.244 245.493 31.892 245.709 33.116C246.015 31.964 246.753 31.244 247.761 31.244C249.291 31.244 249.957 32.252 249.957 34.7V41H248.445V34.88C248.445 33.188 248.085 32.576 247.329 32.576C246.573 32.576 246.033 33.296 246.033 34.916V41H244.521V34.88C244.521 33.26 244.197 32.576 243.405 32.576C242.649 32.576 242.109 33.296 242.109 34.916V41H240.597ZM253.154 43.7V42.368H254.252C254.918 42.368 255.188 42.17 255.368 41.72L255.71 40.82H255.188L251.642 31.46H253.298L256.196 39.416L258.914 31.46H260.57L256.7 42.206C256.34 43.232 255.674 43.7 254.396 43.7H253.154ZM264.163 36.464V35.06H269.563V36.464H264.163ZM277.656 41.216C275.01 41.216 273.3 39.272 273.3 36.23C273.3 33.188 275.01 31.244 277.656 31.244C280.284 31.244 282.012 33.188 282.012 36.23C282.012 39.272 280.284 41.216 277.656 41.216ZM277.656 39.776C279.402 39.776 280.428 38.444 280.428 36.23C280.428 34.016 279.402 32.684 277.656 32.684C275.892 32.684 274.884 34.016 274.884 36.23C274.884 38.444 275.892 39.776 277.656 39.776ZM284.669 41V39.668H287.153V32.792H284.669V31.46H288.413L288.521 33.296C288.845 32.054 289.619 31.46 290.807 31.46H292.769V32.828H290.825C289.421 32.828 288.665 33.674 288.665 35.24V39.668H291.689V41H284.669ZM299.188 43.916C297.136 43.916 295.588 42.818 295.192 41.144L296.776 41.036C297.064 41.936 297.712 42.476 299.188 42.476C300.916 42.476 301.87 41.792 301.87 40.388V38.84C301.402 39.848 300.322 40.496 299.08 40.496C296.65 40.496 294.922 38.588 294.922 35.87C294.922 33.152 296.614 31.244 299.008 31.244C300.34 31.244 301.51 31.91 301.942 32.972V31.46H303.382V40.352C303.382 42.584 301.816 43.916 299.188 43.916ZM299.152 39.056C300.79 39.056 301.852 37.832 301.87 35.87C301.906 33.908 300.808 32.684 299.152 32.684C297.478 32.684 296.506 33.908 296.506 35.87C296.506 37.832 297.514 39.056 299.152 39.056ZM306.579 42.98L312.051 27.5H313.491L308.019 42.98H306.579ZM320.702 30.776C320.702 30.002 320.252 29.552 319.478 29.552H317.228V28.22H319.55C321.296 28.22 322.214 29.138 322.214 30.884V39.668H325.508V41H316.868V39.668H320.702V30.776ZM327.661 41V39.668H331.495V32.792H327.841V31.46H333.007V39.668H336.301V41H327.661ZM331.351 29.966V28.202H332.935V29.966H331.351ZM342.828 41.216C341.496 41.216 340.416 40.604 339.876 39.56L339.822 41H338.454V28.22H339.966V32.792C340.434 32 341.496 31.244 342.828 31.244C345.348 31.244 346.914 33.17 346.914 36.23C346.914 39.29 345.348 41.216 342.828 41.216ZM342.738 39.776C344.34 39.776 345.33 38.408 345.33 36.23C345.33 34.016 344.34 32.684 342.774 32.684C341.01 32.684 339.966 34.016 339.966 36.23C339.966 38.408 341.01 39.776 342.738 39.776ZM350.507 36.464V35.06H355.907V36.464H350.507ZM362.74 41.216C360.94 41.216 359.572 40.172 359.572 38.624C359.572 37.004 360.508 36.158 362.596 35.744L365.8 35.096C365.8 33.476 365.044 32.684 363.676 32.684C362.344 32.684 361.642 33.296 361.354 34.394L359.752 34.268C360.112 32.468 361.516 31.244 363.676 31.244C365.98 31.244 367.312 32.72 367.312 35.132V39.092C367.312 39.524 367.492 39.668 367.888 39.668H368.5V41C368.356 41.018 367.996 41.036 367.708 41.036C366.664 41.036 366.052 40.622 365.854 39.65C365.332 40.586 364.108 41.216 362.74 41.216ZM362.884 39.884C364.828 39.884 365.8 38.804 365.8 37.22V36.392L362.884 36.968C361.588 37.22 361.156 37.688 361.156 38.48C361.156 39.38 361.804 39.884 362.884 39.884Z" fill="#B56959"/>
<path d="M29.256 102.14C27.984 102.14 27.108 101.288 27.108 100.076V99.08C27.108 97.916 26.568 97.424 25.14 97.448V96.452C26.568 96.476 27.108 95.984 27.108 94.82V93.824C27.108 92.612 27.984 91.76 29.256 91.76H29.928V92.696C28.536 92.648 28.068 92.96 28.068 93.8V94.904C28.068 95.984 27.456 96.764 26.604 96.932V96.944C27.48 97.112 28.068 97.904 28.068 98.996V100.1C28.068 100.928 28.536 101.24 29.928 101.204V102.14H29.256ZM163.591 113V111.56H165.031V113H163.591ZM163.591 108.368V106.928H165.031V108.368H163.591ZM180.358 114.14C179.086 114.14 178.21 113.288 178.21 112.076V111.08C178.21 109.916 177.67 109.424 176.242 109.448V108.452C177.67 108.476 178.21 107.984 178.21 106.82V105.824C178.21 104.612 179.086 103.76 180.358 103.76H181.03V104.696C179.638 104.648 179.17 104.96 179.17 105.8V106.904C179.17 107.984 178.558 108.764 177.706 108.932V108.944C178.582 109.112 179.17 109.904 179.17 110.996V112.1C179.17 112.928 179.638 113.24 181.03 113.204V114.14H180.358ZM120.419 125V123.56H121.859V125H120.419ZM120.419 120.368V118.928H121.859V120.368H120.419ZM156.48 126.872L157.044 125H156.396V123.56H157.836V124.832L157.08 126.872H156.48ZM106.028 137V135.56H107.468V137H106.028ZM106.028 132.368V130.928H107.468V132.368H106.028ZM122.795 138.14C121.523 138.14 120.647 137.288 120.647 136.076V135.08C120.647 133.916 120.107 133.424 118.679 133.448V132.452C120.107 132.476 120.647 131.984 120.647 130.82V129.824C120.647 128.612 121.523 127.76 122.795 127.76H123.467V128.696C122.075 128.648 121.607 128.96 121.607 129.8V130.904C121.607 131.984 120.995 132.764 120.143 132.932V132.944C121.019 133.112 121.607 133.904 121.607 134.996V136.1C121.607 136.928 122.075 137.24 123.467 137.204V138.14H122.795ZM177.982 149V147.56H179.422V149H177.982ZM177.982 144.368V142.928H179.422V144.368H177.982ZM194.988 150.08H191.52V139.76H194.988V140.696H192.48V149.144H194.988V150.08ZM378.274 150.08V149.144H380.782V140.696H378.274V139.76H381.742V150.08H378.274ZM386.73 150.872L387.294 149H386.646V147.56H388.086V148.832L387.33 150.872H386.73ZM54.7253 162.14H54.0533V161.204C55.4453 161.24 55.9133 160.928 55.9133 160.1V158.996C55.9133 157.904 56.5013 157.112 57.3773 156.944V156.932C56.5253 156.764 55.9133 155.984 55.9133 154.904V153.8C55.9133 152.96 55.4453 152.648 54.0533 152.696V151.76H54.7253C55.9973 151.76 56.8733 152.612 56.8733 153.824V154.82C56.8733 155.984 57.4133 156.476 58.8412 156.452V157.448C57.4133 157.424 56.8733 157.916 56.8733 159.08V160.076C56.8733 161.288 55.9973 162.14 54.7253 162.14ZM40.3346 174.14H39.6626V173.204C41.0546 173.24 41.5226 172.928 41.5226 172.1V170.996C41.5226 169.904 42.1106 169.112 42.9866 168.944V168.932C42.1346 168.764 41.5226 167.984 41.5226 166.904V165.8C41.5226 164.96 41.0546 164.648 39.6626 164.696V163.76H40.3346C41.6066 163.76 42.4826 164.612 42.4826 165.824V166.82C42.4826 167.984 43.0226 168.476 44.4506 168.452V169.448C43.0226 169.424 42.4826 169.916 42.4826 171.08V172.076C42.4826 173.288 41.6066 174.14 40.3346 174.14ZM48.5499 174.872L49.1139 173H48.4659V171.56H49.9059V172.832L49.1499 174.872H48.5499ZM25.944 186.14H25.272V185.204C26.664 185.24 27.132 184.928 27.132 184.1V182.996C27.132 181.904 27.72 181.112 28.596 180.944V180.932C27.744 180.764 27.132 179.984 27.132 178.904V177.8C27.132 176.96 26.664 176.648 25.272 176.696V175.76H25.944C27.216 175.76 28.092 176.612 28.092 177.824V178.82C28.092 179.984 28.632 180.476 30.06 180.452V181.448C28.632 181.424 28.092 181.916 28.092 183.08V184.076C28.092 185.288 27.216 186.14 25.944 186.14Z" fill="#999999"/>
<path d="M42.5306 108.404L42.4826 104.48H43.5386V105.44L43.2626 108.404H42.5306ZM40.7186 108.404L40.4426 105.44V104.48H41.4986L41.4506 108.404H40.7186ZM157.656 108.404L157.608 104.48H158.664V105.44L158.388 108.404H157.656ZM155.844 108.404L155.568 105.44V104.48H156.624L156.576 108.404H155.844ZM56.9213 120.404L56.8733 116.48H57.9293V117.44L57.6533 120.404H56.9213ZM55.1093 120.404L54.8333 117.44V116.48H55.8893L55.8413 120.404H55.1093ZM114.484 120.404L114.436 116.48H115.492V117.44L115.216 120.404H114.484ZM112.672 120.404L112.396 117.44V116.48H113.452L113.404 120.404H112.672ZM136.07 120.404L136.022 116.48H137.078V117.44L136.802 120.404H136.07ZM134.258 120.404L133.982 117.44V116.48H135.038L134.99 120.404H134.258ZM150.46 120.404L150.412 116.48H151.468V117.44L151.192 120.404H150.46ZM148.648 120.404L148.372 117.44V116.48H149.428L149.38 120.404H148.648ZM56.9213 132.404L56.8733 128.48H57.9293V129.44L57.6533 132.404H56.9213ZM55.1093 132.404L54.8333 129.44V128.48H55.8893L55.8413 132.404H55.1093ZM100.093 132.404L100.045 128.48H101.101V129.44L100.825 132.404H100.093ZM98.2811 132.404L98.0051 129.44V128.48H99.0611L99.0131 132.404H98.2811ZM71.3119 144.404L71.2639 140.48H72.3199V141.44L72.0439 144.404H71.3119ZM69.4999 144.404L69.2239 141.44V140.48H70.2799L70.2319 144.404H69.4999ZM172.046 144.404L171.998 140.48H173.054V141.44L172.778 144.404H172.046ZM170.234 144.404L169.958 141.44V140.48H171.014L170.966 144.404H170.234ZM200.828 144.404L200.78 140.48H201.836V141.44L201.56 144.404H200.828ZM199.016 144.404L198.74 141.44V140.48H199.796L199.748 144.404H199.016ZM373.515 144.404L373.467 140.48H374.523V141.44L374.247 144.404H373.515ZM371.703 144.404L371.427 141.44V140.48H372.483L372.435 144.404H371.703Z" fill="#B56959" fill-opacity="0.6"/>
<path d="M49.3539 113.144C47.5779 113.144 46.4259 111.836 46.4259 109.82C46.4259 107.804 47.5779 106.496 49.3539 106.496C50.7699 106.496 51.7539 107.288 52.0179 108.704L50.9619 108.776C50.7699 107.936 50.1699 107.456 49.3539 107.456C48.1779 107.456 47.4819 108.344 47.4819 109.82C47.4819 111.296 48.1779 112.184 49.3539 112.184C50.1699 112.184 50.8179 111.704 51.0099 110.744L52.0659 110.816C51.8019 112.232 50.7699 113.144 49.3539 113.144ZM56.3813 113.144C54.6173 113.144 53.4773 111.848 53.4773 109.82C53.4773 107.792 54.6173 106.496 56.3813 106.496C58.1333 106.496 59.2853 107.792 59.2853 109.82C59.2853 111.848 58.1333 113.144 56.3813 113.144ZM56.3813 112.184C57.5453 112.184 58.2293 111.296 58.2293 109.82C58.2293 108.344 57.5453 107.456 56.3813 107.456C55.2053 107.456 54.5333 108.344 54.5333 109.82C54.5333 111.296 55.2053 112.184 56.3813 112.184ZM60.4566 113V106.64H61.3806L61.4046 107.576C61.6206 106.904 62.0646 106.496 62.6646 106.496C63.3246 106.496 63.7206 106.928 63.8646 107.744C64.0686 106.976 64.5606 106.496 65.2326 106.496C66.2526 106.496 66.6966 107.168 66.6966 108.8V113H65.6886V108.92C65.6886 107.792 65.4486 107.384 64.9446 107.384C64.4406 107.384 64.0806 107.864 64.0806 108.944V113H63.0726V108.92C63.0726 107.84 62.8566 107.384 62.3286 107.384C61.8246 107.384 61.4646 107.864 61.4646 108.944V113H60.4566ZM68.1319 114.8V106.64H69.0679L69.0799 107.66C69.4639 106.904 70.1719 106.496 71.0359 106.496C72.9319 106.496 73.7719 108.068 73.7719 109.82C73.7719 111.572 72.9319 113.144 71.0359 113.144C70.2079 113.144 69.4759 112.772 69.1399 112.16V114.8H68.1319ZM70.9399 112.184C72.0439 112.184 72.7159 111.308 72.7159 109.82C72.7159 108.332 72.0439 107.456 70.9399 107.456C69.8359 107.456 69.1399 108.26 69.1399 109.82C69.1399 111.38 69.8239 112.184 70.9399 112.184ZM75.3272 113V112.112H77.8832V107.528H75.4472V106.64H78.8912V112.112H81.0872V113H75.3272ZM77.7872 105.644V104.468H78.8432V105.644H77.7872ZM85.0785 106.184C85.0785 105.668 84.7785 105.368 84.2625 105.368H82.7625V104.48H84.3105C85.4745 104.48 86.0865 105.092 86.0865 106.256V112.112H88.2825V113H82.5225V112.112H85.0785V106.184ZM92.4658 113.144C90.6658 113.144 89.5498 111.836 89.5498 109.82C89.5498 107.804 90.6658 106.496 92.4178 106.496C94.0738 106.496 95.2378 107.696 95.2378 109.832V110.132H90.6058C90.6778 111.5 91.3618 112.184 92.4658 112.184C93.2938 112.184 93.8338 111.764 94.0498 111.116L95.1298 111.2C94.7938 112.34 93.8098 113.144 92.4658 113.144ZM94.1338 109.244C94.0378 108.02 93.3538 107.456 92.4178 107.456C91.4338 107.456 90.7738 108.068 90.6058 109.244H94.1338ZM97.0331 113V112.112H98.6891V107.528H97.0331V106.64H99.5291L99.6011 107.864C99.8171 107.036 100.333 106.64 101.125 106.64H102.433V107.552H101.137C100.201 107.552 99.6971 108.116 99.6971 109.16V112.112H101.713V113H97.0331ZM106.748 113.192C104.732 113.192 103.604 111.596 103.604 108.752C103.604 105.884 104.732 104.288 106.748 104.288C108.764 104.288 109.892 105.884 109.892 108.752C109.892 111.596 108.764 113.192 106.748 113.192ZM106.748 112.184C108.068 112.184 108.812 110.984 108.812 108.752C108.812 106.52 108.068 105.296 106.748 105.296C105.428 105.296 104.684 106.52 104.684 108.752C104.684 110.984 105.428 112.184 106.748 112.184ZM111.304 114.8V106.64H112.24L112.252 107.66C112.636 106.904 113.344 106.496 114.208 106.496C116.104 106.496 116.944 108.068 116.944 109.82C116.944 111.572 116.104 113.144 114.208 113.144C113.38 113.144 112.648 112.772 112.312 112.16V114.8H111.304ZM114.112 112.184C115.216 112.184 115.888 111.308 115.888 109.82C115.888 108.332 115.216 107.456 114.112 107.456C113.008 107.456 112.312 108.26 112.312 109.82C112.312 111.38 112.996 112.184 114.112 112.184ZM122.075 113C120.839 113 120.239 112.436 120.239 111.248V107.528H118.139V106.64H120.239V104.96H121.247V106.64H123.779V107.528H121.247V111.248C121.247 111.836 121.511 112.112 122.075 112.112H123.779V113H122.075ZM125.694 113V112.112H128.25V107.528H125.814V106.64H129.258V112.112H131.454V113H125.694ZM128.154 105.644V104.468H129.21V105.644H128.154ZM135.53 113.144C133.766 113.144 132.626 111.848 132.626 109.82C132.626 107.792 133.766 106.496 135.53 106.496C137.282 106.496 138.434 107.792 138.434 109.82C138.434 111.848 137.282 113.144 135.53 113.144ZM135.53 112.184C136.694 112.184 137.378 111.296 137.378 109.82C137.378 108.344 136.694 107.456 135.53 107.456C134.354 107.456 133.682 108.344 133.682 109.82C133.682 111.296 134.354 112.184 135.53 112.184ZM140.277 113V106.64H141.201L141.225 107.78C141.561 106.904 142.305 106.496 143.181 106.496C144.633 106.496 145.317 107.564 145.317 108.908V113H144.309V109.196C144.309 108.02 143.925 107.384 142.965 107.384C141.981 107.384 141.285 108.02 141.285 109.196V113H140.277ZM150.04 113.144C148.384 113.144 147.376 112.196 147.28 110.996L148.336 110.924C148.456 111.716 149.032 112.184 150.04 112.184C150.976 112.184 151.528 111.92 151.528 111.344C151.528 110.792 151.24 110.576 149.848 110.336C148 110.012 147.448 109.448 147.448 108.416C147.448 107.312 148.3 106.496 149.86 106.496C151.432 106.496 152.248 107.432 152.44 108.536L151.384 108.608C151.24 107.936 150.712 107.456 149.848 107.456C148.912 107.456 148.48 107.876 148.48 108.416C148.48 109.064 148.912 109.256 150.064 109.448C152.032 109.772 152.56 110.288 152.56 111.344C152.56 112.472 151.48 113.144 150.04 113.144ZM63.8526 125.144C62.9646 125.144 62.2446 124.736 61.8846 124.04L61.8486 125H60.9366V116.48H61.9446V119.528C62.2566 119 62.9646 118.496 63.8526 118.496C65.5326 118.496 66.5766 119.78 66.5766 121.82C66.5766 123.86 65.5326 125.144 63.8526 125.144ZM63.7926 124.184C64.8606 124.184 65.5206 123.272 65.5206 121.82C65.5206 120.344 64.8606 119.456 63.8166 119.456C62.6406 119.456 61.9446 120.344 61.9446 121.82C61.9446 123.272 62.6406 124.184 63.7926 124.184ZM69.9319 125.144C68.7319 125.144 67.8199 124.448 67.8199 123.416C67.8199 122.336 68.4439 121.772 69.8359 121.496L71.9719 121.064C71.9719 119.984 71.4679 119.456 70.5559 119.456C69.6679 119.456 69.1999 119.864 69.0079 120.596L67.9399 120.512C68.1799 119.312 69.1159 118.496 70.5559 118.496C72.0919 118.496 72.9799 119.48 72.9799 121.088V123.728C72.9799 124.016 73.0999 124.112 73.3639 124.112H73.7719V125C73.6759 125.012 73.4359 125.024 73.2439 125.024C72.5479 125.024 72.1399 124.748 72.0079 124.1C71.6599 124.724 70.8439 125.144 69.9319 125.144ZM70.0279 124.256C71.3239 124.256 71.9719 123.536 71.9719 122.48V121.928L70.0279 122.312C69.1639 122.48 68.8759 122.792 68.8759 123.32C68.8759 123.92 69.3079 124.256 70.0279 124.256ZM78.0872 125.144C76.4312 125.144 75.4232 124.196 75.3272 122.996L76.3832 122.924C76.5032 123.716 77.0792 124.184 78.0872 124.184C79.0232 124.184 79.5752 123.92 79.5752 123.344C79.5752 122.792 79.2872 122.576 77.8952 122.336C76.0472 122.012 75.4952 121.448 75.4952 120.416C75.4952 119.312 76.3472 118.496 77.9072 118.496C79.4792 118.496 80.2952 119.432 80.4872 120.536L79.4312 120.608C79.2872 119.936 78.7592 119.456 77.8952 119.456C76.9592 119.456 76.5272 119.876 76.5272 120.416C76.5272 121.064 76.9592 121.256 78.1112 121.448C80.0792 121.772 80.6072 122.288 80.6072 123.344C80.6072 124.472 79.5272 125.144 78.0872 125.144ZM85.2705 125.144C83.4705 125.144 82.3545 123.836 82.3545 121.82C82.3545 119.804 83.4705 118.496 85.2225 118.496C86.8785 118.496 88.0425 119.696 88.0425 121.832V122.132H83.4105C83.4825 123.5 84.1665 124.184 85.2705 124.184C86.0985 124.184 86.6385 123.764 86.8545 123.116L87.9345 123.2C87.5985 124.34 86.6145 125.144 85.2705 125.144ZM86.9385 121.244C86.8425 120.02 86.1585 119.456 85.2225 119.456C84.2385 119.456 83.5785 120.068 83.4105 121.244H86.9385ZM92.3578 125.192C90.5578 125.192 89.4778 123.968 89.4778 122.024V116.48H90.5098V122.024C90.5098 123.404 91.1458 124.184 92.3578 124.184C93.5698 124.184 94.2058 123.404 94.2058 122.024V116.48H95.2378V122.024C95.2378 123.968 94.1578 125.192 92.3578 125.192ZM97.0331 125V124.112H98.6891V119.528H97.0331V118.64H99.5291L99.6011 119.864C99.8171 119.036 100.333 118.64 101.125 118.64H102.433V119.552H101.137C100.201 119.552 99.6971 120.116 99.6971 121.16V124.112H101.713V125H97.0331ZM106.664 118.184C106.664 117.668 106.364 117.368 105.848 117.368H104.348V116.48H105.896C107.06 116.48 107.672 117.092 107.672 118.256V124.112H109.868V125H104.108V124.112H106.664V118.184ZM142.005 125V123.56H143.445V125H142.005ZM60.9366 138.8V130.64H61.8726L61.8846 131.66C62.2686 130.904 62.9766 130.496 63.8406 130.496C65.7366 130.496 66.5766 132.068 66.5766 133.82C66.5766 135.572 65.7366 137.144 63.8406 137.144C63.0126 137.144 62.2806 136.772 61.9446 136.16V138.8H60.9366ZM63.7446 136.184C64.8486 136.184 65.5206 135.308 65.5206 133.82C65.5206 132.332 64.8486 131.456 63.7446 131.456C62.6406 131.456 61.9446 132.26 61.9446 133.82C61.9446 135.38 62.6286 136.184 63.7446 136.184ZM69.9319 137.144C68.7319 137.144 67.8199 136.448 67.8199 135.416C67.8199 134.336 68.4439 133.772 69.8359 133.496L71.9719 133.064C71.9719 131.984 71.4679 131.456 70.5559 131.456C69.6679 131.456 69.1999 131.864 69.0079 132.596L67.9399 132.512C68.1799 131.312 69.1159 130.496 70.5559 130.496C72.0919 130.496 72.9799 131.48 72.9799 133.088V135.728C72.9799 136.016 73.0999 136.112 73.3639 136.112H73.7719V137C73.6759 137.012 73.4359 137.024 73.2439 137.024C72.5479 137.024 72.1399 136.748 72.0079 136.1C71.6599 136.724 70.8439 137.144 69.9319 137.144ZM70.0279 136.256C71.3239 136.256 71.9719 135.536 71.9719 134.48V133.928L70.0279 134.312C69.1639 134.48 68.8759 134.792 68.8759 135.32C68.8759 135.92 69.3079 136.256 70.0279 136.256ZM78.9032 137C77.6672 137 77.0672 136.436 77.0672 135.248V131.528H74.9672V130.64H77.0672V128.96H78.0752V130.64H80.6072V131.528H78.0752V135.248C78.0752 135.836 78.3392 136.112 78.9032 136.112H80.6072V137H78.9032ZM82.7625 137V128.48H83.7705V131.636C84.0945 130.856 84.8145 130.496 85.6785 130.496C87.0465 130.496 87.8025 131.492 87.8025 132.908V137H86.7945V133.196C86.7945 131.972 86.3505 131.384 85.4625 131.384C84.4425 131.384 83.7705 132.032 83.7705 133.208V137H82.7625ZM92.4778 137.144C90.8218 137.144 89.8138 136.196 89.7178 134.996L90.7738 134.924C90.8938 135.716 91.4698 136.184 92.4778 136.184C93.4138 136.184 93.9658 135.92 93.9658 135.344C93.9658 134.792 93.6778 134.576 92.2858 134.336C90.4378 134.012 89.8858 133.448 89.8858 132.416C89.8858 131.312 90.7378 130.496 92.2978 130.496C93.8698 130.496 94.6858 131.432 94.8778 132.536L93.8218 132.608C93.6778 131.936 93.1498 131.456 92.2858 131.456C91.3498 131.456 90.9178 131.876 90.9178 132.416C90.9178 133.064 91.3498 133.256 92.5018 133.448C94.4698 133.772 94.9978 134.288 94.9978 135.344C94.9978 136.472 93.9178 137.144 92.4778 137.144ZM79.5392 149.348C78.8912 149.684 78.2672 149.84 77.6552 149.84C75.9752 149.84 74.6312 148.352 74.6312 145.7C74.6312 143.18 75.8552 140.48 78.3992 140.48C80.1272 140.48 81.3032 142.244 81.3032 144.776C81.3032 146.612 80.5832 148.016 79.6352 148.016C79.1672 148.016 78.7712 147.68 78.6152 147.032C78.3752 147.632 77.9432 148.028 77.3792 148.028C76.5752 148.028 76.0352 147.236 76.0352 146.048C76.0352 144.836 76.6232 143.012 77.8832 143.012C78.2912 143.012 78.6152 143.228 78.7472 143.552L78.7832 143.12H79.6592L79.4432 145.88C79.3712 146.804 79.4672 147.248 79.7552 147.248C80.1512 147.248 80.4272 146.396 80.4272 144.836C80.4272 142.772 79.6112 141.356 78.3752 141.356C76.4072 141.356 75.5072 143.636 75.5072 145.688C75.5072 147.884 76.4312 149.012 77.6912 149.012C78.1592 149.012 78.6632 148.856 79.1792 148.568L79.5392 149.348ZM77.6552 147.272C78.4472 147.272 78.6272 145.568 78.6272 144.992C78.6272 144.188 78.3992 143.672 77.9912 143.672C77.2592 143.672 76.9832 145.22 76.9832 145.904C76.9832 146.732 77.2352 147.272 77.6552 147.272ZM82.0425 149V142.64H82.9665L82.9905 143.576C83.2065 142.904 83.6505 142.496 84.2505 142.496C84.9105 142.496 85.3065 142.928 85.4505 143.744C85.6545 142.976 86.1465 142.496 86.8185 142.496C87.8385 142.496 88.2825 143.168 88.2825 144.8V149H87.2745V144.92C87.2745 143.792 87.0345 143.384 86.5305 143.384C86.0265 143.384 85.6665 143.864 85.6665 144.944V149H84.6585V144.92C84.6585 143.84 84.4425 143.384 83.9145 143.384C83.4105 143.384 83.0505 143.864 83.0505 144.944V149H82.0425ZM90.4138 150.8V149.912H91.1458C91.5898 149.912 91.7698 149.78 91.8898 149.48L92.1178 148.88H91.7698L89.4058 142.64H90.5098L92.4418 147.944L94.2538 142.64H95.3578L92.7778 149.804C92.5378 150.488 92.0938 150.8 91.2418 150.8H90.4138ZM97.7531 145.976V145.04H101.353V145.976H97.7531ZM106.748 149.144C104.984 149.144 103.844 147.848 103.844 145.82C103.844 143.792 104.984 142.496 106.748 142.496C108.5 142.496 109.652 143.792 109.652 145.82C109.652 147.848 108.5 149.144 106.748 149.144ZM106.748 148.184C107.912 148.184 108.596 147.296 108.596 145.82C108.596 144.344 107.912 143.456 106.748 143.456C105.572 143.456 104.9 144.344 104.9 145.82C104.9 147.296 105.572 148.184 106.748 148.184ZM111.424 149V148.112H113.08V143.528H111.424V142.64H113.92L113.992 143.864C114.208 143.036 114.724 142.64 115.516 142.64H116.824V143.552H115.528C114.592 143.552 114.088 144.116 114.088 145.16V148.112H116.104V149H111.424ZM121.103 150.944C119.735 150.944 118.703 150.212 118.439 149.096L119.495 149.024C119.687 149.624 120.119 149.984 121.103 149.984C122.255 149.984 122.891 149.528 122.891 148.592V147.56C122.579 148.232 121.859 148.664 121.031 148.664C119.411 148.664 118.259 147.392 118.259 145.58C118.259 143.768 119.387 142.496 120.983 142.496C121.871 142.496 122.651 142.94 122.939 143.648V142.64H123.899V148.568C123.899 150.056 122.855 150.944 121.103 150.944ZM121.079 147.704C122.171 147.704 122.879 146.888 122.891 145.58C122.915 144.272 122.183 143.456 121.079 143.456C119.963 143.456 119.315 144.272 119.315 145.58C119.315 146.888 119.987 147.704 121.079 147.704ZM126.03 150.32L129.678 140H130.638L126.99 150.32H126.03ZM135.446 142.184C135.446 141.668 135.146 141.368 134.63 141.368H133.13V140.48H134.678C135.842 140.48 136.454 141.092 136.454 142.256V148.112H138.65V149H132.89V148.112H135.446V142.184ZM140.085 149V148.112H142.641V143.528H140.205V142.64H143.649V148.112H145.845V149H140.085ZM142.545 141.644V140.468H143.601V141.644H142.545ZM150.196 149.144C149.308 149.144 148.588 148.736 148.228 148.04L148.192 149H147.28V140.48H148.288V143.528C148.6 143 149.308 142.496 150.196 142.496C151.876 142.496 152.92 143.78 152.92 145.82C152.92 147.86 151.876 149.144 150.196 149.144ZM150.136 148.184C151.204 148.184 151.864 147.272 151.864 145.82C151.864 144.344 151.204 143.456 150.16 143.456C148.984 143.456 148.288 144.344 148.288 145.82C148.288 147.272 148.984 148.184 150.136 148.184ZM155.316 145.976V145.04H158.916V145.976H155.316ZM163.471 149.144C162.271 149.144 161.359 148.448 161.359 147.416C161.359 146.336 161.983 145.772 163.375 145.496L165.511 145.064C165.511 143.984 165.007 143.456 164.095 143.456C163.207 143.456 162.739 143.864 162.547 144.596L161.479 144.512C161.719 143.312 162.655 142.496 164.095 142.496C165.631 142.496 166.519 143.48 166.519 145.088V147.728C166.519 148.016 166.639 148.112 166.903 148.112H167.311V149C167.215 149.012 166.975 149.024 166.783 149.024C166.087 149.024 165.679 148.748 165.547 148.1C165.199 148.724 164.383 149.144 163.471 149.144ZM163.567 148.256C164.863 148.256 165.511 147.536 165.511 146.48V145.928L163.567 146.312C162.703 146.48 162.415 146.792 162.415 147.32C162.415 147.92 162.847 148.256 163.567 148.256ZM207.399 142.184C207.399 141.668 207.099 141.368 206.583 141.368H205.083V140.48H206.631C207.795 140.48 208.407 141.092 208.407 142.256V148.112H210.603V149H204.843V148.112H207.399V142.184ZM212.038 149V148.112H214.594V143.528H212.158V142.64H215.602V148.112H217.798V149H212.038ZM214.498 141.644V140.468H215.554V141.644H214.498ZM222.149 149.144C221.261 149.144 220.541 148.736 220.181 148.04L220.145 149H219.233V140.48H220.241V143.528C220.553 143 221.261 142.496 222.149 142.496C223.829 142.496 224.873 143.78 224.873 145.82C224.873 147.86 223.829 149.144 222.149 149.144ZM222.089 148.184C223.157 148.184 223.817 147.272 223.817 145.82C223.817 144.344 223.157 143.456 222.113 143.456C220.937 143.456 220.241 144.344 220.241 145.82C220.241 147.272 220.937 148.184 222.089 148.184ZM229.189 149.144C227.533 149.144 226.525 148.196 226.429 146.996L227.485 146.924C227.605 147.716 228.181 148.184 229.189 148.184C230.125 148.184 230.677 147.92 230.677 147.344C230.677 146.792 230.389 146.576 228.997 146.336C227.149 146.012 226.597 145.448 226.597 144.416C226.597 143.312 227.449 142.496 229.009 142.496C230.581 142.496 231.397 143.432 231.589 144.536L230.533 144.608C230.389 143.936 229.861 143.456 228.997 143.456C228.061 143.456 227.629 143.876 227.629 144.416C227.629 145.064 228.061 145.256 229.213 145.448C231.181 145.772 231.709 146.288 231.709 147.344C231.709 148.472 230.629 149.144 229.189 149.144ZM233.96 150.32L237.608 140H238.568L234.92 150.32H233.96ZM243.375 142.184C243.375 141.668 243.075 141.368 242.559 141.368H241.059V140.48H242.607C243.771 140.48 244.383 141.092 244.383 142.256V148.112H246.579V149H240.819V148.112H243.375V142.184ZM248.015 149V148.112H250.571V143.528H248.135V142.64H251.579V148.112H253.775V149H248.015ZM250.475 141.644V140.468H251.531V141.644H250.475ZM258.126 149.144C257.238 149.144 256.518 148.736 256.158 148.04L256.122 149H255.21V140.48H256.218V143.528C256.53 143 257.238 142.496 258.126 142.496C259.806 142.496 260.85 143.78 260.85 145.82C260.85 147.86 259.806 149.144 258.126 149.144ZM258.066 148.184C259.134 148.184 259.794 147.272 259.794 145.82C259.794 144.344 259.134 143.456 258.09 143.456C256.914 143.456 256.218 144.344 256.218 145.82C256.218 147.272 256.914 148.184 258.066 148.184ZM263.245 145.976V145.04H266.845V145.976H263.245ZM271.401 149.144C270.201 149.144 269.289 148.448 269.289 147.416C269.289 146.336 269.913 145.772 271.305 145.496L273.441 145.064C273.441 143.984 272.937 143.456 272.025 143.456C271.137 143.456 270.669 143.864 270.477 144.596L269.409 144.512C269.649 143.312 270.585 142.496 272.025 142.496C273.561 142.496 274.449 143.48 274.449 145.088V147.728C274.449 148.016 274.569 148.112 274.833 148.112H275.241V149C275.145 149.012 274.905 149.024 274.713 149.024C274.017 149.024 273.609 148.748 273.477 148.1C273.129 148.724 272.313 149.144 271.401 149.144ZM271.497 148.256C272.793 148.256 273.441 147.536 273.441 146.48V145.928L271.497 146.312C270.633 146.48 270.345 146.792 270.345 147.32C270.345 147.92 270.777 148.256 271.497 148.256ZM277.132 150.32L280.78 140H281.74L278.092 150.32H277.132ZM286.751 149.144C285.095 149.144 284.087 148.196 283.991 146.996L285.047 146.924C285.167 147.716 285.743 148.184 286.751 148.184C287.687 148.184 288.239 147.92 288.239 147.344C288.239 146.792 287.951 146.576 286.559 146.336C284.711 146.012 284.159 145.448 284.159 144.416C284.159 143.312 285.011 142.496 286.571 142.496C288.143 142.496 288.959 143.432 289.151 144.536L288.095 144.608C287.951 143.936 287.423 143.456 286.559 143.456C285.623 143.456 285.191 143.876 285.191 144.416C285.191 145.064 285.623 145.256 286.775 145.448C288.743 145.772 289.271 146.288 289.271 147.344C289.271 148.472 288.191 149.144 286.751 149.144ZM291.307 149V148.112H292.963V143.528H291.307V142.64H293.803L293.875 143.864C294.091 143.036 294.607 142.64 295.399 142.64H296.707V143.552H295.411C294.475 143.552 293.971 144.116 293.971 145.16V148.112H295.987V149H291.307ZM301.19 149.144C299.414 149.144 298.262 147.836 298.262 145.82C298.262 143.804 299.414 142.496 301.19 142.496C302.606 142.496 303.59 143.288 303.854 144.704L302.798 144.776C302.606 143.936 302.006 143.456 301.19 143.456C300.014 143.456 299.318 144.344 299.318 145.82C299.318 147.296 300.014 148.184 301.19 148.184C302.006 148.184 302.654 147.704 302.846 146.744L303.902 146.816C303.638 148.232 302.606 149.144 301.19 149.144ZM305.913 150.32L309.561 140H310.521L306.873 150.32H305.913ZM312.773 149V148.112H315.329V143.528H312.893V142.64H316.337V148.112H318.533V149H312.773ZM315.233 141.644V140.468H316.289V141.644H315.233ZM320.16 149V142.64H321.084L321.108 143.78C321.444 142.904 322.188 142.496 323.064 142.496C324.516 142.496 325.2 143.564 325.2 144.908V149H324.192V145.196C324.192 144.02 323.808 143.384 322.848 143.384C321.864 143.384 321.168 144.02 321.168 145.196V149H320.16ZM329.527 149.144C327.847 149.144 326.803 147.86 326.803 145.82C326.803 143.78 327.847 142.496 329.527 142.496C330.415 142.496 331.123 143 331.435 143.528V140.48H332.443V149H331.531L331.495 148.04C331.135 148.736 330.415 149.144 329.527 149.144ZM329.587 148.184C330.739 148.184 331.435 147.272 331.435 145.82C331.435 144.344 330.739 143.456 329.563 143.456C328.519 143.456 327.859 144.344 327.859 145.82C327.859 147.272 328.519 148.184 329.587 148.184ZM337.106 149.144C335.306 149.144 334.19 147.836 334.19 145.82C334.19 143.804 335.306 142.496 337.058 142.496C338.714 142.496 339.878 143.696 339.878 145.832V146.132H335.246C335.318 147.5 336.002 148.184 337.106 148.184C337.934 148.184 338.474 147.764 338.69 147.116L339.77 147.2C339.434 148.34 338.45 149.144 337.106 149.144ZM338.774 145.244C338.678 144.02 337.994 143.456 337.058 143.456C336.074 143.456 335.414 144.068 335.246 145.244H338.774ZM341.242 149L343.582 145.736L341.362 142.64H342.538L344.206 145.04L345.838 142.64H347.038L344.83 145.76L347.146 149H345.97L344.206 146.432L342.442 149H341.242ZM350.669 149V147.56H352.109V149H350.669ZM359.52 149C358.284 149 357.684 148.436 357.684 147.248V143.528H355.584V142.64H357.684V140.96H358.692V142.64H361.224V143.528H358.692V147.248C358.692 147.836 358.956 148.112 359.52 148.112H361.224V149H359.52ZM365.9 149.144C364.244 149.144 363.236 148.196 363.14 146.996L364.196 146.924C364.316 147.716 364.892 148.184 365.9 148.184C366.836 148.184 367.388 147.92 367.388 147.344C367.388 146.792 367.1 146.576 365.708 146.336C363.86 146.012 363.308 145.448 363.308 144.416C363.308 143.312 364.16 142.496 365.72 142.496C367.292 142.496 368.108 143.432 368.3 144.536L367.244 144.608C367.1 143.936 366.572 143.456 365.708 143.456C364.772 143.456 364.34 143.876 364.34 144.416C364.34 145.064 364.772 145.256 365.924 145.448C367.892 145.772 368.42 146.288 368.42 147.344C368.42 148.472 367.34 149.144 365.9 149.144Z" fill="#B56959"/>
<path d="M196.707 56.2929C196.317 55.9024 195.683 55.9024 195.293 56.2929L188.929 62.6569C188.538 63.0474 188.538 63.6805 188.929 64.0711C189.319 64.4616 189.953 64.4616 190.343 64.0711L196 58.4142L201.657 64.0711C202.047 64.4616 202.681 64.4616 203.071 64.0711C203.462 63.6805 203.462 63.0474 203.071 62.6569L196.707 56.2929ZM195.293 92.7071C195.683 93.0976 196.317 93.0976 196.707 92.7071L203.071 86.3431C203.462 85.9526 203.462 85.3195 203.071 84.9289C202.681 84.5384 202.047 84.5384 201.657 84.9289L196 90.5858L190.343 84.9289C189.953 84.5384 189.319 84.5384 188.929 84.9289C188.538 85.3195 188.538 85.9526 188.929 86.3431L195.293 92.7071ZM195 57L195 92L197 92L197 57L195 57Z" fill="#476088"/>
</svg>
