<svg width="3090" height="3545" viewBox="0 0 3090 3545" fill="none" xmlns="http://www.w3.org/2000/svg">
<path d="M758 1284C758 1276.82 752.18 1271 745 1271C737.82 1271 732 1276.82 732 1284H758ZM745 1679H732V1692H745V1679ZM1116 1679L986 1603.94V1754.06L1116 1679ZM732 1284V1679H758V1284H732ZM745 1692H999V1666H745V1692Z" fill="#999999"/>
<path d="M2309 1284C2309 1276.82 2314.82 1271 2322 1271C2329.18 1271 2335 1276.82 2335 1284H2309ZM2322 1679H2335V1692H2322V1679ZM1951 1679L2081 1603.94V1754.06L1951 1679ZM2335 1284V1679H2309V1284H2335ZM2322 1692H2068V1666H2322V1692Z" fill="#999999"/>
<path d="M317.409 1156.14C317.273 1160.4 316.798 1164.63 315.984 1168.83C315.169 1173 313.97 1176.73 312.387 1180.03C310.758 1183.38 308.699 1186.1 306.21 1188.18C303.722 1190.21 300.736 1191.23 297.251 1191.23C295.939 1191.23 294.695 1191.05 293.519 1190.69C292.342 1190.33 291.279 1189.78 290.329 1189.06C289.559 1188.52 288.858 1187.86 288.225 1187.09C287.591 1186.32 287.026 1185.46 286.528 1184.51C285.94 1185.33 285.306 1186.1 284.627 1186.82C283.949 1187.5 283.247 1188.11 282.523 1188.65C281.438 1189.42 280.284 1190.03 279.062 1190.48C277.84 1190.89 276.551 1191.1 275.193 1191.1C272.479 1191.1 270.103 1190.48 268.067 1189.26C266.031 1188.04 264.379 1186.28 263.112 1183.97C261.845 1181.71 260.963 1178.97 260.465 1175.76C260.013 1172.54 259.968 1168.97 260.33 1165.03C260.827 1160.42 261.71 1156.26 262.977 1152.54C264.289 1148.83 265.963 1145.64 267.999 1142.98C270.035 1140.35 272.433 1138.34 275.193 1136.93C277.953 1135.49 281.053 1134.76 284.492 1134.76C287.976 1134.76 290.849 1135.28 293.111 1136.32C295.374 1137.32 297.206 1138.52 298.609 1139.92L295.69 1175.69C295.6 1177 295.623 1178.02 295.758 1178.74C295.939 1179.47 296.211 1180.01 296.573 1180.37C296.889 1180.73 297.274 1180.96 297.727 1181.05C298.179 1181.14 298.632 1181.19 299.084 1181.19C300.26 1181.19 301.324 1180.58 302.274 1179.35C303.269 1178.13 304.129 1176.44 304.853 1174.26C305.577 1172.09 306.12 1169.51 306.482 1166.53C306.889 1163.49 307.093 1160.19 307.093 1156.62C307.274 1151.1 306.867 1146.32 305.871 1142.3C304.921 1138.22 303.405 1134.88 301.324 1132.25C299.242 1129.63 296.641 1127.68 293.519 1126.41C290.396 1125.15 286.799 1124.51 282.727 1124.51C278.112 1124.51 273.949 1125.55 270.239 1127.64C266.574 1129.67 263.452 1132.52 260.873 1136.19C258.248 1139.85 256.189 1144.22 254.696 1149.29C253.203 1154.31 252.366 1159.83 252.185 1165.85C251.959 1171.91 252.366 1177.2 253.407 1181.73C254.493 1186.25 256.167 1190.01 258.429 1193C260.646 1196.03 263.452 1198.29 266.845 1199.78C270.284 1201.28 274.221 1202.02 278.655 1202.02C280.057 1202.02 281.505 1201.93 282.999 1201.75C284.492 1201.57 285.962 1201.3 287.41 1200.94C288.813 1200.62 290.148 1200.24 291.415 1199.78C292.727 1199.33 293.903 1198.83 294.944 1198.29L297.116 1207.45C295.939 1208.31 294.582 1209.06 293.043 1209.69C291.55 1210.33 289.967 1210.85 288.292 1211.25C286.618 1211.71 284.944 1212.02 283.27 1212.2C281.596 1212.43 279.99 1212.54 278.451 1212.54C271.845 1212.54 266.144 1211.46 261.348 1209.29C256.551 1207.11 252.592 1204.01 249.47 1199.99C246.348 1195.96 244.063 1191.07 242.615 1185.33C241.213 1179.53 240.624 1173.04 240.851 1165.85C241.077 1158.7 242.253 1151.98 244.38 1145.69C246.552 1139.4 249.515 1133.9 253.271 1129.2C256.981 1124.54 261.393 1120.87 266.506 1118.2C271.619 1115.49 277.252 1114.13 283.406 1114.13C288.745 1114.13 293.564 1115.15 297.862 1117.18C302.161 1119.17 305.803 1122 308.79 1125.67C311.731 1129.38 313.948 1133.81 315.441 1138.97C316.934 1144.13 317.59 1149.85 317.409 1156.14ZM272.071 1165.03C271.936 1167.57 271.958 1169.81 272.139 1171.75C272.365 1173.7 272.727 1175.3 273.225 1176.57C273.768 1177.97 274.469 1179.01 275.329 1179.69C276.189 1180.37 277.184 1180.71 278.315 1180.71C278.994 1180.71 279.673 1180.62 280.352 1180.44C281.076 1180.21 281.777 1179.85 282.456 1179.35C282.863 1179.04 283.27 1178.65 283.677 1178.2C284.084 1177.75 284.492 1177.2 284.899 1176.57L284.967 1175.69L287.546 1145.35C287.32 1145.31 287.048 1145.26 286.731 1145.21C286.415 1145.17 285.985 1145.15 285.442 1145.15C283.451 1145.15 281.686 1145.58 280.148 1146.44C278.655 1147.3 277.365 1148.59 276.279 1150.31C275.193 1151.98 274.288 1154.06 273.564 1156.55C272.886 1158.99 272.388 1161.82 272.071 1165.03ZM342.793 1138.56L343.336 1147.45C344.739 1144.29 346.662 1141.8 349.105 1139.99C351.594 1138.13 354.603 1137.21 358.132 1137.21C359.851 1137.21 361.39 1137.41 362.747 1137.82C364.104 1138.22 365.281 1138.86 366.276 1139.72C367.046 1140.35 367.702 1141.12 368.245 1142.02C368.833 1142.88 369.331 1143.88 369.738 1145.01C370.371 1143.93 371.073 1142.95 371.842 1142.09C372.656 1141.19 373.539 1140.42 374.489 1139.79C375.665 1138.97 377 1138.34 378.493 1137.88C379.986 1137.43 381.615 1137.21 383.38 1137.21C385.597 1137.21 387.656 1137.61 389.556 1138.43C391.502 1139.24 393.199 1140.53 394.646 1142.3C396.049 1144.11 397.135 1146.44 397.904 1149.29C398.719 1152.09 399.126 1155.53 399.126 1159.6V1212H381.955V1159.54C381.955 1158.13 381.796 1156.98 381.479 1156.07C381.208 1155.17 380.823 1154.45 380.326 1153.9C379.828 1153.4 379.24 1153.07 378.561 1152.88C377.928 1152.66 377.271 1152.54 376.593 1152.54C375.869 1152.54 375.213 1152.64 374.625 1152.82C374.082 1153 373.561 1153.25 373.063 1153.56C372.656 1153.88 372.294 1154.24 371.978 1154.65C371.661 1155.01 371.389 1155.44 371.163 1155.94C371.163 1156.03 371.163 1156.23 371.163 1156.55C371.163 1156.87 371.163 1157.3 371.163 1157.84V1212H354.535V1159.47C354.535 1158.07 354.399 1156.91 354.127 1156.01C353.856 1155.1 353.494 1154.4 353.042 1153.9C352.544 1153.4 351.978 1153.07 351.345 1152.88C350.711 1152.66 350.033 1152.54 349.309 1152.54C348.494 1152.54 347.77 1152.68 347.137 1152.95C346.503 1153.22 345.938 1153.61 345.44 1154.11C345.078 1154.47 344.761 1154.9 344.49 1155.4C344.218 1155.89 343.969 1156.44 343.743 1157.02V1212H326.572V1138.56H342.793ZM426.139 1241.66C424.329 1241.66 422.745 1241.55 421.388 1241.32C420.076 1241.09 418.605 1240.75 416.976 1240.3L419.284 1225.91C420.053 1225.91 421.026 1225.94 422.202 1225.98C423.424 1226.07 424.397 1226.12 425.121 1226.12C426.614 1226.12 427.926 1225.64 429.057 1224.69C430.234 1223.79 431.229 1222.79 432.043 1221.71C432.858 1220.62 433.446 1219.81 433.808 1219.26C434.215 1218.72 434.69 1217.95 435.233 1216.95L439.577 1208.88L408.492 1138.56H429.125L445.957 1181.59L447.993 1189.06L450.776 1181.73L467.54 1138.56H488.376L451.115 1223C450.301 1224.85 449.237 1226.86 447.925 1229.04C446.658 1231.21 445.052 1233.22 443.106 1235.08C441.161 1236.93 438.785 1238.49 435.98 1239.76C433.22 1241.03 429.939 1241.66 426.139 1241.66ZM564.121 1176.03H507.584V1160.76H564.121V1176.03ZM578.917 1174.6C578.917 1169.26 579.686 1164.33 581.224 1159.81C582.763 1155.24 585.025 1151.28 588.011 1147.93C590.952 1144.58 594.549 1141.96 598.803 1140.06C603.101 1138.16 608.011 1137.21 613.531 1137.21C619.051 1137.21 623.96 1138.16 628.259 1140.06C632.557 1141.96 636.2 1144.58 639.186 1147.93C642.127 1151.28 644.367 1155.24 645.905 1159.81C647.444 1164.33 648.213 1169.26 648.213 1174.6V1176.03C648.213 1181.41 647.444 1186.39 645.905 1190.96C644.367 1195.48 642.127 1199.42 639.186 1202.77C636.245 1206.12 632.625 1208.74 628.327 1210.64C624.028 1212.5 619.141 1213.43 613.667 1213.43C608.146 1213.43 603.214 1212.5 598.871 1210.64C594.572 1208.74 590.952 1206.12 588.011 1202.77C585.025 1199.42 582.763 1195.48 581.224 1190.96C579.686 1186.39 578.917 1181.41 578.917 1176.03V1174.6ZM597.785 1176.03C597.785 1179.11 598.079 1182 598.667 1184.72C599.255 1187.39 600.183 1189.72 601.45 1191.71C602.717 1193.74 604.346 1195.35 606.336 1196.53C608.373 1197.7 610.816 1198.29 613.667 1198.29C616.427 1198.29 618.802 1197.7 620.793 1196.53C622.784 1195.35 624.413 1193.74 625.68 1191.71C626.901 1189.72 627.806 1187.39 628.395 1184.72C628.983 1182 629.277 1179.11 629.277 1176.03V1174.6C629.277 1171.62 628.983 1168.79 628.395 1166.12C627.806 1163.45 626.901 1161.1 625.68 1159.06C624.413 1157.02 622.784 1155.42 620.793 1154.24C618.802 1153.07 616.381 1152.48 613.531 1152.48C610.725 1152.48 608.327 1153.07 606.336 1154.24C604.346 1155.42 602.717 1157.02 601.45 1159.06C600.183 1161.1 599.255 1163.45 598.667 1166.12C598.079 1168.79 597.785 1171.62 597.785 1174.6V1176.03ZM717.713 1137.21C720.563 1137.21 723.188 1137.41 725.586 1137.82C728.029 1138.18 729.998 1138.59 731.491 1139.04L728.708 1157.84C726.219 1157.25 723.663 1156.82 721.039 1156.55C718.459 1156.23 715.993 1156.07 713.641 1156.07C711.197 1156.07 708.98 1156.3 706.989 1156.75C705.044 1157.16 703.302 1157.79 701.763 1158.65C699.908 1159.65 698.324 1160.92 697.012 1162.45C695.7 1163.99 694.614 1165.8 693.754 1167.88V1212H674.886V1138.56H692.465L693.211 1148.95L693.347 1150.58C696.333 1146.41 699.908 1143.16 704.071 1140.8C708.234 1138.41 712.781 1137.21 717.713 1137.21ZM746.558 1174.74C746.558 1169.17 747.237 1164.08 748.594 1159.47C749.997 1154.85 751.988 1150.89 754.567 1147.59C757.146 1144.29 760.268 1141.73 763.933 1139.92C767.598 1138.11 771.738 1137.21 776.354 1137.21C778.842 1137.21 781.104 1137.45 783.141 1137.95C785.222 1138.41 787.1 1139.11 788.774 1140.06C790.041 1140.74 791.217 1141.55 792.303 1142.5C793.389 1143.4 794.385 1144.42 795.29 1145.55L796.036 1138.56H813.208V1209.62C813.208 1214.6 812.348 1219.04 810.628 1222.93C808.954 1226.82 806.601 1230.1 803.57 1232.77C800.493 1235.44 796.805 1237.45 792.507 1238.81C788.254 1240.21 783.548 1240.91 778.39 1240.91C776.173 1240.91 773.797 1240.69 771.263 1240.23C768.729 1239.78 766.218 1239.08 763.729 1238.13C761.241 1237.18 758.888 1235.96 756.671 1234.47C754.454 1233.02 752.553 1231.28 750.97 1229.24L759.454 1217.77C760.675 1219.17 761.987 1220.39 763.39 1221.43C764.793 1222.52 766.263 1223.4 767.802 1224.08C769.295 1224.76 770.833 1225.26 772.417 1225.57C774.046 1225.94 775.72 1226.12 777.439 1226.12C780.2 1226.12 782.643 1225.73 784.77 1224.96C786.941 1224.19 788.751 1223.06 790.199 1221.57C791.511 1220.21 792.507 1218.54 793.186 1216.55C793.91 1214.56 794.271 1212.32 794.271 1209.83V1205.62C793.367 1206.62 792.416 1207.52 791.421 1208.33C790.425 1209.15 789.362 1209.87 788.231 1210.51C786.557 1211.41 784.702 1212.11 782.666 1212.61C780.675 1213.11 778.525 1213.36 776.218 1213.36C771.648 1213.36 767.53 1212.43 763.865 1210.57C760.245 1208.67 757.146 1206.07 754.567 1202.77C751.988 1199.47 749.997 1195.55 748.594 1191.03C747.237 1186.46 746.558 1181.5 746.558 1176.16V1174.74ZM765.494 1176.16C765.494 1179.24 765.788 1182.11 766.376 1184.78C767.01 1187.41 767.96 1189.69 769.227 1191.64C770.494 1193.63 772.1 1195.19 774.046 1196.32C775.992 1197.45 778.299 1198.02 780.969 1198.02C782.598 1198.02 784.068 1197.86 785.38 1197.54C786.738 1197.23 787.959 1196.77 789.045 1196.19C790.177 1195.55 791.172 1194.78 792.032 1193.88C792.891 1192.97 793.638 1191.96 794.271 1190.82V1159.74C793.593 1158.47 792.778 1157.36 791.828 1156.41C790.878 1155.46 789.792 1154.69 788.57 1154.11C787.53 1153.61 786.376 1153.22 785.109 1152.95C783.887 1152.68 782.552 1152.54 781.104 1152.54C778.435 1152.54 776.127 1153.13 774.182 1154.31C772.236 1155.44 770.63 1157 769.363 1158.99C768.051 1161.03 767.078 1163.4 766.444 1166.12C765.811 1168.79 765.494 1171.66 765.494 1174.74V1176.16ZM854.88 1220.48H837.302L874.292 1113.18H891.87L854.88 1220.48ZM919.358 1107.75H960.42V1196.66H981.46V1212H919.358V1196.66H941.348V1123.16H919.358V1107.75ZM1003.93 1138.56H1043.9V1196.66H1063.79V1212H1003.93V1196.66H1024.83V1153.97H1003.93V1138.56ZM1023.47 1119.76C1023.47 1118.32 1023.72 1116.98 1024.22 1115.76C1024.76 1114.49 1025.51 1113.41 1026.46 1112.5C1027.41 1111.64 1028.54 1110.96 1029.85 1110.46C1031.21 1109.97 1032.7 1109.72 1034.33 1109.72C1037.68 1109.72 1040.33 1110.67 1042.27 1112.57C1044.26 1114.42 1045.26 1116.82 1045.26 1119.76C1045.26 1122.7 1044.26 1125.12 1042.27 1127.03C1040.33 1128.88 1037.68 1129.81 1034.33 1129.81C1032.7 1129.81 1031.21 1129.56 1029.85 1129.06C1028.54 1128.56 1027.41 1127.86 1026.46 1126.96C1025.51 1126.1 1024.76 1125.06 1024.22 1123.84C1023.72 1122.57 1023.47 1121.21 1023.47 1119.76ZM1148.56 1176.03C1148.56 1179.56 1148.31 1182.91 1147.81 1186.07C1147.31 1189.2 1146.59 1192.09 1145.64 1194.76C1144.6 1197.7 1143.22 1200.37 1141.5 1202.77C1139.83 1205.17 1137.83 1207.16 1135.53 1208.74C1133.45 1210.24 1131.09 1211.37 1128.47 1212.14C1125.89 1212.95 1123.04 1213.36 1119.92 1213.36C1117.07 1213.36 1114.46 1213 1112.11 1212.27C1109.8 1211.59 1107.72 1210.57 1105.87 1209.22C1104.87 1208.54 1103.94 1207.79 1103.08 1206.98C1102.23 1206.12 1101.41 1205.19 1100.64 1204.19L1099.76 1212H1082.79V1107.75H1101.66V1145.21C1102.56 1144.17 1103.54 1143.22 1104.58 1142.36C1105.62 1141.46 1106.73 1140.69 1107.9 1140.06C1109.58 1139.11 1111.39 1138.41 1113.33 1137.95C1115.32 1137.45 1117.47 1137.21 1119.78 1137.21C1122.95 1137.21 1125.84 1137.61 1128.47 1138.43C1131.14 1139.24 1133.51 1140.42 1135.6 1141.96C1137.27 1143.13 1138.79 1144.56 1140.14 1146.23C1141.5 1147.86 1142.7 1149.65 1143.74 1151.59C1145.37 1154.72 1146.57 1158.22 1147.34 1162.11C1148.15 1166.01 1148.56 1170.17 1148.56 1174.6V1176.03ZM1129.69 1174.6C1129.69 1172.66 1129.6 1170.78 1129.42 1168.97C1129.24 1167.16 1128.94 1165.46 1128.54 1163.88C1128.04 1162.02 1127.38 1160.37 1126.57 1158.92C1125.8 1157.43 1124.62 1156.07 1123.04 1154.85C1122 1154.08 1120.82 1153.52 1119.51 1153.16C1118.2 1152.75 1116.7 1152.54 1115.03 1152.54C1112.77 1152.54 1110.78 1152.86 1109.06 1153.5C1107.34 1154.13 1105.87 1155.06 1104.65 1156.28C1104.06 1156.87 1103.51 1157.54 1103.02 1158.31C1102.52 1159.04 1102.07 1159.83 1101.66 1160.69V1189.94C1102.2 1191.07 1102.81 1192.11 1103.49 1193.06C1104.22 1193.97 1105.05 1194.76 1106 1195.44C1107.13 1196.3 1108.45 1196.96 1109.94 1197.41C1111.48 1197.86 1113.22 1198.09 1115.17 1198.09C1116.84 1198.09 1118.36 1197.88 1119.71 1197.48C1121.07 1197.07 1122.25 1196.5 1123.24 1195.78C1124.65 1194.78 1125.78 1193.49 1126.64 1191.91C1127.54 1190.28 1128.22 1188.45 1128.67 1186.41C1129.03 1184.92 1129.28 1183.29 1129.42 1181.53C1129.6 1179.76 1129.69 1177.93 1129.69 1176.03V1174.6ZM1231.97 1176.03H1175.44V1160.76H1231.97V1176.03ZM1295.23 1212C1294.78 1211.1 1294.39 1210.05 1294.07 1208.88C1293.76 1207.7 1293.49 1206.46 1293.26 1205.15C1292.22 1206.28 1291.02 1207.34 1289.66 1208.33C1288.31 1209.33 1286.81 1210.19 1285.18 1210.91C1283.51 1211.68 1281.68 1212.27 1279.69 1212.68C1277.69 1213.13 1275.55 1213.36 1273.24 1213.36C1269.48 1213.36 1266.02 1212.81 1262.85 1211.73C1259.73 1210.64 1257.04 1209.13 1254.78 1207.18C1252.51 1205.24 1250.75 1202.93 1249.48 1200.26C1248.22 1197.54 1247.58 1194.6 1247.58 1191.44C1247.58 1187.36 1248.37 1183.77 1249.96 1180.64C1251.54 1177.48 1253.92 1174.87 1257.08 1172.84C1259.94 1170.98 1263.44 1169.58 1267.6 1168.63C1271.81 1167.63 1276.63 1167.14 1282.06 1167.14H1292.58V1162.79C1292.58 1161.07 1292.31 1159.54 1291.77 1158.18C1291.22 1156.78 1290.41 1155.58 1289.32 1154.58C1288.19 1153.54 1286.77 1152.75 1285.05 1152.21C1283.37 1151.62 1281.4 1151.32 1279.14 1151.32C1277.15 1151.32 1275.43 1151.57 1273.98 1152.07C1272.54 1152.52 1271.36 1153.18 1270.46 1154.04C1269.64 1154.81 1269.03 1155.73 1268.62 1156.82C1268.26 1157.91 1268.08 1159.11 1268.08 1160.42H1249.21C1249.21 1157.3 1249.89 1154.33 1251.25 1151.53C1252.65 1148.72 1254.69 1146.26 1257.36 1144.13C1259.98 1142 1263.19 1140.33 1266.99 1139.11C1270.84 1137.84 1275.23 1137.21 1280.16 1137.21C1284.59 1137.21 1288.71 1137.75 1292.51 1138.83C1296.36 1139.92 1299.68 1141.53 1302.49 1143.65C1305.3 1145.78 1307.49 1148.47 1309.07 1151.73C1310.66 1154.94 1311.45 1158.68 1311.45 1162.93V1194.42C1311.45 1198.36 1311.7 1201.62 1312.2 1204.19C1312.69 1206.77 1313.42 1208.99 1314.37 1210.85V1212H1295.23ZM1277.24 1198.77C1279.14 1198.77 1280.91 1198.54 1282.54 1198.09C1284.17 1197.63 1285.64 1197.05 1286.95 1196.32C1288.26 1195.6 1289.39 1194.78 1290.34 1193.88C1291.29 1192.93 1292.04 1191.98 1292.58 1191.03V1178.4H1282.94C1280 1178.4 1277.49 1178.7 1275.41 1179.29C1273.33 1179.83 1271.63 1180.6 1270.32 1181.59C1269.01 1182.63 1268.03 1183.88 1267.4 1185.33C1266.77 1186.73 1266.45 1188.27 1266.45 1189.94C1266.45 1191.25 1266.68 1192.48 1267.13 1193.61C1267.63 1194.69 1268.33 1195.62 1269.23 1196.39C1270.14 1197.11 1271.25 1197.7 1272.56 1198.15C1273.92 1198.56 1275.48 1198.77 1277.24 1198.77Z" fill="#B56959"/>
<path d="M717.346 610L765 657.659H954.481C966.962 657.659 977.74 662.765 986.817 671.843C995.894 680.921 1001 692.268 1001 705.317V941.341C1001 954.958 995.894 966.305 986.817 975.383C977.74 984.461 966.962 989 954.481 989H575.519C563.038 989 551.692 984.461 542.615 975.383C533.538 966.305 529 954.958 529 941.341V657.659C529 644.609 533.538 633.262 542.615 624.184C551.692 615.106 563.038 610 575.519 610H717.346Z" fill="#3078C6"/>
<path d="M858.156 830.982H822.228V938.884H795.928V830.982H760V811.94H857.217V830.982H858.156ZM939.639 906.208C939.639 900.801 937.526 897.745 934.238 894.454C930.951 891.163 924.845 889.282 916.392 885.991C901.598 881.759 889.857 876.588 881.403 870.241C873.889 863.893 869.897 856.371 869.897 845.792C869.897 835.213 873.889 826.75 883.517 820.403C891.97 814.056 903.477 811 917.331 811C931.186 811 942.692 814.996 951.145 822.519C959.599 830.042 963.826 839.445 963.826 850.024H939.639C939.639 843.676 937.526 839.445 933.299 835.213C929.072 831.922 923.906 830.042 916.392 830.042C910.052 830.042 904.651 830.982 900.424 834.273C896.197 837.564 895.258 841.561 895.258 845.792C895.258 850.024 897.371 853.08 901.598 856.371C905.825 859.662 912.165 861.543 922.732 864.834C936.586 869.065 946.919 874.472 954.433 880.819C961.947 887.166 965 895.629 965 906.208C965 916.787 960.773 926.19 952.32 931.597C943.866 937.944 932.36 941 918.505 941C904.651 941 892.205 937.944 882.577 930.421C872.95 922.899 866.609 913.731 867.784 899.861H893.144C893.144 907.383 895.023 912.555 900.424 916.787C904.651 920.078 911.93 921.958 919.444 921.958C926.959 921.958 932.125 921.018 935.412 917.727C937.526 914.436 939.639 910.439 939.639 906.208Z" fill="white"/>
<path d="M1777.41 1156.14C1777.27 1160.4 1776.8 1164.63 1775.98 1168.83C1775.17 1173 1773.97 1176.73 1772.39 1180.03C1770.76 1183.38 1768.7 1186.1 1766.21 1188.18C1763.72 1190.21 1760.74 1191.23 1757.25 1191.23C1755.94 1191.23 1754.69 1191.05 1753.52 1190.69C1752.34 1190.33 1751.28 1189.78 1750.33 1189.06C1749.56 1188.52 1748.86 1187.86 1748.22 1187.09C1747.59 1186.32 1747.03 1185.46 1746.53 1184.51C1745.94 1185.33 1745.31 1186.1 1744.63 1186.82C1743.95 1187.5 1743.25 1188.11 1742.52 1188.65C1741.44 1189.42 1740.28 1190.03 1739.06 1190.48C1737.84 1190.89 1736.55 1191.1 1735.19 1191.1C1732.48 1191.1 1730.1 1190.48 1728.07 1189.26C1726.03 1188.04 1724.38 1186.28 1723.11 1183.97C1721.85 1181.71 1720.96 1178.97 1720.47 1175.76C1720.01 1172.54 1719.97 1168.97 1720.33 1165.03C1720.83 1160.42 1721.71 1156.26 1722.98 1152.54C1724.29 1148.83 1725.96 1145.64 1728 1142.98C1730.04 1140.35 1732.43 1138.34 1735.19 1136.93C1737.95 1135.49 1741.05 1134.76 1744.49 1134.76C1747.98 1134.76 1750.85 1135.28 1753.11 1136.32C1755.37 1137.32 1757.21 1138.52 1758.61 1139.92L1755.69 1175.69C1755.6 1177 1755.62 1178.02 1755.76 1178.74C1755.94 1179.47 1756.21 1180.01 1756.57 1180.37C1756.89 1180.73 1757.27 1180.96 1757.73 1181.05C1758.18 1181.14 1758.63 1181.19 1759.08 1181.19C1760.26 1181.19 1761.32 1180.58 1762.27 1179.35C1763.27 1178.13 1764.13 1176.44 1764.85 1174.26C1765.58 1172.09 1766.12 1169.51 1766.48 1166.53C1766.89 1163.49 1767.09 1160.19 1767.09 1156.62C1767.27 1151.1 1766.87 1146.32 1765.87 1142.3C1764.92 1138.22 1763.41 1134.88 1761.32 1132.25C1759.24 1129.63 1756.64 1127.68 1753.52 1126.41C1750.4 1125.15 1746.8 1124.51 1742.73 1124.51C1738.11 1124.51 1733.95 1125.55 1730.24 1127.64C1726.57 1129.67 1723.45 1132.52 1720.87 1136.19C1718.25 1139.85 1716.19 1144.22 1714.7 1149.29C1713.2 1154.31 1712.37 1159.83 1712.19 1165.85C1711.96 1171.91 1712.37 1177.2 1713.41 1181.73C1714.49 1186.25 1716.17 1190.01 1718.43 1193C1720.65 1196.03 1723.45 1198.29 1726.85 1199.78C1730.28 1201.28 1734.22 1202.02 1738.65 1202.02C1740.06 1202.02 1741.51 1201.93 1743 1201.75C1744.49 1201.57 1745.96 1201.3 1747.41 1200.94C1748.81 1200.62 1750.15 1200.24 1751.41 1199.78C1752.73 1199.33 1753.9 1198.83 1754.94 1198.29L1757.12 1207.45C1755.94 1208.31 1754.58 1209.06 1753.04 1209.69C1751.55 1210.33 1749.97 1210.85 1748.29 1211.25C1746.62 1211.71 1744.94 1212.02 1743.27 1212.2C1741.6 1212.43 1739.99 1212.54 1738.45 1212.54C1731.85 1212.54 1726.14 1211.46 1721.35 1209.29C1716.55 1207.11 1712.59 1204.01 1709.47 1199.99C1706.35 1195.96 1704.06 1191.07 1702.62 1185.33C1701.21 1179.53 1700.62 1173.04 1700.85 1165.85C1701.08 1158.7 1702.25 1151.98 1704.38 1145.69C1706.55 1139.4 1709.52 1133.9 1713.27 1129.2C1716.98 1124.54 1721.39 1120.87 1726.51 1118.2C1731.62 1115.49 1737.25 1114.13 1743.41 1114.13C1748.74 1114.13 1753.56 1115.15 1757.86 1117.18C1762.16 1119.17 1765.8 1122 1768.79 1125.67C1771.73 1129.38 1773.95 1133.81 1775.44 1138.97C1776.93 1144.13 1777.59 1149.85 1777.41 1156.14ZM1732.07 1165.03C1731.94 1167.57 1731.96 1169.81 1732.14 1171.75C1732.37 1173.7 1732.73 1175.3 1733.23 1176.57C1733.77 1177.97 1734.47 1179.01 1735.33 1179.69C1736.19 1180.37 1737.18 1180.71 1738.32 1180.71C1738.99 1180.71 1739.67 1180.62 1740.35 1180.44C1741.08 1180.21 1741.78 1179.85 1742.46 1179.35C1742.86 1179.04 1743.27 1178.65 1743.68 1178.2C1744.08 1177.75 1744.49 1177.2 1744.9 1176.57L1744.97 1175.69L1747.55 1145.35C1747.32 1145.31 1747.05 1145.26 1746.73 1145.21C1746.41 1145.17 1745.98 1145.15 1745.44 1145.15C1743.45 1145.15 1741.69 1145.58 1740.15 1146.44C1738.65 1147.3 1737.37 1148.59 1736.28 1150.31C1735.19 1151.98 1734.29 1154.06 1733.56 1156.55C1732.89 1158.99 1732.39 1161.82 1732.07 1165.03ZM1802.79 1138.56L1803.34 1147.45C1804.74 1144.29 1806.66 1141.8 1809.1 1139.99C1811.59 1138.13 1814.6 1137.21 1818.13 1137.21C1819.85 1137.21 1821.39 1137.41 1822.75 1137.82C1824.1 1138.22 1825.28 1138.86 1826.28 1139.72C1827.05 1140.35 1827.7 1141.12 1828.24 1142.02C1828.83 1142.88 1829.33 1143.88 1829.74 1145.01C1830.37 1143.93 1831.07 1142.95 1831.84 1142.09C1832.66 1141.19 1833.54 1140.42 1834.49 1139.79C1835.67 1138.97 1837 1138.34 1838.49 1137.88C1839.99 1137.43 1841.62 1137.21 1843.38 1137.21C1845.6 1137.21 1847.66 1137.61 1849.56 1138.43C1851.5 1139.24 1853.2 1140.53 1854.65 1142.3C1856.05 1144.11 1857.14 1146.44 1857.9 1149.29C1858.72 1152.09 1859.13 1155.53 1859.13 1159.6V1212H1841.95V1159.54C1841.95 1158.13 1841.8 1156.98 1841.48 1156.07C1841.21 1155.17 1840.82 1154.45 1840.33 1153.9C1839.83 1153.4 1839.24 1153.07 1838.56 1152.88C1837.93 1152.66 1837.27 1152.54 1836.59 1152.54C1835.87 1152.54 1835.21 1152.64 1834.62 1152.82C1834.08 1153 1833.56 1153.25 1833.06 1153.56C1832.66 1153.88 1832.29 1154.24 1831.98 1154.65C1831.66 1155.01 1831.39 1155.44 1831.16 1155.94C1831.16 1156.03 1831.16 1156.23 1831.16 1156.55C1831.16 1156.87 1831.16 1157.3 1831.16 1157.84V1212H1814.53V1159.47C1814.53 1158.07 1814.4 1156.91 1814.13 1156.01C1813.86 1155.1 1813.49 1154.4 1813.04 1153.9C1812.54 1153.4 1811.98 1153.07 1811.34 1152.88C1810.71 1152.66 1810.03 1152.54 1809.31 1152.54C1808.49 1152.54 1807.77 1152.68 1807.14 1152.95C1806.5 1153.22 1805.94 1153.61 1805.44 1154.11C1805.08 1154.47 1804.76 1154.9 1804.49 1155.4C1804.22 1155.89 1803.97 1156.44 1803.74 1157.02V1212H1786.57V1138.56H1802.79ZM1886.14 1241.66C1884.33 1241.66 1882.75 1241.55 1881.39 1241.32C1880.08 1241.09 1878.6 1240.75 1876.98 1240.3L1879.28 1225.91C1880.05 1225.91 1881.03 1225.94 1882.2 1225.98C1883.42 1226.07 1884.4 1226.12 1885.12 1226.12C1886.61 1226.12 1887.93 1225.64 1889.06 1224.69C1890.23 1223.79 1891.23 1222.79 1892.04 1221.71C1892.86 1220.62 1893.45 1219.81 1893.81 1219.26C1894.22 1218.72 1894.69 1217.95 1895.23 1216.95L1899.58 1208.88L1868.49 1138.56H1889.12L1905.96 1181.59L1907.99 1189.06L1910.78 1181.73L1927.54 1138.56H1948.38L1911.12 1223C1910.3 1224.85 1909.24 1226.86 1907.93 1229.04C1906.66 1231.21 1905.05 1233.22 1903.11 1235.08C1901.16 1236.93 1898.79 1238.49 1895.98 1239.76C1893.22 1241.03 1889.94 1241.66 1886.14 1241.66ZM2024.12 1176.03H1967.58V1160.76H2024.12V1176.03ZM2038.92 1174.6C2038.92 1169.26 2039.69 1164.33 2041.22 1159.81C2042.76 1155.24 2045.02 1151.28 2048.01 1147.93C2050.95 1144.58 2054.55 1141.96 2058.8 1140.06C2063.1 1138.16 2068.01 1137.21 2073.53 1137.21C2079.05 1137.21 2083.96 1138.16 2088.26 1140.06C2092.56 1141.96 2096.2 1144.58 2099.19 1147.93C2102.13 1151.28 2104.37 1155.24 2105.91 1159.81C2107.44 1164.33 2108.21 1169.26 2108.21 1174.6V1176.03C2108.21 1181.41 2107.44 1186.39 2105.91 1190.96C2104.37 1195.48 2102.13 1199.42 2099.19 1202.77C2096.24 1206.12 2092.63 1208.74 2088.33 1210.64C2084.03 1212.5 2079.14 1213.43 2073.67 1213.43C2068.15 1213.43 2063.21 1212.5 2058.87 1210.64C2054.57 1208.74 2050.95 1206.12 2048.01 1202.77C2045.02 1199.42 2042.76 1195.48 2041.22 1190.96C2039.69 1186.39 2038.92 1181.41 2038.92 1176.03V1174.6ZM2057.78 1176.03C2057.78 1179.11 2058.08 1182 2058.67 1184.72C2059.26 1187.39 2060.18 1189.72 2061.45 1191.71C2062.72 1193.74 2064.35 1195.35 2066.34 1196.53C2068.37 1197.7 2070.82 1198.29 2073.67 1198.29C2076.43 1198.29 2078.8 1197.7 2080.79 1196.53C2082.78 1195.35 2084.41 1193.74 2085.68 1191.71C2086.9 1189.72 2087.81 1187.39 2088.39 1184.72C2088.98 1182 2089.28 1179.11 2089.28 1176.03V1174.6C2089.28 1171.62 2088.98 1168.79 2088.39 1166.12C2087.81 1163.45 2086.9 1161.1 2085.68 1159.06C2084.41 1157.02 2082.78 1155.42 2080.79 1154.24C2078.8 1153.07 2076.38 1152.48 2073.53 1152.48C2070.73 1152.48 2068.33 1153.07 2066.34 1154.24C2064.35 1155.42 2062.72 1157.02 2061.45 1159.06C2060.18 1161.1 2059.26 1163.45 2058.67 1166.12C2058.08 1168.79 2057.78 1171.62 2057.78 1174.6V1176.03ZM2177.71 1137.21C2180.56 1137.21 2183.19 1137.41 2185.59 1137.82C2188.03 1138.18 2190 1138.59 2191.49 1139.04L2188.71 1157.84C2186.22 1157.25 2183.66 1156.82 2181.04 1156.55C2178.46 1156.23 2175.99 1156.07 2173.64 1156.07C2171.2 1156.07 2168.98 1156.3 2166.99 1156.75C2165.04 1157.16 2163.3 1157.79 2161.76 1158.65C2159.91 1159.65 2158.32 1160.92 2157.01 1162.45C2155.7 1163.99 2154.61 1165.8 2153.75 1167.88V1212H2134.89V1138.56H2152.46L2153.21 1148.95L2153.35 1150.58C2156.33 1146.41 2159.91 1143.16 2164.07 1140.8C2168.23 1138.41 2172.78 1137.21 2177.71 1137.21ZM2206.56 1174.74C2206.56 1169.17 2207.24 1164.08 2208.59 1159.47C2210 1154.85 2211.99 1150.89 2214.57 1147.59C2217.15 1144.29 2220.27 1141.73 2223.93 1139.92C2227.6 1138.11 2231.74 1137.21 2236.35 1137.21C2238.84 1137.21 2241.1 1137.45 2243.14 1137.95C2245.22 1138.41 2247.1 1139.11 2248.77 1140.06C2250.04 1140.74 2251.22 1141.55 2252.3 1142.5C2253.39 1143.4 2254.38 1144.42 2255.29 1145.55L2256.04 1138.56H2273.21V1209.62C2273.21 1214.6 2272.35 1219.04 2270.63 1222.93C2268.95 1226.82 2266.6 1230.1 2263.57 1232.77C2260.49 1235.44 2256.81 1237.45 2252.51 1238.81C2248.25 1240.21 2243.55 1240.91 2238.39 1240.91C2236.17 1240.91 2233.8 1240.69 2231.26 1240.23C2228.73 1239.78 2226.22 1239.08 2223.73 1238.13C2221.24 1237.18 2218.89 1235.96 2216.67 1234.47C2214.45 1233.02 2212.55 1231.28 2210.97 1229.24L2219.45 1217.77C2220.68 1219.17 2221.99 1220.39 2223.39 1221.43C2224.79 1222.52 2226.26 1223.4 2227.8 1224.08C2229.29 1224.76 2230.83 1225.26 2232.42 1225.57C2234.05 1225.94 2235.72 1226.12 2237.44 1226.12C2240.2 1226.12 2242.64 1225.73 2244.77 1224.96C2246.94 1224.19 2248.75 1223.06 2250.2 1221.57C2251.51 1220.21 2252.51 1218.54 2253.19 1216.55C2253.91 1214.56 2254.27 1212.32 2254.27 1209.83V1205.62C2253.37 1206.62 2252.42 1207.52 2251.42 1208.33C2250.43 1209.15 2249.36 1209.87 2248.23 1210.51C2246.56 1211.41 2244.7 1212.11 2242.67 1212.61C2240.67 1213.11 2238.53 1213.36 2236.22 1213.36C2231.65 1213.36 2227.53 1212.43 2223.87 1210.57C2220.25 1208.67 2217.15 1206.07 2214.57 1202.77C2211.99 1199.47 2210 1195.55 2208.59 1191.03C2207.24 1186.46 2206.56 1181.5 2206.56 1176.16V1174.74ZM2225.49 1176.16C2225.49 1179.24 2225.79 1182.11 2226.38 1184.78C2227.01 1187.41 2227.96 1189.69 2229.23 1191.64C2230.49 1193.63 2232.1 1195.19 2234.05 1196.32C2235.99 1197.45 2238.3 1198.02 2240.97 1198.02C2242.6 1198.02 2244.07 1197.86 2245.38 1197.54C2246.74 1197.23 2247.96 1196.77 2249.05 1196.19C2250.18 1195.55 2251.17 1194.78 2252.03 1193.88C2252.89 1192.97 2253.64 1191.96 2254.27 1190.82V1159.74C2253.59 1158.47 2252.78 1157.36 2251.83 1156.41C2250.88 1155.46 2249.79 1154.69 2248.57 1154.11C2247.53 1153.61 2246.38 1153.22 2245.11 1152.95C2243.89 1152.68 2242.55 1152.54 2241.1 1152.54C2238.43 1152.54 2236.13 1153.13 2234.18 1154.31C2232.24 1155.44 2230.63 1157 2229.36 1158.99C2228.05 1161.03 2227.08 1163.4 2226.44 1166.12C2225.81 1168.79 2225.49 1171.66 2225.49 1174.74V1176.16ZM2314.88 1220.48H2297.3L2334.29 1113.18H2351.87L2314.88 1220.48ZM2379.36 1107.75H2420.42V1196.66H2441.46V1212H2379.36V1196.66H2401.35V1123.16H2379.36V1107.75ZM2463.93 1138.56H2503.9V1196.66H2523.79V1212H2463.93V1196.66H2484.83V1153.97H2463.93V1138.56ZM2483.47 1119.76C2483.47 1118.32 2483.72 1116.98 2484.22 1115.76C2484.76 1114.49 2485.51 1113.41 2486.46 1112.5C2487.41 1111.64 2488.54 1110.96 2489.85 1110.46C2491.21 1109.97 2492.7 1109.72 2494.33 1109.72C2497.68 1109.72 2500.33 1110.67 2502.27 1112.57C2504.26 1114.42 2505.26 1116.82 2505.26 1119.76C2505.26 1122.7 2504.26 1125.12 2502.27 1127.03C2500.33 1128.88 2497.68 1129.81 2494.33 1129.81C2492.7 1129.81 2491.21 1129.56 2489.85 1129.06C2488.54 1128.56 2487.41 1127.86 2486.46 1126.96C2485.51 1126.1 2484.76 1125.06 2484.22 1123.84C2483.72 1122.57 2483.47 1121.21 2483.47 1119.76ZM2608.56 1176.03C2608.56 1179.56 2608.31 1182.91 2607.81 1186.07C2607.31 1189.2 2606.59 1192.09 2605.64 1194.76C2604.6 1197.7 2603.22 1200.37 2601.5 1202.77C2599.83 1205.17 2597.83 1207.16 2595.53 1208.74C2593.45 1210.24 2591.09 1211.37 2588.47 1212.14C2585.89 1212.95 2583.04 1213.36 2579.92 1213.36C2577.07 1213.36 2574.46 1213 2572.11 1212.27C2569.8 1211.59 2567.72 1210.57 2565.87 1209.22C2564.87 1208.54 2563.94 1207.79 2563.08 1206.98C2562.23 1206.12 2561.41 1205.19 2560.64 1204.19L2559.76 1212H2542.79V1107.75H2561.66V1145.21C2562.56 1144.17 2563.54 1143.22 2564.58 1142.36C2565.62 1141.46 2566.73 1140.69 2567.9 1140.06C2569.58 1139.11 2571.39 1138.41 2573.33 1137.95C2575.32 1137.45 2577.47 1137.21 2579.78 1137.21C2582.95 1137.21 2585.84 1137.61 2588.47 1138.43C2591.14 1139.24 2593.51 1140.42 2595.6 1141.96C2597.27 1143.13 2598.79 1144.56 2600.14 1146.23C2601.5 1147.86 2602.7 1149.65 2603.74 1151.59C2605.37 1154.72 2606.57 1158.22 2607.34 1162.11C2608.15 1166.01 2608.56 1170.17 2608.56 1174.6V1176.03ZM2589.69 1174.6C2589.69 1172.66 2589.6 1170.78 2589.42 1168.97C2589.24 1167.16 2588.94 1165.46 2588.54 1163.88C2588.04 1162.02 2587.38 1160.37 2586.57 1158.92C2585.8 1157.43 2584.62 1156.07 2583.04 1154.85C2582 1154.08 2580.82 1153.52 2579.51 1153.16C2578.2 1152.75 2576.7 1152.54 2575.03 1152.54C2572.77 1152.54 2570.78 1152.86 2569.06 1153.5C2567.34 1154.13 2565.87 1155.06 2564.65 1156.28C2564.06 1156.87 2563.51 1157.54 2563.02 1158.31C2562.52 1159.04 2562.07 1159.83 2561.66 1160.69V1189.94C2562.2 1191.07 2562.81 1192.11 2563.49 1193.06C2564.22 1193.97 2565.05 1194.76 2566 1195.44C2567.13 1196.3 2568.45 1196.96 2569.94 1197.41C2571.48 1197.86 2573.22 1198.09 2575.17 1198.09C2576.84 1198.09 2578.36 1197.88 2579.71 1197.48C2581.07 1197.07 2582.25 1196.5 2583.24 1195.78C2584.65 1194.78 2585.78 1193.49 2586.64 1191.91C2587.54 1190.28 2588.22 1188.45 2588.67 1186.41C2589.03 1184.92 2589.28 1183.29 2589.42 1181.53C2589.6 1179.76 2589.69 1177.93 2589.69 1176.03V1174.6ZM2691.97 1176.03H2635.44V1160.76H2691.97V1176.03ZM2775.52 1176.03C2775.52 1179.56 2775.27 1182.91 2774.77 1186.07C2774.28 1189.2 2773.55 1192.09 2772.6 1194.76C2771.56 1197.7 2770.18 1200.37 2768.46 1202.77C2766.79 1205.17 2764.8 1207.16 2762.49 1208.74C2760.41 1210.24 2758.06 1211.37 2755.43 1212.14C2752.85 1212.95 2750 1213.36 2746.88 1213.36C2744.03 1213.36 2741.43 1213 2739.07 1212.27C2736.77 1211.59 2734.69 1210.57 2732.83 1209.22C2731.84 1208.54 2730.91 1207.79 2730.05 1206.98C2729.19 1206.12 2728.37 1205.19 2727.6 1204.19L2726.72 1212H2709.75V1107.75H2728.62V1145.21C2729.53 1144.17 2730.5 1143.22 2731.54 1142.36C2732.58 1141.46 2733.69 1140.69 2734.87 1140.06C2736.54 1139.11 2738.35 1138.41 2740.3 1137.95C2742.29 1137.45 2744.44 1137.21 2746.74 1137.21C2749.91 1137.21 2752.81 1137.61 2755.43 1138.43C2758.1 1139.24 2760.48 1140.42 2762.56 1141.96C2764.23 1143.13 2765.75 1144.56 2767.11 1146.23C2768.46 1147.86 2769.66 1149.65 2770.7 1151.59C2772.33 1154.72 2773.53 1158.22 2774.3 1162.11C2775.11 1166.01 2775.52 1170.17 2775.52 1174.6V1176.03ZM2756.65 1174.6C2756.65 1172.66 2756.56 1170.78 2756.38 1168.97C2756.2 1167.16 2755.91 1165.46 2755.5 1163.88C2755 1162.02 2754.35 1160.37 2753.53 1158.92C2752.76 1157.43 2751.59 1156.07 2750 1154.85C2748.96 1154.08 2747.78 1153.52 2746.47 1153.16C2745.16 1152.75 2743.67 1152.54 2741.99 1152.54C2739.73 1152.54 2737.74 1152.86 2736.02 1153.5C2734.3 1154.13 2732.83 1155.06 2731.61 1156.28C2731.02 1156.87 2730.48 1157.54 2729.98 1158.31C2729.48 1159.04 2729.03 1159.83 2728.62 1160.69V1189.94C2729.17 1191.07 2729.78 1192.11 2730.46 1193.06C2731.18 1193.97 2732.02 1194.76 2732.97 1195.44C2734.1 1196.3 2735.41 1196.96 2736.9 1197.41C2738.44 1197.86 2740.18 1198.09 2742.13 1198.09C2743.8 1198.09 2745.32 1197.88 2746.68 1197.48C2748.03 1197.07 2749.21 1196.5 2750.21 1195.78C2751.61 1194.78 2752.74 1193.49 2753.6 1191.91C2754.5 1190.28 2755.18 1188.45 2755.64 1186.41C2756 1184.92 2756.25 1183.29 2756.38 1181.53C2756.56 1179.76 2756.65 1177.93 2756.65 1176.03V1174.6Z" fill="#B56959"/>
<path d="M2176.35 610L2224 657.659H2413.48C2425.96 657.659 2436.74 662.765 2445.82 671.843C2454.89 680.921 2460 692.268 2460 705.317V941.341C2460 954.958 2454.89 966.305 2445.82 975.383C2436.74 984.461 2425.96 989 2413.48 989H2034.52C2022.04 989 2010.69 984.461 2001.62 975.383C1992.54 966.305 1988 954.958 1988 941.341V657.659C1988 644.609 1992.54 633.262 2001.62 624.184C2010.69 615.106 2022.04 610 2034.52 610H2176.35Z" fill="#3078C6"/>
<path d="M2317.16 830.982H2281.23V938.884H2254.93V830.982H2219V811.94H2316.22V830.982H2317.16ZM2398.64 906.208C2398.64 900.801 2396.53 897.745 2393.24 894.454C2389.95 891.163 2383.85 889.282 2375.39 885.991C2360.6 881.759 2348.86 876.588 2340.4 870.241C2332.89 863.893 2328.9 856.371 2328.9 845.792C2328.9 835.213 2332.89 826.75 2342.52 820.403C2350.97 814.056 2362.48 811 2376.33 811C2390.19 811 2401.69 814.996 2410.15 822.519C2418.6 830.042 2422.83 839.445 2422.83 850.024H2398.64C2398.64 843.676 2396.53 839.445 2392.3 835.213C2388.07 831.922 2382.91 830.042 2375.39 830.042C2369.05 830.042 2363.65 830.982 2359.42 834.273C2355.2 837.564 2354.26 841.561 2354.26 845.792C2354.26 850.024 2356.37 853.08 2360.6 856.371C2364.82 859.662 2371.16 861.543 2381.73 864.834C2395.59 869.065 2405.92 874.472 2413.43 880.819C2420.95 887.166 2424 895.629 2424 906.208C2424 916.787 2419.77 926.19 2411.32 931.597C2402.87 937.944 2391.36 941 2377.51 941C2363.65 941 2351.21 937.944 2341.58 930.421C2331.95 922.899 2325.61 913.731 2326.78 899.861H2352.14C2352.14 907.383 2354.02 912.555 2359.42 916.787C2363.65 920.078 2370.93 921.958 2378.44 921.958C2385.96 921.958 2391.12 921.018 2394.41 917.727C2396.53 914.436 2398.64 910.439 2398.64 906.208Z" fill="white"/>
<path d="M1535.44 1717.88H1534.93L1513.69 1736.59C1514.7 1743.17 1515.21 1750.25 1515.21 1756.82C1515.21 1763.9 1514.7 1770.98 1513.69 1777.55L1534.93 1796.77C1542.01 1802.33 1544.54 1812.44 1541 1821.04C1538.98 1825.59 1535.94 1830.65 1533.92 1835.71L1530.89 1840.76C1527.85 1845.82 1524.82 1850.37 1521.28 1854.92C1515.71 1862.51 1506.61 1865.04 1497.51 1862L1470.2 1852.9C1460.08 1861.5 1447.94 1868.07 1435.3 1872.62L1429.23 1900.94C1427.21 1910.04 1420.63 1917.12 1411.53 1918.13C1404.95 1919.14 1398.38 1919.14 1391.8 1919.14C1385.23 1919.14 1378.15 1919.14 1372.08 1918.13C1362.97 1917.12 1355.89 1910.04 1354.38 1900.94L1348.31 1872.62C1335.16 1868.07 1324.03 1861.5 1313.41 1852.9L1286.6 1862C1277.5 1865.04 1267.39 1862.51 1262.33 1854.92C1258.79 1850.37 1255.75 1845.82 1252.72 1840.76L1249.68 1835.71C1247.16 1830.65 1244.12 1825.59 1242.6 1821.04C1239.06 1812.44 1241.59 1802.33 1248.17 1796.77L1269.91 1777.55C1268.9 1770.98 1267.89 1763.9 1267.89 1756.82C1267.89 1750.25 1268.9 1743.67 1269.91 1737.1L1248.17 1717.88C1241.59 1711.81 1239.06 1702.21 1242.6 1693.61C1244.12 1688.55 1247.16 1684 1249.68 1678.94L1252.72 1673.38C1255.75 1668.32 1258.79 1664.28 1262.33 1659.73C1267.39 1652.14 1277.5 1649.61 1286.6 1652.65L1313.41 1661.75C1324.03 1653.15 1335.66 1646.07 1348.81 1641.52L1354.88 1613.2C1356.4 1604.1 1363.48 1597.53 1372.58 1596.52C1378.65 1595.51 1385.23 1595 1391.8 1595H1392.31C1398.88 1595 1405.46 1595.51 1412.03 1596.52C1421.14 1597.53 1427.71 1604.61 1429.74 1613.71L1435.8 1641.52C1448.45 1646.07 1460.08 1653.15 1470.2 1661.75L1497.51 1652.65C1506.61 1649.61 1516.22 1652.14 1521.78 1659.73C1525.32 1664.28 1528.36 1668.32 1531.39 1673.38L1534.43 1678.94C1536.45 1684 1539.49 1689.06 1541.51 1693.61C1545.05 1702.21 1542.52 1711.81 1535.44 1717.88ZM1345.78 1756.82C1345.78 1782.61 1366.01 1803.34 1391.8 1803.34C1417.6 1803.34 1438.33 1782.61 1438.33 1756.82C1438.33 1731.53 1417.6 1711.31 1391.8 1711.31C1366.01 1711.31 1345.78 1731.53 1345.78 1756.82ZM1725.1 2070.34L1705.88 2048.6C1699.31 2049.61 1692.23 2050.62 1685.65 2050.62C1678.57 2050.62 1671.99 2049.61 1665.93 2048.6L1646.71 2070.34C1640.64 2077.42 1630.52 2079.95 1622.43 2076.41C1617.37 2074.39 1612.31 2071.35 1607.26 2069.33L1601.69 2066.3C1597.14 2063.26 1592.59 2060.23 1588.04 2056.69C1580.45 2051.13 1578.43 2042.02 1580.96 2032.92L1590.06 2005.62C1581.46 1995.5 1574.89 1983.37 1569.83 1970.72L1541.51 1964.66C1532.91 1962.63 1525.83 1956.06 1524.82 1946.96C1523.81 1940.38 1523.3 1933.81 1523.3 1927.23C1523.3 1920.66 1523.81 1913.58 1524.82 1907.51C1525.83 1898.41 1532.91 1891.33 1541.51 1889.81L1569.83 1883.75C1574.89 1870.6 1581.46 1859.47 1590.06 1848.85L1580.96 1821.55C1578.43 1812.44 1580.45 1802.84 1588.04 1797.78C1592.59 1794.24 1597.14 1791.21 1601.69 1788.17L1606.75 1785.14C1611.81 1782.61 1617.37 1779.57 1622.43 1778.06C1630.52 1774.52 1640.64 1777.05 1646.71 1783.62L1665.42 1805.36C1671.49 1804.35 1678.57 1803.34 1685.65 1803.34C1692.23 1803.34 1699.31 1804.35 1705.88 1805.36L1725.1 1783.62C1731.17 1777.05 1740.78 1774.52 1749.38 1778.06C1754.94 1779.57 1758.99 1782.61 1764.04 1785.14L1769.1 1788.17C1774.16 1791.21 1779.22 1794.24 1783.26 1797.78C1790.85 1802.84 1793.38 1812.44 1790.34 1821.55L1781.24 1848.85C1789.84 1859.47 1796.41 1870.6 1801.47 1883.75L1829.29 1889.81C1838.39 1891.33 1845.98 1898.92 1846.99 1908.02C1848 1914.09 1848 1920.66 1848 1927.23C1848 1933.81 1848 1940.38 1846.99 1946.96C1845.98 1956.06 1838.39 1962.63 1829.29 1964.66L1801.47 1970.72C1796.41 1983.37 1789.84 1995.5 1781.24 2005.62L1790.34 2032.92C1793.38 2042.02 1790.85 2051.13 1783.26 2056.69C1779.22 2060.23 1774.16 2063.26 1769.1 2066.3L1764.04 2069.33C1758.99 2071.35 1754.43 2074.39 1749.38 2076.41C1740.78 2079.95 1731.17 2077.42 1725.1 2070.34ZM1685.65 1880.71C1659.86 1880.71 1639.12 1901.44 1639.12 1927.23C1639.12 1953.02 1659.86 1973.76 1685.65 1973.76C1711.44 1973.76 1732.18 1953.02 1732.18 1927.23C1732.18 1901.44 1711.44 1880.71 1685.65 1880.71Z" fill="#999999"/>
<path d="M200.64 2709V2699.16H228.969V2648.35H201.97V2638.51H240.141V2699.16H264.48V2709H200.64ZM227.905 2627.47V2614.44H239.609V2627.47H227.905ZM275.068 2709V2638.51H285.309L285.575 2648.88C287.969 2641.44 292.89 2636.91 299.54 2636.91C306.855 2636.91 311.244 2641.7 312.84 2650.75C315.101 2642.23 320.554 2636.91 328.002 2636.91C339.307 2636.91 344.228 2644.36 344.228 2662.45V2709H333.056V2663.78C333.056 2651.28 330.396 2646.76 324.81 2646.76C319.224 2646.76 315.234 2652.08 315.234 2664.05V2709H304.062V2663.78C304.062 2651.81 301.668 2646.76 295.816 2646.76C290.23 2646.76 286.24 2652.08 286.24 2664.05V2709H275.068ZM360.136 2728.95V2638.51H370.51L370.643 2649.81C374.899 2641.44 382.746 2636.91 392.322 2636.91C413.336 2636.91 422.646 2654.34 422.646 2673.75C422.646 2693.17 413.336 2710.6 392.322 2710.6C383.145 2710.6 375.032 2706.47 371.308 2699.69V2728.95H360.136ZM391.258 2699.96C403.494 2699.96 410.942 2690.25 410.942 2673.75C410.942 2657.26 403.494 2647.55 391.258 2647.55C379.022 2647.55 371.308 2656.46 371.308 2673.75C371.308 2691.04 378.889 2699.96 391.258 2699.96ZM469.144 2710.6C449.593 2710.6 436.958 2696.23 436.958 2673.75C436.958 2651.28 449.593 2636.91 469.144 2636.91C488.562 2636.91 501.33 2651.28 501.33 2673.75C501.33 2696.23 488.562 2710.6 469.144 2710.6ZM469.144 2699.96C482.045 2699.96 489.626 2690.11 489.626 2673.75C489.626 2657.4 482.045 2647.55 469.144 2647.55C456.11 2647.55 448.662 2657.4 448.662 2673.75C448.662 2690.11 456.11 2699.96 469.144 2699.96ZM520.962 2709V2699.16H539.316V2648.35H520.962V2638.51H548.626L549.424 2652.08C551.818 2642.9 557.537 2638.51 566.315 2638.51H580.812V2648.62H566.448C556.074 2648.62 550.488 2654.87 550.488 2666.44V2699.16H572.832V2709H520.962ZM639.014 2709C625.315 2709 618.665 2702.75 618.665 2689.58V2648.35H595.39V2638.51H618.665V2619.89H629.837V2638.51H657.9V2648.35H629.837V2689.58C629.837 2696.1 632.763 2699.16 639.014 2699.16H657.9V2709H639.014ZM1257.71 2633.99C1257.71 2621.49 1264.09 2614.57 1277.39 2614.57H1297.34V2624.41H1277.39C1271.81 2624.41 1268.88 2628.14 1268.88 2633.99V2638.51H1296.01V2648.35H1268.88V2709H1257.71V2648.35H1236.16V2638.51H1257.71V2633.99ZM1318.57 2709V2699.16H1336.93V2648.35H1318.57V2638.51H1346.24L1347.03 2652.08C1349.43 2642.9 1355.15 2638.51 1363.93 2638.51H1378.42V2648.62H1364.06C1353.68 2648.62 1348.1 2654.87 1348.1 2666.44V2699.16H1370.44V2709H1318.57ZM1426.25 2710.6C1406.7 2710.6 1394.06 2696.23 1394.06 2673.75C1394.06 2651.28 1406.7 2636.91 1426.25 2636.91C1445.67 2636.91 1458.44 2651.28 1458.44 2673.75C1458.44 2696.23 1445.67 2710.6 1426.25 2710.6ZM1426.25 2699.96C1439.15 2699.96 1446.73 2690.11 1446.73 2673.75C1446.73 2657.4 1439.15 2647.55 1426.25 2647.55C1413.22 2647.55 1405.77 2657.4 1405.77 2673.75C1405.77 2690.11 1413.22 2699.96 1426.25 2699.96ZM1471.42 2709V2638.51H1481.66L1481.93 2648.88C1484.32 2641.44 1489.24 2636.91 1495.89 2636.91C1503.21 2636.91 1507.59 2641.7 1509.19 2650.75C1511.45 2642.23 1516.9 2636.91 1524.35 2636.91C1535.66 2636.91 1540.58 2644.36 1540.58 2662.45V2709H1529.41V2663.78C1529.41 2651.28 1526.75 2646.76 1521.16 2646.76C1515.57 2646.76 1511.58 2652.08 1511.58 2664.05V2709H1500.41V2663.78C1500.41 2651.81 1498.02 2646.76 1492.17 2646.76C1486.58 2646.76 1482.59 2652.08 1482.59 2664.05V2709H1471.42ZM200.64 2891V2881.16H228.969V2830.35H201.97V2820.51H240.141V2881.16H264.48V2891H200.64ZM227.905 2809.47V2796.44H239.609V2809.47H227.905ZM275.068 2891V2820.51H285.309L285.575 2830.88C287.969 2823.44 292.89 2818.91 299.54 2818.91C306.855 2818.91 311.244 2823.7 312.84 2832.75C315.101 2824.23 320.554 2818.91 328.002 2818.91C339.307 2818.91 344.228 2826.36 344.228 2844.45V2891H333.056V2845.78C333.056 2833.28 330.396 2828.76 324.81 2828.76C319.224 2828.76 315.234 2834.08 315.234 2846.05V2891H304.062V2845.78C304.062 2833.81 301.668 2828.76 295.816 2828.76C290.23 2828.76 286.24 2834.08 286.24 2846.05V2891H275.068ZM360.136 2910.95V2820.51H370.51L370.643 2831.81C374.899 2823.44 382.746 2818.91 392.322 2818.91C413.336 2818.91 422.646 2836.34 422.646 2855.75C422.646 2875.17 413.336 2892.6 392.322 2892.6C383.145 2892.6 375.032 2888.47 371.308 2881.69V2910.95H360.136ZM391.258 2881.96C403.494 2881.96 410.942 2872.25 410.942 2855.75C410.942 2839.26 403.494 2829.55 391.258 2829.55C379.022 2829.55 371.308 2838.46 371.308 2855.75C371.308 2873.04 378.889 2881.96 391.258 2881.96ZM469.144 2892.6C449.593 2892.6 436.958 2878.23 436.958 2855.75C436.958 2833.28 449.593 2818.91 469.144 2818.91C488.562 2818.91 501.33 2833.28 501.33 2855.75C501.33 2878.23 488.562 2892.6 469.144 2892.6ZM469.144 2881.96C482.045 2881.96 489.626 2872.11 489.626 2855.75C489.626 2839.4 482.045 2829.55 469.144 2829.55C456.11 2829.55 448.662 2839.4 448.662 2855.75C448.662 2872.11 456.11 2881.96 469.144 2881.96ZM520.962 2891V2881.16H539.316V2830.35H520.962V2820.51H548.626L549.424 2834.08C551.818 2824.9 557.537 2820.51 566.315 2820.51H580.812V2830.62H566.448C556.074 2830.62 550.488 2836.87 550.488 2848.44V2881.16H572.832V2891H520.962ZM639.014 2891C625.315 2891 618.665 2884.75 618.665 2871.58V2830.35H595.39V2820.51H618.665V2801.89H629.837V2820.51H657.9V2830.35H629.837V2871.58C629.837 2878.1 632.763 2881.16 639.014 2881.16H657.9V2891H639.014ZM1257.71 2815.99C1257.71 2803.49 1264.09 2796.57 1277.39 2796.57H1297.34V2806.41H1277.39C1271.81 2806.41 1268.88 2810.14 1268.88 2815.99V2820.51H1296.01V2830.35H1268.88V2891H1257.71V2830.35H1236.16V2820.51H1257.71V2815.99ZM1318.57 2891V2881.16H1336.93V2830.35H1318.57V2820.51H1346.24L1347.03 2834.08C1349.43 2824.9 1355.15 2820.51 1363.93 2820.51H1378.42V2830.62H1364.06C1353.68 2830.62 1348.1 2836.87 1348.1 2848.44V2881.16H1370.44V2891H1318.57ZM1426.25 2892.6C1406.7 2892.6 1394.06 2878.23 1394.06 2855.75C1394.06 2833.28 1406.7 2818.91 1426.25 2818.91C1445.67 2818.91 1458.44 2833.28 1458.44 2855.75C1458.44 2878.23 1445.67 2892.6 1426.25 2892.6ZM1426.25 2881.96C1439.15 2881.96 1446.73 2872.11 1446.73 2855.75C1446.73 2839.4 1439.15 2829.55 1426.25 2829.55C1413.22 2829.55 1405.77 2839.4 1405.77 2855.75C1405.77 2872.11 1413.22 2881.96 1426.25 2881.96ZM1471.42 2891V2820.51H1481.66L1481.93 2830.88C1484.32 2823.44 1489.24 2818.91 1495.89 2818.91C1503.21 2818.91 1507.59 2823.7 1509.19 2832.75C1511.45 2824.23 1516.9 2818.91 1524.35 2818.91C1535.66 2818.91 1540.58 2826.36 1540.58 2844.45V2891H1529.41V2845.78C1529.41 2833.28 1526.75 2828.76 1521.16 2828.76C1515.57 2828.76 1511.58 2834.08 1511.58 2846.05V2891H1500.41V2845.78C1500.41 2833.81 1498.02 2828.76 1492.17 2828.76C1486.58 2828.76 1482.59 2834.08 1482.59 2846.05V2891H1471.42Z" fill="#1E754F"/>
<path d="M880.519 2709V2693.04H896.479V2709H880.519ZM939.704 2709V2693.04H955.664V2709H939.704ZM998.756 2709V2693.04H1014.72V2709H998.756ZM880.519 2891V2875.04H896.479V2891H880.519ZM939.704 2891V2875.04H955.664V2891H939.704ZM998.756 2891V2875.04H1014.72V2891H998.756Z" fill="#393A34"/>
<path d="M806.49 2721.64C792.392 2721.64 782.683 2712.19 782.683 2698.76V2687.72C782.683 2674.82 776.698 2669.37 760.871 2669.63V2658.59C776.698 2658.86 782.683 2653.41 782.683 2640.5V2629.47C782.683 2616.03 792.392 2606.59 806.49 2606.59H813.938V2616.96C798.51 2616.43 793.323 2619.89 793.323 2629.2V2641.44C793.323 2653.41 786.54 2662.05 777.097 2663.91V2664.05C786.806 2665.91 793.323 2674.69 793.323 2686.79V2699.02C793.323 2708.2 798.51 2711.66 813.938 2711.26V2721.64H806.49ZM1088.9 2721.64H1081.46V2711.26C1096.88 2711.66 1102.07 2708.2 1102.07 2699.02V2686.79C1102.07 2674.69 1108.59 2665.91 1118.3 2664.05V2663.91C1108.85 2662.05 1102.07 2653.41 1102.07 2641.44V2629.2C1102.07 2619.89 1096.88 2616.43 1081.46 2616.96V2606.59H1088.9C1103 2606.59 1112.71 2616.03 1112.71 2629.47V2640.5C1112.71 2653.41 1118.7 2658.86 1134.52 2658.59V2669.63C1118.7 2669.37 1112.71 2674.82 1112.71 2687.72V2698.76C1112.71 2712.19 1103 2721.64 1088.9 2721.64ZM2853.74 2657.66V2641.7H2869.7V2657.66H2853.74ZM2854.67 2729.75L2860.92 2709H2853.74V2693.04H2869.7V2707.14L2861.32 2729.75H2854.67ZM806.49 2903.64C792.392 2903.64 782.683 2894.19 782.683 2880.76V2869.72C782.683 2856.82 776.698 2851.37 760.871 2851.63V2840.59C776.698 2840.86 782.683 2835.41 782.683 2822.5V2811.47C782.683 2798.03 792.392 2788.59 806.49 2788.59H813.938V2798.96C798.51 2798.43 793.323 2801.89 793.323 2811.2V2823.44C793.323 2835.41 786.54 2844.05 777.097 2845.91V2846.05C786.806 2847.91 793.323 2856.69 793.323 2868.79V2881.02C793.323 2890.2 798.51 2893.66 813.938 2893.26V2903.64H806.49ZM1088.9 2903.64H1081.46V2893.26C1096.88 2893.66 1102.07 2890.2 1102.07 2881.02V2868.79C1102.07 2856.69 1108.59 2847.91 1118.3 2846.05V2845.91C1108.85 2844.05 1102.07 2835.41 1102.07 2823.44V2811.2C1102.07 2801.89 1096.88 2798.43 1081.46 2798.96V2788.59H1088.9C1103 2788.59 1112.71 2798.03 1112.71 2811.47V2822.5C1112.71 2835.41 1118.7 2840.86 1134.52 2840.59V2851.63C1118.7 2851.37 1112.71 2856.82 1112.71 2869.72V2880.76C1112.71 2894.19 1103 2903.64 1088.9 2903.64ZM2853.74 2839.66V2823.7H2869.7V2839.66H2853.74ZM2854.67 2911.75L2860.92 2891H2853.74V2875.04H2869.7V2889.14L2861.32 2911.75H2854.67Z" fill="#999999"/>
<path d="M1661.5 2658.06L1659.64 2624.68V2614.57H1671.35V2624.68L1669.48 2658.06H1661.5ZM2777.98 2658.06L2776.12 2624.68V2614.57H2787.82V2624.68L2785.96 2658.06H2777.98ZM1661.5 2840.06L1659.64 2806.68V2796.57H1671.35V2806.68L1669.48 2840.06H1661.5ZM2777.98 2840.06L2776.12 2806.68V2796.57H2787.82V2806.68L2785.96 2840.06H2777.98Z" fill="#B56959" fill-opacity="0.6"/>
<path d="M1762.67 2712.86C1755.48 2716.58 1748.57 2718.31 1741.78 2718.31C1723.16 2718.31 1708.27 2701.82 1708.27 2672.42C1708.27 2644.49 1721.83 2614.57 1750.03 2614.57C1769.18 2614.57 1782.22 2634.12 1782.22 2662.18C1782.22 2682.53 1774.24 2698.09 1763.73 2698.09C1758.54 2698.09 1754.15 2694.37 1752.42 2687.19C1749.76 2693.84 1744.98 2698.23 1738.73 2698.23C1729.81 2698.23 1723.83 2689.45 1723.83 2676.28C1723.83 2662.85 1730.35 2642.63 1744.31 2642.63C1748.83 2642.63 1752.42 2645.03 1753.89 2648.62L1754.29 2643.83H1764L1761.6 2674.42C1760.8 2684.66 1761.87 2689.58 1765.06 2689.58C1769.45 2689.58 1772.51 2680.14 1772.51 2662.85C1772.51 2639.97 1763.46 2624.28 1749.76 2624.28C1727.95 2624.28 1717.98 2649.55 1717.98 2672.29C1717.98 2696.63 1728.22 2709.13 1742.18 2709.13C1747.37 2709.13 1752.96 2707.4 1758.68 2704.21L1762.67 2712.86ZM1741.78 2689.85C1750.56 2689.85 1752.56 2670.96 1752.56 2664.58C1752.56 2655.67 1750.03 2649.95 1745.51 2649.95C1737.4 2649.95 1734.34 2667.1 1734.34 2674.69C1734.34 2683.86 1737.13 2689.85 1741.78 2689.85ZM1790.41 2709V2638.51H1800.65L1800.92 2648.88C1803.31 2641.44 1808.23 2636.91 1814.88 2636.91C1822.2 2636.91 1826.59 2641.7 1828.18 2650.75C1830.44 2642.23 1835.9 2636.91 1843.34 2636.91C1854.65 2636.91 1859.57 2644.36 1859.57 2662.45V2709H1848.4V2663.78C1848.4 2651.28 1845.74 2646.76 1840.15 2646.76C1834.57 2646.76 1830.58 2652.08 1830.58 2664.05V2709H1819.4V2663.78C1819.4 2651.81 1817.01 2646.76 1811.16 2646.76C1805.57 2646.76 1801.58 2652.08 1801.58 2664.05V2709H1790.41ZM1883.19 2728.95V2719.11H1891.31C1896.23 2719.11 1898.22 2717.65 1899.55 2714.32L1902.08 2707.67H1898.22L1872.02 2638.51H1884.26L1905.67 2697.3L1925.75 2638.51H1937.99L1909.39 2717.91C1906.73 2725.49 1901.81 2728.95 1892.37 2728.95H1883.19ZM1964.54 2675.48V2665.11H2004.44V2675.48H1964.54ZM2064.23 2710.6C2044.68 2710.6 2032.05 2696.23 2032.05 2673.75C2032.05 2651.28 2044.68 2636.91 2064.23 2636.91C2083.65 2636.91 2096.42 2651.28 2096.42 2673.75C2096.42 2696.23 2083.65 2710.6 2064.23 2710.6ZM2064.23 2699.96C2077.14 2699.96 2084.72 2690.11 2084.72 2673.75C2084.72 2657.4 2077.14 2647.55 2064.23 2647.55C2051.2 2647.55 2043.75 2657.4 2043.75 2673.75C2043.75 2690.11 2051.2 2699.96 2064.23 2699.96ZM2116.05 2709V2699.16H2134.41V2648.35H2116.05V2638.51H2143.72L2144.52 2652.08C2146.91 2642.9 2152.63 2638.51 2161.41 2638.51H2175.9V2648.62H2161.54C2151.17 2648.62 2145.58 2654.87 2145.58 2666.44V2699.16H2167.92V2709H2116.05ZM2223.33 2730.55C2208.17 2730.55 2196.73 2722.43 2193.81 2710.06L2205.51 2709.27C2207.64 2715.92 2212.43 2719.91 2223.33 2719.91C2236.1 2719.91 2243.15 2714.85 2243.15 2704.48V2693.04C2239.69 2700.49 2231.71 2705.28 2222.53 2705.28C2204.58 2705.28 2191.81 2691.18 2191.81 2671.09C2191.81 2651.01 2204.31 2636.91 2222 2636.91C2231.84 2636.91 2240.49 2641.84 2243.68 2649.68V2638.51H2254.32V2704.21C2254.32 2720.7 2242.75 2730.55 2223.33 2730.55ZM2223.07 2694.64C2235.17 2694.64 2243.02 2685.59 2243.15 2671.09C2243.42 2656.6 2235.3 2647.55 2223.07 2647.55C2210.7 2647.55 2203.52 2656.6 2203.52 2671.09C2203.52 2685.59 2210.96 2694.64 2223.07 2694.64ZM2277.94 2723.63L2318.38 2609.25H2329.02L2288.58 2723.63H2277.94ZM2382.3 2633.46C2382.3 2627.74 2378.97 2624.41 2373.25 2624.41H2356.63V2614.57H2373.78C2386.69 2614.57 2393.47 2621.35 2393.47 2634.25V2699.16H2417.81V2709H2353.97V2699.16H2382.3V2633.46ZM2433.72 2709V2699.16H2462.04V2648.35H2435.05V2638.51H2473.22V2699.16H2497.56V2709H2433.72ZM2460.98 2627.47V2614.44H2472.68V2627.47H2460.98ZM2545.78 2710.6C2535.94 2710.6 2527.96 2706.07 2523.97 2698.36L2523.57 2709H2513.46V2614.57H2524.64V2648.35C2528.09 2642.5 2535.94 2636.91 2545.78 2636.91C2564.4 2636.91 2575.97 2651.14 2575.97 2673.75C2575.97 2696.36 2564.4 2710.6 2545.78 2710.6ZM2545.12 2699.96C2556.95 2699.96 2564.27 2689.85 2564.27 2673.75C2564.27 2657.4 2556.95 2647.55 2545.38 2647.55C2532.35 2647.55 2524.64 2657.4 2524.64 2673.75C2524.64 2689.85 2532.35 2699.96 2545.12 2699.96ZM2602.52 2675.48V2665.11H2642.42V2675.48H2602.52ZM2692.91 2710.6C2679.61 2710.6 2669.5 2702.88 2669.5 2691.44C2669.5 2679.47 2676.42 2673.22 2691.85 2670.16L2715.52 2665.38C2715.52 2653.41 2709.93 2647.55 2699.83 2647.55C2689.98 2647.55 2684.8 2652.08 2682.67 2660.19L2670.83 2659.26C2673.49 2645.96 2683.87 2636.91 2699.83 2636.91C2716.85 2636.91 2726.69 2647.82 2726.69 2665.64V2694.9C2726.69 2698.09 2728.02 2699.16 2730.95 2699.16H2735.47V2709C2734.41 2709.13 2731.75 2709.27 2729.62 2709.27C2721.9 2709.27 2717.38 2706.21 2715.92 2699.02C2712.06 2705.94 2703.02 2710.6 2692.91 2710.6ZM2693.97 2700.75C2708.34 2700.75 2715.52 2692.77 2715.52 2681.07V2674.95L2693.97 2679.21C2684.4 2681.07 2681.21 2684.53 2681.21 2690.38C2681.21 2697.03 2685.99 2700.75 2693.97 2700.75ZM1762.67 2894.86C1755.48 2898.58 1748.57 2900.31 1741.78 2900.31C1723.16 2900.31 1708.27 2883.82 1708.27 2854.42C1708.27 2826.49 1721.83 2796.57 1750.03 2796.57C1769.18 2796.57 1782.22 2816.12 1782.22 2844.18C1782.22 2864.53 1774.24 2880.09 1763.73 2880.09C1758.54 2880.09 1754.15 2876.37 1752.42 2869.19C1749.76 2875.84 1744.98 2880.23 1738.73 2880.23C1729.81 2880.23 1723.83 2871.45 1723.83 2858.28C1723.83 2844.85 1730.35 2824.63 1744.31 2824.63C1748.83 2824.63 1752.42 2827.03 1753.89 2830.62L1754.29 2825.83H1764L1761.6 2856.42C1760.8 2866.66 1761.87 2871.58 1765.06 2871.58C1769.45 2871.58 1772.51 2862.14 1772.51 2844.85C1772.51 2821.97 1763.46 2806.28 1749.76 2806.28C1727.95 2806.28 1717.98 2831.55 1717.98 2854.29C1717.98 2878.63 1728.22 2891.13 1742.18 2891.13C1747.37 2891.13 1752.96 2889.4 1758.68 2886.21L1762.67 2894.86ZM1741.78 2871.85C1750.56 2871.85 1752.56 2852.96 1752.56 2846.58C1752.56 2837.67 1750.03 2831.95 1745.51 2831.95C1737.4 2831.95 1734.34 2849.1 1734.34 2856.69C1734.34 2865.86 1737.13 2871.85 1741.78 2871.85ZM1790.41 2891V2820.51H1800.65L1800.92 2830.88C1803.31 2823.44 1808.23 2818.91 1814.88 2818.91C1822.2 2818.91 1826.59 2823.7 1828.18 2832.75C1830.44 2824.23 1835.9 2818.91 1843.34 2818.91C1854.65 2818.91 1859.57 2826.36 1859.57 2844.45V2891H1848.4V2845.78C1848.4 2833.28 1845.74 2828.76 1840.15 2828.76C1834.57 2828.76 1830.58 2834.08 1830.58 2846.05V2891H1819.4V2845.78C1819.4 2833.81 1817.01 2828.76 1811.16 2828.76C1805.57 2828.76 1801.58 2834.08 1801.58 2846.05V2891H1790.41ZM1883.19 2910.95V2901.11H1891.31C1896.23 2901.11 1898.22 2899.65 1899.55 2896.32L1902.08 2889.67H1898.22L1872.02 2820.51H1884.26L1905.67 2879.3L1925.75 2820.51H1937.99L1909.39 2899.91C1906.73 2907.49 1901.81 2910.95 1892.37 2910.95H1883.19ZM1964.54 2857.48V2847.11H2004.44V2857.48H1964.54ZM2064.23 2892.6C2044.68 2892.6 2032.05 2878.23 2032.05 2855.75C2032.05 2833.28 2044.68 2818.91 2064.23 2818.91C2083.65 2818.91 2096.42 2833.28 2096.42 2855.75C2096.42 2878.23 2083.65 2892.6 2064.23 2892.6ZM2064.23 2881.96C2077.14 2881.96 2084.72 2872.11 2084.72 2855.75C2084.72 2839.4 2077.14 2829.55 2064.23 2829.55C2051.2 2829.55 2043.75 2839.4 2043.75 2855.75C2043.75 2872.11 2051.2 2881.96 2064.23 2881.96ZM2116.05 2891V2881.16H2134.41V2830.35H2116.05V2820.51H2143.72L2144.52 2834.08C2146.91 2824.9 2152.63 2820.51 2161.41 2820.51H2175.9V2830.62H2161.54C2151.17 2830.62 2145.58 2836.87 2145.58 2848.44V2881.16H2167.92V2891H2116.05ZM2223.33 2912.55C2208.17 2912.55 2196.73 2904.43 2193.81 2892.06L2205.51 2891.27C2207.64 2897.92 2212.43 2901.91 2223.33 2901.91C2236.1 2901.91 2243.15 2896.85 2243.15 2886.48V2875.04C2239.69 2882.49 2231.71 2887.28 2222.53 2887.28C2204.58 2887.28 2191.81 2873.18 2191.81 2853.09C2191.81 2833.01 2204.31 2818.91 2222 2818.91C2231.84 2818.91 2240.49 2823.84 2243.68 2831.68V2820.51H2254.32V2886.21C2254.32 2902.7 2242.75 2912.55 2223.33 2912.55ZM2223.07 2876.64C2235.17 2876.64 2243.02 2867.59 2243.15 2853.09C2243.42 2838.6 2235.3 2829.55 2223.07 2829.55C2210.7 2829.55 2203.52 2838.6 2203.52 2853.09C2203.52 2867.59 2210.96 2876.64 2223.07 2876.64ZM2277.94 2905.63L2318.38 2791.25H2329.02L2288.58 2905.63H2277.94ZM2382.3 2815.46C2382.3 2809.74 2378.97 2806.41 2373.25 2806.41H2356.63V2796.57H2373.78C2386.69 2796.57 2393.47 2803.35 2393.47 2816.25V2881.16H2417.81V2891H2353.97V2881.16H2382.3V2815.46ZM2433.72 2891V2881.16H2462.04V2830.35H2435.05V2820.51H2473.22V2881.16H2497.56V2891H2433.72ZM2460.98 2809.47V2796.44H2472.68V2809.47H2460.98ZM2545.78 2892.6C2535.94 2892.6 2527.96 2888.07 2523.97 2880.36L2523.57 2891H2513.46V2796.57H2524.64V2830.35C2528.09 2824.5 2535.94 2818.91 2545.78 2818.91C2564.4 2818.91 2575.97 2833.14 2575.97 2855.75C2575.97 2878.36 2564.4 2892.6 2545.78 2892.6ZM2545.12 2881.96C2556.95 2881.96 2564.27 2871.85 2564.27 2855.75C2564.27 2839.4 2556.95 2829.55 2545.38 2829.55C2532.35 2829.55 2524.64 2839.4 2524.64 2855.75C2524.64 2871.85 2532.35 2881.96 2545.12 2881.96ZM2602.52 2857.48V2847.11H2642.42V2857.48H2602.52ZM2705.28 2892.6C2695.44 2892.6 2687.46 2888.07 2683.47 2880.36L2683.07 2891H2672.96V2796.57H2684.13V2830.35C2687.59 2824.5 2695.44 2818.91 2705.28 2818.91C2723.9 2818.91 2735.47 2833.14 2735.47 2855.75C2735.47 2878.36 2723.9 2892.6 2705.28 2892.6ZM2704.61 2881.96C2716.45 2881.96 2723.77 2871.85 2723.77 2855.75C2723.77 2839.4 2716.45 2829.55 2704.88 2829.55C2691.85 2829.55 2684.13 2839.4 2684.13 2855.75C2684.13 2871.85 2691.85 2881.96 2704.61 2881.96Z" fill="#B56959"/>
<path d="M1533.33 2468.67C1539.78 2475.11 1550.22 2475.11 1556.67 2468.67L1661.67 2363.66C1668.12 2357.22 1668.12 2346.77 1661.67 2340.33C1655.23 2333.88 1644.78 2333.88 1638.34 2340.33L1545 2433.67L1451.66 2340.33C1445.22 2333.88 1434.77 2333.88 1428.33 2340.33C1421.88 2346.77 1421.88 2357.22 1428.33 2363.66L1533.33 2468.67ZM1561.5 2192C1561.5 2182.89 1554.11 2175.5 1545 2175.5C1535.89 2175.5 1528.5 2182.89 1528.5 2192L1561.5 2192ZM1561.5 2457L1561.5 2192L1528.5 2192L1528.5 2457L1561.5 2457Z" fill="#999999"/>
</svg>
