<svg width="1749" height="1290" viewBox="0 0 1749 1290" fill="none" xmlns="http://www.w3.org/2000/svg">
<path d="M77.42 347.55C67.88 347.55 61.31 341.16 61.31 332.07V324.6C61.31 315.87 57.26 312.18 46.55 312.36V304.89C57.26 305.07 61.31 301.38 61.31 292.65V285.18C61.31 276.09 67.88 269.7 77.42 269.7H82.46V276.72C72.02 276.36 68.51 278.7 68.51 285V293.28C68.51 301.38 63.92 307.23 57.53 308.49V308.58C64.1 309.84 68.51 315.78 68.51 323.97V332.25C68.51 338.46 72.02 340.8 82.46 340.53V347.55H77.42ZM942.658 482.1H916.648V404.7H942.658V411.72H923.848V475.08H942.658V482.1ZM293.279 617.55C283.739 617.55 277.169 611.16 277.169 602.07V594.6C277.169 585.87 273.119 582.18 262.409 582.36V574.89C273.119 575.07 277.169 571.38 277.169 562.65V555.18C277.169 546.09 283.739 539.7 293.279 539.7H298.319V546.72C287.879 546.36 284.369 548.7 284.369 555V563.28C284.369 571.38 279.779 577.23 273.389 578.49V578.58C279.959 579.84 284.369 585.78 284.369 593.97V602.25C284.369 608.46 287.879 610.8 298.319 610.53V617.55H293.279ZM707.178 609V598.2H717.978V609H707.178ZM707.178 574.26V563.46H717.978V574.26H707.178ZM1617.56 617.55H1612.52V610.53C1622.96 610.8 1626.47 608.46 1626.47 602.25V593.97C1626.47 585.78 1630.88 579.84 1637.45 578.58V578.49C1631.06 577.23 1626.47 571.38 1626.47 563.28V555C1626.47 548.7 1622.96 546.36 1612.52 546.72V539.7H1617.56C1627.1 539.7 1633.67 546.09 1633.67 555.18V562.65C1633.67 571.38 1637.72 575.07 1648.43 574.89V582.36C1637.72 582.18 1633.67 585.87 1633.67 594.6V602.07C1633.67 611.16 1627.1 617.55 1617.56 617.55ZM1679.18 623.04L1683.41 609H1678.55V598.2H1689.35V607.74L1683.68 623.04H1679.18ZM293.279 752.55C283.739 752.55 277.169 746.16 277.169 737.07V729.6C277.169 720.87 273.119 717.18 262.409 717.36V709.89C273.119 710.07 277.169 706.38 277.169 697.65V690.18C277.169 681.09 283.739 674.7 293.279 674.7H298.319V681.72C287.879 681.36 284.369 683.7 284.369 690V698.28C284.369 706.38 279.779 712.23 273.389 713.49V713.58C279.959 714.84 284.369 720.78 284.369 728.97V737.25C284.369 743.46 287.879 745.8 298.319 745.53V752.55H293.279ZM707.178 744V733.2H717.978V744H707.178ZM707.178 709.26V698.46H717.978V709.26H707.178ZM1617.56 752.55H1612.52V745.53C1622.96 745.8 1626.47 743.46 1626.47 737.25V728.97C1626.47 720.78 1630.88 714.84 1637.45 713.58V713.49C1631.06 712.23 1626.47 706.38 1626.47 698.28V690C1626.47 683.7 1622.96 681.36 1612.52 681.72V674.7H1617.56C1627.1 674.7 1633.67 681.09 1633.67 690.18V697.65C1633.67 706.38 1637.72 710.07 1648.43 709.89V717.36C1637.72 717.18 1633.67 720.87 1633.67 729.6V737.07C1633.67 746.16 1627.1 752.55 1617.56 752.55ZM158.71 887.1V880.08H177.52V816.72H158.71V809.7H184.72V887.1H158.71ZM52.58 1022.55H47.54V1015.53C57.98 1015.8 61.49 1013.46 61.49 1007.25V998.97C61.49 990.78 65.9 984.84 72.47 983.58V983.49C66.08 982.23 61.49 976.38 61.49 968.28V960C61.49 953.7 57.98 951.36 47.54 951.72V944.7H52.58C62.12 944.7 68.69 951.09 68.69 960.18V967.65C68.69 976.38 72.74 980.07 83.45 979.89V987.36C72.74 987.18 68.69 990.87 68.69 999.6V1007.07C68.69 1016.16 62.12 1022.55 52.58 1022.55Z" fill="#999999"/>
<path d="M815.108 474V463.2H825.908V474H815.108ZM815.108 439.26V428.46H825.908V439.26H815.108Z" fill="#393A34"/>
<path d="M176.98 439.53L176.62 410.1H184.54V417.3L182.47 439.53H176.98ZM163.39 439.53L161.32 417.3V410.1H169.24L168.88 439.53H163.39ZM770.593 439.53L770.233 410.1H778.153V417.3L776.083 439.53H770.593ZM757.003 439.53L754.933 417.3V410.1H762.853L762.493 439.53H757.003ZM392.839 574.53L392.479 545.1H400.399V552.3L398.329 574.53H392.839ZM379.249 574.53L377.179 552.3V545.1H385.099L384.739 574.53H379.249ZM662.663 574.53L662.303 545.1H670.223V552.3L668.153 574.53H662.663ZM649.073 574.53L647.003 552.3V545.1H654.923L654.563 574.53H649.073ZM824.558 574.53L824.198 545.1H832.118V552.3L830.048 574.53H824.558ZM810.968 574.53L808.898 552.3V545.1H816.818L816.458 574.53H810.968ZM1526.1 574.53L1525.74 545.1H1533.66V552.3L1531.59 574.53H1526.1ZM1512.51 574.53L1510.44 552.3V545.1H1518.36L1518 574.53H1512.51ZM392.839 709.53L392.479 680.1H400.399V687.3L398.329 709.53H392.839ZM379.249 709.53L377.179 687.3V680.1H385.099L384.739 709.53H379.249ZM662.663 709.53L662.303 680.1H670.223V687.3L668.153 709.53H662.663ZM649.073 709.53L647.003 687.3V680.1H654.923L654.563 709.53H649.073ZM824.558 709.53L824.198 680.1H832.118V687.3L830.048 709.53H824.558ZM810.968 709.53L808.898 687.3V680.1H816.818L816.458 709.53H810.968ZM1526.1 709.53L1525.74 680.1H1533.66V687.3L1531.59 709.53H1526.1ZM1512.51 709.53L1510.44 687.3V680.1H1518.36L1518 709.53H1512.51Z" fill="#B56959" fill-opacity="0.6"/>
<path d="M207.995 474V467.34H220.415V432.96H207.995V426.3H226.715L227.255 435.48C228.875 429.27 232.745 426.3 238.685 426.3H248.495V433.14H238.775C231.755 433.14 227.975 437.37 227.975 445.2V467.34H243.095V474H207.995ZM281.669 475.08C268.169 475.08 259.799 465.27 259.799 450.15C259.799 435.03 268.169 425.22 281.309 425.22C293.729 425.22 302.459 434.22 302.459 450.24V452.49H267.719C268.259 462.75 273.389 467.88 281.669 467.88C287.879 467.88 291.929 464.73 293.549 459.87L301.649 460.5C299.129 469.05 291.749 475.08 281.669 475.08ZM294.179 445.83C293.459 436.65 288.329 432.42 281.309 432.42C273.929 432.42 268.979 437.01 267.719 445.83H294.179ZM328.704 423.24C328.704 414.78 333.024 410.1 342.024 410.1H355.524V416.76H342.024C338.244 416.76 336.264 419.28 336.264 423.24V426.3H354.624V432.96H336.264V474H328.704V432.96H314.124V426.3H328.704V423.24ZM389.599 475.08C376.099 475.08 367.729 465.27 367.729 450.15C367.729 435.03 376.099 425.22 389.239 425.22C401.659 425.22 410.389 434.22 410.389 450.24V452.49H375.649C376.189 462.75 381.319 467.88 389.599 467.88C395.809 467.88 399.859 464.73 401.479 459.87L409.579 460.5C407.059 469.05 399.679 475.08 389.599 475.08ZM402.109 445.83C401.389 436.65 396.259 432.42 389.239 432.42C381.859 432.42 376.909 437.01 375.649 445.83H402.109ZM423.854 474V467.34H436.274V432.96H423.854V426.3H442.574L443.114 435.48C444.734 429.27 448.604 426.3 454.544 426.3H464.354V433.14H454.634C447.614 433.14 443.834 437.37 443.834 445.2V467.34H458.954V474H423.854ZM497.529 475.08C484.029 475.08 475.659 465.27 475.659 450.15C475.659 435.03 484.029 425.22 497.169 425.22C509.589 425.22 518.319 434.22 518.319 450.24V452.49H483.579C484.119 462.75 489.249 467.88 497.529 467.88C503.739 467.88 507.789 464.73 509.409 459.87L517.509 460.5C514.989 469.05 507.609 475.08 497.529 475.08ZM510.039 445.83C509.319 436.65 504.189 432.42 497.169 432.42C489.789 432.42 484.839 437.01 483.579 445.83H510.039ZM532.324 474V426.3H539.254L539.434 434.85C541.954 428.28 547.534 425.22 554.104 425.22C564.994 425.22 570.124 433.23 570.124 443.31V474H562.564V445.47C562.564 436.65 559.684 431.88 552.484 431.88C545.104 431.88 539.884 436.65 539.884 445.47V474H532.324ZM605.908 475.08C592.588 475.08 583.948 465.27 583.948 450.15C583.948 435.03 592.588 425.22 605.908 425.22C616.528 425.22 623.908 431.16 625.888 441.78L617.968 442.32C616.528 436.02 612.028 432.42 605.908 432.42C597.088 432.42 591.868 439.08 591.868 450.15C591.868 461.22 597.088 467.88 605.908 467.88C612.028 467.88 616.888 464.28 618.328 457.08L626.248 457.62C624.268 468.24 616.528 475.08 605.908 475.08ZM659.423 475.08C645.923 475.08 637.553 465.27 637.553 450.15C637.553 435.03 645.923 425.22 659.063 425.22C671.483 425.22 680.213 434.22 680.213 450.24V452.49H645.473C646.013 462.75 651.143 467.88 659.423 467.88C665.633 467.88 669.683 464.73 671.303 459.87L679.403 460.5C676.883 469.05 669.503 475.08 659.423 475.08ZM671.933 445.83C671.213 436.65 666.083 432.42 659.063 432.42C651.683 432.42 646.733 437.01 645.473 445.83H671.933ZM713.478 475.08C701.058 475.08 693.498 467.97 692.778 458.97L700.698 458.43C701.598 464.37 705.918 467.88 713.478 467.88C720.498 467.88 724.638 465.9 724.638 461.58C724.638 457.44 722.478 455.82 712.038 454.02C698.178 451.59 694.038 447.36 694.038 439.62C694.038 431.34 700.428 425.22 712.128 425.22C723.918 425.22 730.038 432.24 731.478 440.52L723.558 441.06C722.478 436.02 718.518 432.42 712.038 432.42C705.018 432.42 701.778 435.57 701.778 439.62C701.778 444.48 705.018 445.92 713.658 447.36C728.418 449.79 732.378 453.66 732.378 461.58C732.378 470.04 724.278 475.08 713.478 475.08ZM422.954 622.5V561.3H429.974L430.064 568.95C432.944 563.28 438.254 560.22 444.734 560.22C458.954 560.22 465.254 572.01 465.254 585.15C465.254 598.29 458.954 610.08 444.734 610.08C438.524 610.08 433.034 607.29 430.514 602.7V622.5H422.954ZM444.014 602.88C452.294 602.88 457.334 596.31 457.334 585.15C457.334 573.99 452.294 567.42 444.014 567.42C435.734 567.42 430.514 573.45 430.514 585.15C430.514 596.85 435.644 602.88 444.014 602.88ZM490.419 610.08C481.419 610.08 474.579 604.86 474.579 597.12C474.579 589.02 479.259 584.79 489.699 582.72L505.719 579.48C505.719 571.38 501.939 567.42 495.099 567.42C488.439 567.42 484.929 570.48 483.489 575.97L475.479 575.34C477.279 566.34 484.299 560.22 495.099 560.22C506.619 560.22 513.279 567.6 513.279 579.66V599.46C513.279 601.62 514.179 602.34 516.159 602.34H519.219V609C518.499 609.09 516.699 609.18 515.259 609.18C510.039 609.18 506.979 607.11 505.989 602.25C503.379 606.93 497.259 610.08 490.419 610.08ZM491.139 603.42C500.859 603.42 505.719 598.02 505.719 590.1V585.96L491.139 588.84C484.659 590.1 482.499 592.44 482.499 596.4C482.499 600.9 485.739 603.42 491.139 603.42ZM557.704 609C548.434 609 543.934 604.77 543.934 595.86V567.96H528.184V561.3H543.934V548.7H551.494V561.3H570.484V567.96H551.494V595.86C551.494 600.27 553.474 602.34 557.704 602.34H570.484V609H557.704ZM586.648 609V545.1H594.208V568.77C596.638 562.92 602.038 560.22 608.518 560.22C618.778 560.22 624.448 567.69 624.448 578.31V609H616.888V580.47C616.888 571.29 613.558 566.88 606.898 566.88C599.248 566.88 594.208 571.74 594.208 580.56V609H586.648ZM869.073 609V598.2H879.873V609H869.073ZM911.158 618.9L938.518 541.5H945.718L918.358 618.9H911.158ZM981.772 557.88C981.772 554.01 979.522 551.76 975.652 551.76H964.402V545.1H976.012C984.742 545.1 989.332 549.69 989.332 558.42V602.34H1005.8V609H962.602V602.34H981.772V557.88ZM1016.57 609V602.34H1035.74V567.96H1017.47V561.3H1043.3V602.34H1059.77V609H1016.57ZM1035.02 553.83V545.01H1042.94V553.83H1035.02ZM1092.4 610.08C1085.74 610.08 1080.34 607.02 1077.64 601.8L1077.37 609H1070.53V545.1H1078.09V567.96C1080.43 564 1085.74 560.22 1092.4 560.22C1105 560.22 1112.83 569.85 1112.83 585.15C1112.83 600.45 1105 610.08 1092.4 610.08ZM1091.95 602.88C1099.96 602.88 1104.91 596.04 1104.91 585.15C1104.91 574.08 1099.96 567.42 1092.13 567.42C1083.31 567.42 1078.09 574.08 1078.09 585.15C1078.09 596.04 1083.31 602.88 1091.95 602.88ZM1145.2 610.08C1132.78 610.08 1125.22 602.97 1124.5 593.97L1132.42 593.43C1133.32 599.37 1137.64 602.88 1145.2 602.88C1152.22 602.88 1156.36 600.9 1156.36 596.58C1156.36 592.44 1154.2 590.82 1143.76 589.02C1129.9 586.59 1125.76 582.36 1125.76 574.62C1125.76 566.34 1132.15 560.22 1143.85 560.22C1155.64 560.22 1161.76 567.24 1163.2 575.52L1155.28 576.06C1154.2 571.02 1150.24 567.42 1143.76 567.42C1136.74 567.42 1133.5 570.57 1133.5 574.62C1133.5 579.48 1136.74 580.92 1145.38 582.36C1160.14 584.79 1164.1 588.66 1164.1 596.58C1164.1 605.04 1156 610.08 1145.2 610.08ZM1180.98 618.9L1208.34 541.5H1215.54L1188.18 618.9H1180.98ZM1251.6 557.88C1251.6 554.01 1249.35 551.76 1245.48 551.76H1234.23V545.1H1245.84C1254.57 545.1 1259.16 549.69 1259.16 558.42V602.34H1275.63V609H1232.43V602.34H1251.6V557.88ZM1286.39 609V602.34H1305.56V567.96H1287.29V561.3H1313.12V602.34H1329.59V609H1286.39ZM1304.84 553.83V545.01H1312.76V553.83H1304.84ZM1362.23 610.08C1355.57 610.08 1350.17 607.02 1347.47 601.8L1347.2 609H1340.36V545.1H1347.92V567.96C1350.26 564 1355.57 560.22 1362.23 560.22C1374.83 560.22 1382.66 569.85 1382.66 585.15C1382.66 600.45 1374.83 610.08 1362.23 610.08ZM1361.78 602.88C1369.79 602.88 1374.74 596.04 1374.74 585.15C1374.74 574.08 1369.79 567.42 1361.96 567.42C1353.14 567.42 1347.92 574.08 1347.92 585.15C1347.92 596.04 1353.14 602.88 1361.78 602.88ZM1400.62 586.32V579.3H1427.62V586.32H1400.62ZM1461.79 610.08C1452.79 610.08 1445.95 604.86 1445.95 597.12C1445.95 589.02 1450.63 584.79 1461.07 582.72L1477.09 579.48C1477.09 571.38 1473.31 567.42 1466.47 567.42C1459.81 567.42 1456.3 570.48 1454.86 575.97L1446.85 575.34C1448.65 566.34 1455.67 560.22 1466.47 560.22C1477.99 560.22 1484.65 567.6 1484.65 579.66V599.46C1484.65 601.62 1485.55 602.34 1487.53 602.34H1490.59V609C1489.87 609.09 1488.07 609.18 1486.63 609.18C1481.41 609.18 1478.35 607.11 1477.36 602.25C1474.75 606.93 1468.63 610.08 1461.79 610.08ZM1462.51 603.42C1472.23 603.42 1477.09 598.02 1477.09 590.1V585.96L1462.51 588.84C1456.03 590.1 1453.87 592.44 1453.87 596.4C1453.87 600.9 1457.11 603.42 1462.51 603.42ZM422.954 757.5V696.3H429.974L430.064 703.95C432.944 698.28 438.254 695.22 444.734 695.22C458.954 695.22 465.254 707.01 465.254 720.15C465.254 733.29 458.954 745.08 444.734 745.08C438.524 745.08 433.034 742.29 430.514 737.7V757.5H422.954ZM444.014 737.88C452.294 737.88 457.334 731.31 457.334 720.15C457.334 708.99 452.294 702.42 444.014 702.42C435.734 702.42 430.514 708.45 430.514 720.15C430.514 731.85 435.644 737.88 444.014 737.88ZM490.419 745.08C481.419 745.08 474.579 739.86 474.579 732.12C474.579 724.02 479.259 719.79 489.699 717.72L505.719 714.48C505.719 706.38 501.939 702.42 495.099 702.42C488.439 702.42 484.929 705.48 483.489 710.97L475.479 710.34C477.279 701.34 484.299 695.22 495.099 695.22C506.619 695.22 513.279 702.6 513.279 714.66V734.46C513.279 736.62 514.179 737.34 516.159 737.34H519.219V744C518.499 744.09 516.699 744.18 515.259 744.18C510.039 744.18 506.979 742.11 505.989 737.25C503.379 741.93 497.259 745.08 490.419 745.08ZM491.139 738.42C500.859 738.42 505.719 733.02 505.719 725.1V720.96L491.139 723.84C484.659 725.1 482.499 727.44 482.499 731.4C482.499 735.9 485.739 738.42 491.139 738.42ZM557.704 744C548.434 744 543.934 739.77 543.934 730.86V702.96H528.184V696.3H543.934V683.7H551.494V696.3H570.484V702.96H551.494V730.86C551.494 735.27 553.474 737.34 557.704 737.34H570.484V744H557.704ZM586.648 744V680.1H594.208V703.77C596.638 697.92 602.038 695.22 608.518 695.22C618.778 695.22 624.448 702.69 624.448 713.31V744H616.888V715.47C616.888 706.29 613.558 701.88 606.898 701.88C599.248 701.88 594.208 706.74 594.208 715.56V744H586.648ZM869.073 744V733.2H879.873V744H869.073ZM911.158 753.9L938.518 676.5H945.718L918.358 753.9H911.158ZM981.772 692.88C981.772 689.01 979.522 686.76 975.652 686.76H964.402V680.1H976.012C984.742 680.1 989.332 684.69 989.332 693.42V737.34H1005.8V744H962.602V737.34H981.772V692.88ZM1016.57 744V737.34H1035.74V702.96H1017.47V696.3H1043.3V737.34H1059.77V744H1016.57ZM1035.02 688.83V680.01H1042.94V688.83H1035.02ZM1092.4 745.08C1085.74 745.08 1080.34 742.02 1077.64 736.8L1077.37 744H1070.53V680.1H1078.09V702.96C1080.43 699 1085.74 695.22 1092.4 695.22C1105 695.22 1112.83 704.85 1112.83 720.15C1112.83 735.45 1105 745.08 1092.4 745.08ZM1091.95 737.88C1099.96 737.88 1104.91 731.04 1104.91 720.15C1104.91 709.08 1099.96 702.42 1092.13 702.42C1083.31 702.42 1078.09 709.08 1078.09 720.15C1078.09 731.04 1083.31 737.88 1091.95 737.88ZM1145.2 745.08C1132.78 745.08 1125.22 737.97 1124.5 728.97L1132.42 728.43C1133.32 734.37 1137.64 737.88 1145.2 737.88C1152.22 737.88 1156.36 735.9 1156.36 731.58C1156.36 727.44 1154.2 725.82 1143.76 724.02C1129.9 721.59 1125.76 717.36 1125.76 709.62C1125.76 701.34 1132.15 695.22 1143.85 695.22C1155.64 695.22 1161.76 702.24 1163.2 710.52L1155.28 711.06C1154.2 706.02 1150.24 702.42 1143.76 702.42C1136.74 702.42 1133.5 705.57 1133.5 709.62C1133.5 714.48 1136.74 715.92 1145.38 717.36C1160.14 719.79 1164.1 723.66 1164.1 731.58C1164.1 740.04 1156 745.08 1145.2 745.08ZM1180.98 753.9L1208.34 676.5H1215.54L1188.18 753.9H1180.98ZM1251.6 692.88C1251.6 689.01 1249.35 686.76 1245.48 686.76H1234.23V680.1H1245.84C1254.57 680.1 1259.16 684.69 1259.16 693.42V737.34H1275.63V744H1232.43V737.34H1251.6V692.88ZM1286.39 744V737.34H1305.56V702.96H1287.29V696.3H1313.12V737.34H1329.59V744H1286.39ZM1304.84 688.83V680.01H1312.76V688.83H1304.84ZM1362.23 745.08C1355.57 745.08 1350.17 742.02 1347.47 736.8L1347.2 744H1340.36V680.1H1347.92V702.96C1350.26 699 1355.57 695.22 1362.23 695.22C1374.83 695.22 1382.66 704.85 1382.66 720.15C1382.66 735.45 1374.83 745.08 1362.23 745.08ZM1361.78 737.88C1369.79 737.88 1374.74 731.04 1374.74 720.15C1374.74 709.08 1369.79 702.42 1361.96 702.42C1353.14 702.42 1347.92 709.08 1347.92 720.15C1347.92 731.04 1353.14 737.88 1361.78 737.88ZM1400.62 721.32V714.3H1427.62V721.32H1400.62ZM1470.16 745.08C1463.5 745.08 1458.1 742.02 1455.4 736.8L1455.13 744H1448.29V680.1H1455.85V702.96C1458.19 699 1463.5 695.22 1470.16 695.22C1482.76 695.22 1490.59 704.85 1490.59 720.15C1490.59 735.45 1482.76 745.08 1470.16 745.08ZM1469.71 737.88C1477.72 737.88 1482.67 731.04 1482.67 720.15C1482.67 709.08 1477.72 702.42 1469.89 702.42C1461.07 702.42 1455.85 709.08 1455.85 720.15C1455.85 731.04 1461.07 737.88 1469.71 737.88Z" fill="#B56959"/>
</svg>
