<svg width="830" height="363" viewBox="0 0 830 363" fill="none" xmlns="http://www.w3.org/2000/svg">
<path d="M98.4298 124.626C92.9731 124.626 89.5899 120.66 89.5899 114.549C89.5899 108.437 92.9731 104.472 98.2842 104.472C103.304 104.472 106.833 108.11 106.833 114.585V115.495H92.7912C93.0094 119.642 95.083 121.715 98.4298 121.715C100.94 121.715 102.577 120.442 103.232 118.478L106.506 118.732C105.487 122.188 102.504 124.626 98.4298 124.626ZM103.486 112.803C103.195 109.092 101.122 107.382 98.2842 107.382C95.3012 107.382 93.3005 109.238 92.7912 112.803H103.486ZM110.966 124.189L118.06 114.294L111.33 104.909H114.895L119.951 112.184L124.899 104.909H128.536L121.843 114.367L128.864 124.189H125.299L119.951 116.404L114.604 124.189H110.966ZM133.724 129.646V104.909H136.562L136.598 108.001C137.762 105.709 139.909 104.472 142.528 104.472C148.276 104.472 150.822 109.238 150.822 114.549C150.822 119.86 148.276 124.626 142.528 124.626C140.018 124.626 137.799 123.498 136.78 121.643V129.646H133.724ZM142.237 121.715C145.584 121.715 147.621 119.06 147.621 114.549C147.621 110.038 145.584 107.382 142.237 107.382C138.89 107.382 136.78 109.82 136.78 114.549C136.78 119.278 138.854 121.715 142.237 121.715ZM163.54 124.626C158.192 124.626 154.737 120.697 154.737 114.549C154.737 108.401 158.192 104.472 163.54 104.472C168.851 104.472 172.344 108.401 172.344 114.549C172.344 120.697 168.851 124.626 163.54 124.626ZM163.54 121.715C167.069 121.715 169.142 119.023 169.142 114.549C169.142 110.074 167.069 107.382 163.54 107.382C159.975 107.382 157.938 110.074 157.938 114.549C157.938 119.023 159.975 121.715 163.54 121.715ZM177.713 124.189V121.497H182.733V107.601H177.713V104.909H185.28L185.498 108.619C186.153 106.109 187.717 104.909 190.118 104.909H194.083V107.673H190.154C187.317 107.673 185.789 109.383 185.789 112.548V121.497H191.901V124.189H177.713ZM210.003 124.189C206.256 124.189 204.437 122.479 204.437 118.878V107.601H198.071V104.909H204.437V99.8157H207.493V104.909H215.168V107.601H207.493V118.878C207.493 120.66 208.293 121.497 210.003 121.497H215.168V124.189H210.003ZM134.088 179.189V176.497H139.108V162.601H134.088V159.909H141.655L141.873 163.619C142.528 161.109 144.092 159.909 146.493 159.909H150.458V162.673H146.529C143.692 162.673 142.164 164.383 142.164 167.548V176.497H148.276V179.189H134.088ZM163.867 179.626C158.411 179.626 155.028 175.66 155.028 169.549C155.028 163.437 158.411 159.472 163.722 159.472C168.742 159.472 172.271 163.11 172.271 169.585V170.495H158.229C158.447 174.642 160.521 176.715 163.867 176.715C166.378 176.715 168.015 175.442 168.669 173.478L171.943 173.732C170.925 177.188 167.942 179.626 163.867 179.626ZM168.924 167.803C168.633 164.092 166.559 162.382 163.722 162.382C160.739 162.382 158.738 164.238 158.229 167.803H168.924ZM188.19 179.189C184.443 179.189 182.624 177.479 182.624 173.878V162.601H176.258V159.909H182.624V154.816H185.68V159.909H193.356V162.601H185.68V173.878C185.68 175.66 186.48 176.497 188.19 176.497H193.356V179.189H188.19ZM205.819 179.626C201.999 179.626 199.526 176.897 199.526 172.314V159.909H202.582V171.477C202.582 175.224 203.891 176.934 206.656 176.934C209.675 176.934 211.531 174.86 211.531 171.404V159.909H214.586V179.189H211.676V176.06C210.621 178.352 208.584 179.626 205.819 179.626ZM221.338 179.189V176.497H226.359V162.601H221.338V159.909H228.905L229.123 163.619C229.778 161.109 231.342 159.909 233.743 159.909H237.708V162.673H233.78C230.942 162.673 229.414 164.383 229.414 167.548V176.497H235.526V179.189H221.338ZM243.369 179.189V159.909H246.17L246.243 163.365C247.262 160.709 249.517 159.472 252.173 159.472C256.574 159.472 258.648 162.71 258.648 166.784V179.189H255.592V167.657C255.592 164.092 254.428 162.164 251.518 162.164C248.535 162.164 246.425 164.092 246.425 167.657V179.189H243.369Z" fill="#1E754F"/>
<path d="M248.317 103.672C248.317 100.252 250.063 98.3606 253.701 98.3606H259.157V101.053H253.701C252.173 101.053 251.372 102.071 251.372 103.672V104.909H258.793V107.601H251.372V124.189H248.317V107.601H242.423V104.909H248.317V103.672ZM271.257 124.626C267.437 124.626 264.963 121.897 264.963 117.314V104.909H268.019V116.477C268.019 120.224 269.329 121.934 272.094 121.934C275.113 121.934 276.968 119.86 276.968 116.404V104.909H280.024V124.189H277.114V121.06C276.059 123.352 274.022 124.626 271.257 124.626ZM286.994 124.189V104.909H289.795L289.868 108.365C290.887 105.709 293.142 104.472 295.798 104.472C300.199 104.472 302.273 107.71 302.273 111.784V124.189H299.217V112.657C299.217 109.092 298.053 107.164 295.143 107.164C292.16 107.164 290.05 109.092 290.05 112.657V124.189H286.994ZM316.737 124.626C311.353 124.626 307.861 120.66 307.861 114.549C307.861 108.437 311.353 104.472 316.737 104.472C321.03 104.472 324.013 106.873 324.813 111.166L321.612 111.384C321.03 108.837 319.211 107.382 316.737 107.382C313.172 107.382 311.062 110.074 311.062 114.549C311.062 119.023 313.172 121.715 316.737 121.715C319.211 121.715 321.175 120.26 321.757 117.35L324.959 117.568C324.158 121.861 321.03 124.626 316.737 124.626ZM340.878 124.189C337.131 124.189 335.312 122.479 335.312 118.878V107.601H328.946V104.909H335.312V99.8157H338.368V104.909H346.044V107.601H338.368V118.878C338.368 120.66 339.168 121.497 340.878 121.497H346.044V124.189H340.878ZM351.85 124.189V121.497H359.598V107.601H352.214V104.909H362.654V121.497H369.311V124.189H351.85ZM359.307 101.889V98.3242H362.509V101.889H359.307ZM381.666 124.626C376.318 124.626 372.862 120.697 372.862 114.549C372.862 108.401 376.318 104.472 381.666 104.472C386.977 104.472 390.469 108.401 390.469 114.549C390.469 120.697 386.977 124.626 381.666 124.626ZM381.666 121.715C385.194 121.715 387.268 119.023 387.268 114.549C387.268 110.074 385.194 107.382 381.666 107.382C378.101 107.382 376.063 110.074 376.063 114.549C376.063 119.023 378.101 121.715 381.666 121.715ZM396.057 124.189V104.909H398.858L398.931 108.365C399.95 105.709 402.205 104.472 404.861 104.472C409.262 104.472 411.336 107.71 411.336 111.784V124.189H408.28V112.657C408.28 109.092 407.116 107.164 404.206 107.164C401.223 107.164 399.113 109.092 399.113 112.657V124.189H396.057Z" fill="#AB5959"/>
<path d="M439.682 124.189V104.909H442.483L442.556 108.365C443.575 105.709 445.83 104.472 448.486 104.472C452.887 104.472 454.961 107.71 454.961 111.784V124.189H451.905V112.657C451.905 109.092 450.741 107.164 447.831 107.164C444.848 107.164 442.738 109.092 442.738 112.657V124.189H439.682ZM469.243 124.626C463.787 124.626 460.403 120.66 460.403 114.549C460.403 108.437 463.787 104.472 469.098 104.472C474.118 104.472 477.647 108.11 477.647 114.585V115.495H463.605C463.823 119.642 465.897 121.715 469.243 121.715C471.753 121.715 473.39 120.442 474.045 118.478L477.319 118.732C476.301 122.188 473.318 124.626 469.243 124.626ZM474.3 112.803C474.009 109.092 471.935 107.382 469.098 107.382C466.115 107.382 464.114 109.238 463.605 112.803H474.3ZM491.092 124.626C486.072 124.626 483.016 121.752 482.725 118.114L485.927 117.896C486.29 120.297 488.036 121.715 491.092 121.715C493.93 121.715 495.603 120.915 495.603 119.169C495.603 117.495 494.73 116.841 490.51 116.113C484.908 115.131 483.235 113.421 483.235 110.293C483.235 106.946 485.817 104.472 490.547 104.472C495.312 104.472 497.786 107.31 498.368 110.656L495.167 110.875C494.73 108.837 493.129 107.382 490.51 107.382C487.673 107.382 486.363 108.656 486.363 110.293C486.363 112.257 487.673 112.839 491.165 113.421C497.131 114.403 498.732 115.968 498.732 119.169C498.732 122.588 495.458 124.626 491.092 124.626ZM515.378 124.189C511.632 124.189 509.813 122.479 509.813 118.878V107.601H503.447V104.909H509.813V99.8157H512.868V104.909H520.544V107.601H512.868V118.878C512.868 120.66 513.669 121.497 515.378 121.497H520.544V124.189H515.378ZM534.681 124.626C529.224 124.626 525.841 120.66 525.841 114.549C525.841 108.437 529.224 104.472 534.535 104.472C539.556 104.472 543.084 108.11 543.084 114.585V115.495H529.042C529.261 119.642 531.334 121.715 534.681 121.715C537.191 121.715 538.828 120.442 539.483 118.478L542.757 118.732C541.738 122.188 538.755 124.626 534.681 124.626ZM539.738 112.803C539.446 109.092 537.373 107.382 534.535 107.382C531.552 107.382 529.552 109.238 529.042 112.803H539.738ZM555.329 124.626C550.237 124.626 547.072 120.733 547.072 114.549C547.072 108.365 550.237 104.472 555.329 104.472C558.021 104.472 560.168 106 561.114 107.601V98.3606H564.169V124.189H561.405L561.295 121.279C560.204 123.389 558.021 124.626 555.329 124.626ZM555.511 121.715C559.004 121.715 561.114 118.951 561.114 114.549C561.114 110.074 559.004 107.382 555.439 107.382C552.274 107.382 550.273 110.074 550.273 114.549C550.273 118.951 552.274 121.715 555.511 121.715ZM570.703 124.189V98.3606H586.709V101.344H573.832V110.074H586.055V113.057H573.832V124.189H570.703ZM598.445 124.626C594.626 124.626 592.152 121.897 592.152 117.314V104.909H595.208V116.477C595.208 120.224 596.517 121.934 599.282 121.934C602.301 121.934 604.157 119.86 604.157 116.404V104.909H607.212V124.189H604.302V121.06C603.247 123.352 601.21 124.626 598.445 124.626ZM614.183 124.189V104.909H616.984L617.057 108.365C618.075 105.709 620.331 104.472 622.986 104.472C627.388 104.472 629.461 107.71 629.461 111.784V124.189H626.406V112.657C626.406 109.092 625.242 107.164 622.331 107.164C619.348 107.164 617.238 109.092 617.238 112.657V124.189H614.183ZM643.926 124.626C638.542 124.626 635.049 120.66 635.049 114.549C635.049 108.437 638.542 104.472 643.926 104.472C648.218 104.472 651.201 106.873 652.002 111.166L648.8 111.384C648.218 108.837 646.399 107.382 643.926 107.382C640.361 107.382 638.251 110.074 638.251 114.549C638.251 119.023 640.361 121.715 643.926 121.715C646.399 121.715 648.364 120.26 648.946 117.35L652.147 117.568C651.347 121.861 648.218 124.626 643.926 124.626Z" fill="#59873A"/>
<path d="M668.03 127.463C658.899 118.223 658.899 105.418 668.03 96.1779H670.649C662.355 105.782 662.355 117.859 670.649 127.463H668.03ZM681.621 127.463C689.915 117.859 689.915 105.782 681.621 96.1779H684.24C693.371 105.418 693.371 118.223 684.24 127.463H681.621ZM735.687 127.645C731.831 127.645 729.175 125.062 729.175 121.388V118.368C729.175 114.84 727.538 113.348 723.209 113.421V110.402C727.538 110.474 729.175 108.983 729.175 105.454V102.435C729.175 98.7608 731.831 96.1779 735.687 96.1779H737.724V99.0154C733.504 98.8699 732.085 99.8157 732.085 102.362V105.709C732.085 108.983 730.23 111.348 727.647 111.857V111.893C730.303 112.403 732.085 114.803 732.085 118.114V121.461C732.085 123.971 733.504 124.917 737.724 124.807V127.645H735.687ZM663.046 165.147V160.782H667.412V165.147H663.046ZM663.301 184.864L665.011 179.189H663.046V174.824H667.412V178.68L665.12 184.864H663.301ZM93.0822 237.645H91.045V234.807C95.2649 234.917 96.6836 233.971 96.6836 231.461V228.114C96.6836 224.803 98.4661 222.403 101.122 221.893V221.857C98.5389 221.348 96.6836 218.983 96.6836 215.709V212.362C96.6836 209.816 95.2649 208.87 91.045 209.015V206.178H93.0822C96.9383 206.178 99.5938 208.761 99.5938 212.435V215.454C99.5938 218.983 101.231 220.474 105.56 220.402V223.421C101.231 223.348 99.5938 224.84 99.5938 228.368V231.388C99.5938 235.062 96.9383 237.645 93.0822 237.645Z" fill="#999999"/>
<path d="M293.324 165.256L292.815 156.125V153.361H296.016V156.125L295.507 165.256H293.324ZM642.325 165.256L641.816 156.125V153.361H645.017V156.125L644.508 165.256H642.325Z" fill="#B56959" fill-opacity="0.6"/>
<path d="M308.807 179.189V159.909H311.608L311.681 163.365C312.699 160.709 314.955 159.472 317.61 159.472C322.012 159.472 324.086 162.71 324.086 166.784V179.189H321.03V167.657C321.03 164.092 319.866 162.164 316.956 162.164C313.973 162.164 311.863 164.092 311.863 167.657V179.189H308.807ZM338.368 179.626C332.911 179.626 329.528 175.66 329.528 169.549C329.528 163.437 332.911 159.472 338.222 159.472C343.243 159.472 346.771 163.11 346.771 169.585V170.495H332.729C332.948 174.642 335.021 176.715 338.368 176.715C340.878 176.715 342.515 175.442 343.17 173.478L346.444 173.732C345.425 177.188 342.442 179.626 338.368 179.626ZM343.424 167.803C343.133 164.092 341.06 162.382 338.222 162.382C335.239 162.382 333.239 164.238 332.729 167.803H343.424ZM360.217 179.626C355.197 179.626 352.141 176.752 351.85 173.114L355.051 172.896C355.415 175.297 357.161 176.715 360.217 176.715C363.054 176.715 364.728 175.915 364.728 174.169C364.728 172.495 363.855 171.841 359.635 171.113C354.033 170.131 352.359 168.421 352.359 165.293C352.359 161.946 354.942 159.472 359.671 159.472C364.437 159.472 366.91 162.31 367.492 165.656L364.291 165.875C363.855 163.837 362.254 162.382 359.635 162.382C356.797 162.382 355.488 163.656 355.488 165.293C355.488 167.257 356.797 167.839 360.29 168.421C366.256 169.403 367.856 170.968 367.856 174.169C367.856 177.588 364.582 179.626 360.217 179.626ZM384.503 179.189C380.756 179.189 378.937 177.479 378.937 173.878V162.601H372.571V159.909H378.937V154.816H381.993V159.909H389.669V162.601H381.993V173.878C381.993 175.66 382.793 176.497 384.503 176.497H389.669V179.189H384.503ZM403.806 179.626C398.349 179.626 394.966 175.66 394.966 169.549C394.966 163.437 398.349 159.472 403.66 159.472C408.68 159.472 412.209 163.11 412.209 169.585V170.495H398.167C398.385 174.642 400.459 176.715 403.806 176.715C406.316 176.715 407.953 175.442 408.607 173.478L411.882 173.732C410.863 177.188 407.88 179.626 403.806 179.626ZM408.862 167.803C408.571 164.092 406.498 162.382 403.66 162.382C400.677 162.382 398.676 164.238 398.167 167.803H408.862ZM424.454 179.626C419.361 179.626 416.196 175.733 416.196 169.549C416.196 163.365 419.361 159.472 424.454 159.472C427.146 159.472 429.292 161 430.238 162.601V153.361H433.294V179.189H430.529L430.42 176.279C429.329 178.389 427.146 179.626 424.454 179.626ZM424.636 176.715C428.128 176.715 430.238 173.951 430.238 169.549C430.238 165.074 428.128 162.382 424.563 162.382C421.398 162.382 419.398 165.074 419.398 169.549C419.398 173.951 421.398 176.715 424.636 176.715ZM441.647 170.022V167.184H452.56V170.022H441.647ZM466.442 158.672C466.442 155.252 468.188 153.361 471.826 153.361H477.283V156.053H471.826C470.298 156.053 469.498 157.071 469.498 158.672V159.909H476.919V162.601H469.498V179.189H466.442V162.601H460.549V159.909H466.442V158.672ZM489.382 179.626C485.563 179.626 483.089 176.897 483.089 172.314V159.909H486.145V171.477C486.145 175.224 487.454 176.934 490.219 176.934C493.239 176.934 495.094 174.86 495.094 171.404V159.909H498.15V179.189H495.239V176.06C494.184 178.352 492.147 179.626 489.382 179.626ZM505.12 179.189V159.909H507.921L507.994 163.365C509.012 160.709 511.268 159.472 513.923 159.472C518.325 159.472 520.399 162.71 520.399 166.784V179.189H517.343V167.657C517.343 164.092 516.179 162.164 513.269 162.164C510.286 162.164 508.176 164.092 508.176 167.657V179.189H505.12ZM534.863 179.626C529.479 179.626 525.987 175.66 525.987 169.549C525.987 163.437 529.479 159.472 534.863 159.472C539.155 159.472 542.138 161.873 542.939 166.166L539.738 166.384C539.155 163.837 537.337 162.382 534.863 162.382C531.298 162.382 529.188 165.074 529.188 169.549C529.188 174.023 531.298 176.715 534.863 176.715C537.337 176.715 539.301 175.26 539.883 172.35L543.084 172.568C542.284 176.861 539.155 179.626 534.863 179.626ZM559.004 179.189C555.257 179.189 553.438 177.479 553.438 173.878V162.601H547.072V159.909H553.438V154.816H556.494V159.909H564.169V162.601H556.494V173.878C556.494 175.66 557.294 176.497 559.004 176.497H564.169V179.189H559.004ZM569.976 179.189V176.497H577.724V162.601H570.339V159.909H580.78V176.497H587.437V179.189H569.976ZM577.433 156.889V153.324H580.634V156.889H577.433ZM599.791 179.626C594.444 179.626 590.988 175.697 590.988 169.549C590.988 163.401 594.444 159.472 599.791 159.472C605.102 159.472 608.595 163.401 608.595 169.549C608.595 175.697 605.102 179.626 599.791 179.626ZM599.791 176.715C603.32 176.715 605.393 174.023 605.393 169.549C605.393 165.074 603.32 162.382 599.791 162.382C596.226 162.382 594.189 165.074 594.189 169.549C594.189 174.023 596.226 176.715 599.791 176.715ZM614.183 179.189V159.909H616.984L617.057 163.365C618.075 160.709 620.331 159.472 622.986 159.472C627.388 159.472 629.461 162.71 629.461 166.784V179.189H626.406V167.657C626.406 164.092 625.242 162.164 622.331 162.164C619.348 162.164 617.238 164.092 617.238 167.657V179.189H614.183Z" fill="#B56959"/>
<path fill-rule="evenodd" clip-rule="evenodd" d="M562.08 156L541.091 133L520.101 156H249.591C246.277 156 243.591 158.686 243.591 162V241C243.591 244.314 246.277 247 249.591 247H604.591C607.904 247 610.591 244.314 610.591 241V162C610.591 158.686 607.904 156 604.591 156H562.08Z" fill="white"/>
<path d="M541.091 133L541.46 132.663L541.091 132.258L540.721 132.663L541.091 133ZM562.08 156L561.711 156.337L561.859 156.5H562.08V156ZM520.101 156V156.5H520.322L520.47 156.337L520.101 156ZM540.721 133.337L561.711 156.337L562.449 155.663L541.46 132.663L540.721 133.337ZM520.47 156.337L541.46 133.337L540.721 132.663L519.732 155.663L520.47 156.337ZM249.591 156.5H520.101V155.5H249.591V156.5ZM244.091 162C244.091 158.962 246.553 156.5 249.591 156.5V155.5C246.001 155.5 243.091 158.41 243.091 162H244.091ZM244.091 241V162H243.091V241H244.091ZM249.591 246.5C246.553 246.5 244.091 244.038 244.091 241H243.091C243.091 244.59 246.001 247.5 249.591 247.5V246.5ZM604.591 246.5H249.591V247.5H604.591V246.5ZM610.091 241C610.091 244.038 607.628 246.5 604.591 246.5V247.5C608.18 247.5 611.091 244.59 611.091 241H610.091ZM610.091 162V241H611.091V162H610.091ZM604.591 156.5C607.628 156.5 610.091 158.962 610.091 162H611.091C611.091 158.41 608.18 155.5 604.591 155.5V156.5ZM562.08 156.5H604.591V155.5H562.08V156.5Z" fill="#DDDDDD"/>
<path d="M281.537 193.368C277.627 193.368 275.465 190.079 275.465 184.858C275.465 179.591 277.627 176.302 281.537 176.302C284.412 176.302 286.551 178.28 287.241 181.661L285.125 181.799C284.596 179.453 283.239 178.234 281.537 178.234C278.938 178.234 277.535 180.626 277.535 184.858C277.535 189.067 278.938 191.436 281.537 191.436C283.423 191.436 284.826 190.102 285.286 187.503L287.379 187.618C286.781 191.206 284.619 193.368 281.537 193.368ZM293.672 193.276C291.372 193.276 289.624 191.942 289.624 189.964C289.624 187.894 290.82 186.813 293.488 186.284L297.582 185.456C297.582 183.386 296.616 182.374 294.868 182.374C293.166 182.374 292.269 183.156 291.901 184.559L289.854 184.398C290.314 182.098 292.108 180.534 294.868 180.534C297.812 180.534 299.514 182.42 299.514 185.502V190.562C299.514 191.114 299.744 191.298 300.25 191.298H301.032V193C300.848 193.023 300.388 193.046 300.02 193.046C298.686 193.046 297.904 192.517 297.651 191.275C296.984 192.471 295.42 193.276 293.672 193.276ZM293.856 191.574C296.34 191.574 297.582 190.194 297.582 188.17V187.112L293.856 187.848C292.2 188.17 291.648 188.768 291.648 189.78C291.648 190.93 292.476 191.574 293.856 191.574ZM304.381 193V180.81H306.152L306.198 182.995C306.842 181.316 308.268 180.534 309.947 180.534C312.73 180.534 314.041 182.581 314.041 185.157V193H312.109V185.709C312.109 183.455 311.373 182.236 309.533 182.236C307.647 182.236 306.313 183.455 306.313 185.709V193H304.381ZM318.172 193V180.81H319.943L319.989 182.995C320.633 181.316 322.059 180.534 323.738 180.534C326.521 180.534 327.832 182.581 327.832 185.157V193H325.9V185.709C325.9 183.455 325.164 182.236 323.324 182.236C321.438 182.236 320.104 183.455 320.104 185.709V193H318.172ZM336.655 193.276C333.274 193.276 331.089 190.792 331.089 186.905C331.089 183.018 333.274 180.534 336.655 180.534C340.013 180.534 342.221 183.018 342.221 186.905C342.221 190.792 340.013 193.276 336.655 193.276ZM336.655 191.436C338.886 191.436 340.197 189.734 340.197 186.905C340.197 184.076 338.886 182.374 336.655 182.374C334.401 182.374 333.113 184.076 333.113 186.905C333.113 189.734 334.401 191.436 336.655 191.436ZM352.24 193C349.871 193 348.721 191.919 348.721 189.642V182.512H344.696V180.81H348.721V177.59H350.653V180.81H355.506V182.512H350.653V189.642C350.653 190.769 351.159 191.298 352.24 191.298H355.506V193H352.24ZM376.464 180.028C376.464 177.866 377.568 176.67 379.868 176.67H383.318V178.372H379.868C378.902 178.372 378.396 179.016 378.396 180.028V180.81H383.088V182.512H378.396V193H376.464V182.512H372.738V180.81H376.464V180.028ZM386.759 193V191.298H391.658V182.512H386.989V180.81H393.59V191.298H397.799V193H386.759ZM391.474 178.901V176.647H393.498V178.901H391.474ZM400.918 193V180.81H402.689L402.735 182.995C403.379 181.316 404.805 180.534 406.484 180.534C409.267 180.534 410.578 182.581 410.578 185.157V193H408.646V185.709C408.646 183.455 407.91 182.236 406.07 182.236C404.184 182.236 402.85 183.455 402.85 185.709V193H400.918ZM418.872 193.276C415.652 193.276 413.651 190.815 413.651 186.905C413.651 182.995 415.652 180.534 418.872 180.534C420.574 180.534 421.931 181.5 422.529 182.512V176.67H424.461V193H422.713L422.644 191.16C421.954 192.494 420.574 193.276 418.872 193.276ZM418.987 191.436C421.195 191.436 422.529 189.688 422.529 186.905C422.529 184.076 421.195 182.374 418.941 182.374C416.94 182.374 415.675 184.076 415.675 186.905C415.675 189.688 416.94 191.436 418.987 191.436ZM442.153 193V191.298H445.327V182.512H442.153V180.81H446.937L447.075 183.156C447.489 181.569 448.478 180.81 449.996 180.81H452.503V182.558H450.019C448.225 182.558 447.259 183.639 447.259 185.64V191.298H451.123V193H442.153ZM460.981 193.276C457.531 193.276 455.392 190.769 455.392 186.905C455.392 183.041 457.531 180.534 460.889 180.534C464.063 180.534 466.294 182.834 466.294 186.928V187.503H457.416C457.554 190.125 458.865 191.436 460.981 191.436C462.568 191.436 463.603 190.631 464.017 189.389L466.087 189.55C465.443 191.735 463.557 193.276 460.981 193.276ZM464.178 185.801C463.994 183.455 462.683 182.374 460.889 182.374C459.003 182.374 457.738 183.547 457.416 185.801H464.178ZM473.001 180.028C473.001 177.866 474.105 176.67 476.405 176.67H479.855V178.372H476.405C475.439 178.372 474.933 179.016 474.933 180.028V180.81H479.625V182.512H474.933V193H473.001V182.512H469.275V180.81H473.001V180.028ZM488.563 193.276C485.113 193.276 482.974 190.769 482.974 186.905C482.974 183.041 485.113 180.534 488.471 180.534C491.645 180.534 493.876 182.834 493.876 186.928V187.503H484.998C485.136 190.125 486.447 191.436 488.563 191.436C490.15 191.436 491.185 190.631 491.599 189.389L493.669 189.55C493.025 191.735 491.139 193.276 488.563 193.276ZM491.76 185.801C491.576 183.455 490.265 182.374 488.471 182.374C486.585 182.374 485.32 183.547 484.998 185.801H491.76ZM497.317 193V191.298H500.491V182.512H497.317V180.81H502.101L502.239 183.156C502.653 181.569 503.642 180.81 505.16 180.81H507.667V182.558H505.183C503.389 182.558 502.423 183.639 502.423 185.64V191.298H506.287V193H497.317ZM516.145 193.276C512.695 193.276 510.556 190.769 510.556 186.905C510.556 183.041 512.695 180.534 516.053 180.534C519.227 180.534 521.458 182.834 521.458 186.928V187.503H512.58C512.718 190.125 514.029 191.436 516.145 191.436C517.732 191.436 518.767 190.631 519.181 189.389L521.251 189.55C520.607 191.735 518.721 193.276 516.145 193.276ZM519.342 185.801C519.158 183.455 517.847 182.374 516.053 182.374C514.167 182.374 512.902 183.547 512.58 185.801H519.342ZM525.037 193V180.81H526.808L526.854 182.995C527.498 181.316 528.924 180.534 530.603 180.534C533.386 180.534 534.697 182.581 534.697 185.157V193H532.765V185.709C532.765 183.455 532.029 182.236 530.189 182.236C528.303 182.236 526.969 183.455 526.969 185.709V193H525.037ZM543.842 193.276C540.438 193.276 538.23 190.769 538.23 186.905C538.23 183.041 540.438 180.534 543.842 180.534C546.556 180.534 548.442 182.052 548.948 184.766L546.924 184.904C546.556 183.294 545.406 182.374 543.842 182.374C541.588 182.374 540.254 184.076 540.254 186.905C540.254 189.734 541.588 191.436 543.842 191.436C545.406 191.436 546.648 190.516 547.016 188.676L549.04 188.814C548.534 191.528 546.556 193.276 543.842 193.276ZM557.518 193.276C554.068 193.276 551.929 190.769 551.929 186.905C551.929 183.041 554.068 180.534 557.426 180.534C560.6 180.534 562.831 182.834 562.831 186.928V187.503H553.953C554.091 190.125 555.402 191.436 557.518 191.436C559.105 191.436 560.14 190.631 560.554 189.389L562.624 189.55C561.98 191.735 560.094 193.276 557.518 193.276ZM560.715 185.801C560.531 183.455 559.22 182.374 557.426 182.374C555.54 182.374 554.275 183.547 553.953 185.801H560.715ZM571.332 193.276C568.158 193.276 566.226 191.459 566.042 189.159L568.066 189.021C568.296 190.539 569.4 191.436 571.332 191.436C573.126 191.436 574.184 190.93 574.184 189.826C574.184 188.768 573.632 188.354 570.964 187.894C567.422 187.273 566.364 186.192 566.364 184.214C566.364 182.098 567.997 180.534 570.987 180.534C574 180.534 575.564 182.328 575.932 184.444L573.908 184.582C573.632 183.294 572.62 182.374 570.964 182.374C569.17 182.374 568.342 183.179 568.342 184.214C568.342 185.456 569.17 185.824 571.378 186.192C575.15 186.813 576.162 187.802 576.162 189.826C576.162 191.988 574.092 193.276 571.332 193.276ZM279.927 215.028C279.927 212.866 281.031 211.67 283.331 211.67H286.781V213.372H283.331C282.365 213.372 281.859 214.016 281.859 215.028V215.81H286.551V217.512H281.859V228H279.927V217.512H276.201V215.81H279.927V215.028ZM295.282 228.276C291.901 228.276 289.716 225.792 289.716 221.905C289.716 218.018 291.901 215.534 295.282 215.534C298.64 215.534 300.848 218.018 300.848 221.905C300.848 225.792 298.64 228.276 295.282 228.276ZM295.282 226.436C297.513 226.436 298.824 224.734 298.824 221.905C298.824 219.076 297.513 217.374 295.282 217.374C293.028 217.374 291.74 219.076 291.74 221.905C291.74 224.734 293.028 226.436 295.282 226.436ZM304.243 228V226.298H307.417V217.512H304.243V215.81H309.027L309.165 218.156C309.579 216.569 310.568 215.81 312.086 215.81H314.593V217.558H312.109C310.315 217.558 309.349 218.639 309.349 220.64V226.298H313.213V228H304.243ZM337.713 211.785L336.632 215.373H337.874V218.133H335.114V215.695L336.563 211.785H337.713ZM345.754 228V215.81H347.525L347.571 217.995C348.215 216.316 349.641 215.534 351.32 215.534C354.103 215.534 355.414 217.581 355.414 220.157V228H353.482V220.709C353.482 218.455 352.746 217.236 350.906 217.236C349.02 217.236 347.686 218.455 347.686 220.709V228H345.754ZM364.444 228.276C360.994 228.276 358.855 225.769 358.855 221.905C358.855 218.041 360.994 215.534 364.352 215.534C367.526 215.534 369.757 217.834 369.757 221.928V222.503H360.879C361.017 225.125 362.328 226.436 364.444 226.436C366.031 226.436 367.066 225.631 367.48 224.389L369.55 224.55C368.906 226.735 367.02 228.276 364.444 228.276ZM367.641 220.801C367.457 218.455 366.146 217.374 364.352 217.374C362.466 217.374 361.201 218.547 360.879 220.801H367.641ZM378.258 228.276C375.084 228.276 373.152 226.459 372.968 224.159L374.992 224.021C375.222 225.539 376.326 226.436 378.258 226.436C380.052 226.436 381.11 225.93 381.11 224.826C381.11 223.768 380.558 223.354 377.89 222.894C374.348 222.273 373.29 221.192 373.29 219.214C373.29 217.098 374.923 215.534 377.913 215.534C380.926 215.534 382.49 217.328 382.858 219.444L380.834 219.582C380.558 218.294 379.546 217.374 377.89 217.374C376.096 217.374 375.268 218.179 375.268 219.214C375.268 220.456 376.096 220.824 378.304 221.192C382.076 221.813 383.088 222.802 383.088 224.826C383.088 226.988 381.018 228.276 378.258 228.276ZM393.613 228C391.244 228 390.094 226.919 390.094 224.642V217.512H386.069V215.81H390.094V212.59H392.026V215.81H396.879V217.512H392.026V224.642C392.026 225.769 392.532 226.298 393.613 226.298H396.879V228H393.613ZM405.817 228.276C402.367 228.276 400.228 225.769 400.228 221.905C400.228 218.041 402.367 215.534 405.725 215.534C408.899 215.534 411.13 217.834 411.13 221.928V222.503H402.252C402.39 225.125 403.701 226.436 405.817 226.436C407.404 226.436 408.439 225.631 408.853 224.389L410.923 224.55C410.279 226.735 408.393 228.276 405.817 228.276ZM409.014 220.801C408.83 218.455 407.519 217.374 405.725 217.374C403.839 217.374 402.574 218.547 402.252 220.801H409.014ZM418.872 228.276C415.652 228.276 413.651 225.815 413.651 221.905C413.651 217.995 415.652 215.534 418.872 215.534C420.574 215.534 421.931 216.5 422.529 217.512V211.67H424.461V228H422.713L422.644 226.16C421.954 227.494 420.574 228.276 418.872 228.276ZM418.987 226.436C421.195 226.436 422.529 224.688 422.529 221.905C422.529 219.076 421.195 217.374 418.941 217.374C416.94 217.374 415.675 219.076 415.675 221.905C415.675 224.688 416.94 226.436 418.987 226.436ZM428.592 228V211.67H438.712V213.556H430.57V219.076H438.298V220.962H430.57V228H428.592ZM446.132 228.276C443.717 228.276 442.153 226.551 442.153 223.653V215.81H444.085V223.124C444.085 225.493 444.913 226.574 446.661 226.574C448.57 226.574 449.743 225.263 449.743 223.078V215.81H451.675V228H449.835V226.022C449.168 227.471 447.88 228.276 446.132 228.276ZM456.082 228V215.81H457.853L457.899 217.995C458.543 216.316 459.969 215.534 461.648 215.534C464.431 215.534 465.742 217.581 465.742 220.157V228H463.81V220.709C463.81 218.455 463.074 217.236 461.234 217.236C459.348 217.236 458.014 218.455 458.014 220.709V228H456.082ZM474.887 228.276C471.483 228.276 469.275 225.769 469.275 221.905C469.275 218.041 471.483 215.534 474.887 215.534C477.601 215.534 479.487 217.052 479.993 219.766L477.969 219.904C477.601 218.294 476.451 217.374 474.887 217.374C472.633 217.374 471.299 219.076 471.299 221.905C471.299 224.734 472.633 226.436 474.887 226.436C476.451 226.436 477.693 225.516 478.061 223.676L480.085 223.814C479.579 226.528 477.601 228.276 474.887 228.276ZM487.275 217.903L488.356 214.315H487.114V211.555H489.874V213.993L488.425 217.903H487.275Z" fill="#3C3C43"/>
</svg>
