<svg width="1916" height="761" viewBox="0 0 1916 761" fill="none" xmlns="http://www.w3.org/2000/svg">
<path d="M341.28 196.7C334.92 196.7 330.54 192.44 330.54 186.38V181.4C330.54 175.58 327.84 173.12 320.7 173.24V168.26C327.84 168.38 330.54 165.92 330.54 160.1V155.12C330.54 149.06 334.92 144.8 341.28 144.8H344.64V149.48C337.68 149.24 335.34 150.8 335.34 155V160.52C335.34 165.92 332.28 169.82 328.02 170.66V170.72C332.4 171.56 335.34 175.52 335.34 180.98V186.5C335.34 190.64 337.68 192.2 344.64 192.02V196.7H341.28ZM918.105 256.4H900.765V204.8H918.105V209.48H905.565V251.72H918.105V256.4ZM761.539 320.36L764.359 311H761.119V303.8H768.319V310.16L764.539 320.36H761.539ZM395.473 436.4V431.72H408.013V389.48H395.473V384.8H412.813V436.4H395.473ZM324.72 496.7H321.36V492.02C328.32 492.2 330.66 490.64 330.66 486.5V480.98C330.66 475.52 333.6 471.56 337.98 470.72V470.66C333.72 469.82 330.66 465.92 330.66 460.52V455C330.66 450.8 328.32 449.24 321.36 449.48V444.8H324.72C331.08 444.8 335.46 449.06 335.46 455.12V460.1C335.46 465.92 338.16 468.38 345.3 468.26V473.24C338.16 473.12 335.46 475.58 335.46 481.4V486.38C335.46 492.44 331.08 496.7 324.72 496.7Z" fill="#999999"/>
<path d="M833.072 251V243.8H840.272V251H833.072ZM833.072 227.84V220.64H840.272V227.84H833.072Z" fill="#393A34"/>
<path d="M407.653 228.02L407.413 208.4H412.693V213.2L411.313 228.02H407.653ZM398.593 228.02L397.213 213.2V208.4H402.493L402.253 228.02H398.593ZM803.395 228.02L803.155 208.4H808.435V213.2L807.055 228.02H803.395ZM794.335 228.02L792.955 213.2V208.4H798.235L797.995 228.02H794.335ZM479.606 288.02L479.366 268.4H484.646V273.2L483.266 288.02H479.606ZM470.546 288.02L469.166 273.2V268.4H474.446L474.206 288.02H470.546ZM731.442 288.02L731.202 268.4H736.482V273.2L735.102 288.02H731.442ZM722.382 288.02L721.002 273.2V268.4H726.282L726.042 288.02H722.382ZM479.606 348.02L479.366 328.4H484.646V333.2L483.266 348.02H479.606ZM470.546 348.02L469.166 333.2V328.4H474.446L474.206 348.02H470.546ZM731.442 348.02L731.202 328.4H736.482V333.2L735.102 348.02H731.442ZM722.382 348.02L721.002 333.2V328.4H726.282L726.042 348.02H722.382Z" fill="#B56959" fill-opacity="0.6"/>
<path d="M430.43 251L424.13 219.2H429.65L433.67 245.72L438.23 223.64H443.63L448.19 245.72L452.21 219.2H457.73L451.49 251H445.13L440.93 231.2L436.73 251H430.43ZM476.906 251.72C468.086 251.72 462.386 245.24 462.386 235.1C462.386 224.96 468.086 218.48 476.906 218.48C485.666 218.48 491.426 224.96 491.426 235.1C491.426 245.24 485.666 251.72 476.906 251.72ZM476.906 246.92C482.726 246.92 486.146 242.48 486.146 235.1C486.146 227.72 482.726 223.28 476.906 223.28C471.026 223.28 467.666 227.72 467.666 235.1C467.666 242.48 471.026 246.92 476.906 246.92ZM500.283 251V246.56H508.563V223.64H500.283V219.2H512.763L513.123 225.32C514.203 221.18 516.783 219.2 520.743 219.2H527.283V223.76H520.803C516.123 223.76 513.603 226.58 513.603 231.8V246.56H523.683V251H500.283ZM536.259 251V208.4H541.299V236.3L556.779 219.2H563.499L550.959 232.7L564.099 251H557.979L547.539 236.12L541.299 242.72V251H536.259ZM585.436 251.72C577.156 251.72 572.116 246.98 571.636 240.98L576.916 240.62C577.516 244.58 580.396 246.92 585.436 246.92C590.116 246.92 592.876 245.6 592.876 242.72C592.876 239.96 591.436 238.88 584.476 237.68C575.236 236.06 572.476 233.24 572.476 228.08C572.476 222.56 576.736 218.48 584.536 218.48C592.396 218.48 596.476 223.16 597.436 228.68L592.156 229.04C591.436 225.68 588.796 223.28 584.476 223.28C579.796 223.28 577.636 225.38 577.636 228.08C577.636 231.32 579.796 232.28 585.556 233.24C595.396 234.86 598.036 237.44 598.036 242.72C598.036 248.36 592.636 251.72 585.436 251.72ZM607.613 260V219.2H612.293L612.353 224.3C614.273 220.52 617.812 218.48 622.133 218.48C631.613 218.48 635.813 226.34 635.813 235.1C635.813 243.86 631.613 251.72 622.133 251.72C617.993 251.72 614.333 249.86 612.653 246.8V260H607.613ZM621.653 246.92C627.173 246.92 630.533 242.54 630.533 235.1C630.533 227.66 627.173 223.28 621.653 223.28C616.133 223.28 612.653 227.3 612.653 235.1C612.653 242.9 616.073 246.92 621.653 246.92ZM652.589 251.72C646.589 251.72 642.029 248.24 642.029 243.08C642.029 237.68 645.149 234.86 652.109 233.48L662.789 231.32C662.789 225.92 660.269 223.28 655.709 223.28C651.269 223.28 648.929 225.32 647.969 228.98L642.629 228.56C643.829 222.56 648.509 218.48 655.709 218.48C663.389 218.48 667.829 223.4 667.829 231.44V244.64C667.829 246.08 668.429 246.56 669.749 246.56H671.789V251C671.309 251.06 670.109 251.12 669.149 251.12C665.669 251.12 663.629 249.74 662.969 246.5C661.229 249.62 657.149 251.72 652.589 251.72ZM653.069 247.28C659.549 247.28 662.789 243.68 662.789 238.4V235.64L653.069 237.56C648.749 238.4 647.309 239.96 647.309 242.6C647.309 245.6 649.469 247.28 653.069 247.28ZM693.606 251.72C684.726 251.72 678.966 245.18 678.966 235.1C678.966 225.02 684.726 218.48 693.606 218.48C700.686 218.48 705.606 222.44 706.926 229.52L701.646 229.88C700.686 225.68 697.686 223.28 693.606 223.28C687.726 223.28 684.246 227.72 684.246 235.1C684.246 242.48 687.726 246.92 693.606 246.92C697.686 246.92 700.926 244.52 701.886 239.72L707.166 240.08C705.846 247.16 700.686 251.72 693.606 251.72ZM729.282 251.72C720.282 251.72 714.702 245.18 714.702 235.1C714.702 225.02 720.282 218.48 729.042 218.48C737.322 218.48 743.142 224.48 743.142 235.16V236.66H719.982C720.342 243.5 723.762 246.92 729.282 246.92C733.422 246.92 736.122 244.82 737.202 241.58L742.602 242C740.922 247.7 736.002 251.72 729.282 251.72ZM737.622 232.22C737.142 226.1 733.722 223.28 729.042 223.28C724.122 223.28 720.822 226.34 719.982 232.22H737.622ZM765.319 251.72C757.039 251.72 751.999 246.98 751.519 240.98L756.799 240.62C757.399 244.58 760.279 246.92 765.319 246.92C769.999 246.92 772.759 245.6 772.759 242.72C772.759 239.96 771.319 238.88 764.359 237.68C755.119 236.06 752.359 233.24 752.359 228.08C752.359 222.56 756.619 218.48 764.419 218.48C772.279 218.48 776.359 223.16 777.319 228.68L772.039 229.04C771.319 225.68 768.679 223.28 764.359 223.28C759.679 223.28 757.519 225.38 757.519 228.08C757.519 231.32 759.679 232.28 765.439 233.24C775.279 234.86 777.919 237.44 777.919 242.72C777.919 248.36 772.519 251.72 765.319 251.72ZM512.463 276.92C512.463 274.34 510.963 272.84 508.383 272.84H500.883V268.4H508.623C514.443 268.4 517.503 271.46 517.503 277.28V306.56H528.483V311H499.683V306.56H512.463V276.92ZM535.659 311V306.56H548.439V283.64H536.259V279.2H553.479V306.56H564.459V311H535.659ZM547.959 274.22V268.34H553.239V274.22H547.959ZM586.216 311.72C581.776 311.72 578.176 309.68 576.376 306.2L576.196 311H571.636V268.4H576.676V283.64C578.236 281 581.776 278.48 586.216 278.48C594.616 278.48 599.836 284.9 599.836 295.1C599.836 305.3 594.616 311.72 586.216 311.72ZM585.916 306.92C591.256 306.92 594.556 302.36 594.556 295.1C594.556 287.72 591.256 283.28 586.036 283.28C580.156 283.28 576.676 287.72 576.676 295.1C576.676 302.36 580.156 306.92 585.916 306.92ZM621.413 311.72C613.133 311.72 608.093 306.98 607.613 300.98L612.893 300.62C613.493 304.58 616.373 306.92 621.413 306.92C626.093 306.92 628.853 305.6 628.853 302.72C628.853 299.96 627.413 298.88 620.452 297.68C611.213 296.06 608.453 293.24 608.453 288.08C608.453 282.56 612.713 278.48 620.513 278.48C628.373 278.48 632.453 283.16 633.413 288.68L628.133 289.04C627.413 285.68 624.773 283.28 620.452 283.28C615.773 283.28 613.613 285.38 613.613 288.08C613.613 291.32 615.773 292.28 621.533 293.24C631.373 294.86 634.013 297.44 634.013 302.72C634.013 308.36 628.613 311.72 621.413 311.72ZM645.269 317.6L663.509 266H668.309L650.069 317.6H645.269ZM688.806 288.08L685.686 286.04L689.706 279.92H682.566V276.08H689.706L685.686 269.96L688.806 267.92L692.766 274.34L696.786 267.92L699.906 269.96L695.826 276.08H702.966V279.92H695.826L699.906 286.04L696.786 288.08L692.766 281.72L688.806 288.08ZM508.683 371.72C502.683 371.72 498.123 368.24 498.123 363.08C498.123 357.68 501.243 354.86 508.203 353.48L518.883 351.32C518.883 345.92 516.363 343.28 511.803 343.28C507.363 343.28 505.023 345.32 504.063 348.98L498.723 348.56C499.923 342.56 504.603 338.48 511.803 338.48C519.483 338.48 523.923 343.4 523.923 351.44V364.64C523.923 366.08 524.523 366.56 525.843 366.56H527.883V371C527.403 371.06 526.203 371.12 525.243 371.12C521.763 371.12 519.723 369.74 519.063 366.5C517.323 369.62 513.243 371.72 508.683 371.72ZM509.163 367.28C515.643 367.28 518.883 363.68 518.883 358.4V355.64L509.163 357.56C504.843 358.4 503.403 359.96 503.403 362.6C503.403 365.6 505.563 367.28 509.163 367.28ZM535.659 380V339.2H540.339L540.399 344.3C542.319 340.52 545.859 338.48 550.179 338.48C559.659 338.48 563.859 346.34 563.859 355.1C563.859 363.86 559.659 371.72 550.179 371.72C546.039 371.72 542.379 369.86 540.699 366.8V380H535.659ZM549.699 366.92C555.219 366.92 558.579 362.54 558.579 355.1C558.579 347.66 555.219 343.28 549.699 343.28C544.179 343.28 540.699 347.3 540.699 355.1C540.699 362.9 544.119 366.92 549.699 366.92ZM571.636 380V339.2H576.316L576.376 344.3C578.296 340.52 581.836 338.48 586.156 338.48C595.636 338.48 599.836 346.34 599.836 355.1C599.836 363.86 595.636 371.72 586.156 371.72C582.016 371.72 578.356 369.86 576.676 366.8V380H571.636ZM585.676 366.92C591.196 366.92 594.556 362.54 594.556 355.1C594.556 347.66 591.196 343.28 585.676 343.28C580.156 343.28 576.676 347.3 576.676 355.1C576.676 362.9 580.096 366.92 585.676 366.92ZM621.413 371.72C613.133 371.72 608.093 366.98 607.613 360.98L612.893 360.62C613.493 364.58 616.373 366.92 621.413 366.92C626.093 366.92 628.853 365.6 628.853 362.72C628.853 359.96 627.413 358.88 620.452 357.68C611.213 356.06 608.453 353.24 608.453 348.08C608.453 342.56 612.713 338.48 620.513 338.48C628.373 338.48 632.453 343.16 633.413 348.68L628.133 349.04C627.413 345.68 624.773 343.28 620.452 343.28C615.773 343.28 613.613 345.38 613.613 348.08C613.613 351.32 615.773 352.28 621.533 353.24C631.373 354.86 634.013 357.44 634.013 362.72C634.013 368.36 628.613 371.72 621.413 371.72ZM645.269 377.6L663.509 326H668.309L650.069 377.6H645.269ZM688.806 348.08L685.686 346.04L689.706 339.92H682.566V336.08H689.706L685.686 329.96L688.806 327.92L692.766 334.34L696.786 327.92L699.906 329.96L695.826 336.08H702.966V339.92H695.826L699.906 346.04L696.786 348.08L692.766 341.72L688.806 348.08Z" fill="#B56959"/>
<path d="M1138.64 198V166.08H1143.86L1144.04 171.84C1145.66 167.4 1149.38 165.36 1153.64 165.36C1160.78 165.36 1164.2 170.58 1164.2 177.42V198H1158.44V179.04C1158.44 173.34 1156.64 170.34 1152.2 170.34C1147.64 170.34 1144.4 173.4 1144.4 179.16V198H1138.64ZM1186.98 198.72C1178.1 198.72 1172.28 192.24 1172.28 182.04C1172.28 171.84 1178.1 165.36 1186.98 165.36C1195.8 165.36 1201.68 171.84 1201.68 182.04C1201.68 192.24 1195.8 198.72 1186.98 198.72ZM1186.98 193.38C1192.44 193.38 1195.62 189.12 1195.62 182.04C1195.62 174.96 1192.44 170.7 1186.98 170.7C1181.46 170.7 1178.34 174.96 1178.34 182.04C1178.34 189.12 1181.46 193.38 1186.98 193.38ZM1221.21 198.72C1213.05 198.72 1207.95 192.24 1207.95 182.04C1207.95 171.84 1213.05 165.36 1221.21 165.36C1225.53 165.36 1229.01 167.76 1230.63 170.58V155.4H1236.39V198H1231.11L1230.93 193.2C1229.13 196.74 1225.59 198.72 1221.21 198.72ZM1222.05 193.38C1227.39 193.38 1230.63 189.06 1230.63 182.04C1230.63 174.96 1227.39 170.7 1221.93 170.7C1217.01 170.7 1213.95 174.9 1213.95 182.04C1213.95 189.06 1217.01 193.38 1222.05 193.38ZM1259.35 198.72C1250.35 198.72 1244.65 192.18 1244.65 182.04C1244.65 171.9 1250.35 165.36 1259.17 165.36C1267.45 165.36 1273.51 171.3 1273.51 182.16V183.66H1250.65C1251.07 190.14 1254.31 193.38 1259.35 193.38C1263.25 193.38 1265.77 191.4 1266.85 188.28L1272.97 188.76C1271.17 194.64 1266.25 198.72 1259.35 198.72ZM1267.27 179.04C1266.73 173.4 1263.55 170.7 1259.17 170.7C1254.61 170.7 1251.55 173.58 1250.71 179.04H1267.27ZM1281.47 203.16V198H1308.35V203.16H1281.47ZM1315.04 198V166.08H1320.14L1320.32 170.7C1321.46 167.34 1323.74 165.36 1326.68 165.36C1329.92 165.36 1331.84 167.46 1332.68 171.54C1333.76 167.7 1336.1 165.36 1339.46 165.36C1344.56 165.36 1346.72 168.78 1346.72 176.88V198H1341.02V177.6C1341.02 172.26 1339.94 170.34 1337.66 170.34C1335.32 170.34 1333.76 172.62 1333.76 177.66V198H1328V177.6C1328 172.44 1327.1 170.34 1324.64 170.34C1322.3 170.34 1320.74 172.62 1320.74 177.66V198H1315.04ZM1366.86 198.72C1357.98 198.72 1352.16 192.24 1352.16 182.04C1352.16 171.84 1357.98 165.36 1366.86 165.36C1375.68 165.36 1381.56 171.84 1381.56 182.04C1381.56 192.24 1375.68 198.72 1366.86 198.72ZM1366.86 193.38C1372.32 193.38 1375.5 189.12 1375.5 182.04C1375.5 174.96 1372.32 170.7 1366.86 170.7C1361.34 170.7 1358.22 174.96 1358.22 182.04C1358.22 189.12 1361.34 193.38 1366.86 193.38ZM1401.1 198.72C1392.94 198.72 1387.84 192.24 1387.84 182.04C1387.84 171.84 1392.94 165.36 1401.1 165.36C1405.42 165.36 1408.9 167.76 1410.52 170.58V155.4H1416.28V198H1411L1410.82 193.2C1409.02 196.74 1405.48 198.72 1401.1 198.72ZM1401.94 193.38C1407.28 193.38 1410.52 189.06 1410.52 182.04C1410.52 174.96 1407.28 170.7 1401.82 170.7C1396.9 170.7 1393.84 174.9 1393.84 182.04C1393.84 189.06 1396.9 193.38 1401.94 193.38ZM1436.11 198.72C1430.05 198.72 1426.09 194.34 1426.09 186.72V166.08H1431.85V185.16C1431.85 191.1 1433.89 193.74 1437.97 193.74C1442.59 193.74 1445.41 190.56 1445.41 184.98V166.08H1451.17V198H1445.77L1445.71 192.9C1443.97 196.68 1440.61 198.72 1436.11 198.72ZM1473.95 164.34C1473.95 161.82 1472.51 160.38 1469.99 160.38H1462.55V155.4H1470.29C1476.47 155.4 1479.71 158.58 1479.71 164.76V193.02H1490.63V198H1461.35V193.02H1473.95V164.34ZM1511.19 198.72C1502.19 198.72 1496.49 192.18 1496.49 182.04C1496.49 171.9 1502.19 165.36 1511.01 165.36C1519.29 165.36 1525.35 171.3 1525.35 182.16V183.66H1502.49C1502.91 190.14 1506.15 193.38 1511.19 193.38C1515.09 193.38 1517.61 191.4 1518.69 188.28L1524.81 188.76C1523.01 194.64 1518.09 198.72 1511.19 198.72ZM1519.11 179.04C1518.57 173.4 1515.39 170.7 1511.01 170.7C1506.45 170.7 1503.39 173.58 1502.55 179.04H1519.11ZM1547.34 198.72C1538.94 198.72 1533.9 193.98 1533.42 187.98L1539.36 187.62C1539.96 191.22 1542.6 193.38 1547.34 193.38C1551.72 193.38 1554.18 192.18 1554.18 189.6C1554.18 187.08 1552.86 186 1546.26 184.8C1537.08 183.12 1534.2 180.3 1534.2 175.14C1534.2 169.56 1538.58 165.36 1546.44 165.36C1554.6 165.36 1558.68 170.22 1559.58 175.74L1553.64 176.1C1552.98 172.92 1550.52 170.7 1546.44 170.7C1542.12 170.7 1540.08 172.62 1540.08 175.08C1540.08 178.08 1542.18 179.04 1547.94 180.06C1557.36 181.74 1560.06 184.26 1560.06 189.6C1560.06 195.3 1554.72 198.72 1547.34 198.72ZM1570.9 204.6L1589.08 153H1594.54L1576.36 204.6H1570.9ZM1148.6 213.44H1153.22V248.6H1169.3V253.82H1153.22V288.62H1148.6V213.44ZM1168.56 248.6H1205.28V253.82H1168.56V248.6ZM1204.53 248.6H1241.25V253.82H1204.53V248.6ZM1294.07 238.34C1294.07 235.82 1292.63 234.38 1290.11 234.38H1282.67V229.4H1290.41C1296.59 229.4 1299.83 232.58 1299.83 238.76V267.02H1310.75V272H1281.47V267.02H1294.07V238.34ZM1317.44 272V267.02H1330.1V245.06H1318.04V240.08H1335.86V267.02H1346.72V272H1317.44ZM1329.68 235.4V229.28H1335.68V235.4H1329.68ZM1368.6 272.72C1364.22 272.72 1360.68 270.74 1358.88 267.2L1358.7 272H1353.42V229.4H1359.18V244.58C1360.8 241.76 1364.28 239.36 1368.6 239.36C1376.76 239.36 1381.86 245.84 1381.86 256.04C1381.86 266.24 1376.76 272.72 1368.6 272.72ZM1367.76 267.38C1372.8 267.38 1375.86 263.06 1375.86 256.04C1375.86 248.9 1372.8 244.7 1367.88 244.7C1362.42 244.7 1359.18 248.96 1359.18 256.04C1359.18 263.06 1362.42 267.38 1367.76 267.38ZM1393.6 257.12V251.9H1412.08V257.12H1393.6ZM1434.61 272.72C1428.67 272.72 1423.93 269.24 1423.93 263.9C1423.93 258.5 1427.29 255.68 1433.89 254.36L1444.33 252.2C1444.33 247.16 1441.99 244.7 1437.73 244.7C1433.53 244.7 1431.37 246.56 1430.53 249.98L1424.53 249.56C1425.73 243.44 1430.41 239.36 1437.73 239.36C1445.59 239.36 1450.03 244.28 1450.03 252.44V265.04C1450.03 266.54 1450.63 267.02 1452.01 267.02H1453.93V272C1453.45 272.06 1452.25 272.18 1451.17 272.18C1447.57 272.18 1445.41 270.68 1444.75 267.44C1443.07 270.56 1439.17 272.72 1434.61 272.72ZM1435.27 267.74C1441.15 267.74 1444.33 264.44 1444.33 259.46V256.88L1435.15 258.74C1431.31 259.46 1429.93 260.96 1429.93 263.42C1429.93 266.18 1431.85 267.74 1435.27 267.74ZM1462.97 278.6L1481.15 227H1486.61L1468.43 278.6H1462.97ZM1148.6 287.44H1153.22V322.6H1169.3V327.82H1153.22V362.62H1148.6V287.44ZM1168.56 322.6H1205.28V327.82H1168.56V322.6ZM1204.53 322.6H1241.25V327.82H1204.53V322.6ZM1294.07 312.34C1294.07 309.82 1292.63 308.38 1290.11 308.38H1282.67V303.4H1290.41C1296.59 303.4 1299.83 306.58 1299.83 312.76V341.02H1310.75V346H1281.47V341.02H1294.07V312.34ZM1317.44 346V341.02H1330.1V319.06H1318.04V314.08H1335.86V341.02H1346.72V346H1317.44ZM1329.68 309.4V303.28H1335.68V309.4H1329.68ZM1368.6 346.72C1364.22 346.72 1360.68 344.74 1358.88 341.2L1358.7 346H1353.42V303.4H1359.18V318.58C1360.8 315.76 1364.28 313.36 1368.6 313.36C1376.76 313.36 1381.86 319.84 1381.86 330.04C1381.86 340.24 1376.76 346.72 1368.6 346.72ZM1367.76 341.38C1372.8 341.38 1375.86 337.06 1375.86 330.04C1375.86 322.9 1372.8 318.7 1367.88 318.7C1362.42 318.7 1359.18 322.96 1359.18 330.04C1359.18 337.06 1362.42 341.38 1367.76 341.38ZM1393.6 331.12V325.9H1412.08V331.12H1393.6ZM1440.55 346.72C1436.17 346.72 1432.63 344.74 1430.83 341.2L1430.65 346H1425.37V303.4H1431.13V318.58C1432.75 315.76 1436.23 313.36 1440.55 313.36C1448.71 313.36 1453.81 319.84 1453.81 330.04C1453.81 340.24 1448.71 346.72 1440.55 346.72ZM1439.71 341.38C1444.75 341.38 1447.81 337.06 1447.81 330.04C1447.81 322.9 1444.75 318.7 1439.83 318.7C1434.37 318.7 1431.13 322.96 1431.13 330.04C1431.13 337.06 1434.37 341.38 1439.71 341.38ZM1462.97 352.6L1481.15 301H1486.61L1468.43 352.6H1462.97ZM1148.6 361.44H1153.22V396.6H1169.3V401.82H1153.22V436.62H1148.6V361.44ZM1168.56 396.6H1205.28V401.82H1168.56V396.6ZM1204.53 396.6H1241.25V401.82H1204.53V396.6ZM1290.71 420.72C1284.77 420.72 1280.03 417.24 1280.03 411.9C1280.03 406.5 1283.39 403.68 1289.99 402.36L1300.43 400.2C1300.43 395.16 1298.09 392.7 1293.83 392.7C1289.63 392.7 1287.47 394.56 1286.63 397.98L1280.63 397.56C1281.83 391.44 1286.51 387.36 1293.83 387.36C1301.69 387.36 1306.13 392.28 1306.13 400.44V413.04C1306.13 414.54 1306.73 415.02 1308.11 415.02H1310.03V420C1309.55 420.06 1308.35 420.18 1307.27 420.18C1303.67 420.18 1301.51 418.68 1300.85 415.44C1299.17 418.56 1295.27 420.72 1290.71 420.72ZM1291.37 415.74C1297.25 415.74 1300.43 412.44 1300.43 407.46V404.88L1291.25 406.74C1287.41 407.46 1286.03 408.96 1286.03 411.42C1286.03 414.18 1287.95 415.74 1291.37 415.74ZM1317.56 429V388.08H1322.96L1323.02 393.18C1324.88 389.4 1328.3 387.36 1332.68 387.36C1341.74 387.36 1346 395.04 1346 404.04C1346 413.04 1341.74 420.72 1332.68 420.72C1328.6 420.72 1325.06 418.86 1323.32 415.74V429H1317.56ZM1331.72 415.38C1336.88 415.38 1340 411.18 1340 404.04C1340 396.9 1336.88 392.7 1331.72 392.7C1326.56 392.7 1323.32 396.6 1323.32 404.04C1323.32 411.48 1326.5 415.38 1331.72 415.38ZM1353.54 429V388.08H1358.94L1359 393.18C1360.86 389.4 1364.28 387.36 1368.66 387.36C1377.72 387.36 1381.98 395.04 1381.98 404.04C1381.98 413.04 1377.72 420.72 1368.66 420.72C1364.58 420.72 1361.04 418.86 1359.3 415.74V429H1353.54ZM1367.7 415.38C1372.86 415.38 1375.98 411.18 1375.98 404.04C1375.98 396.9 1372.86 392.7 1367.7 392.7C1362.54 392.7 1359.3 396.6 1359.3 404.04C1359.3 411.48 1362.48 415.38 1367.7 415.38ZM1393.6 405.12V399.9H1412.08V405.12H1393.6ZM1434.61 420.72C1428.67 420.72 1423.93 417.24 1423.93 411.9C1423.93 406.5 1427.29 403.68 1433.89 402.36L1444.33 400.2C1444.33 395.16 1441.99 392.7 1437.73 392.7C1433.53 392.7 1431.37 394.56 1430.53 397.98L1424.53 397.56C1425.73 391.44 1430.41 387.36 1437.73 387.36C1445.59 387.36 1450.03 392.28 1450.03 400.44V413.04C1450.03 414.54 1450.63 415.02 1452.01 415.02H1453.93V420C1453.45 420.06 1452.25 420.18 1451.17 420.18C1447.57 420.18 1445.41 418.68 1444.75 415.44C1443.07 418.56 1439.17 420.72 1434.61 420.72ZM1435.27 415.74C1441.15 415.74 1444.33 412.44 1444.33 407.46V404.88L1435.15 406.74C1431.31 407.46 1429.93 408.96 1429.93 411.42C1429.93 414.18 1431.85 415.74 1435.27 415.74ZM1462.97 426.6L1481.15 375H1486.61L1468.43 426.6H1462.97ZM1148.6 435.44H1153.22V470.6H1169.3V475.82H1148.6V435.44ZM1168.56 470.6H1205.28V475.82H1168.56V470.6ZM1204.53 470.6H1241.25V475.82H1204.53V470.6ZM1290.71 494.72C1284.77 494.72 1280.03 491.24 1280.03 485.9C1280.03 480.5 1283.39 477.68 1289.99 476.36L1300.43 474.2C1300.43 469.16 1298.09 466.7 1293.83 466.7C1289.63 466.7 1287.47 468.56 1286.63 471.98L1280.63 471.56C1281.83 465.44 1286.51 461.36 1293.83 461.36C1301.69 461.36 1306.13 466.28 1306.13 474.44V487.04C1306.13 488.54 1306.73 489.02 1308.11 489.02H1310.03V494C1309.55 494.06 1308.35 494.18 1307.27 494.18C1303.67 494.18 1301.51 492.68 1300.85 489.44C1299.17 492.56 1295.27 494.72 1290.71 494.72ZM1291.37 489.74C1297.25 489.74 1300.43 486.44 1300.43 481.46V478.88L1291.25 480.74C1287.41 481.46 1286.03 482.96 1286.03 485.42C1286.03 488.18 1287.95 489.74 1291.37 489.74ZM1317.56 503V462.08H1322.96L1323.02 467.18C1324.88 463.4 1328.3 461.36 1332.68 461.36C1341.74 461.36 1346 469.04 1346 478.04C1346 487.04 1341.74 494.72 1332.68 494.72C1328.6 494.72 1325.06 492.86 1323.32 489.74V503H1317.56ZM1331.72 489.38C1336.88 489.38 1340 485.18 1340 478.04C1340 470.9 1336.88 466.7 1331.72 466.7C1326.56 466.7 1323.32 470.6 1323.32 478.04C1323.32 485.48 1326.5 489.38 1331.72 489.38ZM1353.54 503V462.08H1358.94L1359 467.18C1360.86 463.4 1364.28 461.36 1368.66 461.36C1377.72 461.36 1381.98 469.04 1381.98 478.04C1381.98 487.04 1377.72 494.72 1368.66 494.72C1364.58 494.72 1361.04 492.86 1359.3 489.74V503H1353.54ZM1367.7 489.38C1372.86 489.38 1375.98 485.18 1375.98 478.04C1375.98 470.9 1372.86 466.7 1367.7 466.7C1362.54 466.7 1359.3 470.6 1359.3 478.04C1359.3 485.48 1362.48 489.38 1367.7 489.38ZM1393.6 479.12V473.9H1412.08V479.12H1393.6ZM1440.55 494.72C1436.17 494.72 1432.63 492.74 1430.83 489.2L1430.65 494H1425.37V451.4H1431.13V466.58C1432.75 463.76 1436.23 461.36 1440.55 461.36C1448.71 461.36 1453.81 467.84 1453.81 478.04C1453.81 488.24 1448.71 494.72 1440.55 494.72ZM1439.71 489.38C1444.75 489.38 1447.81 485.06 1447.81 478.04C1447.81 470.9 1444.75 466.7 1439.83 466.7C1434.37 466.7 1431.13 470.96 1431.13 478.04C1431.13 485.06 1434.37 489.38 1439.71 489.38ZM1462.97 500.6L1481.15 449H1486.61L1468.43 500.6H1462.97Z" fill="#59873A"/>
</svg>
